<?xml version="1.0" encoding="UTF-8"?>
<svg id="Capa_2" data-name="Capa 2" xmlns="http://www.w3.org/2000/svg" xmlns:xlink="http://www.w3.org/1999/xlink" viewBox="0 0 101.71 97.14">
  <defs>
    <style>
      .cls-1 {
        fill: #57483a;
      }

      .cls-1, .cls-2, .cls-3, .cls-4, .cls-5, .cls-6, .cls-7, .cls-8, .cls-9, .cls-10, .cls-11, .cls-12, .cls-13, .cls-14, .cls-15, .cls-16, .cls-17, .cls-18, .cls-19, .cls-20, .cls-21, .cls-22, .cls-23, .cls-24, .cls-25, .cls-26, .cls-27, .cls-28, .cls-29, .cls-30, .cls-31, .cls-32, .cls-33, .cls-34, .cls-35, .cls-36, .cls-37, .cls-38, .cls-39, .cls-40, .cls-41, .cls-42, .cls-43, .cls-44, .cls-45, .cls-46, .cls-47, .cls-48, .cls-49, .cls-50, .cls-51, .cls-52, .cls-53, .cls-54, .cls-55, .cls-56, .cls-57, .cls-58, .cls-59, .cls-60, .cls-61, .cls-62, .cls-63, .cls-64, .cls-65, .cls-66, .cls-67, .cls-68, .cls-69, .cls-70, .cls-71, .cls-72, .cls-73, .cls-74, .cls-75, .cls-76, .cls-77, .cls-78, .cls-79, .cls-80, .cls-81, .cls-82 {
        stroke-width: 0px;
      }

      .cls-2 {
        fill: #9d9795;
      }

      .cls-3 {
        fill: #b48362;
      }

      .cls-4 {
        fill: #a4a5a6;
      }

      .cls-5 {
        fill: url(#Degradado_sin_nombre_178-2);
      }

      .cls-6 {
        fill: #8f767c;
      }

      .cls-7 {
        fill: #ac2129;
      }

      .cls-8 {
        fill: #52443b;
      }

      .cls-9 {
        fill: #8b8a92;
      }

      .cls-10 {
        fill: #946754;
      }

      .cls-11 {
        fill: #2e1b14;
      }

      .cls-12 {
        fill: #353c42;
      }

      .cls-13 {
        fill: url(#Degradado_sin_nombre_171);
      }

      .cls-14 {
        fill: url(#Degradado_sin_nombre_176);
      }

      .cls-15 {
        fill: #381f11;
      }

      .cls-16 {
        fill: #edc8a9;
      }

      .cls-17 {
        fill: #44323d;
      }

      .cls-18 {
        fill: url(#Degradado_sin_nombre_176-2);
      }

      .cls-19 {
        fill: #77696d;
      }

      .cls-20 {
        fill: #e3e3e4;
      }

      .cls-21 {
        fill: url(#Degradado_sin_nombre_174);
      }

      .cls-22 {
        fill: #6f0d10;
      }

      .cls-23 {
        fill: #433e3b;
      }

      .cls-24 {
        fill: #4b3227;
      }

      .cls-25 {
        fill: url(#Degradado_sin_nombre_171-2);
      }

      .cls-26 {
        fill: #866d58;
      }

      .cls-27 {
        fill: #9b9ba0;
      }

      .cls-28 {
        fill: #2d261f;
      }

      .cls-29 {
        fill: #805c44;
      }

      .cls-30 {
        fill: #c1abad;
      }

      .cls-31 {
        fill: #bcbfc8;
      }

      .cls-32 {
        fill: #170f0c;
      }

      .cls-33 {
        fill: #76726b;
      }

      .cls-34 {
        fill: #6a615f;
      }

      .cls-35 {
        fill: #9a775b;
      }

      .cls-36 {
        fill: #f39322;
      }

      .cls-37 {
        fill: #e3cdce;
      }

      .cls-38 {
        fill: #e96254;
      }

      .cls-39 {
        fill: #8d585c;
      }

      .cls-40 {
        fill: #322218;
      }

      .cls-41 {
        fill: #b08d90;
      }

      .cls-42 {
        fill: url(#Degradado_sin_nombre_170);
      }

      .cls-43 {
        fill: #cdd3dc;
      }

      .cls-44 {
        fill: #7a7c7d;
      }

      .cls-45 {
        fill: #6c3039;
      }

      .cls-46 {
        fill: #735d47;
      }

      .cls-47 {
        fill: #bca8a1;
      }

      .cls-48 {
        fill: url(#Degradado_sin_nombre_203);
      }

      .cls-49 {
        fill: url(#Degradado_sin_nombre_207);
      }

      .cls-50 {
        fill: #811929;
      }

      .cls-51 {
        fill: url(#Degradado_sin_nombre_178);
      }

      .cls-52 {
        fill: #2b2628;
      }

      .cls-53 {
        fill: url(#Degradado_sin_nombre_170-2);
      }

      .cls-54 {
        fill: #c43132;
      }

      .cls-55 {
        fill: #cb9974;
      }

      .cls-56 {
        fill: #634231;
      }

      .cls-57 {
        fill: #76585f;
      }

      .cls-58 {
        fill: #570c0b;
      }

      .cls-59 {
        fill: #da4a45;
      }

      .cls-60 {
        fill: #b59579;
      }

      .cls-61 {
        fill: #755141;
      }

      .cls-62 {
        fill: #706d6e;
      }

      .cls-63 {
        fill: #8d8a7d;
      }

      .cls-64 {
        fill: #908888;
      }

      .cls-65 {
        fill: #201911;
      }

      .cls-66 {
        fill: #58555c;
      }

      .cls-67 {
        fill: #57524a;
      }

      .cls-68 {
        fill: #cacaca;
      }

      .cls-69 {
        fill: url(#Degradado_sin_nombre_174-2);
      }

      .cls-70 {
        fill: #373139;
      }

      .cls-71 {
        fill: #a09599;
      }

      .cls-72 {
        fill: url(#Degradado_sin_nombre_211);
      }

      .cls-73 {
        fill: #8f8591;
      }

      .cls-74 {
        fill: #77747e;
      }

      .cls-75 {
        fill: #b2abb2;
      }

      .cls-76 {
        fill: #8f161d;
      }

      .cls-77 {
        fill: #47515a;
      }

      .cls-78 {
        fill: #e0e0e1;
      }

      .cls-79 {
        fill: #f17a68;
      }

      .cls-80 {
        fill: url(#Degradado_sin_nombre_210);
      }

      .cls-81 {
        fill: #6c4a4d;
      }

      .cls-82 {
        fill: #dbb496;
      }
    </style>
    <linearGradient id="Degradado_sin_nombre_203" data-name="Degradado sin nombre 203" x1="99" y1="52.32" x2="83.17" y2="79.25" gradientUnits="userSpaceOnUse">
      <stop offset="0" stop-color="#413a3f"/>
      <stop offset=".45" stop-color="#767276"/>
      <stop offset="1" stop-color="#3a393d"/>
    </linearGradient>
    <linearGradient id="Degradado_sin_nombre_210" data-name="Degradado sin nombre 210" x1="41.61" y1="42.68" x2="41.55" y2="84.12" gradientUnits="userSpaceOnUse">
      <stop offset="0" stop-color="#e15745"/>
      <stop offset="1" stop-color="#c3332f"/>
    </linearGradient>
    <linearGradient id="Degradado_sin_nombre_207" data-name="Degradado sin nombre 207" x1="20.12" y1="47.68" x2="24.83" y2="85.47" gradientUnits="userSpaceOnUse">
      <stop offset="0" stop-color="#ed7d6d"/>
      <stop offset="1" stop-color="#d3433e"/>
    </linearGradient>
    <linearGradient id="Degradado_sin_nombre_211" data-name="Degradado sin nombre 211" x1="32.13" y1="43.16" x2="35.8" y2="84" gradientUnits="userSpaceOnUse">
      <stop offset="0" stop-color="#e45c48"/>
      <stop offset="1" stop-color="#cb3b32"/>
    </linearGradient>
    <linearGradient id="Degradado_sin_nombre_171" data-name="Degradado sin nombre 171" x1="14.21" y1="77.25" x2="22.89" y2="80.99" gradientUnits="userSpaceOnUse">
      <stop offset="0" stop-color="#674132"/>
      <stop offset="1" stop-color="#28170c"/>
    </linearGradient>
    <linearGradient id="Degradado_sin_nombre_170" data-name="Degradado sin nombre 170" x1="40.83" y1="85.81" x2="38.76" y2="85.92" gradientUnits="userSpaceOnUse">
      <stop offset="0" stop-color="#6f4734"/>
      <stop offset="1" stop-color="#22110a"/>
    </linearGradient>
    <linearGradient id="Degradado_sin_nombre_174" data-name="Degradado sin nombre 174" x1="22.99" y1="66.41" x2="34.33" y2="77.72" gradientUnits="userSpaceOnUse">
      <stop offset="0" stop-color="#a1745a"/>
      <stop offset="1" stop-color="#67412f"/>
    </linearGradient>
    <linearGradient id="Degradado_sin_nombre_178" data-name="Degradado sin nombre 178" x1="36.99" y1="77.06" x2="38.17" y2="77.35" gradientUnits="userSpaceOnUse">
      <stop offset="0" stop-color="#826951"/>
      <stop offset="1" stop-color="#64503f"/>
    </linearGradient>
    <linearGradient id="Degradado_sin_nombre_176" data-name="Degradado sin nombre 176" x1="19.6" y1="80.65" x2="29.64" y2="93.71" gradientUnits="userSpaceOnUse">
      <stop offset="0" stop-color="#966a51"/>
      <stop offset="1" stop-color="#563625"/>
    </linearGradient>
    <linearGradient id="Degradado_sin_nombre_171-2" data-name="Degradado sin nombre 171" x1="60.21" y1="78.25" x2="68.89" y2="81.99" xlink:href="#Degradado_sin_nombre_171"/>
    <linearGradient id="Degradado_sin_nombre_170-2" data-name="Degradado sin nombre 170" x1="86.83" y1="86.81" x2="84.76" y2="86.92" xlink:href="#Degradado_sin_nombre_170"/>
    <linearGradient id="Degradado_sin_nombre_174-2" data-name="Degradado sin nombre 174" x1="68.99" y1="67.41" x2="80.33" y2="78.72" xlink:href="#Degradado_sin_nombre_174"/>
    <linearGradient id="Degradado_sin_nombre_178-2" data-name="Degradado sin nombre 178" x1="82.99" y1="78.06" x2="84.17" y2="78.35" xlink:href="#Degradado_sin_nombre_178"/>
    <linearGradient id="Degradado_sin_nombre_176-2" data-name="Degradado sin nombre 176" x1="65.6" y1="81.65" x2="75.64" y2="94.71" xlink:href="#Degradado_sin_nombre_176"/>
  </defs>
  <g id="Capa_1-2" data-name="Capa 1">
    <g>
      <g>
        <path class="cls-48" d="M93.09,47.69c.04.85-.15,1.58.24,1.45-.02,0-.35.21-.36.29-.13.91.12,1.87.12,2.76,0,.1,0,.19,0,.29.02,11-.01,22,0,33-.86-.02-2.31.43-3.27,0,.51-3.1-.1-33.92.12-40.85,1.15.87,2.1,2.04,3.15,3.05Z"/>
        <path class="cls-32" d="M93.09,85.49c1.85.04.49.96,1.15,1.31.47.25,7.09-.26,7.39,0,.1.08.1,1.51,0,1.6-29.81-.13-59.63.23-89.44-.15-1.54-.02-11.6.23-12.12-.15-.1-.07-.07-.44-.06-.58.18-.02.08.26.18.29,1.44.38,10.03-.16,12.3-.15.09,0,.98.29,1.03.29,8.52.08,17.05-.09,25.57.29.88-.91-.16-.47-.42-1.02,1.75-.08,3.52.11,5.27,0,.06,0,.31-.43.36-.44,8.11-.45,16.96.46,25.15-.15.17,0,.1.15.12.29,0,.07-.32.27.18,1.16h18.78c.08-.26.31-.82.42-1.02.02-.03.34.1.48-.22-.13-1.17.34-1.26.36-1.38.96.43,2.42-.02,3.27,0Z"/>
        <path class="cls-9" d="M37.58,15.56c-4.19,4.34-8.27,8.84-12.42,13.23.15-.54-.8.35-1.45,1.02-1.21,1.23-2.31,2.7-3.51,3.93-1.08,1.1-3.15,2.71-4.48,4.07-3.39,3.46-6.46,7.41-10.12,10.47.01-.38-.19-.69-.12-1.09q4.3-4.76,8.6-9.52c.44-.21,2.52-2.45,3.15-3.05C23.23,28.92,48.84,1.08,50.91.15v.94c-4.53,4.74-9.34,9.2-13.57,14.39l.24.07Z"/>
        <path class="cls-52" d="M81.69,31.69c1.21,1.17,2.42,2.33,3.64,3.49,1.23,1.18,2.43,2.42,3.64,3.63,2.73,2.76,5.41,5.63,8,8.58-.73.64.08,1.31-.91,1.02-.64-.19-8.74-8.91-10.3-9.89-1.96-2.41-4.18-4.49-6.3-6.69-.15-.15-.76-2.04-2.91-2.91-5.32-6.4-11.38-11.86-16.79-18.17.03.03.39-.06.79.29,2.32,2.18,4.78,4.26,7.03,6.54.46.46.8,1.25.85,1.31,4.1,4.17,8.17,8.32,12.36,12.36.37.36.87.4.91.44Z"/>
        <path class="cls-58" d="M79.27,32.86c4.57,4.72,9.35,9.18,13.88,13.96.88.92,2.62,2.83,1.88,2.62-.61-.6-1.32-1.15-1.94-1.74-1.05-1.01-2.01-2.18-3.15-3.05h-.12c-1.85-.37-3.83-.23-5.82-.29,1.16.08-.37-2.3-.67-2.47-.63-.37-1.06.11-2.24.15v-6.47c-2.24-1.9-1.95-2.37-2.06-.51-2.63-1.17-3.47,1.1-3.88,3.78-.04-3,.09-6.02-.12-9.01.64.19,3.58,3.85,3.82,3.78.16-.05.08-.84.42-.73Z"/>
        <path class="cls-28" d="M9.22,86.65s-.05.25.06.29c.36.14,2.42-.1,3.21,0-.03.23.02.49,0,.73-2.27-.02-10.86.52-12.3.15-.1-.03,0-.31-.18-.29.01-.16-.02-.32,0-.36.33-.58,7.73.06,8.06-.22.16-.13-.09-.85.24-1.02.28-.14.63.55.91.73Z"/>
        <path class="cls-58" d="M16.86,40.85c0,.1,0,.19,0,.29l-3.64,3.78c-1.26.85-2.47,1.9-3.64,2.91-.78.67-1.51,1.39-2.3,2.04-.24-.21.26-.75.67-1.16,2.89-3,5.87-5.9,8.79-8.87-.08.68.12.96.12,1.02Z"/>
        <g>
          <path class="cls-68" d="M12.62,86.5c-.03.58-.12.41-.12.44-.79-.1-2.85.14-3.21,0-.11-.04-.04-.28-.06-.29.08-4.14-.5-30.66-.12-32.2.06-.25,1.16-1.1,1.21-1.67.53-.2,1.69-1.59,2.3-2.04-.42,9.76.48,26.64,0,35.76Z"/>
          <g>
            <path class="cls-66" d="M12.98,46.67c-.16.98-.31,2.75-.36,3.78,0,.1,0,.19,0,.29-.61.45-1.78,1.83-2.3,2.04-.4.15-.36.08-.73,0-.2-.85-.12-1.75-.12-2.62,0-.47.06-.89-.12-.87.05-.19.25-.2.36-.29.03-.02.14.35.67,0l2.61-2.33Z"/>
            <path class="cls-70" d="M13.22,44.92c.02.6-.15,1.17-.24,1.74l-2.61,2.33c-.53.35-.64-.02-.67,0l-.12-1.16c1.17-1.01,2.38-2.06,3.64-2.91Z"/>
            <g>
              <path class="cls-23" d="M9.46,50.16c0,.87-.08,1.76.12,2.62-.75-.17-1.06-.53-1.58-1.16.17-.54.97-1.32,1.45-1.45Z"/>
              <path class="cls-32" d="M9.46,50.16c-.48.13-1.29.91-1.45,1.45-.11-.14-.52-.29-.48-.51l1.82-1.82c.18-.02.12.4.12.87Z"/>
            </g>
          </g>
        </g>
        <path class="cls-70" d="M81.69,31.69s-.53-.08-.91-.44c-4.19-4.04-8.26-8.19-12.36-12.36-.05-.05-.39-.85-.85-1.31-2.25-2.28-4.71-4.36-7.03-6.54-.39-.35-.75-.26-.79-.29-3.01-2.75-5.54-6.2-8.6-8.87V0c10.49,10.12,20.36,21.14,30.54,31.69Z"/>
        <path class="cls-74" d="M51.15,1.89c-4.56,4.5-9.11,9.04-13.57,13.67l-.24-.07c4.24-5.2,9.05-9.65,13.57-14.39V.15c.12-.05.16-.15.24-.15v1.89Z"/>
        <path class="cls-58" d="M61.7,14.54c.7.72,1.37,1.46,2.06,2.18-.89.5,1.6,3,2.12,3.49,1.21,1.14,1.43,1.57,1.64.29.65.68,1.29,1.36,1.94,2.04-.46,1.54,2.6,4.53,3.76,5.23,0,.1,0,.19,0,.29,0,.32.05.59-.12.87-2.56-.2-2.07.63-3.76,2.18-.02-1.94.11-4.74,0-6.4-.03-.41.02-.83,0-1.24-.74-.41-1.15-1.34-1.7-1.96,0-.01-.03-.3-.24-.07,0,.61.01,1.21,0,1.82-2.31-1.39-2.61.97-3.88,1.6-.02-1.87.09-3.82,0-5.67-.03-.55.02-1.12,0-1.67l-1.88-1.96c-.29.05-.18,2.38-.18,2.76,0,.05,0,.1,0,.15-.23-.7-.8-.58-1.39-.58,0,.6-2.7,2.49-2.48,1.02-.02-1.74.07-3.5,0-5.23-.02-.63.02-1.26,0-1.89.09.03.16-.15.18-.15.23.07,3.4,3.82,3.64,3.78.29-.05.07-.82.3-.87Z"/>
        <path class="cls-58" d="M49.46,8s-.24.46-.24.51c-.05,2.15.03,4.32,0,6.47,0,.44,0,.87,0,1.31-.71.3-1.28,1.22-1.82,1.74-.85.82-1.81,1.46-2.55,2.47,0-.15,0-.29,0-.44.05-2.76.22-5.52.12-8.29l.18-.58c1.22-1.48,4.66-3.66,3.94-4.94.01,0,.11-.39.24-.22-.02.68.14,1.28.12,1.96Z"/>
        <path class="cls-50" d="M31.4,24.86l.24.73c-.14.16-.54.64-.61.73-.88.16-1.07,1.35-1.15,1.45-1.22,1.55-3,2.59-4.06,4.36-.65.34-1.17,1.06-1.7,1.6-1.74,1.81-3.61,3.48-5.39,5.23l-.06.44-1.82,1.45c0-.06-.2-.33-.12-1.02,4.9-4.98,9.82-9.92,14.66-14.97Z"/>
        <path class="cls-50" d="M43.4,13.23c-.49.55-.34.56-.36.58-1.54,1.7-3.21,3.19-4.73,4.94-.54.63-1.16,1.2-1.76,1.74l-.06.44c-.08.04-.17-.15-.18-.15-.24.18-3.65,3.91-4.18,4.51-.11.12-.38.17-.48.29l-.24-.73c3.82-3.98,7.57-8.08,11.39-12.07.32-.03.62-.03.61.44Z"/>
        <path class="cls-58" d="M44.97,11.78c-.55.31-1.13.95-1.58,1.45.02-.47-.28-.47-.61-.44,1.38-1.45,4.87-5.76,6.3-6.54.72,1.28-2.72,3.47-3.94,4.94l-.18.58Z"/>
        <path class="cls-58" d="M75.03,28.64c1.47,1.05,2.87,2.8,4.24,4.22-.34-.12-.26.68-.42.73-.24.07-3.18-3.59-3.82-3.78-.07-1.01-.18-.37-1.82-.73l-.12-.15c.18-.28.11-.56.12-.87.64-.11,1.26,1.63,1.82.58Z"/>
        <path class="cls-58" d="M73.21,26.61c0,.39,0,.78,0,1.16-1.16-.7-4.21-3.7-3.76-5.23,1.28,1.32,2.62,2.57,3.76,4.07Z"/>
        <g>
          <path class="cls-32" d="M59.76,10.76c5.41,6.31,11.47,11.77,16.79,18.17,2.15.87,2.76,2.75,2.91,2.91,2.12,2.2,4.34,4.27,6.3,6.69,1.56.97,9.66,9.7,10.3,9.89.99.29.18-.38.91-1.02l-.18,4.07c-.56-.51-1.36-1.65-1.76-2.04.74.21-1-1.69-1.88-2.62-4.53-4.78-9.31-9.24-13.88-13.96-1.37-1.42-2.77-3.17-4.24-4.22l-1.82-2.04c-1.14-1.5-2.48-2.75-3.76-4.07-.65-.67-1.29-1.36-1.94-2.04-1.24-1.29-2.53-2.5-3.76-3.78-.69-.72-1.36-1.46-2.06-2.18-1.89-1.95-3.81-3.86-5.7-5.82-1.31-1.36-2.47-2.97-3.88-4.22-.14-.13-.66-.88-.85-.51-.01,1.38.02,2.76,0,4.14l-1.82-.15c.02-.68-.14-1.29-.12-1.96-.13-.17-.23.21-.24.22-1.43.78-4.92,5.1-6.3,6.54-3.82,3.99-7.57,8.08-11.39,12.07-4.84,5.05-9.77,9.99-14.66,14.97-2.92,2.97-5.9,5.87-8.79,8.87-.4.42-.9.95-.67,1.16-.54.44-1.03,1-1.64,1.31-.11-.1-.07-2.53-.06-2.91,3.66-3.06,6.73-7.01,10.12-10.47,1.33-1.36,3.4-2.97,4.48-4.07,1.2-1.22,2.31-2.69,3.51-3.93.66-.67,1.61-1.56,1.45-1.02,4.15-4.39,8.23-8.89,12.42-13.23,4.47-4.62,9.01-9.17,13.57-13.67,3.07,2.67,5.6,6.11,8.6,8.87Z"/>
          <path class="cls-58" d="M67.52,20.5c-.21,1.28-.42.85-1.64-.29-.52-.49-3.01-2.99-2.12-3.49,1.23,1.28,2.52,2.49,3.76,3.78Z"/>
          <path class="cls-58" d="M52.12,4.51c1.4,1.25,2.57,2.85,3.88,4.22-.46,0-.51.43-.55.44-.28.01-4.55-5.41-3.33-4.65Z"/>
          <path class="cls-45" d="M75.03,28.64c-.56,1.05-1.18-.69-1.82-.58,0-.1,0-.19,0-.29,0-.39,0-.78,0-1.16l1.82,2.04Z"/>
          <path class="cls-68" d="M50.49,5.67c.23-.15.7.19.55.51-.11.23-.83-.32-.55-.51Z"/>
        </g>
        <path class="cls-76" d="M89.81,85.49c-.02.12-.49.22-.36,1.38-.14.32-.47.19-.48.22h-.24v-42.09l1.09-.36h.12c-.22,6.94.39,37.75-.12,40.85Z"/>
        <g>
          <path class="cls-32" d="M93.09,52.48c0-.1,0-.19,0-.29.91-.22.91-3.24-.12-2.76.02-.08.34-.29.36-.29.05,0,.37.19,1.09.22.04,2.02.23,2.18-1.33,3.13Z"/>
          <path class="cls-52" d="M93.09,52.19c0-.89-.25-1.85-.12-2.76,1.03-.47,1.03,2.54.12,2.76Z"/>
        </g>
        <path class="cls-11" d="M38.67,85.92c.04.14-.13,1.03,0,1.31.26.55,1.3.11.42,1.02-8.52-.38-17.05-.21-25.57-.29-.05,0-.94-.29-1.03-.29.02-.23-.03-.5,0-.73,0-.02.09.14.12-.44.75,1.25.93.77,1.94.87.79.08,1.63-.02,2.42,0,.44.01.89,0,1.33,0,.16,0,.32,0,.48,0,.2,0,.4,0,.61,0,.24,0,.48,0,.73,0,1.29.01,2.59,0,3.88,0,.57,0,1.16-.14,1.7-.15.07,0,.1.15.48.15.32,0,.65,0,.97,0,.12,0,.24,0,.36,0,.57,0,1.13,0,1.7,0,2.4-.03,4.81.02,7.21,0,.59-.31.74-.91,1.03-1.31.17-.23.49-.44.73-.58.21-.04.43.23.48.44Z"/>
        <path class="cls-58" d="M73.09,44.05c-.01.29.02.58,0,.87-.34,5.48-.12,11.08-.12,16.57,0,8.53-.1,17.06.12,25.59-.44,0-.89,0-1.33,0l-.06-42.16-2,.22c.05,3.25-.05,6.5,0,9.74,0,.06.24.23.24.29.02,1.3-.11,2.64.12,3.93l-.12,27.84c-.1-.03-.25.02-.36,0-.02-.14.05-.3-.12-.29l.12-41.43.12-1.16c1.13.02,2.26-.03,3.39,0Z"/>
        <path class="cls-32" d="M69.94,86.94c.65.19,1.17.14,1.82.15.44,0,.89,0,1.33,0,.69,0,1.4-.15,2.06-.15.49,0,1.05.14,1.58.15.4,0,.81,0,1.21,0,.48,0,.97,0,1.45,0,.89,0,1.8-.15,2.67-.15.49,0,1.05.15,1.58.15,1.25,0,2.5,0,3.76,0h1.58c-.12.2-.34.76-.42,1.02h-18.78c-.5-.89-.17-1.09-.18-1.16.12.02.26-.03.36,0Z"/>
        <path class="cls-58" d="M73.45,44.05c3.51.1,7.03.19,10.54.29,1.98.06,3.96-.08,5.82.29l-1.09.36v42.09h-1.33q-.03-21.15-.06-42.31l-3.58.22-.12,42.09c-.52,0-1.08-.15-1.58-.15l.24-41.94c-.1-.17-2.98-.1-3.39-.07-.22.02-1.12-.08-1.21.07q.12,21.04.24,42.09c-.4,0-.81,0-1.21,0l.12-41.94-3.76-.22c.02-.29-.01-.58,0-.87.12,0,.24,0,.36,0Z"/>
        <path class="cls-57" d="M75.03,29.8c.21,2.99.08,6.01.12,9.01v3.05s.04.29-.06.29c-.34-.01-.86-.33-1.76,0-.39-3.93.06-7.98-.12-11.92-.02-.39.01-.78,0-1.16,1.64.36,1.75-.28,1.82.73Z"/>
        <path class="cls-81" d="M81.09,42.02c-.37,0-.86.04-1.21,0-1.36-.29-.04-4.23-.85-5.09,0-.58-.03-1.17,0-1.74,0-.05,0-.1,0-.15.11-1.86-.18-1.39,2.06.51v6.47Z"/>
        <g>
          <path class="cls-76" d="M79.03,36.93c-.02,1.67.02,3.34,0,5.02.09.15.66.05.85.07.36.04.84,0,1.21,0,1.18-.03,1.61-.51,2.24-.15.3.18,1.82,2.55.67,2.47-3.51-.1-7.03-.19-10.54-.29.41-2.37-.09-1.6-.12-1.89.9-.33,1.42-.01,1.76,0,.1,0,.05-.29.06-.29.07,0,.12.54,1.33.22l-.36-.15c.18-1.5,0-4.32.73-5.52.99-1.65,2.05-.02,2.18-1.24-.03.57,0,1.17,0,1.74Z"/>
          <path class="cls-58" d="M79.03,35.04s0,.1,0,.15c-.13,1.21-1.19-.41-2.18,1.24-.72,1.21-.54,4.02-.73,5.52l.36.15c-1.21.32-1.26-.22-1.33-.22v-3.05c.41-2.68,1.25-4.95,3.88-3.78Z"/>
        </g>
        <path class="cls-17" d="M18.67,39.4c-.13,1.64-.06,3.3-.12,4.94,0,.23-.11.33-.12.73-.36-.32-.95.68-1.58,1.16.02-1.62.07-3.5,0-5.09,0-.1,0-.2,0-.29l1.82-1.45Z"/>
        <path class="cls-76" d="M61.46,18.46c0,.41.09.75,0,1.16-.49-.29-.85.06-1.7-.07-1.46,7.33-.73,15.04-.73,22.53-.51.27-1.38-.07-1.45-.07-.05-7.61.07-15.22,0-22.83,0-.1,0-.19,0-.29-.22,1.47,2.49-.42,2.48-1.02.59,0,1.16-.11,1.39.58Z"/>
        <path class="cls-19" d="M69.33,24.72c.11,1.66-.02,4.45,0,6.4.01,1.32-.18,10.49.12,10.9-.56-.05-1.15.07-1.7,0l.12-10.54c-.31-2.14-.21-4.31-.24-6.47,0-.44.01-.87,0-1.31.72-.17,1.02,1.13,1.7,1.02Z"/>
        <path class="cls-81" d="M69.33,24.72c-.67.12-.97-1.19-1.7-1.02-.02-.82-.23-1.79,0-2.18.55.62.96,1.55,1.7,1.96.02.41-.03.83,0,1.24Z"/>
        <path class="cls-39" d="M67.64,21.52c-.23.39-.02,1.36,0,2.18.01.44,0,.87,0,1.31l-.24-1.45c0-.1,0-.19,0-.29.01-.6,0-1.21,0-1.82.21-.23.23.06.24.07Z"/>
        <path class="cls-70" d="M44.97,11.78c.1,2.77-.08,5.53-.12,8.29l-1.82,1.31v-7.56s-.13-.04.36-.58c.45-.5,1.03-1.15,1.58-1.45Z"/>
        <path class="cls-76" d="M47.4,18.03c.39.71-.33.94-.36,1.09-.05.2.05.59,0,.8-.14.6-.41,1.51-.48,2.04-.02.1-.08.14-.12.44-1.08.56-.58,1.74-1.33,1.67-.11,1.65.15,8.79,0,9.3-.03.11-.16.07-.24.07.04-3.88-.05-7.76,0-11.63,0-.44,0-.87,0-1.31.73-1.01,1.69-1.65,2.55-2.47Z"/>
        <path class="cls-50" d="M49.22,16.28c0,.82-.11,1.67-.12,2.47,0,.05,0,.1,0,.15l-2.06,1.02c.05-.2-.05-.6,0-.8.04-.15.75-.38.36-1.09.54-.52,1.1-1.44,1.82-1.74Z"/>
        <path class="cls-75" d="M44.85,20.06c0,.15,0,.29,0,.44,0,.44,0,.87,0,1.31l-.24-.07-.06,1.67c-.56-.34-1.36-.43-1.51-1.16v-.87l1.82-1.31Z"/>
        <path class="cls-58" d="M24.13,38.96l-.12.29c-1.41,1.25-2.59,2.8-3.88,4.22-.05.05-.76.44-1.09.87h-.48c.06-1.64,0-3.3.12-4.94l.06-.44c1.78-1.75,3.65-3.43,5.39-5.23v5.23Z"/>
        <path class="cls-58" d="M31.04,26.31c-.23.33-.46.66-.73.94,0,1.96,0,3.93,0,5.89,0,.05,0,.1,0,.15-1.2,1.06-2.29,2.31-3.51,3.34-.3.26-.65.5-.97.73v-5.23c1.06-1.77,2.84-2.82,4.06-4.36.08-.11.27-1.29,1.15-1.45Z"/>
        <path class="cls-58" d="M43.03,21.37v.73c-1.08.79-1.99,1.88-2.91,2.91-.04.05-.56.33-.97.87-.16.21-.41.48-.61.65l-.12,2.83c-.19-1.33-.15-2.73-.12-4.07.04-2.18.32-4.37,0-6.54,1.51-1.75,3.18-3.24,4.73-4.94v7.56Z"/>
        <path class="cls-58" d="M36.49,20.94c-.04,2.08.05,4.17,0,6.25,0,.4-.12.5-.12.73-1.47,1.25-2.57,3.03-4.24,3.93.03-2.18-.02-4.36,0-6.54.53-.6,3.94-4.33,4.18-4.51.01,0,.11.18.18.15Z"/>
        <path class="cls-76" d="M26.79,37.51c-.15,1.47.21,2.37.24,3.2,0,.24,0,.49,0,.73-.67-.12-.37.26-.61.44-.03-.48.08-.8-.18-1.02-.08.39-.27.26-.3.36-.23.85-.16,17.01,0,17.88,0,.04.08-.19.48.51,0,.92,0,1.84,0,2.76,0,2.64,0,5.28,0,7.92,0,.03-.24.33-.24.58,0,.03.24.41.24.44,0,3.56.26,11.01.12,13.67-.02.35-.23,1.97-.36,2.4-.38,0-.41-.15-.48-.15v-49.58c.03-.06-.07-.3.12-.29.32-.23.67-.47.97-.73v.87Z"/>
        <g>
          <path class="cls-38" d="M29.22,69.93c.02,5.82-.01,11.63,0,17.45-.57,0-1.13,0-1.7,0,0-.16.23-.28.24-.36.16-.83-.27-14.49-.12-17.08.51-.06,1.06-.12,1.58,0Z"/>
          <path class="cls-7" d="M27.04,62.37c0,.46.12.5.12.58.01,1.53-.17,3.1-.12,4.65.01.31-.06,1.79.06,1.89l2.12.15c0,.1,0,.19,0,.29-.51-.12-1.06-.06-1.58,0-.09.01-.31-.4-.61.07l.12,17.37c-.32,0-.65,0-.97,0,.13-.43.35-2.05.36-2.4.14-2.66-.12-10.1-.12-13.67,0-.03-.24-.41-.24-.44,0-.25.24-.55.24-.58,0-2.64,0-5.28,0-7.92h.61Z"/>
          <path class="cls-59" d="M27.64,69.93c-.15,2.6.28,16.25.12,17.08-.02.08-.25.2-.24.36-.12,0-.24,0-.36,0l-.12-17.37c.3-.47.51-.06.61-.07Z"/>
        </g>
        <path class="cls-76" d="M76.73,87.08c-.52,0-1.09-.14-1.58-.15-.38-3.62.17-23.05-.12-24.21-.02-.06-.24.14-.67-.94-.6.18-.89.01-1.39-.29,0-5.49-.21-11.1.12-16.57l3.76.22-.12,41.94Z"/>
        <path class="cls-50" d="M71.76,87.08c-.65,0-1.17.05-1.82-.15l.12-27.84c-.24-1.28-.1-2.63-.12-3.93,0-.06-.24-.23-.24-.29-.05-3.24.05-6.5,0-9.74l2-.22.06,42.16Z"/>
        <path class="cls-58" d="M75.15,86.94c-.66,0-1.37.15-2.06.15-.22-8.53-.13-17.06-.12-25.59.51.3.79.47,1.39.29.43,1.09.65.88.67.94.29,1.16-.26,20.59.12,24.21Z"/>
        <g>
          <path class="cls-76" d="M73.09,28.93l.12.15c.01.39-.02.78,0,1.16-.41.48-.95.62-1.03.73-.9,1.18,0,10.74-.85,11.19-.18.09-1.3-.07-1.76,0-.15.02-.12-.14-.12-.15-.3-.41-.11-9.58-.12-10.9,1.69-1.55,1.2-2.38,3.76-2.18Z"/>
          <path class="cls-7" d="M73.21,30.24c.18,3.94-.27,7.99.12,11.92.03.29.53-.48.12,1.89-.12,0-.24,0-.36,0-1.13-.03-2.26.02-3.39,0l-.24-.29c.64-.68-.28-.34.12-1.6.46-.07,1.58.09,1.76,0,.86-.45-.05-10.02.85-11.19.08-.1.62-.24,1.03-.73Z"/>
        </g>
        <g>
          <path class="cls-76" d="M39.28,27.33c.04.5.12.97.12,1.02.18,4.19-.08,8.45-.12,12.65-.14,14.93-.07,29.85-.24,44.78-.18.02-.21.05-.36.15-.05-.21-.28-.48-.48-.44.26-.57.1-9.73.12-11.34.17-14.93.12-29.85.12-44.78l.12-2.83c.19-.18.45-.44.61-.65.06.48.08.97.12,1.45Z"/>
          <path class="cls-80" d="M43.03,42.02c.32.05.74-.02,1.09,0-.47.29-.13.83-.12,1.31,0,.16-.24.3-.24.36,0,.09.26-.34.24,1.53,0,.46-.12.5-.12.58-.11,11.03-.08,22.11,0,33.15.01,1.91-.12,5.1,0,6.54-.6.63-3.24.13-4.85.29.17-14.93.11-29.85.24-44.78,1.03-.03,1.9.73,3.76,1.02Z"/>
        </g>
        <path class="cls-58" d="M87.39,87.08c-1.25,0-2.5,0-3.76,0l.12-42.09,3.58-.22q.03,21.15.06,42.31Z"/>
        <path class="cls-76" d="M82.06,86.94c-.87,0-1.78.15-2.67.15.09-.54-.22-.41-.24-.51-.42-2.02.16-35.74-.24-41.65.41-.03,3.3-.09,3.39.07l-.24,41.94Z"/>
        <path class="cls-58" d="M78.91,44.92c.4,5.91-.17,39.63.24,41.65.02.1.34-.03.24.51-.48,0-.97,0-1.45,0q-.12-21.04-.24-42.09c.09-.15.99-.06,1.21-.07Z"/>
        <path class="cls-39" d="M79.88,42.02c-.19-.02-.76.08-.85-.07.02-1.67-.02-3.34,0-5.02.8.85-.51,4.8.85,5.09Z"/>
        <path class="cls-54" d="M61.46,19.63c.16.09.11.13.12.15l-.12,22.17c.09.15.45.04.61.07.46.08.99-.03,1.45,0,.42.03.72.2,1.21.15.17-.02.65.07.73-.07-.31-2.07.05-15.12.61-15.99.26-.41.98-.47,1.09-.29.39.66-.3,14.17,0,16.14l.24.07c.12,0,.24-.01.36,0,.55.07,1.14-.05,1.7,0,0,0-.03.16.12.15-.4,1.25.52.92-.12,1.6-.3-.41-.61,0-.67,0-1.78.07-3.78-.14-5.51,0-1.68-.25-3.4-.17-5.09-.15.15-.31-1.54-.15-2.79-.15-.04-1.2.36-1.38.36-1.45h.73c.08,0,.16,0,.24,0,.28,0,.57,0,.85,0,.07,0,.95.35,1.45.07,0-7.49-.73-15.21.73-22.53.85.14,1.21-.22,1.7.07Z"/>
        <g>
          <path class="cls-74" d="M63.52,19.19c.09,1.85-.02,3.8,0,5.67.05,5.72-.04,11.44,0,17.16-.47-.03-.99.08-1.45,0,.02-3.99.33-18.64,0-21.15-.16-1.23-.34-.9-.48-1.09-.01-.02.04-.05-.12-.15.09-.41,0-.76,0-1.16,0-.05,0-.1,0-.15.44-.11.15.63.24.8.08.15,2.15,2.32,1.82.07Z"/>
          <path class="cls-57" d="M63.52,19.19c.33,2.25-1.74.08-1.82-.07-.09-.17.2-.91-.24-.8,0-.38-.11-2.71.18-2.76l1.88,1.96c.02.56-.03,1.12,0,1.67Z"/>
          <path class="cls-71" d="M62.06,42.02c-.16-.03-.52.08-.61-.07l.12-22.17c.15.2.32-.14.48,1.09.33,2.52.02,17.16,0,21.15Z"/>
        </g>
        <g>
          <path class="cls-76" d="M67.39,23.26c0,.1,0,.19,0,.29,0,.24,0,.48,0,.73-3.07.56-2.29,5.21-2.42,7.92,0,.06-.24.23-.24.29-.14,3.19.13,6.47,0,9.67-.49.06-.79-.12-1.21-.15-.04-5.72.05-11.44,0-17.16,1.27-.63,1.57-2.99,3.88-1.6Z"/>
          <path class="cls-7" d="M67.39,24.28c-.07,5.91.05,11.83,0,17.74l-.24-.07c-.3-1.96.39-15.48,0-16.14-.11-.18-.83-.12-1.09.29-.56.87-.92,13.92-.61,15.99-.08.15-.56.05-.73.07.13-3.2-.14-6.48,0-9.67,0-.06.24-.23.24-.29.13-2.71-.65-7.36,2.42-7.92Z"/>
        </g>
        <path class="cls-41" d="M67.64,25.01c.03,2.15-.07,4.33.24,6.47l-.12,10.54c-.12-.01-.24,0-.36,0,.05-5.91-.07-11.83,0-17.74,0-.24,0-.48,0-.73l.24,1.45Z"/>
        <g>
          <path class="cls-70" d="M51.28,8.14c-.03,2.18.02,4.36,0,6.54l-2.06.29c.03-2.15-.05-4.32,0-6.47,0-.05.24-.48.24-.51l1.82.15Z"/>
          <path class="cls-37" d="M51.15,19.77c-.05,7.41.04,14.83,0,22.24-.64-.09-1.4.06-2.06,0,.04-7.22-.05-14.44,0-21.66,0-.48,0-.97,0-1.45,0-.05,0-.1,0-.15.08,0,.21-.04.24.07.5,1.71-.4,21.87.12,22.83.56,1.02.6-3.23.61-3.63.1-5.77-.43-11.6,0-17.37l.24,20.57c.21.4.05.7.61.44.09-7.53-.21-15.08-.12-22.61,0-.31.13-1.62.36-1.6,0,.78,0,1.55,0,2.33Z"/>
          <path class="cls-68" d="M50.79,19.05c-.09,7.52.21,15.08.12,22.61-.55.26-.39-.04-.61-.44l-.24-20.57c.05-.96-.28-1.35.73-1.6Z"/>
          <g>
            <path class="cls-75" d="M51.28,14.68c-.01.91-.11,1.84-.12,2.76-.23-.02-.36,1.29-.36,1.6-1.01.25-.68.63-.73,1.6-.43,5.78.1,11.6,0,17.37,0,.4-.05,4.66-.61,3.63-.52-.95.37-21.12-.12-22.83-.03-.11-.16-.07-.24-.07,0-.8.11-1.65.12-2.47,0-.44,0-.87,0-1.31l2.06-.29Z"/>
            <path class="cls-66" d="M50.37,15.41c1.07-.27.53.63,0,.58-.53-.05-.56-.44,0-.58Z"/>
          </g>
        </g>
        <path class="cls-38" d="M49.09,42.02l-.24-.07c.04-9.31-.08-7.32-.73.15l-1.82-.36c-.16-4.05-.31-14.48,0-18.03.04-.45.06-.85.12-1.31.04-.3.11-.34.12-.44,1-.08,2.59-.17,2.55-1.6-.05,7.22.04,14.44,0,21.66Z"/>
        <path class="cls-59" d="M49.09,18.9c0,.48,0,.97,0,1.45.04,1.43-1.54,1.52-2.55,1.6.08-.53.34-1.44.48-2.04l2.06-1.02Z"/>
        <path class="cls-7" d="M46.43,22.39c-.06.46-.08.86-.12,1.31-.11.07-.71.46-.73.51-.26.84.2,15.51,0,17.88-.52.6-.68-.07-.73-.07v-8.58c.08,0,.21.04.24-.07.15-.51-.11-7.65,0-9.3.75.07.26-1.11,1.33-1.67Z"/>
        <path class="cls-7" d="M43.03,22.1v1.45c-.99-.3-2.15,2.12-2.91,1.45.92-1.03,1.83-2.12,2.91-2.91Z"/>
        <g>
          <path class="cls-49" d="M24.13,41.29l-.12,46.09c-1.29,0-2.59.01-3.88,0,.3-5.27-.39-37.42,0-39.33.17-.86,1.82-1.54.85-1.89.8-1.01.23-1.65-.85.07,0-.15-.33-.45,0-2.76,1.29-1.41,2.47-2.96,3.88-4.22l.12,2.04Z"/>
          <path class="cls-59" d="M20.13,87.38c-.24,0-.48,0-.73,0v-36.2l.12-2.98c.72-.33.62-1.13.61-1.96,1.08-1.73,1.65-1.09.85-.07.97.35-.67,1.03-.85,1.89-.39,1.91.3,34.06,0,39.33Z"/>
          <path class="cls-7" d="M19.4,87.38c-.2,0-.4,0-.61,0-.02-4.51.03-9.01,0-13.52v-15.05c1.05-.77.12-5.22.61-7.63v36.2Z"/>
          <path class="cls-76" d="M19.04,44.34c-.24.31-.47.45-.48.51l.36,2.47q-.18,13.16-.36,26.31c.14.23.24.2.24.22.03,4.51-.02,9.01,0,13.52-.16,0-.32,0-.48,0,.49-14.08-.29-28.24.12-42.31.01-.39.11-.5.12-.73h.48Z"/>
          <path class="cls-7" d="M20.13,43.47c-.33,2.32,0,2.61,0,2.76.02.83.11,1.63-.61,1.96l-.12,2.98c-.49,2.41.45,6.86-.61,7.63v15.05s-.1.01-.24-.22q.18-13.16.36-26.31l-.36-2.47c.01-.06.25-.2.48-.51.33-.43,1.04-.82,1.09-.87Z"/>
        </g>
        <path class="cls-7" d="M30.31,36.2c-.4-.34-.17-1.1-.24-1.24-.13-.26-1.32.39-1.27.94-.85-.1-1.28,1.16-2,1.6v-.87c1.22-1.03,2.31-2.28,3.51-3.34,0,.97,0,1.94,0,2.91Z"/>
        <path class="cls-59" d="M36.37,27.91c0,.15,0,.29,0,.44-.01.82.01,1.65,0,2.47-.52.1-2.59,2.09-2.67,2.4-.15,2.45.2,6.82,0,8.8-.14,1.37-.37.82-2.06,1.96.38,1.82-.1,4.16,0,7.27,0,.11.24.03.24.15.05,1.31.09,2.32-.24,3.27-.11-.03-.3.07-.36-.07v-11.63c.03-.1.53-.21.61-.44.13-.42.03-7.81,0-8.94.37.16.23-.65.24-1.74,1.67-.9,2.77-2.68,4.24-3.93Z"/>
        <path class="cls-54" d="M43.03,23.55v1.74c-.83.15-.98.69-1.03.73-.01,0-.16-.26-.3-.15l.06-.29c-1,.03-1.53,1.42-2.48,1.74-.04-.48-.06-.97-.12-1.45.41-.54.93-.82.97-.87.76.67,1.92-1.76,2.91-1.45Z"/>
        <g>
          <path class="cls-22" d="M14.55,87.08v.29c-1.01-.1-1.19.37-1.94-.87.48-9.12-.42-26,0-35.76,0-.1,0-.19,0-.29.19.03.84-.45.97-.58.3,12.23.07,24.47,0,36.71.25.78.3.76.97.51Z"/>
          <path class="cls-58" d="M16.86,41.14c.07,1.59.02,3.47,0,5.09,0,.6-.12,1.26-.12,1.89-.07-.02-.24-.41-.24-.44-.07-.33.16-.68-.18-.73-.3-.04-2.36,2.53-2.73,2.91-.13.13-.78.61-.97.58.05-1.03.2-2.8.36-3.78.09-.58.26-1.15.24-1.74l3.64-3.78Z"/>
          <path class="cls-59" d="M16.74,48.12c0,.97,0,1.94,0,2.91-.05,9.84,0,19.68,0,29.51,0,.99-.09,6.44,0,6.76.03.11.16.07.24.07-.8-.02-1.63.08-2.42,0v-.29c-.12-4.56-.13-9.11-.12-13.67,1.09-.23,1.43,1.45,2.06,1.38v-19.19c-.64-.21-1.34,3.4-1.58,4.36l-.36.07c.12-3.51.09-9.73,1.94-12.36,0,.03.17.42.24.44Z"/>
          <path class="cls-7" d="M16.49,47.69c-1.85,2.63-1.82,8.84-1.94,12.36-.15,4.43-.11,8.94-.12,13.38,0,4.56,0,9.11.12,13.67-.66.25-.72.27-.97-.51.07-12.24.3-24.48,0-36.71.37-.38,2.42-2.95,2.73-2.91.34.05.12.4.18.73Z"/>
          <path class="cls-59" d="M14.43,73.42c0-4.44-.03-8.94.12-13.38l.36-.07c.24-.96.93-4.58,1.58-4.36v19.19c-.63.07-.97-1.61-2.06-1.38Z"/>
        </g>
        <path class="cls-68" d="M16.74,80.54c0-9.84-.05-19.68,0-29.51.72-.14.49,1.05.61,1.53.03.14.34,0,.36.15.29,1.81-.22,26.56,0,31.69l-.12-.87h-.24c.11.74.18,4.86-.36,3.63-.16-.37.18-5.66,0-6.54-.02-.11-.16-.07-.24-.07Z"/>
        <g>
          <path class="cls-17" d="M25.83,32.13v5.23c-.19-.01-.09.23-.12.29,0,.01-.08-.08-.24.15-.08.11-1.04.94-1.33,1.16v-5.23c.52-.54,1.05-1.26,1.7-1.6Z"/>
          <path class="cls-75" d="M24.13,41.29l-.12-2.04.12-.29c.29-.22,1.26-1.05,1.33-1.16.17,1.5-.4,1.27-.48,1.53-.35,1-.18,1.88-.85,1.96Z"/>
          <g>
            <path class="cls-68" d="M25.7,37.65v49.58c-.54,0-1.13.15-1.7.15l.12-46.09c.67-.09.49-.96.85-1.96.09-.25.66-.03.48-1.53.16-.22.24-.13.24-.15Z"/>
            <path class="cls-31" d="M25.28,64.84l.18,22.32c-.44.23-.86,0-.97-.58-.2-1.09.18-14.28,0-17.45.18-.54.43-1.6.12-2.04.61-.21.33-1.51.67-2.25Z"/>
          </g>
        </g>
        <path class="cls-79" d="M43.03,25.3v16.72c-1.86-.29-2.73-1.05-3.76-1.02.04-4.2.3-8.45.12-12.65.68-.55,1.99-2.23,2.3-2.47.14-.11.29.16.3.15.05-.04.2-.58,1.03-.73Z"/>
        <path class="cls-59" d="M41.7,25.88c-.31.24-1.62,1.92-2.3,2.47,0-.05-.08-.52-.12-1.02.95-.33,1.48-1.72,2.48-1.74l-.06.29Z"/>
        <g>
          <path class="cls-68" d="M18.43,45.07c-.41,14.07.37,28.23-.12,42.31-.44,0-.89.01-1.33,0-.08,0-.21.04-.24-.07-.09-.32,0-5.77,0-6.76.08,0,.22-.04.24.07.18.88-.16,6.18,0,6.54.54,1.23.47-2.9.36-3.63h.24l.12.87c-.22-5.14.29-29.88,0-31.69-.02-.14-.33,0-.36-.15-.11-.48.12-1.67-.61-1.53,0-.97,0-1.94,0-2.91,0-.63.11-1.29.12-1.89.63-.48,1.21-1.48,1.58-1.16Z"/>
          <path class="cls-75" d="M17.4,46.67c.29-.05.54.02.79.22-.06.59.11,4.28-.06,4.43-.85.79-.17-3.83-.3-4-.2-.25-1.46-.48-.42-.65Z"/>
        </g>
        <path class="cls-79" d="M30.31,37.8c0,1.93.86,2.77-1.21,2.83.1,8.7-.03,17.4,0,26.1-1.74.11.48-3.74-1.94-3.78,0-.09-.12-.12-.12-.58-.05-6.96.2-13.98,0-20.94,0-.24,0-.49,0-.73,1.42-1.51,2.79-4.5,3.27-2.91Z"/>
        <path class="cls-59" d="M27.04,41.43c.2,6.95-.05,13.97,0,20.94h-.61c0-.92,0-1.84,0-2.76,0-4.56.24-14.15,0-17.74.24-.17-.07-.55.61-.44Z"/>
        <path class="cls-59" d="M30.31,36.2c0,.53,0,1.07,0,1.6-.48-1.59-1.86,1.4-3.27,2.91-.03-.83-.39-1.73-.24-3.2.72-.43,1.15-1.7,2-1.6-.04-.55,1.14-1.2,1.27-.94.07.14-.16.9.24,1.24Z"/>
        <path class="cls-7" d="M26.43,41.87c.24,3.59,0,13.17,0,17.74-.4-.7-.48-.47-.48-.51-.16-.87-.23-17.03,0-17.88.03-.1.23.03.3-.36.26.22.15.54.18,1.02Z"/>
        <path class="cls-54" d="M46.31,23.7c-.31,3.55-.16,13.98,0,18.03.02.48-.01.97,0,1.45-.74,0-1.55.3-2.3.15,0-.48-.35-1.01.12-1.31.24.01.49-.01.73,0,.04,0,.2.67.73.07.2-2.38-.26-17.05,0-17.88.01-.05.62-.44.73-.51Z"/>
        <g>
          <path class="cls-75" d="M69.58,45.21l-.12,41.43c-8.19.6-17.03-.31-25.15.15-.06,0-.31.43-.36.44-1.75.11-3.52-.08-5.27,0-.13-.28.04-1.16,0-1.31.15-.1.18-.13.36-.15,1.61-.16,4.24.34,4.85-.29.03.35.08.66.06,1.02.55-.14,1.08-.15,1.64-.15,7.88.05,15.76.03,23.63-.07-.08-1.17.1-2.67,0-3.78-.01-.14-.35,0-.36-.15-.06-.69.07-1.5,0-2.18,0-.07-.24-.23-.24-.29-.09-1.62.59-2.79,0-4.51.49-1.88,0-3.83,0-4.22-.05-4.89.18-9.81,0-14.68,0-.11-.24-.03-.24-.15.04-.12.25-.04.24-.15-.06-1.26.03-3.33-.48-4.14,0-1.93-.1-4.27,0-6.11.01-.22-.09-.71-.06-.73.12-.08,1.1.05,1.51,0Z"/>
          <path class="cls-74" d="M69.45,43.76l.24.29-.12,1.16c-.41.05-1.4-.08-1.51,0-.03.02.07.5.06.73-2.98.09-5.99-.12-8.97,0,4.55,0,2.65-1.46,3.03-2.11.09-.15.88-.06,1.09-.07,1.73-.14,3.73.07,5.51,0,.06,0,.37-.41.67,0Z"/>
          <path class="cls-32" d="M59.15,45.94c2.98-.12,5.98.09,8.97,0-.1,1.84,0,4.18,0,6.11,0,1.89,0,3.78,0,5.67h-11.27c0-.19,0-.39,0-.58,0-.78,0-1.55,0-2.33.02-2.88-.01-5.77,0-8.65.14-.38,1.62-.19,2.3-.22Z"/>
          <path class="cls-68" d="M45.58,86.36c.06-.41.24-.73.24-1.16l9.7-.07v-27.26c.73-.3.78.11,1.33-.73,0,.19,0,.39,0,.58-.03,9.13.13,18.27-.12,27.4l11.33.07c.13-9.16.04-18.32.06-27.48,0-1.89,0-3.78,0-5.67.52.81.42,2.88.48,4.14,0,.11-.2.03-.24.15,0,.11.24.03.24.15.18,4.87-.05,9.8,0,14.68,0,.39.49,2.34,0,4.22.59,1.71-.09,2.89,0,4.51,0,.06.24.23.24.29.07.68-.06,1.49,0,2.18.01.14.35,0,.36.15.1,1.11-.08,2.61,0,3.78-7.88.1-15.76.12-23.63.07Z"/>
          <path class="cls-68" d="M51.28,45.8c-1.86,0-3.72-.06-5.57.07-.14,3.94.14,7.91.12,11.85-.03,9.14.14,18.35,0,27.48,0,.43-.19.76-.24,1.16-.56,0-1.09,0-1.64.15.02-.36-.03-.67-.06-1.02-.12-1.44.01-4.64,0-6.54.58-.7.04-4.3.24-5.74,0-.06.11.32.24-1.02,0-.06.34-.12.36-.29.56-4.03-.51-19.37,0-24.42,0-.06.34-.12.36-.29.24-1.67-.05-1.68-1.21-1.38,0-.08.12-.12.12-.58.14,0,.24.28.3.29.56.12,6.48-.18,6.91,0,.09.04.06.19.06.29Z"/>
          <path class="cls-9" d="M58.18,43.62c1.69-.03,3.41-.1,5.09.15-.21.02-1-.08-1.09.07-.38.65,1.52,2.1-3.03,2.11-.68.03-2.16-.16-2.3.22-.01,2.88.02,5.77,0,8.65-1.49.89-.23-5.48-.61-8.8-.04-.13-.6-.19-.73-.22-.41-.07-.8.02-1.21,0-.98-2.96-.69-2.11,3.88-2.18Z"/>
          <path class="cls-20" d="M43.88,78.94c-.08-11.03-.11-22.11,0-33.15,1.16-.3,1.45-.29,1.21,1.38-.02.17-.36.23-.36.29-.51,5.06.56,20.39,0,24.42-.02.17-.36.23-.36.29-.13,1.34-.23.96-.24,1.02-.2,1.45.34,5.04-.24,5.74Z"/>
          <path class="cls-27" d="M55.4,43.47c1.24,0,2.94-.17,2.79.15-4.57.07-4.86-.78-3.88,2.18-1-.05-2.02,0-3.03,0,0-.1.03-.25-.06-.29-.43-.18-6.35.12-6.91,0-.06-.01-.16-.29-.3-.29.02-1.86-.24-1.44-.24-1.53,0-.06.25-.2.24-.36.76.15,1.57-.15,2.3-.15,3.02,0,6.05.3,9.09.29Z"/>
          <path class="cls-77" d="M68.12,57.72c-.02,9.16.07,18.32-.06,27.48l-11.33-.07c.25-9.13.09-18.27.12-27.4h11.27Z"/>
          <path class="cls-27" d="M56.85,54.81c0,.78,0,1.55,0,2.33-.56.84-.6.42-1.33.73v-12.07c.13.02.69.09.73.22.38,3.32-.89,9.69.61,8.8Z"/>
          <path class="cls-12" d="M55.52,57.86v27.26l-9.7.07c.14-9.12-.03-18.34,0-27.48l9.7-.15v.29Z"/>
          <path class="cls-32" d="M55.52,45.8v11.78l-9.7.15c.01-3.94-.26-7.91-.12-11.85,1.86-.14,3.72-.07,5.57-.07,1.01,0,2.03-.05,3.03,0,.41.02.8-.07,1.21,0Z"/>
        </g>
        <g>
          <path class="cls-66" d="M57.58,13.67c.07,1.73-.02,3.5,0,5.23,0,.1,0,.19,0,.29-.75.47-.97-1.1-1.7-1.02-.04-.45-.11-.51-.12-.73-.04-.81.45-1.98-.24-2.62,0-.58,0-1.16,0-1.74l2.06.58Z"/>
          <path class="cls-17" d="M57.58,11.78c.02.63-.02,1.26,0,1.89l-2.06-.58c0-.67-.12-3.59.18-3.63l1.88,2.33Z"/>
          <path class="cls-6" d="M55.76,17.45l-.24-.15c0-.1,0-.19,0-.29s0-.19,0-.29c0-.63,0-1.26,0-1.89.7.64.21,1.81.24,2.62Z"/>
          <path class="cls-73" d="M57.58,19.19c.07,7.61-.05,15.22,0,22.83-.28,0-.57,0-.85,0,.03-.18.24-.48.24-.51.32-2.15-.33-16.96.12-21.37-.43-.44-.55-1.61-1.21-1.53-.02-.14.01-.29,0-.44.72-.08.94,1.49,1.7,1.02Z"/>
          <path class="cls-75" d="M55.76,17.45c0,.22.09.27.12.73.01.14-.02.3,0,.44.1.85-.01,1.04,0,1.09.05.21.37-.23.48.15.31,1.04-.33,19.19.12,22.17h-.73s-.24.04-.24-.07c.12-7.38-.02-14.79,0-22.17,0-.73,0-1.45,0-2.18,0-.1,0-.19,0-.29l.24.15Z"/>
          <path class="cls-9" d="M56.73,42.02c-.08,0-.16,0-.24,0-.45-2.98.19-21.13-.12-22.17-.11-.37-.43.07-.48-.15-.01-.05.1-.24,0-1.09.67-.08.78,1.08,1.21,1.53-.45,4.41.2,19.22-.12,21.37,0,.03-.21.33-.24.51Z"/>
        </g>
        <g>
          <path class="cls-58" d="M52.12,4.51c-1.22-.76,3.05,4.66,3.33,4.65.03,0,.08-.43.55-.44,1.88,1.96,3.8,3.87,5.7,5.82-.24.05-.01.82-.3.87-.24.04-3.4-3.71-3.64-3.78-.03,0-.09.18-.18.15l-1.88-2.33c-.3.05-.17,2.96-.18,3.63,0,.58,0,1.16,0,1.74,0,.63,0,1.26,0,1.89-.38.18-.24-.98-.3-1.02-.58-.31-2.55,1.55-2.97,2.11-.43.58-.69,1.36-1.09,1.96,0-.78,0-1.55,0-2.33,0-.93.11-1.86.12-2.76.02-2.18-.03-4.36,0-6.54.02-1.38-.01-2.76,0-4.14.18-.37.71.38.85.51Z"/>
          <path class="cls-76" d="M55.52,16.72c0,.1,0,.19,0,.29-1.69.28-2.97,2.84-3.76,4.58v20.72c-.91-.07-.57-.29-.61-.29.04-7.41-.05-14.83,0-22.24.4-.6.66-1.38,1.09-1.96.42-.56,2.39-2.42,2.97-2.11.06.03-.08,1.2.3,1.02Z"/>
          <path class="cls-59" d="M55.52,19.77c-.02,7.38.12,14.79,0,22.17,0,.12.24.06.24.07,0,.08-.4.26-.36,1.45-3.04.01-6.07-.29-9.09-.29-.01-.48.02-.97,0-1.45l1.82.36c.65-7.47.77-9.46.73-.15l.24.07c.66.06,1.42-.09,2.06,0,.04,0-.31.22.61.29.16.01.32-.01.48,0,1.11.09,2.15.12,1.21-.22-.58-4.02-1.09-17.01,0-20.06.12-.33,1.58-2.91,2.06-2.25Z"/>
          <path class="cls-7" d="M55.52,17.01c0,.1,0,.19,0,.29s0,.19,0,.29c-1.46.09-2.01,2.11-2.91,3.27-.5,7.02-.06,14.29-.36,21.44-.16-.01-.32.01-.48,0v-20.72c.78-1.74,2.07-4.3,3.76-4.58Z"/>
          <path class="cls-54" d="M55.52,17.59c0,.73,0,1.45,0,2.18-.48-.66-1.94,1.92-2.06,2.25-1.09,3.05-.58,16.04,0,20.06.94.34-.1.31-1.21.22.31-7.15-.14-14.43.36-21.44.9-1.16,1.45-3.18,2.91-3.27Z"/>
        </g>
        <g>
          <path class="cls-68" d="M44.85,21.81c-.05,3.87.04,7.76,0,11.63v8.58c-.24-.01-.49.01-.73,0-.35-.02-.77.05-1.09,0v-19.77c.15.73.96.82,1.51,1.16l.06-1.67.24.07Z"/>
          <path class="cls-68" d="M43.22,24.72c.8.79.38,3.14.42,4.58,0,.04.24.69.24.73.02,1.31.04,10.08,0,10.61-.05.64-.4,1.6-.73,1.02-.39-.7.26-14.88.06-16.94Z"/>
        </g>
        <path class="cls-72" d="M36.25,74c-.01,3.93.01,7.85,0,11.78-1.11-.12-4.07.17-4.61,0l-.12-25.37,2.42-.22.12-5.31c-.21-.37-.72-.18-1.21-.22-.41-.03-.99.07-1.21,0,.33-.95.29-1.96.24-3.27,0-.11-.24-.03-.24-.15-.1-3.11.38-5.45,0-7.27,1.69-1.14,1.92-.59,2.06-1.96.81-.52,1.7-.12,2.55-1.02-.1,11,.04,22,0,33Z"/>
        <g>
          <path class="cls-17" d="M32.13,31.84c-.01,1.09.12,1.9-.24,1.74,0-.31.06-1.63-.06-1.74l-1.51,1.31c0-1.96,0-3.93,0-5.89.27-.29.5-.61.73-.94.06-.09.47-.57.61-.73.11-.12.38-.17.48-.29-.02,2.18.03,4.36,0,6.54Z"/>
          <path class="cls-43" d="M30.07,73.56c-.02,2.37-.06,10.5,0,11.92.02.51-.02,1.02,0,1.53.09.15.99.06,1.21.07.58.04,4.56.09,4.79,0,.07-.03.19-.59.24-.58.13.03-.06.48.24.44.06,0,.49-.5.42-1.16.63-.78.18-.17.48.29-.3.4-.44.99-1.03,1.31-2.4.02-4.81-.03-7.21,0-.01-5.82.02-11.63,0-17.45,0-.1,0-.19,0-.29,0-.48,0-.97,0-1.45,0-.51-.12-.29-.12-.44,1.1-1.55.47,4.93.61,5.74.02.12.28.06.36.07Z"/>
          <path class="cls-20" d="M31.88,33.58c.03,1.13.13,8.52,0,8.94-.07.23-.57.34-.61.44v11.63c.06.14.26.04.36.07.22.07.8-.03,1.21,0-.17,3.24.56,2.11.61,2.47-.54-.13-1.35.26-1.51.15-.14-.1.52-2.38-.61-1.89-.25.11.06.28.06.29-.25.88-.11,3.12-.12,4.22,0,.05,0,.1,0,.15-.1,8.5.08,17.01,0,25.51.16.28.28.19.36.22.53.17,3.49-.12,4.61,0l-4.97.15s-.23-.1-.24-.22c-.27-2.75.26-16.54,0-17.45-.03-.11-.16-.07-.24-.07,0-.96.15-6.07,0-6.32-.07-.13-.48-.11-.61,0,.1,3.9-.09,7.81-.12,11.7-.09-.01-.34.05-.36-.07-.14-.81.49-7.29-.61-5.74,0-.24,0-.48,0-.73,0-.09,0-.19,0-.29-.03-8.7.1-17.4,0-26.1,2.07-.06,1.21-.9,1.21-2.83,0-.53,0-1.07,0-1.6,0-.97,0-1.94,0-2.91,0-.05,0-.1,0-.15l1.51-1.31c.12.11.05,1.44.06,1.74Z"/>
          <g>
            <path class="cls-70" d="M38.31,25.3h-.12c-.57.47-.97,1.17-1.45,1.74,0,.01-.18.12-.24.15.05-2.08-.04-4.17,0-6.25l.06-.44c.6-.55,1.22-1.12,1.76-1.74.32,2.18.04,4.37,0,6.54Z"/>
            <path class="cls-9" d="M38.07,66.88c-.01,2.42-.03,4.86.24,7.27-.02,1.61.14,10.77-.12,11.34-.24.14-.55.35-.73.58-.31-.46.15-1.07-.48-.29,0-.02-.24-.29-.24-.36-.09-3.21.24-3.59.24-3.78,0-.03-.24-.41-.24-.44-.01-3.46.01-6.93,0-10.39.52-.15.35-1.57.36-2.18.56-.12.22-1.96.97-1.74Z"/>
            <path class="cls-43" d="M38.43,29.37c0,14.93.05,29.85-.12,44.78-.27-2.41-.25-4.84-.24-7.27,0-1.8.38-13.13.12-13.74-.04-.1-.89.19-1.09.07,0-2.86.12-20.8,0-21.88-.13-1.15-.67-.81-.73-2.98,0-.15,0-.29,0-.44,0-.22.11-.33.12-.73.06-.02.23-.13.24-.15.75.48,1.81-.6,1.45-1.74h.12c-.03,1.34-.07,2.74.12,4.07Z"/>
            <path class="cls-9" d="M36.73,27.04c.49-.57.88-1.28,1.45-1.74.35,1.14-.71,2.23-1.45,1.74Z"/>
            <path class="cls-68" d="M37.1,53.21c.01,5.13.09,10.29,0,15.41-.01.61.16,2.04-.36,2.18-.1-1.2.24-3.08-.24-3.56-.1,1.34.14,6.22,0,6.69-.03.11-.16.07-.24.07.04-11-.1-22,0-33,.03-3.39.07-6.79.12-10.18.01-.82-.01-1.65,0-2.47.06,2.17.6,1.83.73,2.98.12,1.08,0,19.02,0,21.88Z"/>
            <path class="cls-31" d="M38.07,66.88c-.75-.22-.41,1.62-.97,1.74.09-5.13.01-10.28,0-15.41.2.12,1.05-.17,1.09-.07.26.61-.11,11.94-.12,13.74Z"/>
            <path class="cls-30" d="M36.73,70.8c.01,3.46-.01,6.93,0,10.39,0,.03.24.41.24.44,0,.19-.34.57-.24,3.78,0,.08.24.34.24.36.06.67-.37,1.16-.42,1.16-.3.04-.11-.41-.24-.44-.05-.01-.17.55-.24.58-.23.09-4.2.04-4.79,0-.04-.36.05-.84,0-1.16l4.97-.15c.01-3.93-.01-7.85,0-11.78.08,0,.21.04.24-.07.14-.47-.1-5.35,0-6.69.49.48.14,2.36.24,3.56Z"/>
          </g>
          <path class="cls-68" d="M30.79,68.18c0,2.46.19,16.31-.12,17.08-.04.1-.46.26-.61.22-.06-1.42-.02-9.55,0-11.92.03-3.9.22-7.8.12-11.7.12-.11.53-.13.61,0,.15.26,0,5.36,0,6.32Z"/>
          <path class="cls-75" d="M31.28,85.92c.05.33-.04.8,0,1.16-.22-.02-1.12.08-1.21-.07-.02-.51.02-1.02,0-1.53.15.05.57-.12.61-.22.31-.77.12-14.62.12-17.08.08,0,.21-.04.24.07.26.91-.27,14.69,0,17.45.01.11.24.2.24.22Z"/>
          <path class="cls-7" d="M31.88,60.04c.7.11,1.35.22,2.06.15l-2.42.22.12,25.37c-.08-.03-.2.06-.36-.22.08-8.5-.1-17.01,0-25.51.2.02.41-.03.61,0Z"/>
        </g>
        <g>
          <path class="cls-68" d="M33.95,60.19c-.71.07-1.36-.03-2.06-.15-.26-3.49,1.75-1.67,1.58-2.91-.05-.36-.78.77-.61-2.47.5.04,1-.15,1.21.22l-.12,5.31Z"/>
          <path class="cls-33" d="M33.46,57.14c.17,1.24-1.83-.59-1.58,2.91-.19-.03-.41.02-.61,0,0-.05,0-.1,0-.15.43-.58.38-3.19.12-4.22,0-.01-.31-.18-.06-.29,1.12-.49.47,1.79.61,1.89.16.11.98-.28,1.51-.15Z"/>
          <path class="cls-67" d="M31.28,59.9c.01-1.1-.13-3.34.12-4.22.26,1.03.3,3.64-.12,4.22Z"/>
        </g>
        <path class="cls-79" d="M36.37,30.82c-.05,3.39-.09,6.79-.12,10.18-.84.9-1.74.5-2.55,1.02.2-1.97-.15-6.35,0-8.8.08-.31,2.14-2.29,2.67-2.4Z"/>
        <g>
          <path class="cls-20" d="M28.25,68.04c.27.04.55.23.97.15,0,.48,0,.97,0,1.45l-2.12-.15c-.12-.1-.05-1.58-.06-1.89.37.08.2,1.01,1.21.44Z"/>
          <path class="cls-63" d="M29.1,67.02c0,.24,0,.48,0,.73,0,.15.12-.07.12.44-.42.09-.7-.1-.97-.15-.33-.05-.23-.14-.24-.15l-.12-.87c.27-.08.85.06,1.21,0Z"/>
          <path class="cls-37" d="M29.1,66.73c0,.1,0,.2,0,.29-.36.06-.94-.08-1.21,0-.37.11-.58.45-.36.94.11.25.44-.09.48-.07.01,0-.09.09.24.15-1.01.58-.84-.36-1.21-.44-.05-1.56.13-3.12.12-4.65,2.42.04.2,3.89,1.94,3.78Z"/>
          <path class="cls-8" d="M27.89,67.02l.12.87s-.37.33-.48.07c-.22-.49,0-.83.36-.94Z"/>
        </g>
      </g>
      <g>
        <g>
          <g>
            <path class="cls-36" d="M22.86,65.21s0,.09,0,.12c0,0-.04-.05-.06.17-.04.64-.05,1.32-.06,1.96-1.64.18-3.29.42-4.93.58-.13-.11-.1-.25-.26-.35-.54-.33-1.18-.55-1.79-.75-.23-.08-.59-.29-.84-.29-.04,0-.02.12-.03.12-1-.2-1.99-.45-3-.58,0-.04.07-.11.09-.12.15-.03,2.48-.23,3.02-.29.42-.04.84-.08,1.27-.12,2.19-.2,4.38-.28,6.57-.46Z"/>
            <path class="cls-40" d="M11.91,66.18c1.01.12,2,.38,3,.58l.14.12c-.43-.06-.91.07-1.3.06-.13,0-.27.01-.4,0-.5-.04-1.8-.44-2.36-.63v-.23c.31.01.62.08.92.12Z"/>
          </g>
          <g>
            <path class="cls-13" d="M22.74,67.45c-.05,2.8-.03,5.61,0,8.41,0,.91,0,1.82,0,2.74.02.04.21.05.29.09-1.07.37-2.2.59-3.28.92-.2.06-.4.11-.6.17-.11.14,3.28.86,3.43,1.15l-.12.12-3.51-1.07c0,3.1,0,6.2,0,9.3,0,.96.05,1.93-.06,2.88-.49,0-.95.03-1.44-.06v-24.08c.17.04.11-.14.12-.35.16.1.13.23.26.35,1.64-.16,3.28-.39,4.93-.58Z"/>
            <path class="cls-36" d="M17.44,68.03v24.08c-.99-.18-2.88-1.9-4-2.13.04-.1-.15-.25-.2-.29.05,0,.13-.01.17,0,.13.04.66.52.75.37,0-2.2,0-4.4,0-6.6.01-5.43,0-10.87,0-16.3.93.39,2.28.66,3.28.86Z"/>
            <path class="cls-40" d="M15.77,66.93c.6.2,1.24.42,1.79.75,0,.21.06.38-.12.35-1.01-.21-2.36-.47-3.28-.86l1.61-.23Z"/>
          </g>
          <g>
            <path class="cls-36" d="M13.35,66.93c-.01,4.59-.01,9.18,0,13.77,0,2.96.02,5.91.06,8.87l-2.36-1.33v-.06q-.03-10.95-.06-21.89c.57.19,1.86.59,2.36.63Z"/>
            <path class="cls-40" d="M13.41,89.58v.12s-.12,0-.17,0c-.35-.22-2.12-1.11-2.19-1.44l2.36,1.33Z"/>
            <path class="cls-78" d="M15.77,66.93l-1.61.23c-.12-.05-.31-.13-.4-.23.39,0,.87-.11,1.3-.06l-.14-.12s-.02-.12.03-.12c.25,0,.6.21.84.29Z"/>
            <path class="cls-4" d="M13.75,66.93c.09.1.28.18.4.23,0,5.43.01,10.87,0,16.3-.04,0-.1.02-.12-.03-.11-.33.19-2.19-.14-2.91-.09-.05-.02.41-.55.17-.01-4.59-.01-9.18,0-13.77.13.01.27,0,.4,0Z"/>
            <path class="cls-4" d="M14.16,83.47c0,2.2,0,4.4,0,6.6-.09.15-.62-.34-.75-.37v-.12c-.04-2.96-.05-5.91-.06-8.87.53.24.46-.23.55-.17.33.72.03,2.58.14,2.91.02.04.08.03.12.03Z"/>
          </g>
        </g>
        <g>
          <path class="cls-42" d="M38.93,78.97l.2.46c.37-.09.65.24.81.29.74.22.46.01.6-.4.84.23.62.47.63.58.2,2.32-.15,9.05,0,12.21,0,.1,0,.14.06.23-1.24,0-4.1.61-4.81.63-.1,0-.2-.03-.26-.12.31-.16.57-.4.86-.58.34-.2.71-.36,1.04-.58.1-.07.43-.18.46-.26l.06-11.67-.03-.12c-.23-.03-.19.06-.2.06-.12.02-.23.08-.35.12.22-.34-.44-.3-.98-.17,0,0-.02-.09.03-.12.59-.16,1.32-.35,1.87-.58Z"/>
          <path class="cls-29" d="M49.59,88.14c.02.65-.04,1.31.03,1.96.11.09,2.44-.69,2.79-.58-.02.08.03.15-.09.23l-11.09,2.59c-.06-.09-.05-.13-.06-.23l5.21-1.21.14-.14c-.1-.27-.06-.7-.06-1.01l.92-.12c-.81.2-.96.16-.72,1.21l2.82-.69-.03-.84c-.05-.1-.15-.04-.35-.03v-.06c.16-.03.17-.14.35-.09.03-.53-.09-1.06.12-1.01Z"/>
          <path class="cls-78" d="M47.46,78.57l.06.06v3.2l-.09.14c-.23-.04-1.15.41-1.24.2v-3.43c.23,0,.27-.06.29-.06.34-.02.88-.16.98-.12Z"/>
          <g>
            <path class="cls-36" d="M52.41,89.52c-.35-.11-2.68.67-2.79.58-.07-.65,0-1.31-.03-1.96,0-.24.03-.59,0-.75-.16-.46,2.03-.51,2.22-.63.14-.1.11-.42,0-.46-.11-.04-2.01.55-2.19.69-.71-.18-2.03.39-2.94.46l-.2.09c-.03.12.06.16.06.2-.12.67-.04,1.35-.06,2.02,0,.3-.04.74.06,1.01l-.14.14-5.21,1.21c-.15-3.16.2-9.9,0-12.21l5.01-1.09v3.37c.09.21,1-.25,1.24-.2l.09-.14v-3.2c1.61-.26,3.23-.57,4.78-1.09l.12.03c-.1,1.96.13,11.27,0,11.95Z"/>
            <path class="cls-35" d="M41.87,89c.92-.1,1.8-.33,2.68-.63.63-.21.87-.44.92-.46.04-.02.71.1.55-.35.08,0,.31-.02.35.03l-.14,1.12c-.52.04-4.22,1.25-4.35,1.07.02-.26-.02-.52,0-.78Z"/>
            <path class="cls-26" d="M41.87,89c.02-.18-.06-.36.09-.46.85-.15,3.63-.97,4.06-.98.16.44-.51.33-.55.35-.05.02-.29.25-.92.46-.88.3-1.76.53-2.68.63Z"/>
            <path class="cls-65" d="M51.29,87.21c.53-.05.58.66.23.75-.69.18-.82-.69-.23-.75Z"/>
            <path class="cls-29" d="M50.42,87.39s.12-.01.14.03c-.92,1.39-.3.01-.14-.03Z"/>
          </g>
          <path class="cls-56" d="M39.62,78.92c0,.11.71.33.86.35,0,.06.03.05.06.06-.14.42.14.62-.6.4-.15-.04-.44-.38-.81-.29l-.2-.46s.04-.04.23-.12c.09.3.39.07.46.06Z"/>
          <g>
            <path class="cls-60" d="M50.22,77.02c.49.05,1.25.29,1.73.46-.19.18-.53.17-.81.23.01-.21-.06-.02-.2-.06-.48-.12-.22-.56-1.76-.06.47-.26.83-.12.4-.46.1-.04.22-.11.32-.17.23-.03.28.05.32.06Z"/>
            <path class="cls-26" d="M52.3,77.53c-1.55.52-3.17.84-4.78,1.09l-.06-.06.06-.12c.14.17.56,0,.81-.06.94-.19,1.88-.49,2.82-.69.27-.06.62-.05.81-.23.07.02.26,0,.35.06Z"/>
            <path class="cls-60" d="M49.59,77.13c.42.35.07.2-.4.46-.45.25-.58.31-.86.81-.24.05-.66.23-.81.06-.01-.02-.05-.09-.06-.12.02,0,.04,0,.06,0,.19-.04,1.59-1.02,2.07-1.21Z"/>
            <path class="cls-16" d="M51.14,77.71c-.94.2-1.88.5-2.82.69.28-.5.41-.55.86-.81,1.54-.5,1.28-.06,1.76.06.14.03.21-.15.2.06Z"/>
          </g>
          <g>
            <path class="cls-60" d="M47.4,89.63c.19-.05,1.64-.34,1.73-.35.2-.01.29-.07.35.03l.03.84-2.82.69c-.24-1.05-.09-1.01.72-1.21Z"/>
            <g>
              <path class="cls-46" d="M49.59,87.39c.03.16,0,.51,0,.75-.21-.06-.08.48-.12,1.01-.18-.06-.18.05-.35.09,0,0,0-.12-.17-.03l.17.03v.06c-.09,0-1.54.3-1.73.35l-.92.12c.02-.67-.06-1.35.06-2.02l2.79-.63.2.03c-.03.29.06.25.06.26Z"/>
              <path class="cls-1" d="M49.59,87.39s-.09.03-.06-.26l-.2-.03-2.79.63s-.09-.08-.06-.2l.2-.09c.9-.07,2.23-.64,2.94-.46.18-.14,2.08-.73,2.19-.69.11.04.14.37,0,.46-.19.13-2.38.18-2.22.63Z"/>
              <path class="cls-29" d="M49.13,89.23l-.17-.03c.17-.09.16.03.17.03Z"/>
            </g>
          </g>
          <g>
            <path class="cls-82" d="M46.19,78.74v.06l-5.01,1.09c0-.11.2-.35-.63-.58-.03,0-.06,0-.06-.06.17.01,3.21-.29,3.37-.35.05-.02.1-.16.2-.23.71,0,1.42.08,2.13.06Z"/>
            <path class="cls-55" d="M42.85,78.63c.41,0,.8.05,1.21.06-.1.07-.15.21-.2.23-.16.06-3.2.36-3.37.35-.15-.01-.87-.24-.86-.35.49-.09.99-.31,1.47-.35.45-.04,1.17.05,1.76.06Z"/>
          </g>
        </g>
        <g>
          <path class="cls-78" d="M44.98,62.32c.15.01.34,0,.46.12-.43.03-.87-.09-.92.12-2.02-.03-4.03-.07-6.05-.12,0-.04-.02-.09.03-.12.14-.07,2.87-.62,3.02-.63.13-.01.28-.06.4.03-.75.86,1.36.47,3.05.6Z"/>
          <g>
            <path class="cls-36" d="M51.49,68.49c0,2.56,0,5.13,0,7.69-.1.12-.38.2-.46.26-.4-.24-.06-.56-.17-.69,0,0,.01-.08-.09-.06l-3.26,2.02-.06-15.12c-.98.06-1.96-.01-2.94-.03.05-.21.49-.08.92-.12,1.99-.16,3.98-.36,5.96-.52l.14.09c-.06,2.16-.06,4.32-.06,6.48Z"/>
            <path class="cls-16" d="M51.03,76.44c-.38.26-.77.41-.81.58-.03,0-.09-.08-.32-.06-.09.06-.21.13-.32.17-.48.19-1.89,1.17-2.07,1.21v-.35s.07.06.09.06c.22-.05,2.78-1.95,3.26-2.3.12.13-.23.45.17.69Z"/>
            <path class="cls-60" d="M50.86,75.75c-.47.36-3.04,2.25-3.26,2.3-.01,0-.04-.07-.09-.06v-.29l3.26-2.02c.1-.02.08.05.09.06Z"/>
          </g>
          <g>
            <path class="cls-29" d="M38.47,62.44c2.02.04,4.03.09,6.05.12.98.01,1.96.09,2.94.03l.06,15.12v.63s-.04,0-.06,0l-1.47-.17c-.36-.47-.86-.47-1.3-.95-1.26-1.4-1.22-6.56-1.38-8.53-.43-1.19.03-2.52-.86-3.51-.95-1.04-1.83-.76-2.33-.84-1.96-.29-3.93-.56-5.91-.69,0-.16-.02-1.23.03-1.27,1.41-.04,2.82.03,4.23.06Z"/>
            <path class="cls-56" d="M47.46,78.34s.04.1.06.12l-.06.12c-.1-.04-.64.09-.98.12-.32-.08-.28-.28-.32-.29-.15-.04-1.73.24-3-.46-1.02-.56-1.46-1.79-2.1-2.71,0-1.4-.04-2.8-.06-4.21-.02-2.06.01-4.13,0-6.19-2.23-.33-4.55-.29-6.8-.58,0-.12.01-.25,0-.37,0-.08,0-.15,0-.23,1.98.13,3.94.41,5.91.69.5.07,1.57-.35,2.33.84.64.99.17,1.93.17,3.8,0,1.97,1.41,6.56,2.07,8.24.24.6.94.48,1.3.95l1.47.17Z"/>
            <path class="cls-15" d="M46.48,78.69s-.05.05-.29.06c-.72.03-1.42-.05-2.13-.06-.41,0-.8-.05-1.21-.06,1.22-.18-.19-.37-.49-.52-.46-.23-.78-.66-1.3-.81,0-.13,0-.27,0-.4.02-.52,0-1.04,0-1.56,0-.04,0-.08,0-.12.64.92,1.08,2.14,2.1,2.71,1.27.7,2.85.42,3,.46.04.01,0,.21.32.29Z"/>
          </g>
          <path class="cls-40" d="M42.85,78.63c-.58,0-1.31-.1-1.76-.06-.48.04-.98.26-1.47.35-.07.01-.38.25-.46-.06.04-.01.1-.03.17-.06.18.13,1.63-.29,1.67-.37.01-.12-.02-.27,0-.37.05-.28.04-.47.06-.75.51.14.84.57,1.3.81.3.15,1.71.34.49.52Z"/>
        </g>
        <g>
          <g>
            <path class="cls-36" d="M41,71.02l-.14-.58c-.28.84-.62,2.25-.72,3.14-.03.28-.16,1.51.03,1.58.31-.14.3,0,.32,0-.73.24-1.84.3-1.67.75h-.06s-.08.03-.06-.17c-.16-.17-1.7.41-2.02.46l-.12.09c0,.39.01.79,0,1.18-.04,0-.08,0-.12,0l.06-1.12c-.03-.05-.12-.02-.17-.03-.38-.06-2.48.76-3.08.86-.22.1-.12.2-.14.4-.03.26.02.54,0,.81-.15-.26-.01-.45-.63-.23-.05-3.96.01-7.91.06-11.87l3.63-.81v2.68l.95.03.09-2.88,3.14-.46c-.62-.08-2,.09-2.62.23-.25-.23-.35-.15-.58-.17-.99-.1-1.99-.08-2.97-.29-1.19-.14-6.76.6-7.43.81-.07.02-.23.12-.2.23-1.23-.12-2.45-.38-3.69-.35,0-.03,0-.08,0-.12.71-.06,1.45-.02,2.16-.12l9.19-1.21c.01.12,0,.25,0,.37,2.25.28,4.56.25,6.8.58.01,2.06-.02,4.13,0,6.19Z"/>
            <path class="cls-29" d="M26.54,65.67s.08,0,.12,0v.4l-3.86-.58c.01-.23.05-.16.06-.17,1.24-.04,2.46.23,3.69.35Z"/>
            <path class="cls-82" d="M36.45,77.48s.08,0,.12,0c-.01.4,0,.81,0,1.21v.75c-.5.18-3.86,1.48-4.03,1.61.02-.96-.05-1.92-.06-2.88.62-.22.49-.03.63.23.02.03-.03.15.03.17.2.07,2.74-.98,3.31-1.09Z"/>
            <path class="cls-16" d="M35.99,65.44c-1.17.25-2.38.35-3.51.75h-.06l-4.32-.4s-.02-.11.03-.12c2.12-.24,4.26-.56,6.39-.46.39.02,1.5.13,1.47.23Z"/>
            <g>
              <path class="cls-56" d="M23.14,75.86c1.04.23,2.08.48,3.11.75,0,.98,0,1.96,0,2.94-.83-.2-1.65-.46-2.48-.69-.11-.03-.35-.1-.43,0-.26-.38-.3-.16-.32-.17-.08-.04-.27-.05-.29-.09,0-.91,0-1.82,0-2.74.34-.29.21-.04.4,0Z"/>
              <path class="cls-40" d="M29.65,77.07s0,.04,0,.06c.05.66,0,1.35.06,2.02.03.14-.06.13-.2.12-.52-.05-1.61-.4-2.22-.52,0-.71-.11-1.42-.06-2.13.78.2,1.62.34,2.42.46Z"/>
              <path class="cls-56" d="M29.71,79.15c.04.4.23.82.12,1.21-.82-.22-1.67-.37-2.48-.63,0-.05-.06-.72-.06-.98.6.12,1.7.47,2.22.52.14.01.23.02.2-.12Z"/>
              <path class="cls-56" d="M26.26,76.09c-.03.14.06.19.06.23,0,.01-.05-.07-.06.29-1.03-.27-2.07-.52-3.11-.75.02-.11-.04-.53.03-.58.13-.09,2.67.71,3.08.81Z"/>
            </g>
            <path class="cls-56" d="M28.1,65.78l4.32.4c-.06.21-.02.33-.26.29l-4.18-.52c0-.06-.06-.06-.06-.12.07-.05.1-.05.17-.06Z"/>
            <path class="cls-35" d="M36.16,65.44v.06l-3.63.81s-.08.02-.06-.12c1.14-.4,2.34-.5,3.51-.75.23-.05.16,0,.17,0Z"/>
            <g>
              <path class="cls-21" d="M26.66,66.07v3.14l1.3.03c-.01-.92.11-2.48.03-3.28l4.18.52c.24.04.2-.08.26-.29h.06c-.02.14.06.11.06.12-.04,3.96-.1,7.91-.06,11.87.01.96.08,1.92.06,2.88-.01,0-.04-.02-.06.06-.88-.26-1.76-.52-2.65-.75.11-.39-.08-.81-.12-1.21-.06-.67,0-1.35-.06-2.02h.06c.24.07,1.84.61,1.93.58.13-.05.13-.36,0-.46-.18-.14-1.61-.27-1.93-.35,0,0,.05-.02-.12-.06-1.11-.26-2.23-.5-3.34-.75-.41-.09-2.95-.9-3.08-.81-.07.05,0,.46-.03.58-.19-.04-.06-.29-.4,0-.03-2.8-.05-5.62,0-8.41.01-.64.02-1.32.06-1.96l3.86.58Z"/>
              <path class="cls-40" d="M29.6,76.84c-.03.14.05.18.06.23-.8-.13-1.64-.26-2.42-.46-.01,0-.02-.08-.17-.12-.25-.06-.5-.1-.75-.17,0-.04-.09-.09-.06-.23,1.11.25,2.23.49,3.34.75Z"/>
              <path class="cls-40" d="M29.71,77.13v-.23c.32.07,1.75.21,1.93.35.13.1.13.41,0,.46-.09.04-1.69-.5-1.93-.58Z"/>
              <path class="cls-40" d="M30.72,78.05s1.01-.08.78.49c-.08.19-1.14-.24-.78-.49Z"/>
              <path class="cls-47" d="M29.71,76.9v.23h-.06s0-.04,0-.06c0-.05-.09-.09-.06-.23.16.04.11.06.12.06Z"/>
            </g>
            <path class="cls-82" d="M41,71.02c.01,1.4.06,2.8.06,4.21,0,.04,0,.08,0,.12-.16-.11-.23-.09-.29-.12-.17-.06-.25-.05-.29-.06-.02,0,0-.14-.32,0-.19-.08-.06-1.31-.03-1.58.1-.89.44-2.3.72-3.14l.14.58Z"/>
            <g>
              <path class="cls-4" d="M27.93,65.84c0,.05.05.06.06.12.08.8-.04,2.37-.03,3.28l-1.3-.03v-3.54c.43.04.84.14,1.27.17Z"/>
              <path class="cls-78" d="M37.14,64.92c.16.32-.63.44-.98.52,0,0,.06-.05-.17,0,.03-.1-1.08-.21-1.47-.23-2.14-.1-4.28.22-6.39.46-.05,0-.02.11-.03.12-.08.01-.1.01-.17.06-.43-.04-.84-.13-1.27-.17-.04,0-.08,0-.12,0-.03-.11.13-.21.2-.23.67-.21,6.24-.95,7.43-.81.98.21,1.98.19,2.97.29Z"/>
              <path class="cls-78" d="M37.72,65.09c-.13.03-.39.18-.49.06l-.03.17-.09,2.88-.95-.03v-2.74c.35-.08,1.14-.2.98-.52.23.02.32-.06.58.17Z"/>
            </g>
            <g>
              <path class="cls-35" d="M36.45,77.48c-.57.11-3.12,1.17-3.31,1.09-.06-.02-.01-.14-.03-.17.02-.26-.03-.55,0-.81.73-.13,1.51-.27,2.1-.75.66.17.28-.19.4-.29.04-.03.79.25.72-.23.05,0,.15-.03.17.03l-.06,1.12Z"/>
              <path class="cls-26" d="M36.34,76.32c.07.48-.68.2-.72.23-.13.1.26.46-.4.29-.6.48-1.37.62-2.1.75.02-.2-.08-.31.14-.4.6-.1,2.7-.93,3.08-.86Z"/>
            </g>
            <path class="cls-35" d="M37.2,65.32l.03-.17c.1.13.35-.03.49-.06.62-.14,2-.31,2.62-.23l-3.14.46Z"/>
            <path class="cls-15" d="M39.33,78.8c.23-.09.55-.29.81-.4.28-.12.6-.17.86-.35-.02.11.01.26,0,.37-.04.08-1.49.5-1.67.37Z"/>
            <g>
              <path class="cls-29" d="M40.95,76.9c.23.7-.47.67-.81,1.5-.26.11-.57.31-.81.4-.07.03-.13.04-.17.06-.19.07-.22.11-.23.12-.55.22-1.29.42-1.87.58-.05.02-.02.11-.03.12-.01,0,.05.09-.14.17-.8.33-1.64.61-2.45.92-.44.17-.88.35-1.33.52-.2.07-.43.12-.58.17.04-.17-.08-.27-.06-.35.02-.08.05-.05.06-.06.17-.13,3.54-1.43,4.03-1.61.19-.07,1.41-.33,2.1-.63.15-.11.02-.67.03-.81,0-.04.05-.05.06-.17.18.28,1.6-.8,2.19-.92Z"/>
              <path class="cls-1" d="M40.49,75.17s.11,0,.29.06c-.07.3-1.35.5-1.96.69-.17-.45.94-.51,1.67-.75Z"/>
              <g>
                <path class="cls-51" d="M38.7,75.75c-.03.2.06.16.06.17.03.13.01,1.55,0,1.9,0,.12-.06.13-.06.17l-2.13.69c0-.4-.01-.81,0-1.21.01-.39,0-.79,0-1.18l.12-.09c.66.12,1.4-.25,2.02-.46Z"/>
                <path class="cls-1" d="M38.7,75.75c-.62.21-1.35.59-2.02.46.32-.05,1.85-.63,2.02-.46Z"/>
              </g>
              <path class="cls-60" d="M38.7,78c0,.14.12.7-.03.81-.69.3-1.91.56-2.1.63v-.75l2.13-.69Z"/>
              <path class="cls-56" d="M41.06,76.9c0,.13,0,.27,0,.4-.01.28,0,.47-.06.75-.26.17-.59.23-.86.35.34-.83,1.03-.8.81-1.5.04,0,.08,0,.12,0Z"/>
              <g>
                <path class="cls-3" d="M41.06,75.35c0,.52.02,1.04,0,1.56-.04,0-.08,0-.12,0-.59.12-2.01,1.2-2.19.92.01-.35.03-1.77,0-1.9h.06c.61-.2,1.89-.39,1.96-.69.06.02.12,0,.29.12Z"/>
                <path class="cls-56" d="M40.05,75.92c.76-.15.71.67.4.75-.59.15.13-.37-.17-.52-.3-.15-.81.38-.89.2.2-.05.54-.41.66-.43Z"/>
              </g>
            </g>
          </g>
          <g>
            <path class="cls-65" d="M28.62,95.91v.17l-.35.06c-.14-.08-.34-.06-.58-.12-.86-.2-.68-.33-.72-.35-.15-.06-.57-.12-.69-.17-.88-.37-1.73-.91-2.62-1.27.04-.07.05-.09.06-.17,1.61.67,3.22,1.34,4.9,1.84Z"/>
            <path class="cls-29" d="M37.03,92.28c-.3.17-.56.42-.86.58-.29.15-5.52,2.48-5.96,2.65-.52.21-1.05.42-1.58.58v-.29c1.63-.51,3.15-1.41,4.75-2.02.22-.23.03-1.09.03-1.38.2-.03.16.06.17.06l-.03,1.21c.38-.15.75-.35,1.12-.52.24-.11,1.42-.68,1.5-.75-.06.38.33-.07.86-.12Z"/>
            <path class="cls-62" d="M23.66,90.84c-.05.71.04,1.42.06,2.13,0,.34.02.76,0,1.09,0,.09-.02.1-.06.17-.29-.12-.58-.23-.86-.35-.08-.03-.15-.08-.23-.12v-.23c0-.98,0-1.96,0-2.94,0-.23.06-.16.06-.17.33.1.69.17,1.01.29.05.02.02.11.03.12Z"/>
            <path class="cls-40" d="M22.57,93.55v.23s.15.2-.43,0c-.92-.54-2.28-.75-3.08-1.38l3.51,1.15Z"/>
            <path class="cls-55" d="M38.35,79.72c.13.03-.06.06-.12.29-.3-.19-.21.25-.23.75-.22.15-.25.73-.23,1.01-.38.79-.64,2.95-.69,3.92-.04.77-.08,2.84.29,2.85-.26.1-.73.29-.98.4-.95-.92-.05-5.16.29-6.48.2-.8.61-1.64.75-2.39.19-.06.37-.17.58-.23.12-.04.22-.1.35-.12Z"/>
            <path class="cls-29" d="M38.58,79.78l-.06,11.67c-.03.08-.36.19-.46.26-.36-.35-.09-2.02-.17-2.94.03-.38-.06-.33-.06-.35-.02-2.55.08-5.12.17-7.66.02-.5-.07-.94.23-.75-.03.13-.1,1.46.2,1.21.14-.11-.13-1.39.14-1.44Z"/>
            <path class="cls-60" d="M38.01,79.84c-.2.06-.38.17-.58.23-.98.32-1.96.63-2.94.92,0-.11-.07-.13-.06-.23.81-.31,1.65-.6,2.45-.92.2-.08.13-.17.14-.17.54-.12,1.2-.17.98.17Z"/>
            <path class="cls-10" d="M38.58,79.78c-.27.05,0,1.33-.14,1.44-.3.25-.23-1.08-.2-1.21.05-.22.25-.26.12-.29.01,0-.03-.09.2-.06l.03.12Z"/>
            <g>
              <path class="cls-56" d="M19.23,89.46c.55.31,2.58.95,3.34,1.15,0,.98,0,1.96,0,2.94l-3.51-1.15c-.08-.07,0-.26-.17-.23.11-.95.06-1.92.06-2.88.24-.11.1.07.29.17Z"/>
              <path class="cls-24" d="M22.57,90.15c-.03.19.06.25.06.29,0,0-.06-.05-.06.17-.76-.21-2.79-.84-3.34-1.15l.09-.4c1.07.42,2.17.74,3.26,1.09Z"/>
            </g>
            <path class="cls-40" d="M25.68,91.53l.09,2.19-2.05-.75c-.02-.71-.1-1.42-.06-2.13.66.24,1.35.44,2.02.69Z"/>
            <path class="cls-40" d="M29.83,80.36c.89.23,1.77.49,2.65.75-.02.07.1.18.06.35-.01,0,.01.03-.23.12-.11-.14-.38-.02-.52,0,.05-.22-.33-.07-.66-.12-.9-.13-2.98-.83-3.83-1.33-.04-.27.06-.38.06-.4.81.26,1.65.42,2.48.63Z"/>
            <path class="cls-36" d="M37.43,80.07c-.13.75-.55,1.59-.75,2.39-.34,1.32-1.23,5.57-.29,6.48-.23.11-.28.23-.43.4-.41-.31-2.49.56-2.56.92-.03.16,0,.68,0,.98-.05,0-.11,0-.12,0-.07-.64.26-1.15-.37-1.09-.34.03-3.52,1.52-3.72,1.56-.19.03-.45,0-.58-.17v-8.64c1.22-.46,2.46-.88,3.69-1.33.24-.09.22-.11.23-.12.14-.05.38-.1.58-.17l.09,3.28,1.24-.55c-.02-1.01,0-2.01.06-3.02.98-.29,1.96-.61,2.94-.92Z"/>
            <g>
              <path class="cls-14" d="M22.45,81.05v3.2l1.24.49.03-.12v-3.2l.12-.09c.01.17.85.43,1.3.58,1.02.33,2.06.57,3.05.98h.43v13.02c-1.67-.5-3.29-1.18-4.9-1.84.02-.33,0-.76,0-1.09l2.05.75-.09-2.19c1.15.43,2.34,1.11,1.99.35-1.7-.57-3.39-1.17-5.1-1.73-1.09-.35-2.19-.67-3.26-1.09l-.09.4c-.18-.1-.05-.28-.29-.17,0-3.1,0-6.2,0-9.3l3.51,1.07Z"/>
              <path class="cls-40" d="M25.68,91.53c-.67-.25-1.35-.45-2.02-.69,0,0,.02-.1-.03-.12-.32-.12-.68-.19-1.01-.29,0-.03-.09-.1-.06-.29,1.71.55,3.4,1.16,5.1,1.73.35.77-.83.08-1.99-.35Z"/>
              <path class="cls-40" d="M26.63,92.57c1.42.13,1.11,1.22.4.63-.19-.15-.3-.42-.4-.63Z"/>
            </g>
            <path class="cls-3" d="M38.01,80.76c-.09,2.55-.19,5.12-.17,7.66-.19.07-.42.1-.46.12-.37,0-.33-2.08-.29-2.85.05-.97.32-3.13.69-3.92-.02-.28,0-.86.23-1.01Z"/>
            <g>
              <path class="cls-3" d="M37.89,88.77c.08.92-.19,2.58.17,2.94-.33.21-.7.38-1.04.58-.54.04-.93.5-.86.12.08-.07.14-.07.12-.14-.02-.05-.17-.13-.17-.14l-.23-2.65c.68-.21,1.33-.52,2.02-.69Z"/>
              <path class="cls-40" d="M37.75,89.4c.13.05.11.48.06.52-.05.04-.62-.13-1.18.03.16-.05,1.06-.57,1.12-.55Z"/>
            </g>
            <path class="cls-78" d="M34.49,80.99c-.05,1.01-.08,2.01-.06,3.02l-1.24.55-.09-3.28c.44-.17.88-.35,1.33-.52-.02.1.06.12.06.23Z"/>
            <g>
              <path class="cls-55" d="M33.4,91.25c0,.38,0,.77,0,1.15,0,.3.19,1.15-.03,1.38-1.61.61-3.13,1.51-4.75,2.02v-4.26c.13.16.38.2.58.17l.09,1.27c1.05-.48,3.13-1.13,4-1.73.01,0,.07,0,.12,0Z"/>
              <path class="cls-26" d="M33.28,91.25c-.87.6-2.95,1.25-4,1.73l-.09-1.27c.2-.03,3.38-1.53,3.72-1.56.64-.05.3.46.37,1.09Z"/>
            </g>
            <g>
              <g>
                <path class="cls-60" d="M36.11,92.11s.15.09.17.14c.02.07-.04.07-.12.14-.07.07-1.26.64-1.5.75l-.17-.98c.14-.05.31-.18.46-.23.06-.02.12-.04.17-.06.22-.07.44-.17.46-.17.11-.02.2-.08.32-.06.02.18.13.31.2.46Z"/>
                <path class="cls-60" d="M34.49,92.17l.17.98c-.37.17-.74.37-1.12.52l.03-1.21c.06,0,.77-.24.92-.29Z"/>
              </g>
              <g>
                <path class="cls-29" d="M35.01,89.63c0,.19,0,.38,0,.58l-.06,1.04v.69c-.15.05-.32.18-.46.23-.15.05-.86.29-.92.29,0,0,.03-.09-.17-.06,0-.38,0-.77,0-1.15,0-.3-.03-.82,0-.98.54-.24,1.02-.45,1.61-.63Z"/>
                <path class="cls-24" d="M37.84,88.42s.09-.04.06.35c-.69.17-1.34.49-2.02.69-.26.08-.59.09-.86.17-.59.19-1.08.39-1.61.63.07-.36,2.15-1.24,2.56-.92.16-.18.2-.3.43-.4.25-.12.72-.3.98-.4.05-.02.27-.04.46-.12Z"/>
                <path class="cls-29" d="M35.88,89.46l.23,2.65c-.07-.15-.18-.28-.2-.46-.12-.02-.21.03-.32.06-.16-.7-.54-.62-.58-1.5,0-.19,0-.38,0-.58.27-.09.6-.09.86-.17Z"/>
                <path class="cls-1" d="M35.59,91.71s-.25.1-.46.17c-.15-.29.06-.67-.17-.63l.06-1.04c.03.87.42.8.58,1.5Z"/>
                <path class="cls-40" d="M35.13,91.88c-.06.02-.12.04-.17.06v-.69c.24-.04.02.34.17.63Z"/>
              </g>
            </g>
            <g>
              <path class="cls-56" d="M23.78,78.86c.28.34,2.25,1.24,2.48.92-.03.09.07.13-.14.23-.07.03-1.23.34-1.47.4-.46.13-.92.2-1.38.35.01-.11-.57-.35-.72-.4-.91-.32-1.88-.46-2.79-.75,1.08-.33,2.21-.55,3.28-.92.02,0,.06-.2.32.17.08-.1.32-.03.43,0Z"/>
              <path class="cls-61" d="M23.26,80.76c-.14.05-.37.05-.52.12-.06.03-.1.08-.17.06-.15-.29-3.54-1.01-3.43-1.15.2-.06.4-.11.6-.17.92.29,1.89.42,2.79.75.15.05.73.3.72.4Z"/>
              <path class="cls-40" d="M26.26,79.55c-.02.13.05.11.06.12,0,.05-.04.06-.06.12-.22.31-2.19-.58-2.48-.92.82.23,1.64.49,2.48.69Z"/>
            </g>
            <g>
              <path class="cls-2" d="M23.72,84.62l-.03.12-1.24-.49v-3.2l.12-.12c.08.02.11-.03.17-.06l.75.43c-.13.31-.06,1.14.03,1.41,0,0,.1-.13.14-.03.08.17-.1,1.54.06,1.93Z"/>
              <path class="cls-64" d="M24.64,80.42l.69.52c-.11.04-.23.08-.35.12-.11.04-.33.04-.81.23-.05.02-.25.04-.35.06l-.12.09v3.2c-.16-.39.02-1.76-.06-1.93-.04-.1-.14.04-.14.03-.09-.27-.16-1.1-.03-1.41l-.75-.43c.15-.06.38-.07.52-.12.46-.15.92-.22,1.38-.35Z"/>
              <path class="cls-34" d="M26.89,79.9c.3.16.43.11.23.4-.1.07-1.47.53-1.79.63l-.69-.52c.24-.07,1.4-.37,1.47-.4.21-.1.11-.14.14-.23.02-.05.05-.07.06-.12.09.11.55.22.58.23Z"/>
              <g>
                <path class="cls-44" d="M27.06,76.5c-.08.57.1,2.63-.06,1.81h-.12v1.58s-.49-.12-.58-.23c0,0-.08.02-.06-.12,0-.98,0-1.96,0-2.94,0-.36.06-.27.06-.29.24.08.5.11.75.17Z"/>
                <path class="cls-62" d="M27.23,76.61c-.05.71.05,1.42.06,2.13,0,.26.06.93.06.98,0,.02-.09.13-.06.4.03.13-.07.11-.17.17.2-.29.07-.25-.23-.4v-1.58h.12c.16.82-.02-1.24.06-1.81.15.04.16.11.17.12Z"/>
              </g>
            </g>
            <g>
              <path class="cls-82" d="M30.81,81.68c.33-.03.65-.07.98-.12.14-.02.41-.14.52,0-1.23.44-2.46.87-3.69,1.33h-.06c0-.05.03-.13-.03-.17-.24-.18-3.26-1.1-3.83-1.27-.28-.49.92.12,1.53.23,1.51.28,3.06.16,4.58,0Z"/>
              <path class="cls-56" d="M24.18,81.28c.11.1.35.12.52.17.57.16,3.59,1.09,3.83,1.27.06.04.02.12.03.17h-.37c-.99-.41-2.04-.65-3.05-.98-.45-.14-1.28-.41-1.3-.58.09-.01.3-.04.35-.06Z"/>
              <path class="cls-24" d="M31.79,81.57c-.33.04-.65.08-.98.12-.05-.36-1.02-.12-1.99-.17-1.28-.07-2.56-.3-3.83-.46.11-.04.23-.08.35-.12.32-.11,1.69-.57,1.79-.63.1-.07.2-.04.17-.17.85.49,2.93,1.19,3.83,1.33.33.05.71-.1.66.12Z"/>
              <path class="cls-29" d="M24.99,81.05c1.27.16,2.55.39,3.83.46.97.05,1.94-.19,1.99.17-1.52.16-3.07.28-4.58,0-.61-.11-1.81-.73-1.53-.23-.17-.05-.41-.07-.52-.17.48-.19.7-.2.81-.23Z"/>
            </g>
          </g>
        </g>
      </g>
      <g>
        <g>
          <g>
            <path class="cls-36" d="M68.86,66.21s0,.09,0,.12c0,0-.04-.05-.06.17-.04.64-.05,1.32-.06,1.96-1.64.18-3.29.42-4.93.58-.13-.11-.1-.25-.26-.35-.54-.33-1.18-.55-1.79-.75-.23-.08-.59-.29-.84-.29-.04,0-.02.12-.03.12-1-.2-1.99-.45-3-.58,0-.04.07-.11.09-.12.15-.03,2.48-.23,3.02-.29.42-.04.84-.08,1.27-.12,2.19-.2,4.38-.28,6.57-.46Z"/>
            <path class="cls-40" d="M57.91,67.18c1.01.12,2,.38,3,.58l.14.12c-.43-.06-.91.07-1.3.06-.13,0-.27.01-.4,0-.5-.04-1.8-.44-2.36-.63v-.23c.31.01.62.08.92.12Z"/>
          </g>
          <g>
            <path class="cls-25" d="M68.74,68.45c-.05,2.8-.03,5.61,0,8.41,0,.91,0,1.82,0,2.74.02.04.21.05.29.09-1.07.37-2.2.59-3.28.92-.2.06-.4.11-.6.17-.11.14,3.28.86,3.43,1.15l-.12.12-3.51-1.07c0,3.1,0,6.2,0,9.3,0,.96.05,1.93-.06,2.88-.49,0-.95.03-1.44-.06v-24.08c.17.04.11-.14.12-.35.16.1.13.23.26.35,1.64-.16,3.28-.39,4.93-.58Z"/>
            <path class="cls-36" d="M63.44,69.03v24.08c-.99-.18-2.88-1.9-4-2.13.04-.1-.15-.25-.2-.29.05,0,.13-.01.17,0,.13.04.66.52.75.37,0-2.2,0-4.4,0-6.6.01-5.43,0-10.87,0-16.3.93.39,2.28.66,3.28.86Z"/>
            <path class="cls-40" d="M61.77,67.93c.6.2,1.24.42,1.79.75,0,.21.06.38-.12.35-1.01-.21-2.36-.47-3.28-.86l1.61-.23Z"/>
          </g>
          <g>
            <path class="cls-36" d="M59.35,67.93c-.01,4.59-.01,9.18,0,13.77,0,2.96.02,5.91.06,8.87l-2.36-1.33v-.06q-.03-10.95-.06-21.89c.57.19,1.86.59,2.36.63Z"/>
            <path class="cls-40" d="M59.41,90.58v.12s-.12,0-.17,0c-.35-.22-2.12-1.11-2.19-1.44l2.36,1.33Z"/>
            <path class="cls-78" d="M61.77,67.93l-1.61.23c-.12-.05-.31-.13-.4-.23.39,0,.87-.11,1.3-.06l-.14-.12s-.02-.12.03-.12c.25,0,.6.21.84.29Z"/>
            <path class="cls-4" d="M59.75,67.93c.09.1.28.18.4.23,0,5.43.01,10.87,0,16.3-.04,0-.1.02-.12-.03-.11-.33.19-2.19-.14-2.91-.09-.05-.02.41-.55.17-.01-4.59-.01-9.18,0-13.77.13.01.27,0,.4,0Z"/>
            <path class="cls-4" d="M60.16,84.47c0,2.2,0,4.4,0,6.6-.09.15-.62-.34-.75-.37v-.12c-.04-2.96-.05-5.91-.06-8.87.53.24.46-.23.55-.17.33.72.03,2.58.14,2.91.02.04.08.03.12.03Z"/>
          </g>
        </g>
        <g>
          <path class="cls-53" d="M84.93,79.97l.2.46c.37-.09.65.24.81.29.74.22.46.01.6-.4.84.23.62.47.63.58.2,2.32-.15,9.05,0,12.21,0,.1,0,.14.06.23-1.24,0-4.1.61-4.81.63-.1,0-.2-.03-.26-.12.31-.16.57-.4.86-.58.34-.2.71-.36,1.04-.58.1-.07.43-.18.46-.26l.06-11.67-.03-.12c-.23-.03-.19.06-.2.06-.12.02-.23.08-.35.12.22-.34-.44-.3-.98-.17,0,0-.02-.09.03-.12.59-.16,1.32-.35,1.87-.58Z"/>
          <path class="cls-29" d="M95.59,89.14c.02.65-.04,1.31.03,1.96.11.09,2.44-.69,2.79-.58-.02.08.03.15-.09.23l-11.09,2.59c-.06-.09-.05-.13-.06-.23l5.21-1.21.14-.14c-.1-.27-.06-.7-.06-1.01l.92-.12c-.81.2-.96.16-.72,1.21l2.82-.69-.03-.84c-.05-.1-.15-.04-.35-.03v-.06c.16-.03.17-.14.35-.09.03-.53-.09-1.06.12-1.01Z"/>
          <path class="cls-78" d="M93.46,79.57l.06.06v3.2l-.09.14c-.23-.04-1.15.41-1.24.2v-3.43c.23,0,.27-.06.29-.06.34-.02.88-.16.98-.12Z"/>
          <g>
            <path class="cls-36" d="M98.41,90.52c-.35-.11-2.68.67-2.79.58-.07-.65,0-1.31-.03-1.96,0-.24.03-.59,0-.75-.16-.46,2.03-.51,2.22-.63.14-.1.11-.42,0-.46-.11-.04-2.01.55-2.19.69-.71-.18-2.03.39-2.94.46l-.2.09c-.03.12.06.16.06.2-.12.67-.04,1.35-.06,2.02,0,.3-.04.74.06,1.01l-.14.14-5.21,1.21c-.15-3.16.2-9.9,0-12.21l5.01-1.09v3.37c.09.21,1-.25,1.24-.2l.09-.14v-3.2c1.61-.26,3.23-.57,4.78-1.09l.12.03c-.1,1.96.13,11.27,0,11.95Z"/>
            <path class="cls-35" d="M87.87,90c.92-.1,1.8-.33,2.68-.63.63-.21.87-.44.92-.46.04-.02.71.1.55-.35.08,0,.31-.02.35.03l-.14,1.12c-.52.04-4.22,1.25-4.35,1.07.02-.26-.02-.52,0-.78Z"/>
            <path class="cls-26" d="M87.87,90c.02-.18-.06-.36.09-.46.85-.15,3.63-.97,4.06-.98.16.44-.51.33-.55.35-.05.02-.29.25-.92.46-.88.3-1.76.53-2.68.63Z"/>
            <path class="cls-65" d="M97.29,88.21c.53-.05.58.66.23.75-.69.18-.82-.69-.23-.75Z"/>
            <path class="cls-29" d="M96.42,88.39s.12-.01.14.03c-.92,1.39-.3.01-.14-.03Z"/>
          </g>
          <path class="cls-56" d="M85.62,79.92c0,.11.71.33.86.35,0,.06.03.05.06.06-.14.42.14.62-.6.4-.15-.04-.44-.38-.81-.29l-.2-.46s.04-.04.23-.12c.09.3.39.07.46.06Z"/>
          <g>
            <path class="cls-60" d="M96.22,78.02c.49.05,1.25.29,1.73.46-.19.18-.53.17-.81.23.01-.21-.06-.02-.2-.06-.48-.12-.22-.56-1.76-.06.47-.26.83-.12.4-.46.1-.04.22-.11.32-.17.23-.03.28.05.32.06Z"/>
            <path class="cls-26" d="M98.3,78.53c-1.55.52-3.17.84-4.78,1.09l-.06-.06.06-.12c.14.17.56,0,.81-.06.94-.19,1.88-.49,2.82-.69.27-.06.62-.05.81-.23.07.02.26,0,.35.06Z"/>
            <path class="cls-60" d="M95.59,78.13c.42.35.07.2-.4.46-.45.25-.58.31-.86.81-.24.05-.66.23-.81.06-.01-.02-.05-.09-.06-.12.02,0,.04,0,.06,0,.19-.04,1.59-1.02,2.07-1.21Z"/>
            <path class="cls-16" d="M97.14,78.71c-.94.2-1.88.5-2.82.69.28-.5.41-.55.86-.81,1.54-.5,1.28-.06,1.76.06.14.03.21-.15.2.06Z"/>
          </g>
          <g>
            <path class="cls-60" d="M93.4,90.63c.19-.05,1.64-.34,1.73-.35.2-.01.29-.07.35.03l.03.84-2.82.69c-.24-1.05-.09-1.01.72-1.21Z"/>
            <g>
              <path class="cls-46" d="M95.59,88.39c.03.16,0,.51,0,.75-.21-.06-.08.48-.12,1.01-.18-.06-.18.05-.35.09,0,0,0-.12-.17-.03l.17.03v.06c-.09,0-1.54.3-1.73.35l-.92.12c.02-.67-.06-1.35.06-2.02l2.79-.63.2.03c-.03.29.06.25.06.26Z"/>
              <path class="cls-1" d="M95.59,88.39s-.09.03-.06-.26l-.2-.03-2.79.63s-.09-.08-.06-.2l.2-.09c.9-.07,2.23-.64,2.94-.46.18-.14,2.08-.73,2.19-.69.11.04.14.37,0,.46-.19.13-2.38.18-2.22.63Z"/>
              <path class="cls-29" d="M95.13,90.23l-.17-.03c.17-.09.16.03.17.03Z"/>
            </g>
          </g>
          <g>
            <path class="cls-82" d="M92.19,79.74v.06l-5.01,1.09c0-.11.2-.35-.63-.58-.03,0-.06,0-.06-.06.17.01,3.21-.29,3.37-.35.05-.02.1-.16.2-.23.71,0,1.42.08,2.13.06Z"/>
            <path class="cls-55" d="M88.85,79.63c.41,0,.8.05,1.21.06-.1.07-.15.21-.2.23-.16.06-3.2.36-3.37.35-.15-.01-.87-.24-.86-.35.49-.09.99-.31,1.47-.35.45-.04,1.17.05,1.76.06Z"/>
          </g>
        </g>
        <g>
          <path class="cls-78" d="M90.98,63.32c.15.01.34,0,.46.12-.43.03-.87-.09-.92.12-2.02-.03-4.03-.07-6.05-.12,0-.04-.02-.09.03-.12.14-.07,2.87-.62,3.02-.63.13-.01.28-.06.4.03-.75.86,1.36.47,3.05.6Z"/>
          <g>
            <path class="cls-36" d="M97.49,69.49c0,2.56,0,5.13,0,7.69-.1.12-.38.2-.46.26-.4-.24-.06-.56-.17-.69,0,0,.01-.08-.09-.06l-3.26,2.02-.06-15.12c-.98.06-1.96-.01-2.94-.03.05-.21.49-.08.92-.12,1.99-.16,3.98-.36,5.96-.52l.14.09c-.06,2.16-.06,4.32-.06,6.48Z"/>
            <path class="cls-16" d="M97.03,77.44c-.38.26-.77.41-.81.58-.03,0-.09-.08-.32-.06-.09.06-.21.13-.32.17-.48.19-1.89,1.17-2.07,1.21v-.35s.07.06.09.06c.22-.05,2.78-1.95,3.26-2.3.12.13-.23.45.17.69Z"/>
            <path class="cls-60" d="M96.86,76.75c-.47.36-3.04,2.25-3.26,2.3-.01,0-.04-.07-.09-.06v-.29l3.26-2.02c.1-.02.08.05.09.06Z"/>
          </g>
          <g>
            <path class="cls-29" d="M84.47,63.44c2.02.04,4.03.09,6.05.12.98.01,1.96.09,2.94.03l.06,15.12v.63s-.04,0-.06,0l-1.47-.17c-.36-.47-.86-.47-1.3-.95-1.26-1.4-1.22-6.56-1.38-8.53-.43-1.19.03-2.52-.86-3.51-.95-1.04-1.83-.76-2.33-.84-1.96-.29-3.93-.56-5.91-.69,0-.16-.02-1.23.03-1.27,1.41-.04,2.82.03,4.23.06Z"/>
            <path class="cls-56" d="M93.46,79.34s.04.1.06.12l-.06.12c-.1-.04-.64.09-.98.12-.32-.08-.28-.28-.32-.29-.15-.04-1.73.24-3-.46-1.02-.56-1.46-1.79-2.1-2.71,0-1.4-.04-2.8-.06-4.21-.02-2.06.01-4.13,0-6.19-2.23-.33-4.55-.29-6.8-.58,0-.12.01-.25,0-.37,0-.08,0-.15,0-.23,1.98.13,3.94.41,5.91.69.5.07,1.57-.35,2.33.84.64.99.17,1.93.17,3.8,0,1.97,1.41,6.56,2.07,8.24.24.6.94.48,1.3.95l1.47.17Z"/>
            <path class="cls-15" d="M92.48,79.69s-.05.05-.29.06c-.72.03-1.42-.05-2.13-.06-.41,0-.8-.05-1.21-.06,1.22-.18-.19-.37-.49-.52-.46-.23-.78-.66-1.3-.81,0-.13,0-.27,0-.4.02-.52,0-1.04,0-1.56,0-.04,0-.08,0-.12.64.92,1.08,2.14,2.1,2.71,1.27.7,2.85.42,3,.46.04.01,0,.21.32.29Z"/>
          </g>
          <path class="cls-40" d="M88.85,79.63c-.58,0-1.31-.1-1.76-.06-.48.04-.98.26-1.47.35-.07.01-.38.25-.46-.06.04-.01.1-.03.17-.06.18.13,1.63-.29,1.67-.37.01-.12-.02-.27,0-.37.05-.28.04-.47.06-.75.51.14.84.57,1.3.81.3.15,1.71.34.49.52Z"/>
        </g>
        <g>
          <g>
            <path class="cls-36" d="M87,72.02l-.14-.58c-.28.84-.62,2.25-.72,3.14-.03.28-.16,1.51.03,1.58.31-.14.3,0,.32,0-.73.24-1.84.3-1.67.75h-.06s-.08.03-.06-.17c-.16-.17-1.7.41-2.02.46l-.12.09c0,.39.01.79,0,1.18-.04,0-.08,0-.12,0l.06-1.12c-.03-.05-.12-.02-.17-.03-.38-.06-2.48.76-3.08.86-.22.1-.12.2-.14.4-.03.26.02.54,0,.81-.15-.26-.01-.45-.63-.23-.05-3.96.01-7.91.06-11.87l3.63-.81v2.68l.95.03.09-2.88,3.14-.46c-.62-.08-2,.09-2.62.23-.25-.23-.35-.15-.58-.17-.99-.1-1.99-.08-2.97-.29-1.19-.14-6.76.6-7.43.81-.07.02-.23.12-.2.23-1.23-.12-2.45-.38-3.69-.35,0-.03,0-.08,0-.12.71-.06,1.45-.02,2.16-.12l9.19-1.21c.01.12,0,.25,0,.37,2.25.28,4.56.25,6.8.58.01,2.06-.02,4.13,0,6.19Z"/>
            <path class="cls-29" d="M72.54,66.67s.08,0,.12,0v.4l-3.86-.58c.01-.23.05-.16.06-.17,1.24-.04,2.46.23,3.69.35Z"/>
            <path class="cls-82" d="M82.45,78.48s.08,0,.12,0c-.01.4,0,.81,0,1.21v.75c-.5.18-3.86,1.48-4.03,1.61.02-.96-.05-1.92-.06-2.88.62-.22.49-.03.63.23.02.03-.03.15.03.17.2.07,2.74-.98,3.31-1.09Z"/>
            <path class="cls-16" d="M81.99,66.44c-1.17.25-2.38.35-3.51.75h-.06l-4.32-.4s-.02-.11.03-.12c2.12-.24,4.26-.56,6.39-.46.39.02,1.5.13,1.47.23Z"/>
            <g>
              <path class="cls-56" d="M69.14,76.86c1.04.23,2.08.48,3.11.75,0,.98,0,1.96,0,2.94-.83-.2-1.65-.46-2.48-.69-.11-.03-.35-.1-.43,0-.26-.38-.3-.16-.32-.17-.08-.04-.27-.05-.29-.09,0-.91,0-1.82,0-2.74.34-.29.21-.04.4,0Z"/>
              <path class="cls-40" d="M75.65,78.07s0,.04,0,.06c.05.66,0,1.35.06,2.02.03.14-.06.13-.2.12-.52-.05-1.61-.4-2.22-.52,0-.71-.11-1.42-.06-2.13.78.2,1.62.34,2.42.46Z"/>
              <path class="cls-56" d="M75.71,80.15c.04.4.23.82.12,1.21-.82-.22-1.67-.37-2.48-.63,0-.05-.06-.72-.06-.98.6.12,1.7.47,2.22.52.14.01.23.02.2-.12Z"/>
              <path class="cls-56" d="M72.26,77.09c-.03.14.06.19.06.23,0,.01-.05-.07-.06.29-1.03-.27-2.07-.52-3.11-.75.02-.11-.04-.53.03-.58.13-.09,2.67.71,3.08.81Z"/>
            </g>
            <path class="cls-56" d="M74.1,66.78l4.32.4c-.06.21-.02.33-.26.29l-4.18-.52c0-.06-.06-.06-.06-.12.07-.05.1-.05.17-.06Z"/>
            <path class="cls-35" d="M82.16,66.44v.06l-3.63.81s-.08.02-.06-.12c1.14-.4,2.34-.5,3.51-.75.23-.05.16,0,.17,0Z"/>
            <g>
              <path class="cls-69" d="M72.66,67.07v3.14l1.3.03c-.01-.92.11-2.48.03-3.28l4.18.52c.24.04.2-.08.26-.29h.06c-.02.14.06.11.06.12-.04,3.96-.1,7.91-.06,11.87.01.96.08,1.92.06,2.88-.01,0-.04-.02-.06.06-.88-.26-1.76-.52-2.65-.75.11-.39-.08-.81-.12-1.21-.06-.67,0-1.35-.06-2.02h.06c.24.07,1.84.61,1.93.58.13-.05.13-.36,0-.46-.18-.14-1.61-.27-1.93-.35,0,0,.05-.02-.12-.06-1.11-.26-2.23-.5-3.34-.75-.41-.09-2.95-.9-3.08-.81-.07.05,0,.46-.03.58-.19-.04-.06-.29-.4,0-.03-2.8-.05-5.62,0-8.41.01-.64.02-1.32.06-1.96l3.86.58Z"/>
              <path class="cls-40" d="M75.6,77.84c-.03.14.05.18.06.23-.8-.13-1.64-.26-2.42-.46-.01,0-.02-.08-.17-.12-.25-.06-.5-.1-.75-.17,0-.04-.09-.09-.06-.23,1.11.25,2.23.49,3.34.75Z"/>
              <path class="cls-40" d="M75.71,78.13v-.23c.32.07,1.75.21,1.93.35.13.1.13.41,0,.46-.09.04-1.69-.5-1.93-.58Z"/>
              <path class="cls-40" d="M76.72,79.05s1.01-.08.78.49c-.08.19-1.14-.24-.78-.49Z"/>
              <path class="cls-47" d="M75.71,77.9v.23h-.06s0-.04,0-.06c0-.05-.09-.09-.06-.23.16.04.11.06.12.06Z"/>
            </g>
            <path class="cls-82" d="M87,72.02c.01,1.4.06,2.8.06,4.21,0,.04,0,.08,0,.12-.16-.11-.23-.09-.29-.12-.17-.06-.25-.05-.29-.06-.02,0,0-.14-.32,0-.19-.08-.06-1.31-.03-1.58.1-.89.44-2.3.72-3.14l.14.58Z"/>
            <g>
              <path class="cls-4" d="M73.93,66.84c0,.05.05.06.06.12.08.8-.04,2.37-.03,3.28l-1.3-.03v-3.54c.43.04.84.14,1.27.17Z"/>
              <path class="cls-78" d="M83.14,65.92c.16.32-.63.44-.98.52,0,0,.06-.05-.17,0,.03-.1-1.08-.21-1.47-.23-2.14-.1-4.28.22-6.39.46-.05,0-.02.11-.03.12-.08.01-.1.01-.17.06-.43-.04-.84-.13-1.27-.17-.04,0-.08,0-.12,0-.03-.11.13-.21.2-.23.67-.21,6.24-.95,7.43-.81.98.21,1.98.19,2.97.29Z"/>
              <path class="cls-78" d="M83.72,66.09c-.13.03-.39.18-.49.06l-.03.17-.09,2.88-.95-.03v-2.74c.35-.08,1.14-.2.98-.52.23.02.32-.06.58.17Z"/>
            </g>
            <g>
              <path class="cls-35" d="M82.45,78.48c-.57.11-3.12,1.17-3.31,1.09-.06-.02-.01-.14-.03-.17.02-.26-.03-.55,0-.81.73-.13,1.51-.27,2.1-.75.66.17.28-.19.4-.29.04-.03.79.25.72-.23.05,0,.15-.03.17.03l-.06,1.12Z"/>
              <path class="cls-26" d="M82.34,77.32c.07.48-.68.2-.72.23-.13.1.26.46-.4.29-.6.48-1.37.62-2.1.75.02-.2-.08-.31.14-.4.6-.1,2.7-.93,3.08-.86Z"/>
            </g>
            <path class="cls-35" d="M83.2,66.32l.03-.17c.1.13.35-.03.49-.06.62-.14,2-.31,2.62-.23l-3.14.46Z"/>
            <path class="cls-15" d="M85.33,79.8c.23-.09.55-.29.81-.4.28-.12.6-.17.86-.35-.02.11.01.26,0,.37-.04.08-1.49.5-1.67.37Z"/>
            <g>
              <path class="cls-29" d="M86.95,77.9c.23.7-.47.67-.81,1.5-.26.11-.57.31-.81.4-.07.03-.13.04-.17.06-.19.07-.22.11-.23.12-.55.22-1.29.42-1.87.58-.05.02-.02.11-.03.12-.01,0,.05.09-.14.17-.8.33-1.64.61-2.45.92-.44.17-.88.35-1.33.52-.2.07-.43.12-.58.17.04-.17-.08-.27-.06-.35.02-.08.05-.05.06-.06.17-.13,3.54-1.43,4.03-1.61.19-.07,1.41-.33,2.1-.63.15-.11.02-.67.03-.81,0-.04.05-.05.06-.17.18.28,1.6-.8,2.19-.92Z"/>
              <path class="cls-1" d="M86.49,76.17s.11,0,.29.06c-.07.3-1.35.5-1.96.69-.17-.45.94-.51,1.67-.75Z"/>
              <g>
                <path class="cls-5" d="M84.7,76.75c-.03.2.06.16.06.17.03.13.01,1.55,0,1.9,0,.12-.06.13-.06.17l-2.13.69c0-.4-.01-.81,0-1.21.01-.39,0-.79,0-1.18l.12-.09c.66.12,1.4-.25,2.02-.46Z"/>
                <path class="cls-1" d="M84.7,76.75c-.62.21-1.35.59-2.02.46.32-.05,1.85-.63,2.02-.46Z"/>
              </g>
              <path class="cls-60" d="M84.7,79c0,.14.12.7-.03.81-.69.3-1.91.56-2.1.63v-.75l2.13-.69Z"/>
              <path class="cls-56" d="M87.06,77.9c0,.13,0,.27,0,.4-.01.28,0,.47-.06.75-.26.17-.59.23-.86.35.34-.83,1.03-.8.81-1.5.04,0,.08,0,.12,0Z"/>
              <g>
                <path class="cls-3" d="M87.06,76.35c0,.52.02,1.04,0,1.56-.04,0-.08,0-.12,0-.59.12-2.01,1.2-2.19.92.01-.35.03-1.77,0-1.9h.06c.61-.2,1.89-.39,1.96-.69.06.02.12,0,.29.12Z"/>
                <path class="cls-56" d="M86.05,76.92c.76-.15.71.67.4.75-.59.15.13-.37-.17-.52-.3-.15-.81.38-.89.2.2-.05.54-.41.66-.43Z"/>
              </g>
            </g>
          </g>
          <g>
            <path class="cls-65" d="M74.62,96.91v.17l-.35.06c-.14-.08-.34-.06-.58-.12-.86-.2-.68-.33-.72-.35-.15-.06-.57-.12-.69-.17-.88-.37-1.73-.91-2.62-1.27.04-.07.05-.09.06-.17,1.61.67,3.22,1.34,4.9,1.84Z"/>
            <path class="cls-29" d="M83.03,93.28c-.3.17-.56.42-.86.58-.29.15-5.52,2.48-5.96,2.65-.52.21-1.05.42-1.58.58v-.29c1.63-.51,3.15-1.41,4.75-2.02.22-.23.03-1.09.03-1.38.2-.03.16.06.17.06l-.03,1.21c.38-.15.75-.35,1.12-.52.24-.11,1.42-.68,1.5-.75-.06.38.33-.07.86-.12Z"/>
            <path class="cls-62" d="M69.66,91.84c-.05.71.04,1.42.06,2.13,0,.34.02.76,0,1.09,0,.09-.02.1-.06.17-.29-.12-.58-.23-.86-.35-.08-.03-.15-.08-.23-.12v-.23c0-.98,0-1.96,0-2.94,0-.23.06-.16.06-.17.33.1.69.17,1.01.29.05.02.02.11.03.12Z"/>
            <path class="cls-40" d="M68.57,94.55v.23s.15.2-.43,0c-.92-.54-2.28-.75-3.08-1.38l3.51,1.15Z"/>
            <path class="cls-55" d="M84.35,80.72c.13.03-.06.06-.12.29-.3-.19-.21.25-.23.75-.22.15-.25.73-.23,1.01-.38.79-.64,2.95-.69,3.92-.04.77-.08,2.84.29,2.85-.26.1-.73.29-.98.4-.95-.92-.05-5.16.29-6.48.2-.8.61-1.64.75-2.39.19-.06.37-.17.58-.23.12-.04.22-.1.35-.12Z"/>
            <path class="cls-29" d="M84.58,80.78l-.06,11.67c-.03.08-.36.19-.46.26-.36-.35-.09-2.02-.17-2.94.03-.38-.06-.33-.06-.35-.02-2.55.08-5.12.17-7.66.02-.5-.07-.94.23-.75-.03.13-.1,1.46.2,1.21.14-.11-.13-1.39.14-1.44Z"/>
            <path class="cls-60" d="M84.01,80.84c-.2.06-.38.17-.58.23-.98.32-1.96.63-2.94.92,0-.11-.07-.13-.06-.23.81-.31,1.65-.6,2.45-.92.2-.08.13-.17.14-.17.54-.12,1.2-.17.98.17Z"/>
            <path class="cls-10" d="M84.58,80.78c-.27.05,0,1.33-.14,1.44-.3.25-.23-1.08-.2-1.21.05-.22.25-.26.12-.29.01,0-.03-.09.2-.06l.03.12Z"/>
            <g>
              <path class="cls-56" d="M65.23,90.46c.55.31,2.58.95,3.34,1.15,0,.98,0,1.96,0,2.94l-3.51-1.15c-.08-.07,0-.26-.17-.23.11-.95.06-1.92.06-2.88.24-.11.1.07.29.17Z"/>
              <path class="cls-24" d="M68.57,91.15c-.03.19.06.25.06.29,0,0-.06-.05-.06.17-.76-.21-2.79-.84-3.34-1.15l.09-.4c1.07.42,2.17.74,3.26,1.09Z"/>
            </g>
            <path class="cls-40" d="M71.68,92.53l.09,2.19-2.05-.75c-.02-.71-.1-1.42-.06-2.13.66.24,1.35.44,2.02.69Z"/>
            <path class="cls-40" d="M75.83,81.36c.89.23,1.77.49,2.65.75-.02.07.1.18.06.35-.01,0,.01.03-.23.12-.11-.14-.38-.02-.52,0,.05-.22-.33-.07-.66-.12-.9-.13-2.98-.83-3.83-1.33-.04-.27.06-.38.06-.4.81.26,1.65.42,2.48.63Z"/>
            <path class="cls-36" d="M83.43,81.07c-.13.75-.55,1.59-.75,2.39-.34,1.32-1.23,5.57-.29,6.48-.23.11-.28.23-.43.4-.41-.31-2.49.56-2.56.92-.03.16,0,.68,0,.98-.05,0-.11,0-.12,0-.07-.64.26-1.15-.37-1.09-.34.03-3.52,1.52-3.72,1.56-.19.03-.45,0-.58-.17v-8.64c1.22-.46,2.46-.88,3.69-1.33.24-.09.22-.11.23-.12.14-.05.38-.1.58-.17l.09,3.28,1.24-.55c-.02-1.01,0-2.01.06-3.02.98-.29,1.96-.61,2.94-.92Z"/>
            <g>
              <path class="cls-18" d="M68.45,82.05v3.2l1.24.49.03-.12v-3.2l.12-.09c.01.17.85.43,1.3.58,1.02.33,2.06.57,3.05.98h.43v13.02c-1.67-.5-3.29-1.18-4.9-1.84.02-.33,0-.76,0-1.09l2.05.75-.09-2.19c1.15.43,2.34,1.11,1.99.35-1.7-.57-3.39-1.17-5.1-1.73-1.09-.35-2.19-.67-3.26-1.09l-.09.4c-.18-.1-.05-.28-.29-.17,0-3.1,0-6.2,0-9.3l3.51,1.07Z"/>
              <path class="cls-40" d="M71.68,92.53c-.67-.25-1.35-.45-2.02-.69,0,0,.02-.1-.03-.12-.32-.12-.68-.19-1.01-.29,0-.03-.09-.1-.06-.29,1.71.55,3.4,1.16,5.1,1.73.35.77-.83.08-1.99-.35Z"/>
              <path class="cls-40" d="M72.63,93.57c1.42.13,1.11,1.22.4.63-.19-.15-.3-.42-.4-.63Z"/>
            </g>
            <path class="cls-3" d="M84.01,81.76c-.09,2.55-.19,5.12-.17,7.66-.19.07-.42.1-.46.12-.37,0-.33-2.08-.29-2.85.05-.97.32-3.13.69-3.92-.02-.28,0-.86.23-1.01Z"/>
            <g>
              <path class="cls-3" d="M83.89,89.77c.08.92-.19,2.58.17,2.94-.33.21-.7.38-1.04.58-.54.04-.93.5-.86.12.08-.07.14-.07.12-.14-.02-.05-.17-.13-.17-.14l-.23-2.65c.68-.21,1.33-.52,2.02-.69Z"/>
              <path class="cls-40" d="M83.75,90.4c.13.05.11.48.06.52-.05.04-.62-.13-1.18.03.16-.05,1.06-.57,1.12-.55Z"/>
            </g>
            <path class="cls-78" d="M80.49,81.99c-.05,1.01-.08,2.01-.06,3.02l-1.24.55-.09-3.28c.44-.17.88-.35,1.33-.52-.02.1.06.12.06.23Z"/>
            <g>
              <path class="cls-55" d="M79.4,92.25c0,.38,0,.77,0,1.15,0,.3.19,1.15-.03,1.38-1.61.61-3.13,1.51-4.75,2.02v-4.26c.13.16.38.2.58.17l.09,1.27c1.05-.48,3.13-1.13,4-1.73.01,0,.07,0,.12,0Z"/>
              <path class="cls-26" d="M79.28,92.25c-.87.6-2.95,1.25-4,1.73l-.09-1.27c.2-.03,3.38-1.53,3.72-1.56.64-.05.3.46.37,1.09Z"/>
            </g>
            <g>
              <g>
                <path class="cls-60" d="M82.11,93.11s.15.09.17.14c.02.07-.04.07-.12.14-.07.07-1.26.64-1.5.75l-.17-.98c.14-.05.31-.18.46-.23.06-.02.12-.04.17-.06.22-.07.44-.17.46-.17.11-.02.2-.08.32-.06.02.18.13.31.2.46Z"/>
                <path class="cls-60" d="M80.49,93.17l.17.98c-.37.17-.74.37-1.12.52l.03-1.21c.06,0,.77-.24.92-.29Z"/>
              </g>
              <g>
                <path class="cls-29" d="M81.01,90.63c0,.19,0,.38,0,.58l-.06,1.04v.69c-.15.05-.32.18-.46.23-.15.05-.86.29-.92.29,0,0,.03-.09-.17-.06,0-.38,0-.77,0-1.15,0-.3-.03-.82,0-.98.54-.24,1.02-.45,1.61-.63Z"/>
                <path class="cls-24" d="M83.84,89.42s.09-.04.06.35c-.69.17-1.34.49-2.02.69-.26.08-.59.09-.86.17-.59.19-1.08.39-1.61.63.07-.36,2.15-1.24,2.56-.92.16-.18.2-.3.43-.4.25-.12.72-.3.98-.4.05-.02.27-.04.46-.12Z"/>
                <path class="cls-29" d="M81.88,90.46l.23,2.65c-.07-.15-.18-.28-.2-.46-.12-.02-.21.03-.32.06-.16-.7-.54-.62-.58-1.5,0-.19,0-.38,0-.58.27-.09.6-.09.86-.17Z"/>
                <path class="cls-1" d="M81.59,92.71s-.25.1-.46.17c-.15-.29.06-.67-.17-.63l.06-1.04c.03.87.42.8.58,1.5Z"/>
                <path class="cls-40" d="M81.13,92.88c-.06.02-.12.04-.17.06v-.69c.24-.04.02.34.17.63Z"/>
              </g>
            </g>
            <g>
              <path class="cls-56" d="M69.78,79.86c.28.34,2.25,1.24,2.48.92-.03.09.07.13-.14.23-.07.03-1.23.34-1.47.4-.46.13-.92.2-1.38.35.01-.11-.57-.35-.72-.4-.91-.32-1.88-.46-2.79-.75,1.08-.33,2.21-.55,3.28-.92.02,0,.06-.2.32.17.08-.1.32-.03.43,0Z"/>
              <path class="cls-61" d="M69.26,81.76c-.14.05-.37.05-.52.12-.06.03-.1.08-.17.06-.15-.29-3.54-1.01-3.43-1.15.2-.06.4-.11.6-.17.92.29,1.89.42,2.79.75.15.05.73.3.72.4Z"/>
              <path class="cls-40" d="M72.26,80.55c-.02.13.05.11.06.12,0,.05-.04.06-.06.12-.22.31-2.19-.58-2.48-.92.82.23,1.64.49,2.48.69Z"/>
            </g>
            <g>
              <path class="cls-2" d="M69.72,85.62l-.03.12-1.24-.49v-3.2l.12-.12c.08.02.11-.03.17-.06l.75.43c-.13.31-.06,1.14.03,1.41,0,0,.1-.13.14-.03.08.17-.1,1.54.06,1.93Z"/>
              <path class="cls-64" d="M70.64,81.42l.69.52c-.11.04-.23.08-.35.12-.11.04-.33.04-.81.23-.05.02-.25.04-.35.06l-.12.09v3.2c-.16-.39.02-1.76-.06-1.93-.04-.1-.14.04-.14.03-.09-.27-.16-1.1-.03-1.41l-.75-.43c.15-.06.38-.07.52-.12.46-.15.92-.22,1.38-.35Z"/>
              <path class="cls-34" d="M72.89,80.9c.3.16.43.11.23.4-.1.07-1.47.53-1.79.63l-.69-.52c.24-.07,1.4-.37,1.47-.4.21-.1.11-.14.14-.23.02-.05.05-.07.06-.12.09.11.55.22.58.23Z"/>
              <g>
                <path class="cls-44" d="M73.06,77.5c-.08.57.1,2.63-.06,1.81h-.12v1.58s-.49-.12-.58-.23c0,0-.08.02-.06-.12,0-.98,0-1.96,0-2.94,0-.36.06-.27.06-.29.24.08.5.11.75.17Z"/>
                <path class="cls-62" d="M73.23,77.61c-.05.71.05,1.42.06,2.13,0,.26.06.93.06.98,0,.02-.09.13-.06.4.03.13-.07.11-.17.17.2-.29.07-.25-.23-.4v-1.58h.12c.16.82-.02-1.24.06-1.81.15.04.16.11.17.12Z"/>
              </g>
            </g>
            <g>
              <path class="cls-82" d="M76.81,82.68c.33-.03.65-.07.98-.12.14-.02.41-.14.52,0-1.23.44-2.46.87-3.69,1.33h-.06c0-.05.03-.13-.03-.17-.24-.18-3.26-1.1-3.83-1.27-.28-.49.92.12,1.53.23,1.51.28,3.06.16,4.58,0Z"/>
              <path class="cls-56" d="M70.18,82.28c.11.1.35.12.52.17.57.16,3.59,1.09,3.83,1.27.06.04.02.12.03.17h-.37c-.99-.41-2.04-.65-3.05-.98-.45-.14-1.28-.41-1.3-.58.09-.01.3-.04.35-.06Z"/>
              <path class="cls-24" d="M77.79,82.57c-.33.04-.65.08-.98.12-.05-.36-1.02-.12-1.99-.17-1.28-.07-2.56-.3-3.83-.46.11-.04.23-.08.35-.12.32-.11,1.69-.57,1.79-.63.1-.07.2-.04.17-.17.85.49,2.93,1.19,3.83,1.33.33.05.71-.1.66.12Z"/>
              <path class="cls-29" d="M70.99,82.05c1.27.16,2.55.39,3.83.46.97.05,1.94-.19,1.99.17-1.52.16-3.07.28-4.58,0-.61-.11-1.81-.73-1.53-.23-.17-.05-.41-.07-.52-.17.48-.19.7-.2.81-.23Z"/>
            </g>
          </g>
        </g>
      </g>
    </g>
  </g>
</svg>