<?xml version="1.0" encoding="UTF-8"?>
<svg id="Capa_2" data-name="Capa 2" xmlns="http://www.w3.org/2000/svg" viewBox="0 0 102 101.03">
  <defs>
    <style>
      .cls-1 {
        fill: #a4d7e4;
      }

      .cls-1, .cls-2, .cls-3, .cls-4, .cls-5 {
        stroke-width: 0px;
      }

      .cls-2 {
        fill: #113642;
      }

      .cls-3 {
        fill: #0c1f27;
      }

      .cls-4 {
        fill: #104854;
      }

      .cls-5 {
        fill: #07080b;
      }
    </style>
  </defs>
  <g id="Capa_1-2" data-name="Capa 1">
    <g>
      <circle class="cls-1" cx="50.43" cy="51.78" r="23.99"/>
      <path class="cls-2" d="M36.04,44.88c-2.92-6.54-5.42-13.26-8.2-19.86-.04-.09-.19-.04-.2-.05-.61-1.44-.97-3.08-1.8-4.45v20.76c-.05-.02-1.04-.2-1.1-.2v-19.46c-.09-.13-.1.1-.2.25-.99,1.45-8.22,19.28-9.8,22.81-.07.01-1.29.52-1.4.05-.05-.22,1.67-3.14,1.6-4.05.01-.03.1.14.4-.45q4.65-10.73,9.3-21.46c.47.08,1.3-.06,1.85,0,3.68,8.63,7.34,17.37,10.7,26.11-.38.03-.78-.04-1.15,0Z"/>
      <path class="cls-2" d="M25.84,80.28c.91.28,4.96,2.7,5.85,3.6h-14.51c1.54-1.34,5.66-3.71,7.55-3.8.06,0,1.05.18,1.1.2Z"/>
      <path class="cls-2" d="M88.78,44.88c-2.92-6.54-5.42-13.26-8.2-19.86-.04-.09-.19-.04-.2-.05-.61-1.44-.97-3.08-1.8-4.45v20.76c-.05-.02-1.04-.2-1.1-.2v-19.46c-.09-.13-.1.1-.2.25-.99,1.45-8.22,19.28-9.8,22.81-.07.01-1.29.52-1.4.05-.05-.22,1.67-3.14,1.6-4.05.01-.03.1.14.4-.45l9.3-21.46c.47.08,1.3-.06,1.85,0,3.68,8.63,7.34,17.37,10.7,26.11-.38.03-.78-.04-1.15,0Z"/>
      <path class="cls-2" d="M78.58,80.28c.91.28,4.96,2.7,5.85,3.6h-14.51c1.54-1.34,5.66-3.71,7.55-3.8.06,0,1.05.18,1.1.2Z"/>
      <g>
        <g>
          <path class="cls-2" d="M41.12,79.15c2.2-1.48,6.67-4.83,7.08-8.34-.34-14.87.04-29.75-.14-44.61.35.11.84-.61,1.23-1.1q.07,23.13.14,46.26c-.4,3.02-6.37,8.85-8.3,7.79Z"/>
          <g>
            <path class="cls-5" d="M9.95,83.36c-.89,1.93-2.01,3.66-.75,5.86q39.95-.09,79.9-.18c.53.17,1.2,1.06.75,1.83-.01.02-.2.1-.34.37H6.48c-.95.97-4.53,1.53-3.13,3.11q48.32-.09,96.65-.18l1.16.73c1.16,2.06.77,3.22.82,5.68-.02,0-.1.36-.2.37-1.34.12-5.16,0-7.15,0-28.45.02-56.9-.23-85.35-.18-2.95,0-5.96.44-8.92.18-.06,0-.17-.34-.34-.37-.22-7.41,2-7.13,6.33-9.71.27-.6-.73-6.94,3.61-7.51Z"/>
            <path class="cls-2" d="M68.89,83.36c.07,1.74.93,1.51,1.97,1.65.97.12,18.53.38,19.47,0,.42-.17.53-.97.61-1.47.84.24,1.84,1.16,2.31,2.11,1.82,3.64-.98,4.73,2.45,6.32-.32.54-1.67-.7-1.84-.73-1.17-.23-3.14.44-4.02-.37.45-.78-.22-1.66-.75-1.83q-39.95.09-79.9.18c-1.26-2.2-.14-3.93.75-5.86,4.33-.57,17.23.43,22.94,0,2.8-1.23,5.59-2.44,8.24-4.21,1.93,1.07,7.9-4.77,8.3-7.79q-.07-23.13-.14-46.26c1.63-2.1,2.99-4.54,4.49-6.78v54.87c2.44,6.41,10.13,9.72,15.11,10.17Z"/>
            <path class="cls-4" d="M95.71,91.97c1.97.91,4.09.52,5.44,2.93l-1.16-.73q-48.32.09-96.65.18c-1.4-1.58,2.18-2.15,3.13-3.11h83.04c.14-.27.33-.34.34-.37.88.81,2.84.13,4.02.37.17.03,1.52,1.27,1.84.73Z"/>
            <path class="cls-3" d="M90.95,83.54c-.09.49-.19,1.29-.61,1.47-.93.38-18.5.12-19.47,0-1.05-.13-1.91.09-1.97-1.65,4.67.42,19.14-.67,22.05.18Z"/>
          </g>
        </g>
        <path class="cls-5" d="M53.92,17.95s-.11.33-.14.37c-1.51,2.24-2.86,4.68-4.49,6.78-.38.49-.88,1.21-1.23,1.1-.03-2.53.02-5.07,0-7.6l-.27-.64c1.27-.1,5.54-.42,5.92-.37.03,0,.22.25.2.37Z"/>
        <path class="cls-2" d="M53.92,17.95c.01-.11-.17-.36-.2-.37-.38-.06-4.65.27-5.92.37-4.62-7.81-8.85-8.96-15.86-6.41-3.77,1.37-11.85,7.11-14.29,7.51-1.95.32-7.24.72-6.6-3.57.46-3.11,4.81-1.63,7.28-2.47,2.9-.99,12.12-9.62,20.83-8.79,5.79.55,4.5,5.93,9.26-4.21h5.04c1.32,2.29,2.44,4.86,4.22,6.6,10.54-7.32,22.39,5.17,26.68,6.41,1.77.51,5.49-.51,6.19,2.11,1.51,5.62-6.31,3.61-8.24,2.84-4.94-1.98-17.08-12.69-23.55-4.95-2.21.15-3.48,2.94-4.83,4.95Z"/>
      </g>
      <rect class="cls-2" x="14" y="42" width="22" height="3"/>
      <rect class="cls-2" x="67" y="42" width="22" height="3"/>
    </g>
  </g>
</svg>