<?xml version="1.0" encoding="UTF-8"?>
<svg id="Capa_2" data-name="Capa 2" xmlns="http://www.w3.org/2000/svg" viewBox="0 0 26.54 16">
  <defs>
    <style>
      .cls-1 {
        fill: #fff;
      }
    </style>
  </defs>
  <g id="Capa_1-2" data-name="Capa 1">
    <path class="cls-1" d="M0,16V0h26.54v16H0ZM2,14h22.06V2H2v12ZM2,14V2v12ZM6,13h2v-1h1c.28,0,.52-.1.71-.29s.29-.43.29-.71v-3c0-.28-.1-.52-.29-.71-.19-.19-.43-.29-.71-.29h-3v-1h4v-2h-2v-1h-2v1h-1c-.28,0-.52.1-.71.29-.19.19-.29.43-.29.71v3c0,.28.1.52.29.71.19.19.43.29.71.29h3v1h-4v2h2v1Z"/>
    <path class="cls-1" d="M13.5,12.69l-2.5-2.5.88-.91,1,1v-4.47c0-.69.24-1.28.73-1.77.49-.49,1.08-.73,1.77-.73s1.28.24,1.77.73.73,1.08.73,1.77v4.38c0,.34.12.64.37.88s.54.37.88.37.64-.12.88-.37.37-.54.37-.88v-4.47l-1,1-.88-.91,2.5-2.5,2.5,2.5-.88.91-1-1v4.47c0,.69-.24,1.28-.73,1.77-.49.49-1.08.73-1.77.73s-1.28-.24-1.77-.73c-.49-.49-.73-1.08-.73-1.77v-4.38c0-.34-.12-.64-.37-.88s-.54-.37-.88-.37-.64.12-.88.37-.37.54-.37.88v4.47l1-1,.88.91-2.5,2.5Z"/>
  </g>
</svg>