<?xml version="1.0" encoding="UTF-8"?>
<svg id="Capa_2" data-name="Capa 2" xmlns="http://www.w3.org/2000/svg" viewBox="0 0 101.69 71.02">
  <defs>
    <style>
      .cls-1 {
        fill: #522a03;
      }

      .cls-1, .cls-2, .cls-3, .cls-4, .cls-5, .cls-6, .cls-7, .cls-8, .cls-9, .cls-10 {
        stroke-width: 0px;
      }

      .cls-2 {
        fill: #feb96c;
      }

      .cls-3 {
        fill: #9c1636;
      }

      .cls-4 {
        fill: #f1f0f2;
      }

      .cls-5 {
        fill: #af6541;
      }

      .cls-6 {
        fill: #d97242;
      }

      .cls-7 {
        fill: #151f3a;
      }

      .cls-8 {
        fill: #c07243;
      }

      .cls-9 {
        fill: #f8994a;
      }

      .cls-10 {
        fill: #8497a8;
      }
    </style>
  </defs>
  <g id="Capa_1-2" data-name="Capa 1">
    <g>
      <path class="cls-4" d="M95.77,61.51c.35.69-.48.11.09.64-4.31,2.34-11.35,2.96-16.24,3.12l.83-.64c3.91.02,11.93-1.2,15.32-3.12Z"/>
      <path class="cls-7" d="M95.77,61.51c-3.39,1.92-11.41,3.14-15.32,3.12-.21,0-1.31.04-1.38-.05,1.61-5.38,5.48-23.59,5.69-28.07.08-1.8-.27-3.33-.14-3.44,2.97,1.66,10.98,3.67,12.94,4.59,2.3,1.08,2.98,3.28,3.17,5.64.09,1.17.04,12.3-.09,12.94-.4,1.89-3.21,4.34-4.86,5.28Z"/>
      <g>
        <path class="cls-4" d="M95.86,62.16c-.57-.53.26.05-.09-.64,1.65-.93,4.47-3.38,4.86-5.28.13-.63.18-11.77.09-12.94-.19-2.37-.86-4.56-3.17-5.64-1.95-.91-9.96-2.93-12.94-4.59-.14.11.22,1.64.14,3.44-.21,4.49-4.08,22.69-5.69,28.07.06.09,1.17.04,1.38.05l-.83.64c-8.27.27-24.44-.09-27.8-9.4.5-4.4-1.47-15.21,2.25-18.12,2.05-1.61,11.95-3.58,15.18-6.19-.12-1.39.2-3.6-.09-4.86-.11-.49-1.57-3.05-1.74-4.13-4.8-4.5-2.28-7.1-2.29-7.61-1.45-3.86-.96-10.61,2.89-12.98,3.26-2,12.6-2.14,15.96-.37,4.09,2.16,4.71,9.58,3.99,13.62,1.98,2.44-.37,6.13-2.48,7.8-.5,1.43-.89,2.94-1.74,4.22.08,4.54-.74,4.24,3.17,5.92,2.79,1.2,10.01,3.15,11.83,4.31,1.75,1.11,2.55,3.11,2.8,5.09.13,1,.2,12.23.09,13.03-.35,2.66-3.54,5.35-5.78,6.56Z"/>
        <g>
          <g>
            <path class="cls-7" d="M68.48,33.17c.63,10.68,3.34,21.2,5.87,31.56-7.02-.39-18.98-1.26-21.7-8.94.54-4.16-1.49-14.92,2.06-17.57,1.56-1.16,11.13-3.53,13.76-5.05Z"/>
            <path class="cls-3" d="M78.43,36.1l1.28,1.7-1.1,2.84c.11,8.11,2.7,16-.37,23.94-.97.21-1.97.18-2.94,0-.36-.25-1.65-6.23-1.74-7.8-.23-3.91,1.47-13.91,1.01-16.24-.41-2.1-2.01-2.31.28-4.54l3.35-.09.23.18Z"/>
          </g>
          <g>
            <path class="cls-7" d="M85.5,5.28c.2.45.41.95.55,1.42.38,1.24.03,2.55.92,1.15.46,2.17.93,5.62.18,7.71-.3.83-1.27,1.85-1.74,2.57l-.18-.09c.17-3.04-.22-8.54-1.74-11.15-.86-1.48-1.34-1.77-2.16-1.33-2.1,1.12-3.27,4-7.75,5.14-2.88.73-5.55.62-5.69.87l-.05,6.56c-.33.27-1.86-2.55-1.97-2.84-1.44-3.67-1.07-10.76,2.8-12.94,2.73-1.54,12.15-1.9,14.68-.09.82.59,1.75,2.1,2.16,3.03Z"/>
            <path class="cls-10" d="M86.97,7.84c-.89,1.41-.54.09-.92-1.15-.14-.47-.35-.97-.55-1.42.15-.17-.48-1.25-.64-1.51-.71-1.12-2.16-2.37-.6-1.24,1.71,1.24,2.3,3.39,2.71,5.32Z"/>
            <g>
              <path class="cls-6" d="M72.38,12.52c-.89.49-2.81.59-3.12,2.71-.11.73.61,6.47.83,7.48.27,1.25.74,2.45,1.56,3.44.49.6,2.04,1.89,2.75,2.06l3.12,2.48c-2.56.32-5.34-.92-6.88-3.03-.96-1.31-.82-2.37-1.38-2.25-.43-1.06-.99-2.06-1.19-3.21-1.01-.93-2.39-2.6-2.66-3.94-.09-.42.17-1.03-.18-.96.03-.82.27-1.31.64-2.02.11.29,1.65,3.12,1.97,2.84l.05-6.56c.14-.25,2.81-.14,5.69-.87.26.29,1.78-.6,1.83-.05.02.18-2.67,1.68-3.03,1.88Z"/>
              <path class="cls-6" d="M78.43,36.1l-.23-.18-3.35.09c-.98-.2-1.59-.53-2.39-1.1.41-.01,1.52.83,1.88.73.19-.05,2.57-2.26,2.89-2.66,1.12-.66,4.45-3.01,4.13-3.85.68-.49,1.08-.97,1.65-1.56.26,4.34-.19,6.96-4.59,8.53Z"/>
              <path class="cls-9" d="M85.13,22.25l-.28.32c.06,1.66-1.71,4.03-1.83,5-.57.59-.97,1.07-1.65,1.56-1.05.75-2.57,1.4-3.85,1.56l-3.12-2.48c2.09.51,5.28-.58,6.93-1.93,2.23-1.82,2.17-3.65,2.71-5.32.49.29.62,1.33,1.1,1.28Z"/>
              <path class="cls-8" d="M70.63,27.66c-1-.73.68,1.9,1.28,2.61,1.45,1.72,3.05,2.57,5.32,2.71-.32.4-2.7,2.61-2.89,2.66-.36.09-1.47-.75-1.88-.73-2.94-2.13-2.36-4.42-2.39-7.66-.86-1.54-1.68-3.14-2.11-4.86-1.34-1.37-2.82-3.06-2.75-5.09.36-.07.1.54.18.96.27,1.35,1.65,3.01,2.66,3.94.2,1.15.76,2.15,1.19,3.21.56-.12.42.94,1.38,2.25Z"/>
              <path class="cls-2" d="M85.22,18.03v.28c-.9,1.37-.74,1.25-1.19,2.66-.53,1.67-.48,3.5-2.71,5.32-1.65,1.35-4.84,2.43-6.93,1.93-.71-.17-2.26-1.47-2.75-2.06-.82-.99-1.29-2.19-1.56-3.44.06,0,.17.02.18-.05.19-.8-.27-4.95.92-7.89.32-.79.95-1.43,1.19-2.25.36-.2,3.04-1.7,3.03-1.88-.05-.56-1.57.33-1.83.05,4.48-1.14,5.65-4.02,7.75-5.14.82-.44,1.29-.15,2.16,1.33,1.52,2.61,1.92,8.11,1.74,11.15Z"/>
              <g>
                <path class="cls-9" d="M85.13,22.25c-.48.05-.61-.99-1.1-1.28.45-1.41.29-1.29,1.19-2.66,0-.01.08-.03.18-.18.47-.72,1.45-1.74,1.74-2.57,2.15,1.59-.21,5.52-2.02,6.7Z"/>
                <path class="cls-1" d="M85.41,18.12c-.1.16-.18.17-.18.18v-.28l.18.09Z"/>
              </g>
              <path class="cls-5" d="M70.63,27.66c1.54,2.11,4.32,3.34,6.88,3.03,1.28-.16,2.8-.81,3.85-1.56.32.85-3.01,3.19-4.13,3.85-2.27-.13-3.87-.98-5.32-2.71-.6-.72-2.29-3.34-1.28-2.61Z"/>
              <path class="cls-9" d="M72.38,12.52c-.25.82-.88,1.46-1.19,2.25-1.18,2.94-.73,7.09-.92,7.89-.02.07-.12.05-.18.05-.22-1.01-.93-6.74-.83-7.48.31-2.12,2.23-2.22,3.12-2.71Z"/>
            </g>
          </g>
        </g>
      </g>
    </g>
    <g>
      <path class="cls-4" d="M44.03,61.15c.35.69-.48.11.09.64-4.31,2.34-11.35,2.96-16.24,3.12l.83-.64c3.91.02,11.93-1.2,15.32-3.12Z"/>
      <path class="cls-7" d="M44.03,61.15c-3.39,1.92-11.41,3.14-15.32,3.12-.21,0-1.31.04-1.38-.05,1.61-5.38,5.48-23.59,5.69-28.07.08-1.8-.27-3.33-.14-3.44,2.97,1.66,10.98,3.67,12.94,4.59,2.3,1.08,2.98,3.28,3.17,5.64.09,1.17.04,12.3-.09,12.94-.4,1.89-3.21,4.34-4.86,5.28Z"/>
      <g>
        <path class="cls-4" d="M44.12,61.79c-.57-.53.26.05-.09-.64,1.65-.93,4.47-3.38,4.86-5.28.13-.63.18-11.77.09-12.94-.19-2.37-.86-4.56-3.17-5.64-1.95-.91-9.96-2.93-12.94-4.59-.14.11.22,1.64.14,3.44-.21,4.49-4.08,22.69-5.69,28.07.06.09,1.17.04,1.38.05l-.83.64c-8.27.27-24.44-.09-27.8-9.4.5-4.4-1.47-15.21,2.25-18.12,2.05-1.61,11.95-3.58,15.18-6.19-.12-1.39.2-3.6-.09-4.86-.11-.49-1.57-3.05-1.74-4.13-4.8-4.5-2.28-7.1-2.29-7.61-1.45-3.86-.96-10.61,2.89-12.98,3.26-2,12.6-2.14,15.96-.37,4.09,2.16,4.71,9.58,3.99,13.62,1.98,2.44-.37,6.13-2.48,7.8-.5,1.43-.89,2.94-1.74,4.22.08,4.54-.74,4.24,3.17,5.92,2.79,1.2,10.01,3.15,11.83,4.31,1.75,1.11,2.55,3.11,2.8,5.09.13,1,.2,12.23.09,13.03-.35,2.66-3.54,5.35-5.78,6.56Z"/>
        <g>
          <g>
            <path class="cls-7" d="M16.74,32.8c.63,10.68,3.34,21.2,5.87,31.56-7.02-.39-18.98-1.26-21.7-8.94.54-4.16-1.49-14.92,2.06-17.57,1.56-1.16,11.13-3.53,13.76-5.05Z"/>
            <path class="cls-3" d="M26.69,35.73l1.28,1.7-1.1,2.84c.11,8.11,2.7,16-.37,23.94-.97.21-1.97.18-2.94,0-.36-.25-1.65-6.23-1.74-7.8-.23-3.91,1.47-13.91,1.01-16.24-.41-2.1-2.01-2.31.28-4.54l3.35-.09.23.18Z"/>
          </g>
          <g>
            <path class="cls-7" d="M33.75,4.91c.2.45.41.95.55,1.42.38,1.24.03,2.55.92,1.15.46,2.17.93,5.62.18,7.71-.3.83-1.27,1.85-1.74,2.57l-.18-.09c.17-3.04-.22-8.54-1.74-11.15-.86-1.48-1.34-1.77-2.16-1.33-2.1,1.12-3.27,4-7.75,5.14-2.88.73-5.55.62-5.69.87l-.05,6.56c-.33.27-1.86-2.55-1.97-2.84-1.44-3.67-1.07-10.76,2.8-12.94,2.73-1.54,12.15-1.9,14.68-.09.82.59,1.75,2.1,2.16,3.03Z"/>
            <path class="cls-10" d="M35.22,7.48c-.89,1.41-.54.09-.92-1.15-.14-.47-.35-.97-.55-1.42.15-.17-.48-1.25-.64-1.51-.71-1.12-2.16-2.37-.6-1.24,1.71,1.24,2.3,3.39,2.71,5.32Z"/>
            <g>
              <path class="cls-6" d="M20.63,12.16c-.89.49-2.81.59-3.12,2.71-.11.73.61,6.47.83,7.48.27,1.25.74,2.45,1.56,3.44.49.6,2.04,1.89,2.75,2.06l3.12,2.48c-2.56.32-5.34-.92-6.88-3.03-.96-1.31-.82-2.37-1.38-2.25-.43-1.06-.99-2.06-1.19-3.21-1.01-.93-2.39-2.6-2.66-3.94-.09-.42.17-1.03-.18-.96.03-.82.27-1.31.64-2.02.11.29,1.65,3.12,1.97,2.84l.05-6.56c.14-.25,2.81-.14,5.69-.87.26.29,1.78-.6,1.83-.05.02.18-2.67,1.68-3.03,1.88Z"/>
              <path class="cls-6" d="M26.69,35.73l-.23-.18-3.35.09c-.98-.2-1.59-.53-2.39-1.1.41-.01,1.52.83,1.88.73.19-.05,2.57-2.26,2.89-2.66,1.12-.66,4.45-3.01,4.13-3.85.68-.49,1.08-.97,1.65-1.56.26,4.34-.19,6.96-4.59,8.53Z"/>
              <path class="cls-9" d="M33.39,21.88l-.28.32c.06,1.66-1.71,4.03-1.83,5-.57.59-.97,1.07-1.65,1.56-1.05.75-2.57,1.4-3.85,1.56l-3.12-2.48c2.09.51,5.28-.58,6.93-1.93,2.23-1.82,2.17-3.65,2.71-5.32.49.29.62,1.33,1.1,1.28Z"/>
              <path class="cls-8" d="M18.89,27.29c-1-.73.68,1.9,1.28,2.61,1.45,1.72,3.05,2.57,5.32,2.71-.32.4-2.7,2.61-2.89,2.66-.36.09-1.47-.75-1.88-.73-2.94-2.13-2.36-4.42-2.39-7.66-.86-1.54-1.68-3.14-2.11-4.86-1.34-1.37-2.82-3.06-2.75-5.09.36-.07.1.54.18.96.27,1.35,1.65,3.01,2.66,3.94.2,1.15.76,2.15,1.19,3.21.56-.12.42.94,1.38,2.25Z"/>
              <path class="cls-2" d="M33.48,17.66v.28c-.9,1.37-.74,1.25-1.19,2.66-.53,1.67-.48,3.5-2.71,5.32-1.65,1.35-4.84,2.43-6.93,1.93-.71-.17-2.26-1.47-2.75-2.06-.82-.99-1.29-2.19-1.56-3.44.06,0,.17.02.18-.05.19-.8-.27-4.95.92-7.89.32-.79.95-1.43,1.19-2.25.36-.2,3.04-1.7,3.03-1.88-.05-.56-1.57.33-1.83.05,4.48-1.14,5.65-4.02,7.75-5.14.82-.44,1.29-.15,2.16,1.33,1.52,2.61,1.92,8.11,1.74,11.15Z"/>
              <g>
                <path class="cls-9" d="M33.39,21.88c-.48.05-.61-.99-1.1-1.28.45-1.41.29-1.29,1.19-2.66,0-.01.08-.03.18-.18.47-.72,1.45-1.74,1.74-2.57,2.15,1.59-.21,5.52-2.02,6.7Z"/>
                <path class="cls-1" d="M33.66,17.75c-.1.16-.18.17-.18.18v-.28l.18.09Z"/>
              </g>
              <path class="cls-5" d="M18.89,27.29c1.54,2.11,4.32,3.34,6.88,3.03,1.28-.16,2.8-.81,3.85-1.56.32.85-3.01,3.19-4.13,3.85-2.27-.13-3.87-.98-5.32-2.71-.6-.72-2.29-3.34-1.28-2.61Z"/>
              <path class="cls-9" d="M20.63,12.16c-.25.82-.88,1.46-1.19,2.25-1.18,2.94-.73,7.09-.92,7.89-.02.07-.12.05-.18.05-.22-1.01-.93-6.74-.83-7.48.31-2.12,2.23-2.22,3.12-2.71Z"/>
            </g>
          </g>
        </g>
      </g>
    </g>
    <g>
      <path class="cls-4" d="M70.08,67.2c.35.69-.48.11.09.64-4.31,2.34-11.35,2.96-16.24,3.12l.83-.64c3.91.02,11.93-1.2,15.32-3.12Z"/>
      <path class="cls-7" d="M70.08,67.2c-3.39,1.92-11.41,3.14-15.32,3.12-.21,0-1.31.04-1.38-.05,1.61-5.38,5.48-23.59,5.69-28.07.08-1.8-.27-3.33-.14-3.44,2.97,1.66,10.98,3.67,12.94,4.59,2.3,1.08,2.98,3.28,3.17,5.64.09,1.17.04,12.3-.09,12.94-.4,1.89-3.21,4.34-4.86,5.28Z"/>
      <g>
        <path class="cls-4" d="M70.18,67.84c-.57-.53.26.05-.09-.64,1.65-.93,4.47-3.38,4.86-5.28.13-.63.18-11.77.09-12.94-.19-2.37-.86-4.56-3.17-5.64-1.95-.91-9.96-2.93-12.94-4.59-.14.11.22,1.64.14,3.44-.21,4.49-4.08,22.69-5.69,28.07.06.09,1.17.04,1.38.05l-.83.64c-8.27.27-24.44-.09-27.8-9.4.5-4.4-1.47-15.21,2.25-18.12,2.05-1.61,11.95-3.58,15.18-6.19-.12-1.39.2-3.6-.09-4.86-.11-.49-1.57-3.05-1.74-4.13-4.8-4.5-2.28-7.1-2.29-7.61-1.45-3.86-.96-10.61,2.89-12.98,3.26-2,12.6-2.14,15.96-.37,4.09,2.16,4.71,9.58,3.99,13.62,1.98,2.44-.37,6.13-2.48,7.8-.5,1.43-.89,2.94-1.74,4.22.08,4.54-.74,4.24,3.17,5.92,2.79,1.2,10.01,3.15,11.83,4.31,1.75,1.11,2.55,3.11,2.8,5.09.13,1,.2,12.23.09,13.03-.35,2.66-3.54,5.35-5.78,6.56Z"/>
        <g>
          <g>
            <path class="cls-7" d="M42.79,38.85c.63,10.68,3.34,21.2,5.87,31.56-7.02-.39-18.98-1.26-21.7-8.94.54-4.16-1.49-14.92,2.06-17.57,1.56-1.16,11.13-3.53,13.76-5.05Z"/>
            <path class="cls-3" d="M52.74,41.79l1.28,1.7-1.1,2.84c.11,8.11,2.7,16-.37,23.94-.97.21-1.97.18-2.94,0-.36-.25-1.65-6.23-1.74-7.8-.23-3.91,1.47-13.91,1.01-16.24-.41-2.1-2.01-2.31.28-4.54l3.35-.09.23.18Z"/>
          </g>
          <g>
            <path class="cls-7" d="M59.81,10.96c.2.45.41.95.55,1.42.38,1.24.03,2.55.92,1.15.46,2.17.93,5.62.18,7.71-.3.83-1.27,1.85-1.74,2.57l-.18-.09c.17-3.04-.22-8.54-1.74-11.15-.86-1.48-1.34-1.77-2.16-1.33-2.1,1.12-3.27,4-7.75,5.14-2.88.73-5.55.62-5.69.87l-.05,6.56c-.33.27-1.86-2.55-1.97-2.84-1.44-3.67-1.07-10.76,2.8-12.94,2.73-1.54,12.15-1.9,14.68-.09.82.59,1.75,2.1,2.16,3.03Z"/>
            <path class="cls-10" d="M61.28,13.53c-.89,1.41-.54.09-.92-1.15-.14-.47-.35-.97-.55-1.42.15-.17-.48-1.25-.64-1.51-.71-1.12-2.16-2.37-.6-1.24,1.71,1.24,2.3,3.39,2.71,5.32Z"/>
            <g>
              <path class="cls-6" d="M46.69,18.21c-.89.49-2.81.59-3.12,2.71-.11.73.61,6.47.83,7.48.27,1.25.74,2.45,1.56,3.44.49.6,2.04,1.89,2.75,2.06l3.12,2.48c-2.56.32-5.34-.92-6.88-3.03-.96-1.31-.82-2.37-1.38-2.25-.43-1.06-.99-2.06-1.19-3.21-1.01-.93-2.39-2.6-2.66-3.94-.09-.42.17-1.03-.18-.96.03-.82.27-1.31.64-2.02.11.29,1.65,3.12,1.97,2.84l.05-6.56c.14-.25,2.81-.14,5.69-.87.26.29,1.78-.6,1.83-.05.02.18-2.67,1.68-3.03,1.88Z"/>
              <path class="cls-6" d="M52.74,41.79l-.23-.18-3.35.09c-.98-.2-1.59-.53-2.39-1.1.41-.01,1.52.83,1.88.73.19-.05,2.57-2.26,2.89-2.66,1.12-.66,4.45-3.01,4.13-3.85.68-.49,1.08-.97,1.65-1.56.26,4.34-.19,6.96-4.59,8.53Z"/>
              <path class="cls-9" d="M59.44,27.94l-.28.32c.06,1.66-1.71,4.03-1.83,5-.57.59-.97,1.07-1.65,1.56-1.05.75-2.57,1.4-3.85,1.56l-3.12-2.48c2.09.51,5.28-.58,6.93-1.93,2.23-1.82,2.17-3.65,2.71-5.32.49.29.62,1.33,1.1,1.28Z"/>
              <path class="cls-8" d="M44.95,33.35c-1-.73.68,1.9,1.28,2.61,1.45,1.72,3.05,2.57,5.32,2.71-.32.4-2.7,2.61-2.89,2.66-.36.09-1.47-.75-1.88-.73-2.94-2.13-2.36-4.42-2.39-7.66-.86-1.54-1.68-3.14-2.11-4.86-1.34-1.37-2.82-3.06-2.75-5.09.36-.07.1.54.18.96.27,1.35,1.65,3.01,2.66,3.94.2,1.15.76,2.15,1.19,3.21.56-.12.42.94,1.38,2.25Z"/>
              <path class="cls-2" d="M59.53,23.72v.28c-.9,1.37-.74,1.25-1.19,2.66-.53,1.67-.48,3.5-2.71,5.32-1.65,1.35-4.84,2.43-6.93,1.93-.71-.17-2.26-1.47-2.75-2.06-.82-.99-1.29-2.19-1.56-3.44.06,0,.17.02.18-.05.19-.8-.27-4.95.92-7.89.32-.79.95-1.43,1.19-2.25.36-.2,3.04-1.7,3.03-1.88-.05-.56-1.57.33-1.83.05,4.48-1.14,5.65-4.02,7.75-5.14.82-.44,1.29-.15,2.16,1.33,1.52,2.61,1.92,8.11,1.74,11.15Z"/>
              <g>
                <path class="cls-9" d="M59.44,27.94c-.48.05-.61-.99-1.1-1.28.45-1.41.29-1.29,1.19-2.66,0-.01.08-.03.18-.18.47-.72,1.45-1.74,1.74-2.57,2.15,1.59-.21,5.52-2.02,6.7Z"/>
                <path class="cls-1" d="M59.72,23.81c-.1.16-.18.17-.18.18v-.28l.18.09Z"/>
              </g>
              <path class="cls-5" d="M44.95,33.35c1.54,2.11,4.32,3.34,6.88,3.03,1.28-.16,2.8-.81,3.85-1.56.32.85-3.01,3.19-4.13,3.85-2.27-.13-3.87-.98-5.32-2.71-.6-.72-2.29-3.34-1.28-2.61Z"/>
              <path class="cls-9" d="M46.69,18.21c-.25.82-.88,1.46-1.19,2.25-1.18,2.94-.73,7.09-.92,7.89-.02.07-.12.05-.18.05-.22-1.01-.93-6.74-.83-7.48.31-2.12,2.23-2.22,3.12-2.71Z"/>
            </g>
          </g>
        </g>
      </g>
    </g>
  </g>
</svg>