<?xml version="1.0" encoding="UTF-8"?><svg id="Capa_2" xmlns="http://www.w3.org/2000/svg" viewBox="0 0 351.15 359.86"><defs><style>.cls-1{fill:#d5d7d7;}.cls-1,.cls-2,.cls-3,.cls-4,.cls-5,.cls-6,.cls-7,.cls-8,.cls-9,.cls-10,.cls-11,.cls-12,.cls-13,.cls-14,.cls-15{stroke-width:0px;}.cls-2{fill:#e8eced;}.cls-3{fill:#d3d5d5;}.cls-4{fill:#565969;}.cls-5{fill:#ebeff0;}.cls-6{fill:#545767;}.cls-7{fill:#c4c6c6;}.cls-8{fill:#424652;}.cls-9{fill:#7ccee7;}.cls-10{fill:#d4d6d6;}.cls-11{fill:#555968;}.cls-12{fill:#5b5f72;}.cls-13{fill:#404450;}.cls-14{fill:#63c676;}.cls-15{fill:#fefefe;}</style></defs><g id="Capa_1-2"><path class="cls-5" d="M222.47,154.74c6.29,2.42,11.73,6.4,17.53,9.7,16.6,9.45,33.08,19.1,49.6,28.7,15.66,9.1,31.29,18.24,46.94,27.36,3.96,2.31,8.01,4.5,11.86,6.98,2.31,1.49,3.56,3.71,2.19,6.6-1.11.79-2.16,1.67-3.33,2.35-18.63,10.73-37.3,21.4-55.93,32.15-27.13,15.65-54.24,31.34-81.34,47.03-18.5,10.71-37.02,21.39-55.45,32.22-7.79,4.58-15.13,5.43-23.33.46-17.64-10.69-35.62-20.82-53.46-31.18-14.73-8.55-29.52-16.98-44.16-25.67-7.89-4.68-16.16-8.74-23.63-14.13,11.5-6.68,23-13.37,34.52-20.02.93-.54,1.82-1.41,3.08-.95,1.82,1.59,3.38,2.78,6.15,1.17,52.12-30.26,104.29-60.42,156.49-90.53,2.47-1.42,3.14-2.65.81-4.66-.28-.91.29-1.35.96-1.72,3.5-1.96,7-3.9,10.51-5.85ZM117,316.35c2.63.44,4.94-.31,7.17-1.58,4.43-2.52,8.93-4.93,13.34-7.48,26.9-15.55,53.79-31.13,80.68-46.69,22.49-13.01,44.99-25.99,67.48-38.99,5.42-3.13,5.44-5.81.06-9.04-.43-.26-.89-.45-1.32-.7-8.82-5.11-17.63-10.22-26.46-15.32-13.56-7.84-27.11-15.68-40.69-23.49-4.54-2.61-8.88-2.06-13.35.6-10.26,6.1-20.66,11.94-31,17.9-15.51,8.94-31.01,17.88-46.51,26.83-14.96,8.65-29.89,17.33-44.85,25.97-13.13,7.59-26.3,15.1-39.4,22.73-4.6,2.69-4.49,5.32.13,8.14.32.19.67.34.99.53,20.49,11.98,40.94,24.04,61.53,35.85,3.76,2.16,7.19,5.7,12.2,4.72ZM218.41,269.95c-1.98.11-3.07-.03-4.13.59-10.82,6.34-21.7,12.58-32.49,18.98-3.76,2.23-3.77,4.34-.1,6.56,6.7,4.04,13.49,7.93,20.29,11.8,2.19,1.24,4.38,1.16,6.68-.19,10.91-6.43,21.92-12.7,32.84-19.12,3.05-1.8,2.8-4.47-.34-6.27-4.31-2.48-8.47-5.23-12.91-7.44-3.5-1.74-6.42-4.86-9.85-4.91Z"/><path class="cls-12" d="M47.56,256.34c-1.26-.46-2.15.41-3.08.95-11.52,6.66-23.02,13.34-34.52,20.02-.22-.02-.42.03-.61.16-.26-.23-.52-.47-.78-.7,1.34-1.37.72-3.08.72-4.63.04-46.02.04-92.03.05-138.05,0-6.19,2.46-11.17,7.66-14.49,4.71-3.01,9.66-5.65,14.51-8.44,25.11-14.44,50.25-28.85,75.34-43.33,31.66-18.27,63.3-36.58,94.89-54.96,5.22-3.04,10.74-5.58,15.6-9.23,4.25,1.31,5.01,4.59,5.01,8.49.02,26.01.13,52.02.16,78.03.03,21.53-.02,43.05-.04,64.58-3.5,1.95-7.01,3.9-10.51,5.85-.66.37-1.24.82-.96,1.72-1.96-.33-3.65.34-5.31,1.3-11.58,6.71-23.17,13.39-34.76,20.08-11.12,6.43-22.27,12.81-33.36,19.3-13.37,7.83-26.65,15.8-40.03,23.61-13.29,7.75-26.72,15.28-39.95,23.12-3.43,2.04-7.53,3.16-10.05,6.62ZM19.27,258.75c.15,2.82,1.7.94,2.38.56,4.36-2.41,8.63-4.97,12.95-7.46,58.46-33.75,116.92-67.5,175.42-101.19,2.11-1.22,2.91-2.57,2.9-5.01-.13-41.27-.16-82.53-.24-123.8,0-1.06.56-2.48-.64-3.08-1.15-.58-2.04.53-2.9,1.21-7.46,4.25-14.95,8.45-22.39,12.74-54.25,31.31-108.47,62.66-162.76,93.91-3.72,2.14-5.1,4.92-5.08,9.1.14,38.27.16,76.53.22,114.8,0,2.74.09,5.48.14,8.22Z"/><path class="cls-13" d="M217.33,3.64c-4.86,3.64-10.38,6.19-15.6,9.23-31.59,18.38-63.23,36.69-94.89,54.96-25.09,14.48-50.23,28.89-75.34,43.33-4.85,2.79-9.8,5.43-14.51,8.44-5.2,3.32-7.66,8.31-7.66,14.49,0,46.02,0,92.03-.05,138.05,0,1.54.62,3.26-.72,4.63-.12-.03-.25-.05-.36-.09-6.16-2.12-8.05-6.07-8-12.85C.48,219.58.26,175.32,0,131.08c-.05-8.49,3.22-14.3,10.62-18.55C73.94,76.11,137.23,39.65,200.32,2.84c6.55-3.82,11.55-4.02,17.01.8Z"/><path class="cls-10" d="M9.35,277.47c.18-.12.39-.18.61-.16,7.47,5.39,15.74,9.44,23.63,14.13,14.64,8.69,29.43,17.13,44.16,25.67,17.84,10.36,35.82,20.5,53.46,31.18,8.2,4.97,15.54,4.12,23.33-.46,18.43-10.83,36.95-21.51,55.45-32.22,27.1-15.69,54.21-31.38,81.34-47.03,18.63-10.75,37.29-21.42,55.93-32.15,1.17-.68,2.22-1.56,3.33-2.35,1.25,6.3-2.01,9.68-7.21,12.63-27.06,15.33-53.99,30.88-80.93,46.43-29.73,17.16-59.41,34.42-89.13,51.6-7.65,4.42-15.31,8.81-23.06,13.05-5.71,3.12-11.28,2.57-17-.61-13.5-7.49-27.15-14.69-40.75-21.99-26.98-14.49-53.94-29-80.95-43.43-1.69-.91-2.28-1.98-2.22-3.82.11-3.49.02-6.98.02-10.47ZM41.16,304.7c1.66-4.9-1.69-6.33-4.97-7.77-.83-.37-1.57-1.82-2.5-.86-.54.55-.32,1.87-.4,2.84-.11,1.49.81,2.22,2.01,2.81,1.89.92,3.75,1.91,5.85,2.99ZM45.58,302.75c-1.14,3.18,0,5.32,2.95,6.5,1.06.42,1.09-.57,1.2-1.3.5-3.25-1.11-4.79-4.15-5.21ZM21.86,293.79c.2-2.44.78-4.45-1.11-5.92-.75-.58-1.6-1.42-2.61-.96-.94.43-.46,1.52-.57,2.33-.37,2.95,2.38,2.94,4.29,4.55ZM26.09,291.47c-.97,3.58-.01,5.88,3.91,6.43.93-3.33.16-5.65-3.91-6.43Z"/><path class="cls-1" d="M117,316.35c-5.01.98-8.44-2.56-12.2-4.72-20.59-11.81-41.03-23.88-61.53-35.85-.32-.19-.67-.33-.99-.53-4.62-2.82-4.73-5.46-.13-8.14,13.1-7.64,26.27-15.15,39.4-22.73,14.96-8.64,29.89-17.33,44.85-25.97,15.5-8.96,31-17.9,46.51-26.83,10.34-5.96,20.74-11.8,31-17.9,4.47-2.66,8.8-3.21,13.35-.6,13.58,7.81,27.13,15.65,40.69,23.49,8.82,5.1,17.64,10.22,26.46,15.32.43.25.9.44,1.32.7,5.37,3.22,5.36,5.9-.06,9.04-22.49,13-44.99,25.98-67.48,38.99-26.9,15.56-53.78,31.14-80.68,46.69-4.41,2.55-8.91,4.96-13.34,7.48-2.23,1.27-4.54,2.02-7.17,1.58ZM117.32,314.72c1.37-.44,3.04-.67,4.4-1.45,21.24-12.17,42.45-24.39,63.64-36.65,25.17-14.55,50.32-29.14,75.48-43.72,7.52-4.36,15.09-8.66,22.52-13.17,3.48-2.11,3.4-3.41.22-5.25-22.48-13.01-45-25.94-67.4-39.09-3.74-2.19-6.71-2-10.33.15-12.17,7.24-24.5,14.22-36.77,21.31-15.5,8.95-30.99,17.89-46.49,26.84-16.9,9.75-33.79,19.5-50.7,29.24-8.83,5.09-17.71,10.09-26.51,15.24-3.39,1.99-3.31,3.9.1,6,2.12,1.3,4.34,2.44,6.48,3.68,17.94,10.43,35.84,20.92,53.84,31.25,3.63,2.08,7.02,4.79,11.51,5.62Z"/><path class="cls-3" d="M218.41,269.95c3.42.05,6.35,3.16,9.85,4.91,4.44,2.21,8.6,4.96,12.91,7.44,3.14,1.81,3.4,4.47.34,6.27-10.92,6.43-21.93,12.69-32.84,19.12-2.31,1.36-4.49,1.44-6.68.19-6.8-3.87-13.59-7.76-20.29-11.8-3.68-2.22-3.66-4.33.1-6.56,10.79-6.4,21.67-12.65,32.49-18.98,1.06-.62,2.15-.48,4.13-.59Z"/><path class="cls-8" d="M47.56,256.34c2.52-3.46,6.62-4.59,10.05-6.62,13.23-7.85,26.66-15.37,39.95-23.12,13.38-7.81,26.66-15.78,40.03-23.61,11.09-6.49,22.23-12.87,33.36-19.3,11.59-6.69,23.18-13.37,34.76-20.08,1.66-.96,3.35-1.63,5.31-1.3,2.33,2.01,1.66,3.24-.81,4.66-52.2,30.12-104.37,60.28-156.49,90.53-2.77,1.61-4.33.41-6.15-1.17Z"/><path class="cls-15" d="M209.15,19.98c.86-.68,1.76-1.79,2.9-1.21,1.2.6.64,2.03.64,3.08.08,41.27.11,82.53.24,123.8,0,2.44-.79,3.79-2.9,5.01-58.5,33.69-116.95,67.45-175.42,101.19-4.31,2.49-8.59,5.05-12.95,7.46-.69.38-2.24,2.27-2.38-.56,1.29-.03,2.01-.97,2.69-1.82,6.02-7.56,11.98-15.16,17.99-22.73,10.24-12.9,20.52-25.77,30.74-38.69,8.76-11.07,17.46-22.19,26.18-33.29,1.77,1.17,4.44,1.45,4.51,4.32.04,1.6.33,3.07,1.94,3.7,1.75.69,3.16-.3,4.38-1.39,1.92-1.71,3.3-3.85,3.34-6.46.04-2.11.79-3.79,1.81-5.55,4.44-7.64,8.76-15.35,13.15-23.03,6.85-12,13.7-24,20.59-35.98,1.81-3.15,3.82-3.72,6.28-1.73,7.62,6.21,15.19,12.49,22.76,18.76,1.04.86,2.15,1.7,2.06,3.34-.08,1.52-.04,3.13,1.88,3.58,1.71.41,3.15-.18,4.4-1.43,1.82-1.82,3.35-3.92,3.32-6.48-.03-2.69,1.11-4.79,2.36-6.94,3.56-6.14,7.12-12.27,10.73-18.38,1.25-2.12,2.46-4.12,4.91-5.38,2.65-1.36,3.83-4.18,4.38-7.08.3-1.57-.19-3.02-1.55-3.94-1.36-.93-2.67-.19-3.81.57-2.29,1.53-4.03,3.77-4.06,6.41-.03,3.13-1.45,5.44-2.9,7.9-4.04,6.87-8,13.78-12.15,20.57-1.23,2.02-3.27,4.66-5.76,2.71-8.51-6.66-16.68-13.74-24.98-20.67,5.3-5.25,9.51-11.39,14.16-17.17,11.12-13.81,22.15-27.7,33.02-41.71,2.67-3.45,6.52-6.16,7.5-10.81Z"/><path class="cls-15" d="M209.15,19.98c-.97,4.65-4.82,7.36-7.5,10.81-10.87,14.01-21.9,27.9-33.02,41.71-4.65,5.78-8.87,11.93-14.16,17.17-.02-.74-.05-1.48-.05-2.22.01-1.71-.3-3.28-2.09-3.98-1.66-.65-2.85.42-3.96,1.4-2.21,1.95-3.89,4.2-3.66,7.37.09,1.17-.3,2.2-.86,3.18-6.34,11.07-12.68,22.14-19.02,33.21-.32.25-.65.5-.97.75h.02c-.5.34-1.11.6-1.48,1.05-3.91,4.89-7.96,9.69-11.63,14.76-3.08,4.25-7.08,7.81-9.43,12.59-9.57-6.04-19.14-12.07-28.7-18.11-.85-.54-1.48-1.21-1.85-2.23-1.2-3.27-3.37-3.83-6.05-1.52-2.05,1.77-3.19,4.19-3.61,6.79-.27,1.67-.88,3.04-1.73,4.44-8.99,14.76-17.95,29.55-26.91,44.33-1.16,1.92-2.48,3.49-4.57,4.69-3.09,1.77-4.64,4.82-4.39,8.49.2,2.89,2.18,3.92,4.66,2.41,3.09-1.88,4.59-4.81,5-8.33.13-1.11.14-2.16.78-3.2,9.54-15.6,19.01-31.24,28.56-46.83,1.57-2.56,6.57-4.42,8.36-3.27,8.67,5.58,17.33,11.19,25.99,16.78-8.72,11.1-17.42,22.22-26.18,33.29-10.22,12.92-20.5,25.79-30.74,38.69-6.01,7.57-11.97,15.17-17.99,22.73-.68.85-1.41,1.79-2.69,1.82-.05-2.74-.13-5.48-.14-8.22-.06-38.27-.08-76.53-.22-114.8-.02-4.18,1.36-6.96,5.08-9.1,54.28-31.25,108.51-62.6,162.76-93.91,7.44-4.29,14.93-8.5,22.39-12.74Z"/><path class="cls-7" d="M41.16,304.7c-2.1-1.08-3.96-2.07-5.85-2.99-1.2-.59-2.13-1.32-2.01-2.81.08-.98-.14-2.29.4-2.84.93-.96,1.67.5,2.5.86,3.27,1.44,6.63,2.88,4.97,7.77Z"/><path class="cls-7" d="M45.58,302.75c3.05.42,4.65,1.96,4.15,5.21-.11.73-.14,1.72-1.2,1.3-2.96-1.18-4.09-3.32-2.95-6.5Z"/><path class="cls-7" d="M21.86,293.79c-1.9-1.61-4.66-1.59-4.29-4.55.1-.81-.38-1.9.57-2.33,1.01-.46,1.85.37,2.61.96,1.89,1.47,1.31,3.48,1.11,5.92Z"/><path class="cls-7" d="M26.09,291.47c4.07.78,4.83,3.1,3.91,6.43-3.92-.55-4.88-2.85-3.91-6.43Z"/><path class="cls-2" d="M117.32,314.72c-4.49-.83-7.88-3.54-11.51-5.62-18-10.33-35.9-20.82-53.84-31.25-2.15-1.25-4.37-2.38-6.48-3.68-3.41-2.09-3.49-4.01-.1-6,8.8-5.15,17.68-10.15,26.51-15.24,16.91-9.74,33.8-19.49,50.7-29.24,15.5-8.94,31-17.89,46.49-26.84,12.27-7.08,24.6-14.06,36.77-21.31,3.62-2.15,6.59-2.34,10.33-.15,22.4,13.14,44.92,26.08,67.4,39.09,3.18,1.84,3.26,3.14-.22,5.25-7.44,4.51-15,8.81-22.52,13.17-25.16,14.58-50.31,29.17-75.48,43.72-21.19,12.25-42.4,24.47-63.64,36.65-1.36.78-3.04,1.01-4.4,1.45ZM66.61,275.59l.12-.05c2.51,3.12,4.89,1.76,7.24-.22h.28s.2-.19.2-.19c1.23-.72,2.47-1.44,3.7-2.16,2.21-.83,2.26-2.06.6-3.52-5.55-4.87-8.6-5.15-14.98-1.43-.32.19-.66.35-.95.57-1,.79-2.81.93-2.57,2.76.21,1.65,1.77,1.83,2.98,2.36,1.13.63,2.26,1.26,3.38,1.88ZM238.31,217.51c1.44-.89,3.39-1.06,4.13-2.94l-.07-.19s-.19.06-.19.06c.32-.09.64-.19.96-.28l.29.12c1.75-.47,3.4-1.11,4.52-2.65-.18-.06-.36-.12-.53-.18.32-.09.64-.19.96-.28l.29.1c1.62-.42,3.2-.9,3.99-2.59.71-1.07-.08-1.66-.8-2.1-2.44-1.48-4.95-2.86-7.41-4.32-1.31-.78-2.36-.17-3.46.46-6.67,3.86-13.35,7.71-20.03,11.57-.74.43-1.62.75-1.63,1.83.09.45.02,1.16.28,1.31,3.04,1.83,5.96,4.2,9.27,5.12,2.08.57,4.29-1.91,6.27-3.33.97-.69,2.1-1.16,3.16-1.73ZM205.32,234.3q-8.45-6.28-16.63-1.38c-1.01.6-2.53.9-2.54,2.39-.02,1.71,1.57,1.97,2.77,2.51,1.37.86,2.72,1.73,4.11,2.56,1.37.81,2.66,1.97,4.44.91,2.36-1.4,4.75-2.72,7.1-4.13,1.13-.68,2.13-1.48.75-2.87ZM108.08,297.66c-.96.88-.9,1.75.18,2.4,2.64,1.59,5.34,3.09,7.99,4.69,1.05.63,1.89.19,2.75-.32,3.7-2.21,7.39-4.44,11.09-6.66.28,0,.49-.1.63-.34,3-1.65,6.01-3.29,8.99-4.97.84-.47,1.82-.95,1.32-2.24-2.25-3.19-5.93-4.19-9.1-5.96-.67-.38-1.44.1-2.09.49-7.22,4.35-14.8,8.1-21.75,12.91ZM149.43,286.73c1.04-.56,2.02-1.05,2.98-1.6,26.5-15.29,52.99-30.61,79.5-45.87,8.67-4.99,8.59-4.51.11-9.58-2.64-1.58-4.52-1.44-7.08.06-15.23,8.95-30.56,17.73-45.86,26.56-12.39,7.15-24.78,14.3-37.17,21.47-1.23.71-3.49,1.68-2.05,3.15,2.58,2.64,6.15,4.06,9.57,5.82ZM101.99,296.3c1.02-.55,1.9-1,2.76-1.49,5.29-3.03,10.65-5.96,15.84-9.17,2.46-1.52,6.8-2.15,6.81-5,.02-3.44-4.73-3.64-7.16-5.6-1.08-.87-2.26-1.34-3.75-.47-7.62,4.48-15.29,8.88-22.96,13.28-1.15.66-1.94,1.89-1.01,2.7,2.8,2.45,6.18,4.05,9.48,5.74ZM268.25,216.94c.03-.67-.64-1.2-1.42-1.66-2.26-1.3-4.52-2.6-6.76-3.93-1.07-.64-2.07-.64-3.15,0-6.98,4.05-13.98,8.06-20.94,12.14-2.21,1.3-1.89,2.62.21,3.81,2.16,1.22,4.32,2.45,6.42,3.77,1.19.75,2.24.74,3.45.03,6.86-4,13.75-7.96,20.63-11.93.74-.43,1.6-.78,1.56-2.21ZM236.82,198.84c-.02-.85-.54-1.33-1.23-1.72-2.36-1.36-4.73-2.72-7.07-4.12-1.11-.66-2.08-.42-3.12.18-4.49,2.63-9.01,5.22-13.51,7.84-2.12,1.24-2.17,2.6-.06,3.88,2.22,1.35,4.54,2.56,6.73,3.95,1.29.82,2.32.43,3.44-.22,4.4-2.55,8.8-5.08,13.2-7.63.84-.49,1.86-.87,1.62-2.17ZM102.83,276.24c-.03-.87-.66-1.3-1.31-1.68-2.36-1.38-4.75-2.72-7.09-4.13-1.14-.68-2.1-.38-3.13.23-4.51,2.63-9.05,5.21-13.57,7.84-2.49,1.45-1.94,2.68.21,4.04,7.63,4.85,7.61,4.88,15.46.36,2.59-1.49,5.17-2.99,7.75-4.48.85-.49,1.85-.88,1.68-2.17ZM134.05,258.28c-.17-.97-.91-1.42-1.67-1.87-1.94-1.12-3.93-2.17-5.78-3.41-1.67-1.12-3.13-1.08-4.8.01-1.97,1.29-4.1,2.35-6.12,3.57-1.89,1.14-2.09,2.4-.06,3.62,1.92,1.15,3.86,2.26,5.81,3.37,2.33,1.33,11.68-2.08,12.53-4.56.08-.23.06-.48.09-.73ZM149,255.91c-3.26,1.91-6.75,3.33-9.52,5.82-.82.74-.29,1.84.76,2.44,2.48,1.42,4.95,2.85,7.4,4.3.96.57,1.86.53,2.8-.02,2.35-1.38,4.7-2.77,7.08-4.11,1.13-.63,2.04-1.73,1.03-2.64-2.77-2.49-6.22-3.98-9.55-5.79ZM214.08,212.35c.07-1.05-.66-1.55-1.41-2-1.71-1.02-3.56-1.84-5.12-3.04-2.34-1.8-4.26-1.43-6.71.03-8.82,5.25-8.93,4.52.02,9.65,1.45.83,2.83,2.24,4.77,1.11,2.36-1.37,4.73-2.75,7.1-4.11.67-.38,1.26-.8,1.37-1.64ZM221.61,226.33c-.05-1.02-.78-1.49-1.55-1.93-2.05-1.18-4.14-2.29-6.12-3.58-1.56-1.01-2.89-1.01-4.44.02-1.96,1.31-4.08,2.39-6.11,3.59-2.07,1.23-2.33,2.49-.03,3.79,2.16,1.23,4.28,2.55,6.46,3.73,1.88,1.02,11.33-3.25,11.76-5.25.03-.12.02-.25.03-.37ZM172.52,224.02c-3.62,1.71-6.92,3.43-9.83,5.73-1.17.93-.21,2.02.86,2.65,2.36,1.39,4.75,2.72,7.09,4.13.94.57,1.79.7,2.78.12,2.47-1.45,4.98-2.82,7.46-4.25,1.1-.64,1.92-1.86.76-2.69-2.91-2.08-6.06-3.82-9.12-5.7ZM197.95,221.61c-.07-.77-.26-1.42-1.02-1.85-2.59-1.46-5.15-2.97-7.72-4.46-.87-.51-1.67-.24-2.45.21-2.36,1.36-4.75,2.69-7.06,4.13-1.85,1.15-1.97,2.44.04,3.62,2.24,1.32,4.5,2.61,6.73,3.94,1.04.62,2.02.79,3.12.14,2.35-1.39,4.72-2.72,7.08-4.08.65-.38,1.31-.75,1.27-1.66ZM180.36,237.8c-1.19.66-2.28,1.26-3.35,1.87-8.85,5.01-8.91,4.53.05,9.62,1.48.84,2.86,2.15,4.78,1.03,2.36-1.38,4.73-2.74,7.11-4.1,1.11-.63,2-1.76.96-2.67-2.82-2.44-6.23-3.99-9.54-5.75ZM148.35,232.62c2.82-1.61,5.5-3.15,8.19-4.68,2.27-1.29,2.47-2.65.12-4.06-2.13-1.27-4.28-2.52-6.42-3.77-1-.59-1.99-.9-3.13-.21-2.34,1.41-4.7,2.78-7.08,4.11-1.31.73-2.08,2.14-.95,2.96,2.88,2.1,6.09,3.75,9.28,5.65ZM205.29,198.47c.16-.66-.51-1.1-1.15-1.47-2.46-1.45-4.96-2.82-7.41-4.28-1-.6-1.84-.42-2.77.13-2.24,1.33-4.53,2.58-6.76,3.92-1.97,1.18-2.45,2.47-.11,3.82,2.26,1.3,4.48,2.67,6.78,3.88,1.75.92,11.01-3.49,11.42-5.34.03-.12,0-.25,0-.65ZM220.99,189.54c-.04-.87-.66-1.31-1.3-1.68-2.36-1.37-4.79-2.64-7.1-4.1-1.32-.83-2.34-.37-3.44.29-1.92,1.14-3.88,2.23-5.78,3.4-2.87,1.77-2.89,2.68-.12,4.37,1.8,1.1,3.63,2.16,5.47,3.19,2.11,1.18,11.43-2.47,12.21-4.75.08-.23.05-.49.07-.73ZM164.55,246.78c-3.14,1.93-6.41,3.71-9.38,5.89-1.09.8-.14,1.97.98,2.61,2.27,1.28,4.52,2.6,6.75,3.95,1.19.72,2.32.72,3.5.02,2.25-1.32,4.5-2.63,6.77-3.92,1.08-.62,2.11-1.71,1.08-2.63-2.78-2.48-6.21-4.01-9.71-5.91ZM149.98,249.25c-.06-.79-.47-1.3-1.1-1.82-5.94-4.89-8.48-5.15-15.02-1.36-.54.31-1.07.63-1.61.93-2.39,1.36-2.73,2.76-.1,4.25,2.05,1.16,4.1,2.32,6.1,3.55,1.14.7,2.17,1,3.43.23,2.32-1.42,4.71-2.74,7.06-4.11.65-.38,1.31-.75,1.23-1.67ZM165.99,239.98c0-.84-.51-1.31-1.12-1.81-5.97-4.9-8.42-5.13-15.02-1.32-.75.43-1.53.84-2.25,1.31-1.96,1.27-1.78,2.48.15,3.6,2.25,1.31,4.46,2.7,6.77,3.92,1.75.92,11.05-3.49,11.46-5.34.03-.12,0-.25.01-.37ZM143.16,271.54c-.09-.82-.58-1.33-1.26-1.72-2.36-1.36-4.71-2.75-7.08-4.1-1.07-.61-2.11-.51-3.16.12-2.24,1.33-4.5,2.62-6.74,3.94-2.33,1.38-1.8,2.64.19,3.8,1.82,1.06,3.64,2.13,5.47,3.17,2.34,1.33,11.61-1.99,12.5-4.47.08-.22.06-.48.08-.72ZM173.9,216.52c.02-.5-.5-.94-1.12-1.44-6.28-5.05-8.26-5.22-15.31-1.16-.54.31-1.09.59-1.62.92-1.98,1.24-2.3,2.55-.09,3.87,2.23,1.33,4.46,2.69,6.76,3.89,1.77.92,11.01-3.52,11.37-5.37.02-.12,0-.24,0-.71ZM126.85,244.02c-.04-.71-.42-1.24-1.05-1.76-5.74-4.83-8.62-5.11-15.08-1.35-.64.37-1.28.75-1.92,1.13-2.05,1.24-2.28,2.53-.06,3.84,2.24,1.32,4.51,2.59,6.73,3.95,1.07.65,2.01.69,3.1.04,2.34-1.4,4.73-2.7,7.09-4.06.65-.38,1.28-.8,1.19-1.78ZM142.51,235.03c-.02-1.22-.78-1.65-1.54-2.1-1.93-1.11-3.92-2.15-5.77-3.38-1.65-1.1-3.06-1.2-4.75-.04-1.83,1.26-3.85,2.25-5.78,3.37-2.22,1.29-2.52,2.64-.08,4.04,2.04,1.18,4.05,2.4,6.11,3.55,1.9,1.06,11.14-2.8,11.78-4.89.07-.23.04-.49.04-.55ZM189.6,207.85c.05-.87-.52-1.28-1.12-1.77-6.27-5.09-8.33-5.26-15.31-1.21-.54.31-1.09.59-1.62.92-1.99,1.23-2.32,2.54-.11,3.87,2.23,1.34,4.45,2.71,6.74,3.93,1.76.93,11.01-3.51,11.41-5.36.03-.12,0-.24,0-.36ZM95.47,262.1c-.01-.84-.48-1.39-1.15-1.78-2.46-1.43-4.92-2.87-7.39-4.28-.81-.46-1.66-.4-2.48.07-2.47,1.42-4.99,2.75-7.39,4.28-1.65,1.05-1.72,2.36.07,3.44,2.33,1.4,4.67,2.8,7.07,4.09,1.73.93,10.94-3.61,11.25-5.46.02-.12.01-.25.02-.37ZM117.81,268.17c.13-1.61-.63-2.07-1.39-2.5-2.25-1.3-4.51-2.58-6.76-3.89-.91-.53-1.75-.74-2.76-.13-2.44,1.47-4.96,2.8-7.38,4.29-1.71,1.06-1.75,2.33,0,3.42,2,1.24,4.04,2.42,6.08,3.57,2.27,1.28,11.31-2.14,12.18-4.59.08-.22.06-.48.03-.17ZM111.16,253.25c.05-1.19-.76-1.73-1.65-2.24-1.83-1.04-3.71-2.01-5.43-3.21-1.91-1.33-3.63-1.28-5.42.09-2.3,1.76-6.67,2.22-6.73,5.07-.07,3.24,4.52,3.43,6.86,5.26,1.12.88,2.35,1.81,4.03.76,2.3-1.45,4.73-2.69,7.09-4.06.63-.37,1.32-.76,1.27-1.66Z"/><path class="cls-14" d="M124.82,128.63c6.34-11.07,12.68-22.14,19.02-33.21.56-.98.95-2.01.86-3.18-.23-3.17,1.45-5.42,3.66-7.37,1.11-.98,2.3-2.05,3.96-1.4,1.79.7,2.1,2.27,2.09,3.98,0,.74.03,1.48.05,2.22,8.3,6.92,16.47,14.01,24.98,20.67,2.49,1.95,4.53-.69,5.76-2.71,4.16-6.79,8.11-13.71,12.15-20.57,1.44-2.45,2.86-4.77,2.9-7.9.03-2.64,1.77-4.89,4.06-6.41,1.14-.76,2.45-1.5,3.81-.57,1.35.92,1.85,2.37,1.55,3.94-.56,2.9-1.73,5.73-4.38,7.08-2.45,1.25-3.66,3.26-4.91,5.38-3.61,6.11-7.17,12.25-10.73,18.38-1.25,2.15-2.38,4.25-2.36,6.94.02,2.56-1.5,4.66-3.32,6.48-1.25,1.25-2.69,1.83-4.4,1.43-1.92-.46-1.96-2.06-1.88-3.58.09-1.64-1.01-2.48-2.06-3.34-7.57-6.27-15.14-12.55-22.76-18.76-2.46-2-4.47-1.42-6.28,1.73-6.89,11.98-13.73,23.98-20.59,35.98-4.38,7.68-8.7,15.39-13.15,23.03-1.02,1.76-1.78,3.44-1.81,5.55-.04,2.6-1.42,4.74-3.34,6.46-1.22,1.09-2.63,2.08-4.38,1.39-1.62-.64-1.9-2.1-1.94-3.7-.07-2.88-2.74-3.16-4.51-4.32-8.66-5.6-17.32-11.2-25.99-16.78-1.79-1.15-6.79.71-8.36,3.27-9.55,15.59-19.02,31.23-28.56,46.83-.63,1.03-.65,2.09-.78,3.2-.41,3.51-1.91,6.45-5,8.33-2.48,1.5-4.47.47-4.66-2.41-.25-3.68,1.3-6.72,4.39-8.49,2.09-1.2,3.41-2.77,4.57-4.69,8.96-14.78,17.92-29.57,26.91-44.33.85-1.4,1.47-2.77,1.73-4.44.42-2.61,1.56-5.02,3.61-6.79,2.67-2.31,4.85-1.75,6.05,1.52.38,1.02,1,1.69,1.85,2.23,9.57,6.04,19.13,12.08,28.7,18.11,3.19,2.36,5.9,1.86,8-1.7,3.21-5.46,6.35-10.97,9.38-16.53,1.82-3.34,4.51-6.24,5.14-10.18,0,0-.02,0-.02,0,.32-.25.65-.5.97-.75Z"/><path class="cls-15" d="M123.87,129.37c-.63,3.94-3.33,6.84-5.14,10.18-3.03,5.56-6.16,11.07-9.38,16.53-2.1,3.57-4.82,4.06-8,1.7,2.35-4.79,6.35-8.34,9.43-12.59,3.67-5.07,7.71-9.87,11.63-14.76.36-.46.98-.71,1.48-1.06Z"/><path class="cls-9" d="M124.82,128.63c-.32.25-.65.5-.97.75.32-.25.65-.5.97-.75Z"/><path class="cls-6" d="M149.43,286.73c-3.42-1.75-6.99-3.18-9.57-5.82-1.43-1.47.83-2.44,2.05-3.15,12.38-7.17,24.78-14.31,37.17-21.47,15.3-8.83,30.63-17.61,45.86-26.56,2.56-1.5,4.43-1.64,7.08-.06,8.48,5.07,8.56,4.59-.11,9.58-26.52,15.27-53,30.58-79.5,45.87-.95.55-1.94,1.04-2.98,1.6Z"/><path class="cls-6" d="M101.99,296.3c-3.3-1.69-6.68-3.29-9.48-5.74-.92-.81-.14-2.04,1.01-2.7,7.67-4.41,15.34-8.81,22.96-13.28,1.49-.87,2.67-.4,3.75.47,2.43,1.95,7.18,2.16,7.16,5.6-.01,2.86-4.35,3.49-6.81,5-5.19,3.2-10.55,6.13-15.84,9.17-.86.49-1.74.94-2.76,1.49Z"/><path class="cls-6" d="M268.25,216.94c.04,1.43-.82,1.78-1.56,2.21-6.88,3.98-13.77,7.93-20.63,11.93-1.21.71-2.25.71-3.45-.03-2.1-1.31-4.26-2.55-6.42-3.77-2.1-1.19-2.42-2.51-.21-3.81,6.96-4.08,13.97-8.09,20.94-12.14,1.08-.63,2.08-.63,3.15,0,2.24,1.33,4.5,2.63,6.76,3.93.78.45,1.45.99,1.42,1.66Z"/><path class="cls-11" d="M219.32,216.14c.01-1.08.89-1.4,1.63-1.83,6.68-3.86,13.36-7.71,20.03-11.57,1.1-.64,2.15-1.24,3.46-.46,2.46,1.46,4.97,2.84,7.41,4.32.72.44,1.51,1.03.8,2.1-1.61.44-3.64.23-3.99,2.59,0,0-.29-.1-.29-.11-.48-.45-.9-.7-.96.28.18.06.36.12.53.18-2.02.01-4.03.04-4.52,2.66,0,0-.29-.12-.29-.12-.48-.46-.9-.71-.96.28l.19-.06s.07.19.07.18c-1.7.19-3.58.07-4.14,2.31-2.24-.13-4.14,1.02-5.72,2.23-2.52,1.95-4.61,1.31-7.07.05-2.04-1.04-3.66-3-6.19-3.03Z"/><path class="cls-11" d="M130.72,297.43c-.14.24-.35.35-.63.34-.85-2.2-1.92-.6-2.82-.11-2.58,1.42-5.09,2.95-7.66,4.38-1.3.72-2.63,1.35-4.14.35-2.44-1.62-4.93-3.16-7.39-4.74,6.95-4.81,14.53-8.56,21.75-12.91.66-.4,1.42-.87,2.09-.49,3.17,1.78,6.86,2.78,9.1,5.96-2.68.38-4.66,2.18-6.86,3.49-1.45.87-3.71,1.19-3.46,3.72Z"/><path class="cls-11" d="M236.83,198.84c.24,1.3-.78,1.69-1.62,2.18-4.4,2.55-8.8,5.08-13.2,7.63-1.12.65-2.15,1.04-3.44.22-2.19-1.4-4.51-2.6-6.73-3.95-2.11-1.28-2.06-2.64.06-3.88,4.5-2.62,9.02-5.21,13.51-7.84,1.04-.61,2.01-.85,3.12-.18,2.34,1.4,4.71,2.76,7.07,4.12.68.39,1.21.87,1.23,1.72Z"/><path class="cls-11" d="M102.83,276.24c.17,1.29-.83,1.68-1.68,2.17-2.58,1.5-5.16,2.99-7.75,4.48-7.85,4.52-7.83,4.49-15.46-.36-2.14-1.36-2.7-2.59-.21-4.04,4.51-2.63,9.05-5.21,13.57-7.84,1.03-.6,1.99-.91,3.13-.23,2.35,1.41,4.73,2.75,7.09,4.13.65.38,1.27.81,1.3,1.68Z"/><path class="cls-4" d="M134.05,258.28c-.03.25-.02.5-.09.73-.85,2.48-10.2,5.88-12.53,4.56-1.95-1.11-3.89-2.22-5.81-3.37-2.03-1.22-1.84-2.48.06-3.62,2.02-1.22,4.15-2.28,6.12-3.57,1.67-1.09,3.12-1.13,4.8-.01,1.86,1.24,3.85,2.29,5.78,3.41.77.44,1.5.9,1.67,1.87Z"/><path class="cls-11" d="M149,255.91c3.33,1.81,6.78,3.3,9.55,5.79,1.01.91.1,2-1.03,2.64-2.38,1.34-4.73,2.73-7.08,4.11-.94.55-1.84.58-2.8.02-2.46-1.45-4.93-2.89-7.4-4.3-1.05-.6-1.58-1.71-.76-2.44,2.78-2.49,6.26-3.91,9.52-5.82Z"/><path class="cls-4" d="M214.08,212.35c-.11.83-.7,1.25-1.37,1.63-2.37,1.36-4.74,2.74-7.1,4.11-1.94,1.13-3.31-.28-4.77-1.11-8.95-5.12-8.83-4.4-.02-9.65,2.45-1.46,4.37-1.83,6.71-.03,1.56,1.2,3.42,2.03,5.12,3.04.76.45,1.49.95,1.42,2.01Z"/><path class="cls-4" d="M221.61,226.33c0,.12,0,.25-.03.37-.43,2-9.88,6.27-11.76,5.25-2.19-1.18-4.3-2.51-6.46-3.73-2.3-1.3-2.04-2.56.03-3.79,2.03-1.21,4.14-2.29,6.11-3.59,1.56-1.03,2.89-1.04,4.44-.02,1.98,1.29,4.07,2.4,6.12,3.58.77.44,1.5.91,1.55,1.93Z"/><path class="cls-4" d="M172.52,224.02c3.06,1.88,6.22,3.61,9.12,5.7,1.15.83.34,2.05-.76,2.69-2.48,1.43-4.99,2.8-7.46,4.25-.99.58-1.84.44-2.78-.12-2.35-1.41-4.73-2.75-7.09-4.13-1.07-.63-2.03-1.73-.86-2.65,2.91-2.3,6.21-4.02,9.83-5.73Z"/><path class="cls-4" d="M197.95,221.61c.04.91-.61,1.29-1.26,1.66-2.36,1.36-4.74,2.7-7.08,4.08-1.1.65-2.08.48-3.12-.14-2.23-1.34-4.49-2.63-6.73-3.94-2.01-1.18-1.89-2.47-.04-3.62,2.31-1.44,4.7-2.76,7.06-4.13.78-.45,1.58-.72,2.45-.21,2.57,1.5,5.13,3,7.72,4.46.76.43.95,1.08,1.01,1.84Z"/><path class="cls-4" d="M180.36,237.8c3.3,1.76,6.72,3.32,9.54,5.75,1.04.9.16,2.03-.96,2.67-2.37,1.36-4.74,2.72-7.11,4.1-1.92,1.12-3.3-.19-4.78-1.03-8.96-5.09-8.89-4.6-.05-9.62,1.08-.61,2.16-1.2,3.35-1.87Z"/><path class="cls-4" d="M148.35,232.62c-3.19-1.9-6.4-3.55-9.28-5.65-1.12-.82-.35-2.23.95-2.96,2.38-1.34,4.75-2.7,7.08-4.11,1.14-.69,2.12-.37,3.13.21,2.14,1.25,4.29,2.5,6.42,3.77,2.36,1.41,2.15,2.77-.12,4.06-2.68,1.53-5.36,3.06-8.19,4.68Z"/><path class="cls-11" d="M205.29,198.47c0,.41.02.54,0,.65-.41,1.85-9.66,6.26-11.42,5.34-2.31-1.21-4.52-2.58-6.78-3.88-2.34-1.34-1.86-2.64.11-3.82,2.24-1.34,4.52-2.59,6.76-3.92.93-.55,1.76-.73,2.77-.13,2.45,1.46,4.95,2.83,7.41,4.28.64.37,1.31.82,1.15,1.47Z"/><path class="cls-4" d="M221,189.54c-.02.24,0,.5-.07.73-.78,2.28-10.1,5.92-12.21,4.75-1.84-1.03-3.67-2.09-5.47-3.19-2.77-1.69-2.74-2.61.12-4.37,1.9-1.17,3.86-2.26,5.78-3.4,1.11-.66,2.12-1.12,3.44-.29,2.31,1.45,4.74,2.72,7.1,4.1.64.37,1.27.81,1.31,1.68Z"/><path class="cls-4" d="M164.55,246.78c3.5,1.9,6.93,3.43,9.71,5.91,1.02.92,0,2.01-1.08,2.63-2.26,1.29-4.52,2.59-6.77,3.92-1.19.7-2.31.7-3.5-.02-2.23-1.35-4.48-2.66-6.75-3.95-1.12-.63-2.07-1.81-.98-2.61,2.98-2.18,6.25-3.96,9.38-5.89Z"/><path class="cls-11" d="M149.98,249.25c.09.92-.58,1.3-1.23,1.68-2.36,1.37-4.74,2.69-7.06,4.11-1.26.77-2.29.47-3.43-.23-2.01-1.23-4.06-2.39-6.1-3.55-2.63-1.49-2.29-2.89.1-4.25.54-.31,1.07-.62,1.61-.93,6.54-3.78,9.09-3.53,15.02,1.36.63.52,1.03,1.03,1.09,1.81Z"/><path class="cls-11" d="M165.98,239.98c0,.12.02.25,0,.37-.41,1.84-9.71,6.26-11.46,5.34-2.3-1.22-4.51-2.61-6.77-3.92-1.93-1.12-2.11-2.33-.15-3.6.73-.47,1.5-.88,2.25-1.31,6.6-3.81,9.05-3.59,15.02,1.32.6.5,1.12.97,1.11,1.81Z"/><path class="cls-4" d="M143.16,271.54c-.02.24,0,.5-.08.72-.9,2.49-10.16,5.8-12.5,4.47-1.83-1.04-3.65-2.11-5.47-3.17-1.99-1.16-2.53-2.42-.19-3.8,2.24-1.32,4.51-2.61,6.74-3.94,1.05-.63,2.1-.73,3.16-.12,2.36,1.36,4.71,2.74,7.08,4.1.68.39,1.17.91,1.26,1.72Z"/><path class="cls-4" d="M173.9,216.52c0,.46.02.59,0,.71-.36,1.84-9.6,6.29-11.37,5.37-2.3-1.2-4.53-2.56-6.76-3.89-2.21-1.32-1.88-2.63.09-3.87.52-.33,1.08-.61,1.62-.92,7.04-4.06,9.03-3.89,15.31,1.16.62.5,1.13.94,1.12,1.44Z"/><path class="cls-11" d="M126.85,244.02c.09.98-.54,1.41-1.19,1.78-2.36,1.36-4.75,2.67-7.09,4.06-1.09.65-2.03.62-3.1-.04-2.22-1.36-4.49-2.63-6.73-3.95-2.22-1.31-1.98-2.59.06-3.84.63-.39,1.28-.76,1.92-1.13,6.46-3.76,9.34-3.49,15.08,1.35.62.52,1.01,1.05,1.05,1.76Z"/><path class="cls-11" d="M142.51,235.03c0,.06.03.32-.04.55-.64,2.09-9.88,5.94-11.78,4.89-2.06-1.15-4.07-2.37-6.11-3.55-2.43-1.4-2.14-2.75.08-4.04,1.93-1.12,3.95-2.11,5.78-3.37,1.69-1.16,3.1-1.06,4.75.04,1.85,1.24,3.84,2.27,5.77,3.38.76.44,1.52.88,1.54,2.1Z"/><path class="cls-11" d="M189.6,207.85c0,.12.02.25,0,.36-.4,1.85-9.65,6.29-11.41,5.36-2.3-1.21-4.52-2.58-6.74-3.93-2.21-1.33-1.88-2.64.11-3.87.53-.32,1.08-.61,1.62-.92,6.98-4.05,9.04-3.88,15.31,1.21.6.49,1.17.91,1.12,1.77Z"/><path class="cls-11" d="M95.47,262.1c0,.12,0,.25-.02.37-.31,1.85-9.52,6.39-11.25,5.46-2.4-1.29-4.73-2.69-7.07-4.09-1.79-1.08-1.72-2.39-.07-3.44,2.4-1.53,4.92-2.86,7.39-4.28.82-.47,1.66-.54,2.48-.07,2.47,1.41,4.93,2.84,7.39,4.28.68.39,1.14.94,1.15,1.78Z"/><path class="cls-11" d="M117.81,268.17c.03-.31.05-.05-.03.17-.87,2.45-9.91,5.87-12.18,4.59-2.05-1.15-4.09-2.33-6.08-3.57-1.75-1.09-1.72-2.37,0-3.42,2.42-1.49,4.95-2.82,7.38-4.29,1.01-.61,1.85-.4,2.76.13,2.25,1.31,4.51,2.59,6.76,3.89.76.44,1.52.89,1.39,2.5Z"/><path class="cls-6" d="M111.16,253.24c.05.91-.64,1.3-1.27,1.67-2.36,1.37-4.78,2.61-7.09,4.06-1.68,1.05-2.9.12-4.03-.76-2.34-1.83-6.93-2.02-6.86-5.26.06-2.84,4.44-3.31,6.73-5.07,1.79-1.37,3.52-1.43,5.42-.09,1.72,1.2,3.61,2.17,5.43,3.21.89.51,1.7,1.05,1.65,2.24Z"/><path class="cls-11" d="M74.45,275.13l-.2.2s-.28,0-.28,0c-2.41.07-4.83.15-7.24.22,0,0-.12.05-.12.05-.04-2.59-1.33-2.94-3.39-1.88-1.21-.52-2.77-.71-2.98-2.36-.23-1.82,1.57-1.97,2.57-2.76.29-.23.63-.39.95-.57,6.39-3.71,9.43-3.43,14.98,1.43,1.66,1.45,1.61,2.69-.6,3.52-2.4-1.28-3.42-.19-3.7,2.16Z"/><path class="cls-4" d="M188.92,237.82c-1.2-.54-2.79-.8-2.77-2.51.02-1.49,1.54-1.79,2.54-2.39q8.17-4.92,16.63,1.38c-1.83,2.54-5.01,2.99-7.3,4.75-1.53,1.17-2.32,1.35-3.96.1-1.33-1-2.91-3.03-5.15-1.33Z"/><path class="cls-6" d="M108.08,297.66c2.47,1.58,4.95,3.12,7.39,4.74,1.51,1,2.84.37,4.14-.35,2.57-1.43,5.08-2.97,7.66-4.38.9-.49,1.97-2.1,2.82.11-3.7,2.22-7.39,4.45-11.09,6.66-.86.51-1.7.96-2.75.32-2.64-1.59-5.34-3.09-7.99-4.69-1.08-.65-1.14-1.52-.18-2.4Z"/><path class="cls-6" d="M219.32,216.14c2.53.03,4.15,1.99,6.19,3.03,2.46,1.26,4.55,1.89,7.07-.05,1.58-1.22,3.48-2.36,5.72-2.23.01.21.02.42.01.63-1.06.57-2.19,1.03-3.16,1.73-1.99,1.42-4.2,3.91-6.27,3.33-3.31-.92-6.23-3.29-9.27-5.12-.26-.16-.2-.86-.28-1.31Z"/><path class="cls-6" d="M188.92,237.82c2.24-1.7,3.82.33,5.15,1.33,1.64,1.24,2.43,1.07,3.96-.1,2.29-1.76,5.47-2.21,7.3-4.75,1.37,1.38.38,2.19-.76,2.87-2.35,1.4-4.75,2.73-7.1,4.13-1.78,1.05-3.08-.1-4.44-.91-1.39-.82-2.74-1.7-4.11-2.56Z"/><path class="cls-6" d="M130.72,297.43c-.26-2.53,2-2.86,3.46-3.72,2.2-1.31,4.18-3.11,6.86-3.49.49,1.3-.49,1.77-1.32,2.24-2.98,1.68-5.99,3.31-8.99,4.97Z"/><path class="cls-8" d="M66.73,275.54c2.41-.07,4.83-.15,7.24-.22-2.36,1.98-4.73,3.33-7.24.22Z"/><path class="cls-8" d="M243.42,214.29c.49-2.61,2.5-2.64,4.52-2.66-1.12,1.55-2.77,2.19-4.52,2.66Z"/><path class="cls-8" d="M74.45,275.13c.28-2.35,1.3-3.44,3.7-2.16-1.23.72-2.47,1.44-3.7,2.16Z"/><path class="cls-8" d="M238.31,217.51c0-.21,0-.42-.01-.63.55-2.25,2.43-2.12,4.14-2.31-.73,1.88-2.69,2.05-4.12,2.94Z"/><path class="cls-8" d="M63.23,273.71c2.06-1.05,3.34-.71,3.39,1.88-1.13-.63-2.26-1.25-3.39-1.88Z"/><path class="cls-8" d="M248.65,211.28c.35-2.37,2.38-2.16,3.99-2.59-.79,1.69-2.37,2.17-3.99,2.59Z"/><path class="cls-8" d="M242.17,214.45c.05-.99.47-.74.96-.28-.32.09-.64.19-.96.28Z"/><path class="cls-8" d="M247.41,211.46c.05-.99.48-.73.96-.28-.32.09-.64.19-.96.28Z"/></g></svg>