<?xml version="1.0" encoding="UTF-8"?>
<svg id="Capa_2" data-name="Capa 2" xmlns="http://www.w3.org/2000/svg" xmlns:xlink="http://www.w3.org/1999/xlink" viewBox="0 0 93.1 96.61">
  <defs>
    <style>
      .cls-1 {
        fill: #57483a;
      }

      .cls-1, .cls-2, .cls-3, .cls-4, .cls-5, .cls-6, .cls-7, .cls-8, .cls-9, .cls-10, .cls-11, .cls-12, .cls-13, .cls-14, .cls-15, .cls-16, .cls-17, .cls-18, .cls-19, .cls-20, .cls-21, .cls-22, .cls-23, .cls-24, .cls-25, .cls-26, .cls-27, .cls-28, .cls-29, .cls-30, .cls-31, .cls-32, .cls-33, .cls-34 {
        stroke-width: 0px;
      }

      .cls-2 {
        fill: #9d9795;
      }

      .cls-3 {
        fill: #b48362;
      }

      .cls-4 {
        fill: #a4a5a6;
      }

      .cls-5 {
        fill: #946754;
      }

      .cls-6 {
        fill: url(#Degradado_sin_nombre_171);
      }

      .cls-7 {
        fill: url(#Degradado_sin_nombre_176);
      }

      .cls-8 {
        fill: #381f11;
      }

      .cls-9 {
        fill: #edc8a9;
      }

      .cls-10 {
        fill: #6c7476;
      }

      .cls-11 {
        fill: url(#Degradado_sin_nombre_174);
      }

      .cls-12 {
        fill: #4b3227;
      }

      .cls-13 {
        fill: #866d58;
      }

      .cls-14 {
        fill: #805c44;
      }

      .cls-15 {
        fill: #6a615f;
      }

      .cls-16 {
        fill: #9a775b;
      }

      .cls-17 {
        fill: #f39322;
      }

      .cls-18 {
        fill: #322218;
      }

      .cls-19 {
        fill: url(#Degradado_sin_nombre_170);
      }

      .cls-20 {
        fill: #fffaeb;
      }

      .cls-21 {
        fill: #7a7c7d;
      }

      .cls-22 {
        fill: #735d47;
      }

      .cls-23 {
        fill: #bca8a1;
      }

      .cls-24 {
        fill: url(#Degradado_sin_nombre_178);
      }

      .cls-25 {
        fill: #cb9974;
      }

      .cls-26 {
        fill: #634231;
      }

      .cls-27 {
        fill: #b59579;
      }

      .cls-28 {
        fill: #755141;
      }

      .cls-29 {
        fill: #706d6e;
      }

      .cls-30 {
        fill: #7b7f7d;
      }

      .cls-31 {
        fill: #908888;
      }

      .cls-32 {
        fill: #201911;
      }

      .cls-33 {
        fill: #e0e0e1;
      }

      .cls-34 {
        fill: #dbb496;
      }
    </style>
    <linearGradient id="Degradado_sin_nombre_171" data-name="Degradado sin nombre 171" x1="6.88" y1="33.27" x2="25.41" y2="41.24" gradientUnits="userSpaceOnUse">
      <stop offset="0" stop-color="#674132"/>
      <stop offset="1" stop-color="#28170c"/>
    </linearGradient>
    <linearGradient id="Degradado_sin_nombre_170" data-name="Degradado sin nombre 170" x1="63.69" y1="51.52" x2="59.27" y2="51.76" gradientUnits="userSpaceOnUse">
      <stop offset="0" stop-color="#6f4734"/>
      <stop offset="1" stop-color="#22110a"/>
    </linearGradient>
    <linearGradient id="Degradado_sin_nombre_174" data-name="Degradado sin nombre 174" x1="25.61" y1="10.13" x2="49.81" y2="34.27" gradientUnits="userSpaceOnUse">
      <stop offset="0" stop-color="#a1745a"/>
      <stop offset="1" stop-color="#67412f"/>
    </linearGradient>
    <linearGradient id="Degradado_sin_nombre_178" data-name="Degradado sin nombre 178" x1="55.5" y1="32.86" x2="58.01" y2="33.47" gradientUnits="userSpaceOnUse">
      <stop offset="0" stop-color="#826951"/>
      <stop offset="1" stop-color="#64503f"/>
    </linearGradient>
    <linearGradient id="Degradado_sin_nombre_176" data-name="Degradado sin nombre 176" x1="18.37" y1="40.51" x2="39.8" y2="68.4" gradientUnits="userSpaceOnUse">
      <stop offset="0" stop-color="#966a51"/>
      <stop offset="1" stop-color="#563625"/>
    </linearGradient>
  </defs>
  <g id="Capa_1-2" data-name="Capa 1">
    <g>
      <g>
        <g>
          <g>
            <path class="cls-17" d="M25.33,7.55c0,.08.02.19,0,.25,0,.02-.1-.12-.12.37-.08,1.36-.1,2.81-.12,4.18-3.51.39-7.01.89-10.51,1.23-.27-.24-.21-.53-.55-.74-1.16-.71-2.53-1.18-3.81-1.6-.49-.16-1.26-.63-1.78-.61-.09-.02-.05.25-.06.25-2.13-.43-4.24-.97-6.39-1.23,0-.08.14-.24.18-.25.32-.07,5.29-.5,6.46-.61.9-.09,1.8-.16,2.71-.25,4.67-.42,9.35-.6,14.02-.98Z"/>
            <path class="cls-18" d="M1.97,9.65c2.16.26,4.27.8,6.39,1.23l.31.25c-.92-.12-1.94.14-2.77.12-.28,0-.58.02-.86,0-1.07-.09-3.83-.95-5.04-1.35v-.49c.66.03,1.31.17,1.97.25Z"/>
          </g>
          <g>
            <path class="cls-6" d="M25.08,12.35c-.12,5.97-.06,11.98,0,17.95.02,1.95-.01,3.89,0,5.84.04.08.44.11.61.18-2.29.8-4.69,1.25-7.01,1.97-.43.13-.86.25-1.29.37-.24.3,7.01,1.83,7.32,2.46l-.25.25-7.5-2.27c0,6.62,0,13.24,0,19.86,0,2.04.1,4.11-.12,6.15-1.04,0-2.03.06-3.07-.12V13.58c.37.08.23-.29.25-.74.34.21.29.5.55.74,3.5-.34,7.01-.84,10.51-1.23Z"/>
            <path class="cls-17" d="M13.77,13.58v51.4c-2.12-.37-6.16-4.05-8.55-4.55.09-.22-.31-.54-.43-.61.12.02.27-.03.37,0,.27.08,1.41,1.11,1.6.8,0-4.69-.01-9.39,0-14.08.03-11.6-.02-23.2,0-34.8,1.98.84,4.86,1.4,7.01,1.84Z"/>
            <path class="cls-18" d="M10.21,11.24c1.29.42,2.65.89,3.81,1.6-.02.45.12.81-.25.74-2.15-.44-5.03-1.01-7.01-1.84l3.44-.49Z"/>
          </g>
          <g>
            <path class="cls-17" d="M5.04,11.24c-.03,9.8-.03,19.59,0,29.39.02,6.31.03,12.62.12,18.94L.12,56.74v-.12l-.12-46.73c1.21.41,3.97,1.27,5.04,1.35Z"/>
            <path class="cls-18" d="M5.16,59.57v.25c-.1-.03-.25.02-.37,0-.76-.47-4.53-2.37-4.67-3.07l5.04,2.83Z"/>
            <path class="cls-33" d="M10.21,11.24l-3.44.49c-.26-.11-.66-.28-.86-.49.82.02,1.85-.24,2.77-.12l-.31-.25s-.03-.26.06-.25c.53-.01,1.29.45,1.78.61Z"/>
            <path class="cls-4" d="M5.9,11.24c.2.21.6.38.86.49-.02,11.6.03,23.2,0,34.8-.09,0-.21.03-.25-.06-.24-.7.4-4.68-.31-6.21-.19-.12-.04.88-1.17.37-.03-9.8-.03-19.59,0-29.39.28.02.58,0,.86,0Z"/>
            <path class="cls-4" d="M6.76,46.53c-.01,4.69,0,9.39,0,14.08-.19.31-1.33-.72-1.6-.8v-.25c-.09-6.31-.11-12.62-.12-18.94,1.13.51.98-.49,1.17-.37.7,1.53.06,5.51.31,6.21.03.09.16.06.25.06Z"/>
          </g>
        </g>
        <g>
          <path class="cls-19" d="M59.64,36.94l.43.98c.78-.19,1.4.52,1.72.61,1.58.46.99.03,1.29-.86,1.78.48,1.33,1,1.35,1.23.44,4.94-.32,19.32,0,26.07,0,.21-.01.31.12.49-2.65-.02-8.76,1.3-10.27,1.35-.21,0-.43-.05-.55-.25.66-.34,1.21-.86,1.84-1.23.72-.42,1.51-.78,2.21-1.23.22-.14.92-.38.98-.55l.12-24.9-.06-.25c-.49-.06-.41.12-.43.12-.27.04-.49.17-.74.25.48-.72-.95-.63-2.09-.37.02,0-.05-.2.06-.25,1.25-.33,2.81-.75,4-1.23Z"/>
          <path class="cls-14" d="M82.39,56.49c.05,1.39-.09,2.79.06,4.18.24.19,5.21-1.46,5.96-1.23-.03.17.07.33-.18.49l-23.67,5.53c-.14-.19-.11-.28-.12-.49l11.13-2.58.31-.31c-.21-.57-.14-1.5-.12-2.15l1.97-.25c-1.74.43-2.06.33-1.54,2.58q3.01-.74,6.03-1.48l-.06-1.78c-.11-.21-.31-.09-.74-.06v-.12c.35-.07.36-.31.74-.18.07-1.12-.19-2.27.25-2.15Z"/>
          <path class="cls-33" d="M77.84,36.08l.12.12v6.82l-.18.31c-.5-.1-2.46.88-2.64.43v-7.32c.5-.02.57-.12.61-.12.73-.05,1.88-.34,2.09-.25Z"/>
          <g>
            <path class="cls-17" d="M88.41,59.45c-.75-.23-5.73,1.42-5.96,1.23-.15-1.39,0-2.79-.06-4.18-.02-.52.06-1.26,0-1.6-.34-.97,4.34-1.08,4.73-1.35.3-.2.24-.89,0-.98-.23-.09-4.29,1.18-4.67,1.48-1.52-.39-4.34.84-6.27.98l-.43.18c-.06.26.14.34.12.43-.25,1.42-.09,2.87-.12,4.3-.02.65-.09,1.58.12,2.15l-.31.31-11.13,2.58c-.32-6.75.44-21.12,0-26.07l10.7-2.34v7.19c.19.45,2.14-.53,2.64-.43l.18-.31v-6.82c3.44-.55,6.9-1.22,10.21-2.34l.25.06c-.22,4.19.29,24.05,0,25.52Z"/>
            <path class="cls-16" d="M65.91,58.34c1.96-.22,3.85-.71,5.72-1.35,1.34-.46,1.87-.94,1.97-.98.08-.04,1.51.2,1.17-.74.17,0,.66-.05.74.06l-.31,2.4c-1.11.08-9.01,2.67-9.28,2.27.04-.55-.05-1.12,0-1.66Z"/>
            <path class="cls-13" d="M65.91,58.34c.03-.37-.12-.77.18-.98,1.81-.31,7.75-2.07,8.67-2.09.34.94-1.08.7-1.17.74-.1.04-.63.53-1.97.98-1.87.64-3.76,1.13-5.72,1.35Z"/>
            <path class="cls-32" d="M86.01,54.53c1.13-.11,1.23,1.4.49,1.6-1.48.39-1.75-1.47-.49-1.6Z"/>
            <path class="cls-14" d="M84.17,54.9c.08-.02.26-.03.31.06-1.96,2.97-.63.02-.31-.06Z"/>
          </g>
          <path class="cls-26" d="M61.11,36.82c-.02.23,1.52.71,1.84.74-.01.14.06.11.12.12-.3.89.29,1.32-1.29.86-.33-.09-.94-.81-1.72-.61l-.43-.98s.09-.09.49-.25c.18.65.83.15.98.12Z"/>
          <g>
            <path class="cls-27" d="M83.74,32.76c1.05.1,2.67.63,3.69.98-.4.38-1.14.37-1.72.49.03-.44-.13-.05-.43-.12-1.02-.25-.47-1.19-3.75-.12,1.01-.56,1.76-.25.86-.98.22-.08.48-.24.68-.37.49-.06.6.12.68.12Z"/>
            <path class="cls-13" d="M88.17,33.87c-3.3,1.11-6.77,1.78-10.21,2.34l-.12-.12.12-.25c.3.37,1.21-.02,1.72-.12,2.02-.4,4.01-1.04,6.03-1.48.58-.13,1.32-.11,1.72-.49.14.05.56,0,.74.12Z"/>
            <path class="cls-27" d="M82.39,33.01c.9.74.15.42-.86.98-.96.54-1.25.66-1.84,1.72-.52.1-1.42.49-1.72.12-.03-.04-.11-.18-.12-.25.04,0,.08,0,.12,0,.4-.08,3.39-2.18,4.43-2.58Z"/>
            <path class="cls-9" d="M85.71,34.24c-2.02.44-4.01,1.07-6.03,1.48.6-1.06.88-1.18,1.84-1.72,3.29-1.07,2.73-.13,3.75.12.3.07.46-.32.43.12Z"/>
          </g>
          <g>
            <path class="cls-27" d="M77.71,59.69c.41-.1,3.5-.72,3.69-.74.42-.03.63-.15.74.06l.06,1.78q-3.01.74-6.03,1.48c-.52-2.25-.2-2.15,1.54-2.58Z"/>
            <g>
              <path class="cls-22" d="M82.39,54.9c.06.34-.02,1.08,0,1.6-.44-.12-.18,1.03-.25,2.15-.38-.12-.39.11-.74.18-.02,0,0-.26-.37-.06l.37.06v.12c-.19.01-3.28.64-3.69.74l-1.97.25c.03-1.43-.12-2.88.12-4.3l5.96-1.35.43.06c-.06.62.12.53.12.55Z"/>
              <path class="cls-1" d="M82.39,54.9s-.19.07-.12-.55l-.43-.06-5.96,1.35c.02-.09-.19-.17-.12-.43l.43-.18c1.93-.15,4.75-1.37,6.27-.98.38-.3,4.44-1.56,4.67-1.48.24.09.3.78,0,.98-.4.27-5.08.38-4.73,1.35Z"/>
              <path class="cls-14" d="M81.4,58.83l-.37-.06c.37-.2.35.07.37.06Z"/>
            </g>
          </g>
          <g>
            <path class="cls-34" d="M75.13,36.45v.12l-10.7,2.34c-.02-.23.43-.75-1.35-1.23-.06-.02-.14.01-.12-.12.36.03,6.85-.61,7.19-.74.11-.04.21-.35.43-.49,1.52.02,3.02.18,4.55.12Z"/>
            <path class="cls-25" d="M68,36.21c.87.01,1.71.11,2.58.12-.22.15-.32.45-.43.49-.34.13-6.83.77-7.19.74-.32-.03-1.86-.51-1.84-.74,1.04-.19,2.11-.65,3.14-.74.96-.08,2.51.1,3.75.12Z"/>
          </g>
        </g>
        <g>
          <path class="cls-33" d="M72.55,1.41c.32.03.72.01.98.25-.91.07-1.86-.2-1.97.25-4.31-.06-8.6-.15-12.91-.25,0-.09-.04-.19.06-.25.29-.16,6.13-1.32,6.46-1.35.29-.02.6-.14.86.06-1.6,1.84,2.91,1,6.52,1.29Z"/>
          <g>
            <path class="cls-17" d="M86.44,14.56c0,5.47,0,10.94,0,16.42-.21.26-.8.43-.98.55-.86-.51-.12-1.2-.37-1.48,0,0,.03-.16-.18-.12l-6.95,4.3-.12-32.28c-2.1.13-4.18-.03-6.27-.06.11-.44,1.05-.17,1.97-.25,4.24-.34,8.49-.76,12.73-1.11l.31.18c-.13,4.61-.12,9.22-.12,13.83Z"/>
            <path class="cls-9" d="M85.46,31.53c-.8.55-1.65.87-1.72,1.23-.07,0-.19-.18-.68-.12-.2.13-.46.28-.68.37-1.03.4-4.03,2.5-4.43,2.58v-.74c.09-.03.16.13.18.12.46-.11,5.94-4.15,6.95-4.92.25.28-.49.96.37,1.48Z"/>
            <path class="cls-27" d="M85.09,30.06c-1.01.76-6.49,4.81-6.95,4.92-.03,0-.09-.15-.18-.12v-.61l6.95-4.3c.21-.04.18.11.18.12Z"/>
          </g>
          <g>
            <path class="cls-14" d="M58.65,1.65c4.31.09,8.6.18,12.91.25,2.09.03,4.17.19,6.27.06l.12,32.28v1.35s-.08,0-.12,0l-3.14-.37c-.77-1.01-1.84-1-2.77-2.03-2.69-2.99-2.6-14.01-2.95-18.2-.92-2.53.07-5.39-1.84-7.5-2.02-2.23-3.91-1.63-4.98-1.78-4.19-.61-8.38-1.19-12.6-1.48-.02-.34-.05-2.63.06-2.71,3.02-.08,6.02.06,9.04.12Z"/>
            <path class="cls-26" d="M77.84,35.59c.02.06.09.21.12.25l-.12.25c-.21-.09-1.36.2-2.09.25-.68-.18-.59-.59-.68-.61-.31-.09-3.68.51-6.39-.98-2.18-1.2-3.11-3.82-4.49-5.78,0-2.99-.09-5.98-.12-8.98-.04-4.41.03-8.81,0-13.22-4.77-.7-9.72-.62-14.51-1.23-.02-.26.03-.54,0-.8-.02-.16,0-.33,0-.49,4.23.29,8.42.87,12.6,1.48,1.07.16,3.35-.74,4.98,1.78,1.37,2.12.37,4.12.37,8.12,0,4.21,3,14,4.42,17.58.51,1.29,2,1.02,2.77,2.03l3.14.37Z"/>
            <path class="cls-8" d="M75.75,36.33s-.12.1-.61.12c-1.53.06-3.03-.11-4.55-.12-.87,0-1.71-.11-2.58-.12,2.6-.38-.41-.79-1.05-1.11-.98-.5-1.67-1.42-2.77-1.72.01-.29,0-.57,0-.86.03-1.1,0-2.22,0-3.32,0-.08,0-.16,0-.25,1.37,1.96,2.31,4.57,4.49,5.78,2.71,1.5,6.08.89,6.39.98.08.02,0,.44.68.61Z"/>
          </g>
          <path class="cls-18" d="M68,36.21c-1.24-.02-2.79-.2-3.75-.12-1.02.09-2.1.55-3.14.74-.16.03-.8.52-.98-.12.08-.03.22-.06.37-.12.39.28,3.48-.63,3.57-.8.03-.25-.04-.57,0-.8.11-.6.09-1.01.12-1.6,1.09.3,1.78,1.23,2.77,1.72.63.32,3.65.73,1.05,1.11Z"/>
        </g>
        <g>
          <g>
            <path class="cls-17" d="M64.06,19.97l-.31-1.23c-.59,1.79-1.32,4.8-1.54,6.7-.07.59-.34,3.22.06,3.38.66-.29.64,0,.68,0-1.56.51-3.93.63-3.57,1.6h-.12s-.18.05-.12-.37c-.35-.35-3.62.88-4.3.98l-.25.18c-.02.84.02,1.68,0,2.52-.08,0-.17-.01-.25,0l.12-2.4c-.06-.12-.26-.04-.37-.06-.81-.14-5.3,1.62-6.58,1.84-.48.21-.26.43-.31.86-.06.55.04,1.16,0,1.72-.31-.56-.03-.96-1.35-.49-.1-8.44.03-16.89.12-25.33l7.75-1.72v5.72l2.03.06.18-6.15,6.7-.98c-1.32-.17-4.27.2-5.59.49-.54-.49-.75-.32-1.23-.37-2.1-.2-4.25-.16-6.33-.61-2.54-.3-14.43,1.27-15.86,1.72-.15.05-.49.26-.43.49-2.62-.25-5.23-.82-7.87-.74.02-.06,0-.17,0-.25,1.52-.13,3.09-.04,4.61-.25l19.61-2.58c.03.26-.02.54,0,.8,4.79.61,9.74.53,14.51,1.23.03,4.41-.04,8.81,0,13.22Z"/>
            <path class="cls-14" d="M33.2,8.54c.08,0,.17,0,.25,0v.86l-8.24-1.23c.03-.49.12-.35.12-.37,2.64-.08,5.25.49,7.87.74Z"/>
            <path class="cls-34" d="M54.35,33.75c.08-.01.17,0,.25,0-.02.86.02,1.72,0,2.58v1.6c-1.06.39-8.24,3.16-8.61,3.44.04-2.05-.1-4.1-.12-6.15,1.33-.47,1.04-.07,1.35.49.04.07-.07.32.06.37.42.16,5.84-2.09,7.07-2.34Z"/>
            <path class="cls-9" d="M53.37,8.05c-2.5.53-5.07.75-7.5,1.6h-.12l-9.22-.86s-.04-.23.06-.25c4.52-.51,9.08-1.2,13.65-.98.84.04,3.21.27,3.14.49Z"/>
            <g>
              <path class="cls-26" d="M25.95,30.3c2.23.49,4.43,1.02,6.64,1.6-.02,2.09.02,4.18,0,6.27-1.78-.44-3.53-.98-5.29-1.48-.24-.07-.76-.22-.92,0-.55-.8-.63-.35-.68-.37-.17-.08-.58-.11-.61-.18-.01-1.95.02-3.89,0-5.84.72-.63.45-.09.86,0Z"/>
              <path class="cls-18" d="M39.84,32.89s0,.08,0,.12c.11,1.41,0,2.88.12,4.3.06.29-.13.27-.43.25-1.1-.1-3.44-.86-4.73-1.11,0-1.51-.23-3.03-.12-4.55,1.67.42,3.46.72,5.16.98Z"/>
              <path class="cls-26" d="M39.96,37.31c.08.85.49,1.74.25,2.58-1.76-.46-3.55-.79-5.29-1.35,0-.1-.12-1.53-.12-2.09,1.29.25,3.63,1.01,4.73,1.11.3.03.49.05.43-.25Z"/>
              <path class="cls-26" d="M32.59,30.79c-.07.31.12.4.12.49,0,.03-.12-.16-.12.61-2.21-.58-4.41-1.11-6.64-1.6.04-.24-.09-1.13.06-1.23.28-.19,5.71,1.52,6.58,1.72Z"/>
            </g>
            <path class="cls-26" d="M36.52,8.78l9.22.86c-.12.45-.05.71-.55.61l-8.91-1.11c-.01-.12-.13-.14-.12-.25.15-.1.2-.1.37-.12Z"/>
            <path class="cls-16" d="M53.74,8.05v.12l-7.75,1.72s-.17.05-.12-.25c2.43-.85,5-1.07,7.5-1.6.49-.1.35,0,.37,0Z"/>
            <g>
              <path class="cls-11" d="M33.45,9.4v6.7l2.77.06c-.02-1.95.24-5.3.06-7.01l8.91,1.11c.5.1.43-.17.55-.61h.12c-.05.29.12.23.12.25-.09,8.44-.22,16.89-.12,25.33.02,2.05.16,4.1.12,6.15-.02.02-.08-.04-.12.12-1.88-.55-3.76-1.1-5.66-1.6.24-.84-.17-1.73-.25-2.58-.13-1.42,0-2.89-.12-4.3h.12c.51.16,3.92,1.31,4.12,1.23.27-.1.28-.77,0-.98-.38-.29-3.44-.58-4.12-.74-.01,0,.1-.04-.25-.12-2.38-.56-4.75-1.06-7.13-1.6-.87-.2-6.3-1.91-6.58-1.72-.15.1-.02.99-.06,1.23-.41-.09-.14-.63-.86,0-.06-5.97-.12-11.99,0-17.95.03-1.37.05-2.82.12-4.18l8.24,1.23Z"/>
              <path class="cls-18" d="M39.72,32.39c-.06.3.11.38.12.49-1.71-.27-3.49-.56-5.16-.98-.02,0-.05-.16-.37-.25-.53-.13-1.08-.2-1.6-.37,0-.09-.19-.19-.12-.49,2.38.54,4.75,1.04,7.13,1.6Z"/>
              <path class="cls-18" d="M39.96,33.01v-.49c.68.16,3.74.45,4.12.74.28.21.27.88,0,.98-.2.08-3.61-1.07-4.12-1.23Z"/>
              <path class="cls-18" d="M42.12,34.98c.1-.07,2.15-.16,1.66,1.05-.16.41-2.42-.51-1.66-1.05Z"/>
              <path class="cls-23" d="M39.96,32.52v.49h-.12s0-.08,0-.12c-.02-.11-.19-.2-.12-.49.34.08.23.12.25.12Z"/>
            </g>
            <path class="cls-34" d="M64.06,19.97c.03,2.99.12,5.98.12,8.98,0,.08,0,.16,0,.25-.35-.23-.49-.2-.61-.25-.37-.13-.53-.1-.61-.12-.03,0-.01-.29-.68,0-.4-.16-.13-2.79-.06-3.38.22-1.9.94-4.91,1.54-6.7l.31,1.23Z"/>
            <g>
              <path class="cls-4" d="M36.15,8.91c0,.11.11.12.12.25.18,1.71-.08,5.06-.06,7.01l-2.77-.06v-7.56c.91.09,1.79.29,2.71.37Z"/>
              <path class="cls-33" d="M55.83,6.94c.34.67-1.34.94-2.09,1.11-.02,0,.12-.1-.37,0,.07-.22-2.29-.45-3.14-.49-4.57-.22-9.13.47-13.65.98-.1.01-.05.24-.06.25-.16.02-.22.03-.37.12-.91-.08-1.79-.28-2.71-.37-.08,0-.17,0-.25,0-.06-.23.28-.44.43-.49,1.43-.45,13.33-2.02,15.86-1.72,2.08.45,4.23.41,6.33.61Z"/>
              <path class="cls-33" d="M57.06,7.31c-.29.06-.83.39-1.05.12l-.06.37-.18,6.15-2.03-.06v-5.84c.75-.17,2.43-.43,2.09-1.11.48.05.69-.12,1.23.37Z"/>
            </g>
            <g>
              <path class="cls-16" d="M54.35,33.75c-1.23.24-6.65,2.49-7.07,2.34-.13-.05-.02-.3-.06-.37.04-.56-.06-1.17,0-1.72,1.56-.28,3.21-.58,4.49-1.6,1.41.36.59-.41.86-.61.08-.06,1.69.53,1.54-.49.11.02.31-.05.37.06l-.12,2.4Z"/>
              <path class="cls-13" d="M54.1,31.29c.15,1.02-1.46.43-1.54.49-.27.2.55.97-.86.61-1.28,1.02-2.93,1.31-4.49,1.6.05-.43-.17-.65.31-.86,1.28-.22,5.77-1.98,6.58-1.84Z"/>
            </g>
            <path class="cls-16" d="M55.95,7.8l.06-.37c.21.27.76-.06,1.05-.12,1.32-.29,4.28-.66,5.59-.49l-6.7.98Z"/>
            <path class="cls-8" d="M60.5,36.57c.5-.2,1.17-.62,1.72-.86.59-.25,1.29-.37,1.84-.74-.04.23.03.55,0,.8-.08.17-3.17,1.08-3.57.8Z"/>
            <g>
              <path class="cls-14" d="M63.94,32.52c.48,1.48-.99,1.43-1.72,3.2-.55.24-1.22.66-1.72.86-.15.06-.29.09-.37.12-.4.16-.47.24-.49.25-1.18.48-2.75.9-4,1.23-.11.05-.05.24-.06.25-.02,0,.11.2-.31.37-1.71.69-3.5,1.3-5.23,1.97-.94.36-1.88.75-2.83,1.11-.42.16-.92.26-1.23.37.08-.36-.16-.58-.12-.74.04-.16.1-.1.12-.12.37-.28,7.55-3.06,8.61-3.44.42-.15,3.01-.71,4.49-1.35.32-.23.05-1.42.06-1.72,0-.1.11-.11.12-.37.38.6,3.41-1.72,4.67-1.97Z"/>
              <path class="cls-1" d="M62.96,28.83c.08.02.24,0,.61.12-.14.63-2.88,1.06-4.18,1.48-.37-.96,2.01-1.09,3.57-1.6Z"/>
              <g>
                <path class="cls-24" d="M59.15,30.06c-.06.42.12.35.12.37.06.28.02,3.31,0,4.06,0,.26-.12.27-.12.37l-4.55,1.48c.02-.86-.02-1.72,0-2.58.02-.84-.02-1.68,0-2.52l.25-.18c1.42.27,2.98-.53,4.3-.98Z"/>
                <path class="cls-1" d="M59.15,30.06c-1.32.46-2.89,1.25-4.3.98.68-.1,3.96-1.34,4.3-.98Z"/>
              </g>
              <path class="cls-27" d="M59.15,34.85c-.01.3.26,1.49-.06,1.72-1.47.64-4.07,1.2-4.49,1.35v-1.6l4.55-1.48Z"/>
              <path class="cls-26" d="M64.19,32.52c0,.29.01.58,0,.86-.03.59-.01,1-.12,1.6-.55.37-1.25.48-1.84.74.73-1.77,2.2-1.71,1.72-3.2.08-.01.17,0,.25,0Z"/>
              <g>
                <path class="cls-3" d="M64.19,29.2c0,1.1.03,2.22,0,3.32-.08,0-.17-.01-.25,0-1.27.25-4.29,2.57-4.67,1.97.02-.75.06-3.78,0-4.06h.12c1.3-.42,4.04-.84,4.18-1.48.13.04.27.02.61.25Z"/>
                <path class="cls-26" d="M62.04,30.43c1.63-.32,1.51,1.43.86,1.6-1.26.32.28-.78-.37-1.11-.64-.32-1.73.81-1.91.43.44-.12,1.15-.87,1.41-.92Z"/>
              </g>
            </g>
          </g>
          <g>
            <path class="cls-32" d="M37.63,73.09v.37l-.74.12c-.3-.17-.72-.13-1.23-.25-1.84-.43-1.45-.7-1.54-.74-.32-.13-1.22-.26-1.48-.37-1.88-.79-3.7-1.93-5.59-2.71.08-.15.11-.18.12-.37,3.44,1.43,6.88,2.86,10.45,3.93Z"/>
            <path class="cls-14" d="M55.58,65.35c-.64.37-1.19.89-1.84,1.23-.62.32-11.79,5.29-12.73,5.66-1.11.44-2.23.9-3.38,1.23v-.61c3.47-1.08,6.71-3.01,10.14-4.3.47-.49.06-2.32.06-2.95.43-.06.35.12.37.12l-.06,2.58c.82-.33,1.6-.74,2.4-1.11.51-.23,3.04-1.45,3.2-1.6-.13.82.69-.15,1.84-.25Z"/>
            <path class="cls-29" d="M27.05,62.27c-.1,1.52.08,3.04.12,4.55.02.72.05,1.63,0,2.34-.01.19-.04.22-.12.37-.61-.25-1.23-.49-1.84-.74-.17-.07-.32-.18-.49-.25v-.49c.02-2.09-.02-4.18,0-6.27,0-.48.12-.35.12-.37.7.22,1.46.36,2.15.61.11.04.05.24.06.25Z"/>
            <path class="cls-18" d="M24.72,68.05v.49c-.05-.02.33.44-.92,0-1.95-1.16-4.86-1.59-6.58-2.95l7.5,2.46Z"/>
            <path class="cls-25" d="M58.41,38.54c.28.06-.13.14-.25.61-.64-.4-.45.53-.49,1.6-.48.33-.54,1.56-.49,2.15-.8,1.68-1.38,6.3-1.48,8.36-.08,1.64-.17,6.07.61,6.09-.56.21-1.55.62-2.09.86-2.02-1.96-.11-11.01.61-13.83.43-1.7,1.31-3.5,1.6-5.1.41-.13.79-.36,1.23-.49.25-.08.47-.21.74-.25Z"/>
            <path class="cls-14" d="M58.9,38.66l-.12,24.9c-.06.17-.76.41-.98.55-.77-.75-.19-4.31-.37-6.27.07-.82-.12-.7-.12-.74-.04-5.44.18-10.92.37-16.35.04-1.07-.14-2,.49-1.6-.06.27-.21,3.12.43,2.58.29-.24-.27-2.96.31-3.07Z"/>
            <path class="cls-27" d="M57.67,38.79c-.44.13-.82.36-1.23.49-2.08.67-4.17,1.34-6.27,1.97.01-.24-.16-.28-.12-.49,1.73-.67,3.51-1.27,5.23-1.97.42-.17.29-.36.31-.37,1.14-.27,2.57-.35,2.09.37Z"/>
            <path class="cls-5" d="M58.9,38.66c-.57.12-.02,2.83-.31,3.07-.64.54-.5-2.31-.43-2.58.11-.48.53-.56.25-.61.02,0-.06-.18.43-.12l.06.25Z"/>
            <g>
              <path class="cls-26" d="M17.58,59.32c1.17.66,5.51,2.02,7.13,2.46-.02,2.09.02,4.18,0,6.27l-7.5-2.46c-.18-.14,0-.56-.37-.49.23-2.04.12-4.1.12-6.15.5-.23.22.15.61.37Z"/>
              <path class="cls-12" d="M24.72,60.8c-.07.4.12.54.12.61,0,.02-.12-.11-.12.37-1.62-.44-5.96-1.8-7.13-2.46l.18-.86c2.28.9,4.62,1.58,6.95,2.34Z"/>
            </g>
            <path class="cls-18" d="M31.36,63.75l.18,4.67-4.37-1.6c-.04-1.51-.22-3.03-.12-4.55,1.42.52,2.88.95,4.3,1.48Z"/>
            <path class="cls-18" d="M40.21,39.89c1.89.5,3.78,1.05,5.66,1.6-.04.16.2.37.12.74-.03,0,.03.06-.49.25-.24-.31-.81-.04-1.11,0,.1-.47-.71-.14-1.41-.25-1.92-.29-6.35-1.78-8.18-2.83-.08-.58.12-.81.12-.86,1.73.56,3.53.89,5.29,1.35Z"/>
            <path class="cls-17" d="M56.44,39.28c-.29,1.61-1.16,3.4-1.6,5.1-.72,2.83-2.63,11.88-.61,13.83-.5.23-.59.48-.92.86-.88-.67-5.32,1.2-5.47,1.97-.07.33.01,1.46,0,2.09-.1,0-.22-.01-.25,0-.15-1.36.56-2.45-.8-2.34-.72.06-7.51,3.25-7.93,3.32-.41.07-.96-.02-1.23-.37v-18.44c2.61-.98,5.25-1.88,7.87-2.83.52-.19.47-.24.49-.25.31-.11.81-.21,1.23-.37l.18,7.01,2.64-1.17c-.05-2.16.01-4.3.12-6.46,2.1-.62,4.19-1.3,6.27-1.97Z"/>
            <g>
              <path class="cls-7" d="M24.47,41.37v6.82l2.64,1.05.06-.25v-6.82l.25-.18c.03.36,1.81.92,2.77,1.23,2.17.7,4.41,1.21,6.52,2.09h.92v27.79c-3.57-1.07-7.01-2.51-10.45-3.93.05-.71.02-1.61,0-2.34l4.37,1.6-.18-4.67c2.46.92,4.99,2.38,4.24.74-3.63-1.21-7.24-2.51-10.88-3.69-2.32-.76-4.67-1.44-6.95-2.34l-.18.86c-.39-.22-.11-.6-.61-.37,0-6.62,0-13.24,0-19.86l7.5,2.27Z"/>
              <path class="cls-18" d="M31.36,63.75c-1.43-.53-2.89-.96-4.3-1.48-.01,0,.05-.21-.06-.25-.69-.25-1.45-.4-2.15-.61,0-.07-.19-.21-.12-.61,3.64,1.18,7.25,2.48,10.88,3.69.75,1.64-1.78.18-4.24-.74Z"/>
              <path class="cls-18" d="M33.38,65.96c3.03.27,2.38,2.61.86,1.35-.4-.33-.63-.9-.86-1.35Z"/>
            </g>
            <path class="cls-3" d="M57.67,40.76c-.19,5.43-.41,10.92-.37,16.35-.4.15-.89.21-.98.25-.78-.02-.69-4.44-.61-6.09.1-2.06.67-6.69,1.48-8.36-.05-.59.02-1.83.49-2.15Z"/>
            <g>
              <path class="cls-3" d="M57.42,57.85c.18,1.96-.4,5.52.37,6.27-.7.45-1.49.81-2.21,1.23-1.15.1-1.97,1.07-1.84.25.16-.15.29-.16.25-.31-.04-.11-.36-.29-.37-.31l-.49-5.66c1.45-.44,2.83-1.1,4.3-1.48Z"/>
              <path class="cls-18" d="M57.12,59.2c.27.1.23,1.03.12,1.11-.12.08-1.33-.27-2.52.06.33-.11,2.27-1.21,2.4-1.17Z"/>
            </g>
            <path class="cls-33" d="M50.17,41.25c-.11,2.16-.17,4.3-.12,6.46l-2.64,1.17-.18-7.01c.95-.36,1.88-.74,2.83-1.11-.03.21.14.25.12.49Z"/>
            <g>
              <path class="cls-25" d="M47.83,63.13c-.02.82,0,1.64,0,2.46,0,.63.41,2.46-.06,2.95-3.43,1.29-6.68,3.22-10.14,4.3v-9.1c.27.35.82.43,1.23.37l.18,2.71c2.25-1.03,6.68-2.4,8.55-3.69.02-.01.15,0,.25,0Z"/>
              <path class="cls-13" d="M47.59,63.13c-1.86,1.29-6.29,2.66-8.55,3.69l-.18-2.71c.42-.07,7.21-3.26,7.93-3.32,1.36-.11.65.98.8,2.34Z"/>
            </g>
            <g>
              <g>
                <path class="cls-27" d="M53.61,64.98s.32.19.37.31c.05.15-.08.16-.25.31-.16.15-2.69,1.36-3.2,1.6l-.37-2.09c.3-.11.67-.38.98-.49.12-.04.25-.08.37-.12.46-.15.93-.36.98-.37.23-.05.43-.16.68-.12.05.38.28.66.43.98Z"/>
                <path class="cls-27" d="M50.17,65.1l.37,2.09c-.8.37-1.58.78-2.4,1.11l.06-2.58c.13,0,1.65-.5,1.97-.61Z"/>
              </g>
              <g>
                <path class="cls-14" d="M51.28,59.69c.01.41-.02.82,0,1.23l-.12,2.21v1.48c-.32.11-.68.39-.98.49-.32.11-1.83.62-1.97.61-.02,0,.06-.18-.37-.12,0-.82-.02-1.64,0-2.46.01-.63-.07-1.76,0-2.09,1.15-.52,2.18-.95,3.44-1.35Z"/>
                <path class="cls-12" d="M57.3,57.11s.19-.08.12.74c-1.48.37-2.85,1.04-4.3,1.48-.56.17-1.27.19-1.84.37-1.27.4-2.3.83-3.44,1.35.16-.76,4.6-2.64,5.47-1.97.34-.38.42-.63.92-.86.54-.25,1.53-.65,2.09-.86.1-.04.58-.09.98-.25Z"/>
                <path class="cls-14" d="M53.12,59.32l.49,5.66c-.15-.32-.38-.61-.43-.98-.25-.04-.44.07-.68.12-.34-1.5-1.16-1.33-1.23-3.2-.02-.41.01-.82,0-1.23.58-.18,1.28-.2,1.84-.37Z"/>
                <path class="cls-1" d="M52.51,64.12c-.05.01-.52.22-.98.37-.33-.62.13-1.43-.37-1.35l.12-2.21c.07,1.87.89,1.7,1.23,3.2Z"/>
                <path class="cls-18" d="M51.52,64.49c-.12.04-.25.08-.37.12v-1.48c.5-.08.04.73.37,1.35Z"/>
              </g>
            </g>
            <g>
              <path class="cls-26" d="M27.3,36.7c.6.73,4.81,2.64,5.29,1.97-.07.2.15.27-.31.49-.15.07-2.62.72-3.14.86-.98.27-1.97.42-2.95.74.03-.22-1.21-.74-1.54-.86-1.93-.69-4.01-.99-5.96-1.6,2.31-.71,4.72-1.17,7.01-1.97.04.02.12-.43.68.37.16-.22.68-.07.92,0Z"/>
              <path class="cls-28" d="M26.19,40.76c-.3.1-.79.11-1.11.25-.13.06-.21.16-.37.12-.31-.63-7.56-2.16-7.32-2.46.43-.12.86-.24,1.29-.37,1.96.61,4.03.91,5.96,1.6.32.12,1.56.64,1.54.86Z"/>
              <path class="cls-18" d="M32.59,38.17c-.05.28.11.24.12.25,0,.1-.09.14-.12.25-.48.67-4.68-1.23-5.29-1.97,1.76.5,3.51,1.04,5.29,1.48Z"/>
            </g>
            <g>
              <path class="cls-2" d="M27.18,48.99l-.06.25-2.64-1.05v-6.82l.25-.25c.16.04.24-.07.37-.12l1.6.92c-.28.66-.14,2.43.06,3.01,0,.01.21-.27.31-.06.16.36-.22,3.29.12,4.12Z"/>
              <path class="cls-31" d="M29.14,40.02l1.48,1.11c-.24.08-.5.17-.74.25-.23.07-.7.09-1.72.49-.1.04-.54.09-.74.12l-.25.18v6.82c-.34-.83.04-3.76-.12-4.12-.09-.21-.3.08-.31.06-.2-.58-.35-2.36-.06-3.01l-1.6-.92c.31-.14.81-.15,1.11-.25.98-.32,1.97-.46,2.95-.74Z"/>
              <path class="cls-15" d="M33.94,38.91c.63.33.92.24.49.86-.21.14-3.14,1.12-3.81,1.35l-1.48-1.11c.52-.14,2.99-.79,3.14-.86.45-.22.24-.29.31-.49.04-.11.12-.14.12-.25.19.24,1.17.46,1.23.49Z"/>
              <g>
                <path class="cls-21" d="M34.31,31.66c-.16,1.22.21,5.62-.12,3.87h-.25v3.38c-.06-.03-1.04-.25-1.23-.49,0-.01-.17.04-.12-.25.02-2.09-.02-4.18,0-6.27,0-.77.12-.58.12-.61.52.16,1.07.23,1.6.37Z"/>
                <path class="cls-29" d="M34.68,31.9c-.11,1.52.11,3.04.12,4.55,0,.56.13,1.99.12,2.09,0,.05-.2.28-.12.86.07.28-.16.23-.37.37.43-.62.14-.53-.49-.86v-3.38h.25c.33,1.74-.04-2.65.12-3.87.32.08.35.24.37.25Z"/>
              </g>
            </g>
            <g>
              <path class="cls-34" d="M42.3,42.72c.7-.07,1.4-.15,2.09-.25.3-.04.87-.31,1.11,0-2.62.95-5.26,1.85-7.87,2.83h-.12c-.01-.12.06-.28-.06-.37-.51-.39-6.96-2.36-8.18-2.71-.61-1.06,1.96.26,3.26.49,3.23.59,6.53.34,9.78,0Z"/>
              <path class="cls-26" d="M28.16,41.86c.23.22.74.26,1.11.37,1.21.35,7.67,2.32,8.18,2.71.12.09.05.25.06.37h-.8c-2.11-.88-4.35-1.39-6.52-2.09-.95-.31-2.74-.87-2.77-1.23.19-.03.63-.08.74-.12Z"/>
              <path class="cls-12" d="M44.39,42.48c-.69.09-1.39.17-2.09.25-.1-.77-2.18-.26-4.24-.37-2.74-.15-5.46-.65-8.18-.98.24-.08.5-.16.74-.25.68-.23,3.6-1.21,3.81-1.35.21-.14.43-.09.37-.37,1.82,1.05,6.26,2.54,8.18,2.83.7.1,1.51-.22,1.41.25Z"/>
              <path class="cls-14" d="M29.88,41.37c2.72.33,5.44.84,8.18.98,2.06.11,4.15-.4,4.24.37-3.24.34-6.54.59-9.78,0-1.3-.24-3.87-1.55-3.26-.49-.37-.1-.87-.14-1.11-.37,1.02-.4,1.49-.42,1.72-.49Z"/>
            </g>
          </g>
        </g>
      </g>
      <g>
        <path class="cls-20" d="M54.15,96.61l38.95-12.9s-12.01-56.8-15.25-57.95-39.61,8.83-39.61,8.83c0,0,17.16,56.12,15.91,62.01Z"/>
        <g>
          <path class="cls-10" d="M64.07,53.23c-5.5,1.49-11.03,2.85-16.55,4.28-.36.24-.75-.8-.63-.94,7.57-1.65,15.03-3.7,22.5-5.74,1.99-.54,13.61-4.04,14.36-4.07.88-.04.75.56.21.84-6.66,1.78-13.24,3.84-19.89,5.64Z"/>
          <path class="cls-10" d="M49.03,63.46l.05-.94c5.67-1.4,11.34-2.84,16.97-4.39,6.38-1.75,12.74-3.55,19.06-5.53.2.08.21.6.1.73-.16.18-3.98,1.26-4.59,1.46-10.39,3.35-21.02,5.97-31.59,8.67Z"/>
          <path class="cls-10" d="M55.66,47.59c.41.03.96.62-.31,1.04-.45.15-8.92,1.89-9.4,1.88-.83-.02-.87-.7-.42-.94,1.48-.02,9.61-2.02,10.13-1.98Z"/>
          <path class="cls-10" d="M86.52,58.45c-.53.69-10.31,3.76-11.9,4.28-7.92,2.57-15.93,4.99-23.96,7.1-.21-.36-.3-.66.1-.84l35.76-10.55Z"/>
          <path class="cls-30" d="M66.47,70.66c-1.8.58-13.31,4.49-14.04,4.49-.54,0-.62-.53-.1-.73,9.19-2.86,18.34-5.84,27.51-8.77,1.3-.42,7.28-2.44,7.67-2.51.21-.04.45,0,.31.1-7.02,2.75-14.18,5.1-21.35,7.41Z"/>
          <path class="cls-10" d="M75.55,73.28c.08.15.17.44.1.57-.29.61-11.38,3.9-12.58,4.75-2.31.48-4.49,1.41-6.74,2.09-1.92.58-3.2,1.37-2.56-.1q10.89-3.65,21.77-7.31Z"/>
        </g>
      </g>
    </g>
  </g>
</svg>