<?xml version="1.0" encoding="UTF-8"?>
<svg id="Capa_2" data-name="Capa 2" xmlns="http://www.w3.org/2000/svg" xmlns:xlink="http://www.w3.org/1999/xlink" viewBox="0 0 99.83 74.92">
  <defs>
    <style>
      .cls-1 {
        fill: url(#Degradado_sin_nombre_374);
      }

      .cls-1, .cls-2, .cls-3, .cls-4, .cls-5, .cls-6, .cls-7, .cls-8, .cls-9, .cls-10, .cls-11, .cls-12, .cls-13, .cls-14, .cls-15, .cls-16, .cls-17, .cls-18, .cls-19, .cls-20, .cls-21, .cls-22, .cls-23, .cls-24, .cls-25, .cls-26, .cls-27, .cls-28, .cls-29, .cls-30, .cls-31, .cls-32, .cls-33, .cls-34, .cls-35, .cls-36, .cls-37, .cls-38, .cls-39, .cls-40, .cls-41, .cls-42, .cls-43, .cls-44, .cls-45, .cls-46, .cls-47, .cls-48, .cls-49, .cls-50, .cls-51, .cls-52, .cls-53 {
        stroke-width: 0px;
      }

      .cls-2 {
        fill: #b26931;
      }

      .cls-3 {
        fill: #cd6f29;
      }

      .cls-4 {
        fill: #a5510d;
      }

      .cls-5 {
        fill: #2d240b;
      }

      .cls-6 {
        fill: url(#Degradado_sin_nombre_376);
      }

      .cls-7 {
        fill: #82786f;
      }

      .cls-8 {
        fill: #4c280e;
      }

      .cls-9 {
        fill: #291c1a;
      }

      .cls-10 {
        fill: #f1d00d;
      }

      .cls-11 {
        fill: url(#Degradado_sin_nombre_372);
      }

      .cls-12 {
        fill: #c48106;
      }

      .cls-13 {
        fill: url(#Degradado_sin_nombre_365);
      }

      .cls-14 {
        fill: #6a4c41;
      }

      .cls-15 {
        fill: #a72f0e;
      }

      .cls-16 {
        fill: url(#Degradado_sin_nombre_366);
      }

      .cls-17 {
        fill: #c55c09;
      }

      .cls-18 {
        fill: #fbf4be;
      }

      .cls-19 {
        fill: #996618;
      }

      .cls-20 {
        fill: url(#Degradado_sin_nombre_368);
      }

      .cls-21 {
        fill: url(#Degradado_sin_nombre_371);
      }

      .cls-22 {
        fill: #675f5c;
      }

      .cls-23 {
        fill: #c49974;
      }

      .cls-24 {
        fill: #3c1c0b;
      }

      .cls-25 {
        fill: #905617;
      }

      .cls-26 {
        fill: #dfdf28;
      }

      .cls-27 {
        fill: #752906;
      }

      .cls-28 {
        fill: #f4df65;
      }

      .cls-29 {
        fill: #b9b7c0;
      }

      .cls-30 {
        fill: #4a150a;
      }

      .cls-31 {
        fill: #202828;
      }

      .cls-32 {
        fill: #e7b77c;
      }

      .cls-33 {
        fill: #592513;
      }

      .cls-34 {
        fill: #100f08;
      }

      .cls-35 {
        fill: #e6a90f;
      }

      .cls-36 {
        fill: #5b370f;
      }

      .cls-37 {
        fill: #e5ba14;
      }

      .cls-38 {
        fill: #bf460d;
      }

      .cls-39 {
        fill: url(#Degradado_sin_nombre_375);
      }

      .cls-40 {
        fill: #ebebeb;
      }

      .cls-41 {
        fill: #f7d384;
      }

      .cls-42 {
        fill: #26232b;
      }

      .cls-43 {
        fill: #9e9e9f;
      }

      .cls-44 {
        fill: url(#Degradado_sin_nombre_364);
      }

      .cls-45 {
        fill: #de860d;
      }

      .cls-46 {
        fill: url(#Degradado_sin_nombre_369);
      }

      .cls-47 {
        fill: #eefb72;
      }

      .cls-48 {
        fill: #d8910b;
      }

      .cls-49 {
        fill: #612a07;
      }

      .cls-50 {
        fill: url(#Degradado_sin_nombre_373);
      }

      .cls-51 {
        fill: #80400a;
      }

      .cls-52 {
        fill: #d1d3d8;
      }

      .cls-53 {
        fill: #c16e0a;
      }
    </style>
    <linearGradient id="Degradado_sin_nombre_372" data-name="Degradado sin nombre 372" x1="22.38" y1="55.93" x2="25.49" y2="73.66" gradientUnits="userSpaceOnUse">
      <stop offset="0" stop-color="#682e06"/>
      <stop offset=".83" stop-color="#c38106"/>
    </linearGradient>
    <linearGradient id="Degradado_sin_nombre_366" data-name="Degradado sin nombre 366" x1="47.31" y1="62.52" x2="49.22" y2="70.2" gradientUnits="userSpaceOnUse">
      <stop offset="0" stop-color="#050504"/>
      <stop offset="1" stop-color="#380f06"/>
    </linearGradient>
    <linearGradient id="Degradado_sin_nombre_364" data-name="Degradado sin nombre 364" x1="32.74" y1="21.56" x2="30.81" y2="31.2" gradientUnits="userSpaceOnUse">
      <stop offset="0" stop-color="#a35704"/>
      <stop offset="1" stop-color="#652f06"/>
    </linearGradient>
    <linearGradient id="Degradado_sin_nombre_365" data-name="Degradado sin nombre 365" x1="68.52" y1="6.41" x2="71.23" y2="38.99" gradientUnits="userSpaceOnUse">
      <stop offset="0" stop-color="#efd40b"/>
      <stop offset=".57" stop-color="#e9ba0b"/>
      <stop offset=".69" stop-color="#e5ab0b"/>
      <stop offset="1" stop-color="#c06d06"/>
    </linearGradient>
    <linearGradient id="Degradado_sin_nombre_368" data-name="Degradado sin nombre 368" x1="41.52" y1="29.96" x2="26.01" y2="35.89" gradientUnits="userSpaceOnUse">
      <stop offset="0" stop-color="#d98d0b"/>
      <stop offset="1" stop-color="#5e2804"/>
    </linearGradient>
    <linearGradient id="Degradado_sin_nombre_371" data-name="Degradado sin nombre 371" x1="59.44" y1="11.5" x2="56.94" y2="30.88" gradientUnits="userSpaceOnUse">
      <stop offset="0" stop-color="#fceea5"/>
      <stop offset="1" stop-color="#f6d484"/>
    </linearGradient>
    <linearGradient id="Degradado_sin_nombre_369" data-name="Degradado sin nombre 369" x1="19.75" y1="42.92" x2="35.14" y2="46.07" gradientUnits="userSpaceOnUse">
      <stop offset="0" stop-color="#a2805d"/>
      <stop offset=".76" stop-color="#6e3510"/>
    </linearGradient>
    <linearGradient id="Degradado_sin_nombre_373" data-name="Degradado sin nombre 373" x1="73.95" y1="22.68" x2="75.13" y2="40.14" gradientUnits="userSpaceOnUse">
      <stop offset="0" stop-color="#e8b510"/>
      <stop offset="1" stop-color="#b66504"/>
    </linearGradient>
    <linearGradient id="Degradado_sin_nombre_374" data-name="Degradado sin nombre 374" x1="68.26" y1="27.47" x2="68.35" y2="41.89" gradientUnits="userSpaceOnUse">
      <stop offset="0" stop-color="#dfa60e"/>
      <stop offset="1" stop-color="#b46305"/>
    </linearGradient>
    <linearGradient id="Degradado_sin_nombre_375" data-name="Degradado sin nombre 375" x1="54.67" y1="52.58" x2="55.62" y2="57.47" gradientUnits="userSpaceOnUse">
      <stop offset="0" stop-color="#c26c0a"/>
      <stop offset="1" stop-color="#904006"/>
    </linearGradient>
    <linearGradient id="Degradado_sin_nombre_376" data-name="Degradado sin nombre 376" x1="50.9" y1="51.87" x2="40.67" y2="58.85" gradientUnits="userSpaceOnUse">
      <stop offset="0" stop-color="#7c3604"/>
      <stop offset="1" stop-color="#5e2605"/>
    </linearGradient>
  </defs>
  <g id="Capa_1-2" data-name="Capa 1">
    <g>
      <path class="cls-49" d="M13.02,53.78c.29.79.68,1.58.77,2.43.03.33-.02.69,0,1.02-.79-.26-1.76-.89-2.75-.51-.71.27-8.74,7.07-9.77,8.56-.39-.48-.69-.89-1.02-1.4.12-.78.16-1.68.38-2.43.57.52,1.05-.97,1.66-1.72,1.72-2.12,5.09-5.33,6.51-7.21.62.55,2.65-.09,3.89,0-.18.36-.31,1.89.32,1.28Z"/>
      <path class="cls-30" d="M14.81,38.84c-.12,1.41.16,6.18,0,6.7-2.29,1.24-1.03,4.11-2.04,7.53l.26.7c-.63.61-.5-.91-.32-1.28-1.25-.09-3.27.55-3.89,0,.62-.82,1.65-2.52,2.17-3.45.53-.96,1.91-3.51,1.28-3.32,0-.02,0-.11.13-.38,1.21-2.38,1.67-4.1,2.3-6.64l.13.13Z"/>
      <path class="cls-4" d="M10.98,49.06c-.52.93-1.55,2.63-2.17,3.45-1.42,1.89-4.79,5.1-6.51,7.21-.61.75-1.09,2.25-1.66,1.72,1.3-4.39,5.89-7.28,9.45-12.39h.89Z"/>
      <path class="cls-9" d="M91.17,53.4s-.22.49-.26.64c-.17.59-.04.67,0,.89.06.33.22.5.26.64-.64-.1-.19-1.24-1.02-1.02.23-1.2.5-2.38.77-3.58.97.94.42,1.27.26,2.43Z"/>
      <path class="cls-19" d="M10.98,49.06h-.89c.39-.56,1.98-2.96,2.17-3.32.64-.19-.74,2.36-1.28,3.32Z"/>
      <g>
        <path class="cls-8" d="M1.27,65.28c4.62,5.59,18.83,8.21,25.79,8.68-1.36.49-2.65.37-3.89.26-.06,0-1.07-.37-1.15-.38-1.25-.17-2.57-.1-3.7-.64-3.29-.47-6.68-1.29-9.83-2.43-.28-.1-1.54-.98-1.47-.51-.66-.29-1.28-.55-1.92-.89-.9-.49-1.95-1.02-2.75-1.66-3.3-2.64-2.21-3.17-2.11-3.83.34.51.63.93,1.02,1.4Z"/>
        <path class="cls-11" d="M13.79,57.23c.84.28,1.03.49,1.09.51.15.05.24-.13.26-.13.08.03.77.65,1.53.89,6.13,1.36,12.4,2.53,18.71,2.3.46-.02,1.02-.18,1.53-.13.02,0,.12-.01.38.13.31.16.98.37,1.15.64.18.28.1.43.13.51.11.34-.28.66.38.89-.11.04-.34-.09-.51.19-.04.3.05.69,0,.96-.53,2.69-.79,5.46-1.21,8.17,3.4-1.02,6.79-2.06,10.15-3.19.53.68-1.82.49-2.17,1.4-7.07,2.35-10.42,4.09-18.13,3.58-6.97-.47-21.17-3.09-25.79-8.68,1.03-1.48,9.06-8.28,9.77-8.56.98-.38,1.96.25,2.75.51Z"/>
      </g>
      <path class="cls-37" d="M90.02,47.27c-1.56.57-6.21,2.2-6.32,3.19-1.35.1-1.03.35-1.09.38-.27.13-1.99.58-2.04.7,2.75,2.47,5.68,4.79,8.11,7.6.09-.12.2-.18.32-.26v.38c-.08-.05-.15.15-.26.13-.36-.51-6.19-5.93-6.64-6.13-1.66-1.85-1.89-1.74-4.21-.38-5.71,2.61-7.03,6.54-14.88,10.6-4.38,2.27-12.92,5.27-17.81,6.9.35-.91,2.7-.72,2.17-1.4,6.18-2.09,12.22-4.28,17.62-8.04.33-.06.8.28.96.26.25-.04,3.98-2.83,4.09-3.06.32-.68-.57-.39-.06-1.28.15-.26,3.52-3.66,4.02-4.47,3.29-1.04,6.5-2.34,9.77-3.45.08-.03.43-.01.77-.13.84-.28,4.89-1.38,5.24-1.79l.26.26Z"/>
      <path class="cls-22" d="M14.94,38.21s0,.09,0,.13c-.07.66-.13.48-.13.51l-.13-.13c.06-.23.16-.45.13-.7l.13.19Z"/>
      <path class="cls-48" d="M95.64,38.08c.09.86-.06,1.86,0,2.75.21.53,6.26,2.21,3.45,5.62-1.29,1.57-5.53,1.45-7.53,1.98h-.26v-.13c.99-.32,1.97-.52,3-.64.99-1.28,5.49-1.33,3.38-2.17,1.02-.39,1.44.05.89-1.92-.66-2.38-3.83-1.33-3.19-4.34v-1.15c.06.02.17,0,.26,0Z"/>
      <g>
        <path class="cls-53" d="M91.3,48.29v.13l-.26,1.79c-.06.24-.07.53-.13.77-.27,1.19-.53,2.38-.77,3.58-.24,1.22-.48,2.47-.64,3.7-.08.08-.07.36-.51.64-.12.08-.23.14-.32.26-2.43-2.81-5.35-5.13-8.11-7.6.05-.12,1.77-.57,2.04-.7.29-.05.25.12.26.13.55.62,4.97,4.65,5.43,4.6.94-.1,1.48-5.75,1.6-6.77.48-.15.92-.36,1.4-.51Z"/>
        <path class="cls-49" d="M91.55,48.42c-.2.59-.37,1.19-.51,1.79l.26-1.79h.26Z"/>
      </g>
      <path class="cls-24" d="M16.98,55.83c-.02.77-.49.98.64.89.01.06.2.08.45,1.15h.96l15.83,1.66c.08,0,.19-.02.26,0,.07.02,1.08.71,1.15.89-.84-.27-.96-.76-.89.38-6.31.23-12.58-.94-18.71-2.3-.77-.24-1.45-.87-1.53-.89-.02,0-.1.18-.26.13-.06-.02-.24-.23-1.09-.51-.02-.34.03-.69,0-1.02h.13c.3.02.6-.03.89,0,1.09.09,1.57.59,2.17-.38Z"/>
      <g>
        <g>
          <path class="cls-42" d="M82.1,53.27l-.45-.26-5.11,1.02c-.5-.26,1.11-1.01,1.34-1.15,2.32-1.36,2.55-1.46,4.21.38Z"/>
          <g>
            <path class="cls-16" d="M77.89,52.89c-.23.14-1.84.89-1.34,1.15l5.11-1.02.45.26c.45.2,6.28,5.62,6.64,6.13.02.02,0,.15,0,.26-.13.04-.26.09-.38.13-1.8.58-3.57,1.21-5.36,1.79-5.1,1.64-10.37,2.85-15.2,5.24-3.32,1.22-6.6,2.67-10.02,3.58-3.43.9-21.57,4.28-24.64,4.47-3.4.2-6.9-.08-10.28-.51-4.98-.63-11.24-2.06-15.83-4.09-.07-.47,1.19.41,1.47.51,3.15,1.14,6.54,1.95,9.83,2.43,1.13.54,2.46.47,3.7.64.08.01,1.09.38,1.15.38,1.24.12,2.54.24,3.89-.26,7.71.52,11.06-1.22,18.13-3.58,4.9-1.63,13.43-4.63,17.81-6.9,7.85-4.06,9.17-7.99,14.88-10.6Z"/>
            <path class="cls-40" d="M7.02,70.26c4.6,2.03,10.85,3.46,15.83,4.09-3.82.39-14.79-2.7-17.56-4.6-.13-.09-.23-.21-.19-.38.63.34,1.26.6,1.92.89Z"/>
            <path class="cls-33" d="M66.01,66.3c.04.8,1.38.18,1.79-.13.24.35.12.33-.19.51-.53.31-7.23,2.75-8.3,3.06-3.01.88-6.15,1.3-9.19,2.04-.54.1-.97-.22-.51-.51,2.45-.53,5.13-.73,7.53-1.4,3.03-.85,5.93-2.46,8.87-3.58Z"/>
            <path class="cls-8" d="M67.8,66.17c-.4.3-1.75.93-1.79.13.45-.17,1.26-.76,1.34-.77.31-.02,1.02.21.45.64Z"/>
          </g>
        </g>
        <path class="cls-30" d="M91.17,55.57c.13.57.46.29,0,1.02-.06.1-1.39,1.39-1.66,1.66.16-1.24.4-2.48.64-3.7.83-.22.38.92,1.02,1.02Z"/>
      </g>
      <path class="cls-30" d="M38.94,60.3c-.05.45-.08,1.35-.51,1.15-.17-.27-.84-.48-1.15-.64.37-2.51.38-5.91,1.66-8.04-.15,2.14.19,5.71,0,7.53Z"/>
      <path class="cls-35" d="M91.3,48.29c-.49.16-.93.36-1.4.51-2.33.73-4.72,1.31-7.02,2.17,0-.01.04-.17-.26-.13.06-.03-.26-.29,1.09-.38.11-.99,4.76-2.63,6.32-3.19.72-.26,1.61-.33,2.3-.77.73,0,1.98-.12,2.68-.26.25-.05.7-.12.77-.38.07.04.18.12.26.13.11.01.12-.12.26-.13.4-.03,1.02-.24,1.4-.38,2.11.84-2.39.89-3.38,2.17-1.03.12-2.01.32-3,.64Z"/>
      <path class="cls-37" d="M64.99,60.94c1.52-1.06,3.38-2.43,4.6-3.83.15-.17.27-.13.26-.26h.13c-.51.89.39.59.06,1.28-.11.23-3.83,3.03-4.09,3.06-.16.02-.63-.31-.96-.26Z"/>
      <path class="cls-47" d="M90.15,46.38c.74-.07,1.44.13,2.17.13-.69.44-1.58.5-2.3.77l-.26-.26c-.08-.73.28-.59.38-.64Z"/>
      <path class="cls-34" d="M89.89,48.8c-.11,1.02-.66,6.67-1.6,6.77-.45.05-4.87-3.97-5.43-4.6,2.3-.86,4.69-1.44,7.02-2.17Z"/>
      <g>
        <path class="cls-29" d="M14.04,50.59c-.1,1.86-.25,3.75-.13,5.62h-.13c-.09-.84-.48-1.64-.77-2.43.1-.1.41-1.82.26-2.11.6-.31.35-.92.77-1.09Z"/>
        <path class="cls-30" d="M16.21,47.02c.13.09.98.72,1.02.77.16.16.37.26.51.45-.1,1.68-.22,3.37-.38,5.04,0,.02-.08-.13-.13.38-.57-.91.67-3.64-.06-4.34-.29-.28-1.16-.36-1.21-.38-.43-.21-1.71-.71-1.79-.77-1.37-.88.43-2.16.57-2.17.09,0,1.26.88,1.47,1.02Z"/>
        <path class="cls-30" d="M17.24,53.66c-.07.72-.24,1.45-.26,2.17-.6.98-1.08.48-2.17.38l1.15-7.28c.06.03.92.1,1.21.38.73.71-.51,3.43.06,4.34Z"/>
        <path class="cls-51" d="M15.96,48.93l-1.15,7.28c-.29-.03-.6.02-.89,0-.12-1.87.03-3.76.13-5.62.04-.81.04-1.62.13-2.43.08.05,1.35.56,1.79.77Z"/>
      </g>
      <g>
        <path class="cls-32" d="M45.07,62.21c1.47.78-4.69,1.29-6.64,1.79.05-.27-.04-.66,0-.96.17-.28.4-.15.51-.19.68-.26,2.88-.27,3.83-.38.76-.09,1.53-.16,2.3-.26Z"/>
        <path class="cls-2" d="M43.28,61.7c.15.85-.54.26-.51.77-.95.11-3.15.12-3.83.38-.66-.23-.27-.55-.38-.89,1.57.16,3.17-.11,4.72-.26Z"/>
        <path class="cls-4" d="M53.76,60.3c-.16.37-.1.64-.32.77-2.79.38-5.57.8-8.36,1.15-.76.1-1.53.17-2.3.26-.03-.51.66.08.51-.77,3.52-.33,6.98-.88,10.47-1.4Z"/>
        <g>
          <path class="cls-41" d="M67.29,57.87c.81-.16,1.53-.49,2.3-.77-1.22,1.4-3.07,2.77-4.6,3.83-5.4,3.76-11.44,5.96-17.62,8.04-3.36,1.13-6.76,2.17-10.15,3.19.42-2.71.69-5.48,1.21-8.17,1.95-.49,8.11-1.01,6.64-1.79,2.79-.35,5.57-.77,8.36-1.15.22-.12.16-.39.32-.77.03-.08-.08-.3.13-.64.38-.62,2.28-.7,3.06-.89.89-.22,1.71-.24,1.98-.77.76.26,1.48.02,2.23-.13.83-.16,1.76-.46,2.55-.77,1.8.36,1.67,1.15,3.58.77Z"/>
          <path class="cls-38" d="M54.59,60.04c.26-.1,1.34.83,1.47,1.21-2.65.93-1.62-1.15-1.47-1.21Z"/>
        </g>
      </g>
      <g>
        <path class="cls-37" d="M95.64,38.08c-.08,0-.19.02-.26,0-.69-.21-1.74-1.01-2.49-1.28-.41-.21.19-.46.19-.77,0-.08,0-.17,0-.26.93.34,1.9.69,2.55,1.47.02.27-.03.56,0,.83Z"/>
        <path class="cls-53" d="M95.38,39.23c-.64,3.01,2.53,1.97,3.19,4.34-.49-.34-1.21-.85-1.66-.26.02-.91-.07-.39-2.36-1.15-.12.17-.11.31-.06.51-1.33.88-2.95,1.12-4.41,1.79-.4.19-.9.9-1.4,1.15-.4.2-.73-.02-.77,0-.92.4-1.78,1.33-2.11.77-.16-4.02-.55-3.53-3.96-1.98.27.9.3,1.84.51,2.75-.47.35-.22-.6-.57-.64-.21-.02-2.65,2.62-3.06,2.94-3.1.86-5.55,2.63-7.92,4.72l-1.09-7.53c6.93-1.97,17.59-6.2,23.37-7.41.39-.08.84-.1,1.15-.26.38.14.72.33,1.15.26Z"/>
        <path class="cls-26" d="M93.08,39.23c-5.78,1.21-16.43,5.44-23.37,7.41-1.02.29-2.15.46-3.19.64-.33-.82,1.12-.87,2.81-1.4,7.23-2.3,14.4-4.84,21.77-6.64.29-.15.4-.39.57-.64.41-.29,1.57.13,1.4.64Z"/>
        <g>
          <path class="cls-53" d="M93.08,36.04c0,.31-.6.55-.19.77.75.26,1.8,1.07,2.49,1.28v1.15c-.43.07-.77-.12-1.15-.26-.75-.28-1.59-.67-2.23-1.15-.35.26-.29.73-.32.77-.18.24-.29.49-.57.64-7.37,1.8-14.54,4.34-21.77,6.64.08-.61-1.16.47-1.53-.45-.02-.04-.02-.85,0-.89.08-.15,1.02-.58,1.28-.7.67-.31,3.25-1.15,4.34-1.53.07-.02.49-.07,1.02-.26,1.74-.6,3.49-1.22,5.24-1.79.15-.05.36-.08.51-.13,1.49-.49,5-1.43,5.75-1.79.15-.07.49.12.64-.19.05-.12-.22-1.33-.26-1.72,1.38,0,4.45-.69,2.36-1.15,4.75-1.64,3.48-2.83,3.89-.19.04.26.27.77.51.96Z"/>
          <path class="cls-38" d="M91.74,36.29s.68.29.7.32c.51.56-.72,1.09-.77,1.15-.36.43.04,1.24-1.98,1.47.21-.38,1.87-2.9,2.04-2.94Z"/>
          <path class="cls-26" d="M94.23,38.97c-.31.16-.75.17-1.15.26.17-.51-.99-.93-1.4-.64.02-.03-.03-.51.32-.77.64.48,1.48.87,2.23,1.15Z"/>
        </g>
        <path class="cls-4" d="M82.36,47.14c.08.36.1,1.04.13,1.09.16.29.99.41,1.28.7-3.27,1.11-6.48,2.41-9.77,3.45-.5.81-3.87,4.21-4.02,4.47h-.13c-3.21,1.13-.6.37-1.53-4.02-.39-1.85-1.71-3.34-2.17-5.17h-.26s.02-.31.19-.51c.27-.07.36.14.45.13,1.05-.18,2.18-.35,3.19-.64l1.09,7.53c2.37-2.1,4.81-3.86,7.92-4.72.42-.32,2.85-2.96,3.06-2.94.36.04.1.99.57.64Z"/>
        <path class="cls-4" d="M94.74,43.19c.29,2.74-1.68,1.44-2.87,3.06-.57.06-1.18-.14-1.72.13-.1.05-.47-.09-.38.64-.35.41-4.4,1.5-5.24,1.79l1.28-2.43c.33.57,1.19-.36,2.11-.77.04-.02.37.2.77,0,.5-.25,1-.96,1.4-1.15,1.45-.67,3.08-.91,4.41-1.79,0,.03.06.04.26.51Z"/>
        <path class="cls-45" d="M66.14,47.66c-.22.29-.59.46-.89.64-.29.18-.59.35-.89.51-.23.06.09-.37.26-.51.05-.05.55-.15,1.28-.64h.26Z"/>
        <g>
          <path class="cls-15" d="M98.58,43.57c.54,1.97.13,1.52-.89,1.92-.38.15-1.01.35-1.4.38.07-.83.62-1.74.64-2.55.45-.6,1.17-.08,1.66.26Z"/>
          <path class="cls-17" d="M96.92,43.31c-.02.81-.57,1.72-.64,2.55-.13.01-.15.14-.26.13.34-.84-.95-2.05-1.28-2.81-.2-.47-.25-.48-.26-.51-.04-.2-.05-.34.06-.51,2.29.76,2.38.24,2.36,1.15Z"/>
        </g>
        <path class="cls-33" d="M67.29,57.87c-1.9.38-1.78-.41-3.58-.77-.37-.13-.27-.55-.26-.83.11-1.78.37-3.78.64-5.55.09-.6.04-1.33.26-1.92.3-.16.6-.33.89-.51.16,2.07,1.09,4.1,1.4,6.19.28,1.85-.19,3.29.64,3.38Z"/>
        <path class="cls-27" d="M69.84,56.85c.01.13-.11.08-.26.26-.77.27-1.49.6-2.3.77-.83-.1-.36-1.53-.64-3.38-.32-2.09-1.24-4.12-1.4-6.19.3-.18.67-.35.89-.64.46,1.83,1.78,3.32,2.17,5.17.93,4.39-1.68,5.15,1.53,4.02Z"/>
        <path class="cls-15" d="M96.02,46c-.08-.01-.18-.08-.26-.13-.58-.37-.5-1.63-.77.38-.71.14-1.95.25-2.68.26-.73,0-1.44-.2-2.17-.13.55-.26,1.15-.07,1.72-.13,1.19-1.63,3.16-.33,2.87-3.06.33.76,1.62,1.97,1.28,2.81Z"/>
        <path class="cls-18" d="M95.77,45.87c-.06.27-.51.33-.77.38.27-2.01.18-.75.77-.38Z"/>
        <g>
          <path class="cls-34" d="M85.81,46.38l-1.28,2.43c-.34.12-.69.1-.77.13-.29-.29-1.12-.41-1.28-.7-.03-.05-.04-.73-.13-1.09-.22-.91-.25-1.85-.51-2.75,3.4-1.55,3.8-2.04,3.96,1.98Z"/>
          <path class="cls-31" d="M84.59,43.44c.85-.03,1.47,3.27,0,4.09-1.73.96-1.34-2.44-1.85-3.38.36-.13,1.75-.7,1.85-.7Z"/>
        </g>
      </g>
      <g>
        <path class="cls-44" d="M45.97,3.47c-1.19.65-2.31,1.55-3.45,2.3-1.84,1.21-3.54,2.41-5.24,3.83-1.26,1.06-2.67,2.08-3.7,3.38-2.42,3.06-5.11,10.74-6.13,14.62-.35,1.34-.68,2.72-.89,4.09-.06.11-.1.25-.26.26.02-.17.12-1.11.06-1.15-3.27.7-2.56,1.51-4.92-.89,2.39-6.67,6.98-11.38,7.15-12.07.04-.16-.19-.23-.13-.45,1.54-2.97,3.33-2.7,2.17-5.62.08-.04.18-.08.26-.13-.04.44-.04.6.45.51.4-.08,5.63-4.22,6.58-4.66l-.51-.32c.8-.43,1.61-.77,2.43-1.15,1.93-.9,3.98-1.56,5.87-2.55.06.02.17,0,.26,0Z"/>
        <path class="cls-10" d="M73.04,5.01c.89.5,1.52,1.03,2.3,1.66-4.41-1.9-6.28-3.29-11.24-2.04-1.66.42-2,.71-3.45,1.4-1.78.86-2.12,1.12-3.7,2.17-1.07.71-2.13,1.36-3.13,2.17-.62.51-3.49,3.52-2.36,1.79,3-2.97,6.38-5.77,10.41-7.15.99-1.02-3.95,1.15-5.24,1.53-2.87.85-6,1.08-8.62,2.68.02-.01-.07-.22.19-.38.78-.48,3.07-1.18,3.13-1.34-.04-.48-.74-1.03-.77-1.09-.16-.32-.27-.8-.38-1.15-.21-.29.74-.7,1.47-1.02,6.38-2.81,9.66-1.49,10.09-1.79.08-.06.11-.93.06-1.02.18.31.14.5.13.83.28.51,5.57-.35,11.11,2.75Z"/>
        <path class="cls-10" d="M61.8,1.43c-.26-.56-4.01-.49-4.66-.38-1.07.17-6.29,2.44-6.96,3.06-.15-.47.57-1.04.06-1.15-.38-.08-5.47,1.99-7.09,3.19.08-.51-.16-.38-.64-.38,1.14-.75,2.25-1.65,3.45-2.3,3.95-2.16,8.78-4.03,13.34-3.32,1.48.23,1.97.35,2.49,1.28Z"/>
        <path class="cls-37" d="M45.71,3.47c-1.89.99-3.94,1.65-5.87,2.55-.07-.42.66-1.02,1.02-1.28,1-.72,3.7-1.61,4.85-1.28Z"/>
        <path class="cls-13" d="M79.04,10.37c1.79,1.8,3.49,3.53,5.11,5.49.16.75-.23,1.58.26,2.3l-.13.26s-.47-.35-.51-.38c-.13-1-2.15-2.47-3-3.32-.2.09,1.11,2.64,1.21,2.75.33.32.52.13.64.19.02.11-.15.14-.13.26h-.26c-1.26-.85-1.87-2.62-3.32-1.21.62.73-.39-.03-.57-.06-.38-.07-.49.13-.57.13-.03,0,.08-.47-.26-.06.01.11.25.05.26.06.59,1.64,1.64,2.8,2.68,4.41.45.62,2.59,5.15,2.81,5.36.11.11.25.06.38.06,1.34,3.33,1.44,5.14,1.92,8.56.15,1.06.47,2.1.38,3.19-.74.36-4.25,1.3-5.75,1.79-.18-1.1-.24-2.22-.38-3.32-.24-1.83-.49-3.67-.77-5.49-.23-1.56.01-1.58,0-1.66-.53-3.19-2.05-6.41-3.83-9.07-.17-.25-.33-.52-.51-.77-.48-.66-.98-1.31-1.34-2.04-.16-.04-.67.8-.83.89-.06.04-.91.38-.96.38-1.01.02.44-.82,1.34-2.62-2.79-3.8-9.13-6.84-13.73-5.17-1.78.65-3.29,2.4-4.92,3,2.6-2.47,5.18-4.96,8.36-6.7-1.98.46-5.68,2.54-7.34,3.7l3.7-2.81c1.3-.55,1.94-1.1,2.04-1.15,1.36-.6,2.75-1.21,4.21-1.53,5.98-1.3,8.93,1.93,13.79,4.6Z"/>
        <path class="cls-48" d="M92.57,32.59c.13.87.49,2.44.51,3.19,0,.08,0,.17,0,.26-.24-.18-.47-.7-.51-.96-.41-2.64.86-1.45-3.89.19,2.09.46-.99,1.14-2.36,1.15-.04-.51-.07-1.02-.13-1.53-.23-2.05-.66-4.08-.89-6.13.73.19.98.16,1.53-.38.57,1.61,1.57,4.41.89.77.12-.05.75-.28.77-.32.1-.23-1.43-4.1-1.66-4.66.76-.35.82-1.64.77-2.49,0-.09.27-.04.26-.13-.06-.32-.79-.97-1.02-1.28.03-.5-.15-1.17-.38-1.6,3.69,4.24,5.3,8.43,6.13,13.92Z"/>
        <path class="cls-48" d="M75.34,6.67c1.69,1.38,2.34,2.33,3.7,3.7-4.86-2.67-7.81-5.9-13.79-4.6l-1.15-1.15c4.96-1.25,6.82.14,11.24,2.04Z"/>
        <path class="cls-51" d="M25.28,18.92c-.3,1.29-1.53,2.76-2.17,4.02-.55,1.09-1.04,2.26-1.53,3.38-.81.47-.64-.39-1.15-.38.26-.76.47-1.7.51-1.79.73-1.72,2.11-3.57,3.19-5.11.1-.14.12-.12.13-.13,0-.01.25-.12.26-.13.06.34.46.21.77.13Z"/>
        <path class="cls-35" d="M86.44,18.67c.23.43.41,1.1.38,1.6.24.31.96.95,1.02,1.28.02.09-.26.04-.26.13.06.85,0,2.14-.77,2.49-.34-.83-.76-1.62-1.15-2.43-.69-1.44-1.3-3.18-1.4-3.32l.13-.26c.38.57,1.04.33,1.47,1.02l.06-1.15c.06.09.25.15.51.64Z"/>
        <path class="cls-53" d="M30.9,11.65c.5-.28,3.18-2.69,6.51-4.47l.51.32c-.95.44-6.18,4.59-6.58,4.66-.48.09-.48-.07-.45-.51Z"/>
        <path class="cls-45" d="M85.93,18.03l-.06,1.15c-.43-.69-1.08-.45-1.47-1.02-.48-.71-.09-1.55-.26-2.3.62.75,1.25,1.32,1.79,2.17Z"/>
        <path class="cls-20" d="M37.28,9.6c1.23,1.89-1.25,2.52,0,2.81-1.39,1.96-.19.99-.13,1.85.01.14-.9,2.24-1.02,2.68-.95,3.46-1.67,6.93-2.81,10.34-.04.13-.34,0-.38.13-1.05,3.18-2.16,6.29-2.62,9.77,2.9-11.82,7.02-18.35,15.64-26.82.17.14.52-.06.64-.13-1.38,1.34-5.79,5.68-6.26,7.21-.04,1.4-.75,4.13-.77,5.24-.02,1.61,1.33,2.14,1.47,2.11.26-.05,2.96-3.68,3.38-4.21.05.63-1.08,1.78-1.92,3.45-1.14,2.28-1.95,4.76-2.81,7.15-.48,1.32-.98,2.61-1.4,3.96-.3-.7-.7.56-.89,1.09-2.18,5.77-3.28,12.31-3.06,18.45-1.24-1.95-3.15-3.45-4.34-5.43-2.31-3.82-3.41-9.94-4.47-14.3.14-1,.67-2,.77-3,.15,0,.19-.15.26-.26.2-.33,1.63-4.3.89-4.09,1.02-3.88,3.71-11.56,6.13-14.62,1.03-1.3,2.44-2.33,3.7-3.38Z"/>
        <path class="cls-49" d="M21.45,29.91c-.03.09-.42.21-.77,1.79-.44-.36-.73.95-1.53,1.53.03-.2-.2-.35-.13-.7,1.18-1.88,1.67-4.16,2.55-6.19.49-1.12.98-2.3,1.53-3.38.64-1.26,1.87-2.73,2.17-4.02.45-.12.98-.46,1.4-.64.19-.08.44-.02,1.02-.38.26-.16.54-.27.77-.51-.06.21.17.28.13.45-.17.68-4.76,5.39-7.15,12.07Z"/>
        <path class="cls-37" d="M42.52,5.77c.48,0,.72-.12.64.38-.98.73-5.12,5.2-5.87,6.26-1.25-.29,1.23-.92,0-2.81,1.69-1.42,3.39-2.62,5.24-3.83Z"/>
        <path class="cls-53" d="M26.56,31.69c.22-1.37.54-2.75.89-4.09.73-.21-.7,3.75-.89,4.09Z"/>
        <path class="cls-41" d="M50.18,4.11c-.15.14-.21.32-.38.45-.04.38.37.66.38.7.11.35.22.83.38,1.15-1.65,1.2-3.14,2.53-4.6,3.96-8.62,8.46-12.75,15-15.64,26.82.45-3.48,1.57-6.59,2.62-9.77.04-.13.34,0,.38-.13,1.13-3.41,1.86-6.89,2.81-10.34.12-.44,1.03-2.54,1.02-2.68-.06-.87-1.27.1.13-1.85.75-1.06,4.89-5.53,5.87-6.26,1.61-1.2,6.71-3.28,7.09-3.19.51.11-.21.68-.06,1.15Z"/>
        <path class="cls-41" d="M51.46,12.16c-2.69,2.65-4.7,5.5-7.02,8.43-.43.54-3.12,4.16-3.38,4.21-.14.03-1.49-.49-1.47-2.11.01-1.1.73-3.83.77-5.24.47-1.53,4.88-5.88,6.26-7.21.54-.29.91-.7,1.4-1.02,2.62-1.6,5.75-1.83,8.62-2.68,1.28-.38,6.23-2.55,5.24-1.53-4.03,1.38-7.4,4.18-10.41,7.15Z"/>
        <path class="cls-4" d="M56.95,8.2c.66.33.47.82.57.89.06.05,1.27-.55,1.47-.64l-3.7,2.81c-4.52,3.16-9.33,9.36-12,14.17-.13-1.06.55-.87-.77-1.4.84-1.66,1.97-2.82,1.92-3.45,2.33-2.93,4.34-5.77,7.02-8.43-1.12,1.73,1.74-1.28,2.36-1.79.99-.81,2.06-1.47,3.13-2.17Z"/>
        <path class="cls-35" d="M61.8,1.43c.04.09.02.96-.06,1.02-.42.3-3.7-1.02-10.09,1.79-.72.32-1.68.73-1.47,1.02-.01-.04-.43-.32-.38-.7.17-.13.23-.31.38-.45.67-.62,5.88-2.89,6.96-3.06.65-.1,4.4-.18,4.66.38Z"/>
        <path class="cls-53" d="M60.65,6.03c.59.2.59.76.38,1.28-.11.05-.75.6-2.04,1.15-.2.09-1.4.69-1.47.64-.11-.08.08-.56-.57-.89,1.58-1.05,1.92-1.31,3.7-2.17Z"/>
        <path class="cls-45" d="M64.1,4.62l1.15,1.15c-1.46.32-2.86.93-4.21,1.53.2-.51.21-1.08-.38-1.28,1.45-.7,1.79-.99,3.45-1.4Z"/>
        <path class="cls-37" d="M48.01,9.22c-.5.32-.87.73-1.4,1.02-.12.07-.47.26-.64.13,1.46-1.43,2.95-2.76,4.6-3.96.03.06.72.61.77,1.09-.06.16-2.35.86-3.13,1.34-.26.16-.17.37-.19.38Z"/>
        <path class="cls-21" d="M72.53,18.67c-.02.31.53.72.64.89.01.02-.03.13.13.38-.78-.34-.36-.74-.89-.26-.63.58-2.04,4.58-2.81,5.62-.19-.3-1.06-1.87-1.21-1.92-.15-.04-1.07.21-1.09.57-.01.28,1.66,3.09,2.43,5.04.35.9.48,1.82.51,1.92l-.13.38c-.95-1.96-1.87-3.94-2.87-5.87l-4.02,2.94c-.08-.12-.65-.89-.7-.89-.06,0-1.07.64-1.09.7-.04.18,1.34,3.04,1.53,3.38-.07.94,1.66,2.76.89,3.32-.14-.28-.24-.6-.38-.89-.3-.6-2.23-4.76-2.49-4.85-.9-.33-3.06,2.58-3.32,2.68-.41.16-2.51.11-3.32.38l-2.81-2.81c-3.1-.45-6.05-1.53-9-2.55.24-.48.51-.94.77-1.4,2.67-4.81,7.48-11.02,12-14.17,1.66-1.16,5.36-3.24,7.34-3.7-3.18,1.74-5.76,4.23-8.36,6.7,1.63-.6,3.14-2.35,4.92-3,4.59-1.67,10.93,1.37,13.73,5.17-.9,1.8-2.35,2.64-1.34,2.62.05,0,.89-.34.96-.38Z"/>
        <path class="cls-45" d="M83.38,22.88c.75,1.47,1.71,4.23,1.92,5.87.23,2.05.66,4.08.89,6.13l-.64.26c-.48-3.42-.58-5.23-1.92-8.56-.6-1.5-2.82-5.77-3.7-7.15l.64-.51c.93,1.31,2.06,2.5,2.81,3.96Z"/>
        <path class="cls-10" d="M82.23,17.9c.44.83.97,1.65,1.28,2.55.17.51.98,2.28-.13,2.43-.75-1.46-1.87-2.65-2.81-3.96-.26-.36-.34-.89-.77-1.15.23-.18,1.26.68,1.66.45-.4-.79-.97-2.32-2.11-1.72-.39.2,1.23,1.36-1.34.45.45.8,1.34,1.63,1.4,1.72.16.24.36.52.51.77.88,1.38,3.1,5.65,3.7,7.15-.13,0-.27.05-.38-.06-.21-.21-2.36-4.74-2.81-5.36-1.04-1.61-2.09-2.77-2.68-4.41.09,0,.19-.2.57-.13.18.03,1.2.79.57.06,1.45-1.41,2.06.37,3.32,1.21Z"/>
        <path class="cls-10" d="M83.76,18.03s.49.36.51.38c.11.14.72,1.88,1.4,3.32-.53-.01-.32.43-.26.77-.9-2.28-2.89-4.33-2.94-4.6-.02-.11.15-.14.13-.26.36.17.83.17,1.15.38Z"/>
        <path class="cls-53" d="M79.8,36.8l-.64-.13c-.22-1.66-.5-3.32-.77-4.98l.64-.38c.27,1.82.53,3.66.77,5.49Z"/>
        <path class="cls-36" d="M83.76,18.03c-.32-.21-.79-.21-1.15-.38-.12-.06-.31.13-.64-.19-.11-.11-1.41-2.65-1.21-2.75.85.85,2.88,2.32,3,3.32Z"/>
        <path class="cls-53" d="M82.49,17.9c.05.27,2.03,2.32,2.94,4.6.03.16.08.36.13.51l-.38.13c-.41-.95-1.04-1.86-1.66-2.68-.31-.9-.83-1.72-1.28-2.55h.26Z"/>
        <path class="cls-48" d="M79.04,29.65c.01.08-.23.1,0,1.66l-.64.38c-.4-1.11-.72-3.29-.89-3.83l1.53,1.79Z"/>
        <path class="cls-4" d="M79.8,36.8c.14,1.1.2,2.22.38,3.32-.15.05-.36.08-.51.13-.37-1.16-.35-2.38-.51-3.58l.64.13Z"/>
        <path class="cls-53" d="M86.32,36.42c.03.39.31,1.61.26,1.72-.15.31-.49.12-.64.19.08-1.09-.23-2.13-.38-3.19l.64-.26c.06.51.09,1.02.13,1.53Z"/>
        <g>
          <path class="cls-49" d="M75.21,20.58c1.78,2.66,3.3,5.88,3.83,9.07l-1.53-1.79c-.47-1.45-2.5-5.83-3.58-6.9-.12-.25-.26-.42-.38-.64l1.66.26Z"/>
          <path class="cls-5" d="M74.7,19.82l-1.53-.26c-.11-.18-.66-.58-.64-.89.16-.1.67-.93.83-.89.36.74.86,1.38,1.34,2.04Z"/>
          <path class="cls-35" d="M74.7,19.82c.18.25.34.51.51.77l-1.66-.26s-.16-.22-.26-.38c-.15-.25-.12-.37-.13-.38l1.53.26Z"/>
        </g>
        <path class="cls-10" d="M77.76,16.75s-.24.04-.26-.06c.33-.41.23.06.26.06Z"/>
        <path class="cls-24" d="M20.43,25.95c-2.37,6.81-1.92,9.17-2.94,14.17-.05.25-1.35,2.53-.38,2.68l.13,4.72c-.73-.85-.3-2.29-.38-3.38-.2-2.5-.58-5.03-.77-7.53-.03-1.55.15-3.15.51-4.66.65-2.76,2.51-5.63,4.34-7.79-.04.09-.25,1.03-.51,1.79Z"/>
        <path class="cls-43" d="M17.24,47.53v.26s-.89-.67-1.02-.77c-.43-1.18-.53-1.74-.64-3.13-.24-3.09.81-6.25-.64-5.55,0-.04,0-.09,0-.13.24-2.03.89-4.38,1.66-6.26-.36,1.51-.54,3.11-.51,4.66.18,2.51.57,5.03.77,7.53.09,1.1-.34,2.54.38,3.38Z"/>
        <path class="cls-37" d="M85.17,23.14c.68,1.57,1.08,3.6,1.66,5.24-.56.54-.81.57-1.53.38-.2-1.64-1.16-4.4-1.92-5.87,1.11-.15.3-1.92.13-2.43.62.82,1.25,1.74,1.66,2.68Z"/>
        <path class="cls-37" d="M85.68,21.73c.39.81.81,1.59,1.15,2.43.23.56,1.76,4.43,1.66,4.66-.02.04-.64.27-.77.32-.59-3.19-1.86-5.23-2.17-6.13-.05-.15-.1-.35-.13-.51-.06-.34-.27-.78.26-.77Z"/>
        <path class="cls-48" d="M85.55,23.01c.31.89,1.58,2.94,2.17,6.13.68,3.64-.32.85-.89-.77-.58-1.63-.98-3.67-1.66-5.24l.38-.13Z"/>
        <path class="cls-52" d="M16.21,47.02c-.21-.14-1.38-1.03-1.47-1.02-.15,0-1.95,1.29-.57,2.17-.09.81-.09,1.62-.13,2.43-.41.16-.17.78-.77,1.09.16.29-.16,2.01-.26,2.11l-.26-.7c1.02-3.42-.25-6.29,2.04-7.53.16-.53-.12-5.3,0-6.7,0-.03.06.15.13-.51,1.45-.7.4,2.46.64,5.55.11,1.39.21,1.95.64,3.13Z"/>
        <path class="cls-49" d="M21.58,26.33c-.89,2.04-1.37,4.31-2.55,6.19-.07.35.16.5.13.7,0,.04,0,.09,0,.13-.23,1.58-.55,4.99-.51,6.51l-1.15.26c1.01-5.01.57-7.36,2.94-14.17.51,0,.34.85,1.15.38Z"/>
        <g>
          <path class="cls-28" d="M28.47,17.39c-.22.24-.51.35-.77.51l2.3-5.43c-.18-.35-.35.22-1.4.06v-.13c.7-.22,1.38-.29,2.04-.64,1.16,2.91-.63,2.65-2.17,5.62Z"/>
          <path class="cls-19" d="M28.6,12.54c-.05.32-.23.62-.38.89-1.04,1.91-2.47,3.59-3.7,5.36,0,.01-.25.12-.26.13.62-1.14,3.57-6.1,4.34-6.51v.13Z"/>
          <path class="cls-37" d="M26.68,18.29c-.43.18-.95.52-1.4.64-.31.08-.71.21-.77-.13,1.24-1.77,2.66-3.45,3.7-5.36.47.42-.8,4.56-1.53,4.85Z"/>
          <path class="cls-10" d="M27.71,17.9c-.58.37-.83.3-1.02.38.73-.29,2-4.44,1.53-4.85.15-.28.33-.58.38-.89,1.06.15,1.23-.42,1.4-.06l-2.3,5.43Z"/>
        </g>
        <path class="cls-12" d="M38.3,35.14c-.47,1.49-.88,2.96-1.28,4.47-.27,1.02-.54,2.03-.77,3.06-.15.69-.26,1.35-.38,2.04-.15.85-.4,1.68-.51,2.55-.42,3.48-.55,7.62-.26,11.11l-.38.13s-.08-.16-.13-.64c-.11-1.06-.22-2.12-.26-3.19-.22-6.14.89-12.68,3.06-18.45.2-.52.59-1.79.89-1.09Z"/>
        <path class="cls-53" d="M43.28,25.44c-.26.47-.53.92-.77,1.4-.86,1.74-1.32,3.02-1.92,4.85l-.89-.51c.86-2.39,1.67-4.87,2.81-7.15,1.32.53.63.34.77,1.4Z"/>
        <path class="cls-52" d="M19.15,42.04c-.37.79-.43.16-.51-2.04,0-.04,0-.09,0-.13-.04-1.52.28-4.94.51-6.51.43,2.88.25,5.79,0,8.68Z"/>
        <path class="cls-25" d="M18.64,39.87s0,.09,0,.13l-1.4,2.81h-.13c-.96-.15.33-2.43.38-2.68l1.15-.26Z"/>
        <g>
          <path class="cls-49" d="M34.6,57.87c.05.48.12.61.13.64.05.34-.03.69.13,1.02l-15.83-1.66c-.49-1.69-1.3-1.94.13-2.3.33.29.66.56.96.89l14.49,1.4Z"/>
          <path class="cls-40" d="M17.62,53.78c-.1-.16-.16-.35-.26-.51.17-1.67.29-3.37.38-5.04-.14-.19-.35-.28-.51-.45v-.26l-.13-4.72h.13c.17.28,1.13,1.74,1.15,1.85.12.69-.45,6.35-.38,7.92-.13,1.23-.38,1.15-.38,1.21Z"/>
          <path class="cls-14" d="M20.68,31.69c-.22,1.66-1.26,9.75-1.53,10.34.25-2.89.43-5.8,0-8.68,0-.04,0-.09,0-.13.8-.59,1.09-1.89,1.53-1.53Z"/>
          <path class="cls-49" d="M19.15,55.57c-1.42.36-.62.61-.13,2.3h-.96c-.25-1.07-.43-1.09-.45-1.15-.16-.78-.07-2.12,0-2.94.3.45,1.14,1.45,1.53,1.79Z"/>
          <g>
            <path class="cls-46" d="M26.3,31.95c-.1,1-.63,2-.77,3,1.06,4.36,2.16,10.49,4.47,14.3,1.2,1.97,3.11,3.48,4.34,5.43.04,1.07.14,2.13.26,3.19l-14.49-1.4c-.29-.33-.62-.61-.96-.89-.39-.34-1.23-1.33-1.53-1.79,0-.06.26.01.38-1.21-.07-1.57.5-7.23.38-7.92-.02-.11-.98-1.58-1.15-1.85l1.4-2.81c.08,2.2.14,2.83.51,2.04.28-.59,1.31-8.68,1.53-10.34.35-1.58.73-1.7.77-1.79,2.35,2.4,1.65,1.59,4.92.89.06.04-.05.98-.06,1.15Z"/>
            <path class="cls-23" d="M18.96,43.44c.31-.16.2,3.51-.06.06l.06-.06Z"/>
          </g>
        </g>
        <path class="cls-24" d="M69.59,25.31c.65,1.04,1.92,3.5,2.3,4.6-.08,0-.19-.02-.26,0l-1.92-.89c-.77-1.96-2.44-4.76-2.43-5.04.02-.36.94-.62,1.09-.57.16.05,1.03,1.62,1.21,1.92Z"/>
        <g>
          <path class="cls-50" d="M73.93,20.97c1.07,1.06,3.1,5.44,3.58,6.9.18.54.5,2.72.89,3.83.27,1.66.55,3.32.77,4.98.16,1.19.14,2.41.51,3.58-1.74.57-3.5,1.19-5.24,1.79-.77-3.48-1.45-8.96-2.55-12.13-.38-1.1-1.65-3.56-2.3-4.6.77-1.04,2.18-5.04,2.81-5.62l3.51,6.77c.12-.81-.76-2.04-1.09-2.87-.06-.15.13-.24.13-.26-.02-.05-.28-.07-.64-.89-.03-.07.23-.16-.38-1.47Z"/>
          <path class="cls-28" d="M73.29,19.95c.1.16.24.36.26.38.12.22.27.39.38.64.62,1.31.35,1.39.38,1.47.36.83.62.84.64.89,0,.01-.18.11-.13.26.32.83,1.2,2.06,1.09,2.87l-3.51-6.77c.53-.48.11-.09.89.26Z"/>
        </g>
        <path class="cls-48" d="M71.63,29.91c-.47.12-.68-.26-.77-.06.13,1.33.57,2.5,0,2.49-.08-.25-.52-1.07-.64-1.4-.03-.09-.16-1.02-.51-1.92l1.92.89Z"/>
        <path class="cls-53" d="M71.63,29.91c.07-.02.17,0,.26,0,1.1,3.18,1.79,8.65,2.55,12.13-.53.18-.95.23-1.02.26-.68-3-1.26-5.99-2.17-8.94-.1-.33-.27-.66-.38-1.02.57.01.13-1.16,0-2.49.08-.2.3.18.77.06Z"/>
        <path class="cls-48" d="M80.57,18.92l-.64.51c-.15-.24-.35-.53-.51-.77.2-.11.14-.7.38-.89.42.26.51.79.77,1.15Z"/>
        <path class="cls-36" d="M79.8,17.78c-.24.19-.19.79-.38.89-.06-.09-.96-.92-1.4-1.72,2.57.92.95-.24,1.34-.45,1.14-.59,1.7.93,2.11,1.72-.4.23-1.43-.63-1.66-.45Z"/>
        <path class="cls-7" d="M17.62,53.78c-.07.82-.16,2.16,0,2.94-1.12.09-.66-.13-.64-.89.02-.72.18-1.45.26-2.17.05-.52.13-.36.13-.38.09.16.15.36.26.51Z"/>
        <path class="cls-4" d="M35.11,58.38c.03.36.03.79,0,1.15-.07-.02-.17,0-.26,0-.16-.33-.08-.68-.13-1.02l.38-.13Z"/>
        <g>
          <path class="cls-37" d="M64.99,33.61c-.02.17.03.35,0,.51-.21,1.29-.12,2.46.26,3.7-.42-.98-.94-1.98-1.4-2.94.77-.56-.97-2.38-.89-3.32.51.92.88,1.94,2.04,2.04Z"/>
          <g>
            <path class="cls-1" d="M70.1,31.31c.3.61.68,1.9,1.15,2.04.91,2.94,1.49,5.94,2.17,8.94-1.09.38-3.67,1.22-4.34,1.53-.44-1.86-.73-3.78-1.28-5.62-.62-2.11-1.03-2.86-1.92-4.72-.5-1.05-2.2-4.4-2.68-5.11l4.02-2.94c1.01,1.93,1.93,3.91,2.87,5.87Z"/>
            <path class="cls-10" d="M70.87,32.33c.12.36.28.69.38,1.02-.47-.15-.85-1.43-1.15-2.04l.13-.38c.12.34.56,1.15.64,1.4Z"/>
          </g>
          <g>
            <path class="cls-30" d="M63.2,28.37c.48.71,2.18,4.06,2.68,5.11-.33-.07-.58.16-.89.13-1.16-.1-1.53-1.12-2.04-2.04-.19-.34-1.58-3.2-1.53-3.38.02-.06,1.02-.71,1.09-.7.06,0,.62.77.7.89Z"/>
            <path class="cls-27" d="M65.89,33.48c.88,1.86,1.29,2.62,1.92,4.72-1.18.42-1.92-3.44-2.81-4.09.03-.16-.02-.35,0-.51.32.03.56-.2.89-.13Z"/>
          </g>
        </g>
        <g>
          <path class="cls-4" d="M40.6,31.69c-.29.9-.54,1.76-.77,2.68-1.09,4.47-.99,2.96,1.47,3.7,2.59.78,5.2,1.5,7.79,2.3,3.53.63,7.29,1.13,10.47,2.81l2.04.38,5.55-.19c-.22-2.03-1.15-3.76-1.92-5.55-.38-1.25-.47-2.41-.26-3.7.89.64,1.63,4.51,2.81,4.09.54,1.84.84,3.75,1.28,5.62-.26.12-1.2.55-1.28.7-.02.04-.02.85,0,.89.37.91,1.62-.16,1.53.45-1.69.54-3.14.58-2.81,1.4-.09.02-.18-.19-.45-.13-.17.2-.17.5-.19.51-.73.48-1.22.59-1.28.64-1.37-.46-2.64-.13-3.38-.26-2.12-.35-4.6-2-6.64-2.68-5.82-1.95-14.5-1.62-17.56-5.75.39-1.51.81-2.98,1.28-4.47.42-1.35.93-2.63,1.4-3.96l.89.51Z"/>
          <path class="cls-48" d="M63.46,33.99c-3.64.71-5.46,3.73-9.39,4.09-5.09.46-9.59-2-14.24-3.7.22-.92.48-1.78.77-2.68.59-1.83,1.05-3.11,1.92-4.85,2.95,1.02,5.9,2.11,9,2.55l2.81,2.81c.81-.28,2.91-.22,3.32-.38.26-.1,2.42-3.01,3.32-2.68.26.09,2.19,4.26,2.49,4.85Z"/>
          <path class="cls-53" d="M63.46,33.99c.15.29.25.61.38.89.46.96.99,1.96,1.4,2.94.77,1.8,1.69,3.53,1.92,5.55l-5.55.19-2.04-.38c-3.18-1.68-6.94-2.18-10.47-2.81-2.59-.8-5.19-1.52-7.79-2.3-2.45-.74-2.56.77-1.47-3.7,4.65,1.7,9.15,4.17,14.24,3.7,3.92-.36,5.74-3.38,9.39-4.09Z"/>
          <path class="cls-51" d="M64.61,48.29c-.16.14-.49.57-.26.51-.22.58-.17,1.31-.26,1.92-1.33.12-2.6.11-3.83.7.21.92.14,5.84.26,6.13.18.44.75-.15.64.32-.76.15-1.48.38-2.23.13-.27.53-1.09.55-1.98.77.02-.56,1.15-.05,1.4-.83-.73-1.84-.12-1.69-.13-1.79,0-.06-.17-.08-.26-1.09,1.18-1.09-.04-2.8.51-4.02-.21.16-.46.01-.89-.06-.01,0,.04-.25-.06-.26-6.31.68-3.42-.08-4.15-2.04-.04-.12.1-.28-.19-.51-.27.03-.35.02-.57-.13-3.62-2.33-8.06-2.4-12.07-3.58-1.47-.43-2.84-1.25-4.28-1.79.22-1.04.5-2.04.77-3.06,3.05,4.13,11.74,3.8,17.56,5.75,2.04.68,4.52,2.33,6.64,2.68.74.12,2.01-.2,3.38.26Z"/>
          <path class="cls-49" d="M52.61,48.04c.23.15.31.16.57.13.3.23.15.39.19.51l-10.73.51c.12-.38-.73-.14-1.6-.89l-5.68-1.02c.11-.87.36-1.7.51-2.55,2.94.94,7.8,2.53,10.66,3.06.1.02.02.24.13.26.94.15,4.41-.13,5.94,0Z"/>
          <path class="cls-51" d="M52.61,48.04c-1.52-.13-4.99.15-5.94,0-.1-.02-.02-.24-.13-.26-2.87-.53-7.72-2.12-10.66-3.06.12-.7.24-1.35.38-2.04,1.43.54,2.8,1.35,4.28,1.79,4,1.18,8.44,1.25,12.07,3.58Z"/>
          <path class="cls-51" d="M64.1,50.72c-.26,1.78-.53,3.77-.64,5.55-.02.28-.11.7.26.83-.8.3-1.72.61-2.55.77.11-.47-.46.12-.64-.32-.11-.29-.05-5.21-.26-6.13,1.23-.59,2.5-.58,3.83-.7Z"/>
          <g>
            <path class="cls-49" d="M42.65,49.19h-.13c-1.49,1.51-2.28,1.57-1.4,2.55-.64.05-1.26.22-1.92.13l-.26.06c-.01.28.02.56,0,.83-1.28,2.14-1.29,5.54-1.66,8.04-.27-.14-.36-.12-.38-.13-.22-.09-.4-.18-.64-.26-.07-.18-1.08-.87-1.15-.89.03-.36.03-.79,0-1.15-.29-3.49-.17-7.63.26-11.11l5.68,1.02c.87.75,1.71.51,1.6.89Z"/>
            <path class="cls-45" d="M36.26,60.42c.24.08.42.16.64.26-.51-.05-1.07.11-1.53.13-.07-1.14.05-.66.89-.38Z"/>
            <path class="cls-3" d="M36.71,52.89l1.85.06c-.33.2-2.03.48-1.85-.06Z"/>
          </g>
          <path class="cls-4" d="M57.97,55.06c-.08-.98-.22-3.24-.38-3.83-.02-.07,0-.17,0-.26.44.08.68.22.89.06-.55,1.22.67,2.93-.51,4.02Z"/>
        </g>
      </g>
      <g>
        <path class="cls-49" d="M52.86,59.66h1.02c-.21.34-.1.56-.13.64-3.49.53-6.95,1.08-10.47,1.4-1.56.14-3.16.41-4.72.26-.03-.08.05-.23-.13-.51.43.2.46-.7.51-1.15.53.06,1.02-.06,1.53-.13,4.12-.57,8.24-.75,12.39-.51Z"/>
        <path class="cls-39" d="M57.97,55.06c.09,1.01.25,1.03.26,1.09,0,.1-.6-.05.13,1.79-.25.78-1.38.27-1.4.83-.79.19-2.69.27-3.06.89h-1.02c.16-.33-.02-.7,0-1.02.12-2.3.23-4.59.26-6.9,1.49-.11,3.02-.11,4.47-.51.16.59.3,2.85.38,3.83Z"/>
        <g>
          <path class="cls-6" d="M39.2,51.87c-.14.85.18.64,1.34.64,2.3,0,9.57-.55,12.58-.77-.03,2.3-.13,4.6-.26,6.9-1.56,0-11.37.34-11.94.51-.65.19-.42.41-.45,1.02-.51.07-1,.19-1.53.13.19-1.83-.15-5.39,0-7.53.02-.27-.01-.55,0-.83l.26-.06Z"/>
          <path class="cls-51" d="M52.86,58.64c-.02.32.16.69,0,1.02-4.15-.24-8.27-.06-12.39.51.02-.61-.2-.83.45-1.02.57-.17,10.37-.52,11.94-.51Z"/>
        </g>
        <g>
          <path class="cls-10" d="M53.37,48.68c.73,1.97-2.16,2.72,4.15,2.04.11,0,.05.25.06.26,0,.08-.02.19,0,.26-1.45.4-2.98.4-4.47.51-3.01.22-10.28.77-12.58.77-1.16,0-1.48.21-1.34-.64.65.1,1.28-.07,1.92-.13,1-.08,2.05-.04,3.06-.13,1.06-.09,8.01-.66,8.36-.89.1-.06.73-1.46.38-1.53-2.62.03-5.23.34-7.85.38-.14,0-.86.5-2.55-.38h.13l10.73-.51Z"/>
          <path class="cls-53" d="M45.07,49.57c-.44.49-.17.95-.89,2.04-1.01.09-2.06.04-3.06.13-.87-.99-.08-1.05,1.4-2.55,1.69.88,2.42.39,2.55.38Z"/>
          <path class="cls-45" d="M44.18,51.61c.73-1.09.45-1.55.89-2.04,2.62-.04,5.23-.36,7.85-.38.35.07-.28,1.47-.38,1.53-.35.23-7.3.8-8.36.89Z"/>
        </g>
      </g>
    </g>
  </g>
</svg>