<?xml version="1.0" encoding="UTF-8"?>
<svg id="Capa_2" data-name="Capa 2" xmlns="http://www.w3.org/2000/svg" xmlns:xlink="http://www.w3.org/1999/xlink" viewBox="0 0 99.63 99.46">
  <defs>
    <style>
      .cls-1 {
        fill: url(#Degradado_sin_nombre_390-15);
      }

      .cls-1, .cls-2, .cls-3, .cls-4, .cls-5, .cls-6, .cls-7, .cls-8, .cls-9, .cls-10, .cls-11, .cls-12, .cls-13, .cls-14, .cls-15, .cls-16, .cls-17, .cls-18, .cls-19, .cls-20, .cls-21, .cls-22, .cls-23, .cls-24, .cls-25 {
        stroke-width: 0px;
      }

      .cls-2 {
        fill: url(#Degradado_sin_nombre_390-3);
      }

      .cls-3 {
        fill: url(#Degradado_sin_nombre_390);
      }

      .cls-4 {
        fill: url(#Degradado_sin_nombre_390-22);
      }

      .cls-5 {
        fill: url(#Degradado_sin_nombre_390-20);
      }

      .cls-6 {
        fill: url(#Degradado_sin_nombre_390-2);
      }

      .cls-7 {
        fill: url(#Degradado_sin_nombre_390-21);
      }

      .cls-8 {
        fill: url(#Degradado_sin_nombre_390-8);
      }

      .cls-9 {
        fill: url(#Degradado_sin_nombre_390-7);
      }

      .cls-10 {
        fill: url(#Degradado_sin_nombre_390-18);
      }

      .cls-11 {
        fill: url(#Degradado_sin_nombre_390-5);
      }

      .cls-12 {
        fill: url(#Degradado_sin_nombre_390-9);
      }

      .cls-13 {
        fill: url(#Degradado_sin_nombre_390-17);
      }

      .cls-14 {
        fill: url(#Degradado_sin_nombre_390-13);
      }

      .cls-15 {
        fill: url(#Degradado_sin_nombre_390-6);
      }

      .cls-16 {
        fill: url(#Degradado_sin_nombre_390-24);
      }

      .cls-17 {
        fill: url(#Degradado_sin_nombre_390-19);
      }

      .cls-18 {
        fill: #cbced1;
      }

      .cls-19 {
        fill: url(#Degradado_sin_nombre_390-14);
      }

      .cls-20 {
        fill: url(#Degradado_sin_nombre_390-23);
      }

      .cls-21 {
        fill: url(#Degradado_sin_nombre_390-4);
      }

      .cls-22 {
        fill: url(#Degradado_sin_nombre_390-16);
      }

      .cls-23 {
        fill: url(#Degradado_sin_nombre_390-12);
      }

      .cls-24 {
        fill: url(#Degradado_sin_nombre_390-10);
      }

      .cls-25 {
        fill: url(#Degradado_sin_nombre_390-11);
      }
    </style>
    <linearGradient id="Degradado_sin_nombre_390" data-name="Degradado sin nombre 390" x1="85.93" y1="49.96" x2="92.6" y2="49.96" gradientUnits="userSpaceOnUse">
      <stop offset="0" stop-color="#16708a"/>
      <stop offset="1" stop-color="#112c41"/>
    </linearGradient>
    <linearGradient id="Degradado_sin_nombre_390-2" data-name="Degradado sin nombre 390" x1="85.94" y1="56.57" x2="87.55" y2="56.57" xlink:href="#Degradado_sin_nombre_390"/>
    <linearGradient id="Degradado_sin_nombre_390-3" data-name="Degradado sin nombre 390" x1="91.01" y1="55.92" x2="92.56" y2="55.92" xlink:href="#Degradado_sin_nombre_390"/>
    <linearGradient id="Degradado_sin_nombre_390-4" data-name="Degradado sin nombre 390" x1="64.64" y1="49.25" x2="66.16" y2="49.25" xlink:href="#Degradado_sin_nombre_390"/>
    <linearGradient id="Degradado_sin_nombre_390-5" data-name="Degradado sin nombre 390" x1="64.71" y1="55.22" x2="66.05" y2="55.22" xlink:href="#Degradado_sin_nombre_390"/>
    <linearGradient id="Degradado_sin_nombre_390-6" data-name="Degradado sin nombre 390" x1="64.6" y1="58.6" x2="66.43" y2="58.6" xlink:href="#Degradado_sin_nombre_390"/>
    <linearGradient id="Degradado_sin_nombre_390-7" data-name="Degradado sin nombre 390" x1="55" y1="43.53" x2="74.46" y2="43.53" xlink:href="#Degradado_sin_nombre_390"/>
    <linearGradient id="Degradado_sin_nombre_390-8" data-name="Degradado sin nombre 390" x1="81.88" y1="43.55" x2="99.63" y2="43.55" xlink:href="#Degradado_sin_nombre_390"/>
    <linearGradient id="Degradado_sin_nombre_390-9" data-name="Degradado sin nombre 390" x1="60.81" y1="75.51" x2="70.5" y2="75.51" xlink:href="#Degradado_sin_nombre_390"/>
    <linearGradient id="Degradado_sin_nombre_390-10" data-name="Degradado sin nombre 390" x1="60.83" y1="85.1" x2="63.18" y2="85.1" xlink:href="#Degradado_sin_nombre_390"/>
    <linearGradient id="Degradado_sin_nombre_390-11" data-name="Degradado sin nombre 390" x1="68.19" y1="84.17" x2="70.44" y2="84.17" xlink:href="#Degradado_sin_nombre_390"/>
    <linearGradient id="Degradado_sin_nombre_390-12" data-name="Degradado sin nombre 390" x1="29.92" y1="74.49" x2="32.12" y2="74.49" xlink:href="#Degradado_sin_nombre_390"/>
    <linearGradient id="Degradado_sin_nombre_390-13" data-name="Degradado sin nombre 390" x1="30.02" y1="83.15" x2="31.97" y2="83.15" xlink:href="#Degradado_sin_nombre_390"/>
    <linearGradient id="Degradado_sin_nombre_390-14" data-name="Degradado sin nombre 390" x1="29.85" y1="88.05" x2="32.52" y2="88.05" xlink:href="#Degradado_sin_nombre_390"/>
    <linearGradient id="Degradado_sin_nombre_390-15" data-name="Degradado sin nombre 390" x1="15.93" y1="66.18" x2="44.18" y2="66.18" xlink:href="#Degradado_sin_nombre_390"/>
    <linearGradient id="Degradado_sin_nombre_390-16" data-name="Degradado sin nombre 390" x1="54.93" y1="66.21" x2="80.71" y2="66.21" xlink:href="#Degradado_sin_nombre_390"/>
    <linearGradient id="Degradado_sin_nombre_390-17" data-name="Degradado sin nombre 390" x1="30.93" x2="37.6" xlink:href="#Degradado_sin_nombre_390"/>
    <linearGradient id="Degradado_sin_nombre_390-18" data-name="Degradado sin nombre 390" x1="30.94" y1="56.57" x2="32.55" y2="56.57" xlink:href="#Degradado_sin_nombre_390"/>
    <linearGradient id="Degradado_sin_nombre_390-19" data-name="Degradado sin nombre 390" x1="36.01" y1="55.92" x2="37.56" y2="55.92" xlink:href="#Degradado_sin_nombre_390"/>
    <linearGradient id="Degradado_sin_nombre_390-20" data-name="Degradado sin nombre 390" x1="9.64" y1="49.25" x2="11.16" y2="49.25" xlink:href="#Degradado_sin_nombre_390"/>
    <linearGradient id="Degradado_sin_nombre_390-21" data-name="Degradado sin nombre 390" x1="9.71" y1="55.22" x2="11.05" y2="55.22" xlink:href="#Degradado_sin_nombre_390"/>
    <linearGradient id="Degradado_sin_nombre_390-22" data-name="Degradado sin nombre 390" x1="9.6" y1="58.6" x2="11.43" y2="58.6" xlink:href="#Degradado_sin_nombre_390"/>
    <linearGradient id="Degradado_sin_nombre_390-23" data-name="Degradado sin nombre 390" x1="0" y1="43.53" x2="19.46" y2="43.53" xlink:href="#Degradado_sin_nombre_390"/>
    <linearGradient id="Degradado_sin_nombre_390-24" data-name="Degradado sin nombre 390" x1="26.88" y1="43.55" x2="44.63" y2="43.55" xlink:href="#Degradado_sin_nombre_390"/>
  </defs>
  <g id="Capa_1-2" data-name="Capa 1">
    <g>
      <g>
        <path class="cls-18" d="M77.91.33v1.62c0,1.11,0,2.22,0,3.33,0,.61-.26,3.27.04,3.6,1.86.9,7.1,1.56,7.11,2.88v7.6l-4.31.18.04,46.8-5.13-.04V19.7c-.22-.76-3.91-.49-5.69-.49l-.09-8.14c1.86-.71,3.81-1.11,5.69-1.75.25-.09,1.39-.3,1.47-.49.01-1.21-.01-2.43,0-3.64.02-2.18-.35-6.39.86-4.86Z"/>
        <g>
          <g>
            <path class="cls-3" d="M86.06,39.17l6.42.13c-.34,1.49.46,12.44-.04,12.81-.06.04-1.38.02-1.42-.04-.17-1.45.22-10.81,0-11.33-.09-.21-.95-.21-1.03,0-.39.91.33,17.51-.04,20l-1.34-.04q-.04-9.98-.09-19.96c-.09-.21-.95-.21-1.03,0-.19.45.15,8.6,0,9.89h-1.55l.13-11.46Z"/>
            <path class="cls-6" d="M86.06,52.21c.06-.04,1.38-.02,1.42.04-.21,1.02.3,8.43-.04,8.68-.06.04-1.38.02-1.42-.04.21-1.02-.3-8.43.04-8.68Z"/>
            <path class="cls-2" d="M91.31,53.55c.15-.05,1.17-.05,1.25.13l-.13,4.63-1.42-.04v-4.5s.26-.21.3-.22Z"/>
          </g>
          <g>
            <path class="cls-21" d="M64.77,46.36l1.34.13c-.27,2.85.89,6.17-1.47,5.57l.13-5.71Z"/>
            <path class="cls-11" d="M64.77,53.46c.05-.04,1.17-.06,1.25.13-.17,1.13.65,3.92-1.29,3.33.06-.42-.09-3.36.04-3.46Z"/>
            <path class="cls-15" d="M64.77,58.32c.08-.06,2.06-.18,1.59.49-.16.23-2.4.1-1.59-.49Z"/>
            <path class="cls-9" d="M74.34,20.65q.06,22.81.13,45.63-9.59.07-19.17.13c-.55-.3-.23-.87.26-.99,1.51-.36,11.26.45,11.59-.04,1.02-1.5-4.73-.72-4.91-.99.32-1.44-.44-12,.04-12.36.05-.04,1.26-.05,1.34.13l.04,8.05h3.62c-.26,3.39,1.05,2.51,1.16,2.11.08-.26-.06-1.53,0-2.07.19-.44,2.18.51,1.64-1.17-.18-.57-2.37-.03-2.93-.36l.17-17.98c-1.98-.89-.93,1.48-1.25,4l-1.42-.04c-.19-2.44.67-4.86-1.12-3.96-.21,1.19.27,9.4,0,9.8-.04.05-1.17.08-1.25.04-.5-.23.11-10.11-.13-11.37l6.46-.09c.26,2.11-.25,16.3.09,17.08.09.21,1.03.21,1.12,0,.36-.84-.28-16.14,0-18.43l-3.79-.09.09-16.9,8.23-.13Z"/>
          </g>
          <path class="cls-8" d="M82.01,20.65l6.59.13v16.9l-3.79.18.17,24.28,5.99.13c.53-2.19-.77-2.72,1.55-2.52l.04,4.81c-.1.15-1.67-.04-1.85.04-.2.09-.16.76-.09.81.35.26,8.02-.17,8.62.09.2.09.6.64.26.81l-17.62.13q.06-22.9.13-45.81Z"/>
        </g>
      </g>
      <g>
        <g>
          <path class="cls-18" d="M49.18,3.48v2.35c0,1.61,0,3.22,0,4.83,0,.88-.38,4.75.06,5.22,2.7,1.31,10.31,2.26,10.32,4.18v11.03l-6.25.26q.03,33.96.06,67.92l-7.44-.07V31.6c-.32-1.11-5.68-.71-8.26-.72l-.13-11.81c2.7-1.03,5.53-1.61,8.26-2.54.37-.13,2.01-.43,2.13-.72.01-1.76-.02-3.52,0-5.28.04-3.16-.51-9.28,1.25-7.05Z"/>
          <g>
            <g>
              <path class="cls-12" d="M61,59.85l9.32.2c-.49,2.16.66,18.06-.06,18.6-.08.06-2,.02-2.06-.07-.24-2.11.32-15.69,0-16.44-.13-.3-1.37-.3-1.5,0-.56,1.33.48,25.42-.06,29.03l-1.94-.07q-.06-14.48-.13-28.97c-.13-.3-1.37-.3-1.5,0-.28.66.21,12.48,0,14.35h-2.25l.19-16.64Z"/>
              <path class="cls-24" d="M61,78.77c.08-.06,2-.02,2.06.07-.31,1.48.43,12.23-.06,12.59-.08.06-2,.02-2.06-.07.31-1.48-.43-12.23.06-12.59Z"/>
              <path class="cls-25" d="M68.63,80.73c.21-.07,1.7-.07,1.81.2l-.19,6.72-2.06-.07v-6.52c.03-.07.38-.31.44-.33Z"/>
            </g>
            <g>
              <path class="cls-23" d="M30.11,70.29l1.94.2c-.39,4.13,1.29,8.96-2.13,8.09l.19-8.29Z"/>
              <path class="cls-14" d="M30.11,80.6c.07-.06,1.7-.08,1.81.2-.24,1.65.94,5.69-1.88,4.83.08-.61-.13-4.88.06-5.02Z"/>
              <path class="cls-19" d="M30.11,87.65c.12-.09,2.98-.27,2.31.72-.23.33-3.48.15-2.31-.72Z"/>
              <path class="cls-1" d="M43.99,32.97q.09,33.11.19,66.23-13.92.1-27.83.2c-.8-.43-.33-1.27.38-1.44,2.2-.52,16.34.65,16.82-.07,1.48-2.17-6.87-1.05-7.13-1.44.47-2.08-.64-17.42.06-17.94.08-.06,1.82-.08,1.94.2l.06,11.68h5.25c-.38,4.92,1.52,3.64,1.69,3.07.11-.37-.08-2.23,0-3,.27-.64,3.16.74,2.38-1.7-.27-.82-3.44-.04-4.25-.52l.25-26.1c-2.87-1.29-1.35,2.15-1.81,5.81l-2.06-.07c-.28-3.54.97-7.05-1.63-5.74-.3,1.73.39,13.64,0,14.22-.05.08-1.7.12-1.81.07-.72-.33.16-14.67-.19-16.51l9.38-.13c.38,3.07-.36,23.66.13,24.79.13.3,1.5.3,1.63,0,.52-1.22-.4-23.43,0-26.75l-5.5-.13q.06-12.27.13-24.53,5.97-.1,11.95-.2Z"/>
            </g>
            <path class="cls-22" d="M55.12,32.97l9.57.2v24.53l-5.5.26.25,35.23,8.69.2c.77-3.18-1.12-3.95,2.25-3.65l.06,6.98c-.15.22-2.42-.06-2.69.07-.28.13-.23,1.1-.13,1.17.51.38,11.64-.25,12.51.13.3.13.87.93.38,1.17q-12.79.1-25.58.2.09-33.24.19-66.49Z"/>
          </g>
        </g>
        <g>
          <path class="cls-18" d="M22.91.33v1.62c0,1.11,0,2.22,0,3.33,0,.61-.26,3.27.04,3.6,1.86.9,7.1,1.56,7.11,2.88v7.6l-4.31.18.04,46.8-5.13-.04V19.7c-.22-.76-3.91-.49-5.69-.49l-.09-8.14c1.86-.71,3.81-1.11,5.69-1.75.25-.09,1.39-.3,1.47-.49.01-1.21-.01-2.43,0-3.64.02-2.18-.35-6.39.86-4.86Z"/>
          <g>
            <g>
              <path class="cls-13" d="M31.06,39.17l6.42.13c-.34,1.49.46,12.44-.04,12.81-.06.04-1.38.02-1.42-.04-.17-1.45.22-10.81,0-11.33-.09-.21-.95-.21-1.03,0-.39.91.33,17.51-.04,20l-1.34-.04q-.04-9.98-.09-19.96c-.09-.21-.95-.21-1.03,0-.19.45.15,8.6,0,9.89h-1.55l.13-11.46Z"/>
              <path class="cls-10" d="M31.06,52.21c.06-.04,1.38-.02,1.42.04-.21,1.02.3,8.43-.04,8.68-.06.04-1.38.02-1.42-.04.21-1.02-.3-8.43.04-8.68Z"/>
              <path class="cls-17" d="M36.31,53.55c.15-.05,1.17-.05,1.25.13l-.13,4.63-1.42-.04v-4.5s.26-.21.3-.22Z"/>
            </g>
            <g>
              <path class="cls-5" d="M9.77,46.36l1.34.13c-.27,2.85.89,6.17-1.47,5.57l.13-5.71Z"/>
              <path class="cls-7" d="M9.77,53.46c.05-.04,1.17-.06,1.25.13-.17,1.13.65,3.92-1.29,3.33.06-.42-.09-3.36.04-3.46Z"/>
              <path class="cls-4" d="M9.77,58.32c.08-.06,2.06-.18,1.59.49-.16.23-2.4.1-1.59-.49Z"/>
              <path class="cls-20" d="M19.34,20.65q.06,22.81.13,45.63-9.59.07-19.17.13c-.55-.3-.23-.87.26-.99,1.51-.36,11.26.45,11.59-.04,1.02-1.5-4.73-.72-4.91-.99.32-1.44-.44-12,.04-12.36.05-.04,1.26-.05,1.34.13l.04,8.05h3.62c-.26,3.39,1.05,2.51,1.16,2.11.08-.26-.06-1.53,0-2.07.19-.44,2.18.51,1.64-1.17-.18-.57-2.37-.03-2.93-.36l.17-17.98c-1.98-.89-.93,1.48-1.25,4l-1.42-.04c-.19-2.44.67-4.86-1.12-3.96-.21,1.19.27,9.4,0,9.8-.04.05-1.17.08-1.25.04-.5-.23.11-10.11-.13-11.37l6.46-.09c.26,2.11-.25,16.3.09,17.08.09.21,1.03.21,1.12,0,.36-.84-.28-16.14,0-18.43l-3.79-.09.09-16.9,8.23-.13Z"/>
            </g>
            <path class="cls-16" d="M27.01,20.65l6.59.13v16.9l-3.79.18.17,24.28,5.99.13c.53-2.19-.77-2.72,1.55-2.52l.04,4.81c-.1.15-1.67-.04-1.85.04-.2.09-.16.76-.09.81.35.26,8.02-.17,8.62.09.2.09.6.64.26.81l-17.62.13q.06-22.9.13-45.81Z"/>
          </g>
        </g>
      </g>
    </g>
  </g>
</svg>