<svg width="132" height="132" viewBox="0 0 132 132" fill="none" xmlns="http://www.w3.org/2000/svg">
<path opacity="0.6" d="M55.6049 22C55.1649 23.65 55 25.465 55 27.5V44H27.5V33C27.5 26.95 32.45 22 38.5 22H55.6049Z" fill="#93D4FF"/>
<path d="M55 104.5V44H27.5C16.5 44 11 49.5 11 60.5V104.5C11 115.5 16.5 121 27.5 121H71.5C60.5 121 55 115.5 55 104.5ZM37.125 93.5C37.125 95.755 35.255 97.625 33 97.625C30.745 97.625 28.875 95.755 28.875 93.5V71.5C28.875 69.245 30.745 67.375 33 67.375C35.255 67.375 37.125 69.245 37.125 71.5V93.5Z" fill="#93D4FF"/>
<path opacity="0.4" d="M77 121H71.5C60.5 121 55 115.5 55 104.5V27.5C55 16.5 60.5 11 71.5 11H104.5C115.5 11 121 16.5 121 27.5V104.5C121 115.5 115.5 121 104.5 121H99" fill="#93D4FF"/>
<path d="M99 99V121H77V99C77 95.975 79.475 93.5 82.5 93.5H93.5C96.525 93.5 99 95.975 99 99Z" fill="#93D4FF"/>
<path d="M77 75.625C74.745 75.625 72.875 73.755 72.875 71.5V44C72.875 41.745 74.745 39.875 77 39.875C79.255 39.875 81.125 41.745 81.125 44V71.5C81.125 73.755 79.255 75.625 77 75.625Z" fill="#93D4FF"/>
<path d="M99 75.625C96.745 75.625 94.875 73.755 94.875 71.5V44C94.875 41.745 96.745 39.875 99 39.875C101.255 39.875 103.125 41.745 103.125 44V71.5C103.125 73.755 101.255 75.625 99 75.625Z" fill="#93D4FF"/>
</svg>
