<?xml version="1.0" encoding="UTF-8"?>
<svg id="Capa_2" data-name="Capa 2" xmlns="http://www.w3.org/2000/svg" xmlns:xlink="http://www.w3.org/1999/xlink" viewBox="0 0 104.9 67.05">
  <defs>
    <style>
      .cls-1 {
        fill: #9f9795;
      }

      .cls-1, .cls-2, .cls-3, .cls-4, .cls-5, .cls-6, .cls-7, .cls-8, .cls-9, .cls-10, .cls-11, .cls-12, .cls-13, .cls-14 {
        stroke-width: 0px;
      }

      .cls-2 {
        fill: #4fdb66;
      }

      .cls-3 {
        fill: #3d3d42;
      }

      .cls-4 {
        fill: #8c8992;
      }

      .cls-5 {
        fill: #768992;
      }

      .cls-6 {
        fill: #383747;
      }

      .cls-7 {
        fill: #ece9e7;
      }

      .cls-8 {
        fill: url(#Degradado_sin_nombre_492);
      }

      .cls-9 {
        fill: #0d0c0c;
      }

      .cls-10 {
        fill: #2b2a2a;
      }

      .cls-11 {
        fill: url(#Degradado_sin_nombre_490);
      }

      .cls-12 {
        fill: #3d516b;
      }

      .cls-13 {
        fill: #4c4d4f;
      }

      .cls-14 {
        fill: #4ea3dd;
      }
    </style>
    <linearGradient id="Degradado_sin_nombre_490" data-name="Degradado sin nombre 490" x1="92.08" y1="55.43" x2="86.9" y2="55.58" gradientUnits="userSpaceOnUse">
      <stop offset="0" stop-color="#a8a09d"/>
      <stop offset="1" stop-color="#827a7a"/>
    </linearGradient>
    <linearGradient id="Degradado_sin_nombre_492" data-name="Degradado sin nombre 492" x1="82.43" y1="56.67" x2="36.32" y2="60.09" gradientUnits="userSpaceOnUse">
      <stop offset="0" stop-color="#32282a"/>
      <stop offset="1" stop-color="#32425b"/>
    </linearGradient>
  </defs>
  <g id="Capa_1-2" data-name="Capa 1">
    <g>
      <g>
        <path class="cls-10" d="M95.88,65.02c1.67-.05,5.59.57,7.89.68-.68,1.24.64.39.79.45.42.17.3.66.34.68-1.44-.07-2.85.18-4.29.23-.3,0-.6,0-.9,0-.76-.76-7.96.2-6.43-1.35.64-.64,1.88-.66,2.59-.68Z"/>
        <g>
          <g>
            <path class="cls-9" d="M14.45,62.09c9.35.11,18.63-.02,27.97,0,13.83.03,27.67.38,41.5.23.91-.01,1.05-.22,1.13-.23,4.59-.06,9.17.04,13.76,0,.14.19.79.15.68.56-.32.48-.77.55-1.13.79-.98.67-2.58.93-2.48,1.58-.71.02-1.96.03-2.59.68-1.53,1.56,5.67.59,6.43,1.35-22.03-.08-44.06,0-66.09,0-1.73,0-3.46,0-5.19,0-7.83,0-15.63-.02-23.46,0-.37-.93-2.01-1.49-2.71-2.03-.22-.17-1.51-1.27-1.58-1.35-.22-.26-.38-.58-.68-.79-.12-.69.43-.75.45-.79,4.66.04,9.32-.06,13.98,0Z"/>
            <path class="cls-11" d="M98.59,61.63c.05.06.17.38.23.45-4.59.04-9.17-.06-13.76,0q.11-6.65.23-13.31c.86.35,12.72,12.14,13.31,12.86Z"/>
            <g>
              <path class="cls-8" d="M83.93,62.31c-13.84.15-27.67-.2-41.5-.23l-7.78-.23c-.45-.2-.77-5.35.34-6.54,1.05.02,2.18-.17,2.59.23.36-1.38,4.08.56,5.19-1.13.37.23.34.66.45.68,3.56.37,11.7-.14,15.79-.23,1.68,1.32,3.93.43,4.29.45.48.02,3.03,1.82,4.06.23,2.92,1.33,6.42.52,9.59.45.15,0,.3,0,.45,0,.19,0,2.24.53,3.83.11l-3.61-4.51.34-.34c.53.63,3.98,4.83,4.29,4.96.37.16,2.27-.15,2.48,0,.23.16.24,5.28.11,5.53-.15.29-1.05-.2-.9.56Z"/>
              <path class="cls-12" d="M34.98,55.32c-1.11,1.2-.79,6.34-.34,6.54l7.78.23c-9.34-.02-18.62.11-27.97,0-.24-2.09.23-4.25.23-6.32,2.81-3.2,2.65.95,5.08,0,.75-.29-.09-1.23.23-1.35.28-.11,2.72,3.25,4.96.45,1.17.86,3.77,1.27,4.74,0,1.15,1.07,2.99.88,4.06-.23.28.03-.05.65,1.24.68Z"/>
            </g>
            <path class="cls-1" d="M14.45,49.23c-.24,2.17.23,4.4.23,6.54,0,2.06-.47,4.23-.23,6.32-4.66-.06-9.32.04-13.98,0,1.02-1.83,11.83-11.55,13.98-12.86Z"/>
          </g>
          <g>
            <path class="cls-9" d="M84.15.73c.24.4.87,1.3.9,1.47.34,1.99.25,35.1.23,40.38,0,1.5.57,3.98-1.13,4.62-1.37.52-5.38-.03-5.64.34-1.31,1.84,3.52,1.75,4.4,1.47.27-.09.29-.53.56-.9-.26,1.22,1.2.43,1.8.68q-.11,6.65-.23,13.31c-.08,0-.21.22-1.13.23-.14-.76.76-.27.9-.56.12-.25.11-5.37-.11-5.53-.21-.15-2.11.16-2.48,0-.3-.13-3.76-4.33-4.29-4.96l-.34.34,3.61,4.51c-1.59.42-3.64-.12-3.83-.11-.25-1.01-.97-1.29-.45,0-3.17.07-6.66.88-9.59-.45-1.03,1.59-3.58-.2-4.06-.23-.35-.02-2.6.87-4.29-.45-4.09.09-12.23.59-15.79.23-.11-.01-.08-.45-.45-.68-1.11,1.69-4.83-.26-5.19,1.13-.41-.39-1.55-.21-2.59-.23-1.29-.03-.96-.65-1.24-.68-1.07,1.11-2.91,1.3-4.06.23-.97,1.27-3.57.86-4.74,0-2.24,2.8-4.68-.56-4.96-.45-.31.12.52,1.06-.23,1.35-2.43.95-2.27-3.2-5.08,0,0-2.14-.47-4.38-.23-6.54,4-2.42.13-.7-.45-3.27.61-7.5-.26-41.47.23-43.98.07-.35.75-.87.9-1.24.28-.1,1.18-.44,1.24-.45C19.67-.12,79.6-.06,82.91.28c.07,0,.31.25,1.24.45Z"/>
            <g>
              <path class="cls-7" d="M16.59,2.09h65.86l.56.56v41.73q-33.44.06-66.88.11.23-21.2.45-42.41Z"/>
              <path class="cls-3" d="M84.15,47.2c-.15.33-.46.61-.68.9-.28.37-.3.82-.56.9-.88.28-5.71.38-4.4-1.47.26-.37,4.27.18,5.64-.34Z"/>
              <path class="cls-7" d="M73.66,47.42c.23-.17,5.81-.52,4.4,1.47-.13.18-4.22.24-4.4.11-.19-.13-.19-1.45,0-1.58Z"/>
              <g>
                <path class="cls-5" d="M25.5,48.55c.05-.18-.03-.46,0-.68,14.22.66,31.13-.49,45.68,0l.11.56q-22.89.06-45.79.11Z"/>
                <path class="cls-7" d="M25.5,47.88c-.03.21.05.5,0,.68-.38,1.31-4.32.77-3.61-.79.48-1.06,3.42.1,3.61.11Z"/>
                <g>
                  <path class="cls-6" d="M68.7,51.71c.82-.24.8,1.01.45,1.13-.67.23-1.04-.96-.45-1.13Z"/>
                  <path class="cls-6" d="M63.96,52.16c.92-.66.96,1.11,0,.45-.19-.13-.19-.31,0-.45Z"/>
                  <path class="cls-4" d="M32.16,51.03c.11,0,.55.53.23.68-.75.33-.61-.66-.23-.68Z"/>
                  <path class="cls-13" d="M77.38,56c-.15,0-.3,0-.45,0-.51-1.29.2-1.01.45,0Z"/>
                  <path class="cls-3" d="M58.78,51.26c.85-.12-.07.94-.34.34,0-.02.31-.33.34-.34Z"/>
                </g>
              </g>
            </g>
          </g>
        </g>
      </g>
      <rect class="cls-14" x="33.26" y="13.45" width="3.61" height="29.33"/>
      <rect class="cls-14" x="38.67" y="16.16" width="3.61" height="26.62"/>
      <rect class="cls-14" x="44.53" y="19.32" width="3.61" height="23.46"/>
      <rect class="cls-14" x="50.4" y="23.38" width="3.61" height="19.4"/>
      <g>
        <path class="cls-2" d="M72.94,28.34c1.6.86,3.76,1.4,3.92,3.52l-2.13.45c-1.18-2.11-3.27-1-2.93.15.33,1.13,6.36.4,5.26,4.87-.55,2.24-3.14,2.32-3.33,2.43-.31.18-.04.88-.2.99-.05.03-1.14.03-1.19,0-.23-.12-.08-.85-.2-.99-.15-.18-3.57-.29-3.03-2.73.36-1.63,2.08.47,3.23.65.58.09,1.96.01,2.23-.65.85-2.07-6.27-.55-5.26-5.26.52-2.44,3.03-2.33,3.62-3.43Z"/>
        <path class="cls-2" d="M64.99,30.33c.45-.11,1.47,0,1.34.65-.1.49-5.44,6.76-6.06,7.84-.87,1.06-2.47,1.01-1.49-.7.5-.87,5.71-7.67,6.21-7.79Z"/>
        <path class="cls-2" d="M59.43,30.43c3.27-.27,1.71,6-.99,4.07-1.33-.95-.74-3.93.99-4.07Z"/>
        <path class="cls-2" d="M64.3,35.19c2.59-.16,2.3,4.84-.7,4.17-1.82-.41-1.16-4.05.7-4.17Z"/>
      </g>
    </g>
  </g>
</svg>