<?xml version="1.0" ?>
<!-- Uploaded to: SVG Repo, www.svgrepo.com, Generator: SVG Repo Mixer Tools -->
<svg width="800px" height="800px" viewBox="0 0 48.000015 48.000015" id="svg5" version="1.1" xml:space="preserve" xmlns="http://www.w3.org/2000/svg" xmlns:svg="http://www.w3.org/2000/svg">
<defs id="defs2"/>
<g id="layer1" transform="translate(-98,-305)">
<path d="m 114.00512,314.00384 27.02699,7.17736 -4.16823,15.41582 -27.027,-7.17737 z" id="path3576" style="fill:#e7e7e7;fill-opacity:1;fill-rule:evenodd;stroke:none;stroke-width:2;stroke-linecap:round;stroke-linejoin:round;stroke-miterlimit:4.1"/>
<path d="m 114.00586,314.00391 -4.16992,15.41601 21.17578,5.62305 a 25.452839,17.68302 0 0 0 4.27734,-9.74219 25.452839,17.68302 0 0 0 -1.54492,-6.05469 z" id="path104575" style="fill:#fafafa;fill-opacity:1;fill-rule:evenodd;stroke:none;stroke-width:2;stroke-linecap:round;stroke-linejoin:round;stroke-miterlimit:4.1;stroke-opacity:1"/>
<path d="m 114.00586,314.00391 -1.03711,3.83203 27.00977,7.23633 1.05273,-3.89063 z" id="path14421" style="fill:#fcca3d;fill-opacity:1;fill-rule:evenodd;stroke:none;stroke-width:2;stroke-linecap:round;stroke-linejoin:round;stroke-miterlimit:4.1;stroke-opacity:1"/>
<path d="m 103,325 h 29 v 19 h -29 z" id="rect2845" style="fill:#fafafa;fill-opacity:1;fill-rule:evenodd;stroke:none;stroke-width:2;stroke-linecap:round;stroke-linejoin:round;stroke-miterlimit:4.1"/>
<rect height="3.6896644" id="rect2896" style="fill:#ff5576;fill-opacity:1;fill-rule:evenodd;stroke:none;stroke-width:2;stroke-linecap:round;stroke-linejoin:round;stroke-miterlimit:4.1" width="3.723016" x="107" y="337.27014"/>
<ellipse cx="113.70141" cy="340.07758" id="circle2918" rx="0.93075401" ry="0.92241609" style="fill:#ff5576;fill-opacity:1;fill-rule:evenodd;stroke:none;stroke-width:2;stroke-linecap:round;stroke-linejoin:round;stroke-miterlimit:4.1"/>
<ellipse cx="116.67984" cy="340.07758" id="circle2920" rx="0.93075401" ry="0.92241609" style="fill:#ff5576;fill-opacity:1;fill-rule:evenodd;stroke:none;stroke-width:2;stroke-linecap:round;stroke-linejoin:round;stroke-miterlimit:4.1"/>
<ellipse cx="119.47211" cy="340.07758" id="circle2930" rx="0.93075401" ry="0.92241609" style="fill:#ff5576;fill-opacity:1;fill-rule:evenodd;stroke:none;stroke-width:2;stroke-linecap:round;stroke-linejoin:round;stroke-miterlimit:4.1"/>
<path d="m 122.94141,332 a 1.00001,1.00001 0 0 0 -1,1 1.00001,1.00001 0 0 0 1,1 h 5.04492 a 1.00001,1.00001 0 0 0 1,-1 1.00001,1.00001 0 0 0 -1,-1 z" id="path14518" style="color:#000000;fill:#808b9b;fill-opacity:1;fill-rule:evenodd;stroke-linecap:round;stroke-linejoin:round;stroke-miterlimit:4.1;-inkscape-stroke:none"/>
<path d="m 103,325 v 4 h 29 v -4 z" id="path14485" style="fill:#e7e7e7;fill-opacity:1;fill-rule:evenodd;stroke:none;stroke-width:2.00002;stroke-linecap:round;stroke-linejoin:round;stroke-miterlimit:4.1"/>
</g>
</svg>