<svg width="24" height="24" viewBox="0 0 24 24" fill="none" xmlns="http://www.w3.org/2000/svg">
<path d="M14 2.25C15.3876 2.25 16.4734 2.24915 17.3447 2.32031C18.2249 2.39222 18.9522 2.54162 19.6104 2.87695C20.6923 3.42822 21.5718 4.30774 22.123 5.38965C22.4584 6.04778 22.6078 6.77513 22.6797 7.65527C22.7509 8.5266 22.75 9.61244 22.75 11V13C22.75 14.3876 22.7509 15.4734 22.6797 16.3447C22.6078 17.2249 22.4584 17.9522 22.123 18.6104C21.5718 19.6923 20.6923 20.5718 19.6104 21.123C18.9522 21.4584 18.2249 21.6078 17.3447 21.6797C16.4734 21.7509 15.3876 21.75 14 21.75H10C8.61244 21.75 7.5266 21.7509 6.65527 21.6797C5.77513 21.6078 5.04778 21.4584 4.38965 21.123C3.30774 20.5718 2.42822 19.6923 1.87695 18.6104C1.54162 17.9522 1.39222 17.2249 1.32031 16.3447C1.24915 15.4734 1.25 14.3876 1.25 13V11C1.25 9.61244 1.24915 8.5266 1.32031 7.65527C1.39222 6.77513 1.54162 6.04778 1.87695 5.38965C2.42822 4.30774 3.30774 3.42822 4.38965 2.87695C5.04778 2.54162 5.77513 2.39222 6.65527 2.32031C7.5266 2.24915 8.61244 2.25 10 2.25H14ZM18.624 7.58398C18.3943 7.23934 17.9286 7.14621 17.584 7.37598L16.584 8.04297C14.934 9.14299 14.2367 9.59784 13.5146 9.81543C12.5269 10.113 11.4731 10.113 10.4854 9.81543C9.76331 9.59784 9.06605 9.14299 7.41602 8.04297L6.41602 7.37598C6.07137 7.14621 5.60574 7.23934 5.37598 7.58398C5.14621 7.92863 5.23934 8.39426 5.58398 8.62402L6.58398 9.29102C8.15291 10.337 9.06563 10.9545 10.0527 11.252C11.3227 11.6346 12.6773 11.6346 13.9473 11.252C14.9344 10.9545 15.8471 10.337 17.416 9.29102L18.416 8.62402C18.7607 8.39426 18.8538 7.92863 18.624 7.58398Z" fill="#22272F"/>
</svg>
