<?xml version="1.0" encoding="UTF-8"?>
<svg id="Capa_2" data-name="Capa 2" xmlns="http://www.w3.org/2000/svg" xmlns:xlink="http://www.w3.org/1999/xlink" viewBox="0 0 104.72 82.22">
  <defs>
    <style>
      .cls-1 {
        fill: #7a080e;
      }

      .cls-1, .cls-2, .cls-3, .cls-4, .cls-5, .cls-6, .cls-7, .cls-8, .cls-9, .cls-10, .cls-11, .cls-12, .cls-13, .cls-14, .cls-15, .cls-16, .cls-17, .cls-18, .cls-19, .cls-20, .cls-21, .cls-22, .cls-23, .cls-24, .cls-25, .cls-26, .cls-27, .cls-28, .cls-29, .cls-30, .cls-31, .cls-32, .cls-33, .cls-34, .cls-35, .cls-36, .cls-37 {
        stroke-width: 0px;
      }

      .cls-2 {
        fill: #525152;
      }

      .cls-3 {
        fill: url(#Degradado_sin_nombre_218);
      }

      .cls-4 {
        fill: #0d161e;
      }

      .cls-5 {
        fill: #f7f2f5;
      }

      .cls-6 {
        fill: #ed6663;
      }

      .cls-7 {
        fill: #3f0b08;
      }

      .cls-8 {
        fill: #939297;
      }

      .cls-9 {
        fill: #636267;
      }

      .cls-10 {
        fill: #707171;
      }

      .cls-11 {
        fill: #4b434a;
      }

      .cls-12 {
        fill: url(#Degradado_sin_nombre_217);
      }

      .cls-13 {
        fill: url(#Degradado_sin_nombre_212);
      }

      .cls-14 {
        fill: #aa999c;
      }

      .cls-15 {
        fill: #44403f;
      }

      .cls-16 {
        fill: #565778;
      }

      .cls-17 {
        fill: url(#Degradado_sin_nombre_220);
      }

      .cls-18 {
        fill: #ad121b;
      }

      .cls-19 {
        fill: #70606a;
      }

      .cls-20 {
        fill: #201d23;
      }

      .cls-21 {
        fill: #121211;
      }

      .cls-22 {
        fill: #827b7f;
      }

      .cls-23 {
        fill: #bfbfbf;
      }

      .cls-24 {
        fill: #868887;
      }

      .cls-25 {
        fill: #312f35;
      }

      .cls-26 {
        fill: #3e333d;
      }

      .cls-27 {
        fill: #041618;
      }

      .cls-28 {
        fill: #747580;
      }

      .cls-29 {
        fill: #84858e;
      }

      .cls-30 {
        fill: #cc252c;
      }

      .cls-31 {
        fill: #e54242;
      }

      .cls-32 {
        fill: #d9d9d9;
      }

      .cls-33 {
        fill: #615960;
      }

      .cls-34 {
        fill: #5b0c08;
      }

      .cls-35 {
        fill: #a8a9a9;
      }

      .cls-36 {
        fill: #27130d;
      }

      .cls-37 {
        fill: #bb9395;
      }
    </style>
    <linearGradient id="Degradado_sin_nombre_212" data-name="Degradado sin nombre 212" x1="33.21" y1="54.22" x2="33.96" y2="74.26" gradientUnits="userSpaceOnUse">
      <stop offset="0" stop-color="#4b3c42"/>
      <stop offset=".68" stop-color="#655b62"/>
      <stop offset="1" stop-color="#3e353b"/>
    </linearGradient>
    <linearGradient id="Degradado_sin_nombre_220" data-name="Degradado sin nombre 220" x1="14.88" y1="31.48" x2="18.15" y2="32.04" gradientUnits="userSpaceOnUse">
      <stop offset="0" stop-color="#454149"/>
      <stop offset="1" stop-color="#6c6970"/>
    </linearGradient>
    <linearGradient id="Degradado_sin_nombre_218" data-name="Degradado sin nombre 218" x1="16.71" y1="41.77" x2="21.59" y2="43.08" gradientUnits="userSpaceOnUse">
      <stop offset="0" stop-color="#453f48"/>
      <stop offset="1" stop-color="#757075"/>
    </linearGradient>
    <linearGradient id="Degradado_sin_nombre_217" data-name="Degradado sin nombre 217" x1="31.45" y1="15.89" x2="37.58" y2="39" gradientUnits="userSpaceOnUse">
      <stop offset="0" stop-color="#48434a"/>
      <stop offset="1" stop-color="#938f91"/>
    </linearGradient>
  </defs>
  <g id="Capa_1-2" data-name="Capa 1">
    <g>
      <path class="cls-11" d="M79.31,77.04c.11.99-.13,1.51-.13,1.59l-4.18-.66c-.22-.34.06-.56.07-.66.44-.13.88-.09,1.33-.13.97-.08,1.96-.05,2.92-.13Z"/>
      <g>
        <path class="cls-8" d="M13.43,26.97c.12,5.36.02,10.77,0,16.14,0,.14-.21-.2-.4.13.08.1.27.23.27.27-.02,6.45-.14,12.94,0,19.39,0,.03.29.1.4.4-.22.56-.15,1.53-.13,2.19l-.33-1.73c-.31,1.73.49,2.99-.86,2.92.05-2.12-.02-4.25,0-6.37.09-8.5,0-17,0-25.5.34-.02.54.54.8.07.18-.33-.23-6.95-.13-7.44.02-.11.18-.57.4-.46Z"/>
        <path class="cls-24" d="M13.17,24.45c.38.89.24,1.59.27,2.52-.22-.1-.38.36-.4.46-.1.49.31,7.11.13,7.44-.25.47-.46-.09-.8-.07,0-2.74,0-5.49,0-8.23,0-.71.02-1.42,0-2.12.38-.59.66-.04.8,0Z"/>
        <g>
          <path class="cls-29" d="M100.03,23.78c0,.11-.44.58.27.66-.08,0-.35.4-1.59.13-.25-.05-4.71-1.64-4.85-1.86-.15-.23-.04-.65-.07-.93,1.37.1,3.76.87,4.98,1.46.53.26.51.79,1.26.53Z"/>
          <path class="cls-28" d="M100.56,23.12c-.41.96-.5-.47-.53.66-.75.26-.73-.28-1.26-.53-1.22-.59-3.61-1.36-4.98-1.46-.05-.52.04-1.07,0-1.59,2.25.98,4.52,1.95,6.77,2.92Z"/>
        </g>
        <path class="cls-30" d="M58.72,5.72c.03.83.02,1.56,0,2.39-.26,10.78.14,21.56,0,32.34.57.61,1.05.58,0,.8-.34,5.06.5,29.74-.13,32.34h-1.2c-.1-17.97-.31-35.95-.27-53.92.77-.1.62,3.07,1.06,4.85h.27c-.07-6.58-.33-13.21-.13-19.79,0-.05.26-.82.27-.86.25.16.1,1.07.13,1.86Z"/>
        <g>
          <path class="cls-7" d="M57.26.28c0,6.46-.12,12.93-.13,19.39-.05,17.98.16,35.95.27,53.92-.39-.05-.22.19-.27.4-.06.29.02.64-.13.93-.18-.01-.36.01-.53,0,.13-11.11-.11-22.23-.13-33.34,0-.09,0-.18,0-.27-.02-9.7.11-19.39.13-29.09,0-.89.09-5.63,0-5.91-.11-.33-1-.38-1.2-1.13,1.79-.83,1.86-.33,1.73-1.93-5.02,2.11-10.26,4.35-15.34,6.57-.34.15-.82.63-1.2.8-2.21.97-4.57,1.69-6.77,2.66-2.24.99-4.41,2.2-6.64,3.19-3.51,1.55-12.58,5.05-15.01,6.37-.17.09-1.1.54-1.13.6-.07.15.05.81,0,1.13-.34,2.22-.32-.4-.4-.73-.02-.1-.18-.07-.27-.07-.02-.37.05-1.28,0-1.39-.29-.61-2.94.15,2.19-2.59C27.17,13.08,42.02,6.63,56.79,0c.41-.07.44.26.46.27Z"/>
          <path class="cls-31" d="M103.61,20.2c.32.69,1.02.03.8,1.93l-.33.2c-5.19-2.63-10.8-4.37-15.94-7.04-.16-.07-.24.2-.4.13-5.59-2.37-11.1-5.01-16.67-7.44-1-.66.53-.27,1.2-1.06,10.43,4.46,20.81,9.05,31.34,13.28Z"/>
          <path class="cls-30" d="M71.07,7.98c5.57,2.42,11.08,5.07,16.67,7.44.16.07.24-.2.4-.13,5.14,2.67,10.75,4.41,15.94,7.04l.33-.2c.22-1.9-.48-1.23-.8-1.93l1.06.6c-.21,2.3.6,6.05-.8,6.04.02-1.06-.02-2.13,0-3.19,0-.19.44-.1.2-.4-15.09-6.62-30.24-13.11-45.36-19.66-.17-.28.02-.75,0-.93,4.05,1.93,8.24,3.53,12.35,5.31Z"/>
          <path class="cls-31" d="M58.45.94c-.13,2.16.26,1.63.27,1.73.02.18-.17.65,0,.93.01.12-.13.13-.13.27,0,.05-.26.82-.27.86-.2,6.58.06,13.21.13,19.79h-.27c-.44-1.78-.3-4.94-1.06-4.85.02-6.46.13-12.93.13-19.39.43.14.8.49,1.2.66Z"/>
          <path class="cls-6" d="M72.27,6.92c-.66.79-2.2.4-1.2,1.06-4.11-1.79-8.31-3.38-12.35-5.31-.01-.1-.4.43-.27-1.73,4.59,2.03,9.2,4,13.81,5.98Z"/>
          <path class="cls-36" d="M10.91,24.58c.23,0,1.25-.36,1.33-.4.17-.01.13.12.13.27.02.71,0,1.42,0,2.12-.34-.06-2,.1-2.12-.07-.08-.11.03-2.3,0-2.72.09,0,.24-.03.27.07.08.33.05,2.95.4.73Z"/>
          <path class="cls-18" d="M103.88,23.65c-.02,1.06.02,2.13,0,3.19-.09,0-.14-.08-.27-.13-.11-.04-1.83-1.28-1.86-1.39-.11-.38.68-.81.93-1,.33-.25.81-.49,1.2-.66Z"/>
          <path class="cls-4" d="M103.88,23.65c-.38.17-.87.42-1.2.66.38-.49-1.13-.77-2.12-1.2-2.26-.98-4.52-1.94-6.77-2.92-.37-.16-.51-.12-.53-.13-.35-.15-.69-.37-1.06-.53-1.42-.61-2.83-1.25-4.25-1.86-.04-.02-.09-.45-.6-.66-.09-.04-.16.3-1.79-.4-1.13-.48-2.32-.84-3.45-1.33-1.81-.78-3.57-1.74-5.38-2.52-.87-.38-1.71-.49-1.79-.53-.03-.01-.11-.08-.53-.27-.38-.16-.84-.45-1.33-.66-1.33-.58-2.66-1.14-3.98-1.73-.21-.09-.45-.17-.66-.27-.44-.2-.87-.46-1.33-.66-2.74-1.24-5.47-2.51-8.17-3.85l-.2.93c-.03-.79.11-1.7-.13-1.86,0-.13.14-.15.13-.27,15.12,6.55,30.27,13.04,45.36,19.66.24.3-.2.21-.2.4Z"/>
          <path class="cls-21" d="M55.27,5.19c-2.77,1.28-5.64,2.36-8.43,3.59-.12.05-.05.26-.07.27-.06.03-.13-.07-1.2.4-.56.25-4.13,1.5-4.25,1.79v28.55c.08.11.25.19.27.33.07.88-.05,1.78,0,2.66-.14-.01-.18.22-.27.07l-.2-2.86c-.23,2.12-.82,1.63-1.13,3.05-.04.01-.09,0-.13,0-.13-.93-.12-1.85-.13-2.79.16-.14.63-.36.66-.46.25-.91.02-16.35,0-18.79-.02-3.06-.38-6.31-.13-9.36,0-.05.31-.28.4-.4-.14-.05-.27-.16-.4-.2-.41-.12-.56.21-.8.4-.31.24-.32.3-.46.66-2.71,1.26-5.5,2.37-8.17,3.72-.56.28-3.56,1.72-3.72,1.86-.61.07-.5-.13-.53-.13.7-1.12-1.74.24-.93.27-.02,0-.37.25-.4.27-1.61.69-3.19,1.54-4.78,2.26-.58.26-.82.11-.86.13-.12.05-.05.26-.07.27-1.52.68-3,1.44-4.52,2.12-.19.08-1.89.56-2.59.93-.06.03-.15.37-.2.4-.08.04-1.1.41-1.33.4.05-.32-.07-.98,0-1.13.03-.06.96-.51,1.13-.6,2.43-1.33,11.49-4.83,15.01-6.37,2.23-.98,4.4-2.2,6.64-3.19,2.2-.97,4.57-1.69,6.77-2.66.37-.16.86-.65,1.2-.8,5.08-2.23,10.32-4.47,15.34-6.57.13,1.6.07,1.1-1.73,1.93Z"/>
        </g>
        <path class="cls-1" d="M58.59,73.99s.09,0,.13,0v.93c-.13,0-.27,0-.4,0-.3,0-.52.16-1.06.13-.13,0-.14-.13-.27-.13.15-.29.07-.64.13-.93.48-.02.98.03,1.46,0Z"/>
        <path class="cls-37" d="M57.39,73.59h1.2c-.03.11.02.27,0,.4-.48.03-.98-.02-1.46,0,.04-.21-.13-.45.27-.4Z"/>
        <path class="cls-24" d="M13.56,65.49c.05,1.9.27,3.73-.27,5.58-.5-.02-.95.08-.93-.13.07-1.41-.03-2.84,0-4.25,1.35.07.56-1.19.86-2.92l.33,1.73Z"/>
        <path class="cls-29" d="M13.96,42.24c0,1,.13.87.13.93-.02,8.11-.15,16.19,0,24.3.02,1.19-.02,2.39,0,3.59-.26-.02-.53,0-.8,0,.54-1.85.32-3.68.27-5.58-.02-.66-.09-1.63.13-2.19-.11-.3-.4-.37-.4-.4-.14-6.45-.02-12.94,0-19.39,0-.03-.19-.17-.27-.27.18-.33.4,0,.4-.13.02-5.37.12-10.78,0-16.14-.02-.94.11-1.63-.27-2.52.25.08.87.1.93.2.45.75-.13,15.38-.13,17.6Z"/>
        <path class="cls-25" d="M15.03,22.85l-.13,19.39h-.93c0-2.22.59-16.84.13-17.6-.06-.09-.68-.12-.93-.2-.14-.04-.42-.59-.8,0,0-.15.04-.28-.13-.27.05-.03.14-.37.2-.4.7-.37,2.4-.85,2.59-.93Z"/>
        <g>
          <path class="cls-23" d="M99.89,44.5c-.02,1.99-.25,4.02-.27,6.04,0,.1.27.03.27.13,0,.05-.27.22-.27.27-.04,5.12.22,10.28.27,15.41,0,.76-.31,3.55-.27,3.98.02.23.36.52.4.6.03.06-.06.28.13.53-2.25.33-4.52.62-6.77.93-.22-.33-.24-.64-.27-.66.24-.05.24-.19.27-.4,1.74-.72,3.38-.24,5.18-.2.03-8.77-.03-17.53,0-26.3,0-.06-.29-.16-.27-.4,0-.05.4.1.4-.13.03-6.57-.08-13.15,0-19.72,1.24.26,1.51-.13,1.59-.13.83-.04,1.29.29,1.06.6-.29.38-1.15-.59-1.33-.13.08,6.53-.05,13.06-.13,19.59Z"/>
          <path class="cls-24" d="M100.16,70.4c0,.1-.2.2-.13.53-.03-.07-.38-.37-.4-.6-.04-.43.27-3.22.27-3.98-.04-5.12-.31-10.28-.27-15.41,0-.05.27-.22.27-.27,0-.1-.27-.03-.27-.13.02-2.02.24-4.05.27-6.04.25,8.63.07,17.26.27,25.9Z"/>
          <path class="cls-23" d="M102.68,71.06c-.84.11-1.68.28-2.52.4-.2-.26-.11-.48-.13-.53-.07-.33.14-.43.13-.53l2.59-1.2c.58.9-.07,1.76-.07,1.86Z"/>
          <path class="cls-32" d="M93.78,20.2c.04.52-.05,1.07,0,1.59.03.28-.08.7.07.93.14.22,4.59,1.81,4.85,1.86-.08,6.57.03,13.15,0,19.72,0,.23-.39.09-.4.13-.02.23.27.34.27.4-.03,8.77.03,17.53,0,26.3-1.8-.04-3.44-.52-5.18.2.2-1.79.02-23.84,0-28.49,0-.1-.27-.18-.27-.2-.03-5.53.19-11.07.13-16.6-.02-1.99-.23-4,0-5.98.03.01.16-.03.53.13Z"/>
        </g>
        <path class="cls-14" d="M92.45,42.78c.34,3.88.09,7.74.13,11.62,0,.02.27.37.27.4.02,2.41-.5,15.81-.27,16.6.05.17.47.26.53.33.02.03.04.34.27.66-.71.1-1.42.2-2.12.27,0-1.56-.01-3.09,0-4.65.02-3.45-.02-6.91,0-10.36.5-.06,1.16-.06,1.33-.66.8-2.84-1.1-2.57-1.2-2.72-.22-.37.05-7.4,0-8.57.53.1.13-.88.27-1.53.02-.09.4.11.53-1.66.02.13.14.25.27.27Z"/>
        <path class="cls-19" d="M93.38,71.33c-.02.2-.03.34-.27.4-.06-.07-.48-.16-.53-.33-.24-.8.29-14.19.27-16.6,0-.02-.27-.37-.27-.4-.05-3.88.2-7.74-.13-11.62.26.04.69.04.66-.13,0,.02.27.1.27.2.02,4.65.2,26.7,0,28.49Z"/>
        <path class="cls-35" d="M85.55,16.61l.13,1.2s-.09.01-.13,0c-.15-.04-.32-.03-.66-.13-.2-.06-.6-.07-.8-.13-.03-.01-.28-.13-.66-.27-.04-.01-.31-.21-.8-.4-.23-.09-.56-.35-.8-.4l.27-1.2c1.13.49,2.33.85,3.45,1.33Z"/>
        <g>
          <path class="cls-24" d="M92.19,19.53c.37.16.71.38,1.06.53-.23,1.98-.02,3.99,0,5.98-.11.01-.36-.05-.4.07-.08.26.22,5.06.13,5.31-.06.19-.78.09-.93.07,0-3.21-.02-6.42.13-9.63-1.42-.5-2.97-1.21-4.38-1.66,0-.53,0-1.06,0-1.59,1.49-.05,2.34,1,2.46,1.06.38.2,1.36.43,1.46.53.44.43-.32.57,0,.66.68.2.43-.48.46-1.33Z"/>
          <path class="cls-28" d="M92.19,19.53c-.04.85.21,1.53-.46,1.33-.32-.1.44-.24,0-.66-.1-.1-1.08-.33-1.46-.53-.12-.07-.96-1.11-2.46-1.06,0-.5-.07-.95.13-.93,1.42.61,2.83,1.25,4.25,1.86Z"/>
        </g>
        <path class="cls-23" d="M87.94,17.67c-.2-.02-.13.43-.13.93,0,.53,0,1.06,0,1.59-.18-.06-.58-.1-.8-.13-.02-.69.08-1.37,0-2.06-.48-.18-.73-.06-1.33-.2l-.13-1.2c1.63.7,1.71.36,1.79.4.51.22.56.65.6.66Z"/>
        <g>
          <g>
            <path class="cls-21" d="M102.81,75.98c.02.34-.13.25-.13.27-.86.3-1.77.38-2.66.53-1.33.23-2.65.5-3.98.66,0-.07-.12-1.26-.13-1.33.81-.2,6.49-.93,6.71-1.2.21-.25-.12-1.06.2-1.2,0,.75-.04,1.51,0,2.26Z"/>
            <path class="cls-25" d="M102.81,72.53c0,.35,0,.71,0,1.06,0,.04,0,.09,0,.13-.31.13.01.94-.2,1.2-.22.26-5.89,1-6.71,1.2-.02-.09.06-.22-.2-.4l-3.98-.53c-.23.03-.31.48-.73.53.12-.54.4-1.67.4-2.12,1.42-.09,10.72-1.85,11.22-1.59.16.08-.06.51.2.53Z"/>
            <path class="cls-21" d="M102.68,71.06c0,.44.13.98.13,1.46-.26-.02-.04-.45-.2-.53-.51-.25-9.8,1.5-11.22,1.59,0-.05-.13.19-.13-.93.71-.07,1.42-.17,2.12-.27,2.26-.31,4.52-.6,6.77-.93.84-.12,1.68-.28,2.52-.4Z"/>
          </g>
          <path class="cls-25" d="M57.26,75.05c.54.03.76-.14,1.06-.13.31.15-1.08.61-.33,1.06.65.39,13.3-1.38,15.14-1.46l.07,3.25-15.87,2.59-.07-5.31Z"/>
          <g>
            <path class="cls-21" d="M41.59,42.78c.32.03.28-.23.53-.07.07.18-.26.33-.27.4-.46,7.92.35,21.42,0,30.15.15.29,2.27.28,2.66.33.21.03.32.11.53.13.35.04.71.09,1.06.13.49.06.6-.14.66-.13,2.92.34,5.83.94,8.77,1.2.31.03.62-.02.93,0,.18.01.36-.01.53,0,.13,0,.14.13.27.13l.07,5.31,15.87-2.59-.07-3.25c-1.84.09-14.49,1.85-15.14,1.46-.75-.45.64-.91.33-1.06.13,0,.27,0,.4,0,.02,0,.01.4.2.4.64,0,7.65-.84,9.5-1.06,1.58-.19,3.26-.33,4.78-.8,0,.02.15-.11.4.27.02,1.31-.02,2.61,0,3.92,2.02.99,1.42-3.97,1.46-7.11.28,2.25.15,4.52,0,6.77,0,.1-.28.32-.07.66l4.18.66c0,.57.27,1.25.13,1.86.28,1.27-4.15-.84-6.71-.8l-16.93,2.52c-1.01-.2-2.03-.2-3.05-.27-1.84-.12-3.73-.37-5.58-.53-2.88-.25-5.76-.62-8.63-.93-6.65-.78-13.38-.32-19.99-1.46-.43.03-1.41,1.43-.8.27-2.14-.33-16.8-.97-17.53-1.46-.09-.06-.1-.38-.07-.46.31-.77,2.21.12,1.2-.73,1.66-.06,3.32.06,4.98,0,.13,0,.22-.4.27-.4,1.82-.08,3.63.24,5.45.13.14-.1.05-1.32.07-1.59,0-.09,0-.18,0-.27.01-.31-.01-.62,0-.93,0-.18-.01-.36,0-.53.02-.22-.02-.44,0-.66,0-.13,0-.27,0-.4-.17-1.13.4-1,.4-1.06-.02.22.43.12.93.13.26,0,.53-.02.8,0,.27.02.63.11.93.13,1.01.08,2.06.05,3.05.13.46.04.99.23,1.46.27.53.04,1.06.09,1.59.13.84.06,1.67.19,2.52.13h1.06c.05,1.39.03,2.91.93,2.06-.18-4.01-.12-8.01-.13-12.02-.01-2.81-.18-5.62-.13-8.43.1-.14,2.15-.05,2.52-.07.25,5.14-.37,17.22,0,20.85.02.24-.02.49,0,.73,2.84.58,9.09,1.7,11.69,1.93.05,0,.05.29.93.07.11-11.47.19-22.93.27-34.4-.6-.26-.12.28-.8.46.3-1.43.9-.93,1.13-3.05l.2,2.86c.09.16.13-.08.27-.07Z"/>
            <path class="cls-20" d="M22.79,74.25c3.39-.35,2.29.38,3.32,1.33,1.64,1.51,5.2,1.22,7.24,1.66-4.78.85-9.6.63-14.41.2.87-1.98,1.61-2.95,3.85-3.19Z"/>
          </g>
        </g>
        <path class="cls-23" d="M66.95,72.26c-.01.99-.11,1.03.66,1.06.08,0,.48-.11.53-.13v.13c-.46.86.3.49.27.93-1.85.22-8.86,1.06-9.5,1.06-.18,0-.18-.4-.2-.4v-.93c2.42-.22,5.74-1.28,8.23-1.73Z"/>
        <path class="cls-35" d="M73.2,73.46c-1.52.47-3.21.61-4.78.8.03-.44-.73-.07-.27-.93l5.05-1.59c.01.49-.06,1.55,0,1.73Z"/>
        <path class="cls-20" d="M26.58,17.54s-.08.2.53.13c-.14.12-.28.2-.4.33-.1,1.27.13,3.02,0,4.18-.18,1.56-.69-.46-.66,1.06.02,1.24.13,2.47.13,3.72,0,4.47,0,8.94.13,13.41v2.66c-.05,0-.75.37-1.06,0,.07-.58.22-1.13.13-1.73-.18-6.51.41-13.02.4-19.52,0-2.04.26-4.14-.53-3.72.03-.01.38-.26.4-.27.28-.11.64-.28.93-.27Z"/>
        <path class="cls-16" d="M26.58,17.54c-.29-.02-.65.16-.93.27-.81-.03,1.63-1.39.93-.27Z"/>
        <path class="cls-5" d="M40.26,11.03c.19.52-.87.89-.8.4.24-.19.39-.51.8-.4Z"/>
        <path class="cls-20" d="M14.63,43.17s.25-.05.27.07c.36,2.63.11,8.96.13,12.15-.33,2.31-.01,4.66-.13,6.97,0,.12-.39.01-.4.13-.1,1.74.24,5.24-.4,4.98-.15-8.12-.02-16.19,0-24.3h.53Z"/>
        <path class="cls-32" d="M14.89,42.24c.01.07.09.21.13.27-.24-.14-.4.63-.4.66h-.53c0-.06-.14.07-.13-.93h.93Z"/>
        <path class="cls-8" d="M93.25,26.04c.06,5.53-.16,11.07-.13,16.6.03.17-.4.17-.66.13-.13-.02-.25-.14-.27-.27.06-.81-.13-8.47-.13-11.02.15.03.87.12.93-.07.09-.25-.22-5.06-.13-5.31.04-.12.29-.06.4-.07Z"/>
        <g>
          <path class="cls-11" d="M74.39,11.96c-.19-.01-.13.24-.13.53-.2-.06-.25.11-.4.13-1.25.17-.74-.44-.8-1.33.48.21.95.5,1.33.66Z"/>
          <path class="cls-22" d="M74.53,43.57c-.21-.01-.31-.1-.53-.13-.13-.02-.27.01-.4,0,0-.21-.4-.81-.4-.93.08,0,.26-.16.27-.2.48-2.85-.52-20.39.2-25.17.66,1.57-.01-1.17.4-1.59.15,0,0,1.01.33-.53.26,9.51-.28,19.04.13,28.55Z"/>
          <path class="cls-29" d="M74.26,12.49c0,.86.11,1.68.13,2.52-.32,1.54-.18.53-.33.53-.41.43.26,3.17-.4,1.59-.71,4.78.28,22.32-.2,25.17,0,.04-.18.21-.27.2,0-.14-.19-.23-.27-.33.19-4.22-.22-26.78.13-28.22.05-.21,1.35-.82.8-1.33.14-.02.2-.2.4-.13Z"/>
        </g>
        <g>
          <path class="cls-32" d="M74.92,12.23c.08.52-.14,2.06.07,2.39.18.29,5.46,1.75,6.31,2.52-.07.44.07,7.73.13,8.9,0,.13-.48,1.56,1.39,1.73,1.12.1,1.93-.66,2.72-1.33.86-.72.87-.99.93-1.06.04-.04.45.08.53-.07-.04-1.75.05-3.5,0-5.25.22.03.62.08.8.13,1.41.45,2.97,1.16,4.38,1.66-.15,3.21-.14,6.42-.13,9.63,0,2.55.19,10.21.13,11.02-.13,1.77-.51,1.57-.53,1.66-.13.64.26,1.63-.27,1.53-.01-.28.07-1.63-.07-1.73-5.58-.16-11.23-.03-16.8-.4-.41-9.51.12-19.05-.13-28.55-.02-.84-.14-1.66-.13-2.52,0-.29-.06-.55.13-.53.42.18.5.25.53.27Z"/>
          <path class="cls-28" d="M82.1,15.28l-.27,1.2c-.15-.03-.23-.25-.4-.07.07.81-.13.69-.13.73-.84-.78-6.13-2.23-6.31-2.52-.2-.33.01-1.87-.07-2.39.09.04.92.15,1.79.53,1.81.79,3.57,1.74,5.38,2.52Z"/>
          <path class="cls-23" d="M85.55,26.44c-.79.67-1.6,1.43-2.72,1.33-1.87-.17-1.39-1.6-1.39-1.73,1.33.49,2.71.45,4.12.4Z"/>
        </g>
        <g>
          <path class="cls-1" d="M39.6,76.91c-.39-.4-.25-.85-.27-1.33-.1-2.86-.1-5.77-.13-8.63,0-.71,0-1.41,0-2.12,0-.89-.12-1.79-.13-2.66-.01-1.07.14-2.22.13-3.32-.01-1.81-.04-3.63.07-5.45-3.78.09-7.58-.12-11.36,0-.37.01-2.43-.07-2.52.07-.05,2.81.12,5.62.13,8.43-.53-.14-.17-2.61-.27-4.18-.02-.37-.1-1.6-.4-1.53.01-1.42-.02-2.83,0-4.25h14.41l.07-7.77q-7.24-.03-14.48-.07c.15-1.59.39-1,.4-1.06.32.37,1.01,0,1.06,0,3.06-.23,8.03.14,11.55,0,.64-.02,1.63.07,1.99,0,.04,0,.09.01.13,0,.68-.19.2-.72.8-.46-.08,11.47-.15,22.93-.27,34.4-.88.23-.88-.06-.93-.07Z"/>
          <path class="cls-7" d="M25.52,61.9c.01,4.01-.05,8.01.13,12.02-.9.85-.88-.67-.93-2.06-.02-.52.14-1.26.13-1.86-.06-4.6-.05-9.22,0-13.81.3-.07.37,1.15.4,1.53.1,1.58-.26,4.05.27,4.18Z"/>
          <path class="cls-7" d="M39.33,75.58c.02.48-.13.93.27,1.33-2.59-.23-8.85-1.35-11.69-1.93-.02-.24.02-.49,0-.73,3.76.73,7.58,1.23,11.42,1.33Z"/>
          <g>
            <path class="cls-21" d="M39.2,58.85c0,1.1-.15,2.25-.13,3.32-.36-.06-2.14.11-2.26-.07-.09-.13.07-2.71,0-3.19l2.39-.07Z"/>
            <g>
              <path class="cls-13" d="M39.2,58.85l-2.39.07c.07.48-.09,3.06,0,3.19.12.17,1.9,0,2.26.07.01.87.12,1.77.13,2.66-1.96-.26-1.94,2.73,0,2.12.03,2.86.04,5.78.13,8.63-3.84-.1-7.66-.6-11.42-1.33-.37-3.63.25-15.71,0-20.85,3.78-.12,7.58.09,11.36,0-.11,1.81-.08,3.63-.07,5.45Z"/>
              <path class="cls-36" d="M31.96,56.85l2.19.07v11.69c-.11.16-2.27.21-2.39,0l.2-11.75Z"/>
              <path class="cls-21" d="M30.1,69.6c1.09,4.74-1.7,3.86-1.39,2.19.03-.14,1.17-1.7,1.39-2.19Z"/>
            </g>
            <path class="cls-21" d="M39.2,66.95c-1.94.61-1.96-2.39,0-2.12,0,.71,0,1.42,0,2.12Z"/>
          </g>
          <path class="cls-21" d="M24.85,51.94c.03-2.03-.04-7.45,0-7.84q7.24.03,14.48.07l-.07,7.77h-14.41Z"/>
        </g>
        <g>
          <path class="cls-8" d="M19.54,25.24c-.22.9.25,4.29.27,5.51,0,.3-.83,3.65.27,3.85.4,1.36-.53,8.42-.27,8.77.11.14.38.04.53.07,0,.75,0,1.51,0,2.26-.24-.17,0-.6-.66-.33-.02,5.69.28,11.37.27,17.07,0,3.05.21,6.16-.4,9.16-.48-.04-1-.23-1.46-.27.05-9.34-.12-18.68-.13-28.02,0-3.85-.03-7.7,0-11.55.12-.01.34.05.4-.07.15-.31-.04-5.56,1.06-6.71.02.12-.06.27.13.27Z"/>
          <path class="cls-2" d="M17.95,43.31c.01,9.34.19,18.68.13,28.02-.99-.08-2.05-.06-3.05-.13.11-5.18.03-10.36,0-15.54,1.22-.29.42-5.68.4-7.64,0-.04.27-.63.27-.66,0-.61.05-3.98,0-4.18l2.26.13Z"/>
          <path class="cls-20" d="M15.03,55.66c.03,5.18.11,10.36,0,15.54-.3-.02-.66-.12-.93-.13-.02-1.19.02-2.39,0-3.59.64.26.3-3.24.4-4.98,0-.12.39-.01.4-.13.12-2.31-.2-4.67.13-6.97,0,.09,0,.18,0,.27Z"/>
          <path class="cls-9" d="M20.47,64.16c.02.88-.15,6.03,0,6.31.03.06.65.22.8.2.39-.14.15.51-.13,1.06-.53-.04-1.06-.09-1.59-.13.61-3,.39-6.12.4-9.16.66.01-.12,1.72.53,1.73Z"/>
          <path class="cls-17" d="M19.54,20.73c-.16,1.01.78.51.93.73.07.1-.01,2.08,0,2.46-.25.06-.91,1.25-.93,1.33-.19,0-.11-.15-.13-.27-.21-1.02-.43-1.25-1.46-.46-.02,2.41.02,4.83,0,7.24-.03,3.85,0,7.7,0,11.55l-2.26-.13c-.21-.84-.43-.36-.66-.66-.04-.05-.12-.2-.13-.27l.13-19.39c1.51-.69,3-1.44,4.52-2.12Z"/>
          <path class="cls-8" d="M20.47,23.92c.2,6.5-.13,13.03-.13,19.52-.15-.02-.43.07-.53-.07-.27-.35.67-7.41.27-8.77-1.1-.2-.26-3.55-.27-3.85-.02-1.22-.48-4.61-.27-5.51.02-.08.68-1.27.93-1.33Z"/>
          <path class="cls-29" d="M20.34,45.7c0,6.16.01,12.3.13,18.46-.66-.01.12-1.72-.53-1.73,0-5.7-.29-11.37-.27-17.07.67-.27.42.16.66.33Z"/>
          <path class="cls-28" d="M19.41,24.98c-1.1,1.15-.92,6.39-1.06,6.71-.06.12-.28.05-.4.07.02-2.41-.02-4.83,0-7.24,1.03-.78,1.25-.55,1.46.46Z"/>
          <path class="cls-2" d="M15.03,42.51c.24.31.45-.17.66.66.05.2,0,3.57,0,4.18,0,.04-.27.63-.27.66.02,1.96.82,7.34-.4,7.64,0-.09,0-.18,0-.27-.02-3.19.23-9.52-.13-12.15-.02-.11-.26-.05-.27-.07,0-.04.15-.8.4-.66Z"/>
        </g>
        <g>
          <path class="cls-28" d="M56.33,41.31c0,.09,0,.18,0,.27-.33.23-.64.24-.66.27-.1.08-.36.21-.4.33-.16.5,0,9.08,0,10.56-.09,0-.23.04-.27-.07-.42-1.21.7-7.02-.66-5.31q-.07,12.48-.13,24.97c-1.98.17-3.99.04-5.98.07l.27-29.62c2.64,0,3.11-.03,5.58-.8.75-.23,1.49-.49,2.26-.66Z"/>
          <path class="cls-19" d="M56.46,74.92c-.31-.02-.62.03-.93,0-.25-1.19-.09-2.39-.13-3.59.45.5.52-2.64.53-4.18.07-8.42-.22-16.88-.27-25.3.03-.02.34-.04.66-.27.02,11.11.26,22.22.13,33.34Z"/>
          <path class="cls-20" d="M46.77,9.04q-.07,15.44-.13,30.88c.19.3.42.16.66.2.19.03.45-.01.66,0,1.28.07,2.57-.05,3.85,0h3.32c-.03.11.28.23.07.4-.37.01-.75-.02-1.13,0-1.98.11-4.78-.17-6.51,0-.21.02-.83-.07-.93.07-.01.73.02,1.46,0,2.19-.26,9.85.44,19.76.13,29.62v1.33c-.06,0-.18.19-.66.13,0-.12.12-.13.13-.27.15-1.42-.03-25.14-.13-28.49-.04-1.29-.11-3.57-.4-3.39-.02-9.83-.26-19.66-.13-29.48v-2.79c1.06-.47,1.14-.37,1.2-.4Z"/>
          <path class="cls-28" d="M45.04,42.78c.03,10.32-.02,20.63,0,30.95-.21-.03-.32-.11-.53-.13.16-.75-.49-1.27-1.06-1.59.06-8.83-.13-17.66.13-26.5,0-.16-.51-.71.27-3.12.41.27.63.49,1.2.4Z"/>
          <path class="cls-11" d="M55.27,52.74c-.04,6.2-.07,12.4.13,18.59.04,1.2-.11,2.4.13,3.59-2.94-.25-5.84-.85-8.77-1.2v-1.33c.49.1.99,0,1.46,0,1.99-.03,3.99.1,5.98-.07q.07-12.48.13-24.97c1.37-1.71.24,4.1.66,5.31.04.1.18.07.27.07Z"/>
          <path class="cls-33" d="M45.57,12.23c-.12,9.83.11,19.66.13,29.48.02,10.56-.04,21.12-.13,31.68l.66.2c-.01.13-.14.15-.13.27-.35-.04-.71-.09-1.06-.13-.02-10.32.03-20.63,0-30.95-.03-10.29-.19-20.59-.13-30.88-1.02-.2.48-1.33.66.33Z"/>
          <path class="cls-26" d="M43.18,41.85c-.82.47-.9,4.11-.4,4.98-.08.1-.26.23-.27.27-.15,8.27.24,16.58.13,24.84.61.24.76.05.8.07.57.32,1.22.84,1.06,1.59-.39-.05-2.5-.05-2.66-.33.35-8.73-.46-22.23,0-30.15,0-.07.34-.21.27-.4-.25-.17-.21.1-.53.07-.05-.88.07-1.78,0-2.66.62.47,1.01,1.22,1.59,1.73Z"/>
          <path class="cls-33" d="M47.17,42.78h1.33l-.27,29.62c-.47,0-.97.1-1.46,0,.3-9.86-.39-19.76-.13-29.62h.53Z"/>
          <path class="cls-28" d="M55.4,71.33c-.2-6.19-.17-12.4-.13-18.59,0-1.48-.16-10.05,0-10.56.04-.12.3-.25.4-.33.05,8.42.34,16.88.27,25.3-.01,1.55-.08,4.68-.53,4.18Z"/>
          <path class="cls-24" d="M54.07,40.52v1.46c-2.46.76-2.94.8-5.58.8h-1.33c-.1-.7.8-.18,0-.73.67-.02.32-.79.4-1.53,1.73-.17,4.52.11,6.51,0Z"/>
          <path class="cls-33" d="M45.57,9.44v2.79c-.18-1.66-1.68-.53-.66-.33-.06,10.29.1,20.59.13,30.88-.56.09-.78-.13-1.2-.4-.04-.02-.59-.46-.66-.53-.58-.5-.97-1.26-1.59-1.73-.01-.14-.18-.23-.27-.33V11.23c.12-.3,3.69-1.55,4.25-1.79Z"/>
          <g>
            <path class="cls-11" d="M55.27,5.19c.2.75,1.09.8,1.2,1.13.09.28,0,5.02,0,5.91-.82-.42.52-2.43-1.06-1.26-.3,4.39.27,27.05-.27,29.15h-1.2c-.28-4.53.23-25.02,0-26.89-.01-.09-.61-1.52-.66-1.59-1.12-1.61-4.04-1.48-5.31,0,.17,5.97.29,11.97,0,17.93,0,.1-.26.03-.27.13-.06,1.18.2,2.24-.4,3.32v7.11c-.24-.04-.48.1-.66-.2q.07-15.44.13-30.88s-.05-.21.07-.27c2.79-1.23,5.66-2.31,8.43-3.59Z"/>
            <path class="cls-33" d="M56.46,12.23c-.02,9.7-.15,19.39-.13,29.09-.76.18-1.51.43-2.26.66v-1.46c.37-.02.75.01,1.13,0,.22-.16-.1-.29-.07-.4.54-2.1-.03-24.76.27-29.15,1.58-1.17.25.84,1.06,1.26Z"/>
            <path class="cls-33" d="M53.94,40.12h-2.13c-.06-.56-.04-1.42-.13-1.93-.18-1.01-2.26-9.17-2.86-9.1-.51.96-.71.8-.73.86-.15.55-.07,8.46-.13,10.16-.22-.01-.47.03-.66,0v-7.11c.6-1.08.34-2.14.4-3.32,0-.1.26-.03.27-.13.29-5.96.17-11.96,0-17.93,1.27-1.48,4.19-1.61,5.31,0,.05.07.65,1.51.66,1.59.23,1.87-.28,22.37,0,26.89Z"/>
            <path class="cls-22" d="M51.81,40.12c-1.28-.05-2.58.07-3.85,0,.06-1.7-.02-9.61.13-10.16.02-.06.22.1.73-.86.59-.07,2.68,8.09,2.86,9.1.09.51.07,1.37.13,1.93Z"/>
          </g>
          <path class="cls-25" d="M46.24,73.59l-.66-.2c.09-10.56.16-21.12.13-31.68.29-.18.36,2.1.4,3.39.1,3.35.28,27.07.13,28.49Z"/>
          <path class="cls-22" d="M47.56,40.52c-.08.74.27,1.5-.4,1.53.8.55-.1.03,0,.73h-.53c.02-.73-.01-1.46,0-2.19.1-.14.72-.05.93-.07Z"/>
          <path class="cls-11" d="M43.85,42.38c-.77,2.41-.26,2.96-.27,3.12-.27,8.83-.08,17.66-.13,26.5-.03-.02-.19.18-.8-.07.11-8.26-.28-16.56-.13-24.84,0-.03.19-.17.27-.27-.5-.87-.42-4.51.4-4.98.08.07.63.51.66.53Z"/>
        </g>
        <g>
          <path class="cls-11" d="M68.42,9.31c-.13.83-.01,1.79,0,2.66.13,9.91.1,19.84.13,29.75-.07-.07-.39-.43-.4-.46-.28-1.58.63-23.7.13-24.84-.04-.1-.24-.26-.27-.13-.16,1.78.39,5.2-.4,5.25-.02-2.21.04-4.43,0-6.64,0-.5.18-3.1.13-3.25-.2-.71-.52-.39-.66-1.13-.09-.46.06-1.31,0-1.86.46.21.89.47,1.33.66Z"/>
          <path class="cls-33" d="M73.06,11.3c.06.89-.45,1.5.8,1.33.55.51-.75,1.12-.8,1.33-.16.01-.12-.13-.13-.13.8-1.28-2.34-1.89-3.12-2.39-.49-.32-.17-.79-.73-.66v-1.2c1.33.59,2.66,1.15,3.98,1.73Z"/>
          <path class="cls-32" d="M69.08,9.57v2.52c-.16-.07-.48-.14-.66-.13-.01-.86-.13-1.83,0-2.66.22.1.45.17.66.27Z"/>
          <g>
            <path class="cls-32" d="M59.65,8.24c2.42.89,4.75,2.19,7.24,2.92.36.4.18,2.88.2,3.59.48,19.14-.58,38.36-.13,57.51-2.49.45-5.81,1.51-8.23,1.73-.04,0-.09,0-.13,0,.02-.13-.03-.28,0-.4.64-2.6-.21-27.28.13-32.34,1.05-.21.57-.19,0-.8.14-10.78-.26-21.56,0-32.34.29.08.84.1.93.13Z"/>
            <g>
              <path class="cls-33" d="M67.09,8.64c.06.55-.09,1.4,0,1.86-2.54-.42-3.83-1.82-5.25-1.86.11-.49-1.65-1.31-1.86-1.33-1.96-.2.36.56-.33.93-.09-.03-.64-.06-.93-.13.02-.83.03-1.56,0-2.39l.2-.93c2.69,1.34,5.43,2.61,8.17,3.85Z"/>
              <path class="cls-28" d="M67.09,10.5c.14.74.47.41.66,1.13.04.16-.14,2.75-.13,3.25l-.53-.13c-.02-.7.16-3.19-.2-3.59-2.49-.73-4.82-2.03-7.24-2.92.69-.37-1.63-1.13.33-.93.21.02,1.97.84,1.86,1.33,1.42.04,2.71,1.43,5.25,1.86Z"/>
            </g>
          </g>
          <path class="cls-32" d="M69.08,12.1c1.28.59,2.58,1.14,3.85,1.73,0,0-.03.15.13.13-.35,1.44.06,24-.13,28.22.08.1.26.19.27.33,0,.12.39.72.4.93,0,.05-.29-.35-.27.8-.45.38-.83-.13-1.39-.27-1.09-.27-2.35-.25-3.39-.66,0-.53,0-1.06,0-1.59-.03-9.91,0-19.84-.13-29.75.18,0,.51.06.66.13Z"/>
          <path class="cls-33" d="M68.55,41.71c0,.53,0,1.06,0,1.59.02,9.81-.06,19.61.13,29.42-.17.17-.31.35-.53.46-.05.03-.45.14-.53.13-.16-17.26.14-34.53,0-51.8.79-.05.24-3.46.4-5.25.03-.13.22.04.27.13.5,1.14-.42,23.25-.13,24.84,0,.03.33.39.4.46Z"/>
          <path class="cls-29" d="M67.62,14.88c.04,2.21-.02,4.43,0,6.64.14,17.26-.16,34.53,0,51.8-.78-.03-.68-.07-.66-1.06-.45-19.15.61-38.36.13-57.51l.53.13Z"/>
          <path class="cls-28" d="M72.93,13.82c-1.28-.59-2.57-1.14-3.85-1.73v-1.33c.56-.13.24.35.73.66.78.5,3.92,1.11,3.12,2.39Z"/>
          <path class="cls-32" d="M73.33,44.24c.19,9.15-.36,18.33-.13,27.49l-5.05,1.59v-.13c.22-.12.36-.3.53-.46-.2-9.81-.11-19.61-.13-29.42,1.04.41,2.3.4,3.39.66.56.14.94.65,1.39.27Z"/>
        </g>
        <g>
          <path class="cls-11" d="M23.66,69.74v2.12c-.85.06-1.68-.07-2.52-.13.28-.55.52-1.2.13-1.06l-.13-29.35,2.52-.2v28.62Z"/>
          <path class="cls-33" d="M24.85,70c0,.6-.15,1.34-.13,1.86h-1.06v-2.12l1.2.27Z"/>
          <path class="cls-3" d="M25.78,21.79c-.95.38.16,3.38-.93,5.11-.13,4.9.2,9.61.53,14.41.09.59-.07,1.15-.13,1.73,0,.06-.24-.53-.4,1.06-.04.39.03,5.8,0,7.84-.02,1.42.01,2.83,0,4.25-.05,4.6-.06,9.22,0,13.81l-1.2-.27v-28.62l-2.52.2c-.36-2.46.59-19.93,0-20.79-.12-.18-.63.08-.66-.2,1.6-.72,3.17-1.57,4.78-2.26.8-.43.53,1.68.53,3.72Z"/>
          <path class="cls-20" d="M20.47,20.33c.03.28.54.02.66.2.59.85-.36,18.33,0,20.79l.13,29.35c-.15.02-.76-.14-.8-.2-.15-.28.02-5.43,0-6.31-.12-6.16-.13-12.3-.13-18.46,0-.75,0-1.51,0-2.26,0-6.5.34-13.03.13-19.52-.01-.38.07-2.36,0-2.46-.15-.22-1.09.28-.93-.73.02,0-.05-.21.07-.27.04-.02.29.13.86-.13Z"/>
          <path class="cls-33" d="M25.78,21.79c.01,6.5-.58,13.01-.4,19.52-.33-4.8-.66-9.51-.53-14.41,1.09-1.74-.02-4.73.93-5.11Z"/>
        </g>
        <g>
          <path class="cls-12" d="M40.39,20.99c-.54-.11-.12,1.26-.27,2.32-.02.15-.39.22-.4.27-.25,2.49-.06,13.32,0,16.67.02.94,0,1.86.13,2.79-.36.07-1.35-.02-1.99,0l-.2-2.52q-5.08-.07-10.16-.13c.22-.8.05-1.59,0-2.39l-.13-2.92c-.06-2.02-.14-4.09-.13-6.11,0-1.26.18-2.53,0-3.79l.27-.07c.31-.09.63-.38.66-.4.86,1.1,2.42,1.56,3.79,1.33,3.54-.61,1.54-6.97,2.06-9.5-.13-.3-.81-.28-1.06-.33-.72-.16-1.45-.08-2.13-.4,2.67-1.35,5.46-2.46,8.17-3.72.14-.36.16-.42.46-.66-.08.49.98.12.8-.4.13.04.26.15.4.2-.09.12-.39.35-.4.4-.25,3.05.11,6.3.13,9.36Z"/>
          <path class="cls-11" d="M40.39,20.99c.02,2.44.25,17.89,0,18.79-.03.11-.5.33-.66.46-.06-3.35-.25-14.18,0-16.67,0-.05.38-.12.4-.27.14-1.07-.28-2.43.27-2.32Z"/>
          <path class="cls-33" d="M27.51,40.38q5.08.07,10.16.13l.2,2.52c-3.52.14-8.5-.23-11.55,0v-2.66h1.2Z"/>
          <path class="cls-24" d="M26.45,27.77c.05,1.1-.29,1.3.8,1.2-.01,2.02.07,4.09.13,6.11.03.99.07,1.93.13,2.92.05.8.22,1.59,0,2.39h-1.2c-.14-4.47-.13-8.94-.13-13.41.39-.08.24.28.27.8Z"/>
          <path class="cls-28" d="M27.51,25.11l-.27.07c.18,1.26,0,2.53,0,3.79-1.09.11-.75-.1-.8-1.2.64-.17.02-2.47.27-3.45.15.21.69.47.8.8Z"/>
          <path class="cls-28" d="M27.51,37.99c-.06-.99-.1-1.93-.13-2.92l.13,2.92Z"/>
          <path class="cls-24" d="M26.71,24.31c-.25.99.37,3.28-.27,3.45-.02-.52.12-.88-.27-.8,0-1.25-.11-2.48-.13-3.72.36-.1.2.43.66,1.06Z"/>
        </g>
        <g>
          <path class="cls-1" d="M74.79,56.99c-.13,1.09.26.94.27,1,.11.62.03,10.67,0,12.55-.05,3.14.55,8.09-1.46,7.11-.02-1.31.02-2.61,0-3.92-.09-5.59.04-11.15.13-16.73.35.02.71-.03,1.06,0Z"/>
          <path class="cls-34" d="M73.6,43.44c.13.01.27-.02.4,0-.1,4.51-.19,9.03-.27,13.55-.09,5.58-.22,11.15-.13,16.73-.25-.37-.39-.24-.4-.27-.06-.18.01-1.24,0-1.73-.23-9.16.32-18.34.13-27.49-.02-1.14.27-.75.27-.8Z"/>
          <path class="cls-1" d="M92.59,56.99c-.17.61-.83.61-1.33.66-4.33.09-8.69-.15-13.02,0,.05-.67,1.6.2,1.2-.66,4.38-.02,8.77.02,13.15,0Z"/>
          <g>
            <path class="cls-34" d="M91.26,68.01c-.01,1.56,0,3.09,0,4.65,0,1.12.13.88.13.93,0,.46-.28,1.59-.4,2.12-3.88.44-7.8,1-11.69,1.33-.96.08-1.95.05-2.92.13v-.27l14.54-1.73c.31-1.63-.17-6.13.07-7.11.02-.1.18-.07.27-.07Z"/>
            <path class="cls-36" d="M79.44,56.99c.4.87-1.15-.01-1.2.66-.62.02-1.25-.07-1.86.07-.24.33.14,6.56.13,7.5,0,.22,0,.45,0,.66-.02,3.67-.26,7.35-.13,11.02v.27c-.45.04-.89,0-1.33.13.15-2.25.28-4.52,0-6.77.03-1.88.11-11.93,0-12.55-.01-.06-.4.09-.27-1,1.54.14,3.1,0,4.65,0Z"/>
            <g>
              <path class="cls-18" d="M91.26,57.65c-.02,3.45.02,6.91,0,10.36-.09,0-.24-.03-.27.07-.23.98.24,5.47-.07,7.11l-14.54,1.73c-.13-3.67.11-7.35.13-11.02h5.18c-.14,4.46,1.59.65,1.66-1.06h-1.46c-.03.19-.17.39-.2.53l-5.18-.13c0-.94-.37-7.17-.13-7.5.61-.14,1.24-.04,1.86-.07,4.33-.15,8.69.09,13.02,0Z"/>
              <path class="cls-1" d="M81.7,65.35s0,.37,0,.53h-5.18c0-.22,0-.44,0-.66l5.18.13Z"/>
              <path class="cls-1" d="M87.21,61.24c2.24-.2,1.98,1.49,2.46,2.99.15.48.67.87.66.93-.04.38-.49.04-.66.4-.17.36.31,7.2,0,7.84-.08.15-.75.34-.93-.4-.27-1.1.45-9.32.13-10.49-.26-.97-2.38-.83-2.26-1.06.34-.02.57-.2.6-.2Z"/>
            </g>
            <path class="cls-27" d="M81.7,65.88c0-.16,0-.51,0-.53.03-.14.17-.34.2-.53h1.46c-.07,1.72-1.8,5.52-1.66,1.06Z"/>
          </g>
          <g>
            <path class="cls-18" d="M74.53,43.57c5.57.37,11.22.24,16.8.4.13.1.06,1.45.07,1.73.05,1.17-.22,8.2,0,8.57.09.15,1.99-.11,1.2,2.72-4.38.02-8.77-.02-13.15,0-1.55,0-3.1.14-4.65,0-.35-.03-.71.02-1.06,0,.07-4.51.16-9.03.27-13.55.22.04.33.12.53.13Z"/>
            <path class="cls-30" d="M75.12,44.77l14.74.27.07,9.1-14.94-.2.13-9.16Z"/>
          </g>
        </g>
        <g>
          <path class="cls-20" d="M81.83,16.48c.23.05.57.31.8.4v8.17c.21.32.52.16.8.2.28.04.63-.01.93,0,.22,0,.44,0,.66,0h1.46v.13c-.06.07-.07.34-.93,1.06-1.4.06-2.79.09-4.12-.4-.06-1.17-.21-8.46-.13-8.9,0-.04.21.08.13-.73.16-.19.24.03.4.07Z"/>
          <path class="cls-11" d="M87.01,20.06c.05,1.75-.04,3.5,0,5.25-.08.15-.5.02-.53.07v-.13c.36.29.06-1.46,0-1.53-.04-.04-.97-.16-1.2-.2.28-.05,1.35.1,1.46-.07.06-.08.06-1.91,0-1.99-.16-.23-2.52.06-3.05-.07-.24-.06-.25-.25-.27-.27.27-.09.51-.12.8-.13.18,0,.35,0,.53,0,4.71.04.3-.39.8-3.19.04.01.09,0,.13,0,.6.14.85.02,1.33.2.08.69-.02,1.37,0,2.06Z"/>
          <path class="cls-35" d="M83.42,17.28c-.37.56-.55,3.41,0,3.85.01.01.03.21.27.27.05.7-.49,1.64.13,2.12-.47.5-.17,1-.4,1.73-.28-.04-.59.12-.8-.2v-8.17c.48.19.75.38.8.4Z"/>
          <path class="cls-33" d="M85.55,17.81c-.5,2.8,3.91,3.22-.8,3.19.57-.43-.02-2.07.13-3.32.34.1.51.09.66.13Z"/>
          <path class="cls-24" d="M84.09,17.54l.13,3.45c-.29.01-.52.04-.8.13-.55-.44-.37-3.29,0-3.85.38.13.63.25.66.27Z"/>
          <path class="cls-28" d="M84.88,17.67c-.15,1.25.44,2.89-.13,3.32-.18,0-.36,0-.53,0l-.13-3.45c.2.06.6.07.8.13Z"/>
          <path class="cls-24" d="M85.28,23.52c.23.04,1.15.15,1.2.2.06.06.36,1.81,0,1.53h-1.46c-.06-1.2-.78-1.19-.66,0-.3-.01-.65.04-.93,0,.23-.73-.07-1.23.4-1.73.14-.15,1.24-.04,1.46,0Z"/>
          <path class="cls-10" d="M85.02,25.24c-.22,0-.44,0-.66,0-.12-1.19.6-1.2.66,0Z"/>
          <path class="cls-10" d="M85.28,23.52c-.22-.04-1.32-.15-1.46,0-.62-.49-.08-1.43-.13-2.12.54.13,2.89-.16,3.05.07.06.08.06,1.91,0,1.99-.12.16-1.18.02-1.46.07Z"/>
        </g>
        <g>
          <path class="cls-25" d="M30.83,15.81c.68.32,1.41.24,2.13.4.13,1.21.26,8.03.13,8.43-.3.9-3.61.7-4.38.27l3.45-.4v-6.77c-2.92-.37-5.03,1.14-3.72,2.06-1.55,1.25-.72,2.45-1.73,2.39.13-1.17-.1-2.92,0-4.18.12-.13.26-.22.4-.33.16-.14,3.16-1.58,3.72-1.86Z"/>
          <path class="cls-11" d="M28.17,24.71s-.35.3-.66.4c-.1-.33-.64-.59-.8-.8-.47-.63-.3-1.17-.66-1.06-.03-1.52.48.5.66-1.06,1,.05.18-1.14,1.73-2.39.34.24.73.06.8.2-1.24.34-1.11,1.75-.6,1.93.03.01.45-.29.66-.13.81.61-.96.61-1.13,1.13-.65,1.94,3.9.08,3.45,1.2-.16.41-2.81.05-3.25.2-.23.08-.18.39-.2.4Z"/>
          <g>
            <path class="cls-21" d="M28.17,24.71s-.03-.32.2-.4c.45-.15,3.09.21,3.25-.2.45-1.11-4.1.75-3.45-1.2.17-.52,1.94-.52,1.13-1.13-.21-.16-.63.14-.66.13-.51-.18-.64-1.59.6-1.93-.07-.14-.46.04-.8-.2-1.31-.92.8-2.43,3.72-2.06v6.77l-3.45.4c.77.44,4.09.64,4.38-.27.13-.4,0-7.22-.13-8.43.25.06.94.03,1.06.33-.52,2.53,1.48,8.89-2.06,9.5-1.37.24-2.93-.23-3.79-1.33Z"/>
            <path class="cls-15" d="M30.23,21.66c1.9-.84,1.9,2.17,0,1.33-.3-.13-.3-1.2,0-1.33Z"/>
            <path class="cls-25" d="M30.23,18.34c.38-.27,1.83,0,1.26,1.13-.03.06-1.21-.03-1.26-.07-.11-.08-.11-.99,0-1.06Z"/>
            <path class="cls-15" d="M30.1,20.33c.19-.14,1.99-.1,1.39.73-.28.4-2.28-.1-1.39-.73Z"/>
          </g>
        </g>
      </g>
    </g>
  </g>
</svg>