<?xml version="1.0" encoding="UTF-8"?>
<svg id="Capa_2" data-name="Capa 2" xmlns="http://www.w3.org/2000/svg" xmlns:xlink="http://www.w3.org/1999/xlink" viewBox="0 0 93.39 93.9">
  <defs>
    <style>
      .cls-1 {
        fill: #8c5a3c;
      }

      .cls-1, .cls-2, .cls-3, .cls-4, .cls-5, .cls-6, .cls-7, .cls-8, .cls-9, .cls-10, .cls-11, .cls-12, .cls-13, .cls-14, .cls-15, .cls-16, .cls-17, .cls-18, .cls-19, .cls-20, .cls-21, .cls-22, .cls-23, .cls-24, .cls-25, .cls-26, .cls-27, .cls-28, .cls-29, .cls-30, .cls-31, .cls-32, .cls-33, .cls-34, .cls-35, .cls-36, .cls-37, .cls-38, .cls-39, .cls-40, .cls-41, .cls-42, .cls-43, .cls-44, .cls-45, .cls-46, .cls-47, .cls-48, .cls-49, .cls-50, .cls-51, .cls-52, .cls-53, .cls-54, .cls-55, .cls-56, .cls-57, .cls-58 {
        stroke-width: 0px;
      }

      .cls-2 {
        fill: #707070;
      }

      .cls-3 {
        fill: #c69b75;
      }

      .cls-4 {
        fill: #653d2c;
      }

      .cls-5 {
        fill: url(#Degradado_sin_nombre_267);
      }

      .cls-6 {
        fill: #87868d;
      }

      .cls-7 {
        fill: #060606;
      }

      .cls-8 {
        fill: url(#Degradado_sin_nombre_260-2);
      }

      .cls-9 {
        fill: #9c9e9b;
      }

      .cls-10 {
        fill: #74090b;
      }

      .cls-11 {
        fill: #e2615c;
      }

      .cls-12 {
        fill: #1e1611;
      }

      .cls-13 {
        fill: url(#Degradado_sin_nombre_266);
      }

      .cls-14 {
        fill: #0d0c0f;
      }

      .cls-15 {
        fill: #535753;
      }

      .cls-16 {
        fill: url(#Degradado_sin_nombre_262);
      }

      .cls-17 {
        fill: #d4d0ce;
      }

      .cls-18 {
        fill: #dcaf7e;
      }

      .cls-19 {
        fill: #3e1509;
      }

      .cls-20 {
        fill: #cb171c;
      }

      .cls-21 {
        fill: #f39322;
      }

      .cls-22 {
        fill: #f0efed;
      }

      .cls-23 {
        fill: #2e2c2e;
      }

      .cls-24 {
        fill: url(#Degradado_sin_nombre_260-3);
      }

      .cls-25 {
        fill: #b0b1b1;
      }

      .cls-26 {
        fill: url(#Degradado_sin_nombre_266-2);
      }

      .cls-27 {
        fill: #ebc7bd;
      }

      .cls-28 {
        fill: #b10f16;
      }

      .cls-29 {
        fill: #facbae;
      }

      .cls-30 {
        fill: #a56f4a;
      }

      .cls-31 {
        fill: #7a7f8a;
      }

      .cls-32 {
        fill: #eee0e0;
      }

      .cls-33 {
        fill: #2b343b;
      }

      .cls-34 {
        fill: #390b06;
      }

      .cls-35 {
        fill: #605c66;
      }

      .cls-36 {
        fill: #12171d;
      }

      .cls-37 {
        fill: #970a0e;
      }

      .cls-38 {
        fill: #1f1f1f;
      }

      .cls-39 {
        fill: url(#Degradado_sin_nombre_260);
      }

      .cls-40 {
        fill: #737276;
      }

      .cls-41 {
        fill: #9a9a9c;
      }

      .cls-42 {
        fill: #5d6365;
      }

      .cls-43 {
        fill: #33383a;
      }

      .cls-44 {
        fill: #512416;
      }

      .cls-45 {
        fill: #5d5e5f;
      }

      .cls-46 {
        fill: #211610;
      }

      .cls-47 {
        fill: #ed8373;
      }

      .cls-48 {
        fill: url(#Degradado_sin_nombre_266-3);
      }

      .cls-49 {
        fill: #1f1d22;
      }

      .cls-50 {
        fill: #cacaca;
      }

      .cls-51 {
        fill: #d63138;
      }

      .cls-52 {
        fill: #fdb8a6;
      }

      .cls-53 {
        fill: #bc875f;
      }

      .cls-54 {
        fill: url(#Degradado_sin_nombre_265);
      }

      .cls-55 {
        fill: #aaacb1;
      }

      .cls-56 {
        fill: #070707;
      }

      .cls-57 {
        fill: #4a4a4a;
      }

      .cls-58 {
        fill: #e1e1e3;
      }
    </style>
    <linearGradient id="Degradado_sin_nombre_260" data-name="Degradado sin nombre 260" x1="58.9" y1="60.24" x2="10.82" y2="71.79" gradientUnits="userSpaceOnUse">
      <stop offset="0" stop-color="#4f5658"/>
      <stop offset=".12" stop-color="#1c1c1d"/>
      <stop offset=".26" stop-color="#a2a4ab"/>
      <stop offset=".38" stop-color="#b5b9c2"/>
      <stop offset=".76" stop-color="#2d2d33"/>
      <stop offset=".91" stop-color="#5b5b60"/>
      <stop offset="1" stop-color="#18181a"/>
    </linearGradient>
    <linearGradient id="Degradado_sin_nombre_260-2" data-name="Degradado sin nombre 260" x1="58.23" y1="57.44" x2="10.14" y2="68.99" xlink:href="#Degradado_sin_nombre_260"/>
    <linearGradient id="Degradado_sin_nombre_260-3" data-name="Degradado sin nombre 260" x1="57.23" y1="53.27" x2="9.14" y2="64.82" xlink:href="#Degradado_sin_nombre_260"/>
    <linearGradient id="Degradado_sin_nombre_262" data-name="Degradado sin nombre 262" x1="55.63" y1="54.71" x2="53.29" y2="55.07" gradientUnits="userSpaceOnUse">
      <stop offset="0" stop-color="#3b3c40"/>
      <stop offset="1" stop-color="#181818"/>
    </linearGradient>
    <linearGradient id="Degradado_sin_nombre_265" data-name="Degradado sin nombre 265" x1="51.71" y1="53.06" x2="8.85" y2="58.67" gradientUnits="userSpaceOnUse">
      <stop offset="0" stop-color="#0b0b0c"/>
      <stop offset=".26" stop-color="#dedee3"/>
      <stop offset=".66" stop-color="#28282d"/>
      <stop offset="1" stop-color="#040404"/>
    </linearGradient>
    <linearGradient id="Degradado_sin_nombre_266" data-name="Degradado sin nombre 266" x1="40.51" y1="27.43" x2="24.13" y2="39.55" gradientUnits="userSpaceOnUse">
      <stop offset="0" stop-color="#858588"/>
      <stop offset="1" stop-color="#383639"/>
    </linearGradient>
    <linearGradient id="Degradado_sin_nombre_267" data-name="Degradado sin nombre 267" x1="44.79" y1="33.14" x2="48.64" y2="33.29" gradientUnits="userSpaceOnUse">
      <stop offset="0" stop-color="#7a7677"/>
      <stop offset="1" stop-color="#313238"/>
    </linearGradient>
    <linearGradient id="Degradado_sin_nombre_266-2" data-name="Degradado sin nombre 266" x1="20.27" y1="32.65" x2="23.17" y2="32.65" xlink:href="#Degradado_sin_nombre_266"/>
    <linearGradient id="Degradado_sin_nombre_266-3" data-name="Degradado sin nombre 266" x1="20.87" y1="33.1" x2="23.93" y2="33.1" xlink:href="#Degradado_sin_nombre_266"/>
  </defs>
  <g id="Capa_1-2" data-name="Capa 1">
    <g>
      <path class="cls-23" d="M51.03,12.79c.5.27,1.05.59,1.29,1.19-.87.14-.21,1.94-.2,2.62,0,.04-.2.16-.2.2.01,1.01.2.94.2.99.01.5-.13,1.23-.1,2.18,0,.04.47.33,0,.49.34.15.31.82-.1.89-.21,2.36.7,6.6.89,9,.29,3.68.22,7.35.69,11.08,1.09,1.36.2,1.48.2,1.58,0,.18.2.26.2.3-.09,2.18.75,5.53,1.29,7.76-.56.2-1.43.36-1.98.1-.85-10.66-1.06-21.35-2.18-31.99.12-.39.76.58.35-2.03-.3,3.24-.45.49-.54-.84-.09-1.22-.25-3.84.2-3.51Z"/>
      <path class="cls-57" d="M53.51,27.62c.16,1.75.33,3.49.49,5.24,0,.05-.17.24-.1.94.33,3.48.9,10.61,1.29,13.25.26,1.76.57,2.41.79,3.31-.19.63-.28.51-.79.69-.53-2.24-1.37-5.58-1.29-7.76,0-.04-.21-.11-.2-.3,0-.1.9-.22-.2-1.58-.47-3.73-.4-7.4-.69-11.08-.19-2.4-1.1-6.64-.89-9,.41-.07.44-.74.1-.89.47-.16,0-.46,0-.49-.03-.94.11-1.68.1-2.18,0-.05-.18.02-.2-.99,0-.04.2-.16.2-.2-.01-.68-.67-2.48.2-2.62.07,4.58.77,9.11,1.19,13.65Z"/>
      <path class="cls-56" d="M5.93,55.71c.19.15,2.05,1.81,1.98,1.93-.9.06-1.57-.64-2.08.45-.58-.86-1.17-1.86-1.68-2.77-.19-.33-.42-.65-.59-.99.81-.03,1.7.84,2.37,1.38Z"/>
      <path class="cls-23" d="M57.16,54.52c.66,1.52,4.24,5.92,4.05,7.02l-3.46-4.45c-.32-.61-.99-2.42-.59-2.57Z"/>
      <path class="cls-39" d="M44.21,65.8c-6.44.6-12.92.81-19.38.59,4.01,0,8.01-.24,12.02-.2,1.92-.41,4.49,0,6.33-.59.21.08.87.21,1.04.2Z"/>
      <g>
        <path class="cls-23" d="M48.16,11.8l.69,8.85-1.48.05c-.29-.03-.6.02-.89,0-.1-2.08-.36-4.15-.49-6.23.34.37.68-1.34.69-1.53.02-.42-.44-1.32-.1-1.83.22.17.4.36.64.49.28.08.74.13.94.2Z"/>
        <path class="cls-57" d="M46.58,11.1c-.34.51.12,1.41.1,1.83-.01.19-.35,1.9-.69,1.53-.01-.2.01-.4,0-.59-.06-.95-.22-2.53.1-3.12l-1.48-1.63c.25.27,1.87,1.89,1.98,1.98Z"/>
      </g>
      <path class="cls-56" d="M56.18,50.67c-.11.09-.21.55-.2.69-.66.28-1.37.56-2.08.69-.25.05-.54.02-.79.1.05-.34,0-.66.1-.99.54.26,1.41.11,1.98-.1.51-.18.6-.06.79-.69,0,.02.1-.06.2.3Z"/>
      <path class="cls-8" d="M24.82,66.39c-2.23,0-4.49.08-6.73-.25,1.76-.26,3.63.3,5.49.05.35.08.89.19,1.24.2Z"/>
      <path class="cls-56" d="M2.08,51.16c-.73.14-1.31-.55-2.08-.49,2.54-.85,1.74-.39,2.08.49Z"/>
      <path class="cls-56" d="M8.11,17.73c-.05.21.19.29.2.35.2,1.1-.43,7.64-.59,9.4-.32.24-1.51-1.45-2.37-1.04-.7-.71.44-1.4-.49-1.58.38-2.03,1.01-4.87,2.37-6.48.38-.46.85-.61.89-.64Z"/>
      <path class="cls-9" d="M5.34,26.43c-.06.03-.74.84-.89.99.07-.86.24-1.72.4-2.57.94.18-.21.87.49,1.58Z"/>
      <path class="cls-56" d="M51.03,12.79c-.45-.33-.28,2.3-.2,3.51.09,1.33.25,4.08.54.84.41,2.6-.22,1.64-.35,2.03,1.11,10.64,1.33,21.34,2.18,31.99-.09.33-.05.65-.1.99,0,.03-.4-.15,0,.49-.1,0-.2,0-.3,0-.03,0-.07,0-.1,0,.06-.69.01-.4-.89-.4-1.02,0-2.04.08-3.07.1-.9-.08-.89-.39-.94-.4-1.57-.26-11.29.24-13.65.4-1.71.11-3.44.46-5.14.59-.11,0-.49-.15-1.19-.1-.08,0-.02.19-.1.2-.06,0-.42-.16-1.29-.1-.08,0-.02.19-.1.2-1.99.14-3.95.17-5.98.3-2.1-.05-5.98-.5-6.28-.4-.08.03-.05.13-.05.2-1.21-.18-2.37-.47-3.56-.69-.03,0-.3-.25-.64-.2-.73.77-1.21,1.79-1.34,1.98-.28-.12-1.09,1.17-1.63,1.78-.09.03-.6-.31-.74-.4-1.51-.95-1.69-2.48-2.67-1.58-.5-.97-1-1.95-1.38-2.97-.33-.88.46-1.35-2.08-.49.16-.97,2.54-6.4,2.37-6.87-.17-.46-.83.41-.79-.79.07-2.38,1.04-2.81,1.09-2.97.2-.7-.23-5.27-.1-6.63-.11-.74-.65-.55-.84-.74-1.26-1.28-.81-4.16.64-4.25,1.45.44,1.48-.39,2.08-.99.15-.15.83-.96.89-.99.86-.41,2.05,1.28,2.37,1.04.16-1.75.8-8.29.59-9.4-.01-.06-.25-.14-.2-.35,3.83-3.41,8.6-4.58,13.55-5.34.27,2.92.26,5.93.79,8.8-1.6.18-2.04.43-2.97,1.83.45,6.59.29,13.21.79,19.78.19.44.39.56.69.84,1.05,1,1.56.64,2.92.69,5.93-.72,21.31-.23,25.66-.89.3-.04.46.08,1.09-.3.14-.08.56-.34.59-.45.05-.14-.08-2.53-.1-3.02-.09-3.05-.34-6.54-.59-9.59-.22-2.65-.58-5.3-.69-7.96-.18-.6-.52-.6-.69-.74-.54-.45-.87-.6-1.58-.69-.06,0-.13,0-.2,0l1.48-.05-.69-8.85c.95.34,1.96.5,2.87.99Z"/>
      <g>
        <path class="cls-56" d="M6.13,55.71h-.2c-.67-.55-1.56-1.41-2.37-1.38-.03-.06-.07-.13-.1-.2.98-.9,1.16.64,2.67,1.58Z"/>
        <path class="cls-56" d="M3.51,33.36l3.41,1.73c-.61,3.02,1.4,12.68-2.03,12.91l-1.38-14.64Z"/>
        <g>
          <path class="cls-9" d="M4.1,28.91c.23,0,.48-.08.64.15v1.68l-2.13.15-.25-.25c.11-1.54-.26-1.81,1.73-1.73Z"/>
          <g>
            <path class="cls-57" d="M7.02,29.8l-1.38-.1c-.01-.24-.28-.63.05-.89l1.48-.49c.15.13-.11,1.26-.15,1.48Z"/>
            <path class="cls-23" d="M7.02,29.8c-.06.28.13.67-.15.89-.13.1-.99.15-1.09.1-.16-.09-.14-.89-.15-1.09l1.38.1Z"/>
          </g>
          <path class="cls-57" d="M5.39,27.62c.14,0,1.93,1.59-.84.84.14-.1.78-.84.84-.84Z"/>
        </g>
        <g>
          <path class="cls-56" d="M10.48,52.54c1.19.22,2.35.51,3.56.69,2.45.37-.67-.01-1.14,0-.06,0-.68.61-.4-.1-.89.26-1.57-.79-1.98-.1l-.25-.45.2-.05Z"/>
          <path class="cls-33" d="M52.71,52.64c-.53-.05-.76.21-.89-.4.9,0,.95-.29.89.4Z"/>
        </g>
        <path class="cls-56" d="M12.51,36.92c.36.05.28.57.1.59-.06,0-.95-.71-.1-.59Z"/>
        <path class="cls-56" d="M38.32,48.79c.35-.11.47.41.2.49-.18.06-.52-.39-.2-.49Z"/>
        <path class="cls-56" d="M8.16,52.05c.08-.06.45.04.45.15,0,.21-.99.26-.45-.15Z"/>
      </g>
      <g>
        <path class="cls-36" d="M48.76,52.35c-6.75.12-13.5.34-20.23.99-2.69.05-5.43.17-8.16.1,2.03-.12,4-.15,5.98-.3.08,0,.02-.19.1-.2.87-.06,1.22.1,1.29.1.08,0,.02-.19.1-.2.7-.05,1.08.11,1.19.1,1.71-.13,3.43-.48,5.14-.59,2.36-.16,12.08-.65,13.65-.4.05,0,.04.32.94.4Z"/>
        <g>
          <path class="cls-24" d="M8.51,54.32c-.44.66-.96,1.26-1.38,1.93,1.12,1.45,2.73,2.6,4.5,3.12,3.5,1.02,12.42,1.13,16.37,1.09,1.03-.01,2.04-.07,3.07-.1,5.45-.16,10.87-.65,16.32-.79,1.05-.12,2.12-.09,3.16-.2.75-.08,1.76-.17,2.47-.3,1.68-.3,3.43-.85,4.75-1.98l3.46,4.45c-.4,2.44-11.05,3.84-13.2,4.05-1.27.12-2.54.12-3.81.2,2.99-.48,6.07-.55,9.05-1.09.26-.05,3.93-.82,2.87-.99-10.08,1.39-24.94,2.49-34.91,1.98-6.18-.32-9.54-.33-13.4-4.55.55-.12-.98-1.58-1.98-3.07.5-1.09,1.18-.38,2.08-.45.08-.11-1.79-1.78-1.98-1.93h.2c.14.09.65.42.74.4.54-.61,1.35-1.9,1.63-1.78Z"/>
          <path class="cls-23" d="M5.84,58.08c1,1.49,2.53,2.95,1.98,3.07-.91-.99-1.76-1.97-2.47-3.12-.38-.61-1.46-2.47-1.19-2.72.51.91,1.1,1.9,1.68,2.77Z"/>
          <path class="cls-35" d="M47.37,59.27v.3c-5.45.14-10.87.64-16.32.79-.02-.19-.38-.03-.4-.15-.01-.11.48.07.4-.25,5.46-.22,10.87-.34,16.32-.69Z"/>
          <path class="cls-23" d="M31.06,59.96c.08.32-.41.14-.4.25.01.11.38-.04.4.15-1.03.03-2.04.09-3.07.1-.44-.49,1.57-.44,3.07-.49Z"/>
          <path class="cls-23" d="M50.54,59.37c-1.05.11-2.12.08-3.16.2v-.3c1.27-.08,3.33-.36,3.16.1Z"/>
        </g>
        <g>
          <path class="cls-16" d="M57.16,54.52c-.39.15.27,1.96.59,2.57-1.32,1.13-3.07,1.67-4.75,1.98-.22-2.12-.19-4.28-.2-6.43.1,0,.2,0,.3,0,.33,0,.58-.06.89-.1.69-.08,1.35-.22,2.03-.4.34-.22-.04-.59-.05-.79,0-.14.08-.6.2-.69.34,1.31.46,2.62.99,3.86Z"/>
          <path class="cls-54" d="M51.82,52.25c.13.6.36.35.89.4.03,0,.07,0,.1,0,0,2.14-.02,4.31.2,6.43-.71.13-1.73.22-2.47.3.17-.46-1.9-.18-3.16-.1-5.45.35-10.86.48-16.32.69-1.49.06-3.51,0-3.07.49-3.95.04-12.87-.07-16.37-1.09-1.77-.52-3.38-1.67-4.5-3.12.43-.67.94-1.27,1.38-1.93.13-.19.6-1.21,1.34-1.98.34-.05.61.19.64.2l-.2.05.25.45c.41-.69,1.09.36,1.98.1-.29.71.33.1.4.1.47-.01,3.59.37,1.14,0,0-.07-.03-.17.05-.2.3-.1,4.18.34,6.28.4,2.73.07,5.47-.05,8.16-.1,6.73-.65,13.47-.87,20.23-.99,1.02-.02,2.05-.09,3.07-.1Z"/>
          <path class="cls-57" d="M53.9,52.05l.1.49c-.31.04-.56.1-.89.1-.4-.64,0-.46,0-.49.25-.07.54-.05.79-.1Z"/>
          <path class="cls-6" d="M54,52.54l-.1-.49c.7-.13,1.42-.41,2.08-.69.01.2.39.57.05.79-.67.17-1.33.31-2.03.4Z"/>
        </g>
      </g>
      <g>
        <path class="cls-56" d="M16.42,2.8c2.59.93,4.25,3.87,4.85,6.43.05.22.46,2.7.49,2.97.01.1.02.2-.1.2-4.95.76-9.72,1.93-13.55,5.34-.04.04-.51.19-.89.64-1.36,1.61-1.99,4.45-2.37,6.48-.16.85-.32,1.71-.4,2.57-.59.59-.62,1.43-2.08.99.16-6.97,1.25-13.39,5.64-19.04,2.79-3.59,5.25-4.57,7.62-6.48.08.13.6-.05.79-.1Z"/>
        <path class="cls-57" d="M28.48,2.5c1.39,1.35,2.8,4.69,3.56,6.53.15.36.59,2.03.69,2.13.34.35,1.03.05,1.09.05.33.02.64.09.99.1.33.01.66,0,.99,0,.16,0,.33,0,.49,0,1.65.05,3.3.07,4.95.1.4,0,.79,0,1.19,0,.25,0,.95.3,1.29-.05-.26-.43-.47-.89-.69-1.34.49-.04.25-.29.1-.69.74-.43.44.61,1.19.54l-1.09-2.23c.45.5.92.99,1.38,1.48l1.48,1.63c-.32.59-.16,2.17-.1,3.12l-.2.05c-.45-1.99.23-1.42-1.98-1.63-2.72-.26-6.19-.17-9-.2-2.94-.03-5.87.12-8.8.1-.4,0-.86-.09-1.29-.1-.02-.13.02-.27,0-.4.2-.22.68.07.79-.25.05-.15-.94-2.62-1.09-3.02.31-.3.38,0,.4-.25.02-.36-1.58-3.85-2.37-5.04-.37-.56-.97-.88-1.19-1.73,1.52-.24,3.23-.18,3.86-.59,1.27.48,2.33.68,3.36,1.68Z"/>
        <path class="cls-57" d="M36.89,2.6c.45.6,1.24,1.02,1.88,1.48.14.5-.36.34.49.84-.43.38.38,1.1.89,2.27.18.42,1.25,3,1.29,3.16.04.2-.21.13-.2.2.05.39.31.35,0,.84-1.65-.02-3.3-.05-4.95-.1-.63-2.85-2.4-6.49-4.35-8.65-.29-.32-.85-.92-1.09-.74-.18-.22-.49-.61-.69-.79,3.66-.19,4.77.78,6.73,1.48Z"/>
        <path class="cls-56" d="M30.16,1.12c.2.18.51.57.69.79,1.32,1.64,2.52,4.61,3.16,6.63.29.91.46,1.87.79,2.77-.35-.01-.66-.07-.99-.1-.1-.56-.31-1.05-.49-1.58-.3-.87-.6-1.79-.99-2.62-.54-1.14-2.85-5.26-3.86-4.5-1.03-1-2.09-1.2-3.36-1.68,1.86-1.1,3.4-1.18,5.04.3Z"/>
        <path class="cls-56" d="M18.69,2.01s.54.27.59.3c1.67.99,3.17,4.23,3.76,6.03.27.83,1.15,3.82.59,3.66-.31,0-.59.07-.89.1-.25-2.85-2.62-10.23-6.33-9.3-.19.05-.72.23-.79.1.14-.11.64-1.72,3.07-.89Z"/>
        <path class="cls-56" d="M43.22,7.64l1.09,2.23c-.74.07-.44-.97-1.19-.54-.34-.91-1.26-2.19-1.88-2.97-1.12-1.42-1.08-1.27-2.47-2.27-.64-.46-1.43-.89-1.88-1.48.07.02.34-.21,1.43.2,2.75,1.02,4.07,3.91,4.9,4.85Z"/>
        <path class="cls-23" d="M21.26,1.41c.21.85.82,1.17,1.19,1.73.8,1.2,2.39,4.68,2.37,5.04-.01.24-.08-.05-.4.25-.76-2.01-1.56-3.85-3.16-5.34-.51-.47-1.2-1.41-1.98-.79-.05-.03-.56-.29-.59-.3.84-.27,1.7-.45,2.57-.59Z"/>
        <path class="cls-23" d="M22.75,12.09c-.1.01-.2-.01-.3,0-.32-1.07-.52-3.07-1.19-2.87-.59-2.55-2.26-5.5-4.85-6.43,3.71-.93,6.08,6.45,6.33,9.3Z"/>
        <path class="cls-56" d="M22.45,12.09s-.23.16-.69.1c-.03-.27-.44-2.74-.49-2.97.67-.2.86,1.8,1.19,2.87Z"/>
        <path class="cls-23" d="M36.3,11.3c-.16,0-.33,0-.49,0-.42-2.31-1.1-1.93-1.19-2.03-.29-.32.25-1.11-.59-.74-.65-2.02-1.85-4.99-3.16-6.63.23-.18.8.42,1.09.74,1.95,2.17,3.72,5.81,4.35,8.65Z"/>
        <path class="cls-23" d="M33.33,9.62c-.28-.45-.72-.61-1.29-.59-.76-1.83-2.17-5.18-3.56-6.53,1.01-.76,3.32,3.36,3.86,4.5.39.83.69,1.75.99,2.62Z"/>
        <path class="cls-57" d="M41.24,6.36c-.14-.04-.51.22-.59.3-.02.02-.18-.04-.2.05-.04.25,2.1,3.91,1.98,4.7-.4,0-.79,0-1.19,0,.31-.49.05-.45,0-.84,0-.07.24,0,.2-.2-.03-.17-1.1-2.75-1.29-3.16-.51-1.17-1.32-1.9-.89-2.27-.86-.5-.36-.34-.49-.84,1.39,1.01,1.35.86,2.47,2.27Z"/>
        <path class="cls-23" d="M24.43,8.43c.15.39,1.14,2.87,1.09,3.02-.11.31-.59.03-.79.25-.14-.7-.75-1.72-1.09-2.37.07,0,.17.03.2-.05.23-.66-1.97-5.36-2.57-6.18,1.61,1.49,2.41,3.33,3.16,5.34Z"/>
        <path class="cls-56" d="M40.65,6.65c.93,1.02,1.75,2.13,2.37,3.36.22.45.43.91.69,1.34-.33.35-1.04.05-1.29.05.12-.78-2.02-4.45-1.98-4.7.01-.09.18-.03.2-.05Z"/>
        <path class="cls-57" d="M33.33,9.62c.18.53.4,1.02.49,1.58-.05,0-.75.31-1.09-.05-.1-.1-.54-1.77-.69-2.13.57-.02,1,.14,1.29.59Z"/>
        <path class="cls-42" d="M35.8,11.3c-.33,0-.66.01-.99,0-.33-.9-.5-1.86-.79-2.77.84-.37.3.43.59.74.09.09.77-.28,1.19,2.03Z"/>
        <path class="cls-42" d="M23.64,9.32c.34.65.95,1.67,1.09,2.37.02.12-.02.27,0,.4-.16,0-.33,0-.49,0-.92-.01-.56-.1-.59-.1.55.16-.32-2.83-.59-3.66.36.22.42.65.59.99Z"/>
        <path class="cls-57" d="M41.24,6.36c.62.78,1.54,2.06,1.88,2.97.15.4.39.66-.1.69-.62-1.23-1.44-2.35-2.37-3.36.08-.08.45-.34.59-.3Z"/>
        <path class="cls-23" d="M21.26,3.09c.6.82,2.8,5.52,2.57,6.18-.03.08-.13.05-.2.05-.17-.34-.23-.77-.59-.99-.59-1.81-2.08-5.04-3.76-6.03.77-.62,1.47.32,1.98.79Z"/>
      </g>
      <g>
        <path class="cls-55" d="M58.06,30.19c-.38-.22-1.54.16-1.83,0-.13-.07-.32-1.77-.35-2.08.39.07,1.12-.01,1.53-.1.2.58.69,1.62.64,2.18Z"/>
        <g>
          <path class="cls-56" d="M55.88,28.12c.02.3.22,2.01.35,2.08.29.16,1.45-.22,1.83,0-.16,1.86-1.9,1.12-2.32,1.29-.62,1.08-.03,1.47-1.73,1.38-.17-1.75-.33-3.49-.49-5.24.83-.9,1.69.37,2.37.49Z"/>
          <path class="cls-55" d="M53.75,28.31h1.68l.35,1.93c-2.29.24-2.09.41-2.03-1.93Z"/>
        </g>
      </g>
      <path class="cls-40" d="M34.71,12.29s-.02.13,0,.2c.1.47.1.88-.3.99-.8.21-.91-.68-.59-1.19h.89Z"/>
      <path class="cls-40" d="M34.71,12.29h-.89c.1-.17.77-.15.89,0Z"/>
      <g>
        <path class="cls-40" d="M23.64,11.99s-.33.09.59.1c-.12.42,1.13.17,1.78.1,2.94.02,5.87-.13,8.8-.1l-.1.4c-.02-.07.02-.18,0-.2-.12-.15-.79-.17-.89,0-.31.5-.2,1.4.59,1.19-.06.41,4.17,1.55,4.4,1.58,2.06.32,4.97-.17,4.99-2.77,2.21.21,1.53-.36,1.98,1.63l.2-.05c.01.2-.01.4,0,.59.13,2.08.39,4.15.49,6.23-2.37-.13-7.06-.03-9.74,0-3.61.04-11.05.53-13.7.4-.03,0-.5-.33-.49.1-.03,0-.07,0-.1,0-.53-2.88-.52-5.88-.79-8.8.12,0,.11-.09.1-.2.47.06.65-.09.69-.1.1-.01.2.01.3,0,.3-.03.58-.09.89-.1Z"/>
        <path class="cls-40" d="M43.81,12.29c-.03,2.6-2.93,3.09-4.99,2.77-.24-.04-4.46-1.17-4.4-1.58.4-.11.4-.52.3-.99l.1-.4c2.81.03,6.28-.06,9,.2Z"/>
        <path class="cls-40" d="M24.73,12.09c.42,0,.89.1,1.29.1-.65.07-1.9.32-1.78-.1.16,0,.33,0,.49,0Z"/>
        <path class="cls-40" d="M23.04,21.09c-.18.04-.3.09-.49.1,0-.43.46-.1.49-.1Z"/>
      </g>
      <g>
        <path class="cls-17" d="M46.48,20.7c.29.02.6-.03.89,0,.06,0,.13,0,.2,0,.07.88-.7.67-.59,1.09-7.94.14-15.89.14-23.84.2-1.34-.1-2.1.06-2.87,1.24.53,6.49.24,13.05.79,19.53.05.53.32.87-.1.89-.3-.28-.5-.4-.69-.84-.5-6.57-.34-13.19-.79-19.78.93-1.4,1.37-1.65,2.97-1.83.03,0,.07,0,.1,0,.19-.01.32-.06.49-.1,2.65.13,10.09-.35,13.7-.4,2.68-.03,7.37-.13,9.74,0Z"/>
        <path class="cls-17" d="M50.54,30.09c-.95.02-.57.28-.79.69-.06-.79-.14-1.58-.2-2.37-.14-1.78-.31-3.56-.4-5.34-.05-.93-.2-1.13-.2-1.19,0-.03.27,0,.2-.49.17.14.51.15.69.74.12,2.66.48,5.31.69,7.96Z"/>
        <path class="cls-17" d="M51.13,39.69c.01.49.15,2.87.1,3.02-.03.1-.46.36-.59.45,0-.13-.19-.17-.2-.3-.14-3.98-.4-7.9-.69-11.87.32-.1.19,1.01.3,1.83,0,.05.19.15.2.2.18,1.43.29,3.71.2,5.14.7.37.29,1.4.69,1.53Z"/>
        <path class="cls-17" d="M50.54,30.09c.25,3.05.5,6.55.59,9.59-.4-.13.01-1.17-.69-1.53.1-1.43-.01-3.71-.2-5.14,0-.05-.19-.15-.2-.2-.11-.82.02-1.93-.3-1.83,0-.07,0-.13,0-.2.23-.42-.15-.67.79-.69Z"/>
        <path class="cls-17" d="M49.15,21.39c.07.49-.2.47-.2.49-.58-.39-1.26-.11-1.88-.1-.03,0-.07,0-.1,0-.11-.42.66-.21.59-1.09.71.1,1.04.25,1.58.69Z"/>
        <path class="cls-22" d="M50.44,42.85c0,.13.19.17.2.3-.63.38-.79.25-1.09.3l-.1-.49c.17-.01.49-.17.99-.1Z"/>
        <path class="cls-19" d="M46.98,21.79s.07,0,.1,0c-.26.92,1.08,0,1.29.59h-1.29c-4.72-.04-9.43.11-14.14.2-1.35.03-2.7-.03-4.05,0-1.8.04-3.64.01-5.44.1-.38.02-.88-.05-1.19,0,.08-.52,1.08.25.89-.69,7.94-.05,15.89-.06,23.84-.2Z"/>
        <path class="cls-13" d="M39.46,23.67c.26.92,1.45,16.15,1.78,18.99l-16.42.64-.59-19.58,15.23-.05Z"/>
        <path class="cls-22" d="M47.08,22.38c.08.29.06.6.1.89,0,.03,0,.07,0,.1l-2.97.05,1.98,19.63c-.07.75-2.69.3-4.5.4-1.22.06-1.27.72-.74-.54l.4-.1-.1-.15c-.33-2.84-1.52-18.07-1.78-18.99,0,0,.21-.02.05-.2-2.98-.01-5.97.02-8.95,0-.11-.51.58-.31.84-.4.39-.14.46-.39.49-.4.06-.01.93.5,1.04-.1,4.71-.09,9.43-.24,14.14-.2Z"/>
        <path class="cls-5" d="M47.18,23.37c.37,3.66,1.06,7.28,1.48,10.93.15,1.24.81,7.33.79,7.71-.06,1.51-.95.41-1.48,1.04-.59.02-1.19-.02-1.78,0l-1.98-19.63,2.97-.05Z"/>
        <g>
          <path class="cls-26" d="M23.14,21.98c.19.94-.81.17-.89.69-.72.11-.91.32-1.38.84.45,6.08.25,12.21.59,18.3.03.46.05,1.11.3,1.53-.32-.13-.51-.31-.69-.59-.56-6.48-.26-13.04-.79-19.53.76-1.17,1.52-1.33,2.87-1.24Z"/>
          <path class="cls-48" d="M22.25,22.68c.31-.05.81.02,1.19,0v.4l.49,20.32c-.9.13-1.32.29-2.18-.05-.24-.42-.27-1.07-.3-1.53-.35-6.08-.14-12.21-.59-18.3.48-.52.66-.73,1.38-.84Z"/>
        </g>
        <path class="cls-56" d="M48.36,23.37c0,.15-.2.07-.2.15-.01.75.6,5.43.84,5.59.52.34.39-.46.54-.69.06.79.14,1.58.2,2.37,0,.07,0,.13,0,.2.29,3.97.56,7.89.69,11.87-.5-.07-.82.09-.99.1-.49.03-1,.08-1.48.1.54-.63,1.43.47,1.48-1.04.01-.39-.65-6.47-.79-7.71-.43-3.65-1.11-7.27-1.48-10.93,0-.03,0-.07,0-.1l1.19.1Z"/>
        <path class="cls-32" d="M32.93,22.58c-.11.6-.98.09-1.04.1-.03,0-.1.26-.49.4-.26.09-.95-.11-.84.4-.8,0-5.72.14-5.98,0-.1-.05-.18-.45-.15-.59,1.56-.04,4.58.22,4.45-.3,1.35-.03,2.7.03,4.05,0Z"/>
        <g>
          <path class="cls-22" d="M24.43,22.87c-.03.15.05.54.15.59.27.14,5.19,0,5.98,0,2.98.02,5.97-.01,8.95,0,.16.18-.05.19-.05.2l-15.23.05.59,19.58,16.42-.64.1.15-.4.1c-.52,1.26-.48.61.74.54,1.81-.09,4.43.35,4.5-.4.59-.02,1.19.02,1.78,0,.48-.02,1-.07,1.48-.1l.1.49c-4.36.66-19.74.17-25.66.89-1.36-.05-1.87.3-2.92-.69.42-.02.14-.36.1-.89.18.29.37.47.69.59.85.34,1.28.18,2.18.05l-.49-20.32c.21-.32.63-.19.99-.2Z"/>
          <path class="cls-22" d="M29.03,43.35c.35-.04,3.31-.02,3.31.15-.55.35-4.4.46-4.6.35-.33-.2,1.03-.47,1.29-.49Z"/>
        </g>
        <path class="cls-27" d="M28.88,22.58c.13.52-2.89.25-4.45.3-.36,0-.78-.12-.99.2v-.4c1.8-.08,3.64-.06,5.44-.1Z"/>
        <path class="cls-36" d="M49.15,23.07c.09,1.79.26,3.56.4,5.34-.15.23-.03,1.03-.54.69-.24-.15-.86-4.84-.84-5.59,0-.08.19,0,.2-.15,0-.07,0-.13,0-.2l.79-.1Z"/>
        <path class="cls-46" d="M48.96,21.88c0,.06.15.26.2,1.19l-.79.1c.01-.18.02-.72,0-.79-.21-.6-1.55.33-1.29-.59.62-.01,1.3-.29,1.88.1Z"/>
        <path class="cls-17" d="M48.36,22.38c.02.07.01.61,0,.79,0,.07,0,.13,0,.2l-1.19-.1c-.03-.29-.01-.6-.1-.89h1.29Z"/>
      </g>
    </g>
    <g>
      <g>
        <g>
          <path class="cls-2" d="M85.39,11.5l-3.26,3.45-4.89,7.09c.05-.32-.65-.61-.94-.75-2.57-1.23-5.25-2.3-7.84-3.51.7-.7,2.78-2.16,3.76-2.88,4.48-3.34,9.24-6.33,13.73-9.66l2.82,1.69c-1.03,1.59-2.29,3.03-3.39,4.58Z"/>
          <path class="cls-41" d="M68.46,17.77c2.59,1.22,5.26,2.28,7.84,3.51.29.14.99.43.94.75l-8.28,2.38-.5-.25c-.06-2.09.17-4.21-.25-6.27.15-.2.23-.1.25-.13Z"/>
        </g>
        <g>
          <path class="cls-7" d="M77.49,22.79c-1.6.68-3.22,1.31-4.77,2.13-.22.11-.84.08-1.76.94l-3.51,4.33c2.06-3.15,0-.83-1,.31.28,1.27-.93.08-1.57,1.94-1.34.03-.73.62-.94.94-.45.67-1.78,1.71-1.76,2.26-1.11.39-.95,1.07-1,1.13-.04.05-.33.03-1,.88-.08.11.13.24.13.25-.12.16-.9.41-.88.63,0,.11.58.31.13.75-.53.5-.32-.73-2.38,1.76-.09.1.13.24.13.25-.34.42-.55.28-.63.38-.21.25.01.36,0,.38-3.44,4.12-7.28,7.88-10.79,11.92-.58,1.68-.92,1.15-1,1.19-.38-.19-.78-.39-1.13-.63-.2-.14-.24-.24-.25-.25.34-.57,1.02-.93,1-1.69,3.04-2.74,5.56-6.2,8.28-9.28,1.05-1.19,2.34-2.2,3.39-3.39.12-.13.39-.75.5-.88.49-.55,1.24-1.17,1.76-1.76.04-.05-.04-.33,0-.38.25-.28.41-.14.5-.25,1.05-1.19,1.97-2.57,3.01-3.76,1.63-1.87,3.55-3.61,5.14-5.52.37-.44,1.85-2.12,1.25-2.2.12-.1.57-.72.63-.75l8.28-2.38,4.89-7.09,3.26-3.45c-2.65,3.75-5.37,7.46-7.9,11.29Z"/>
          <path class="cls-38" d="M68.46,24.17c-4.52,4.74-8.71,9.77-13.04,14.68-1.88,2.13-3.76,4.27-5.64,6.4-.94,1.07-6.7,7.8-7.15,8.09-.23.15-.32.03-.5-.06-.04-.19-.32-.08-.25-.31.07-.24,2.82-3.2,3.26-3.7.59-.67,1.17-1.34,1.76-2.01,0,0,.05-.04.13-.13.09-.11.24-.22.38-.38.19-.21,1.22-1.02,1.25-1.19,0-.2-.17-.27-.25-.44.84.54,3.55-3.24,5.02-4.89.09-.1.16-.28.25-.38.34-.38.78-.74,1.13-1.13,4.02-4.56,8-9.15,11.92-13.8,2.15-1.52.12-5.17,1.51-7.02.42,2.06.19,4.18.25,6.27Z"/>
          <path class="cls-41" d="M50.39,45.11c-2.53,2.84-5.04,5.7-7.65,8.47.09.45.6.56.75.69.01.01.05.12.25.25l.5.75c-.39-.15-1.29-.81-1.76-1.13,0,0,.02-.03-.13-.13-.15-.34-.18-.39-.25-.75.18.09.27.21.5.06.45-.29,6.21-7.02,7.15-8.09l.63-.13Z"/>
          <path class="cls-38" d="M43.5,54.27c-.15-.13-.67-.24-.75-.69,2.62-2.76,5.12-5.63,7.65-8.47,1.87-2.1,3.77-4.17,5.64-6.27,3.04-3.42,9.38-11.25,12.29-13.67.6.07-.88,1.75-1.25,2.2-1.6,1.91-3.52,3.65-5.14,5.52-1.04,1.19-1.96,2.57-3.01,3.76-.1.11-.25-.03-.5.25-.04.05.04.33,0,.38-.51.58-1.27,1.2-1.76,1.76-.12.13-.38.75-.5.88-1.05,1.19-2.34,2.2-3.39,3.39-2.72,3.08-5.23,6.54-8.28,9.28.02.76-.66,1.12-1,1.69Z"/>
          <path class="cls-25" d="M68.96,24.42c-.05.03-.51.65-.63.75-2.92,2.42-9.25,10.26-12.29,13.67h-.63c4.33-4.9,8.52-9.94,13.04-14.68l.5.25Z"/>
          <path class="cls-31" d="M56.04,38.84c-1.87,2.1-3.77,4.17-5.64,6.27l-.63.13c1.88-2.13,3.76-4.27,5.64-6.4h.63Z"/>
        </g>
        <g>
          <path class="cls-12" d="M37.35,55.65c-.71.4,1.09,1.04,2.38,2.13.64.55,1.3,1.14,1.88,1.76.04.05.24.41.75,1,.68.78.98,1.88,2.01,1.76-.2.73.91,2.6,1,3.57-.4.29-.79.91-1.13,1.19-.71.58-.52.64-1,.5.64-1.56.66-2.24.25-3.89-.08-.34-.23-.58-.38-.88-1.38-2.86-4.36-4.54-7.09-5.9-.28.14-.51.19-.82.25-.2.04-.47-.03-.69,0-.6.76-1.51,1.23-2.2,1.88.76-5.13,3.76-3.04,4.58-3.14.21-.28.31-.23.44-.25Z"/>
          <path class="cls-43" d="M42.37,60.54c-.51-.59-.71-.96-.75-1,.53-.24-1.48-2.11-1.88-1.76-1.29-1.1-3.09-1.74-2.38-2.13.03,0,.05-.25.56-.38.3-.07.83-.07,1.44-.25.14,1.74,4.03,3.5,3.01,5.52Z"/>
          <path class="cls-7" d="M42.37,54.02c.14.1.12.12.13.13-.16.42-.64-.46-.82-.5-.75-.18-1.54,1.17-2.07,1.38.74-3.38,1.62-1.79,2.76-1Z"/>
          <g>
            <path class="cls-12" d="M57.42,42.35c-.44.2-.36.48-.38.5-.1.12-.31.27-.5.5-.14.17-.25.34-.38.5-1.41,1.75-2.94,3.37-4.39,5.08,0,0,.18.13.13.19-.15.17-.48.33-.63.5.6-1.45,1.89-2.49,2.88-3.7.06-.07.62-1.1.75-1.25.67-.78,1.84-1.8,2.51-2.57v.25Z"/>
            <path class="cls-7" d="M67.45,30.19c-1.44,2.2-7.79,9.31-10.03,11.92-.67.77-1.84,1.79-2.51,2.57-.13.16-.7,1.19-.75,1.25-1,1.21-2.28,2.25-2.88,3.7-.55.66-1.08,1.35-1.63,2.01-.35.42-.77.82-1.13,1.25-.84,1.01-1.75,1.98-2.63,2.95-.03.21.05.6,0,.69-.2.39-.26,1.18-1.63,2.45,1.59,3.13.46,2.14.13,3.32-1.03.12-1.33-.97-2.01-1.76,1.02-2.02-2.87-3.78-3.01-5.52.07-.02.2.02.25,0,.53-.21,1.32-1.56,2.07-1.38.17.04.65.92.82.5.47.31,1.37.98,1.76,1.13.02,0,.02.09.31.25.11-.04.29-.37.31-.38.08-.04.42.49,1-1.19,3.51-4.04,7.34-7.79,10.79-11.92.01-.01-.21-.13,0-.38.08-.09.28.04.63-.38,0-.01-.21-.15-.13-.25,2.07-2.48,1.86-1.25,2.38-1.76.46-.44-.12-.64-.13-.75-.02-.21.76-.47.88-.63,0-.01-.21-.15-.13-.25.67-.84.96-.83,1-.88.05-.06-.11-.74,1-1.13-.03-.55,1.31-1.59,1.76-2.26.21-.32-.4-.91.94-.94.64-1.86,1.85-.68,1.57-1.94,1.01-1.14,3.07-3.46,1-.31Z"/>
            <path class="cls-43" d="M44.87,55.15s-.2.34-.31.38c-.3-.16-.29-.24-.31-.25l-.5-.75c.35.23.75.43,1.13.63Z"/>
            <path class="cls-7" d="M41.93,54.77c.43-.28.61.75.25.75-.04,0-.45-.62-.25-.75Z"/>
          </g>
          <path class="cls-15" d="M41.61,59.54c-.58-.61-1.24-1.21-1.88-1.76.4-.36,2.42,1.52,1.88,1.76Z"/>
        </g>
      </g>
      <g>
        <g>
          <path class="cls-7" d="M22.17,88.76c.08.12.17.25.25.38.24.36.36.47.38.5.13.23.36.59.38.63.3.58.5,1.42.63,2.07.75,1.24.45-4.05,1.25-3.7.57,1.39.44,1.94.5,2.26.06.34.21.41,0,.82l.38.19,4.64.5c-1.48.14-2.92.48-4.39.63-.91.09-1.89.43-2.82.5-4.08.3-8.66-.09-12.73-.5.66-.5,1.82-.16,2.57-.25.87-.1,1.83-.46,2.7-.63.55-.11,1.19-.1,1.76-.19-.88-.77-1.8-1.5-2.63-2.32-.06-.06-.32-.19-.38-.25-.37-.37-1.31-1.46-1.63-1.88-1.32-1.73-2.54-3.52-1.88-5.77,3.6-.06,9.03,4.25,11.04,7.02Z"/>
          <path class="cls-7" d="M14.02,79.73c.22.02,1.97.44,2.13.5.18.07.12.12.13.13,2.74,1.2,7.18,5.1,8.53,7.78.08.16.19.35.25.5-.81-.35-.51,4.94-1.25,3.7-.13-.65-.33-1.49-.63-2.07.37-4.52-3.65-7.22-7.53-8.28-.08-.02-1.43-.12-1.69-.13-.07-.31-1.99-1.07-2.45-.63.36-.83.49-.85.63-1.13.77-.5,1.06-.46,1.88-.38Z"/>
          <path class="cls-43" d="M15.65,81.99l.19.5c1.76.82,3.33,2.1,4.83,3.39.08.07.52.58.56.75.09-.17.23-.08.31,0,.21.19.91.57,1.13,1.07.16.37.52,2.09.13,1.94-.02-.03-.14-.14-.38-.5.61-.37-.18-2.31-.25-.38-2.01-2.78-7.43-7.08-11.04-7.02.13-.45.36-.47.38-.5.45-.45,2.37.32,2.45.63.27,0,1.61.1,1.69.13Z"/>
          <path class="cls-38" d="M23.18,90.27s-.24-.4-.38-.63c.4.15.04-1.57-.13-1.94-.22-.5-.91-.88-1.13-1.07-.02-.45-.94-1.63-.88-.75-1.5-1.28-3.07-2.56-4.83-3.39l-.19-.5c3.87,1.06,7.9,3.75,7.53,8.28Z"/>
          <path class="cls-43" d="M22.42,89.14c-.08-.12-.17-.26-.25-.38.07-1.93.86,0,.25.38Z"/>
          <path class="cls-45" d="M16.53,80.36c.29,0,.96.34,1.25.5.68.37,1.51.92,2.13,1.38.38.28.9.69,1.25,1,0,0,.05.06.13.13.43.39,1.36,1.41,1.76,1.88.42.5.74,1.11,1.13,1.63.38.51.55.9.63,1v.25c-1.35-2.67-5.79-6.58-8.53-7.78h.25Z"/>
          <path class="cls-43" d="M21.54,86.63c-.09-.08-.22-.17-.31,0-.04-.17-.49-.68-.56-.75-.06-.87.86.31.88.75Z"/>
        </g>
        <g>
          <path class="cls-37" d="M16.15,80.11v.13c-.16-.07-1.91-.48-2.13-.5.26-.88.01-1.69.5-2.57.48-.86,12.57-13.75,13.17-14.74h.13c-.06,1.53-1.32,2.48-2.38,3.45-.04.04.57,0-.75.63.59.66-.7,1.07-.75,1.13-1.75,2.05-9.45,10.65-7.78,12.48Z"/>
          <path class="cls-11" d="M29.82,63.3c-1.1,1.36-.7,1.37-.75,1.44-.03.05-1.13.33-.5.63-2.09,2.72-11.1,12.25-12.04,14.61,0,.02-.27-.02,0,.38h-.25s.05-.05-.13-.13v-.13c.95-1.7,2.09-3.34,3.26-4.89,3.11-4.11,6.77-7.82,9.91-11.92.17,0,.34.01.5,0Z"/>
          <path class="cls-28" d="M31.33,59.91c-3.87,5.13-7.98,9.82-12.17,14.86l.25.44c-1.17,1.55-2.31,3.19-3.26,4.89-1.67-1.83,6.03-10.43,7.78-12.48.05-.06,1.34-.47.75-1.13,1.33-.62.71-.59.75-.63,1.06-.96,2.32-1.92,2.38-3.45,1.17-.82,1.93-2.53,3.51-2.51Z"/>
          <path class="cls-20" d="M35.22,57.16c.09.15.45.2.75.38-.17.25-.33.51-.5.75-.46.64-3.42,3.93-3.39,4.2.04.26.54.15.63.19.22.1.71.2.75.5-1.8-.25-4.78-.79-4.14.13-3.14,4.09-6.8,7.8-9.91,11.92l-.25-.44c4.19-5.04,8.29-9.73,12.17-14.86.32-.3.69-.58,1-.88.68-.65,1.6-1.12,2.2-1.88.22-.03.49.04.69,0Z"/>
          <path class="cls-34" d="M43.24,67.57c-.15-.04-.48-.36-.75-.5.75-.97,1.08-2.21,1-3.39.41,1.65.39,2.33-.25,3.89Z"/>
          <path class="cls-10" d="M32.21,63.43c-1.63,2.35-3.55,4.46-5.39,6.65-.45-1.11-4.06,3.09-4.89,4.08-.65.77-.83,1.93-1.88,2.01.87.26-.74,1.52-1.57,2.32-.04.04-.06-.36-.19-.19-.09.09-.13,1.22-1.76,1.69.94-2.36,9.95-11.89,12.04-14.61-.63-.29.47-.58.5-.63.05-.07-.35-.08.75-1.44.62-.04,1.37.14,2.38.13Z"/>
          <path class="cls-10" d="M26.81,70.07c-2.33,2.77-4.67,5.53-7.02,8.28-.64.75-1.67,1.6-2.01,2.51-.29-.16-.96-.5-1.25-.5-.27-.4,0-.36,0-.38,1.62-.47,1.66-1.6,1.76-1.69.13-.18.15.23.19.19.83-.8,2.44-2.06,1.57-2.32,1.05-.08,1.23-1.24,1.88-2.01.83-.98,4.44-5.19,4.89-4.08Z"/>
          <path class="cls-52" d="M33.46,63.18c.24.03.5-.09.5.13-.58-.13-1.21.12-1.76.13-1.01.01-1.76-.17-2.38-.13-.17.01-.34,0-.5,0-.64-.91,2.34-.37,4.14-.13Z"/>
          <path class="cls-37" d="M41.11,62.42c-1.16-.12-1.1-1.25-1.88-.56-.79.69-10.7,14.47-12.79,16.62-1.95,2.31-3.98,5.52-4.33,5.52-.11,0-.75-.96-.82-.63-.08-.07-.12-.12-.13-.13.54-1.19,5-7.03,5.14-7.46.31-.95-.21-.43-.88-.44,1.82-2.24,3.7-4.43,5.39-6.77,1.5-1.37,5.45-6.87,7.21-8.91.52.55,3.13,2.08,3.07,2.76Z"/>
          <path class="cls-37" d="M35.84,69.32c-4.13,5.4-8.45,10.77-12.79,15.93-.4-.47-1.32-1.49-1.76-1.88.07-.33.7.63.82.63.35,0,2.37-3.21,4.33-5.52.06-.07.46-.13,1.38-1.19,1.08-1.45,2.6-3.57,3.83-4.83.06-.06.48-.03,1.38-.88,1.43-1.35,1.77-2.85,2.82-2.26Z"/>
          <g>
            <path class="cls-10" d="M43.5,63.68c.07,1.18-.25,2.42-1,3.39-.38-.19-.37-.55-.63-.19-.57,1.3-1.36,2.5-2.01,3.76-.01.02.26.25.13.5-2.19,4.16-8.71,11.41-11.79,16.24-.24.37-.41.75-.63,1.13-.26.45-.66.83-.75,1.38-.23.23-.56.69-.63,1-.3.06-.07.36-.63,0-.06-.32.07-.87-.5-2.26-.06-.15-.17-.35-.25-.5v-.25c.23.31.23.36.25.38.01.01,0,.12.19.25.27-.02,2.09-3.33,2.45-3.83.19-.27.61-.39.88-.75.04-.05-.15-.27.5-1.13,2.52-3.35,5.61-6.35,8.03-9.78,1-1.42,1.45-2.97,2.76-4.14.04-.4-.85-.46-.75-1,.05-.32,3.81-4.16,4.01-5.08.15.3.29.54.38.88Z"/>
            <path class="cls-37" d="M43.12,62.8c-.2.92-3.96,4.76-4.01,5.08-.09.55.8.61.75,1-1.31,1.17-1.76,2.72-2.76,4.14-2.42,3.43-5.5,6.44-8.03,9.78-.65.86-.47,1.08-.5,1.13-.27.37-.69.48-.88.75-.36.5-2.18,3.8-2.45,3.83-.18-.13-.18-.24-.19-.25.95-.37.14-.21.13-.69-.05-2.02,11.77-16.46,13.23-19.38-.06-.09-.82-.02-.94,0-.04,0-.09,0-.13,0,1.12-1.56,2.32-3.09,3.26-4.77.04-.07.7-.62.75-1.32-1.13-1.25-2.43-2.3-3.76-3.32-.5-.38-1.12-.95-1.63-1.25-.3-.18-.66-.23-.75-.38.31-.06.53-.11.82-.25,2.72,1.36,5.7,3.04,7.09,5.9Z"/>
            <path class="cls-10" d="M25.06,88.26s-.02-.07-.25-.38c-.08-.1-.25-.49-.63-1,.44-.15.83-1.52,1.38-2.45.99-1.67,6.79-9.28,8.53-11.54.14-.19,1.23-1.02,1.51-1.38.02-.03-.03-.42.13-.63.29-.38.6-.47.63-.5,0-.01-.2-.14-.13-.25.34-.48,1.56-1.26,1.25-1.94.12-.02.88-.09.94,0-1.46,2.92-13.28,17.36-13.23,19.38.01.48.82.32-.13.69Z"/>
            <path class="cls-10" d="M37.35,68.19s.08,0,.13,0c.31.69-.92,1.46-1.25,1.94-.08.11.13.24.13.25-.02.03-.34.13-.63.5-.16.21-.11.6-.13.63-.28.36-1.36,1.19-1.51,1.38-1.74,2.26-7.54,9.87-8.53,11.54-.55.92-.94,2.29-1.38,2.45-.38-.52-.71-1.13-1.13-1.63,4.34-5.16,8.67-10.53,12.79-15.93.02-.03-.02-.1,0-.13.49-.38.86-.85,1.51-1Z"/>
          </g>
          <path class="cls-10" d="M21.17,83.24c-.35-.31-.87-.72-1.25-1,.15.01.11-.1.13-.13,1-1.69,3.98-5.04,5.39-6.77.67.01,1.19-.51.88.44-.14.43-4.6,6.28-5.14,7.46Z"/>
          <path class="cls-37" d="M19.66,81.87c.11.12.22.2.38.25-.01.02.03.14-.13.13-.62-.46-1.46-1.01-2.13-1.38.34-.91,1.37-1.76,2.01-2.51.35.64-.65,2.29-1.25,2.7.51.41.72.37,1.13.82Z"/>
          <path class="cls-51" d="M37.6,58.79c-1.28,1.4-2.39,2.99-3.51,4.52h-.13c0-.21-.26-.09-.5-.13-.05-.3-.53-.41-.75-.5.82-.92,3.5-4.22,2.76-4.39.18-.24.33-.5.5-.75.51.31,1.13.87,1.63,1.25Z"/>
          <path class="cls-20" d="M32.71,62.67c-.09-.04-.59.07-.63-.19-.04-.27,2.93-3.57,3.39-4.2.74.17-1.94,3.47-2.76,4.39Z"/>
          <path class="cls-47" d="M40.61,63.43h-.13c.21-.33.38-.69.63-1,.06-.68-2.55-2.21-3.07-2.76-1.76,2.04-5.71,7.53-7.21,8.91-.22.2-.86.86-.75.38,1.41-1.8,2.66-3.79,4.01-5.64,1.12-1.53,2.23-3.11,3.51-4.52,1.34,1.02,2.63,2.07,3.76,3.32-.05.7-.72,1.25-.75,1.32Z"/>
          <path class="cls-29" d="M37.35,68.19c-.65.15-1.01.63-1.51,1,.03-.04-.04-.26,0-.31,1.16-1.52,3.77-4.08,4.64-5.46h.13c-.94,1.68-2.14,3.21-3.26,4.77Z"/>
          <path class="cls-28" d="M33.96,63.3h.13c-1.35,1.85-2.6,3.84-4.01,5.64-2.18,2.78-4.68,5.34-6.9,8.09-1.11,1.37-2.07,2.86-3.14,4.26-.23.3-.46-.16-.38.56-.41-.45-.62-.4-1.13-.82.61-.41,1.61-2.05,1.25-2.7,2.35-2.75,4.69-5.51,7.02-8.28,1.84-2.18,3.76-4.29,5.39-6.65.55,0,1.18-.25,1.76-.13Z"/>
          <path class="cls-20" d="M41.11,62.42c-.24.31-.42.67-.63,1-.87,1.38-3.48,3.94-4.64,5.46-.04.05.03.27,0,.31-.02.03.02.1,0,.13-1.05-.6-1.39.91-2.82,2.26-.9.85-1.32.82-1.38.88-1.22,1.26-2.74,3.38-3.83,4.83-.92,1.06-1.32,1.12-1.38,1.19,2.09-2.14,12.01-15.93,12.79-16.62.79-.69.72.45,1.88.56Z"/>
          <path class="cls-51" d="M30.83,68.57c-1.69,2.34-3.57,4.54-5.39,6.77-1.41,1.74-4.39,5.08-5.39,6.77-.15-.06-.26-.13-.38-.25-.08-.72.14-.26.38-.56,1.07-1.4,2.03-2.89,3.14-4.26,2.22-2.75,4.72-5.31,6.9-8.09-.11.49.53-.18.75-.38Z"/>
        </g>
      </g>
    </g>
    <g>
      <g>
        <path class="cls-14" d="M71.5,93.43c-.1.04-.14.1-.24.12-1.85.48-6.17.35-8.24.24-.82-.04-1.69-.31-2.5-.37-1.22-.08-2.44-.27-3.66-.37,2.31-.86,8.51.58,6.59-.61-.79-1.24-.37-4.2-.37-6.84.34.33-.19,1.11.49.98.05,1.11,1.44,2.12,1.22,2.62-.03.07-.5.19-.49.24.03.15,2.25.51,2.56.55,1.13.13,3.32.23,4.39.12.16-.02,1.28-.22,1.34-.24.1-.04.3.07.37-.06.03-9.54.22-19.08.12-28.62l.37.06c.29,9.85-.03,19.69,0,29.54-.33,1.14-1.27,1.73-1.95,2.62Z"/>
        <path class="cls-21" d="M66.86,89.4v.61c-.32-.04-2.53-.4-2.56-.55,0-.05.46-.17.49-.24.22-.5-1.17-1.52-1.22-2.62,0-.14-.3-.22.06-.49l1.34.61.18-.18c-1.66-1.38.61-.93-.85-1.89-.26-.52,1.04-1.23.06-1.83-.16-.1-.17.13-.18.12-.49-.27-.83-.25-1.1-.85.02-3.12.52-23.09.12-24.23-.1-.3-.38.08-.49-.55,1.17.38,3.79.14,3.91.31-.45,2.23.21,13.77-.12,14.4-.02.05-1.03.26-.73.61.13.16.62-.04.73.12.47.66-.22,14.27.24,16.23-.12.26-1.41.32.12.43Z"/>
        <path class="cls-14" d="M64.17,82.93c.1.7-.82,1.16-.73,1.4.08.24.67.18.85.31,1.46.96-.81.51.85,1.89l-.18.18-1.34-.61c-.36.27-.07.35-.06.49-.68.13-.15-.65-.49-.98,0-1.18,0-2.36,0-3.54.26.6.61.59,1.1.85Z"/>
        <path class="cls-21" d="M72.6,57.66c-.27,10.69.01,21.35-.24,32.04l.24.18c-.06.02-1.18.23-1.34.24-.19-.91-.56-.67-1.1-.73-.16-1.06.18-5.17.12-5.43-.17-.83-1.67-.51,0-.98,0-5.02-.05-10.05,0-15.08,0-.58.11-1.22.12-1.83.01-1.02,0-2.03,0-3.05,0-.25,0-.48,0-.73,0-.24.03-.35,0-.85,0-.06.38-.83-.06-1.22-3.59.41-3.41-1.34,0-.98.19-.86.36-1.15-.61-1.34.96-.15,1.88-.34,2.87-.24Z"/>
        <path class="cls-49" d="M73.09,61.2c.1,9.54-.1,19.08-.12,28.62-.07.13-.27.03-.37.06l-.24-.18c.26-10.7-.03-21.35.24-32.04.16.02.52-.06.61.06-.27,1.11-.13,2.31-.12,3.48Z"/>
        <path class="cls-21" d="M68.45,89.4c.54.01,1.22-.06,1.71,0,.53.06.91-.18,1.1.73-1.07.11-3.27,0-4.39-.12v-.61c.52.04,1.06-.01,1.59,0Z"/>
        <g>
          <path class="cls-21" d="M66.49,56.56c.96.04,1.97.11,2.93.12.93,0,1.88.03,2.81,0,1.07-.04.81-.24.85-.24.23-.02.74-.07.85.18-.55,5.79.32,31.22-.12,33.93-.01.08-.27.54-.37.79-.25.62-.67,1.09-1.1,1.59-.32.14-.57.39-.85.49.68-.89,1.62-1.48,1.95-2.62-.03-9.85.29-19.69,0-29.54l-.37-.06c-.01-1.17-.14-2.37.12-3.48-.09-.12-.45-.05-.61-.06-.99-.1-1.91.09-2.87.24.97.19.8.48.61,1.34-3.41-.36-3.59,1.39,0,.98.44.39.06,1.16.06,1.22-3.02-.17-3.11,1.11,0,.85,0,.25,0,.48,0,.73-.79.3-2.01-.09-2.2.31-.54,1.16,3,.18,2.08,1.46-.2.28-2.61-.37-2.2.85.1.29,1.97.25,2.32.43,0,.61-.12,1.25-.12,1.83-.23.22-2.15.54-2.2.67-.32.98,1.91-.02,2.08.24.74,1.18-1.7,1.32-2.2,1.83-.06.18,3.61-.44,1.77.67-.09.06-1-.05-1.89.43.11.31,3.66.16.67.31-1.91,1.25,3.31-.11,1.22,1.34-.1.07-2.46.59-1.83.98,3.04-.24,2.98.54.18,1.04q-.06,6.59-.12,13.18c1.68.05,3.65.44.49.79-.53-.01-1.06.04-1.59,0-1.53-.11-.25-.17-.12-.43-.46-1.96.22-15.57-.24-16.23-.11-.16-.6.04-.73-.12-.3-.35.71-.56.73-.61.33-.64-.33-12.18.12-14.4-.12-.17-2.74.07-3.91-.31-.25-1.46,1.18-.1,1.22-1.22,0,.03.13,0,.18.49.79.03,1.59-.04,2.38,0Z"/>
          <path class="cls-21" d="M70.28,67.92c-.05,5.02,0,10.05,0,15.08-1.67.47-.17.15,0,.98.05.27-.29,4.37-.12,5.43-.49-.06-1.17.01-1.71,0,3.16-.36,1.2-.74-.49-.79q.06-6.59.12-13.18c2.8-.5,2.86-1.27-.18-1.04-.63-.39,1.73-.91,1.83-.98,2.09-1.45-3.13-.09-1.22-1.34,2.99-.14-.56,0-.67-.31.89-.47,1.8-.37,1.89-.43,1.84-1.11-1.83-.49-1.77-.67.5-.51,2.94-.65,2.2-1.83-.17-.27-2.39.74-2.08-.24.04-.13,1.97-.46,2.2-.67Z"/>
          <path class="cls-21" d="M70.4,63.03c0,1.02.01,2.03,0,3.05-.35-.17-2.22-.13-2.32-.43-.42-1.22,2-.58,2.2-.85.93-1.29-2.61-.31-2.08-1.46.18-.4,1.41,0,2.2-.31Z"/>
          <path class="cls-21" d="M70.4,61.45c.03.5,0,.62,0,.85-3.11.26-3.02-1.03,0-.85Z"/>
        </g>
        <path class="cls-14" d="M64.3,84.64c-.19-.12-.77-.06-.85-.31-.08-.24.83-.71.73-1.4,0,0,.03-.22.18-.12.98.6-.32,1.32-.06,1.83Z"/>
      </g>
      <g>
        <g>
          <path class="cls-14" d="M57.71,12.5c.08.41.09.81.12.98.23,1.12.8,2.37.79,3.78,1.71-1.49-.21-2.22,3.42-2.08.26.17.15.33.18.49-3.42-1.22-2.43,1.43-3.11,1.83l-8.73.85c-2.88-1.11-4.18-5.19-4.15-8.06l10.68-.12c.39.62.2,2.24.79,2.32Z"/>
          <path class="cls-22" d="M60.15,3.71l.49,4.94c-.34.2-2.32,1.71-2.5,1.65-.35-.12.02-.82-.43-.73-.07-.91-.48-6.34-.61-6.65-.08-.19-.76-.09-.79-.06-.36.33,1.18,8.51,1.4,9.64-.6-.08-.4-1.7-.79-2.32l-10.68.12c.02-2.06.72-5.23,2.38-6.59l8.54-1.1c.69.2,1.39,4.28,1.83,5.13,1.3-2.26.68-3.19.79-3.72.02-.11.36-.28.37-.31Z"/>
          <path class="cls-58" d="M57.71,9.57c.1,1.28.32,2.62.12,3.91-.03-.16-.04-.57-.12-.98-.23-1.13-1.76-9.31-1.4-9.64.03-.03.72-.13.79.06.13.31.54,5.75.61,6.65Z"/>
        </g>
        <g>
          <path class="cls-14" d="M72.23,11.03c.14.29.13.43.49.37-.27.5-1.34,2.59-.98,2.69.06.02.13-.01.12.12-.03,0-.14.36-.18.37-1.07.2-2.98-.38-2.99.24-.9.08-4.97,1.1-5.55,1.46-.6.38.49.16.98.24.1.02-.01.22.18.24.47.06,7.56-.29,8.24,0,.44.19.15.65-.49.73-.46.06-8.82.1-9.28,0-.16-.04-.3-.28-.43-.37-.08-.5-.08-1.26-.12-1.46-.04-.16.08-.32-.18-.49-3.63-.15-1.71.59-3.42,2.08,0-1.41-.56-2.67-.79-3.78.2-1.28-.02-2.63-.12-3.91.45-.09.07.61.43.73.19.06,2.16-1.44,2.5-1.65l-.49-4.94c.29-.68,1.77-3.14,2.44-3.3.15.57-1.34,2.01-1.34,2.14l2.56,10.01,7.02.06c.14-.04,1.23-1.35,1.4-1.59Z"/>
          <path class="cls-22" d="M92.86,8.96c.57,1.13-.14.24-.55.24-.05,0-.07.4-.37.37-.12-.01-1.08-.52-1.77-.73-2.9-.9-10.5-3.85-13-3.54-2.52.31-3.63,3.97-4.94,5.74-.18.24-1.26,1.55-1.4,1.59l-7.02-.06-2.56-10.01c0-.13,1.5-1.57,1.34-2.14,8.59.05,13.57-.82,21.54,3.17.83.42,8.05,4.87,8.73,5.37Z"/>
          <g>
            <path class="cls-14" d="M90.18,8.84c-.54.22-1.51.61-2.01.73-1.16.28-2.4.17-2.56.61l-9.64-.61c1.02.97,3.46,1.65,4.94,1.95-1.85.11-3.7.16-5.55.12-.38.16-.78,3.36-.92,3.48-.54.5-1.52-1.22-1.46,2.44-.32.01-.67.14-.98.18-.85.12-5.38,0-7.08,0h-2.56c-.04-.16.03-.42,0-.61.13.08.26.33.43.37.45.1,8.82.06,9.28,0,.63-.08.93-.54.49-.73-.68-.29-7.77.06-8.24,0,0-.08-.03-.22.06-.24.89-.21,4.59-.01,5.8,0,2.48.03,2.77.89,2.81-1.53-.17-.29-2.6-.19-3.05-.18-.4,0-.83-.04-1.22,0,0-.62,1.92-.05,2.99-.24.04,0,.15-.36.18-.37.5-.16,1.21.5,1.59-2.01.08-.5-.08-.98-.12-1.46,0-.04.37-.98-.12.06-.29.1-.36.38-.49.61-.36.07-.35-.07-.49-.37,1.31-1.77,2.43-5.43,4.94-5.74,2.5-.31,10.1,2.64,13,3.54Z"/>
            <path class="cls-14" d="M92.86,8.96c.62.46.81.19-.06,1.83-2.01.13-4.03.22-6.04.37-1.95.14-3.91.25-5.86.37-1.48-.3-3.92-.99-4.94-1.95l9.64.61c.17-.44,1.4-.33,2.56-.61.5-.12,1.48-.52,2.01-.73.69.21,1.65.72,1.77.73.29.03.31-.37.37-.37.41,0,1.12.89.55-.24Z"/>
          </g>
          <path class="cls-14" d="M68.69,14.82c.39-.04.82,0,1.22,0l.24,1.71c-1.2-.01-4.91-.21-5.8,0-.09.02-.06.16-.06.24-.2-.03-.08-.23-.18-.24-.49-.08-1.58.14-.98-.24.58-.37,4.66-1.38,5.55-1.46Z"/>
          <path class="cls-14" d="M71.87,14.21c.01-.13-.06-.11-.12-.12.55-1.06.95-2.22,1.46-3.3.49-1.04.12-.1.12-.06.04.49.2.96.12,1.46-.38,2.51-1.09,1.85-1.59,2.01Z"/>
          <path class="cls-14" d="M71.74,14.09c-.36-.1.7-2.19.98-2.69.13-.23.2-.51.49-.61-.51,1.08-.91,2.23-1.46,3.3Z"/>
          <path class="cls-14" d="M70.16,16.53l-.24-1.71c.45,0,2.89-.11,3.05.18-.04,2.42-.33,1.56-2.81,1.53Z"/>
        </g>
      </g>
      <g>
        <path class="cls-4" d="M71.99,17.75c.06.19-.11.24-.12.37-.47-.07-.89.08-1.34.12-.4.04-.82.09-1.22.12-.37.03-.73.09-1.1.12-.58.05-1.28-.07-1.83,0-.26.03-.54-.11-.73.18.49,1.74-.03,3.38.37,5.13.02,4.01-.04,8.02,0,12.02,0,.59,0,1.19,0,1.77,0,.09.24.03.24.12,0,.55-.24.69-.24.73,0,.15.22,1.14.24,3.05,0,.05-.24.2-.24.24.05,4.95.07,9.9.49,14.83-.79-.04-1.59.03-2.38,0-.05-.49-.18-.46-.18-.49-.16-.6.57-10.62.61-12.39.12-4.6.3-14.45.12-18.49.51-.29-.03,4.8.61,3.72.18-.29-.22-6.11-.24-6.84-.02-.57.3-2.27-.12-4.33,1.7,0,6.23.12,7.08,0Z"/>
        <path class="cls-44" d="M64.91,17.75c.43,2.06.11,3.77.12,4.33.02.73.42,6.54.24,6.84-.64,1.08-.1-4.01-.61-3.72-.05-1.12-.4-5.85-.73-6.53-.48-.98-1.33.16-1.59-.92h2.56Z"/>
        <path class="cls-30" d="M68.2,18.48c-.1,1.65.22,3.31.24,4.94,0,.17-.24.69-.24.73,0,.19.24.69.24.73.04,2.68-.34,5.41.24,8.06-.02,1.3-.62,3.34-.73,4.39-.12,1.13.25,2.57-.24,2.75-.33-1.28-.56-1.27-.49.06.03.5.66,2.27.49,3.66.41.39.19,1.46.24,2.08,0,.1.24.03.24.12.22,2.73.05,9.78.24,10.25.82,1.94.25-1.93.24-2.08-.18-4.28.17-7.95-.61-12.27,1.08.09.61.83.73,1.16.11.3.71,1.39.73,1.46.1.31.04,1.64.49,1.65,0,.04,0,.08,0,.12-.01.37-.37.66.12,1.16-1.79.21-.44,3.23.12,3.97.02.52-.15,1.15-.12,1.65.04.68.78,2.5.12,3.36-.54.04-.94-.14-.85.24-.96,0-1.97-.08-2.93-.12-.41-4.93-.44-9.88-.49-14.83,0-.05.24-.2.24-.24-.02-1.92-.24-2.9-.24-3.05,0-.04.25-.18.24-.73,0-.09-.24-.03-.24-.12,0-.58,0-1.18,0-1.77.13.04.34-.08.37-.18.56-1.91.36-10.43.24-12.94,0-.11-.36-.01-.37-.12.86-1.44.21-2.6.12-4.09.55-.07,1.25.05,1.83,0Z"/>
        <path class="cls-18" d="M71.87,18.11c-.42,3.76.14,26.41.49,31.43.16,2.29.55,4.6.73,6.9-.05,0,.21.21-.85.24.06-.59-.91-.32-1.95-.24.66-.86-.09-2.68-.12-3.36-.03-.5.14-1.13.12-1.65-.05-1.16-.07-2.92-.37-3.48.55.35.51-1.69.12-1.65,0-.04,0-.08,0-.12,0-.72-.09-1.57.12-1.71.33,3.15.34-.63.24-2.62-.05-.99-.34-2.05-.37-3.05-.16-5.23,0-9.18-.37-14.83,1.35,1.91-.18-2.42.85-5.74.45-.05.88-.19,1.34-.12Z"/>
        <path class="cls-50" d="M72.23,56.69c-.93.03-1.88,0-2.81,0-.08-.38.31-.21.85-.24,1.04-.07,2.02-.34,1.95.24Z"/>
        <path class="cls-53" d="M69.3,18.36c.02,1.67.25,3.34.37,5-.08,0-.21-.03-.24.06-.22.63.3,10.64.24,13.31,0,.05-.24.2-.24.24-.02.68.03,1.3-.24,1.95.27,1.87.78,3.67.98,5.55-.21.14-.11.99-.12,1.71-.45-.01-.39-1.33-.49-1.65-.03-.08-.62-1.16-.73-1.46-.12-.33.35-1.07-.73-1.16-.11-.63-.21-1.21-.37-1.83.49-.18.13-1.62.24-2.75.11-1.06.71-3.1.73-4.39-.58-2.65-.21-5.38-.24-8.06,0-.04-.24-.54-.24-.73,0-.04.25-.56.24-.73-.02-1.64-.34-3.29-.24-4.94.37-.03.73-.09,1.1-.12Z"/>
        <path class="cls-1" d="M66.37,18.48c.09,1.49.74,2.65-.12,4.09,0,.11.36.01.37.12.12,2.51.31,11.03-.24,12.94-.03.1-.23.22-.37.18-.04-4,.02-8.02,0-12.02-.4-1.74.12-3.39-.37-5.13.19-.29.47-.15.73-.18Z"/>
        <path class="cls-3" d="M70.52,18.24c-1.03,3.31.49,7.64-.85,5.74-.01-.2.01-.41,0-.61-.11-1.67-.34-3.33-.37-5,.4-.03.82-.08,1.22-.12Z"/>
        <path class="cls-1" d="M67.71,40.09c.16.62.25,1.21.37,1.83.78,4.32.43,7.98.61,12.27,0,.14.57,4.01-.24,2.08-.2-.47-.03-7.52-.24-10.25,0-.1-.24-.03-.24-.12-.05-.61.17-1.69-.24-2.08.17-1.4-.46-3.16-.49-3.66-.08-1.33.16-1.35.49-.06Z"/>
        <path class="cls-53" d="M70.28,51.44c-.56-.73-1.91-3.76-.12-3.97-.49-.49-.14-.79-.12-1.16.39-.04.43,2-.12,1.65.3.56.32,2.31.37,3.48Z"/>
        <path class="cls-30" d="M69.67,23.36c.01.2-.01.41,0,.61.37,5.65.21,9.6.37,14.83.03,1,.32,2.06.37,3.05.09,1.99.09,5.77-.24,2.62-.2-1.88-.71-3.69-.98-5.55.27-.65.23-1.27.24-1.95,0-.05.24-.2.24-.24.05-2.66-.46-12.68-.24-13.31.03-.09.16-.06.24-.06Z"/>
      </g>
    </g>
  </g>
</svg>