<?xml version="1.0" encoding="UTF-8"?>
<svg id="Capa_2" data-name="Capa 2" xmlns="http://www.w3.org/2000/svg" xmlns:xlink="http://www.w3.org/1999/xlink" viewBox="0 0 100.51 83.57">
  <defs>
    <style>
      .cls-1 {
        fill: #57483a;
      }

      .cls-1, .cls-2, .cls-3, .cls-4, .cls-5, .cls-6, .cls-7, .cls-8, .cls-9, .cls-10, .cls-11, .cls-12, .cls-13, .cls-14, .cls-15, .cls-16, .cls-17, .cls-18, .cls-19, .cls-20, .cls-21, .cls-22, .cls-23, .cls-24, .cls-25, .cls-26, .cls-27, .cls-28, .cls-29, .cls-30, .cls-31 {
        stroke-width: 0px;
      }

      .cls-2 {
        fill: #9d9795;
      }

      .cls-3 {
        fill: #b48362;
      }

      .cls-4 {
        fill: #a4a5a6;
      }

      .cls-5 {
        fill: #946754;
      }

      .cls-6 {
        fill: url(#Degradado_sin_nombre_171);
      }

      .cls-7 {
        fill: url(#Degradado_sin_nombre_176);
      }

      .cls-8 {
        fill: #381f11;
      }

      .cls-9 {
        fill: #edc8a9;
      }

      .cls-10 {
        fill: url(#Degradado_sin_nombre_174);
      }

      .cls-11 {
        fill: #4b3227;
      }

      .cls-12 {
        fill: #866d58;
      }

      .cls-13 {
        fill: #805c44;
      }

      .cls-14 {
        fill: #6a615f;
      }

      .cls-15 {
        fill: #9a775b;
      }

      .cls-16 {
        fill: #f39322;
      }

      .cls-17 {
        fill: #322218;
      }

      .cls-18 {
        fill: url(#Degradado_sin_nombre_170);
      }

      .cls-19 {
        fill: #7a7c7d;
      }

      .cls-20 {
        fill: #735d47;
      }

      .cls-21 {
        fill: #bca8a1;
      }

      .cls-22 {
        fill: url(#Degradado_sin_nombre_178);
      }

      .cls-23 {
        fill: #cb9974;
      }

      .cls-24 {
        fill: #634231;
      }

      .cls-25 {
        fill: #b59579;
      }

      .cls-26 {
        fill: #755141;
      }

      .cls-27 {
        fill: #706d6e;
      }

      .cls-28 {
        fill: #908888;
      }

      .cls-29 {
        fill: #201911;
      }

      .cls-30 {
        fill: #e0e0e1;
      }

      .cls-31 {
        fill: #dbb496;
      }
    </style>
    <linearGradient id="Degradado_sin_nombre_171" data-name="Degradado sin nombre 171" x1="7.82" y1="37.78" x2="28.86" y2="46.83" gradientUnits="userSpaceOnUse">
      <stop offset="0" stop-color="#674132"/>
      <stop offset="1" stop-color="#28170c"/>
    </linearGradient>
    <linearGradient id="Degradado_sin_nombre_170" data-name="Degradado sin nombre 170" x1="72.33" y1="58.51" x2="67.31" y2="58.78" gradientUnits="userSpaceOnUse">
      <stop offset="0" stop-color="#6f4734"/>
      <stop offset="1" stop-color="#22110a"/>
    </linearGradient>
    <linearGradient id="Degradado_sin_nombre_174" data-name="Degradado sin nombre 174" x1="29.08" y1="11.51" x2="56.57" y2="38.92" gradientUnits="userSpaceOnUse">
      <stop offset="0" stop-color="#a1745a"/>
      <stop offset="1" stop-color="#67412f"/>
    </linearGradient>
    <linearGradient id="Degradado_sin_nombre_178" data-name="Degradado sin nombre 178" x1="63.03" y1="37.32" x2="65.88" y2="38.01" gradientUnits="userSpaceOnUse">
      <stop offset="0" stop-color="#826951"/>
      <stop offset="1" stop-color="#64503f"/>
    </linearGradient>
    <linearGradient id="Degradado_sin_nombre_176" data-name="Degradado sin nombre 176" x1="20.86" y1="46.01" x2="45.2" y2="77.68" gradientUnits="userSpaceOnUse">
      <stop offset="0" stop-color="#966a51"/>
      <stop offset="1" stop-color="#563625"/>
    </linearGradient>
  </defs>
  <g id="Capa_1-2" data-name="Capa 1">
    <g>
      <g>
        <g>
          <path class="cls-16" d="M28.77,8.58c-.01.09.02.21,0,.28,0,.02-.11-.13-.14.42-.09,1.55-.11,3.19-.14,4.75-3.98.45-7.96,1.01-11.94,1.4-.3-.27-.24-.6-.63-.84-1.31-.81-2.87-1.34-4.33-1.82-.56-.18-1.43-.71-2.02-.7-.11-.02-.06.28-.07.28-2.41-.49-4.81-1.1-7.26-1.4,0-.09.16-.27.21-.28.36-.08,6.01-.57,7.33-.7,1.03-.1,2.05-.19,3.07-.28,5.3-.48,10.62-.68,15.92-1.12Z"/>
          <path class="cls-17" d="M2.23,10.95c2.45.3,4.85.91,7.26,1.4l.35.28c-1.04-.14-2.21.16-3.14.14-.32,0-.66.03-.98,0-1.21-.1-4.35-1.07-5.73-1.54v-.56c.75.03,1.49.19,2.23.28Z"/>
        </g>
        <g>
          <path class="cls-6" d="M28.49,14.03c-.13,6.78-.06,13.61,0,20.39.02,2.21-.02,4.42,0,6.63.04.09.5.12.7.21-2.6.9-5.33,1.42-7.96,2.23-.49.15-.98.28-1.47.42-.27.35,7.96,2.08,8.31,2.79l-.28.28q-4.26-1.29-8.52-2.58c0,7.52,0,15.04,0,22.55,0,2.32.12,4.67-.14,6.98-1.19,0-2.31.07-3.49-.14V15.42c.41.09.26-.33.28-.84.39.24.33.57.63.84,3.98-.39,7.96-.95,11.94-1.4Z"/>
          <path class="cls-16" d="M15.64,15.42v58.37c-2.4-.43-6.99-4.6-9.71-5.17.11-.25-.36-.62-.49-.7.13.02.31-.03.42,0,.31.09,1.6,1.26,1.82.91,0-5.33-.01-10.66,0-15.99.03-13.17-.02-26.35,0-39.52,2.24.95,5.52,1.59,7.96,2.09Z"/>
          <path class="cls-17" d="M11.59,12.77c1.46.48,3.01,1.01,4.33,1.82-.02.51.14.92-.28.84-2.44-.51-5.72-1.14-7.96-2.09q1.96-.28,3.91-.56Z"/>
        </g>
        <g>
          <path class="cls-16" d="M5.73,12.77c-.03,11.12-.03,22.25,0,33.38.02,7.17.04,14.34.14,21.51l-5.73-3.21v-.14q-.07-26.53-.14-53.07c1.37.46,4.51,1.44,5.73,1.54Z"/>
          <path class="cls-17" d="M5.87,67.65v.28c-.11-.03-.29.02-.42,0-.86-.53-5.15-2.69-5.31-3.49l5.73,3.21Z"/>
          <path class="cls-30" d="M11.59,12.77q-1.96.28-3.91.56c-.29-.12-.75-.31-.98-.56.93.02,2.1-.28,3.14-.14l-.35-.28s-.04-.3.07-.28c.6-.02,1.46.51,2.02.7Z"/>
          <path class="cls-4" d="M6.7,12.77c.23.24.68.43.98.56-.02,13.17.03,26.35,0,39.52-.1,0-.24.04-.28-.07-.28-.8.45-5.31-.35-7.05-.22-.13-.04,1-1.33.42-.03-11.12-.03-22.25,0-33.38.32.03.65,0,.98,0Z"/>
          <path class="cls-4" d="M7.68,52.85c-.01,5.33,0,10.66,0,15.99-.21.35-1.51-.82-1.82-.91v-.28c-.1-7.17-.12-14.34-.14-21.51,1.28.58,1.11-.55,1.33-.42.8,1.74.07,6.25.35,7.05.04.11.18.07.28.07Z"/>
        </g>
      </g>
      <g>
        <path class="cls-18" d="M67.73,41.96l.49,1.12c.89-.22,1.59.59,1.96.7,1.79.52,1.12.03,1.47-.98,2.02.55,1.51,1.14,1.54,1.4.5,5.61-.36,21.94,0,29.61.01.24-.01.35.14.56-3.01-.02-9.95,1.48-11.66,1.54-.24,0-.49-.06-.63-.28.75-.38,1.37-.97,2.09-1.4.82-.48,1.72-.88,2.51-1.4.25-.16,1.04-.43,1.12-.63q.07-14.14.14-28.28l-.07-.28c-.56-.07-.46.14-.49.14-.3.05-.56.19-.84.28.54-.82-1.08-.72-2.37-.42.02,0-.06-.23.07-.28,1.42-.38,3.19-.86,4.54-1.4Z"/>
        <path class="cls-13" d="M93.56,64.16c.06,1.58-.1,3.17.07,4.75.27.22,5.92-1.66,6.77-1.4-.04.2.08.37-.21.56q-13.44,3.14-26.88,6.28c-.15-.21-.13-.32-.14-.56q6.32-1.47,12.64-2.93l.35-.35c-.24-.65-.16-1.71-.14-2.44l2.23-.28c-1.97.49-2.34.38-1.75,2.93l6.84-1.68-.07-2.02c-.12-.24-.36-.11-.84-.07v-.14c.4-.08.4-.35.84-.21.08-1.27-.22-2.58.28-2.44Z"/>
        <path class="cls-30" d="M88.4,40.98l.14.14v7.75l-.21.35c-.57-.11-2.79,1-3,.49v-8.31c.57-.02.65-.14.7-.14.83-.06,2.14-.38,2.37-.28Z"/>
        <g>
          <path class="cls-16" d="M100.41,67.51c-.85-.27-6.51,1.62-6.77,1.4-.17-1.58-.01-3.17-.07-4.75-.02-.59.07-1.43,0-1.82-.39-1.1,4.93-1.23,5.38-1.54.34-.23.28-1.01,0-1.12-.26-.1-4.87,1.34-5.31,1.68-1.72-.44-4.93.95-7.12,1.12l-.49.21c-.07.29.16.39.14.49-.28,1.61-.1,3.26-.14,4.89-.02.74-.1,1.8.14,2.44l-.35.35q-6.32,1.47-12.64,2.93c-.36-7.67.5-23.99,0-29.61l12.15-2.65v8.17c.21.51,2.44-.6,3-.49l.21-.35v-7.75c3.9-.63,7.84-1.39,11.59-2.65l.28.07c-.25,4.76.33,27.32,0,28.98Z"/>
          <path class="cls-15" d="M74.85,66.25c2.22-.25,4.37-.81,6.49-1.54,1.52-.52,2.12-1.07,2.23-1.12.1-.04,1.72.23,1.33-.84.19,0,.75-.05.84.07l-.35,2.72c-1.26.09-10.23,3.03-10.54,2.58.04-.62-.06-1.27,0-1.89Z"/>
          <path class="cls-12" d="M74.85,66.25c.04-.42-.14-.88.21-1.12,2.05-.36,8.8-2.35,9.85-2.37.39,1.07-1.23.8-1.33.84-.12.05-.71.6-2.23,1.12-2.12.73-4.27,1.28-6.49,1.54Z"/>
          <path class="cls-29" d="M97.68,61.93c1.28-.13,1.4,1.6.56,1.82-1.68.44-1.99-1.67-.56-1.82Z"/>
          <path class="cls-13" d="M95.59,62.34c.09-.02.3-.03.35.07-2.23,3.38-.72.03-.35-.07Z"/>
        </g>
        <path class="cls-24" d="M69.41,41.82c-.02.26,1.73.81,2.09.84-.01.15.07.12.14.14-.34,1.01.33,1.5-1.47.98-.37-.11-1.07-.92-1.96-.7l-.49-1.12s.11-.1.56-.28c.21.74.94.17,1.12.14Z"/>
        <g>
          <path class="cls-25" d="M95.1,37.21c1.19.11,3.03.71,4.19,1.12-.45.43-1.3.42-1.96.56.03-.5-.14-.06-.49-.14-1.15-.28-.53-1.36-4.26-.14,1.14-.64,2-.28.98-1.12.25-.1.54-.27.77-.42.56-.06.68.13.77.14Z"/>
          <path class="cls-12" d="M100.13,38.46c-3.75,1.26-7.69,2.03-11.59,2.65l-.14-.14.14-.28c.34.42,1.37-.02,1.96-.14,2.29-.46,4.55-1.18,6.84-1.68.66-.14,1.5-.13,1.96-.56.16.06.64,0,.84.14Z"/>
          <path class="cls-25" d="M93.56,37.49c1.02.84.17.48-.98,1.12-1.09.61-1.42.75-2.09,1.96-.59.12-1.61.56-1.96.14-.03-.04-.12-.21-.14-.28.05,0,.1,0,.14,0,.45-.09,3.85-2.48,5.03-2.93Z"/>
          <path class="cls-9" d="M97.33,38.88c-2.29.49-4.55,1.22-6.84,1.68.68-1.2,1-1.34,2.09-1.96,3.73-1.22,3.11-.14,4.26.14.34.08.52-.36.49.14Z"/>
        </g>
        <g>
          <path class="cls-25" d="M88.26,67.79c.46-.11,3.98-.82,4.19-.84.48-.04.71-.17.84.07l.07,2.02-6.84,1.68c-.59-2.55-.23-2.45,1.75-2.93Z"/>
          <g>
            <path class="cls-20" d="M93.56,62.34c.07.38-.02,1.23,0,1.82-.5-.13-.2,1.17-.28,2.44-.43-.14-.44.13-.84.21-.02,0,0-.3-.42-.07l.42.07v.14c-.21.02-3.73.72-4.19.84l-2.23.28c.04-1.62-.14-3.27.14-4.89q3.39-.77,6.77-1.54l.49.07c-.07.71.13.6.14.63Z"/>
            <path class="cls-1" d="M93.56,62.34s-.21.08-.14-.63l-.49-.07q-3.39.77-6.77,1.54c.02-.1-.21-.2-.14-.49l.49-.21c2.19-.17,5.4-1.56,7.12-1.12.44-.34,5.04-1.78,5.31-1.68.28.1.34.88,0,1.12-.45.31-5.76.43-5.38,1.54Z"/>
            <path class="cls-13" d="M92.45,66.81l-.42-.07c.42-.23.4.07.42.07Z"/>
          </g>
        </g>
        <g>
          <path class="cls-31" d="M85.33,41.4v.14l-12.15,2.65c-.02-.26.49-.85-1.54-1.4-.07-.02-.15.01-.14-.14.41.04,7.78-.69,8.17-.84.12-.05.24-.39.49-.56,1.73.02,3.43.2,5.17.14Z"/>
          <path class="cls-23" d="M77.23,41.12c.99.01,1.95.13,2.93.14-.25.17-.37.51-.49.56-.38.14-7.76.87-8.17.84-.36-.03-2.11-.58-2.09-.84,1.18-.22,2.4-.74,3.56-.84,1.09-.09,2.85.12,4.26.14Z"/>
        </g>
      </g>
      <g>
        <path class="cls-30" d="M82.39,1.6c.36.03.82.01,1.12.28-1.04.08-2.11-.22-2.23.28-4.89-.07-9.77-.17-14.66-.28,0-.1-.04-.22.07-.28.33-.18,6.96-1.5,7.33-1.54.33-.03.68-.16.98.07-1.82,2.09,3.31,1.14,7.4,1.47Z"/>
        <g>
          <path class="cls-16" d="M98.17,16.54c0,6.21,0,12.43,0,18.64-.24.29-.91.49-1.12.63-.97-.58-.13-1.36-.42-1.68,0,0,.03-.18-.21-.14l-7.89,4.89q-.07-18.33-.14-36.66c-2.38.15-4.75-.04-7.12-.07.13-.5,1.2-.2,2.23-.28,4.82-.39,9.64-.86,14.45-1.26l.35.21c-.15,5.24-.14,10.47-.14,15.71Z"/>
          <path class="cls-9" d="M97.06,35.81c-.91.63-1.87.98-1.96,1.4-.08,0-.21-.2-.77-.14-.23.15-.52.32-.77.42-1.17.45-4.57,2.84-5.03,2.93v-.84c.11-.03.18.15.21.14.52-.13,6.75-4.72,7.89-5.59.29.31-.56,1.09.42,1.68Z"/>
          <path class="cls-25" d="M96.64,34.14c-1.14.87-7.37,5.46-7.89,5.59-.03,0-.1-.17-.21-.14v-.7l7.89-4.89c.24-.04.2.13.21.14Z"/>
        </g>
        <g>
          <path class="cls-13" d="M66.61,1.88c4.89.11,9.77.21,14.66.28,2.38.03,4.74.22,7.12.07q.07,18.33.14,36.66v1.54s-.09,0-.14,0q-1.78-.21-3.56-.42c-.87-1.15-2.09-1.14-3.14-2.3-3.06-3.4-2.96-15.91-3.35-20.67-1.05-2.87.08-6.12-2.09-8.52-2.29-2.53-4.43-1.85-5.66-2.02-4.76-.69-9.52-1.35-14.31-1.68-.02-.39-.06-2.98.07-3.07,3.43-.1,6.84.07,10.26.14Z"/>
          <path class="cls-24" d="M88.4,40.42c.02.07.11.24.14.28l-.14.28c-.23-.1-1.55.22-2.37.28-.78-.2-.67-.67-.77-.7-.36-.11-4.18.58-7.26-1.12-2.48-1.37-3.54-4.34-5.1-6.56,0-3.4-.11-6.79-.14-10.19-.05-5,.03-10.01,0-15.01-5.41-.8-11.03-.71-16.48-1.4-.02-.3.03-.61,0-.91-.02-.18,0-.37,0-.56,4.8.32,9.56.98,14.31,1.68,1.22.18,3.8-.84,5.66,2.02,1.56,2.41.42,4.68.42,9.22,0,4.78,3.41,15.9,5.02,19.96.58,1.46,2.27,1.16,3.14,2.3q1.78.21,3.56.42Z"/>
          <path class="cls-8" d="M86.02,41.26s-.13.12-.7.14c-1.73.06-3.44-.12-5.17-.14-.99-.01-1.95-.12-2.93-.14,2.96-.43-.47-.89-1.19-1.26-1.12-.56-1.9-1.61-3.14-1.96.02-.32-.01-.65,0-.98.04-1.25,0-2.52,0-3.77,0-.09,0-.19,0-.28,1.56,2.22,2.62,5.2,5.1,6.56,3.08,1.7,6.9,1.01,7.26,1.12.09.03,0,.5.77.7Z"/>
        </g>
        <path class="cls-17" d="M77.23,41.12c-1.41-.02-3.17-.23-4.26-.14-1.16.1-2.38.62-3.56.84-.18.03-.91.6-1.12-.14.09-.04.25-.07.42-.14.45.32,3.96-.71,4.05-.91.03-.28-.05-.64,0-.91.13-.68.11-1.15.14-1.82,1.24.35,2.03,1.39,3.14,1.96.72.36,4.14.83,1.19,1.26Z"/>
      </g>
      <g>
        <g>
          <path class="cls-16" d="M72.76,22.68l-.35-1.4c-.68,2.03-1.5,5.45-1.75,7.61-.08.67-.38,3.66.07,3.84.75-.33.73-.01.77,0-1.77.58-4.47.72-4.05,1.82h-.14s-.2.06-.14-.42c-.39-.4-4.12,1-4.89,1.12l-.28.21c-.02.95.02,1.91,0,2.86-.09,0-.19-.02-.28,0l.14-2.72c-.06-.13-.29-.05-.42-.07-.92-.16-6.02,1.84-7.47,2.09-.54.23-.3.49-.35.98-.07.63.05,1.32,0,1.96-.36-.64-.03-1.1-1.54-.56-.11-9.59.03-19.18.14-28.77l8.8-1.96v6.49l2.3.07.21-6.98q3.81-.56,7.61-1.12c-1.5-.19-4.85.23-6.35.56-.61-.56-.85-.37-1.4-.42-2.39-.23-4.83-.18-7.19-.7-2.88-.34-16.39,1.44-18.01,1.96-.18.06-.56.29-.49.56-2.97-.28-5.94-.93-8.94-.84.02-.07-.01-.19,0-.28,1.72-.14,3.51-.05,5.24-.28q11.14-1.47,22.27-2.93c.03.3-.02.61,0,.91,5.44.69,11.06.6,16.48,1.4.03,5-.05,10.01,0,15.01Z"/>
          <path class="cls-13" d="M37.71,9.7c.09,0,.19,0,.28,0v.98q-4.68-.7-9.36-1.4c.03-.55.13-.4.14-.42,3-.09,5.96.56,8.94.84Z"/>
          <path class="cls-31" d="M61.72,38.33c.09-.02.19,0,.28,0-.03.98.02,1.96,0,2.93v1.82c-1.2.44-9.36,3.59-9.78,3.91.05-2.33-.11-4.65-.14-6.98,1.5-.54,1.18-.08,1.54.56.04.08-.07.37.07.42.47.18,6.64-2.38,8.03-2.65Z"/>
          <path class="cls-9" d="M60.61,9.14c-2.84.6-5.76.85-8.52,1.82h-.14q-5.24-.49-10.47-.98s-.05-.26.07-.28c5.14-.58,10.31-1.37,15.5-1.12.95.05,3.64.31,3.56.56Z"/>
          <g>
            <path class="cls-24" d="M29.47,34.41c2.53.56,5.04,1.16,7.54,1.82-.02,2.37.02,4.75,0,7.12-2.02-.5-4.01-1.11-6-1.68-.27-.08-.86-.25-1.05,0-.63-.91-.72-.4-.77-.42-.2-.09-.65-.12-.7-.21-.02-2.21.02-4.42,0-6.63.82-.71.51-.1.98,0Z"/>
            <path class="cls-17" d="M45.25,37.35s0,.09,0,.14c.13,1.6,0,3.27.14,4.89.06.33-.15.31-.49.28-1.25-.11-3.91-.98-5.38-1.26-.01-1.72-.26-3.44-.14-5.17,1.9.48,3.93.81,5.87,1.12Z"/>
            <path class="cls-24" d="M45.39,42.37c.09.97.55,1.98.28,2.93-1.99-.52-4.04-.9-6-1.54,0-.12-.14-1.74-.14-2.37,1.47.28,4.12,1.15,5.38,1.26.34.03.55.05.49-.28Z"/>
            <path class="cls-24" d="M37.01,34.97c-.07.35.14.46.14.56,0,.04-.13-.18-.14.7-2.5-.66-5.01-1.26-7.54-1.82.05-.27-.1-1.29.07-1.4.32-.21,6.48,1.73,7.47,1.96Z"/>
          </g>
          <path class="cls-24" d="M41.48,9.98q5.24.49,10.47.98c-.14.51-.06.81-.63.7l-10.12-1.26c-.01-.14-.15-.16-.14-.28.17-.11.23-.11.42-.14Z"/>
          <path class="cls-15" d="M61.03,9.14v.14l-8.8,1.96s-.19.05-.14-.28c2.76-.97,5.68-1.22,8.52-1.82.56-.12.4,0,.42,0Z"/>
          <g>
            <path class="cls-10" d="M37.98,10.67v7.61l3.14.07c-.03-2.22.27-6.02.07-7.96l10.12,1.26c.57.11.49-.19.63-.7h.14c-.05.33.14.26.14.28-.11,9.59-.25,19.18-.14,28.77.03,2.33.19,4.65.14,6.98-.03.02-.09-.05-.14.14-2.13-.62-4.28-1.25-6.42-1.82.27-.95-.19-1.97-.28-2.93-.15-1.62,0-3.28-.14-4.89h.14c.58.18,4.45,1.48,4.68,1.4.31-.12.31-.88,0-1.12-.43-.33-3.91-.66-4.68-.84-.02,0,.11-.05-.28-.14-2.7-.64-5.4-1.2-8.1-1.82-.99-.22-7.15-2.17-7.47-1.96-.17.11-.02,1.13-.07,1.4-.46-.1-.16-.71-.98,0-.06-6.78-.13-13.61,0-20.39.03-1.56.05-3.2.14-4.75q4.68.7,9.36,1.4Z"/>
            <path class="cls-17" d="M45.11,36.79c-.07.34.12.43.14.56-1.94-.3-3.97-.64-5.87-1.12-.02,0-.05-.19-.42-.28-.6-.15-1.22-.23-1.82-.42,0-.1-.21-.21-.14-.56,2.7.61,5.4,1.18,8.1,1.82Z"/>
            <path class="cls-17" d="M45.39,37.49v-.56c.77.18,4.25.51,4.68.84.31.24.31,1,0,1.12-.23.09-4.1-1.22-4.68-1.4Z"/>
            <path class="cls-17" d="M47.83,39.72c.12-.08,2.44-.18,1.89,1.19-.19.46-2.75-.58-1.89-1.19Z"/>
            <path class="cls-21" d="M45.39,36.93v.56h-.14s0-.09,0-.14c-.02-.13-.21-.22-.14-.56.39.09.26.14.28.14Z"/>
          </g>
          <path class="cls-31" d="M72.76,22.68c.03,3.4.14,6.79.14,10.19,0,.09,0,.19,0,.28-.4-.26-.55-.23-.7-.28-.42-.14-.61-.11-.7-.14-.04-.01-.02-.33-.77,0-.45-.18-.15-3.17-.07-3.84.25-2.16,1.07-5.58,1.75-7.61l.35,1.4Z"/>
          <g>
            <path class="cls-4" d="M41.06,10.12c0,.12.13.14.14.28.2,1.94-.1,5.74-.07,7.96l-3.14-.07v-8.59c1.04.1,2.04.33,3.07.42Z"/>
            <path class="cls-30" d="M63.4,7.88c.39.76-1.52,1.06-2.37,1.26-.02,0,.14-.12-.42,0,.08-.25-2.61-.51-3.56-.56-5.19-.25-10.37.53-15.5,1.12-.12.02-.06.28-.07.28-.19.03-.25.03-.42.14-1.04-.09-2.03-.32-3.07-.42-.09,0-.19,0-.28,0-.07-.26.31-.5.49-.56,1.63-.51,15.13-2.29,18.01-1.96,2.37.51,4.8.47,7.19.7Z"/>
            <path class="cls-30" d="M64.8,8.3c-.33.07-.94.45-1.19.14l-.07.42-.21,6.98-2.3-.07v-6.63c.85-.19,2.76-.49,2.37-1.26.55.05.79-.14,1.4.42Z"/>
          </g>
          <g>
            <path class="cls-15" d="M61.72,38.33c-1.39.27-7.56,2.83-8.03,2.65-.14-.05-.03-.34-.07-.42.05-.64-.07-1.33,0-1.96,1.77-.32,3.65-.65,5.1-1.82,1.6.41.67-.47.98-.7.09-.07,1.92.6,1.75-.56.13.02.35-.06.42.07l-.14,2.72Z"/>
            <path class="cls-12" d="M61.45,35.53c.17,1.16-1.65.49-1.75.56-.31.23.62,1.11-.98.7-1.45,1.16-3.32,1.49-5.1,1.82.05-.49-.19-.74.35-.98,1.45-.25,6.55-2.25,7.47-2.09Z"/>
          </g>
          <path class="cls-15" d="M63.54,8.86l.07-.42c.24.31.86-.07,1.19-.14,1.5-.33,4.86-.75,6.35-.56q-3.81.56-7.61,1.12Z"/>
          <path class="cls-8" d="M68.71,41.54c.57-.23,1.33-.71,1.96-.98.67-.29,1.47-.42,2.09-.84-.05.26.03.62,0,.91-.09.19-3.6,1.22-4.05.91Z"/>
          <g>
            <path class="cls-13" d="M72.62,36.93c.55,1.69-1.13,1.62-1.96,3.63-.63.27-1.39.75-1.96.98-.17.07-.33.1-.42.14-.45.18-.53.27-.56.28-1.34.54-3.12,1.02-4.54,1.4-.13.05-.05.27-.07.28-.03.01.13.23-.35.42-1.95.79-3.97,1.48-5.94,2.23-1.07.41-2.14.85-3.21,1.26-.48.18-1.05.29-1.4.42.09-.41-.19-.66-.14-.84.05-.19.11-.12.14-.14.42-.32,8.57-3.47,9.78-3.91.47-.17,3.42-.81,5.1-1.54.37-.26.05-1.61.07-1.96,0-.11.13-.12.14-.42.43.68,3.87-1.95,5.31-2.23Z"/>
            <path class="cls-1" d="M71.5,32.74c.09.03.28,0,.7.14-.16.72-3.27,1.2-4.75,1.68-.42-1.1,2.28-1.24,4.05-1.82Z"/>
            <g>
              <path class="cls-22" d="M67.17,34.14c-.07.48.13.4.14.42.07.31.03,3.76,0,4.61,0,.3-.13.31-.14.42q-2.58.84-5.17,1.68c.02-.98-.03-1.96,0-2.93.02-.95-.02-1.91,0-2.86l.28-.21c1.61.3,3.39-.6,4.89-1.12Z"/>
              <path class="cls-1" d="M67.17,34.14c-1.5.52-3.28,1.42-4.89,1.12.77-.12,4.49-1.52,4.89-1.12Z"/>
            </g>
            <path class="cls-25" d="M67.17,39.58c-.02.34.3,1.7-.07,1.96-1.67.73-4.63,1.36-5.1,1.54v-1.82q2.58-.84,5.17-1.68Z"/>
            <path class="cls-24" d="M72.9,36.93c-.01.32.02.65,0,.98-.03.67-.01,1.13-.14,1.82-.63.42-1.42.55-2.09.84.83-2.01,2.5-1.95,1.96-3.63.09-.02.19,0,.28,0Z"/>
            <g>
              <path class="cls-3" d="M72.9,33.16c0,1.25.04,2.52,0,3.77-.09,0-.19-.02-.28,0-1.44.29-4.87,2.92-5.31,2.23.03-.85.07-4.29,0-4.61h.14c1.48-.47,4.59-.96,4.75-1.68.15.05.3.02.7.28Z"/>
              <path class="cls-24" d="M70.45,34.55c1.85-.36,1.72,1.63.98,1.82-1.44.36.32-.89-.42-1.26-.72-.36-1.97.92-2.16.49.49-.13,1.31-.99,1.61-1.05Z"/>
            </g>
          </g>
        </g>
        <g>
          <path class="cls-29" d="M42.73,83.01v.42l-.84.14c-.34-.2-.82-.15-1.4-.28-2.09-.48-1.65-.8-1.75-.84-.36-.14-1.39-.3-1.68-.42-2.13-.89-4.2-2.2-6.35-3.07.09-.17.13-.21.14-.42,3.9,1.62,7.82,3.25,11.87,4.47Z"/>
          <path class="cls-13" d="M63.12,74.21c-.72.42-1.35,1.01-2.09,1.4-.7.36-13.39,6-14.45,6.42-1.26.5-2.53,1.02-3.84,1.4v-.7c3.94-1.23,7.63-3.42,11.52-4.89.54-.55.07-2.63.07-3.35.48-.07.4.14.42.14l-.07,2.93c.93-.37,1.82-.84,2.72-1.26.58-.27,3.45-1.65,3.63-1.82-.15.93.79-.17,2.09-.28Z"/>
          <path class="cls-27" d="M30.72,70.72c-.11,1.73.09,3.45.14,5.17.02.82.05,1.85,0,2.65-.01.21-.05.25-.14.42-.7-.28-1.4-.55-2.09-.84-.19-.08-.37-.2-.56-.28v-.56c.02-2.37-.02-4.75,0-7.12,0-.55.14-.4.14-.42.8.25,1.66.41,2.44.7.12.05.05.27.07.28Z"/>
          <path class="cls-17" d="M28.07,77.29v.56c-.06-.02.37.5-1.05,0-2.22-1.32-5.52-1.81-7.47-3.35q4.26,1.4,8.52,2.79Z"/>
          <path class="cls-23" d="M66.33,43.77c.32.06-.15.16-.28.7-.72-.46-.52.6-.56,1.82-.54.37-.61,1.77-.56,2.44-.91,1.9-1.56,7.15-1.68,9.5-.09,1.87-.19,6.89.7,6.91-.64.24-1.76.7-2.37.98-2.29-2.22-.12-12.5.7-15.71.49-1.93,1.49-3.97,1.82-5.8.47-.15.9-.41,1.4-.56.28-.09.54-.23.84-.28Z"/>
          <path class="cls-13" d="M66.89,43.91q-.07,14.14-.14,28.28c-.07.19-.87.47-1.12.63-.87-.86-.22-4.89-.42-7.12.08-.93-.14-.8-.14-.84-.05-6.17.2-12.4.42-18.57.04-1.22-.16-2.27.56-1.82-.07.31-.24,3.55.49,2.93.33-.28-.3-3.36.35-3.49Z"/>
          <path class="cls-25" d="M65.5,44.05c-.5.15-.93.41-1.4.56-2.37.76-4.74,1.53-7.12,2.23.01-.27-.18-.32-.14-.56,1.96-.76,3.99-1.45,5.94-2.23.48-.19.32-.41.35-.42,1.3-.3,2.91-.4,2.37.42Z"/>
          <path class="cls-5" d="M66.89,43.91c-.65.13-.02,3.21-.35,3.49-.73.61-.56-2.62-.49-2.93.13-.54.6-.63.28-.7.03,0-.07-.21.49-.14l.07.28Z"/>
          <g>
            <path class="cls-24" d="M19.97,67.37c1.33.75,6.26,2.3,8.1,2.79-.02,2.37.02,4.75,0,7.12q-4.26-1.4-8.52-2.79c-.21-.16,0-.64-.42-.56.26-2.31.14-4.66.14-6.98.57-.26.25.17.7.42Z"/>
            <path class="cls-11" d="M28.07,69.05c-.08.46.14.62.14.7,0,.02-.13-.13-.14.42-1.84-.5-6.77-2.05-8.1-2.79l.21-.98c2.58,1.02,5.25,1.8,7.89,2.65Z"/>
          </g>
          <path class="cls-17" d="M35.61,72.4l.21,5.31q-2.48-.91-4.96-1.82c-.05-1.72-.25-3.44-.14-5.17,1.61.59,3.27,1.07,4.89,1.68Z"/>
          <path class="cls-17" d="M45.67,45.31c2.15.57,4.29,1.19,6.42,1.82-.05.18.23.43.14.84-.03.01.03.07-.56.28-.27-.35-.92-.04-1.26,0,.11-.53-.81-.16-1.61-.28-2.18-.32-7.22-2.02-9.29-3.21-.09-.66.14-.92.14-.98,1.97.63,4.01,1.01,6,1.54Z"/>
          <path class="cls-16" d="M64.1,44.61c-.33,1.82-1.32,3.86-1.82,5.8-.82,3.21-2.99,13.49-.7,15.71-.57.26-.67.55-1.05.98-1-.76-6.04,1.37-6.21,2.23-.08.38.01,1.66,0,2.37-.11,0-.25-.02-.28,0-.17-1.55.63-2.78-.91-2.65-.82.07-8.53,3.69-9.01,3.77-.46.07-1.09-.02-1.4-.42v-20.95c2.96-1.11,5.96-2.14,8.94-3.21.59-.21.53-.27.56-.28.35-.13.92-.24,1.4-.42l.21,7.96,3-1.33c-.06-2.45.02-4.88.14-7.33,2.38-.71,4.76-1.47,7.12-2.23Z"/>
          <g>
            <path class="cls-7" d="M27.79,46.98v7.75l3,1.19.07-.28v-7.75l.28-.21c.03.41,2.06,1.05,3.14,1.4,2.46.8,5,1.37,7.4,2.37h1.05v31.56c-4.05-1.22-7.97-2.85-11.87-4.47.05-.8.02-1.83,0-2.65q2.48.91,4.96,1.82l-.21-5.31c2.8,1.04,5.67,2.7,4.82.84-4.13-1.38-8.22-2.85-12.36-4.19-2.64-.86-5.31-1.63-7.89-2.65l-.21.98c-.45-.25-.13-.68-.7-.42,0-7.52,0-15.04,0-22.55q4.26,1.29,8.52,2.58Z"/>
            <path class="cls-17" d="M35.61,72.4c-1.62-.6-3.28-1.09-4.89-1.68-.02,0,.05-.23-.07-.28-.78-.29-1.65-.45-2.44-.7,0-.08-.22-.24-.14-.7,4.14,1.34,8.23,2.81,12.36,4.19.85,1.86-2.02.2-4.82-.84Z"/>
            <path class="cls-17" d="M37.91,74.91c3.44.31,2.7,2.97.98,1.54-.45-.37-.72-1.03-.98-1.54Z"/>
          </g>
          <path class="cls-3" d="M65.5,46.28c-.22,6.17-.47,12.4-.42,18.57-.46.17-1.01.24-1.12.28-.89-.02-.79-5.04-.7-6.91.11-2.34.76-7.59,1.68-9.5-.05-.67.02-2.07.56-2.44Z"/>
          <g>
            <path class="cls-3" d="M65.22,65.7c.2,2.23-.45,6.26.42,7.12-.8.51-1.69.92-2.51,1.4-1.31.11-2.24,1.21-2.09.28.19-.17.33-.18.28-.35-.05-.13-.41-.32-.42-.35q-.28-3.21-.56-6.42c1.65-.5,3.21-1.25,4.89-1.68Z"/>
            <path class="cls-17" d="M64.87,67.23c.31.12.26,1.17.14,1.26-.13.09-1.51-.31-2.86.07.38-.13,2.58-1.38,2.72-1.33Z"/>
          </g>
          <path class="cls-30" d="M56.98,46.84c-.12,2.45-.2,4.88-.14,7.33l-3,1.33-.21-7.96c1.07-.41,2.14-.84,3.21-1.26-.04.24.15.29.14.56Z"/>
          <g>
            <path class="cls-23" d="M54.32,71.7c-.02.93,0,1.86,0,2.79,0,.72.47,2.8-.07,3.35-3.9,1.47-7.58,3.66-11.52,4.89v-10.33c.31.4.93.49,1.4.42q.1,1.54.21,3.07c2.56-1.17,7.59-2.73,9.71-4.19.02-.02.16,0,.28,0Z"/>
            <path class="cls-12" d="M54.04,71.7c-2.12,1.46-7.15,3.02-9.71,4.19q-.1-1.54-.21-3.07c.48-.08,8.18-3.7,9.01-3.77,1.54-.13.73,1.11.91,2.65Z"/>
          </g>
          <g>
            <g>
              <path class="cls-25" d="M60.89,73.8s.37.22.42.35c.05.17-.09.18-.28.35-.18.17-3.05,1.55-3.63,1.82l-.42-2.37c.34-.12.76-.44,1.12-.56.14-.05.28-.1.42-.14.52-.17,1.06-.41,1.12-.42.26-.06.49-.18.77-.14.06.43.31.75.49,1.12Z"/>
              <path class="cls-25" d="M56.98,73.94l.42,2.37c-.91.42-1.79.89-2.72,1.26l.07-2.93c.15,0,1.87-.57,2.23-.7Z"/>
            </g>
            <g>
              <path class="cls-13" d="M58.23,67.79c.01.46-.02.93,0,1.4l-.14,2.51v1.68c-.36.12-.78.44-1.12.56-.36.13-2.08.7-2.23.7-.02,0,.06-.21-.42-.14,0-.93-.02-1.86,0-2.79.01-.72-.08-2,0-2.37,1.3-.59,2.47-1.08,3.91-1.54Z"/>
              <path class="cls-11" d="M65.08,64.86s.22-.09.14.84c-1.68.42-3.24,1.18-4.89,1.68-.64.19-1.44.21-2.09.42-1.44.45-2.61.94-3.91,1.54.18-.87,5.22-3,6.21-2.23.38-.43.48-.72,1.05-.98.61-.28,1.74-.74,2.37-.98.11-.04.66-.1,1.12-.28Z"/>
              <path class="cls-13" d="M60.33,67.37q.28,3.21.56,6.42c-.18-.37-.43-.69-.49-1.12-.28-.04-.5.08-.77.14-.38-1.7-1.31-1.51-1.4-3.63-.02-.46.01-.93,0-1.4.66-.21,1.45-.22,2.09-.42Z"/>
              <path class="cls-1" d="M59.63,72.82c-.06.01-.6.25-1.12.42-.37-.71.15-1.62-.42-1.54l.14-2.51c.08,2.12,1.01,1.93,1.4,3.63Z"/>
              <path class="cls-17" d="M58.51,73.24c-.14.04-.28.09-.42.14v-1.68c.57-.09.05.83.42,1.54Z"/>
            </g>
          </g>
          <g>
            <path class="cls-24" d="M31,41.68c.69.83,5.46,3,6,2.23-.08.23.17.31-.35.56-.17.08-2.98.81-3.56.98-1.11.31-2.24.48-3.35.84.03-.26-1.38-.85-1.75-.98-2.19-.79-4.55-1.12-6.77-1.82,2.63-.81,5.36-1.33,7.96-2.23.05.02.14-.49.77.42.19-.25.77-.08,1.05,0Z"/>
            <path class="cls-26" d="M29.75,46.28c-.34.11-.9.12-1.26.28-.15.06-.23.18-.42.14-.35-.71-8.58-2.45-8.31-2.79.49-.14.98-.27,1.47-.42,2.22.69,4.58,1.03,6.77,1.82.37.13,1.77.72,1.75.98Z"/>
            <path class="cls-17" d="M37.01,43.35c-.05.32.13.27.14.28,0,.11-.1.15-.14.28-.55.76-5.32-1.4-6-2.23,2,.57,3.99,1.18,6,1.68Z"/>
          </g>
          <g>
            <path class="cls-2" d="M30.86,55.64l-.07.28-3-1.19v-7.75l.28-.28c.19.04.27-.07.42-.14q.91.52,1.82,1.05c-.32.74-.16,2.76.07,3.42,0,.02.24-.31.35-.07.19.41-.24,3.73.14,4.68Z"/>
            <path class="cls-28" d="M33.1,45.45l1.68,1.26c-.27.09-.56.19-.84.28-.26.08-.8.1-1.96.56-.12.05-.62.1-.84.14l-.28.21v7.75c-.38-.95.05-4.27-.14-4.68-.11-.24-.34.09-.35.07-.23-.66-.39-2.68-.07-3.42q-.91-.52-1.82-1.05c.35-.16.91-.17,1.26-.28,1.11-.36,2.24-.53,3.35-.84Z"/>
            <path class="cls-14" d="M38.54,44.19c.72.38,1.04.28.56.98-.24.16-3.56,1.28-4.33,1.54l-1.68-1.26c.59-.16,3.39-.9,3.56-.98.52-.25.27-.33.35-.56.04-.12.13-.16.14-.28.22.28,1.33.52,1.4.56Z"/>
            <g>
              <path class="cls-19" d="M38.96,35.95c-.18,1.39.24,6.38-.14,4.4h-.28v3.84c-.07-.03-1.18-.28-1.4-.56,0-.01-.19.04-.14-.28.02-2.37-.02-4.75,0-7.12,0-.88.14-.66.14-.7.59.19,1.22.27,1.82.42Z"/>
              <path class="cls-27" d="M39.38,36.23c-.12,1.72.13,3.45.14,5.17,0,.63.15,2.26.14,2.37,0,.05-.23.32-.14.98.07.32-.18.26-.42.42.48-.7.16-.6-.56-.98v-3.84h.28c.38,1.98-.04-3.01.14-4.4.36.09.39.27.42.28Z"/>
            </g>
          </g>
          <g>
            <path class="cls-31" d="M48.04,48.52c.79-.08,1.59-.18,2.37-.28.34-.04.99-.35,1.26,0-2.98,1.08-5.97,2.1-8.94,3.21h-.14c-.02-.13.06-.32-.07-.42-.58-.44-7.91-2.68-9.29-3.07-.69-1.2,2.23.29,3.7.56,3.67.67,7.42.39,11.1,0Z"/>
            <path class="cls-24" d="M31.98,47.54c.26.25.84.3,1.26.42,1.38.39,8.71,2.63,9.29,3.07.13.1.05.29.07.42h-.91c-2.4-1-4.94-1.58-7.4-2.37-1.08-.35-3.11-.98-3.14-1.4.22-.04.72-.09.84-.14Z"/>
            <path class="cls-11" d="M50.41,48.24c-.79.1-1.58.2-2.37.28-.11-.87-2.48-.29-4.82-.42-3.11-.17-6.2-.74-9.29-1.12.28-.09.56-.19.84-.28.77-.26,4.09-1.38,4.33-1.54.24-.16.49-.1.42-.42,2.07,1.19,7.11,2.89,9.29,3.21.8.12,1.72-.25,1.61.28Z"/>
            <path class="cls-13" d="M33.93,46.98c3.08.38,6.18.95,9.29,1.12,2.34.13,4.71-.45,4.82.42-3.68.39-7.43.67-11.1,0-1.47-.27-4.39-1.76-3.7-.56-.42-.12-.99-.16-1.26-.42,1.16-.46,1.7-.47,1.96-.56Z"/>
          </g>
        </g>
      </g>
    </g>
  </g>
</svg>