<svg width="24" height="24" viewBox="0 0 24 24" fill="none" xmlns="http://www.w3.org/2000/svg">
<path d="M12 3.25C15.7154 3.25 18.407 4.71645 20.165 6.54199C21.8933 8.33668 22.75 10.515 22.75 12C22.75 13.485 21.8933 15.6633 20.165 17.458C18.407 19.2835 15.7154 20.75 12 20.75C8.28463 20.75 5.593 19.2835 3.83496 17.458C2.10675 15.6633 1.25 13.485 1.25 12C1.25 10.515 2.10675 8.33668 3.83496 6.54199C5.593 4.71645 8.28463 3.25 12 3.25ZM12 8.25C9.92893 8.25 8.25 9.92893 8.25 12C8.25 14.0711 9.92893 15.75 12 15.75C14.071 15.75 15.75 14.071 15.75 12C15.75 9.92896 14.071 8.25005 12 8.25ZM12 9.75C13.2426 9.75005 14.25 10.7574 14.25 12C14.25 13.2426 13.2426 14.25 12 14.25C10.7574 14.25 9.75 13.2426 9.75 12C9.75 10.7574 10.7574 9.75 12 9.75Z" fill="#22272F"/>
</svg>
