<svg width="35" height="40" viewBox="0 0 35 40" fill="none" xmlns="http://www.w3.org/2000/svg">
<g clip-path="url(#clip0_323_30017)">
<path d="M32.5229 0H0V40H21.4831L32.9946 28.3029L32.5229 0Z" fill="#F1F0EF"/>
<path d="M22.2549 26.0854V40L34.7058 28.3029L22.2549 26.0854Z" fill="#CECCCA"/>
<path d="M28.5039 3.49902H4.2998V5.79417H28.5039V3.49902Z" fill="#0A7C7F"/>
<path d="M13.0123 7.10291H4.2998V7.54174H13.0123V7.10291Z" fill="#0A7C7F"/>
<path d="M15.7295 26.668V24.8583C14.5289 24.835 13.1918 24.4738 12.4355 23.9768L12.9696 22.5981C13.6167 23.0525 14.8836 23.4136 15.9517 23.4136C17.2421 23.4136 18.3102 22.8039 18.3102 21.8059C18.3102 20.901 17.6631 20.4467 16.0843 19.9068C13.7921 19.1146 12.6772 18.3224 12.6772 16.7845C12.6772 15.2467 13.9675 14.1593 15.8621 13.934V11.9884H17.1329V13.8641C18.3336 13.9107 19.3354 14.2719 19.8928 14.5865L19.3588 15.9457C18.8481 15.6272 17.8463 15.2661 16.7743 15.2661C15.5736 15.2661 14.638 15.8098 14.638 16.6447C14.638 17.4797 15.1487 17.868 17.0666 18.5243C19.2925 19.2467 20.3178 20.2214 20.3178 21.6933C20.3178 23.1651 19.1366 24.4971 17.0004 24.8156V26.6719H15.7295V26.668Z" fill="#0A7C7F"/>
</g>
<defs>
<clipPath id="clip0_323_30017">
<rect width="34.7059" height="40" fill="white"/>
</clipPath>
</defs>
</svg>
