<?xml version="1.0" encoding="UTF-8"?>
<svg id="Capa_2" data-name="Capa 2" xmlns="http://www.w3.org/2000/svg" xmlns:xlink="http://www.w3.org/1999/xlink" viewBox="0 0 96.66 100.99">
  <defs>
    <style>
      .cls-1 {
        fill: #c7c7c6;
      }

      .cls-1, .cls-2, .cls-3, .cls-4, .cls-5, .cls-6, .cls-7, .cls-8, .cls-9, .cls-10, .cls-11, .cls-12, .cls-13, .cls-14, .cls-15, .cls-16, .cls-17, .cls-18, .cls-19, .cls-20, .cls-21, .cls-22, .cls-23, .cls-24, .cls-25, .cls-26, .cls-27, .cls-28, .cls-29, .cls-30, .cls-31, .cls-32, .cls-33, .cls-34, .cls-35, .cls-36, .cls-37, .cls-38, .cls-39, .cls-40, .cls-41, .cls-42, .cls-43, .cls-44, .cls-45, .cls-46, .cls-47, .cls-48, .cls-49, .cls-50, .cls-51, .cls-52, .cls-53, .cls-54, .cls-55, .cls-56, .cls-57, .cls-58, .cls-59, .cls-60, .cls-61, .cls-62, .cls-63, .cls-64, .cls-65, .cls-66, .cls-67, .cls-68, .cls-69, .cls-70, .cls-71, .cls-72, .cls-73 {
        stroke-width: 0px;
      }

      .cls-2 {
        fill: #57483a;
      }

      .cls-3 {
        fill: #9d9795;
      }

      .cls-4 {
        fill: #b48362;
      }

      .cls-5 {
        fill: #a4a5a6;
      }

      .cls-6 {
        fill: #775749;
      }

      .cls-7 {
        fill: #573a31;
      }

      .cls-8 {
        fill: #946754;
      }

      .cls-9 {
        fill: url(#Degradado_sin_nombre_171);
      }

      .cls-10 {
        fill: url(#Degradado_sin_nombre_176);
      }

      .cls-11 {
        fill: #381f11;
      }

      .cls-12 {
        fill: #edc8a9;
      }

      .cls-13 {
        fill: #c4bcb4;
      }

      .cls-14 {
        fill: url(#Degradado_sin_nombre_152);
      }

      .cls-15 {
        fill: #453e40;
      }

      .cls-16 {
        fill: url(#Degradado_sin_nombre_153);
      }

      .cls-17 {
        fill: #100805;
      }

      .cls-18 {
        fill: #736157;
      }

      .cls-19 {
        fill: #48281a;
      }

      .cls-20 {
        fill: #2f180b;
      }

      .cls-21 {
        fill: url(#Degradado_sin_nombre_174);
      }

      .cls-22 {
        fill: #554338;
      }

      .cls-23 {
        fill: #4b3227;
      }

      .cls-24 {
        fill: #716f6c;
      }

      .cls-25 {
        fill: #866d58;
      }

      .cls-26 {
        fill: #805c44;
      }

      .cls-27 {
        fill: #ebdacb;
      }

      .cls-28 {
        fill: #33271c;
      }

      .cls-29 {
        fill: #6a615f;
      }

      .cls-30 {
        fill: #9a775b;
      }

      .cls-31 {
        fill: #95716d;
      }

      .cls-32 {
        fill: #a48b7c;
      }

      .cls-33 {
        fill: #eccdb5;
      }

      .cls-34 {
        fill: #322218;
      }

      .cls-35 {
        fill: #bca191;
      }

      .cls-36 {
        fill: #68534b;
      }

      .cls-37 {
        fill: url(#Degradado_sin_nombre_170);
      }

      .cls-38 {
        fill: #463427;
      }

      .cls-39 {
        fill: #7a7c7d;
      }

      .cls-40 {
        fill: #81462b;
      }

      .cls-41 {
        fill: #d2baa9;
      }

      .cls-42 {
        fill: #2e2524;
      }

      .cls-43 {
        fill: url(#Degradado_sin_nombre_173);
      }

      .cls-44 {
        fill: #735d47;
      }

      .cls-45 {
        fill: #bca8a1;
      }

      .cls-46 {
        fill: #ab7653;
      }

      .cls-47 {
        fill: #e1baa0;
      }

      .cls-48 {
        fill: #d5a785;
      }

      .cls-49 {
        fill: #bb9278;
      }

      .cls-50 {
        fill: #bf8560;
      }

      .cls-51 {
        fill: #f0e8e2;
      }

      .cls-52 {
        fill: #5a2e13;
      }

      .cls-53 {
        fill: url(#Degradado_sin_nombre_178);
      }

      .cls-54 {
        fill: #714c35;
      }

      .cls-55 {
        fill: #cb9974;
      }

      .cls-56 {
        fill: #634231;
      }

      .cls-57 {
        fill: #b59579;
      }

      .cls-58 {
        fill: #5b5959;
      }

      .cls-59 {
        fill: #755141;
      }

      .cls-60 {
        fill: #706d6e;
      }

      .cls-61 {
        fill: #908888;
      }

      .cls-62 {
        fill: #201911;
      }

      .cls-63 {
        fill: #876650;
      }

      .cls-64 {
        fill: #653c2b;
      }

      .cls-65 {
        fill: url(#Degradado_sin_nombre_166);
      }

      .cls-66 {
        fill: #90796a;
      }

      .cls-67 {
        fill: #8a553c;
      }

      .cls-68 {
        fill: url(#Degradado_sin_nombre_172);
      }

      .cls-69 {
        fill: #40372c;
      }

      .cls-70 {
        fill: #e0e0e1;
      }

      .cls-71 {
        fill: #929292;
      }

      .cls-72 {
        fill: #dbb496;
      }

      .cls-73 {
        fill: #24110c;
      }
    </style>
    <linearGradient id="Degradado_sin_nombre_171" data-name="Degradado sin nombre 171" x1="6.88" y1="33.27" x2="25.41" y2="41.24" gradientUnits="userSpaceOnUse">
      <stop offset="0" stop-color="#674132"/>
      <stop offset="1" stop-color="#28170c"/>
    </linearGradient>
    <linearGradient id="Degradado_sin_nombre_172" data-name="Degradado sin nombre 172" x1="20.49" y1="34.18" x2=".68" y2="42.27" gradientUnits="userSpaceOnUse">
      <stop offset="0" stop-color="#c29676"/>
      <stop offset="1" stop-color="#714c38"/>
    </linearGradient>
    <linearGradient id="Degradado_sin_nombre_173" data-name="Degradado sin nombre 173" x1="9.5" y1="14.09" x2="-3.98" y2="54.32" gradientUnits="userSpaceOnUse">
      <stop offset="0" stop-color="#b5896d"/>
      <stop offset="1" stop-color="#805740"/>
    </linearGradient>
    <linearGradient id="Degradado_sin_nombre_170" data-name="Degradado sin nombre 170" x1="63.69" y1="51.52" x2="59.27" y2="51.76" gradientUnits="userSpaceOnUse">
      <stop offset="0" stop-color="#6f4734"/>
      <stop offset="1" stop-color="#22110a"/>
    </linearGradient>
    <linearGradient id="Degradado_sin_nombre_166" data-name="Degradado sin nombre 166" x1="86.79" y1="35.31" x2="65.8" y2="63.38" gradientUnits="userSpaceOnUse">
      <stop offset="0" stop-color="#e5bfa0"/>
      <stop offset="1" stop-color="#d19c78"/>
    </linearGradient>
    <linearGradient id="Degradado_sin_nombre_174" data-name="Degradado sin nombre 174" x1="25.61" y1="10.13" x2="49.81" y2="34.27" gradientUnits="userSpaceOnUse">
      <stop offset="0" stop-color="#a1745a"/>
      <stop offset="1" stop-color="#67412f"/>
    </linearGradient>
    <linearGradient id="Degradado_sin_nombre_178" data-name="Degradado sin nombre 178" x1="55.5" y1="32.86" x2="58.01" y2="33.47" gradientUnits="userSpaceOnUse">
      <stop offset="0" stop-color="#826951"/>
      <stop offset="1" stop-color="#64503f"/>
    </linearGradient>
    <linearGradient id="Degradado_sin_nombre_176" data-name="Degradado sin nombre 176" x1="18.37" y1="40.51" x2="39.8" y2="68.4" gradientUnits="userSpaceOnUse">
      <stop offset="0" stop-color="#966a51"/>
      <stop offset="1" stop-color="#563625"/>
    </linearGradient>
    <linearGradient id="Degradado_sin_nombre_152" data-name="Degradado sin nombre 152" x1="40.87" y1="44.18" x2="40.62" y2="50.41" gradientUnits="userSpaceOnUse">
      <stop offset="0" stop-color="#d3d5d6"/>
      <stop offset="1" stop-color="#d8c7b8"/>
    </linearGradient>
    <linearGradient id="Degradado_sin_nombre_153" data-name="Degradado sin nombre 153" x1="53.91" y1="55.19" x2="53.7" y2="58.41" gradientUnits="userSpaceOnUse">
      <stop offset="0" stop-color="#392725"/>
      <stop offset="1" stop-color="#4e2c20"/>
    </linearGradient>
  </defs>
  <g id="Capa_1-2" data-name="Capa 1">
    <g>
      <g>
        <g>
          <g>
            <path class="cls-72" d="M25.33,7.55c0,.08.02.19,0,.25,0,.02-.1-.12-.12.37-.08,1.36-.1,2.81-.12,4.18-3.51.39-7.01.89-10.51,1.23-.27-.24-.21-.53-.55-.74-1.16-.71-2.53-1.18-3.81-1.6-.49-.16-1.26-.63-1.78-.61-.09-.02-.05.25-.06.25-2.13-.43-4.24-.97-6.39-1.23,0-.08.14-.24.18-.25.32-.07,5.29-.5,6.46-.61.9-.09,1.8-.16,2.71-.25,4.67-.42,9.35-.6,14.02-.98Z"/>
            <path class="cls-34" d="M1.97,9.65c2.16.26,4.27.8,6.39,1.23l.31.25c-.92-.12-1.94.14-2.77.12-.28,0-.58.02-.86,0-1.07-.09-3.83-.95-5.04-1.35v-.49c.66.03,1.31.17,1.97.25Z"/>
          </g>
          <g>
            <path class="cls-9" d="M25.08,12.35c-.12,5.97-.06,11.98,0,17.95.02,1.95-.01,3.89,0,5.84.04.08.44.11.61.18-2.29.8-4.69,1.25-7.01,1.97-.43.13-.86.25-1.29.37-.24.3,7.01,1.83,7.32,2.46l-.25.25-7.5-2.27c0,6.62,0,13.24,0,19.86,0,2.04.1,4.11-.12,6.15-1.04,0-2.03.06-3.07-.12V13.58c.37.08.23-.29.25-.74.34.21.29.5.55.74,3.5-.34,7.01-.84,10.51-1.23Z"/>
            <path class="cls-68" d="M13.77,13.58v51.4c-2.12-.37-6.16-4.05-8.55-4.55.09-.22-.31-.54-.43-.61.12.02.27-.03.37,0,.27.08,1.41,1.11,1.6.8,0-4.69-.01-9.39,0-14.08.03-11.6-.02-23.2,0-34.8,1.98.84,4.86,1.4,7.01,1.84Z"/>
            <path class="cls-34" d="M10.21,11.24c1.29.42,2.65.89,3.81,1.6-.02.45.12.81-.25.74-2.15-.44-5.03-1.01-7.01-1.84l3.44-.49Z"/>
          </g>
          <g>
            <path class="cls-43" d="M5.04,11.24c-.03,9.8-.03,19.59,0,29.39.02,6.31.03,12.62.12,18.94L.12,56.74v-.12l-.12-46.73c1.21.41,3.97,1.27,5.04,1.35Z"/>
            <path class="cls-34" d="M5.16,59.57v.25c-.1-.03-.25.02-.37,0-.76-.47-4.53-2.37-4.67-3.07l5.04,2.83Z"/>
            <path class="cls-70" d="M10.21,11.24l-3.44.49c-.26-.11-.66-.28-.86-.49.82.02,1.85-.24,2.77-.12l-.31-.25s-.03-.26.06-.25c.53-.01,1.29.45,1.78.61Z"/>
            <path class="cls-5" d="M5.9,11.24c.2.21.6.38.86.49-.02,11.6.03,23.2,0,34.8-.09,0-.21.03-.25-.06-.24-.7.4-4.68-.31-6.21-.19-.12-.04.88-1.17.37-.03-9.8-.03-19.59,0-29.39.28.02.58,0,.86,0Z"/>
            <path class="cls-5" d="M6.76,46.53c-.01,4.69,0,9.39,0,14.08-.19.31-1.33-.72-1.6-.8v-.25c-.09-6.31-.11-12.62-.12-18.94,1.13.51.98-.49,1.17-.37.7,1.53.06,5.51.31,6.21.03.09.16.06.25.06Z"/>
          </g>
        </g>
        <g>
          <path class="cls-37" d="M59.64,36.94l.43.98c.78-.19,1.4.52,1.72.61,1.58.46.99.03,1.29-.86,1.78.48,1.33,1,1.35,1.23.44,4.94-.32,19.32,0,26.07,0,.21-.01.31.12.49-2.65-.02-8.76,1.3-10.27,1.35-.21,0-.43-.05-.55-.25.66-.34,1.21-.86,1.84-1.23.72-.42,1.51-.78,2.21-1.23.22-.14.92-.38.98-.55l.12-24.9-.06-.25c-.49-.06-.41.12-.43.12-.27.04-.49.17-.74.25.48-.72-.95-.63-2.09-.37.02,0-.05-.2.06-.25,1.25-.33,2.81-.75,4-1.23Z"/>
          <path class="cls-26" d="M82.39,56.49c.05,1.39-.09,2.79.06,4.18.24.19,5.21-1.46,5.96-1.23-.03.17.07.33-.18.49l-23.67,5.53c-.14-.19-.11-.28-.12-.49l11.13-2.58.31-.31c-.21-.57-.14-1.5-.12-2.15l1.97-.25c-1.74.43-2.06.33-1.54,2.58l6.03-1.48-.06-1.78c-.11-.21-.31-.09-.74-.06v-.12c.35-.07.36-.31.74-.18.07-1.12-.19-2.27.25-2.15Z"/>
          <path class="cls-70" d="M77.84,36.08l.12.12v6.82l-.18.31c-.5-.1-2.46.88-2.64.43v-7.32c.5-.02.57-.12.61-.12.73-.05,1.88-.34,2.09-.25Z"/>
          <g>
            <path class="cls-65" d="M88.41,59.45c-.75-.23-5.73,1.42-5.96,1.23-.15-1.39,0-2.79-.06-4.18-.02-.52.06-1.26,0-1.6-.34-.97,4.34-1.08,4.73-1.35.3-.2.24-.89,0-.98-.23-.09-4.29,1.18-4.67,1.48-1.52-.39-4.34.84-6.27.98l-.43.18c-.06.26.14.34.12.43-.25,1.42-.09,2.87-.12,4.3-.02.65-.09,1.58.12,2.15l-.31.31-11.13,2.58c-.32-6.75.44-21.12,0-26.07l10.7-2.34v7.19c.19.45,2.14-.53,2.64-.43l.18-.31v-6.82c3.44-.55,6.9-1.22,10.21-2.34l.25.06c-.22,4.19.29,24.05,0,25.52Z"/>
            <path class="cls-30" d="M65.91,58.34c1.96-.22,3.85-.71,5.72-1.35,1.34-.46,1.87-.94,1.97-.98.08-.04,1.51.2,1.17-.74.17,0,.66-.05.74.06l-.31,2.4c-1.11.08-9.01,2.67-9.28,2.27.04-.55-.05-1.12,0-1.66Z"/>
            <path class="cls-25" d="M65.91,58.34c.03-.37-.12-.77.18-.98,1.81-.31,7.75-2.07,8.67-2.09.34.94-1.08.7-1.17.74-.1.04-.63.53-1.97.98-1.87.64-3.76,1.13-5.72,1.35Z"/>
            <path class="cls-62" d="M86.01,54.53c1.13-.11,1.23,1.4.49,1.6-1.48.39-1.75-1.47-.49-1.6Z"/>
            <path class="cls-26" d="M84.17,54.9c.08-.02.26-.03.31.06-1.96,2.97-.63.02-.31-.06Z"/>
          </g>
          <path class="cls-56" d="M61.11,36.82c-.02.23,1.52.71,1.84.74-.01.14.06.11.12.12-.3.89.29,1.32-1.29.86-.33-.09-.94-.81-1.72-.61l-.43-.98s.09-.09.49-.25c.18.65.83.15.98.12Z"/>
          <g>
            <path class="cls-57" d="M83.74,32.76c1.05.1,2.67.63,3.69.98-.4.38-1.14.37-1.72.49.03-.44-.13-.05-.43-.12-1.02-.25-.47-1.19-3.75-.12,1.01-.56,1.76-.25.86-.98.22-.08.48-.24.68-.37.49-.06.6.12.68.12Z"/>
            <path class="cls-25" d="M88.17,33.87c-3.3,1.11-6.77,1.78-10.21,2.34l-.12-.12.12-.25c.3.37,1.21-.02,1.72-.12,2.02-.4,4.01-1.04,6.03-1.48.58-.13,1.32-.11,1.72-.49.14.05.56,0,.74.12Z"/>
            <path class="cls-57" d="M82.39,33.01c.9.74.15.42-.86.98-.96.54-1.25.66-1.84,1.72-.52.1-1.42.49-1.72.12-.03-.04-.11-.18-.12-.25.04,0,.08,0,.12,0,.4-.08,3.39-2.18,4.43-2.58Z"/>
            <path class="cls-12" d="M85.71,34.24c-2.02.44-4.01,1.07-6.03,1.48.6-1.06.88-1.18,1.84-1.72,3.29-1.07,2.73-.13,3.75.12.3.07.46-.32.43.12Z"/>
          </g>
          <g>
            <path class="cls-57" d="M77.71,59.69c.41-.1,3.5-.72,3.69-.74.42-.03.63-.15.74.06l.06,1.78-6.03,1.48c-.52-2.25-.2-2.15,1.54-2.58Z"/>
            <g>
              <path class="cls-44" d="M82.39,54.9c.06.34-.02,1.08,0,1.6-.44-.12-.18,1.03-.25,2.15-.38-.12-.39.11-.74.18-.02,0,0-.26-.37-.06l.37.06v.12c-.19.01-3.28.64-3.69.74l-1.97.25c.03-1.43-.12-2.88.12-4.3l5.96-1.35.43.06c-.06.62.12.53.12.55Z"/>
              <path class="cls-2" d="M82.39,54.9s-.19.07-.12-.55l-.43-.06-5.96,1.35c.02-.09-.19-.17-.12-.43l.43-.18c1.93-.15,4.75-1.37,6.27-.98.38-.3,4.44-1.56,4.67-1.48.24.09.3.78,0,.98-.4.27-5.08.38-4.73,1.35Z"/>
              <path class="cls-26" d="M81.4,58.83l-.37-.06c.37-.2.35.07.37.06Z"/>
            </g>
          </g>
          <g>
            <path class="cls-72" d="M75.13,36.45v.12l-10.7,2.34c-.02-.23.43-.75-1.35-1.23-.06-.02-.14.01-.12-.12.36.03,6.85-.61,7.19-.74.11-.04.21-.35.43-.49,1.52.02,3.02.18,4.55.12Z"/>
            <path class="cls-55" d="M68,36.21c.87.01,1.71.11,2.58.12-.22.15-.32.45-.43.49-.34.13-6.83.77-7.19.74-.32-.03-1.86-.51-1.84-.74,1.04-.19,2.11-.65,3.14-.74.96-.08,2.51.1,3.75.12Z"/>
          </g>
        </g>
        <g>
          <path class="cls-70" d="M72.55,1.41c.32.03.72.01.98.25-.91.07-1.86-.2-1.97.25-4.31-.06-8.6-.15-12.91-.25,0-.09-.04-.19.06-.25.29-.16,6.13-1.32,6.46-1.35.29-.02.6-.14.86.06-1.6,1.84,2.91,1,6.52,1.29Z"/>
          <g>
            <path class="cls-12" d="M86.44,14.56c0,5.47,0,10.94,0,16.42-.21.26-.8.43-.98.55-.86-.51-.12-1.2-.37-1.48,0,0,.03-.16-.18-.12l-6.95,4.3-.12-32.28c-2.1.13-4.18-.03-6.27-.06.11-.44,1.05-.17,1.97-.25,4.24-.34,8.49-.76,12.73-1.11l.31.18c-.13,4.61-.12,9.22-.12,13.83Z"/>
            <path class="cls-12" d="M85.46,31.53c-.8.55-1.65.87-1.72,1.23-.07,0-.19-.18-.68-.12-.2.13-.46.28-.68.37-1.03.4-4.03,2.5-4.43,2.58v-.74c.09-.03.16.13.18.12.46-.11,5.94-4.15,6.95-4.92.25.28-.49.96.37,1.48Z"/>
            <path class="cls-57" d="M85.09,30.06c-1.01.76-6.49,4.81-6.95,4.92-.03,0-.09-.15-.18-.12v-.61l6.95-4.3c.21-.04.18.11.18.12Z"/>
          </g>
          <g>
            <path class="cls-26" d="M58.65,1.65c4.31.09,8.6.18,12.91.25,2.09.03,4.17.19,6.27.06l.12,32.28v1.35s-.08,0-.12,0l-3.14-.37c-.77-1.01-1.84-1-2.77-2.03-2.69-2.99-2.6-14.01-2.95-18.2-.92-2.53.07-5.39-1.84-7.5-2.02-2.23-3.91-1.63-4.98-1.78-4.19-.61-8.38-1.19-12.6-1.48-.02-.34-.05-2.63.06-2.71,3.02-.08,6.02.06,9.04.12Z"/>
            <path class="cls-56" d="M77.84,35.59c.02.06.09.21.12.25l-.12.25c-.21-.09-1.36.2-2.09.25-.68-.18-.59-.59-.68-.61-.31-.09-3.68.51-6.39-.98-2.18-1.2-3.11-3.82-4.49-5.78,0-2.99-.09-5.98-.12-8.98-.04-4.41.03-8.81,0-13.22-4.77-.7-9.72-.62-14.51-1.23-.02-.26.03-.54,0-.8-.02-.16,0-.33,0-.49,4.23.29,8.42.87,12.6,1.48,1.07.16,3.35-.74,4.98,1.78,1.37,2.12.37,4.12.37,8.12,0,4.21,3,14,4.42,17.58.51,1.29,2,1.02,2.77,2.03l3.14.37Z"/>
            <path class="cls-11" d="M75.75,36.33s-.12.1-.61.12c-1.53.06-3.03-.11-4.55-.12-.87,0-1.71-.11-2.58-.12,2.6-.38-.41-.79-1.05-1.11-.98-.5-1.67-1.42-2.77-1.72.01-.29,0-.57,0-.86.03-1.1,0-2.22,0-3.32,0-.08,0-.16,0-.25,1.37,1.96,2.31,4.57,4.49,5.78,2.71,1.5,6.08.89,6.39.98.08.02,0,.44.68.61Z"/>
          </g>
          <path class="cls-34" d="M68,36.21c-1.24-.02-2.79-.2-3.75-.12-1.02.09-2.1.55-3.14.74-.16.03-.8.52-.98-.12.08-.03.22-.06.37-.12.39.28,3.48-.63,3.57-.8.03-.25-.04-.57,0-.8.11-.6.09-1.01.12-1.6,1.09.3,1.78,1.23,2.77,1.72.63.32,3.65.73,1.05,1.11Z"/>
        </g>
        <g>
          <g>
            <path class="cls-12" d="M64.06,19.97l-.31-1.23c-.59,1.79-1.32,4.8-1.54,6.7-.07.59-.34,3.22.06,3.38.66-.29.64,0,.68,0-1.56.51-3.93.63-3.57,1.6h-.12s-.18.05-.12-.37c-.35-.35-3.62.88-4.3.98l-.25.18c-.02.84.02,1.68,0,2.52-.08,0-.17-.01-.25,0l.12-2.4c-.06-.12-.26-.04-.37-.06-.81-.14-5.3,1.62-6.58,1.84-.48.21-.26.43-.31.86-.06.55.04,1.16,0,1.72-.31-.56-.03-.96-1.35-.49-.1-8.44.03-16.89.12-25.33l7.75-1.72v5.72l2.03.06.18-6.15,6.7-.98c-1.32-.17-4.27.2-5.59.49-.54-.49-.75-.32-1.23-.37-2.1-.2-4.25-.16-6.33-.61-2.54-.3-14.43,1.27-15.86,1.72-.15.05-.49.26-.43.49-2.62-.25-5.23-.82-7.87-.74.02-.06,0-.17,0-.25,1.52-.13,3.09-.04,4.61-.25l19.61-2.58c.03.26-.02.54,0,.8,4.79.61,9.74.53,14.51,1.23.03,4.41-.04,8.81,0,13.22Z"/>
            <path class="cls-26" d="M33.2,8.54c.08,0,.17,0,.25,0v.86l-8.24-1.23c.03-.49.12-.35.12-.37,2.64-.08,5.25.49,7.87.74Z"/>
            <path class="cls-72" d="M54.35,33.75c.08-.01.17,0,.25,0-.02.86.02,1.72,0,2.58v1.6c-1.06.39-8.24,3.16-8.61,3.44.04-2.05-.1-4.1-.12-6.15,1.33-.47,1.04-.07,1.35.49.04.07-.07.32.06.37.42.16,5.84-2.09,7.07-2.34Z"/>
            <path class="cls-12" d="M53.37,8.05c-2.5.53-5.07.75-7.5,1.6h-.12l-9.22-.86s-.04-.23.06-.25c4.52-.51,9.08-1.2,13.65-.98.84.04,3.21.27,3.14.49Z"/>
            <g>
              <path class="cls-56" d="M25.95,30.3c2.23.49,4.43,1.02,6.64,1.6-.02,2.09.02,4.18,0,6.27-1.78-.44-3.53-.98-5.29-1.48-.24-.07-.76-.22-.92,0-.55-.8-.63-.35-.68-.37-.17-.08-.58-.11-.61-.18-.01-1.95.02-3.89,0-5.84.72-.63.45-.09.86,0Z"/>
              <path class="cls-34" d="M39.84,32.89s0,.08,0,.12c.11,1.41,0,2.88.12,4.3.06.29-.13.27-.43.25-1.1-.1-3.44-.86-4.73-1.11,0-1.51-.23-3.03-.12-4.55,1.67.42,3.46.72,5.16.98Z"/>
              <path class="cls-56" d="M39.96,37.31c.08.85.49,1.74.25,2.58-1.76-.46-3.55-.79-5.29-1.35,0-.1-.12-1.53-.12-2.09,1.29.25,3.63,1.01,4.73,1.11.3.03.49.05.43-.25Z"/>
              <path class="cls-56" d="M32.59,30.79c-.07.31.12.4.12.49,0,.03-.12-.16-.12.61-2.21-.58-4.41-1.11-6.64-1.6.04-.24-.09-1.13.06-1.23.28-.19,5.71,1.52,6.58,1.72Z"/>
            </g>
            <path class="cls-56" d="M36.52,8.78l9.22.86c-.12.45-.05.71-.55.61l-8.91-1.11c-.01-.12-.13-.14-.12-.25.15-.1.2-.1.37-.12Z"/>
            <path class="cls-30" d="M53.74,8.05v.12l-7.75,1.72s-.17.05-.12-.25c2.43-.85,5-1.07,7.5-1.6.49-.1.35,0,.37,0Z"/>
            <g>
              <path class="cls-21" d="M33.45,9.4v6.7l2.77.06c-.02-1.95.24-5.3.06-7.01l8.91,1.11c.5.1.43-.17.55-.61h.12c-.05.29.12.23.12.25-.09,8.44-.22,16.89-.12,25.33.02,2.05.16,4.1.12,6.15-.02.02-.08-.04-.12.12-1.88-.55-3.76-1.1-5.66-1.6.24-.84-.17-1.73-.25-2.58-.13-1.42,0-2.89-.12-4.3h.12c.51.16,3.92,1.31,4.12,1.23.27-.1.28-.77,0-.98-.38-.29-3.44-.58-4.12-.74-.01,0,.1-.04-.25-.12-2.38-.56-4.75-1.06-7.13-1.6-.87-.2-6.3-1.91-6.58-1.72-.15.1-.02.99-.06,1.23-.41-.09-.14-.63-.86,0-.06-5.97-.12-11.99,0-17.95.03-1.37.05-2.82.12-4.18l8.24,1.23Z"/>
              <path class="cls-34" d="M39.72,32.39c-.06.3.11.38.12.49-1.71-.27-3.49-.56-5.16-.98-.02,0-.05-.16-.37-.25-.53-.13-1.08-.2-1.6-.37,0-.09-.19-.19-.12-.49,2.38.54,4.75,1.04,7.13,1.6Z"/>
              <path class="cls-34" d="M39.96,33.01v-.49c.68.16,3.74.45,4.12.74.28.21.27.88,0,.98-.2.08-3.61-1.07-4.12-1.23Z"/>
              <path class="cls-34" d="M42.12,34.98c.1-.07,2.15-.16,1.66,1.05-.16.41-2.42-.51-1.66-1.05Z"/>
              <path class="cls-45" d="M39.96,32.52v.49h-.12s0-.08,0-.12c-.02-.11-.19-.2-.12-.49.34.08.23.12.25.12Z"/>
            </g>
            <path class="cls-72" d="M64.06,19.97c.03,2.99.12,5.98.12,8.98,0,.08,0,.16,0,.25-.35-.23-.49-.2-.61-.25-.37-.13-.53-.1-.61-.12-.03,0-.01-.29-.68,0-.4-.16-.13-2.79-.06-3.38.22-1.9.94-4.91,1.54-6.7l.31,1.23Z"/>
            <g>
              <path class="cls-5" d="M36.15,8.91c0,.11.11.12.12.25.18,1.71-.08,5.06-.06,7.01l-2.77-.06v-7.56c.91.09,1.79.29,2.71.37Z"/>
              <path class="cls-70" d="M55.83,6.94c.34.67-1.34.94-2.09,1.11-.02,0,.12-.1-.37,0,.07-.22-2.29-.45-3.14-.49-4.57-.22-9.13.47-13.65.98-.1.01-.05.24-.06.25-.16.02-.22.03-.37.12-.91-.08-1.79-.28-2.71-.37-.08,0-.17,0-.25,0-.06-.23.28-.44.43-.49,1.43-.45,13.33-2.02,15.86-1.72,2.08.45,4.23.41,6.33.61Z"/>
              <path class="cls-70" d="M57.06,7.31c-.29.06-.83.39-1.05.12l-.06.37-.18,6.15-2.03-.06v-5.84c.75-.17,2.43-.43,2.09-1.11.48.05.69-.12,1.23.37Z"/>
            </g>
            <g>
              <path class="cls-30" d="M54.35,33.75c-1.23.24-6.65,2.49-7.07,2.34-.13-.05-.02-.3-.06-.37.04-.56-.06-1.17,0-1.72,1.56-.28,3.21-.58,4.49-1.6,1.41.36.59-.41.86-.61.08-.06,1.69.53,1.54-.49.11.02.31-.05.37.06l-.12,2.4Z"/>
              <path class="cls-25" d="M54.1,31.29c.15,1.02-1.46.43-1.54.49-.27.2.55.97-.86.61-1.28,1.02-2.93,1.31-4.49,1.6.05-.43-.17-.65.31-.86,1.28-.22,5.77-1.98,6.58-1.84Z"/>
            </g>
            <path class="cls-30" d="M55.95,7.8l.06-.37c.21.27.76-.06,1.05-.12,1.32-.29,4.28-.66,5.59-.49l-6.7.98Z"/>
            <path class="cls-11" d="M60.5,36.57c.5-.2,1.17-.62,1.72-.86.59-.25,1.29-.37,1.84-.74-.04.23.03.55,0,.8-.08.17-3.17,1.08-3.57.8Z"/>
            <g>
              <path class="cls-26" d="M63.94,32.52c.48,1.48-.99,1.43-1.72,3.2-.55.24-1.22.66-1.72.86-.15.06-.29.09-.37.12-.4.16-.47.24-.49.25-1.18.48-2.75.9-4,1.23-.11.05-.05.24-.06.25-.02,0,.11.2-.31.37-1.71.69-3.5,1.3-5.23,1.97-.94.36-1.88.75-2.83,1.11-.42.16-.92.26-1.23.37.08-.36-.16-.58-.12-.74.04-.16.1-.1.12-.12.37-.28,7.55-3.06,8.61-3.44.42-.15,3.01-.71,4.49-1.35.32-.23.05-1.42.06-1.72,0-.1.11-.11.12-.37.38.6,3.41-1.72,4.67-1.97Z"/>
              <path class="cls-2" d="M62.96,28.83c.08.02.24,0,.61.12-.14.63-2.88,1.06-4.18,1.48-.37-.96,2.01-1.09,3.57-1.6Z"/>
              <g>
                <path class="cls-53" d="M59.15,30.06c-.06.42.12.35.12.37.06.28.02,3.31,0,4.06,0,.26-.12.27-.12.37l-4.55,1.48c.02-.86-.02-1.72,0-2.58.02-.84-.02-1.68,0-2.52l.25-.18c1.42.27,2.98-.53,4.3-.98Z"/>
                <path class="cls-2" d="M59.15,30.06c-1.32.46-2.89,1.25-4.3.98.68-.1,3.96-1.34,4.3-.98Z"/>
              </g>
              <path class="cls-57" d="M59.15,34.85c-.01.3.26,1.49-.06,1.72-1.47.64-4.07,1.2-4.49,1.35v-1.6l4.55-1.48Z"/>
              <path class="cls-56" d="M64.19,32.52c0,.29.01.58,0,.86-.03.59-.01,1-.12,1.6-.55.37-1.25.48-1.84.74.73-1.77,2.2-1.71,1.72-3.2.08-.01.17,0,.25,0Z"/>
              <g>
                <path class="cls-4" d="M64.19,29.2c0,1.1.03,2.22,0,3.32-.08,0-.17-.01-.25,0-1.27.25-4.29,2.57-4.67,1.97.02-.75.06-3.78,0-4.06h.12c1.3-.42,4.04-.84,4.18-1.48.13.04.27.02.61.25Z"/>
                <path class="cls-56" d="M62.04,30.43c1.63-.32,1.51,1.43.86,1.6-1.26.32.28-.78-.37-1.11-.64-.32-1.73.81-1.91.43.44-.12,1.15-.87,1.41-.92Z"/>
              </g>
            </g>
          </g>
          <g>
            <path class="cls-62" d="M37.63,73.09v.37l-.74.12c-.3-.17-.72-.13-1.23-.25-1.84-.43-1.45-.7-1.54-.74-.32-.13-1.22-.26-1.48-.37-1.88-.79-3.7-1.93-5.59-2.71.08-.15.11-.18.12-.37,3.44,1.43,6.88,2.86,10.45,3.93Z"/>
            <path class="cls-26" d="M55.58,65.35c-.64.37-1.19.89-1.84,1.23-.62.32-11.79,5.29-12.73,5.66-1.11.44-2.23.9-3.38,1.23v-.61c3.47-1.08,6.71-3.01,10.14-4.3.47-.49.06-2.32.06-2.95.43-.06.35.12.37.12l-.06,2.58c.82-.33,1.6-.74,2.4-1.11.51-.23,3.04-1.45,3.2-1.6-.13.82.69-.15,1.84-.25Z"/>
            <path class="cls-60" d="M27.05,62.27c-.1,1.52.08,3.04.12,4.55.02.72.05,1.63,0,2.34-.01.19-.04.22-.12.37-.61-.25-1.23-.49-1.84-.74-.17-.07-.32-.18-.49-.25v-.49c.02-2.09-.02-4.18,0-6.27,0-.48.12-.35.12-.37.7.22,1.46.36,2.15.61.11.04.05.24.06.25Z"/>
            <path class="cls-34" d="M24.72,68.05v.49c-.05-.02.33.44-.92,0-1.95-1.16-4.86-1.59-6.58-2.95l7.5,2.46Z"/>
            <path class="cls-55" d="M58.41,38.54c.28.06-.13.14-.25.61-.64-.4-.45.53-.49,1.6-.48.33-.54,1.56-.49,2.15-.8,1.68-1.38,6.3-1.48,8.36-.08,1.64-.17,6.07.61,6.09-.56.21-1.55.62-2.09.86-2.02-1.96-.11-11.01.61-13.83.43-1.7,1.31-3.5,1.6-5.1.41-.13.79-.36,1.23-.49.25-.08.47-.21.74-.25Z"/>
            <path class="cls-26" d="M58.9,38.66l-.12,24.9c-.06.17-.76.41-.98.55-.77-.75-.19-4.31-.37-6.27.07-.82-.12-.7-.12-.74-.04-5.44.18-10.92.37-16.35.04-1.07-.14-2,.49-1.6-.06.27-.21,3.12.43,2.58.29-.24-.27-2.96.31-3.07Z"/>
            <path class="cls-57" d="M57.67,38.79c-.44.13-.82.36-1.23.49-2.08.67-4.17,1.34-6.27,1.97.01-.24-.16-.28-.12-.49,1.73-.67,3.51-1.27,5.23-1.97.42-.17.29-.36.31-.37,1.14-.27,2.57-.35,2.09.37Z"/>
            <path class="cls-8" d="M58.9,38.66c-.57.12-.02,2.83-.31,3.07-.64.54-.5-2.31-.43-2.58.11-.48.53-.56.25-.61.02,0-.06-.18.43-.12l.06.25Z"/>
            <g>
              <path class="cls-56" d="M17.58,59.32c1.17.66,5.51,2.02,7.13,2.46-.02,2.09.02,4.18,0,6.27l-7.5-2.46c-.18-.14,0-.56-.37-.49.23-2.04.12-4.1.12-6.15.5-.23.22.15.61.37Z"/>
              <path class="cls-23" d="M24.72,60.8c-.07.4.12.54.12.61,0,.02-.12-.11-.12.37-1.62-.44-5.96-1.8-7.13-2.46l.18-.86c2.28.9,4.62,1.58,6.95,2.34Z"/>
            </g>
            <path class="cls-34" d="M31.36,63.75l.18,4.67-4.37-1.6c-.04-1.51-.22-3.03-.12-4.55,1.42.52,2.88.95,4.3,1.48Z"/>
            <path class="cls-34" d="M40.21,39.89c1.89.5,3.78,1.05,5.66,1.6-.04.16.2.37.12.74-.03,0,.03.06-.49.25-.24-.31-.81-.04-1.11,0,.1-.47-.71-.14-1.41-.25-1.92-.29-6.35-1.78-8.18-2.83-.08-.58.12-.81.12-.86,1.73.56,3.53.89,5.29,1.35Z"/>
            <path class="cls-72" d="M56.44,39.28c-.29,1.61-1.16,3.4-1.6,5.1-.72,2.83-2.63,11.88-.61,13.83-.5.23-.59.48-.92.86-.88-.67-5.32,1.2-5.47,1.97-.07.33.01,1.46,0,2.09-.1,0-.22-.01-.25,0-.15-1.36.56-2.45-.8-2.34-.72.06-7.51,3.25-7.93,3.32-.41.07-.96-.02-1.23-.37v-18.44c2.61-.98,5.25-1.88,7.87-2.83.52-.19.47-.24.49-.25.31-.11.81-.21,1.23-.37l.18,7.01,2.64-1.17c-.05-2.16.01-4.3.12-6.46,2.1-.62,4.19-1.3,6.27-1.97Z"/>
            <g>
              <path class="cls-10" d="M24.47,41.37v6.82l2.64,1.05.06-.25v-6.82l.25-.18c.03.36,1.81.92,2.77,1.23,2.17.7,4.41,1.21,6.52,2.09h.92v27.79c-3.57-1.07-7.01-2.51-10.45-3.93.05-.71.02-1.61,0-2.34l4.37,1.6-.18-4.67c2.46.92,4.99,2.38,4.24.74-3.63-1.21-7.24-2.51-10.88-3.69-2.32-.76-4.67-1.44-6.95-2.34l-.18.86c-.39-.22-.11-.6-.61-.37,0-6.62,0-13.24,0-19.86l7.5,2.27Z"/>
              <path class="cls-34" d="M31.36,63.75c-1.43-.53-2.89-.96-4.3-1.48-.01,0,.05-.21-.06-.25-.69-.25-1.45-.4-2.15-.61,0-.07-.19-.21-.12-.61,3.64,1.18,7.25,2.48,10.88,3.69.75,1.64-1.78.18-4.24-.74Z"/>
              <path class="cls-34" d="M33.38,65.96c3.03.27,2.38,2.61.86,1.35-.4-.33-.63-.9-.86-1.35Z"/>
            </g>
            <path class="cls-4" d="M57.67,40.76c-.19,5.43-.41,10.92-.37,16.35-.4.15-.89.21-.98.25-.78-.02-.69-4.44-.61-6.09.1-2.06.67-6.69,1.48-8.36-.05-.59.02-1.83.49-2.15Z"/>
            <g>
              <path class="cls-4" d="M57.42,57.85c.18,1.96-.4,5.52.37,6.27-.7.45-1.49.81-2.21,1.23-1.15.1-1.97,1.07-1.84.25.16-.15.29-.16.25-.31-.04-.11-.36-.29-.37-.31l-.49-5.66c1.45-.44,2.83-1.1,4.3-1.48Z"/>
              <path class="cls-34" d="M57.12,59.2c.27.1.23,1.03.12,1.11-.12.08-1.33-.27-2.52.06.33-.11,2.27-1.21,2.4-1.17Z"/>
            </g>
            <path class="cls-70" d="M50.17,41.25c-.11,2.16-.17,4.3-.12,6.46l-2.64,1.17-.18-7.01c.95-.36,1.88-.74,2.83-1.11-.03.21.14.25.12.49Z"/>
            <g>
              <path class="cls-55" d="M47.83,63.13c-.02.82,0,1.64,0,2.46,0,.63.41,2.46-.06,2.95-3.43,1.29-6.68,3.22-10.14,4.3v-9.1c.27.35.82.43,1.23.37l.18,2.71c2.25-1.03,6.68-2.4,8.55-3.69.02-.01.15,0,.25,0Z"/>
              <path class="cls-25" d="M47.59,63.13c-1.86,1.29-6.29,2.66-8.55,3.69l-.18-2.71c.42-.07,7.21-3.26,7.93-3.32,1.36-.11.65.98.8,2.34Z"/>
            </g>
            <g>
              <g>
                <path class="cls-57" d="M53.61,64.98s.32.19.37.31c.05.15-.08.16-.25.31-.16.15-2.69,1.36-3.2,1.6l-.37-2.09c.3-.11.67-.38.98-.49.12-.04.25-.08.37-.12.46-.15.93-.36.98-.37.23-.05.43-.16.68-.12.05.38.28.66.43.98Z"/>
                <path class="cls-57" d="M50.17,65.1l.37,2.09c-.8.37-1.58.78-2.4,1.11l.06-2.58c.13,0,1.65-.5,1.97-.61Z"/>
              </g>
              <g>
                <path class="cls-26" d="M51.28,59.69c.01.41-.02.82,0,1.23l-.12,2.21v1.48c-.32.11-.68.39-.98.49-.32.11-1.83.62-1.97.61-.02,0,.06-.18-.37-.12,0-.82-.02-1.64,0-2.46.01-.63-.07-1.76,0-2.09,1.15-.52,2.18-.95,3.44-1.35Z"/>
                <path class="cls-23" d="M57.3,57.11s.19-.08.12.74c-1.48.37-2.85,1.04-4.3,1.48-.56.17-1.27.19-1.84.37-1.27.4-2.3.83-3.44,1.35.16-.76,4.6-2.64,5.47-1.97.34-.38.42-.63.92-.86.54-.25,1.53-.65,2.09-.86.1-.04.58-.09.98-.25Z"/>
                <path class="cls-26" d="M53.12,59.32l.49,5.66c-.15-.32-.38-.61-.43-.98-.25-.04-.44.07-.68.12-.34-1.5-1.16-1.33-1.23-3.2-.02-.41.01-.82,0-1.23.58-.18,1.28-.2,1.84-.37Z"/>
                <path class="cls-2" d="M52.51,64.12c-.05.01-.52.22-.98.37-.33-.62.13-1.43-.37-1.35l.12-2.21c.07,1.87.89,1.7,1.23,3.2Z"/>
                <path class="cls-34" d="M51.52,64.49c-.12.04-.25.08-.37.12v-1.48c.5-.08.04.73.37,1.35Z"/>
              </g>
            </g>
            <g>
              <path class="cls-56" d="M27.3,36.7c.6.73,4.81,2.64,5.29,1.97-.07.2.15.27-.31.49-.15.07-2.62.72-3.14.86-.98.27-1.97.42-2.95.74.03-.22-1.21-.74-1.54-.86-1.93-.69-4.01-.99-5.96-1.6,2.31-.71,4.72-1.17,7.01-1.97.04.02.12-.43.68.37.16-.22.68-.07.92,0Z"/>
              <path class="cls-59" d="M26.19,40.76c-.3.1-.79.11-1.11.25-.13.06-.21.16-.37.12-.31-.63-7.56-2.16-7.32-2.46.43-.12.86-.24,1.29-.37,1.96.61,4.03.91,5.96,1.6.32.12,1.56.64,1.54.86Z"/>
              <path class="cls-34" d="M32.59,38.17c-.05.28.11.24.12.25,0,.1-.09.14-.12.25-.48.67-4.68-1.23-5.29-1.97,1.76.5,3.51,1.04,5.29,1.48Z"/>
            </g>
            <g>
              <path class="cls-3" d="M27.18,48.99l-.06.25-2.64-1.05v-6.82l.25-.25c.16.04.24-.07.37-.12l1.6.92c-.28.66-.14,2.43.06,3.01,0,.01.21-.27.31-.06.16.36-.22,3.29.12,4.12Z"/>
              <path class="cls-61" d="M29.14,40.02l1.48,1.11c-.24.08-.5.17-.74.25-.23.07-.7.09-1.72.49-.1.04-.54.09-.74.12l-.25.18v6.82c-.34-.83.04-3.76-.12-4.12-.09-.21-.3.08-.31.06-.2-.58-.35-2.36-.06-3.01l-1.6-.92c.31-.14.81-.15,1.11-.25.98-.32,1.97-.46,2.95-.74Z"/>
              <path class="cls-29" d="M33.94,38.91c.63.33.92.24.49.86-.21.14-3.14,1.12-3.81,1.35l-1.48-1.11c.52-.14,2.99-.79,3.14-.86.45-.22.24-.29.31-.49.04-.11.12-.14.12-.25.19.24,1.17.46,1.23.49Z"/>
              <g>
                <path class="cls-39" d="M34.31,31.66c-.16,1.22.21,5.62-.12,3.87h-.25v3.38c-.06-.03-1.04-.25-1.23-.49,0-.01-.17.04-.12-.25.02-2.09-.02-4.18,0-6.27,0-.77.12-.58.12-.61.52.16,1.07.23,1.6.37Z"/>
                <path class="cls-60" d="M34.68,31.9c-.11,1.52.11,3.04.12,4.55,0,.56.13,1.99.12,2.09,0,.05-.2.28-.12.86.07.28-.16.23-.37.37.43-.62.14-.53-.49-.86v-3.38h.25c.33,1.74-.04-2.65.12-3.87.32.08.35.24.37.25Z"/>
              </g>
            </g>
            <g>
              <path class="cls-72" d="M42.3,42.72c.7-.07,1.4-.15,2.09-.25.3-.04.87-.31,1.11,0-2.62.95-5.26,1.85-7.87,2.83h-.12c-.01-.12.06-.28-.06-.37-.51-.39-6.96-2.36-8.18-2.71-.61-1.06,1.96.26,3.26.49,3.23.59,6.53.34,9.78,0Z"/>
              <path class="cls-56" d="M28.16,41.86c.23.22.74.26,1.11.37,1.21.35,7.67,2.32,8.18,2.71.12.09.05.25.06.37h-.8c-2.11-.88-4.35-1.39-6.52-2.09-.95-.31-2.74-.87-2.77-1.23.19-.03.63-.08.74-.12Z"/>
              <path class="cls-23" d="M44.39,42.48c-.69.09-1.39.17-2.09.25-.1-.77-2.18-.26-4.24-.37-2.74-.15-5.46-.65-8.18-.98.24-.08.5-.16.74-.25.68-.23,3.6-1.21,3.81-1.35.21-.14.43-.09.37-.37,1.82,1.05,6.26,2.54,8.18,2.83.7.1,1.51-.22,1.41.25Z"/>
              <path class="cls-26" d="M29.88,41.37c2.72.33,5.44.84,8.18.98,2.06.11,4.15-.4,4.24.37-3.24.34-6.54.59-9.78,0-1.3-.24-3.87-1.55-3.26-.49-.37-.1-.87-.14-1.11-.37,1.02-.4,1.49-.42,1.72-.49Z"/>
            </g>
          </g>
        </g>
      </g>
      <g>
        <g>
          <path class="cls-24" d="M21.09,87.39s-.45.38-.53.46l-4.65-.35c-.05-.24.01-.62,0-.92.61-.12,3.82-.7,3.98-.81,1.63.94,2.04.25,1.2,1.61Z"/>
          <path class="cls-58" d="M20.56,87.85s0,.39-.46.69c-1.37-.1-2.75-.3-4.12-.46-.14-.12-.03-.41-.07-.58l4.65.35Z"/>
        </g>
        <g>
          <path class="cls-14" d="M18.96,42.33c.08.77-.25,1.54.33,1.73,1.8.11,3.6.34,5.38.58.36.05.71.07,1.06.12,3.85.48,7.7.81,11.55,1.27.2.02,1.14.32,1.39.46.67,0,1.39-.08,2.06,0,.52.06,1.08.06,1.59.12,1.05.12,2.12.34,3.19.46,8.9,1.01,17.79,2.05,26.69,3-.17.14-1.61,1.17-1.46,1.33.67.12,1.31.1,1.99.06.13,0,.27.01.4,0,.91.14,1.86.17,2.79.23,1.64.11,3.27.27,4.91.35-.27.22-.97.86-1.06,1.15l-.4.23c-1.06-.18-1.19.41-1.46.46h-.13c-1.27-.24-2.57-.35-3.85-.46-11.13-1-22.19-2.81-33.27-4.15-6.39-.77-12.86-1.23-19.26-1.96-3.74-.53-7.48-1.22-11.22-1.73-1.24-.17-8.26-1.17-8.7-1.15-.26.01-.42-.06-.6.17-.07.12.14.18.13.29-.5-.06-.05-1.38-.4-1.9.11-.27,1.3-.17,1.73-.17.66,0,1.82.07,2.52.12.62.04,1.24.07,1.86.12.87.07,1.89.39,2.79.46.77.06.89.33,1.2.12,1.57-.3,5.82-1.33,6.91-1.38.71-.03,1.03.11,1.33.12Z"/>
          <path class="cls-33" d="M33.04,33.23c.63.05.49-.42,1.73.12-.93.3.09.18.4.23,6.99,1.03,16.59,1.2,23.9,2.07,0,.22.53.07,1.06.12,1.38.11,2.37.33,2.52.35l-.33.35c4.83.7,9.72,1.39,14.61,1.61.62.55.8.98,1.39,1.27-5.37-.53-10.71-1.12-16.07-1.73-.71-.08-1.39-.22-2.06-.46l-5.58-.46c-.05.43-.21.26-.46.46-.35.27-1.43,1.23-1.86,1.61-.39,0-.78-.2-1.26-.12l-2.99,1.56c1.37.74,2.99.11,1.99.63-.94.49-2.68,1.05-3.72,1.5-2.11-.24,1.42-.48.93-1.73.13-.09.45-.36.33-.35-4.18-.38-8.38-.65-12.55-1.04-2.59-.24-5.16-.63-7.77-.69-.64-.33,2.18-1.39,2.39-2.07-1.58.74-3.17,1.39-4.85,1.96-.17-.54-.73-.37-.4-.86-1.92-.38-4-.34-5.91-.75-1.06.86-2.85.96-2.86,1.09,0,.1,1.06.01-.53.4l-.33-.46c2.69-.55,4.73-2.22,7.77-2.07,0,.08-.04.2.07.23.36.11,6.69-.3,7.64-.69.77.03,1.62-.1,1.73.12-.37.08-1.43.64-1.86.86,2.78.14,20.14,2.19,21.18,2.02.12-.02,1.79-.92,1.99-1.15-3.73-.05-19.18-2.08-21.05-1.84-.13-.5-1.06.29-1.39-.58l-3.98.23c-1.25-.77-3.81.19-2.92-.58.13-.11,2.87-1.35,3.25-1.5.76.14,5.24.86,5.51.81.1-.02-.05-.25.33-.46Z"/>
          <path class="cls-27" d="M12.59,39.11c.48-.02.98-.01,1.46,0,1.1.02,2.23.16,3.32.23.61.04,1.8.26,2.92.35,2.13.15,4.25.27,6.37.46.48.04.98.07,1.46.12-.47,1.12,4.89,1.03,6.97,1.27,2.96.34,5.89,1.08,8.9.92.29-.15.17-.45.2-.46.82-.38,1.6-.72,2.39-1.15.4-.22.64-.21.66-.23.49,1.25-3.04,1.49-.93,1.73.17.02.36-.02.53,0,1.08.1,5.55.64,6.11.58-.21.18,0,.22,0,.23-.09.09-.68.5-.93.69-2.43,1.83-2.11,1.48-4.38,1.38-.41-.02-.79-.09-1.2-.12-.16-.73-7.21-1.88-6.24-.69-4.7-.5-9.38-1.08-14.08-1.61-.71-.08-1.42-.15-2.12-.23.24-.66-1.51-.72-2.32-1.04-2.46-.05-5.77-1.02-7.7-.69.25-.88-2.27-.23-2.66-.92-.65.37-1.45.19-2.19.23.47-.15,1.96-.89,2.72-1.15.38-.05.5.13.73.12Z"/>
          <path class="cls-46" d="M4.22,54.32c.69.14,1.42.24,2.12.35v.81c-.26-.02-.54.02-.8,0-.37-.44-2.15-.11-3.19-.46-.49-.08-1.07,0-.8.52.19.36,1.39.16,1.46.17.37.08.65.09.8.12.01,0-.05.21.07.23.48.09,1.79.31,2.19.35.32.02.17.36.46.46,1.53.54,17.08,2.08,20.98,3.34,3.14.48,6.38.51,9.5,1.15.98.2,1.13.12,2.06.69,1.42.33,2.87.48,4.32.69l-.27.58c-6.47-1-12.89-2.24-19.39-3.11-1.45-.19-4.15-.79-5.44-.69-.93.07-1.79.59-2.52,1.04h-.13l-.27-.23c.78-.28,1.52-.69,2.32-.92v-.23c-3.35-.64-6.78-.82-10.16-1.27-2.05-.27-4.08-.57-6.11-.92-.81-.19-.28-2.5-.27-3.23,1.05.08,2.04.37,3.05.58Z"/>
          <path class="cls-20" d="M31.98,35.42c.37-.08.25-.11.27-.12,1.86-.24,17.32,1.79,21.05,1.84-.2.23-1.87,1.13-1.99,1.15-1.05.18-18.4-1.88-21.18-2.02.43-.23,1.49-.78,1.86-.86Z"/>
          <path class="cls-27" d="M24.01,42.56c-2.12-.24-4.25-.36-6.37-.58-.53-.09-1.06-.16-1.59-.23-.14-.02-.41-.31-2.66-.58-.71-.08-1.42-.14-2.12-.23-.56-.1-.83.18-1.06.23l.33-.46c-1.05.03-2.13.04-3.05.58-.95-.33-1.47.03-2.59.35.9-.66,2.95-1.09,4.25-1.5.74-.04,1.54.14,2.19-.23.39.69,2.91.04,2.66.92,1.94-.33,5.24.64,7.7.69.81.32,2.57.38,2.32,1.04Z"/>
          <path class="cls-41" d="M24.8,38.41c-1.47.5-2.95,1.01-4.52,1.27-1.13-.08-2.32-.31-2.92-.35,1.62-.45,3.39-.66,4.98-1.15,1.59-.49,1.53-.58-.07-.23-3.45-.89-3.13-.62-5.31.23-.81.31-1.31.88-2.92.92-.48-.01-.98-.02-1.46,0-.02-.65,1.79-.63,2.52-.81,1.59-.39.53-.31.53-.4,0-.14,1.8-.23,2.86-1.09,1.91.41,3.99.37,5.91.75-.33.49.23.33.4.86Z"/>
          <path class="cls-41" d="M10.2,45.56v1.5c-1.28-.15-2.56-.38-3.85-.46-.01-.09.08-.12.13-.17-.25-.66-4.54-.92-5.44-1.21,0-.11-.01-.23,0-.35.01-.11-.21-.16-.13-.29.18-.23.34-.16.6-.17.44-.02,7.46.98,8.7,1.15Z"/>
          <path class="cls-41" d="M10.2,41.18c-1.67.35-3.62,1.29-5.31,1.73-.71-.04-1.86-.11-2.52-.12-.18-.35,2.01-1.01,2.52-1.15,1.12-.31,1.64-.67,2.59-.35.93-.54,2.01-.55,3.05-.58l-.33.46Z"/>
          <path class="cls-33" d="M33.04,33.23c-.39.21-.23.44-.33.46-.27.05-4.75-.67-5.51-.81.02,0-.05-.19.07-.23l.66-.12c1.6.22,3.53.57,5.11.69Z"/>
          <path class="cls-38" d="M30.25,35.3c-.95.39-7.27.8-7.64.69-.1-.03-.07-.15-.07-.23,2.97,0,4.65-.57,7.7-.46Z"/>
          <path class="cls-27" d="M23.14,34.73c.92-.09-.83.93-1.66.75-.05-.09,1.57-.74,1.66-.75Z"/>
          <path class="cls-17" d="M92.8,37.84c.05.37-.92.3-1.33.35l-.13-.35c.48.03.98-.04,1.46,0Z"/>
          <path class="cls-28" d="M60.13,35.76c-.54-.04-1.06.1-1.06-.12.33-.16.92-.24,1.06.12Z"/>
          <path class="cls-38" d="M34.77,33.34c.12.05.46-.13.4.23-.31-.05-1.33.07-.4-.23Z"/>
          <path class="cls-6" d="M64.11,36.11h-.66c.22.02.45-.02.66,0Z"/>
          <path class="cls-67" d="M10.46,90.04c.01.22-.04.49,0,.69.04.21-.1.41.2.58.44-.17.95-.11,1.39-.23,8.2.07,16.13,1.77,24.17,2.88-.41,1.28,3.69,1.06,5.64,1.5.3-.09.15-.46.2-.58.24.17.43.08.66.12,3.53.47,7.15.62,10.69,1.04,4.84.56,9.65,1.5,14.48,2.07,1,.12,1.45,0,1.53,0,2.21.25,4.43.46,6.64.69.03,0-.08.17.53.12-.11.26-.24,1.38-.4,1.56l-.6.17c-22.99-3.17-46-6.22-69.06-8.99l-1.13.12c-.01-.11.02-.23,0-.35-.08-.49.02-1.43,0-2.07l5.05.69Z"/>
          <path class="cls-19" d="M83.11,85.78c-.62,2.55-3.01,6.99-3.45,8.64l-3.05,6.57c-20.7-1.83-44.56-6.09-65.61-8.3-1.18-.24-2.4-.27-3.59-.46-.59-.1-1.2-.15-1.79-.23l-.2-.23,1.13-.12c23.06,2.77,46.07,5.82,69.06,8.99l.6-.17c.16-.18.29-1.3.4-1.56.03-.07.41-.3.53-.63.14-.37-.14-.38-.13-.4.38-1,.76-2.01,1.2-3,2.01-2.78,2.88-6.04,4.12-9.1.26.02.53,0,.8,0Z"/>
          <path class="cls-50" d="M6.61,69.76c.01.26-.04.55,0,.81.04.28-.13.6.2.81.84-.09,1.64-.31,2.46-.46l.46.46c9.78.74,19.19,3.29,28.62,5.53.24.41.68.39,1.06.58.93.46,1.4.35,1,.81-1-.32-7.32-1.58-7.7-1.5-.04,0-.21.16-.2.23-4.19-.98-8.5-1.87-12.75-2.65-1.58-.29-3.2-.43-4.78-.69-2.72-.45-5.53-1.16-8.23-1.27-1.2-.26-2.42-.52-3.59-.86-.12-.21.02-2.25,0-2.71l3.45.92Z"/>
          <path class="cls-35" d="M10.46,76.79c.52.06,1.08.06,1.59.12.71.07,1.42.14,2.12.23.88.12,1.77.23,2.66.35.1.01.6.29,1.93.46,2.63.34,5.27.55,7.9.92.41.06.9.05,1.33.12-.08.76,1.03-.26,1.46,1.27-4.36-.45-8.73-.86-13.08-1.38-.76.76-1.64,1.5-2.32,2.3-.27-.28-.66.56-.73.58-.1.02-1.83-.56-1.93-.58l3.98-2.36c0-.17-2.64-.28-2.92-.29-.84-.03-1.68.02-2.52,0h-2.26c.58-.64,1.11-1.35,1.73-1.96.21.2.77.2,1.06.23Z"/>
          <path class="cls-41" d="M9.4,80.94c.08.01.18-.01.27,0,.58.09,1.15.15,1.73.23.1.01,1.83.6,1.93.58.07-.01.46-.86.73-.58-.16.19-.32.36-.53.52.03.11.36.03.4.06.07.05-.23.17-.07.23,2.23.29,4.44.65,6.64,1.04.04,0,.11.54.66,0,.35.81,3.49.54,4.25.69.52.1,2.26.9,1.13,1.33l.2.17c1.08.17,5.82.49,6.11.58.1.03.07.15.07.23-3.2-.32-10.32-1.34-11.69-1.38-.47-.76-.93,0-1,0-.03,0-.39-.33-.53-.35-1.09-.12-2.84-.2-3.78-.35-.06,0,.36-.13-.93-.35-1.44-.24-2.93-.39-4.38-.58-1.48-.72-3.5-.96-5.18-1.27.03-.36-.02-.73,0-1.09.17-.07.51-.27.53-.29.42.36,2.2.39,3.45.58Z"/>
          <path class="cls-41" d="M5.68,59.27c1.31.58,2.47,1.05,3.85,1.5.16.69,1.38.61.4,1.96h-.13c-.98-.25-2.07-.25-3.05-.46-.83-.18-2.62-.93-3.72-1.04,0-.07-.24-.46-.13-1.33.09-.19,1.88-.71,2.26-.86.03.18.44.19.53.23Z"/>
          <path class="cls-20" d="M15.38,60.31c-.06.02-.21-.02-.27,0-.41-1.88-2.9-.47-5.51.23-1.48-1.38-1.5-2.1-3.92-1.27-.09-.04-.51-.05-.53-.23.68-.27,2.1-.52,2.39-1.15,3.38.44,6.81.62,10.16,1.27v.23c-.81.23-1.55.64-2.32.92Z"/>
          <path class="cls-32" d="M9.93,78.52l-.53,2.42c-1.25-.18-3.03-.22-3.45-.58.49-.65,1.17-1.23,1.73-1.84h2.26Z"/>
          <path class="cls-36" d="M14.98,73.68c-3.82,1.92-1.58,2.14-2.92,3.23-.52-.05-1.07-.06-1.59-.12,1.8-.12,1.14-.73,1.2-.86.1-.26.81-.94,0-1.33.42-.38.83-.78,1.26-1.15-2.05-.36-4.15-.6-6.18-1.04,2.7.1,5.52.81,8.23,1.27Z"/>
          <path class="cls-6" d="M10.46,76.79c-.29-.03-.85-.03-1.06-.23.7-.69,1.52-1.3,2.26-1.96.81.38.1,1.06,0,1.33-.05.13.61.74-1.2.86Z"/>
          <path class="cls-73" d="M91.74,68.61c.23.6-1.02,2.48-1.06,3.34-.9,1.22-1.42,2.61-2.12,3.92-.78,1.45-1.55,2.97-2.66,4.26l.53-8.53c1.08-.81,1.46-.94,2.66-1.5.48-.22.82-.3,1.2-.46.3-.13.77-.15.86-.23.44-.36-.14-1.1.6-.81Z"/>
          <path class="cls-6" d="M93.6,52.36c-.04,2.46.11,4.91.13,7.38-.82.76-2.22,1.15-3.05,1.84.53-.57.09-1.27.13-1.84.1-1.51.51-3.21.53-4.78-.38.46-.9.81-1.33,1.21.11-.19-.44-.35-.46-.35-.24.05-3.15,2.54-3.52,2.88l-.53-.35c.07-.07.19-.28.27-.35.05-.04.38-.19,1.06-.81.12-.11,1.36-.87,2.66-2.07.89,0,2.7-1.87,3.78-2.77.04-.03.3.03.33,0Z"/>
          <path class="cls-7" d="M96.65,48.67c.01.36,0,.73,0,1.09-1.16.73-2.03,1.74-3.05,2.59-.04.03-.29-.03-.33,0-1.09.9-2.9,2.77-3.78,2.77.04-.04.02-.4.53-.86,1.05-.95,1.98-2,3.05-2.94.26-.23.53-.47.8-.69.42-.35,1.09-.68,1.53-1.04.95-.78.9-1.14,1.26-.92Z"/>
          <path class="cls-19" d="M91.07,62.73l-.8-.69s-.02-.09,0-.12c.02-.02.32-.28.4-.35.83-.69,2.24-1.09,3.05-1.84,0,.06.19.79.27,1.09l-2.92,1.9Z"/>
          <path class="cls-6" d="M90.94,73.33c-.18.94-1.01,1.68-1.46,2.54h-.93c.7-1.3,1.23-2.7,2.12-3.92-.02.43.25.71.27,1.38Z"/>
          <path class="cls-20" d="M96.65,48.67c-.36-.22-.31.15-1.26.92-.44.36-1.1.69-1.53,1.04-.01-.11-.14-.21-.27-.23v-.23l2.92-2.42c.01.6.13.82.13.92Z"/>
          <path class="cls-20" d="M91.74,68.61c-.74-.29-.16.45-.6.81-.1.08-.56.1-.86.23.16-.25-.82-.15-1.33-.46,0-.05.25-.22.27-.23.66-.27,1.36-.48,1.99-.81,0,.03.54.29.53.46Z"/>
          <path class="cls-35" d="M73.94,53.39c.03,2.34-2.38.22-4.65,1.38-.03-.17.02-.35,0-.52-5.47-.38-10.97-1.34-16.47-1.79-.56-.95-3.69-.71-4.65-.81-2.35-.25-4.69-.65-7.04-.92-.59-.07-1.35-.22-1.86-.23.14-.1-1.44-.56-1.53-.58-2.4-.45-4.94-.39-7.3-1.04-3.58-.13-7.11-.69-10.69-.81-.76-.02-1.3-.2-2.12-.12-.84-.34-1.78-.25-2.66-.35-1.59-.18-3.19-.39-4.78-.58v-1.5c3.75.51,7.48,1.2,11.22,1.73,6.4.73,12.87,1.19,19.26,1.96,11.08,1.34,22.13,3.15,33.27,4.15Z"/>
          <path class="cls-17" d="M51.63,45.79c2.31.14,6.93.73,9.56,1.04,4.27.49,8.54,1.04,12.75,1.84-.01,0-.12.22-.13.23-.5.39-1.1.73-1.59,1.15-8.91-.95-17.8-1.98-26.69-3,3.54-.89,1.98-1.51,6.11-1.27Z"/>
          <path class="cls-17" d="M40.21,44.41c.09,0,.18,0,.27,0l-3.19,1.61c-3.85-.46-7.7-.79-11.55-1.27l.4-1.96c4.69.53,9.38,1.11,14.08,1.61Z"/>
          <path class="cls-35" d="M51.63,45.79c-4.13-.24-2.57.38-6.11,1.27-1.07-.12-2.13-.34-3.19-.46-.07-.28.72-.41,1.06-.81,1.32-.01,3.8.02,4.25-.58,2.27.1,1.95.44,4.38-1.38.84.46-.59,1.14-.4,1.96Z"/>
          <path class="cls-49" d="M24.67,44.64c-1.78-.24-3.58-.46-5.38-.58-.59-.19-.25-.96-.33-1.73,1.3.02,2.61.29,3.92.23l1.79,2.07Z"/>
          <path class="cls-41" d="M42.87,44.75l-2.12,1.73c-.67-.08-1.39,0-2.06,0-.25-.15-1.2-.44-1.39-.46l3.19-1.61c.8.09,1.59.27,2.39.35Z"/>
          <path class="cls-41" d="M16.04,41.76l-5.31,1.84c-.3.21-.43-.06-1.2-.12l3.85-2.3c2.25.26,2.52.56,2.66.58Z"/>
          <path class="cls-63" d="M24.01,42.56c.71.08,1.42.15,2.12.23l-.4,1.96c-.35-.04-.7-.07-1.06-.12l-1.79-2.07c-1.31.06-2.62-.21-3.92-.23-.3,0-.62-.15-1.33-.12v-.23c2.12.22,4.25.34,6.37.58Z"/>
          <g>
            <path class="cls-66" d="M13.38,41.18l-3.85,2.3c-.9-.07-1.91-.4-2.79-.46,1.16-.82,3.89-.99,4.52-2.07.71.09,1.42.15,2.12.23Z"/>
            <path class="cls-36" d="M11.26,40.95c-.63,1.08-3.36,1.25-4.52,2.07-.62-.05-1.24-.08-1.86-.12,1.69-.43,3.64-1.38,5.31-1.73.23-.05.51-.33,1.06-.23Z"/>
          </g>
          <path class="cls-6" d="M17.63,41.99v.23c-1.08.05-5.34,1.08-6.91,1.38l5.31-1.84c.53.07,1.06.14,1.59.23Z"/>
          <path class="cls-17" d="M43.8,44.87c-.07.19-.36.88-.4.92-.34.4-1.13.53-1.06.81-.51-.06-1.07-.05-1.59-.12l2.12-1.73c.31.03.61.08.93.12Z"/>
          <path class="cls-49" d="M78.33,39.34c2.32.23,7.73.45,5.84.92-6.54-.67-13.11-1.14-19.66-1.73-.75-.07-1.51-.16-2.26-.23v-.69c5.36.61,10.7,1.2,16.07,1.73Z"/>
          <path class="cls-47" d="M62.26,37.61v.69c-.28-.03-.52-.09-.8-.12-1.29-.12-2.54-.38-3.85-.46-.66-.04-1.33-.16-1.99-.12-.09,0-.21-.02-.27,0,.38-.49-.67.04-1.2-.46.26-.2.41-.03.46-.46l5.58.46c.67.24,1.34.38,2.06.46Z"/>
          <path class="cls-17" d="M55.22,41.87c8.02,1.16,16,2.34,24.17,2.3-.49.57-1.13,1.02-1.73,1.5-5.83-.71-11.67-1.32-17.53-1.84-2.39-.22-4.8-.33-7.17-.69,0,0-.21-.05,0-.23.57-.06,1.32-.71,1.59-.81.46-.17.38-.23.4-.23.08-.01.18,0,.27,0Z"/>
          <g>
            <path class="cls-20" d="M35.03,39.22l-1.2.23c-.7-.03-1.48-.26-2.19-.23-.12,0-.01.34-.13.35-1.43.06-2.2-.33-2.39-.35-2.3-.21-1.07.44-2.46.92-2.12-.19-4.25-.31-6.37-.46,1.56-.26,3.05-.77,4.52-1.27,1.68-.57,3.26-1.22,4.85-1.96-.21.68-3.03,1.74-2.39,2.07,2.61.07,5.18.45,7.77.69Z"/>
            <path class="cls-54" d="M47.25,40.6s-.26.01-.66.23c-4.19-.67-8.49-1.18-12.75-1.38l1.2-.23c4.17.39,8.37.66,12.55,1.04.12-.02-.21.26-.33.35Z"/>
            <path class="cls-73" d="M33.84,39.45c4.26.2,8.56.71,12.75,1.38-.79.43-1.57.77-2.39,1.15-5.35-.59-10.7-1.23-16.07-1.73-.48-.04-.98-.07-1.46-.12,1.38-.49.16-1.14,2.46-.92.19.02.96.41,2.39.35.12,0,.01-.34.13-.35.71-.03,1.49.2,2.19.23Z"/>
          </g>
          <path class="cls-51" d="M44.19,41.99s.09.31-.2.46c-3.01.16-5.94-.58-8.9-.92-2.09-.24-7.44-.15-6.97-1.27,5.37.5,10.72,1.14,16.07,1.73Z"/>
          <path class="cls-66" d="M17.37,39.34c-1.09-.07-2.22-.21-3.32-.23,1.61-.04,2.12-.61,2.92-.92-.28.7.32-.03,1.26.35,1.3-.82,2.01-.1,2.12-.12.1-.01,1.35-.34,1.93-.46,1.59-.35,1.65-.26.07.23-1.59.49-3.36.71-4.98,1.15Z"/>
          <path class="cls-27" d="M46.45,45.1c-.88-.06-1.78-.14-2.66-.23-.32-.03-.62-.08-.93-.12-.8-.08-1.59-.26-2.39-.35-.09,0-.18,0-.27,0-.97-1.19,6.08-.04,6.24.69Z"/>
          <path class="cls-38" d="M46.45,45.1c.41.03.78.1,1.2.12-.45.6-2.93.56-4.25.58.03-.04.33-.73.4-.92.88.09,1.78.17,2.66.23Z"/>
          <path class="cls-47" d="M62.26,39.57s.09,0,.13,0c-.23.16,1.45.37,2.32.46,5.99.59,12.01,1,17.99,1.61-.89.73-1.92,1.35-2.79,2.07-4.54-.29-20.53-2.49-23.11-2.42.64-.92,1.8-1.27,2.79-1.84-1.61.98,1.51.85,1.66.81.58-.17.26-.55,1-.69Z"/>
          <path class="cls-7" d="M56.81,41.29c2.58-.07,18.57,2.13,23.11,2.42-.17.14-.26.4-.53.46-8.17.04-16.15-1.15-24.17-2.3.49-.49.93-.56,1.59-.58Z"/>
          <path class="cls-20" d="M84.17,40.26c-.17.34-.69.56-.93.81-5.9-.31-11.77-1.49-17.66-1.84.3-.43-2.65-.22-1.06-.69,6.55.59,13.12,1.06,19.66,1.73Z"/>
          <path class="cls-51" d="M65.58,39.22c5.89.36,11.76,1.53,17.66,1.84-.05.06.23.2.13.29-.17.11-.53.17-.66.29-5.99-.61-12.01-1.02-17.99-1.61-.87-.09-2.56-.3-2.32-.46.69-.04,1.4-.56,1.53-.58.18-.02,1.12.2,1.66.23Z"/>
          <path class="cls-51" d="M77.66,45.67s.04.3-.4.58c-6.02-.7-12.07-1.23-18.06-2.02,0-.15,1,.14.93-.4,5.86.53,11.7,1.13,17.53,1.84Z"/>
          <g>
            <path class="cls-41" d="M60.13,43.83c.07.54-.93.26-.93.4,6,.79,12.05,1.32,18.06,2.02-.85.61-1.71,1.2-2.52,1.84-4.52-.29-9.05-1.23-13.55-1.27-2.63-.3-7.25-.9-9.56-1.04-.19-.82,1.24-1.5.4-1.96.25-.19.84-.6.93-.69,2.37.36,4.78.48,7.17.69Z"/>
            <path class="cls-52" d="M74.74,48.09c-.25.2-.54.38-.8.58-4.2-.8-8.48-1.35-12.75-1.84,4.5.04,9.02.98,13.55,1.27Z"/>
          </g>
          <path class="cls-17" d="M43.13,63.3c4.03.62,8.13.97,12.15,1.61,2.99.47,20.29,3.88,21.38,3.8.44-.03.77-.36.86-.69h.27c-.08.08.27.24-1.39,1.5-.42.11-.82.11-1.26.12-2.21,0-21-3.64-26.69-3.34-.06-.38-.21-.78-.27-1.15-.06-.4.28-.68.07-1.04-1.41.31-2.73-.17-4.12-.23-4.22-.19-2.93.22-3.52.81l-.2-.81-17.86-1.5s-.23-.19-.27-.23c-.04-.05-.39-.79-.8-1.04-.42-.25-.86.06-.8-.35.88.06,2.37-.07,3.05-.58,6.5.87,12.92,2.12,19.39,3.11Z"/>
          <path class="cls-46" d="M39.28,61c0,.08-.04.2.07.23.38.12,5.16.31,6.37.46,2.9.35,5.75,1.09,8.63,1.5,5,.7,10.07,1.13,15.01,2.07.27-.76.7-.58,1.53-.58.14.62.78,1.55,1.33,1.84-7.72-.37-15.21-1.93-22.78-3.11-1.99-.31-4.04-.39-6.04-.69-1.45-.22-2.89-.36-4.32-.69-.93-.57-1.08-.49-2.06-.69l.13-.35c.42.05.88,0,1.26.23.08-.4.19-.33.2-.35-.06.36.29.22.66.12Z"/>
          <path class="cls-50" d="M6.35,56.28s.09,0,.13,0c3.33.29,6.7.31,10.03.69,4.77.54,9.49,1.66,14.21,2.42,1.47-.11,2.69.08,4.32.23.22,1.22.96,1.24,2.12,1.38l-.13.35c-3.11-.64-6.35-.68-9.5-1.15-3.91-1.27-19.45-2.81-20.98-3.34-.29-.1-.15-.44-.46-.46.01,0-.05-.16.27-.12Z"/>
          <path class="cls-46" d="M72.22,66.53c1.92.55,3.43-.06,5.31.58-.03.31.05.74,0,.92-.1.33-.43.66-.86.69-1.09.08-18.39-3.33-21.38-3.8-4.02-.64-8.13-.99-12.15-1.61l.27-.58c2,.3,4.05.38,6.04.69,7.57,1.18,15.06,2.74,22.78,3.11Z"/>
          <g>
            <path class="cls-33" d="M6.35,46.6c.02.15-.01.31,0,.46.06.84-.01,1.7,0,2.54-.61.05-1.73-1.51-2.26-.52-.13.24.37,4.55.13,5.24-1.02-.2-2-.5-3.05-.58.06-2.82-.3-5.78-.13-8.53.9.29,5.19.55,5.44,1.21-.05.05-.15.08-.13.17Z"/>
            <path class="cls-41" d="M6.35,49.59c.02,1.69-.02,3.38,0,5.07-.7-.1-1.43-.21-2.12-.35.23-.69-.26-5.01-.13-5.24.53-.99,1.64.57,2.26.52Z"/>
          </g>
          <path class="cls-18" d="M15.77,60.54c.43.16,1.81,1.35,1.93,1.38.18.06.71-.05,1,0,1.18.2,2.38.25,3.59.23.04.04.23.19.27.23.34.4-.21.63,1.99,1.38-.17-.03-.36.03-.53,0-1.11-.18-2.25-.24-3.32-.58-2.37-.78-4.82-1.17-7.3-1.61.47-.1,1.73-.79,2.26-1.04h.13Z"/>
          <path class="cls-73" d="M18.3,59.5c.92.73,1.17,1.18,2.39,1.27-.06.4.38.09.8.35-2.12-.13-.97.34-1.13.46-.24.19-1.77-.07-1.66.35-.29-.05-.82.06-1,0-.12-.04-1.5-1.22-1.93-1.38.74-.45,1.59-.96,2.52-1.04Z"/>
          <path class="cls-7" d="M23.74,60.19c-.68.51-2.17.64-3.05.58-1.22-.08-1.47-.54-2.39-1.27,1.29-.1,4,.5,5.44.69Z"/>
          <path class="cls-27" d="M15.38,60.31l.27.23c-.53.24-1.79.94-2.26,1.04-.79.16-.88,0-1.59-.12,1.08-.44,2.22-.75,3.32-1.15.06-.02.21.02.27,0Z"/>
          <path class="cls-48" d="M5.55,55.47c.26.02.53-.02.8,0v.81c-.32-.04-.25.12-.27.12-.4-.04-1.71-.25-2.19-.35-.11-.02-.05-.23-.07-.23,1.04-.24.29-.48,1.73-.35Z"/>
          <path class="cls-54" d="M5.55,55.47c-1.43-.14-.69.1-1.73.35-.14-.03-.42-.03-.8-.12-.51-.07-.76-.23-.66-.69,1.04.35,2.81.02,3.19.46Z"/>
          <path class="cls-47" d="M2.36,55.01c-.09.46.15.63.66.69-.07-.02-1.27.19-1.46-.17-.28-.52.31-.59.8-.52Z"/>
          <path class="cls-32" d="M22.28,37.95c-.58.13-1.83.45-1.93.46-.12.01-.83-.7-2.12.12-.94-.37-1.54.36-1.26-.35,2.18-.85,1.86-1.13,5.31-.23Z"/>
          <path class="cls-64" d="M89.48,75.87s.06.21-.4.52c-.07.23.28.12.27.29-.89,1.92-2.15,3.68-3.19,5.53-1.12,1.05-2.51.61-3.98.58.36-.8-1.98-.66-4.38-.92-.04,0-.09,0-.13,0v-.58c1.49.24,5.4.88,6.64.69.8-.12,1.25-1.07,1.59-1.84,1.1-1.3,1.87-2.81,2.66-4.26h.93Z"/>
          <g>
            <path class="cls-7" d="M91.07,74.94c.02.92-.02,1.84,0,2.77.02.8.13,1.2.13,1.27,0,.23,0,.46,0,.69,0,.19,0,.38,0,.58-.9.41-1.91,1.45-2.52,1.15,0-.73.57-3.09.66-4.72,0-.17-.33-.06-.27-.29.46-.31.38-.49.4-.52.45-.86,1.28-1.6,1.46-2.54.01.52.12,1.07.13,1.61Z"/>
            <path class="cls-17" d="M88.68,81.4c0,.37-.13.79,1.53.92.84.07.88-.24,1-.23,0,.04.32.52-.33.69-.51.13-4.01-.02-5.11.46.03-.05.12-.54.4-1.04,1.03-1.85,2.3-3.61,3.19-5.53-.1,1.63-.66,4-.66,4.72Z"/>
            <path class="cls-20" d="M91.21,82.09c-.11-.01-.15.3-1,.23-1.66-.13-1.53-.55-1.53-.92.61.3,1.63-.74,2.52-1.15,0,.57.06,1.31,0,1.84Z"/>
          </g>
          <path class="cls-17" d="M46.72,87.39c6.12.64,17.55,2.21,22.58,2.42.23.46.13,1.09.13,1.61-8.4-1.21-16.9-2.27-25.37-2.82.09,1.11-.32,1.54.46,1.79l24.57,3.11.33-.23c0,.96,0,1.92,0,2.88-7.78-1.1-15.6-1.93-23.44-2.65l-3.25,1.5c-.23-.03-.42.06-.66-.12.03-.05-.03-.19,0-.23.07-.1.18-.24.27-.35.07-.09,1.1-.77,1.59-1.67.07-1.87-.19-3.73.13-5.59.89.1,1.77.25,2.66.35Z"/>
          <path class="cls-17" d="M15.91,83.93c.03.88-.04,1.77,0,2.65.01.3-.05.68,0,.92.03.17-.07.46.07.58,1.37.16,2.75.36,4.12.46.46-.31.43-.66.46-.69.08-.08.51-.43.53-.46l14.87,1.96c.02.88-.03,1.77,0,2.65-6.88-.91-13.71-1.98-20.65-2.54-.72.29-2.82,1.49-3.25,1.61-.44.12-.96.07-1.39.23-.3-.16-.16-.36-.2-.58l4.38-2.59.13-4.55c1.29.21.87.34.93.35Z"/>
          <path class="cls-20" d="M69.43,96.15v1.96c-.08,0-.53.12-1.53,0-4.83-.58-9.63-1.51-14.48-2.07-3.55-.41-7.16-.57-10.69-1.04l3.25-1.5c7.84.72,15.66,1.55,23.44,2.65Z"/>
          <path class="cls-19" d="M35.96,92c0,.33.1.62.13.92.01.12-.49.42.27,1.04-.04,0-.09,0-.13,0-8.04-1.11-15.97-2.82-24.17-2.88.44-.12,2.53-1.33,3.25-1.61,6.94.56,13.77,1.63,20.65,2.54Z"/>
          <g>
            <path class="cls-49" d="M10.59,83.01c-.14,2.32-.27,4.71-.13,7.03l-5.05-.69c-.05-1.86-.13-6.05,0-7.61,1.68.31,3.7.55,5.18,1.27Z"/>
            <path class="cls-20" d="M14.98,83.59l-.13,4.55-4.38,2.59c-.04-.2.01-.47,0-.69-.13-2.32,0-4.71.13-7.03,1.46.18,2.94.34,4.38.58Z"/>
          </g>
          <path class="cls-20" d="M76.6,98.91c-.61.06-.5-.11-.53-.12l.13-.58c.2,0,.76-.13.8-.35,0,.02.27.04.13.4-.12.33-.5.57-.53.63Z"/>
          <path class="cls-73" d="M82.31,85.78c-1.24,3.06-2.1,6.32-4.12,9.1.29-2.24.7-4.46,1.06-6.68.15-.92.25-1.86.53-2.77.82.08,1.71.3,2.52.35Z"/>
          <path class="cls-67" d="M16.17,69.64c1.42.58,2.52,2.51,3.32,2.19.17.13.54.38.73.46,1.36.56,12.83,1.41,18.13,2.65,0,0-.03.13.13.12.91.31,6.1,1.82,6.44,1.84.22.02.22-.06.2-.23,0,.02.08-.12.13.35,0,.06-.21.2-.13.58-1.96-.07-6.67-1.51-6.77-.69-9.43-2.24-18.84-4.79-28.62-5.53l-.46-.46c1.15-.22,2.25-.59,3.39-.81.89-.17,2.8-.25,3.52-.46Z"/>
          <path class="cls-17" d="M32.51,77.02c.68.16,1.58.53,2.26.69,1.65,1.47-.29.42-.13,1.15-2.62-.44-5.22-.94-7.84-1.38-2.78-.47-5.57-.87-8.37-1.27.14-.15.72-1.1.93-1.38.02-.03.38-.23.4-.46,4.25.78,8.55,1.67,12.75,2.65Z"/>
          <g>
            <path class="cls-41" d="M6.74,62.27c-.16,2.48-.25,5.01-.13,7.49l-3.45-.92c-.13-2.56-.3-5.04-.13-7.61,1.1.11,2.88.86,3.72,1.04Z"/>
            <path class="cls-19" d="M9.8,62.73l.13,6.51-3.32,1.33c-.04-.26.01-.54,0-.81-.11-2.48-.03-5.01.13-7.49.98.21,2.07.21,3.05.46Z"/>
            <path class="cls-20" d="M10.86,62.84c-.11.93.09,1.85.13,2.77.02.37-.03.77,0,1.15.02.27-.03.54,0,.81.03.25.09.3.13.58.08.57-.19,1.24.2,1.5.88-.17,1.76-.25,2.66-.35.11-.01.05-.23.07-.23.48-.05,1.01.11,1.46-.12.24.07,1,.45,1.06.46-.34.09-.38.22-.4.23-.72.21-2.63.29-3.52.46-1.14.22-2.24.59-3.39.81-.82.16-1.62.37-2.46.46-.33-.2-.16-.52-.2-.81l3.32-1.33-.13-6.51h.13l.93.12Z"/>
          </g>
          <path class="cls-20" d="M19.76,74.37c-.02.23-.38.44-.4.46.69-1.01-4.65,1.78-5.18,2.3-.7-.09-1.42-.16-2.12-.23,1.34-1.09-.9-1.31,2.92-3.23,1.58.26,3.2.4,4.78.69Z"/>
          <path class="cls-46" d="M39.41,77.48c1.25.36,5.05.89,5.71,1.27.01,0,.12.18.13.23-.04,0-.09,0-.13,0-1.18-.17-1.64-.46-1.86-.06l1.99.63c.05.28.3.62,0,.69-.13-.01-.27.02-.4,0-3.31-1.01-6.72-1.72-10.09-2.54-.68-.16-1.58-.53-2.26-.69,0-.07.16-.22.2-.23.38-.08,6.7,1.18,7.7,1.5.4-.46-.06-.35-1-.81Z"/>
          <path class="cls-50" d="M45.12,77.59l.13.12-.13,1.04c-.66-.37-4.46-.91-5.71-1.27-.39-.19-.82-.16-1.06-.58.11-.81,4.81.62,6.77.69Z"/>
          <path class="cls-17" d="M29.45,80.24c1.05.11,2.14.11,3.19.23.39.04,3.43.35,3.45.52l-1.73,1.79c-6.41-.7-12.81-1.49-19.19-2.3l-1.26,1.27s-.37.06-.4-.06c.21-.16.37-.33.53-.52.69-.81,1.57-1.55,2.32-2.3,4.35.53,8.72.93,13.08,1.38Z"/>
          <path class="cls-36" d="M34.63,78.86c2.68.45,5.35,1.04,8.03,1.5,1.25.2,1.83-.01,1.93,0-.17.51.02.73,0,.81,0,0-.07-.05-.13.12l-.86-.58c-.69.5-.99.45-1.53.46-1.16.03-2.31-.29-3.45,0,.22-.45-.72-.35-1.86-.58-1.49-.3-2.92-.77-4.52-1.04-1.4-.24-2.84-.37-4.25-.58-.43-.06-.92-.06-1.33-.12.38-.47-.23-.33-.13-.98.03-.19.57-.1.27-.4,2.62.44,5.21.95,7.84,1.38Z"/>
          <path class="cls-18" d="M26.8,77.48c.31.3-.24.21-.27.4-.1.65.51.51.13.98-2.63-.37-5.27-.58-7.9-.92-1.33-.17-1.83-.45-1.93-.46.4-.35,1.3-.96,1.59-1.27,2.79.39,5.59.8,8.37,1.27Z"/>
          <path class="cls-63" d="M11.39,81.17c-.57-.08-1.14-.14-1.73-.23,0-.37,1.92-2.12,2.06-2.19.18-.09.82.19.73-.23.28.01,2.93.12,2.92.29l-3.98,2.36Z"/>
          <path class="cls-7" d="M19.36,74.83c-.21.29-.79,1.23-.93,1.38-.29.31-1.19.92-1.59,1.27-.88-.12-1.77-.23-2.66-.35.53-.53,5.87-3.32,5.18-2.3Z"/>
          <path class="cls-32" d="M32.24,79.55l.4.92c-1.05-.12-2.14-.12-3.19-.23-.43-1.53-1.54-.5-1.46-1.27,1.41.2,2.85.34,4.25.58Z"/>
          <path class="cls-22" d="M12.45,78.52c.09.42-.56.14-.73.23-.14.07-2.06,1.82-2.06,2.19-.08-.01-.18.01-.27,0l.53-2.42c.84.02,1.69-.03,2.52,0Z"/>
          <path class="cls-35" d="M34.37,82.78c.53.06,1.06.17,1.59.23.92.1,1.83.43,2.79.35.02.08-.14.16-.13.17.2.21,5.49,1.82,5.84,1.9.48.72,2.33.86,2.26,1.96-.89-.09-1.77-.25-2.66-.35-.53-.06-1.07-.17-1.59-.23-1.66-.18-3.32-.4-4.98-.58-1.02-.11-1.45.12-1.53.12-1.02-.1-2.03-.24-3.05-.35,0-.08.04-.2-.07-.23-.29-.09-5.03-.41-6.11-.58l-.2-.17c1.13-.42-.61-1.22-1.13-1.33-.75-.15-3.9.11-4.25-.69-.55.54-.62,0-.66,0-2.2-.38-4.41-.75-6.64-1.04-.16-.06.13-.18.07-.23l1.26-1.27c6.38.81,12.78,1.61,19.19,2.3Z"/>
          <path class="cls-35" d="M11.79,61.46c.71.11.81.28,1.59.12,2.48.44,4.93.83,7.3,1.61l-.13.46c-1.03-.22-2.46-.02-3.45-.12-2.08-.21-4.15-.51-6.24-.69l-.93-.12c.98-1.35-.24-1.27-.4-1.96.84.27,1.32.54,2.26.69Z"/>
          <path class="cls-6" d="M15.11,60.31c-1.1.4-2.24.72-3.32,1.15-.94-.15-1.41-.42-2.26-.69-1.39-.45-2.54-.92-3.85-1.5,2.42-.84,2.44-.12,3.92,1.27,2.61-.7,5.1-2.11,5.51-.23Z"/>
          <path class="cls-66" d="M89.08,70.1c-1.2.56-1.58.69-2.66,1.5-.03.03-.71.14-.8.35-.17-.28-.8-.42-1.2-.46.13-.3,1.58-.68,2.39-.92.7-.2,1.63-.48,2.26-.46Z"/>
          <path class="cls-64" d="M86.03,58.7c-2.14,1.98-.59,1.07-1.59,2.54-.32.3-.62.62-.93.92-.33.32-.62.73-.93,1.04-.98.95-1.85,1.91-2.79,2.88-.26.27-.53.53-.8.81-.37.39-.81.76-1.2,1.15h-.27c.05-.18-.03-.62,0-.92.05-.56,0-1.16,0-1.73,2.85-2.17,5.35-4.66,7.97-7.03l.53.35Z"/>
          <path class="cls-20" d="M85.76,58c-.07.07-.19.28-.27.35-2.62,2.37-5.12,4.86-7.97,7.03,0,0-.13.04-.13-.12,0-.09-.32-.3,0-.69l2.92-2.36c-.07-.86,0-1.73,0-2.59,1.69-.78,3.44-1.77,5.44-1.61Z"/>
          <path class="cls-17" d="M85.89,56.97c.48.06.57,0,.66,0,.22.02.3-.03.27.23-.69.62-1.01.76-1.06.81-2.01-.16-3.75.83-5.44,1.61,0-.46,0-.92,0-1.38,1.35-.67,1.67-.73-.13-.81-.01-.43.01-.84,0-1.27,1.93.1,3.81.56,5.71.81Z"/>
          <path class="cls-17" d="M90.81,59.73l-3.85-.58c1.05-.96,2.03-2.02,3.05-3,.42-.4.95-.75,1.33-1.21-.02,1.57-.43,3.27-.53,4.78Z"/>
          <path class="cls-20" d="M93.07,51.32c-1.07.94-2,1.99-3.05,2.94-.52.47-.49.83-.53.86-1.3,1.21-2.53,1.96-2.66,2.07.04-.26-.04-.21-.27-.23.26-.42,2.34-1.99,2.39-2.13.18-.53-.14-1.96-.13-2.59,1.34-.17,3.04-1.23,4.25-.92Z"/>
          <path class="cls-42" d="M90.81,59.73c-.04.57.39,1.27-.13,1.84-.08.06-.38.33-.4.35-.95,0,.1-.72-.27-1.15-.28-.33-3.3-.74-3.98-.81.3-.28.63-.53.93-.81l3.85.58Z"/>
          <path class="cls-54" d="M90.01,56.16c-1.02.98-2,2.04-3.05,3-.3.27-.62.52-.93.81-.48.44-1.12.82-1.59,1.27,1.01-1.46-.55-.55,1.59-2.54.37-.34,3.28-2.83,3.52-2.88.03,0,.57.16.46.35Z"/>
          <path class="cls-66" d="M89.48,63.77c-.29.61-.53,1.23-.8,1.84-.08.19-.19.38-.27.58-.32.77-.78,1.54-1.06,2.3l-1.46-.75c.2-.72-.87-1.29-.8-2.13.21-.03.46.03.66,0,3.66-.56,2.15-.56,2.92-1.5.21-.25.43-.42.8-.35Z"/>
          <path class="cls-6" d="M90.28,61.92s.02.09,0,.12l-.27.06c-.05.51-.31,1.2-.53,1.67-.37-.07-.59.09-.8.35-.2-.23-.18-.81-.66-.63.9.9.25.51-1.59.29.08-.62-.31-1.62-1.2-1.61,2.96-.14,4,.16,4.78-1.38.37.44-.68,1.15.27,1.15Z"/>
          <g>
            <path class="cls-7" d="M90.28,62.04l.8.69c-.2.34,0,4.85.13,5.42-.63.33-1.34.53-1.99.81.36-1.12.31-2.37-.53-3.34.27-.61.51-1.24.8-1.84.22-.47.48-1.16.53-1.67l.27-.06Z"/>
            <path class="cls-17" d="M88.95,69.18c.5.31,1.49.21,1.33.46-.37.17-.71.24-1.2.46-.62-.02-1.56.26-2.26.46.16-.6.33-1.52.53-2.07.28-.77.75-1.54,1.06-2.3.86.79-.54,2.34.53,3Z"/>
            <path class="cls-19" d="M89.21,68.95s-.26.18-.27.23c-1.07-.66.33-2.21-.53-3,.08-.19.18-.39.27-.58.84.97.89,2.22.53,3.34Z"/>
          </g>
          <path class="cls-17" d="M93.6,50.4c.12.02.25.12.27.23-.26.22-.54.47-.8.69-1.21-.31-2.91.75-4.25.92,0-.69.13-1.41.13-2.07,1.24.08,3.65.08,4.65.23Z"/>
          <path class="cls-71" d="M92.8,50.17c.27.03.52.11.8.12v.12c-1-.15-3.41-.15-4.65-.23,0-.07-.13-.1-.13-.46,1.32.21,2.66.3,3.98.46Z"/>
          <path class="cls-16" d="M39.28,50.51c.51,0,1.27.16,1.86.23l-.07,4.15c1.28-.45,2.86-1.41,4.12-1.38l24.1,2.65c.04.84-.01,1.69,0,2.54l-27.82-3.11-.33.17v2.48c-.14.57-1.91,1.46-2.52,1.84.01-.11-.14-.12-.13-.23.02-.3,0-.54,0-.81.1-2.87.2-5.72.13-8.58.08-.14.24.05.66.06Z"/>
          <path class="cls-17" d="M69.29,58.7c0,.23,0,.46,0,.69l-4.91.75,4.91.29v1.5c-.35.15-1.26.06-1.66,0-2.82-.41-7.29-1.49-11.42-2.07-4.15-.58-8.39-.8-12.55-1.27-.11-.01-.99-.55-2.06-.46-.09,0-.11.59-.46.12v-2.48l.33-.17,27.82,3.11Z"/>
          <path class="cls-40" d="M69.29,63.54c2.56.36,5.17.57,7.7,1.04.12.02.27-.01.4,0-.32.4,0,.6,0,.69-1.9.14-5.05-.56-6.51-.58-.83,0-1.25-.19-1.53.58-4.94-.94-10.01-1.37-15.01-2.07-2.88-.41-5.74-1.15-8.63-1.5-1.21-.15-5.99-.35-6.37-.46-.1-.03-.07-.15-.07-.23.1-.03.63-.4,1.99-.58,5.96-.78,21.14,2.14,28.02,3.11Z"/>
          <path class="cls-20" d="M69.29,61.92v1.61c-6.88-.97-22.06-3.89-28.02-3.11.58-.7,2.05-.94,2.39-1.84,4.16.47,8.4.68,12.55,1.27,4.13.58,8.6,1.66,11.42,2.07.4.06,1.31.15,1.66,0Z"/>
          <path class="cls-15" d="M69.29,59.39v1.04l-4.91-.29,4.91-.75Z"/>
          <g>
            <path class="cls-6" d="M80.18,54.32c.05.61-.01,1.23,0,1.84.01.43-.01.84,0,1.27.02.97.13.77.13.81,0,.46,0,.92,0,1.38,0,.86-.07,1.73,0,2.59l-2.92,2.36c-.13-.01-.27.02-.4,0,.49-3.56.08-7.18.8-10.72h.13c.58,1.1.73.41,1.46-.46l.4-.23c.28.05.38.93.4,1.15Z"/>
            <path class="cls-17" d="M79.39,53.39c-.73.87-.88,1.56-1.46.46.27-.05.4-.64,1.46-.46Z"/>
            <g>
              <path class="cls-50" d="M77.79,53.86c-.71,3.54-.31,7.16-.8,10.72-2.54-.47-5.14-.68-7.7-1.04v-4.15c0-.23,0-.46,0-.69-.01-.84.04-1.69,0-2.54-.02-.44.06-1,0-1.38,2.27-1.16,4.68.96,4.65-1.38,1.29.12,2.59.22,3.85.46Z"/>
              <path class="cls-6" d="M73.61,59.04c.73-.04.6.73,1.06,1.15l-2.46-.52c-.04-.06,1.32-.63,1.39-.63Z"/>
            </g>
          </g>
          <path class="cls-35" d="M39.28,50.51c-.43,0-.58-.2-.66-.06.07,2.87-.03,5.72-.13,8.58-2.28-.2-4.52-.71-6.77-1.04v-1.04c.14-.91-.13-1.87-.13-2.77,0-.75.16-1.53.13-2.3-.01-.36.08-2.05-.07-2.19-1.35-.12-2.68-.32-4.05-.23-.03,0-.18-.22-.6-.12-.27.07-4.13,1.98-4.85,2.3-.09.04-.17.07-.27.12-.29.07-.44-.14-.66-.12,0-.07.02-.17,0-.23,6.52-2.67,4.06-1.77-1.59-2.77.06-.19.15-.38.13-.58,3.58.12,7.11.68,10.69.81,2.36.65,4.91.59,7.3,1.04.09.02,1.67.47,1.53.58Z"/>
          <g>
            <path class="cls-33" d="M63.45,36.11h.66c.11.01.32.37,2.19.23,6.59,1.02,13.34,1.19,19.99,1.96-.08.06-.99,1.21-1.46,1.44.19.27.44.13.66.17-.16.61-2.84,1.34-1.33,2.07.34.16.91,0,1.33,0,.54-.01,1.17-.09,1.73-.12.88-.05,1.78-.16,2.66-.23.42-.03,2.61-.38,2.79-.17-1.17,1.11-2.52,2.09-3.72,3.17-2.42-.04-4.89-.25-7.3-.23-.55,0-1.11,0-1.66,0-.46.99-2.83,1.63-1.13,1.96.13.03.86.1,1.06.12.61.04,1.25,0,1.86,0,.4,0,.8,0,1.2,0,1.48-.03,2.94.01,4.38-.35-.58.52-3.28,3.27-3.72,3.34-2.11-.28-4.27-.14-6.37-.23-1.14-.05-2.31-.26-3.45-.35.01,0,.12-.22.13-.23.25-.2.54-.37.8-.58.81-.65,1.68-1.24,2.52-1.84.44-.28.37-.55.4-.58.6-.48,1.23-.93,1.73-1.5.27-.06.36-.32.53-.46.87-.72,1.9-1.34,2.79-2.07.14-.11.49-.18.66-.29.1-.09-.19-.23-.13-.29.24-.24.76-.47.93-.81,1.88-.48-3.53-.69-5.84-.92-.59-.28-.78-.72-1.39-1.27-4.89-.23-9.78-.92-14.61-1.61l.33-.35c.26.03.54-.03.8,0Z"/>
            <path class="cls-6" d="M96.52,39.22c.08,1.12,0,2.33,0,3.46,0,1.7-.03,3.37,0,5.07l-2.92,2.42c.38-2.51.1-6.18.4-8.41.17-1.3.49-1.33,1.59-2.19.38-.29.64-.81.93-.35Z"/>
            <path class="cls-33" d="M91.47,38.18c.4-.04,1.38.03,1.33-.35.62.05,3.19.31,3.45.46-.67.59-1.29,1.29-1.99,1.84-.2.16-.45.31-.66.46-1.36-.21-2.75-.23-4.12-.35-.44-.04-.88-.08-1.33-.12-.86-.08-1.82-.07-2.66-.23-.23-.05-.48.1-.66-.17.48-.23,1.38-1.38,1.46-1.44.13-.1.37-.14.53-.23.26-.14.73-.58.4-.06,1.33.4,2.83.32,4.25.17Z"/>
            <path class="cls-41" d="M91.34,37.84l.13.35c-1.42.14-2.92.23-4.25-.17.33-.52-.14-.08-.4.06-.18-.82,2.32-.35,4.52-.23Z"/>
            <path class="cls-7" d="M96.52,39.22c-.29-.47-.55.05-.93.35-.78-.14-1.14.89-1.33.58.7-.55,1.32-1.26,1.99-1.84.08.05.2-.2.27-.06.02.33-.02.66,0,.98Z"/>
            <path class="cls-7" d="M95.59,39.57c-1.1.86-1.42.89-1.59,2.19l-5.31,4.78c.17.74.15,1.5.13,2.25,0,.31,0,.61,0,.92,0,.36.13.39.13.46,0,.67-.13,1.39-.13,2.07,0,.63.31,2.07.13,2.59-.05.14-2.13,1.71-2.39,2.13-.09,0-.18.06-.66,0l.07-8.07-5.78,5.42c-.02-.23-.12-1.1-.4-1.15.09-.29.79-.93,1.06-1.15.66-.53,1.24-1.06,1.86-1.61.18-.16.5-.3.66-.46.16-.16.14-.29.27-.46.43-.07,3.14-2.83,3.72-3.34.2-.17.34-.41.53-.58.35-.31.71-.61,1.06-.92,1.2-1.08,2.55-2.06,3.72-3.17-.18-.21-2.37.14-2.79.17.09-.27,2.31-.55,3.12-.46.7-.3.56-.55.6-.58.22-.15.46-.3.66-.46.19.31.55-.72,1.33-.58Z"/>
            <path class="cls-35" d="M77.26,49.25l-4.52,2.19c-.68.04-1.32.06-1.99-.06-.15-.16,1.29-1.18,1.46-1.33.5-.42,1.09-.76,1.59-1.15,1.14.09,2.31.3,3.45.35Z"/>
            <path class="cls-7" d="M83.64,49.48c-.12.18-.1.3-.27.46-3.26-.52-7.82,1.26-10.23,1.5-.13.01-.27,0-.4,0l4.52-2.19c2.11.09,4.27-.05,6.37.23Z"/>
            <path class="cls-35" d="M82.71,50.4c-.62.55-1.2,1.09-1.86,1.61-1.64-.07-3.28-.23-4.91-.35-.13-.79,2.05-.58,2.72-.69,1.3-.21,2.75-.78,4.05-.58Z"/>
            <path class="cls-32" d="M83.37,49.94c-.16.16-.49.3-.66.46-1.3-.2-2.75.37-4.05.58-.67.11-2.85-.1-2.72.69-.92-.06-1.88-.09-2.79-.23,2.41-.24,6.96-2.02,10.23-1.5Z"/>
            <path class="cls-6" d="M93.6,40.6s.11.27-.6.58c-.81-.09-3.03.19-3.12.46-.88.07-1.78.18-2.66.23l2.26-1.61c1.37.11,2.76.13,4.12.35Z"/>
            <path class="cls-35" d="M88.15,40.14c-.2.31-.63.39-.93.58-.84-.61-2.55.51-3.05,1.27-1.51-.73,1.17-1.46,1.33-2.07.83.17,1.79.15,2.66.23Z"/>
            <path class="cls-28" d="M89.48,40.26l-2.26,1.61c-.55.03-1.19.1-1.73.12.36-.38,1.24-.96,1.73-1.27.3-.19.73-.27.93-.58.44.04.88.08,1.33.12Z"/>
            <g>
              <path class="cls-32" d="M88.95,44.64c-.35.32-.71.61-1.06.92-.24,0-.06-.31-.2-.35-.24-.06-4.12,1.11-4.71,1.27-.4,0-.8,0-1.2,0,.68-.74,2.46-1.06,3.45-1.67-2.55-.45-3.38.51-5.31,1.67-.2-.01-.93-.09-1.06-.12.91-.58,2.27-1.08,2.79-1.96,2.41-.02,4.89.19,7.3.23Z"/>
              <path class="cls-38" d="M81.78,46.48c-.61,0-1.25.04-1.86,0,1.93-1.16,2.76-2.12,5.31-1.67-.99.61-2.77.93-3.45,1.67Z"/>
              <path class="cls-35" d="M81.65,44.41c-.52.88-1.88,1.38-2.79,1.96-1.7-.33.67-.97,1.13-1.96.55,0,1.11,0,1.66,0Z"/>
              <path class="cls-66" d="M87.89,45.56c-.19.17-.34.4-.53.58-1.45.36-2.9.32-4.38.35.59-.16,4.48-1.32,4.71-1.27.14.03-.04.34.2.35Z"/>
            </g>
            <path class="cls-35" d="M87.22,40.72c-.49.31-1.37.89-1.73,1.27-.42,0-.99.16-1.33,0,.5-.76,2.22-1.88,3.05-1.27Z"/>
            <path class="cls-73" d="M85.89,56.97c-1.91-.24-3.78-.71-5.71-.81-.01-.61.05-1.24,0-1.84l5.78-5.42-.07,8.07Z"/>
            <g>
              <path class="cls-73" d="M93.6,50.17v.12c-.28-.01-.52-.08-.8-.12,2.37-.58-2.75-1.27-3.98-1.38.02-.75.04-1.5-.13-2.25l5.31-4.78c-.3,2.23-.02,5.9-.4,8.41Z"/>
              <path class="cls-17" d="M92.8,50.17c-1.33-.16-2.66-.26-3.98-.46,0-.31,0-.62,0-.92,1.23.11,6.35.8,3.98,1.38Z"/>
            </g>
          </g>
          <path class="cls-31" d="M80.32,58.23s-.11.17-.13-.81c1.8.08,1.48.14.13.81Z"/>
          <path class="cls-17" d="M62.26,38.3c.75.07,1.51.16,2.26.23-1.59.47,1.37.26,1.06.69-.54-.03-1.48-.25-1.66-.23-.13.01-.84.54-1.53.58-.04,0-.09,0-.13,0-.36,0-1.51-.33-2.12-.35.01,0,.12-.22.13-.23.41-.25.91-.43,1.2-.81.28.03.52.09.8.12Z"/>
          <path class="cls-33" d="M60.13,39.22c.62.01,1.76.35,2.12.35-.73.14-.42.52-1,.69-.15.04-3.27.18-1.66-.81.31-.18.51-.22.53-.23Z"/>
          <g>
            <path class="cls-33" d="M52.3,38.76s-.18.11.8.12c1.02,0,2.04,0,3.05,0,.35,0,.71,0,1.06,0,1,0,2.07-.1,3.05.12-.01,0-.12.22-.13.23-.02.01-.22.05-.53.23-.99.57-2.15.93-2.79,1.84-.66.02-1.1.08-1.59.58-.09,0-.19-.01-.27,0,1.04-.39-3.21-1.02-3.59-.58-.44-.13-.92-.26-1.33-.46,1-.52-.62.11-1.99-.63l2.99-1.56c.48-.08.88.11,1.26.12Z"/>
            <path class="cls-69" d="M51.37,41.29c.42.12,1.27.27.93.46-1.07.01-4.11.42-5.44.58-.17-.02-.36.02-.53,0,1.04-.45,2.78-1.01,3.72-1.5.4.21.89.33,1.33.46Z"/>
            <path class="cls-41" d="M55.35,37.61c-.13.04-1.82,1.1-2.26,1.27-.98,0-.76-.11-.8-.12.43-.38,1.5-1.34,1.86-1.61.52.51,1.58-.03,1.2.46Z"/>
            <path class="cls-35" d="M52.3,41.76c.67,0,1.72.08,2.26.35-.27.1-1.02.75-1.59.81-.56.06-5.03-.47-6.11-.58,1.33-.15,4.37-.56,5.44-.58Z"/>
            <path class="cls-66" d="M61.46,38.18c-.29.38-.79.56-1.2.81-.99-.21-2.05-.11-3.05-.12.89-.94,2.03.34.4-1.15,1.31.08,2.56.34,3.85.46Z"/>
            <path class="cls-18" d="M55.62,37.61c.26.51,1.75,1.03.53,1.27-1.02,0-2.04,0-3.05,0,.44-.17,2.13-1.23,2.26-1.27.06-.02.18,0,.27,0Z"/>
            <path class="cls-38" d="M57.61,37.72c1.63,1.5.49.21-.4,1.15-.35,0-.71,0-1.06,0,1.22-.23-.27-.76-.53-1.27.66-.04,1.33.08,1.99.12Z"/>
            <path class="cls-32" d="M54.95,41.87s.06.06-.4.23c-.54-.26-1.58-.35-2.26-.35.34-.19-.51-.34-.93-.46.38-.44,4.63.19,3.59.58Z"/>
          </g>
          <path class="cls-38" d="M40.61,64.69c-.05.05-.05.06-.13.12-.2.13-2.76.8-3.12.81-.65,0-11.17-1.58-12.82-1.84-2.2-.75-1.65-.99-1.99-1.38l17.86,1.5.2.81Z"/>
          <path class="cls-36" d="M75.14,69.64l-.27.35c-.22-.01-.44.01-.66,0-4.27-.27-8.48-1.05-12.75-1.27-.01,0,.05-.16-.27-.12-.62.07-.85-.1-.93-.12-.7-.1-1.42-.14-2.12-.23-3.03-.41-6.12-.69-9.16-1.04-.54-.06-.38-.11-.4-.12-.06-.27-.09-.54-.13-.81,5.69-.3,24.48,3.34,26.69,3.34Z"/>
          <path class="cls-7" d="M82.18,67.8l-2.92,2.3c-1.45.07-2.94-.04-4.38-.12l.27-.35c.44,0,.84,0,1.26-.12,1.67-1.26,1.32-1.42,1.39-1.5.39-.4.82-.77,1.2-1.15,1.09.18,3.02.89,3.19.92Z"/>
          <path class="cls-38" d="M48.18,65.15l-2.52.69c-.85-1.11-.58-.74-1.86-.35-.05-.61-2.05-.36-2.92-.35-.08-.07-.38-.17-.4-.35.08-.05.08-.06.13-.12.59-.59-.7-1,3.52-.81,1.39.06,2.71.54,4.12.23.22.35-.12.64-.07,1.04Z"/>
          <path class="cls-63" d="M48.18,65.15c.05.37.2.77.27,1.15.05.27.08.54.13.81-.8-.09-1.6-.25-2.39-.35-.06-.35-.31-.64-.53-.92l2.52-.69Z"/>
          <path class="cls-7" d="M21.48,61.12c.41.25.75.99.8,1.04-1.2.02-2.4-.03-3.59-.23-.11-.41,1.42-.16,1.66-.35.16-.12-.99-.59,1.13-.46Z"/>
          <path class="cls-46" d="M77.4,65.26c0,.15.13.11.13.12,0,.57.05,1.17,0,1.73-1.88-.64-3.39-.03-5.31-.58-.55-.3-1.19-1.23-1.33-1.84,1.46.01,4.61.71,6.51.58Z"/>
          <path class="cls-17" d="M43.66,58.58c-.34.91-1.81,1.15-2.39,1.84-1.36.18-1.89.55-1.99.58-.37.1-.72.25-.66-.12.05-.14-.03-.52,0-.81.61-.38,2.38-1.27,2.52-1.84.36.48.37-.11.46-.12,1.06-.09,1.95.45,2.06.46Z"/>
          <path class="cls-50" d="M38.48,59.85c0,.11.14.12.13.23-.03.28.05.66,0,.81,0,.02-.12-.05-.2.35-.38-.23-.84-.18-1.26-.23-1.17-.15-1.9-.16-2.12-1.38,1.15.11,2.28.34,3.45.23Z"/>
          <path class="cls-67" d="M9.8,55.58c7.48-.45,10.91.89,16.93,1.84,1.64.26,3.36.34,4.98.58,2.26.33,4.49.83,6.77,1.04,0,.27.02.5,0,.81-1.18.11-2.3-.12-3.45-.23-1.62-.15-2.84-.34-4.32-.23-4.72-.76-9.44-1.88-14.21-2.42-3.33-.38-6.7-.4-10.03-.69,1.04-.46,2.23-.43,3.32-.69Z"/>
          <g>
            <path class="cls-19" d="M14.98,47.63c.87.1,1.82,0,2.66.35-.88.09-2.27.65-3.32.81-.08.01-.11-.07-1.59.12-.31.04-.62.08-.93.12-.65.08-1.37-.17-1.99.17v4.84l-3.45,1.21v-.58c-.02-1.69.02-3.38,0-5.07-.01-.84.06-1.7,0-2.54l3.25.35.27,1.5c2.02-1.1,5.52-.71,5.11-1.27Z"/>
            <path class="cls-17" d="M14.31,48.79c-.59,1.06-.11,3.5-.27,5.07-.21.58-3.51,1.55-4.25,1.73-1.09.26-2.28.23-3.32.69-.04,0-.09,0-.13,0v-1.04l3.45-1.21v-4.84c.62-.34,1.34-.09,1.99-.17-.14.63-.25,4.57-.13,4.78.08.15.95.32,1,.29.23-.16-.04-4.56.07-5.19,1.48-.18,1.51-.1,1.59-.12Z"/>
            <path class="cls-17" d="M10.2,47.06c1.59.19,3.19.4,4.78.58.4.55-3.09.17-5.11,1.27l-.27-1.5-3.25-.35c-.01-.15.02-.32,0-.46,1.3.08,2.57.31,3.85.46Z"/>
            <path class="cls-20" d="M12.72,48.9c-.11.62.17,5.02-.07,5.19-.05.03-.91-.14-1-.29-.12-.22,0-4.15.13-4.78.31-.04.62-.08.93-.12Z"/>
          </g>
          <path class="cls-19" d="M25.07,53.39c-.04.69.32,1.32.53,1.96-.46.34-4.1-.27-3.32.63.18.2,3.1.23,3.59.29,1.95.22,3.87.64,5.84.69v1.04c-1.62-.23-3.34-.32-4.98-.58-6.02-.95-9.45-2.3-16.93-1.84.74-.18,4.04-1.14,4.25-1.73.79.34,3.36.64,3.72.35.18.04.1.21.33.35.53.04,1.14-.06,1.66,0,.06,1.09-.95,1.02-.6,1.15,1.83-.43,4.56-.02,3.92-.81.47-.06,1.67-.97,1.73-1.5h.27Z"/>
          <path class="cls-35" d="M24.01,63.77c.05.24-.2.25-.07.35.87.6,11.44,1.41,13.55,2.07.82.04,3.98.09,4.18.12.04,0,.09,0,.13,0,1.46.17,2.93.29,4.38.46.79.09,1.59.25,2.39.35.02,0-.14.05.4.12.04.14-.31.12-.27.17.1.12.38-.04.4.17-.43-.04-2.16-.31-2.32-.23-.4.2.68.64.2,1.04-.05-.02-1.04-.11-1.2-.12-.9-.51-2.7-.27-3.65-1.15-1.05.2-2.14-.04-3.19-.12-.03,0-.44.23-.46.23-2.84-.24-7.79-1.06-11.02-1.5-1.37-.19-2.74-.39-4.12-.58.12-.35-1.26-.34-1.39-.46-.21-.18.17-.7-1.39-1.04l.13-.46c1.07.33,2.21.39,3.32.58Z"/>
          <path class="cls-32" d="M24.54,63.77c1.64.27,12.17,1.85,12.82,1.84.36,0,2.92-.68,3.12-.81.02.18.31.27.4.35.39.34.98.75.8,1.15-.21-.02-3.36-.08-4.18-.12-2.1-.66-12.68-1.48-13.55-2.07-.14-.09.12-.1.07-.35.17.03.36-.03.53,0Z"/>
          <g>
            <path class="cls-63" d="M86.43,71.6l-.53,8.53c-.34.77-.8,1.72-1.59,1.84.19-3.36.61-6.72,1.33-10.03.08-.21.76-.32.8-.35Z"/>
            <path class="cls-46" d="M77.79,71.26c1.99.1,4.76.06,6.64.23.39.04,1.02.18,1.2.46-.72,3.31-1.14,6.66-1.33,10.03-1.24.19-5.15-.45-6.64-.69v-3.23c0-1.11,0-2.23,0-3.34,0-.23,0-.46,0-.69,0-.19,0-.38,0-.58,0-.66.1-1.46-.13-2.07.01,0-.07-.13.27-.12Z"/>
          </g>
          <path class="cls-17" d="M71.95,79.09c1.92.63,3.78,1.35,5.71,1.96v.81c-3.62-.39-7.1-.69-10.76-.69,1.05-.84,2.13-1.7,3.05-2.65.71.06,1.34.36,1.99.58Z"/>
          <path class="cls-64" d="M82.18,82.78c-1.46-.04-2.92-.14-4.38-.23v-.69c2.4.26,4.74.13,4.38.92Z"/>
          <path class="cls-42" d="M69.43,91.42c0,.61,0,1.23,0,1.84l-.33.23-24.57-3.11c-.79-.25-.37-.67-.46-1.79,8.47.55,16.97,1.61,25.37,2.82Z"/>
          <path class="cls-32" d="M53.23,86.58c5.19.66,10.4,1.39,15.67,1.38.79,0,2.03.07,2.66,0,2.86-.05,2.44.42,2.59.46.87.25,2.18.07,3.19.46.12.05.05.22.07.23-.27.15-.64.39-.66.69-.19.12-.32.03-.66,0-2.17-.21-4.39-.15-6.57-.23-.09,0-.18.23-.2.23-5.03-.21-16.46-1.78-22.58-2.42.07-1.1-1.78-1.24-2.26-1.96,2.83.67,5.86.78,8.77,1.15Z"/>
          <g>
            <path class="cls-63" d="M42.07,94.65s.03.18,0,.23c-.05.11.11.48-.2.58-1.95-.44-6.05-.22-5.64-1.5.04,0,.09,0,.13,0,1.9.26,3.81.43,5.71.69Z"/>
            <path class="cls-20" d="M44.06,87.04c-.33,1.86-.06,3.72-.13,5.59-.5.91-1.52,1.58-1.59,1.67v-.58l.13-6.91c.52.06,1.06.17,1.59.23Z"/>
            <path class="cls-52" d="M42.34,93.73v.58c-.08.1-.2.24-.27.35-1.9-.27-3.81-.43-5.71-.69-.76-.61-.25-.92-.27-1.04l6.24.81Z"/>
            <path class="cls-46" d="M42.47,86.81l-.13,6.91-6.24-.81c-.03-.3-.12-.59-.13-.92-.03-.88.02-1.77,0-2.65v-3c.08,0,.51-.22,1.53-.12,1.66.17,3.32.4,4.98.58Z"/>
          </g>
          <g>
            <path class="cls-17" d="M21.22,84.62c1.37.04,8.49,1.06,11.69,1.38,1.02.1,2.04.24,3.05.35v1.38c-5.32-.61-10.56-1.91-15.94-2.07.48-.56-.37-1.08,1.2-1.04Z"/>
            <path class="cls-42" d="M35.96,87.73v1.61l-14.87-1.96c.85-1.36.44-.67-1.2-1.61,0,0,.13-.11.13-.12,5.37.16,10.62,1.46,15.94,2.07Z"/>
          </g>
          <path class="cls-17" d="M50.17,81.51c1.19.27,2.41.53,3.59.81,1.77.42,6.8,1.96,7.97,2.07,1.45.14,1.02-.67,2.26-.81,1.47.06,2.92.32,4.38.46,2.97.3,5.93.7,8.9,1.04-.97,1.23-1.89,2.09-3.05.46.46-.81-.65-.59-2.72-.92-.15.03-2.1,1.71-2.19,1.84-5.64-.5-11.24-1.26-16.87-1.84-3.1-.32-6.2-.7-9.3-1.04.33-.72,1.06-1.64,1.33-2.3.07-.16.13-.11.13-.12,1.84-.01,5.13.9,5.58.35Z"/>
          <g>
            <path class="cls-63" d="M77.79,83.36s-.22.21.66.23c.08.12-.27.37-.07.46.41.18,5.83-.2,6.84.12-.33.61-.31,1.38-1.13,1.73-.37.06-.64-.11-1-.12-.26,0-.53.02-.8,0-.81-.05-1.7-.26-2.52-.35-.85-.08-1.68-.25-2.52-.35-2.97-.34-5.93-.74-8.9-1.04.68-.2.26-.57.46-.69.22-.14,4.3.19,5.25-.12,1.24.04,2.48.08,3.72.12Z"/>
            <path class="cls-42" d="M77.66,81.86s.09,0,.13,0v1.5c-1.24-.04-2.48-.07-3.72-.12-3.24-.11-6.46-.16-9.69-.12.81-.69,1.7-1.29,2.52-1.96,3.66,0,7.14.31,10.76.69Z"/>
            <path class="cls-66" d="M86.16,82.2c-.28.5-.37.99-.4,1.04-.04.07-.09.15-.13.23-2.4-.08-4.77.18-7.17.12-.89-.02-.62-.23-.66-.23v-.81c1.46.09,2.92.19,4.38.23,1.47.04,2.87.48,3.98-.58Z"/>
            <path class="cls-6" d="M85.63,83.47c-.13.23-.27.46-.4.69-1-.32-6.43.07-6.84-.12-.2-.09.15-.34.07-.46,2.4.07,4.77-.2,7.17-.12Z"/>
            <path class="cls-36" d="M74.08,83.24c-.95.3-5.02-.02-5.25.12-.2.12.21.49-.46.69-1.46-.15-2.91-.4-4.38-.46.06-.23.23-.32.4-.46,3.24-.05,6.46,0,9.69.12Z"/>
          </g>
          <g>
            <path class="cls-52" d="M75.93,98.11s-.08.12.27.12l-.13.58c-2.21-.24-4.43-.44-6.64-.69v-.69c2.18.1,4.33.58,6.51.69Z"/>
            <path class="cls-6" d="M79.25,88.2c-.36,2.23-.77,4.45-1.06,6.68-.44.98-.82,1.99-1.2,3-.04.21-.6.34-.8.35-.34,0-.25-.11-.27-.12l.13-8.3c.34.03.47.12.66,0-.01.17.44,1.01.66.92.81-.52.37-1.83,1.2-2.42.03,0,.56-.06.66-.12Z"/>
            <path class="cls-63" d="M76.07,89.81l-.13,8.3c-2.18-.11-4.33-.59-6.51-.69v-1.27c0-.96,0-1.92,0-2.88,0-.61,0-1.23,0-1.84,0-.52.1-1.15-.13-1.61.02,0,.11-.23.2-.23,2.18.08,4.4.03,6.57.23Z"/>
            <path class="cls-38" d="M79.79,85.43c-.28.9-.38,1.84-.53,2.77-.1.05-.63.12-.66.12-2.23-.24-2.9-1.95-3.72-1.27-.33-.38-.86-.67-.93-1.04.02-.02.22-.38.27-.46,1.17,1.62,2.09.77,3.05-.46.84.1,1.67.26,2.52.35Z"/>
            <path class="cls-6" d="M78.59,88.31c-.82.59-.38,1.9-1.2,2.42l.4-1.67c-.15-.19-.32.1-.4.06-.02,0,.06-.18-.07-.23-1-.4-2.32-.21-3.19-.46-.15-.04.27-.51-2.59-.46.09,0,.18.01.27,0,.46-.06,2.32-.82,2.46-.81.12.02,2.06,1.57.6-.12.82-.69,1.48,1.03,3.72,1.27Z"/>
            <path class="cls-17" d="M77.4,90.73c-.22.09-.68-.75-.66-.92.02-.3.4-.54.66-.69.08.04.25-.25.4-.06l-.4,1.67Z"/>
          </g>
          <path class="cls-20" d="M63.19,71.14c-6.01,2.12-11.92,4.45-17.93,6.57l-.13-.12c-.08-.38.14-.52.13-.58,2.48-1.14,1.78-1.18,1.86-3.34,4.77-2.22,9.33-3.26,14.81-2.88.33.02,1.37.1,1.26.35Z"/>
          <path class="cls-19" d="M38.35,74.94c-5.3-1.24-16.77-2.09-18.13-2.65-.19-.08-.56-.33-.73-.46-.48-.39-.83-1.3-1.06-1.84,2.45.68,5.03,1.57,7.5,2.07,1.65.34,11.89,1.47,12.35,1.84.16.13.02.8.07,1.04Z"/>
          <g>
            <path class="cls-49" d="M45.79,68.26c-.32,0-.39-.27-.66.06.12,2.77-.17,5.58,0,8.35.02.17.02.25-.2.23-.34-.03-5.53-1.54-6.44-1.84v-7.84s.44-.23.46-.23c1.05.08,2.14.32,3.19.12.95.88,2.76.64,3.65,1.15Z"/>
            <path class="cls-6" d="M45.79,68.26c.16,0,1.14.09,1.2.12.03.01.15-.02.13.12-.05,1.73.06,3.46,0,5.19-.08,2.16.63,2.2-1.86,3.34-.05-.47-.13-.33-.13-.35-.17-2.77.12-5.58,0-8.35.27-.32.35-.06.66-.06Z"/>
          </g>
          <path class="cls-64" d="M18.43,69.99c.23.54.59,1.46,1.06,1.84-.8.32-1.9-1.61-3.32-2.19.02,0,.06-.14.4-.23.67.16,1.23.4,1.86.58Z"/>
          <path class="cls-17" d="M44.86,80.24s.05.16-.27.12c-.09-.01-.68.2-1.93,0-2.68-.45-5.36-1.05-8.03-1.5-.16-.73,1.78.32.13-1.15,3.37.81,6.78,1.53,10.09,2.54Z"/>
          <g>
            <path class="cls-19" d="M17.63,64.11c1.71.35,3.45.68,5.18.92-.23.37-.79.51-1.2.69-2.14.96-4.3,1.31-6.24,2.07-.26.1-.38.11-.4.12-.39-.76-2.17.33-3.85.23-.04-.28-.11-.33-.13-.58,1.43-.52,10.09-1.73,10.56-1.96.12-.06.05-.19.07-.29l-2.19-.4c-.12,0,0,.33-.13.35-2.79.28-5.54.91-8.3,1.5-.03-.39.02-.78,0-1.15l5.25-1.5h1.39Z"/>
            <path class="cls-7" d="M10.99,67.57c-.03-.26.02-.54,0-.81,2.76-.59,5.51-1.22,8.3-1.5.12-.01,0-.34.13-.35l2.19.4c-.01.09.05.23-.07.29-.47.23-9.13,1.44-10.56,1.96Z"/>
            <path class="cls-19" d="M14.98,67.91c-.69.32-1.16.3-.93,1.15-.01,0,.04.22-.07.23-.89.09-1.78.18-2.66.35-.39-.25-.12-.93-.2-1.5,1.68.1,3.46-.99,3.85-.23Z"/>
          </g>
          <path class="cls-1" d="M15.77,68.26l-.27.69c-.45.23-.98.06-1.46.12-.23-.85.24-.84.93-1.15.02,0,.14-.01.4-.12.52.28.37.45.4.46Z"/>
          <path class="cls-64" d="M67.17,70.33c.44.04.89.07,1.33.12-.15.35-1.74.67-2.79,1.04-2.47.86-4.89,1.91-7.3,2.88-.79.32-2.29.87-2.26,1.15-.26-.18-.58,0-1,.12-.68.18-7.08,2.95-8.17,3.69-.58-.09-1.14-.26-1.73-.35-.01-.05-.12-.22-.13-.23l.13-1.04c6.01-2.12,11.92-4.45,17.93-6.57.8-.28,1.66-.5,2.39-.92.52.05,1.06.07,1.59.12Z"/>
          <path class="cls-67" d="M46.98,79.32c.27.04.52.07.8.12,2.19.38,4.33.89,6.51,1.27l-.53,1.61c-1.18-.28-2.4-.54-3.59-.81-1.64-.37-3.33-.73-4.91-1.27.3-.07.05-.41,0-.69-.04-.2.07-.36-.13-.58.04,0,.09,0,.13,0,.58.08,1.15.25,1.73.35Z"/>
          <path class="cls-38" d="M45.26,80.24c1.58.54,3.27.9,4.91,1.27-.44.56-3.74-.36-5.58-.35.02-.07-.17-.29,0-.81.31.05.25-.12.27-.12.13.02.27-.01.4,0Z"/>
          <path class="cls-50" d="M45.12,78.98c.2.21.1.38.13.58l-1.99-.63c.22-.4.68-.11,1.86.06Z"/>
          <path class="cls-66" d="M36.76,80.59l-.8,2.42c-.53-.06-1.07-.17-1.59-.23l1.73-1.79c-.03-.16-3.06-.47-3.45-.52l-.4-.92c1.59.27,3.03.74,4.52,1.04Z"/>
          <path class="cls-7" d="M38.62,81.17c.03.47-.36,1.96-.2,1.96l3.65-1.96c.53-.01.84.04,1.53-.46l.86.58c-.27.67-1,1.59-1.33,2.3-1.45-.16-2.93-.05-4.38-.23-.96.08-1.87-.25-2.79-.35l.8-2.42c1.14.23,2.08.13,1.86.58Z"/>
          <path class="cls-17" d="M42.07,81.17l-3.65,1.96c-.16,0,.23-1.49.2-1.96,1.15-.29,2.3.03,3.45,0Z"/>
          <path class="cls-18" d="M43.13,83.59c3.1.33,6.19.71,9.3,1.04-.46.75.24,1.44.8,1.96-2.9-.37-5.94-.48-8.77-1.15-.35-.08-5.64-1.69-5.84-1.9,0,0,.16-.09.13-.17,1.45.18,2.93.07,4.38.23Z"/>
          <path class="cls-41" d="M20.56,63.65c1.57.34,1.19.85,1.39,1.04.13.12,1.51.11,1.39.46-.05,0-.16-.06-.53-.12-1.73-.24-3.47-.57-5.18-.92-.39-.37-.81-.31-.53-.58.99.1,2.42-.11,3.45.12Z"/>
          <path class="cls-6" d="M87.36,68.49c-.2.55-.37,1.47-.53,2.07-.81.24-2.26.63-2.39.92-1.88-.17-4.65-.14-6.64-.23-1.11-.97-3.72-.58-3.59-1.27.22.01.44-.01.66,0,1.45.08,2.93.18,4.38.12.06,0,.29.31,1.13,0,.15-.06,2.05-1.42,2.66-1.73.21-.04.34.23.4.23,3.41-.11,4.77.14,1.39-.46-.2-.84-.84-1.53-.66-2.42.32-.04.61-.07.93-.12-.07.84.99,1.41.8,2.13l1.46.75Z"/>
          <path class="cls-17" d="M90.01,60.77c-.79,1.54-1.82,1.25-4.78,1.38-.56.03-1.16.03-1.73,0,.31-.3.61-.62.93-.92.47-.45,1.12-.83,1.59-1.27.68.07,3.71.48,3.98.81Z"/>
          <path class="cls-7" d="M84.17,65.72c-.18.89.47,1.58.66,2.42-1.35-.24-2.5-.31-2.66-.35-.16-.03-2.1-.74-3.19-.92.26-.27.53-.54.8-.81.97.18,1.97-.13,2.92-.23.49-.05.97-.06,1.46-.12Z"/>
          <path class="cls-28" d="M84.83,63.54l-2.12,2.3c-.95.1-1.95.41-2.92.23.94-.97,1.81-1.93,2.79-2.88.73.2,1.51.25,2.26.35Z"/>
          <path class="cls-7" d="M85.23,62.15c.89,0,1.27,1,1.2,1.61-.24-.03-.44-.09-.66-.12-.31-.04-.62-.07-.93-.12-.75-.1-1.53-.15-2.26-.35.31-.31.6-.72.93-1.04.56.03,1.17.03,1.73,0Z"/>
          <g>
            <path class="cls-28" d="M88.68,64.11c-.78.94.74.94-2.92,1.5-.59-.81.11-1.12,0-1.96.23.03.42.09.66.12,1.85.23,2.49.61,1.59-.29.48-.18.46.4.66.63Z"/>
            <path class="cls-17" d="M85.76,63.65c.11.84-.59,1.15,0,1.96-.2.03-.46-.03-.66,0-.32.04-.61.08-.93.12-.49.06-.98.07-1.46.12l2.12-2.3c.31.04.62.08.93.12Z"/>
          </g>
          <g>
            <path class="cls-17" d="M48.18,51.67c.74,1.92.85.55,1.26.46.17-.04,2.85.3,3.39.35,5.5.44,11,1.41,16.47,1.79.02.17-.03.35,0,.52.06.38-.02.94,0,1.38l-24.1-2.65c-1.26-.03-2.84.93-4.12,1.38l.07-4.15c2.34.28,4.69.67,7.04.92Z"/>
            <path class="cls-41" d="M52.83,52.47c-.53-.04-3.22-.38-3.39-.35-.41.09-.52,1.46-1.26-.46.96.1,4.09-.15,4.65.81Z"/>
            <path class="cls-20" d="M43.86,51.32c.78-.17.24.65-.07.98-1.76,1.91-.98-.76.07-.98Z"/>
          </g>
          <path class="cls-17" d="M30.52,54.09c.35.04.71.04,1.06.12,0,.9.27,1.85.13,2.77-1.98-.05-3.9-.47-5.84-.69-.08-.31-.16-.62-.27-.92-.21-.64-.58-1.27-.53-1.96,1.81.26,3.63.47,5.44.69Z"/>
          <path class="cls-17" d="M31.71,51.9l-4.78-.81.66-1.61c1.37-.09,2.7.11,4.05.23.15.14.05,1.82.07,2.19Z"/>
          <path class="cls-63" d="M21.22,51.44c-.28-.87-2.14-1.07-1.59-2.77,5.66.99,8.12.09,1.59,2.77Z"/>
          <path class="cls-6" d="M27.59,49.48l-.66,1.61c-1.26,0-4.13.79-4.58.81-.22,0-.22-.06-.2-.23.71-.33,4.58-2.24,4.85-2.3.42-.11.57.12.6.12Z"/>
          <path class="cls-17" d="M18.16,53.05c2.03.18,4.07.15,6.11.23.15,0,.28-.04.27.12-.34.06-1.82,1.26-2.52,1.27-.8-.03-1.45-.03-2.26-.12-.52-.06-1.13.04-1.66,0-.23-.13-.15-.31-.33-.35-.53-.11-1.74,0-1.73-.29.64-.49,1.7-.68,2.12-.86Z"/>
          <path class="cls-32" d="M49.11,67.57c1.48.15,8.15,1.09,8.96.92.1-.02.07-.15.07-.23.71.09,1.43.13,2.12.23-.21.49.99.49.93.12.31-.04.25.11.27.12.01,0-.05.21.07.23,4.23.67,5.95.11,5.64,1.38-.53-.05-1.07-.07-1.59-.12-6.15-.56-12.3-1.2-18.46-1.73.01-.14-.1-.1-.13-.12.48-.4-.6-.83-.2-1.04.16-.08,1.9.19,2.32.23Z"/>
          <path class="cls-66" d="M74.21,69.99c-.13.69,2.47.3,3.59,1.27-.34-.02-.25.12-.27.12-.84-.04-1.69.03-2.52-.12-1.29-.08-2.57-.22-3.85-.35-.14-.01-1.86-.39-2.66-.46-.44-.04-.89-.07-1.33-.12.31-1.27-1.42-.72-5.64-1.38-.11-.02-.05-.23-.07-.23,4.27.22,8.48,1,12.75,1.27Z"/>
          <path class="cls-66" d="M58.14,68.26c0,.08.03.21-.07.23-.82.17-7.48-.77-8.96-.92-.02-.21-.3-.05-.4-.17-.04-.05.31-.04.27-.17,3.04.35,6.13.63,9.16,1.04Z"/>
          <path class="cls-66" d="M61.19,68.61c.06.38-1.14.37-.93-.12.08.01.31.19.93.12Z"/>
          <path class="cls-17" d="M84.83,68.14c3.38.6,2.02.35-1.39.46-.06,0-.19-.27-.4-.23-.6.31-2.5,1.67-2.66,1.73-.84.31-1.07,0-1.13,0l2.92-2.3c.16.03,1.3.1,2.66.35Z"/>
          <path class="cls-17" d="M45.66,65.84c.22.28.47.57.53.92-1.45-.17-2.92-.29-4.38-.46.59-.34,1.33-.6,1.99-.81,1.28-.39,1-.76,1.86.35Z"/>
          <path class="cls-38" d="M43.8,65.49c-.67.2-1.4.47-1.99.81-.04,0-.09,0-.13,0,.18-.4-.41-.81-.8-1.15.87-.01,2.87-.26,2.92.35Z"/>
          <g>
            <path class="cls-28" d="M26.93,51.09l4.78.81c.03.78-.13,1.55-.13,2.3-.35-.08-.71-.07-1.06-.12-.33-1.35-.87-.62-2.06-.81-1.55-.25-3.03-.48-4.58-.69-.99-.13-1.98-.34-2.99-.35.15-.35.67-.31,1-.46.1-.05.18-.08.27-.12-.02.17-.02.24.2.23.45-.01,3.33-.8,4.58-.81Z"/>
            <path class="cls-63" d="M21.88,51.78c-.32.15-.85.12-1,.46,1.01,0,2,.21,2.99.35l.4.69c-2.03-.08-4.08-.05-6.11-.23.5-.22,2.88-1.36,3.05-1.38.23-.03.37.18.66.12Z"/>
            <path class="cls-36" d="M30.52,54.09c-1.82-.22-3.64-.43-5.44-.69h-.27c-.09,0-.19-.01-.27,0,.01-.15-.12-.11-.27-.12l-.4-.69c1.56.21,3.04.44,4.58.69,1.19.19,1.73-.55,2.06.81Z"/>
          </g>
          <path class="cls-64" d="M22.02,54.66c.05,0,.73.32,1.06.23.65.78-2.09.37-3.92.81-.35-.13.66-.06.6-1.15.81.09,1.46.09,2.26.12Z"/>
          <path class="cls-20" d="M25.87,56.28c-.49-.06-3.41-.08-3.59-.29-.78-.91,2.86-.3,3.32-.63.1.31.18.61.27.92Z"/>
          <path class="cls-49" d="M24.8,53.39c-.06.53-1.26,1.43-1.73,1.5-.33.09-1.01-.23-1.06-.23.7,0,2.19-1.2,2.52-1.27.08-.01.18,0,.27,0Z"/>
          <path class="cls-63" d="M23.34,65.15c1.37.19,2.75.39,4.12.58-1.05,1.64-3.58.31-5.25.69-.11.03-1.13.92-1.66,1.15-.26.11-.75.39-1,.35-.13-.03-.39-.51-.73-.46.56-.26,2.97-1.38,2.79-1.73.41-.18.97-.32,1.2-.69.37.05.48.11.53.12Z"/>
          <path class="cls-17" d="M66.37,71.95c2.84.93,8.06,1.83,11.29,2.77,0,1.11,0,2.23,0,3.34l-6.77-.35c.21-.28.61-.94.53-1.27-.11-.5-3.94-1.14-4.71-1.27-2.73-.45-5.53-.59-8.3-.81,2.41-.98,4.84-2.02,7.3-2.88.07.45.16.3.66.46Z"/>
          <path class="cls-7" d="M77.66,74.02c0,.23,0,.46,0,.69-3.22-.93-8.45-1.84-11.29-2.77,1.48.08,4.44-.36,5.05-.35.11,0,.13-.06.2-.12,1.92,1,3.97,1.81,6.04,2.54Z"/>
          <path class="cls-19" d="M77.66,78.63v2.42c-1.93-.61-3.79-1.33-5.71-1.96-.12-1.43,4.09.23,5.71-.46Z"/>
          <path class="cls-20" d="M75,71.26c-.84,1.59,1.45,1.77,2.66,2.19,0,.19,0,.38,0,.58-2.08-.72-4.13-1.54-6.04-2.54-.06.05-.09.12-.2.12l-.27-.69c1.28.12,2.56.27,3.85.35Z"/>
          <path class="cls-19" d="M77.66,78.05v.58c-1.62.69-5.83-.97-5.71.46-.65-.21-1.28-.52-1.99-.58.24-.25.89-.76.93-.81l6.77.35Z"/>
          <path class="cls-73" d="M77.53,71.37c.24.62.13,1.41.13,2.07-1.2-.42-3.5-.6-2.66-2.19.84.14,1.68.07,2.52.12Z"/>
          <path class="cls-36" d="M69.29,86.47c-.24.36-.45,1.07-.4,1.5-5.27.01-10.48-.72-15.67-1.38-.56-.52-1.26-1.21-.8-1.96,5.62.59,11.23,1.35,16.87,1.84Z"/>
          <path class="cls-7" d="M74.21,85.54c-.05.08-.25.44-.27.46-.1.11-1.97,1.29-2.12,1.96-.09.01-.18,0-.27,0-.63.07-1.87,0-2.66,0-.05-.43.16-1.14.4-1.5.09-.13,2.04-1.82,2.19-1.84,2.07.33,3.18.11,2.72.92Z"/>
          <path class="cls-17" d="M73.94,86.01c.07.37.6.65.93,1.04,1.47,1.69-.48.13-.6.12-.14-.02-1.99.75-2.46.81.15-.67,2.03-1.85,2.12-1.96Z"/>
          <g>
            <path class="cls-42" d="M29.45,69.99c-.1-.54-1.16-.21-1.66-.35-1.29-.28-2.23-1.03-5.78-1.73,1.49-.23.43-1.01,1.39-1.04,1.1-.03,12.44,1.32,14.94,1.79l-.07,2.25c-2.95-.45-5.88-.84-8.83-.92Z"/>
            <path class="cls-36" d="M18.83,67.45c.34-.05.6.44.73.46.25.05.74-.23,1-.35.43.26.97.25,1.46.35,3.54.7,4.48,1.45,5.78,1.73.5.13,1.56-.2,1.66.35-1.45-.04-2.87.13-4.32.12-2.38-.99-5.82-1.2-8.43-1.73.59-.49,1.44-.61,2.12-.92Z"/>
          </g>
          <path class="cls-13" d="M18.83,67.45c-.69.31-1.54.43-2.12.92-.49-.1-.89-.1-.93-.12-.03-.01.12-.18-.4-.46,1.94-.76,4.1-1.11,6.24-2.07.18.35-2.22,1.47-2.79,1.73Z"/>
          <g>
            <path class="cls-17" d="M38.48,67.22v7.84c-.16.01-.12-.11-.13-.12-.05-.24.1-.91-.07-1.04-.46-.37-10.7-1.51-12.35-1.84-2.48-.5-5.06-1.4-7.5-2.07-.63-.18-1.18-.42-1.86-.58-.06-.01-.82-.39-1.06-.46l.27-.69s.44.02.93.12c2.61.53,6.05.74,8.43,1.73,1.45.02,2.87-.15,4.32-.12,2.95.08,5.88.47,8.83.92l.07-2.25c-2.5-.47-13.84-1.82-14.94-1.79-.96.03.09.81-1.39,1.04-.49-.1-1.03-.08-1.46-.35.53-.24,1.55-1.13,1.66-1.15,1.67-.38,4.2.95,5.25-.69,3.23.44,8.18,1.25,11.02,1.5Z"/>
            <path class="cls-71" d="M23.68,69.87c.54-.34.56.57,0,.23-.11-.07-.11-.16,0-.23Z"/>
          </g>
          <path class="cls-17" d="M65.58,70.22c-.73.42-1.59.64-2.39.92.11-.25-.93-.32-1.26-.35-5.47-.38-10.04.66-14.81,2.88.06-1.73-.05-3.46,0-5.19,6.16.53,12.31,1.17,18.46,1.73Z"/>
          <path class="cls-17" d="M56.15,75.52l6.91,1.15c-.8.46-1.57.94-2.39,1.38-1.3-.02-9.93.43-10.43.58-.05.01-.54.58-.6.69-.47-.01-1.79-.39-1.86.12-.27-.05-.53-.07-.8-.12,1.08-.74,7.48-3.51,8.17-3.69.42-.11.74-.29,1-.12Z"/>
          <path class="cls-17" d="M71.15,70.91l.27.69c-.6-.01-3.56.43-5.05.35-.5-.16-.6,0-.66-.46,1.05-.37,2.64-.69,2.79-1.04.79.07,2.51.45,2.66.46Z"/>
          <path class="cls-73" d="M60.66,78.05c-.39.22-1.07.9-1.66,1.15-3.1-.23-6.27.19-9.36.12.06-.11.55-.68.6-.69.5-.14,9.12-.6,10.43-.58Z"/>
          <g>
            <path class="cls-7" d="M71.42,76.44c.08.33-.32.99-.53,1.27-.04.05-.69.55-.93.81-.92.95-2.01,1.81-3.05,2.65-.83.67-1.72,1.27-2.52,1.96-.17.15-.34.23-.4.46-1.23.14-.81.94-2.26.81.37.07.18-.18.4-.46.07-.09.24-.31.27-.35,1.18-1.35,2.68-2.59,3.98-3.86l-1.33-.17c1.08-.31,1.73-.66,2.66-1.21-1.91-1.33-3.88.67-5.58,1.56-.14.11-.29.08-.4.12-3.55-.78-2.69-.49-3.98.35-.4.26-.69.6-1.13.81-.79-.1-1.56-.33-2.32-.46-2.18-.38-4.32-.89-6.51-1.27.07-.51,1.39-.13,1.86-.12,3.09.08,6.26-.35,9.36-.12.59-.25,1.27-.94,1.66-1.15.82-.45,1.59-.92,2.39-1.38.24-.14.25-.44.33-.46,2.29.32,6.02.85,8.03.23Z"/>
            <path class="cls-46" d="M62.39,83.59c-7.98-2.61-8.31-1.88-.27.35-.22.29-.03.53-.4.46-1.17-.11-6.2-1.65-7.97-2.07l.53-1.61c.77.13,1.54.37,2.32.46.44-.21.73-.55,1.13-.81l3.65-.12c.32-.15.31-.22.33-.23.11-.03.25-.01.4-.12.88.26,2.05-.1,2.92-.35l1.33.17c-1.31,1.27-2.8,2.51-3.98,3.86Z"/>
            <path class="cls-28" d="M71.42,76.44c-2.02.62-5.74.09-8.03-.23-.08.02-.09.32-.33.46l-6.91-1.15c-.04-.28,1.46-.83,2.26-1.15,2.77.22,5.57.36,8.3.81.78.13,4.6.77,4.71,1.27Z"/>
            <path class="cls-73" d="M65.04,79.55c-.87.25-2.04.6-2.92.35,1.7-.89,3.66-2.89,5.58-1.56-.92.55-1.57.9-2.66,1.21Z"/>
            <path class="cls-46" d="M62.39,83.59s-.2.26-.27.35c-8.04-2.23-7.71-2.95.27-.35Z"/>
            <path class="cls-64" d="M61.72,80.01s-.02.08-.33.23l-3.65.12c1.29-.84.43-1.13,3.98-.35Z"/>
          </g>
        </g>
      </g>
    </g>
  </g>
</svg>