<svg width="204" height="176" viewBox="0 0 204 176" fill="none" xmlns="http://www.w3.org/2000/svg">
<path d="M135.908 176H152.897C156.932 176 160.648 173.643 162.665 169.754L202.305 94.325C204.358 90.4357 204.358 85.6429 202.34 81.7143C200.323 77.7857 196.607 75.4286 192.537 75.4286H50.9656C46.9308 75.4286 43.2146 77.7857 41.1972 81.675L16.9885 127.718V25.1429C16.9885 21.6857 19.5368 18.8571 22.6514 18.8571H64.2379C65.7244 18.8571 67.1755 19.525 68.2372 20.7036L77.6163 31.1143C85.0488 39.3643 95.1357 44 105.647 44H147.234C150.348 44 152.897 46.8286 152.897 50.2857V62.8571H169.885V50.2857C169.885 36.4179 159.728 25.1429 147.234 25.1429H105.647C99.6306 25.1429 93.8616 22.5107 89.6145 17.7964L80.2354 7.34643C75.9883 2.63214 70.2192 0 64.2025 0H22.6514C10.1577 0 0 11.275 0 25.1429V150.857C0 164.725 10.1577 176 22.6514 176H31.0395H135.908Z" fill="#FFD43B"/>
</svg>
