<?xml version="1.0" encoding="utf-8"?>
<!-- Generator: Adobe Illustrator 24.0.0, SVG Export Plug-In . SVG Version: 6.00 Build 0)  -->
<svg version="1.1" id="Capa_1" xmlns="http://www.w3.org/2000/svg" xmlns:xlink="http://www.w3.org/1999/xlink" x="0px" y="0px"
	 viewBox="0 0 309 141" style="enable-background:new 0 0 309 141;" xml:space="preserve">
<style type="text/css">
	.st0{fill:#53AFC8;}
	.st1{fill:#22416E;}
	.st2{fill:#CDCCCC;}
</style>
<g>
	<path class="st0" d="M83.39,50.2c0.29-0.43,0.71-0.63,1.3-0.63h6.16V39.05h-7.79c-3.87,0-6.79,1.04-8.69,3.09
		c-1.88,2.03-2.84,5.1-2.84,9.11v5.25h-4.61v9.88h4.61v34.98h11.35V66.38h7.97V56.5h-7.97v-4.29C82.88,51.38,83.05,50.7,83.39,50.2z
		"/>
	<path class="st1" d="M64.33,59.23c-1.19-1.13-2.58-2-4.15-2.58c-1.61-0.6-3.43-0.9-5.4-0.9c-2.57,0-4.95,0.77-7.09,2.29
		c-1.11,0.79-2.12,1.75-3.01,2.88v-5.11H32.89v45.53h11.79v-26.8c0-2.48,0.64-4.42,1.9-5.79c1.25-1.35,3.06-2.04,5.38-2.04
		c1.2,0,2.27,0.18,3.17,0.52c0.82,0.32,1.53,0.78,2.11,1.36l0.69,0.7l6.94-9.55L64.33,59.23z"/>
	<g>
		<path class="st1" d="M121.9,41.62l-11.39,14.13c-3.08,0.1-5.94,0.67-8.51,1.69c-2.8,1.12-5.11,2.7-6.86,4.69l-0.56,0.64l7.6,6.4
			l0.52-0.38c1.2-0.87,2.58-1.56,4.08-2.06c1.55-0.51,3.15-0.77,4.75-0.77c2.45,0,4.35,0.62,5.66,1.84c1.3,1.21,1.95,2.95,1.95,5.19
			v1.19h-10.64c-5.18,0-9.14,1.14-11.78,3.4c-2.66,2.28-4.01,5.71-4.01,10.21c0,4.71,1.33,8.3,3.96,10.64
			c2.61,2.33,6.54,3.51,11.7,3.51c2.04,0,3.95-0.24,5.68-0.72c1.76-0.48,3.28-1.22,4.54-2.2c0.19-0.15,0.37-0.3,0.55-0.46v2.75
			h10.61V72.63c0-3.52-0.73-6.58-2.17-9.09c-1.4-2.45-3.44-4.36-6.06-5.69l8.51-9.38L121.9,41.62z M119.15,88.85
			c0,1.21-0.64,2.09-1.94,2.67c-1.46,0.66-3.77,0.99-6.85,0.99c-2.46,0-4.3-0.41-5.47-1.21c-1.11-0.76-1.64-1.91-1.64-3.51
			c0-1.52,0.42-2.66,1.26-3.36c0.87-0.73,2.23-1.1,4.05-1.1h10.6V88.85z"/>
		<path class="st1" d="M147.47,69.04c1.57-1.56,3.85-2.35,6.76-2.35c1.58,0,3.12,0.31,4.58,0.92c1.4,0.59,2.65,1.43,3.7,2.51
			l0.57,0.58l7.71-7.24l-0.45-0.59c-1.12-1.49-2.53-2.78-4.18-3.82c-1.69-1.07-3.62-1.89-5.73-2.45c-2.11-0.56-4.37-0.84-6.75-0.84
			c-4.15,0-7.76,0.79-10.73,2.35c-2.99,1.57-5.31,3.89-6.88,6.9c-1.56,2.98-2.34,6.61-2.34,10.79v5.93c0,4.23,0.79,7.91,2.34,10.91
			c1.57,3.04,3.88,5.38,6.88,6.96c2.97,1.57,6.58,2.37,10.73,2.37c2.34,0,4.59-0.28,6.7-0.82c2.11-0.55,4.04-1.36,5.73-2.41
			c1.65-1.03,3.07-2.29,4.22-3.76l0.45-0.58l-7.72-7.72l-0.58,0.65c-1.03,1.15-2.26,2.06-3.66,2.69c-1.45,0.66-2.99,0.99-4.6,0.99
			c-2.94,0-5.22-0.8-6.78-2.39c-1.56-1.59-2.35-3.91-2.35-6.91v-5.93C145.11,72.87,145.9,70.6,147.47,69.04z"/>
		<rect x="174.26" y="55.79" class="st1" width="11.33" height="45.69"/>
		<path class="st1" d="M205.09,90.66c-0.8,0-1.38-0.21-1.78-0.65l0,0c-0.41-0.44-0.62-1.12-0.62-2.01V39.06h-11.37v50.33
			c0,3.83,1,6.85,2.97,8.98c1.98,2.15,4.79,3.24,8.32,3.24h6.13V90.66H205.09z"/>
	</g>
	<g>
		<g>
			<g>
				<path class="st1" d="M267.93,88.57h1.15l0.44,1.72l0.44-1.72h1.15v2.82h-0.72v-2.15l-0.55,2.15h-0.65l-0.55-2.15v2.15h-0.72
					V88.57z"/>
				<path class="st1" d="M271.67,91.39v-2.82h1.45c0.27,0,0.48,0.02,0.62,0.07c0.14,0.05,0.26,0.13,0.34,0.26
					c0.09,0.13,0.13,0.28,0.13,0.46c0,0.16-0.03,0.29-0.1,0.41c-0.07,0.11-0.16,0.21-0.28,0.28c-0.07,0.04-0.18,0.08-0.31,0.11
					c0.1,0.03,0.18,0.07,0.23,0.1c0.03,0.02,0.08,0.07,0.14,0.15c0.06,0.08,0.1,0.13,0.12,0.18l0.42,0.82h-0.99l-0.47-0.86
					c-0.06-0.11-0.11-0.18-0.16-0.22c-0.06-0.04-0.13-0.07-0.21-0.07h-0.08v1.15H271.67z M272.55,89.71h0.37
					c0.04,0,0.12-0.01,0.23-0.04c0.06-0.01,0.1-0.04,0.14-0.09c0.04-0.05,0.05-0.1,0.05-0.16c0-0.09-0.03-0.16-0.09-0.21
					c-0.06-0.05-0.17-0.07-0.32-0.07h-0.38V89.71z"/>
			</g>
		</g>
		<path class="st1" d="M271.19,85.06c-2.71,0-4.92,2.21-4.92,4.92c0,2.71,2.21,4.92,4.92,4.92c2.71,0,4.92-2.21,4.92-4.92
			C276.11,87.27,273.9,85.06,271.19,85.06z M271.19,94.06c-2.25,0-4.08-1.83-4.08-4.08s1.83-4.08,4.08-4.08
			c2.25,0,4.08,1.83,4.08,4.08S273.44,94.06,271.19,94.06z"/>
	</g>
	<path class="st0" d="M253.71,58.68h-24.65h-0.78c-0.42,0-0.83,0.05-1.22,0.14c-2.39,0.55-4.17,2.7-4.17,5.25V89.5
		c0,2.97,2.42,5.39,5.4,5.39h25.43c2.48,0,4.57-1.68,5.2-3.95c0.13-0.46,0.2-0.94,0.2-1.44v-0.54V64.07
		C259.1,61.1,256.68,58.68,253.71,58.68z"/>
	<g>
		<path class="st1" d="M269.73,52c-0.28-0.28-0.64-0.46-1.01-0.58c-0.98-0.33-1.98-0.38-3.01-0.31c-1.78,0.12-3.39,0.67-4.81,1.77
			c-1.45,1.12-2.76,2.4-3.99,3.76c-4.45,4.87-6.26,7.66-6.99,8.8c-3.53,5.49-6.96,14.64-7.68,15.24c-0.11,0.09-6.27-8.32-6.44-8.59
			c0,0-3.21,1.73-5.57,3.14c0,0,0,0.01,0,0.01c0.24,0.31,0.39,0.49,0.69,0.88c2.16,2.71,4.22,5.51,6.08,8.42
			c0.03,0.05,0.06,0.1,0.1,0.15c1.04,1.65,2.81,2.7,4.75,2.79c2.12,0.11,4.13-1.06,5.02-2.99c0.16-0.35,0.33-0.69,0.5-1.04
			c3.02-6.05,6.6-11.76,10.56-17.25c1.78-2.46,3.7-4.83,5.76-7.06c1.74-1.89,3.58-3.67,5.68-5.16c0.24-0.17,0.42-0.39,0.54-0.64
			C270.15,52.9,270.08,52.35,269.73,52z"/>
	</g>
	<ellipse class="st2" cx="240.93" cy="100.87" rx="20.55" ry="0.99"/>
</g>
</svg>
