<svg width="2024" height="281" viewBox="0 0 2024 281" fill="none" xmlns="http://www.w3.org/2000/svg">
<path d="M0 7.00001C0 3.13401 3.13401 0 7 0H265C268.866 0 272 3.13401 272 7V265C272 268.866 268.866 272 265 272H7.00001C3.13401 272 0 268.866 0 265V7.00001Z" fill="#414142" fill-opacity="0.847059"/>
<path d="M0 0H272H0ZM272 265C272 273.837 264.837 281 256 281H16C7.16344 281 0 273.837 0 265V263C0 263 3.13401 263 7 263H265C268.866 263 272 263 272 263V265ZM0 272V0V272ZM272 0V272V0Z" fill="#D9FF00" fill-opacity="0.745098"/>
<path d="M110.895 124.727V148H106.645L96.5199 133.352H96.3494V148H91.429V124.727H95.7472L105.793 139.364H105.997V124.727H110.895ZM114.869 148V130.545H119.71V148H114.869ZM117.301 128.295C116.581 128.295 115.964 128.057 115.449 127.58C114.941 127.095 114.688 126.515 114.688 125.841C114.688 125.174 114.941 124.602 115.449 124.125C115.964 123.64 116.581 123.398 117.301 123.398C118.021 123.398 118.634 123.64 119.142 124.125C119.657 124.602 119.915 125.174 119.915 125.841C119.915 126.515 119.657 127.095 119.142 127.58C118.634 128.057 118.021 128.295 117.301 128.295ZM139.861 130.545L133.759 148H128.304L122.202 130.545H127.315L130.94 143.034H131.122L134.736 130.545H139.861ZM149.73 148.341C147.935 148.341 146.389 147.977 145.094 147.25C143.806 146.515 142.813 145.477 142.116 144.136C141.42 142.788 141.071 141.193 141.071 139.352C141.071 137.557 141.42 135.981 142.116 134.625C142.813 133.269 143.795 132.212 145.06 131.455C146.332 130.697 147.825 130.318 149.537 130.318C150.688 130.318 151.76 130.504 152.753 130.875C153.753 131.239 154.624 131.788 155.366 132.523C156.116 133.258 156.7 134.182 157.116 135.295C157.533 136.402 157.741 137.697 157.741 139.182V140.511H143.003V137.511H153.185C153.185 136.814 153.033 136.197 152.73 135.659C152.427 135.121 152.007 134.701 151.469 134.398C150.938 134.087 150.321 133.932 149.616 133.932C148.882 133.932 148.23 134.102 147.662 134.443C147.101 134.777 146.662 135.227 146.344 135.795C146.026 136.356 145.863 136.981 145.855 137.67V140.523C145.855 141.386 146.014 142.133 146.332 142.761C146.658 143.39 147.116 143.875 147.707 144.216C148.298 144.557 148.999 144.727 149.81 144.727C150.348 144.727 150.84 144.652 151.287 144.5C151.734 144.348 152.116 144.121 152.435 143.818C152.753 143.515 152.995 143.144 153.162 142.705L157.639 143C157.412 144.076 156.946 145.015 156.241 145.818C155.545 146.614 154.643 147.235 153.537 147.682C152.438 148.121 151.17 148.341 149.73 148.341ZM165.741 124.727V148H160.901V124.727H165.741ZM187.105 124.727V148H182.185V129.398H182.048L176.719 132.739V128.375L182.48 124.727H187.105Z" fill="white"/>
<path d="M292 7.00001C292 3.13401 295.134 0 299 0H557C560.866 0 564 3.13401 564 7V265C564 268.866 560.866 272 557 272H299C295.134 272 292 268.866 292 265V7.00001Z" fill="#565657" fill-opacity="0.815686"/>
<path d="M292 0H564H292ZM564 265C564 273.837 556.837 281 548 281H308C299.163 281 292 273.837 292 265V263C292 263 295.134 263 299 263H557C560.866 263 564 263 564 263V265ZM292 272V0V272ZM564 0V272V0Z" fill="#FF6F6F" fill-opacity="0.741176"/>
<path d="M396.489 124.727V148H392.239L382.114 133.352H381.943V148H377.023V124.727H381.341L391.386 139.364H391.591V124.727H396.489ZM400.463 148V130.545H405.304V148H400.463ZM402.895 128.295C402.175 128.295 401.558 128.057 401.043 127.58C400.535 127.095 400.281 126.515 400.281 125.841C400.281 125.174 400.535 124.602 401.043 124.125C401.558 123.64 402.175 123.398 402.895 123.398C403.615 123.398 404.228 123.64 404.736 124.125C405.251 124.602 405.509 125.174 405.509 125.841C405.509 126.515 405.251 127.095 404.736 127.58C404.228 128.057 403.615 128.295 402.895 128.295ZM425.455 130.545L419.352 148H413.898L407.795 130.545H412.909L416.534 143.034H416.716L420.33 130.545H425.455ZM435.324 148.341C433.528 148.341 431.983 147.977 430.688 147.25C429.4 146.515 428.407 145.477 427.71 144.136C427.013 142.788 426.665 141.193 426.665 139.352C426.665 137.557 427.013 135.981 427.71 134.625C428.407 133.269 429.388 132.212 430.653 131.455C431.926 130.697 433.419 130.318 435.131 130.318C436.282 130.318 437.354 130.504 438.347 130.875C439.347 131.239 440.218 131.788 440.96 132.523C441.71 133.258 442.294 134.182 442.71 135.295C443.127 136.402 443.335 137.697 443.335 139.182V140.511H428.597V137.511H438.778C438.778 136.814 438.627 136.197 438.324 135.659C438.021 135.121 437.6 134.701 437.062 134.398C436.532 134.087 435.915 133.932 435.21 133.932C434.475 133.932 433.824 134.102 433.256 134.443C432.695 134.777 432.256 135.227 431.938 135.795C431.619 136.356 431.456 136.981 431.449 137.67V140.523C431.449 141.386 431.608 142.133 431.926 142.761C432.252 143.39 432.71 143.875 433.301 144.216C433.892 144.557 434.593 144.727 435.403 144.727C435.941 144.727 436.434 144.652 436.881 144.5C437.328 144.348 437.71 144.121 438.028 143.818C438.347 143.515 438.589 143.144 438.756 142.705L443.233 143C443.006 144.076 442.54 145.015 441.835 145.818C441.138 146.614 440.237 147.235 439.131 147.682C438.032 148.121 436.763 148.341 435.324 148.341ZM451.335 124.727V148H446.494V124.727H451.335ZM462.574 148V144.455L470.858 136.784C471.563 136.102 472.153 135.489 472.631 134.943C473.116 134.398 473.483 133.864 473.733 133.341C473.983 132.811 474.108 132.239 474.108 131.625C474.108 130.943 473.953 130.356 473.642 129.864C473.331 129.364 472.907 128.981 472.369 128.716C471.831 128.443 471.222 128.307 470.54 128.307C469.828 128.307 469.206 128.451 468.676 128.739C468.146 129.027 467.737 129.439 467.449 129.977C467.161 130.515 467.017 131.155 467.017 131.898H462.347C462.347 130.375 462.691 129.053 463.381 127.932C464.07 126.811 465.036 125.943 466.278 125.33C467.521 124.716 468.953 124.409 470.574 124.409C472.241 124.409 473.691 124.705 474.926 125.295C476.169 125.879 477.134 126.689 477.824 127.727C478.513 128.765 478.858 129.955 478.858 131.295C478.858 132.174 478.684 133.042 478.335 133.898C477.994 134.754 477.384 135.705 476.506 136.75C475.627 137.788 474.388 139.034 472.79 140.489L469.392 143.818V143.977H479.165V148H462.574Z" fill="white"/>
<path d="M584 7.00001C584 3.13401 587.134 0 591 0H849C852.866 0 856 3.13401 856 7V265C856 268.866 852.866 272 849 272H591C587.134 272 584 268.866 584 265V7.00001Z" fill="#6B6A6C" fill-opacity="0.8"/>
<path d="M584 0H856H584ZM856 265C856 273.837 848.837 281 840 281H600C591.163 281 584 273.837 584 265V263C584 263 587.134 263 591 263H849C852.866 263 856 263 856 263V265ZM584 272V0V272ZM856 0V272V0Z" fill="#00FFC8" fill-opacity="0.745098"/>
<path d="M688.489 124.727V148H684.239L674.114 133.352H673.943V148H669.023V124.727H673.341L683.386 139.364H683.591V124.727H688.489ZM692.463 148V130.545H697.304V148H692.463ZM694.895 128.295C694.175 128.295 693.558 128.057 693.043 127.58C692.535 127.095 692.281 126.515 692.281 125.841C692.281 125.174 692.535 124.602 693.043 124.125C693.558 123.64 694.175 123.398 694.895 123.398C695.615 123.398 696.228 123.64 696.736 124.125C697.251 124.602 697.509 125.174 697.509 125.841C697.509 126.515 697.251 127.095 696.736 127.58C696.228 128.057 695.615 128.295 694.895 128.295ZM717.455 130.545L711.352 148H705.898L699.795 130.545H704.909L708.534 143.034H708.716L712.33 130.545H717.455ZM727.324 148.341C725.528 148.341 723.983 147.977 722.688 147.25C721.4 146.515 720.407 145.477 719.71 144.136C719.013 142.788 718.665 141.193 718.665 139.352C718.665 137.557 719.013 135.981 719.71 134.625C720.407 133.269 721.388 132.212 722.653 131.455C723.926 130.697 725.419 130.318 727.131 130.318C728.282 130.318 729.354 130.504 730.347 130.875C731.347 131.239 732.218 131.788 732.96 132.523C733.71 133.258 734.294 134.182 734.71 135.295C735.127 136.402 735.335 137.697 735.335 139.182V140.511H720.597V137.511H730.778C730.778 136.814 730.627 136.197 730.324 135.659C730.021 135.121 729.6 134.701 729.062 134.398C728.532 134.087 727.915 133.932 727.21 133.932C726.475 133.932 725.824 134.102 725.256 134.443C724.695 134.777 724.256 135.227 723.938 135.795C723.619 136.356 723.456 136.981 723.449 137.67V140.523C723.449 141.386 723.608 142.133 723.926 142.761C724.252 143.39 724.71 143.875 725.301 144.216C725.892 144.557 726.593 144.727 727.403 144.727C727.941 144.727 728.434 144.652 728.881 144.5C729.328 144.348 729.71 144.121 730.028 143.818C730.347 143.515 730.589 143.144 730.756 142.705L735.233 143C735.006 144.076 734.54 145.015 733.835 145.818C733.138 146.614 732.237 147.235 731.131 147.682C730.032 148.121 728.763 148.341 727.324 148.341ZM743.335 124.727V148H738.494V124.727H743.335ZM763.176 148.318C761.479 148.318 759.968 148.027 758.642 147.443C757.324 146.852 756.282 146.042 755.517 145.011C754.759 143.973 754.369 142.777 754.347 141.42H759.301C759.331 141.989 759.517 142.489 759.858 142.92C760.206 143.345 760.669 143.674 761.244 143.909C761.82 144.144 762.468 144.261 763.188 144.261C763.938 144.261 764.6 144.129 765.176 143.864C765.752 143.598 766.203 143.231 766.528 142.761C766.854 142.292 767.017 141.75 767.017 141.136C767.017 140.515 766.843 139.966 766.494 139.489C766.153 139.004 765.661 138.625 765.017 138.352C764.381 138.08 763.623 137.943 762.744 137.943H760.574V134.33H762.744C763.487 134.33 764.142 134.201 764.71 133.943C765.286 133.686 765.733 133.33 766.051 132.875C766.369 132.413 766.528 131.875 766.528 131.261C766.528 130.678 766.388 130.167 766.108 129.727C765.835 129.28 765.449 128.932 764.949 128.682C764.456 128.432 763.881 128.307 763.222 128.307C762.555 128.307 761.945 128.428 761.392 128.67C760.839 128.905 760.396 129.242 760.062 129.682C759.729 130.121 759.551 130.636 759.528 131.227H754.812C754.835 129.886 755.218 128.705 755.96 127.682C756.703 126.659 757.703 125.86 758.96 125.284C760.225 124.701 761.653 124.409 763.244 124.409C764.85 124.409 766.256 124.701 767.46 125.284C768.665 125.867 769.6 126.655 770.267 127.648C770.941 128.633 771.275 129.739 771.267 130.966C771.275 132.269 770.869 133.356 770.051 134.227C769.241 135.098 768.184 135.652 766.881 135.886V136.068C768.593 136.288 769.896 136.883 770.79 137.852C771.691 138.814 772.138 140.019 772.131 141.466C772.138 142.792 771.756 143.97 770.983 145C770.218 146.03 769.161 146.841 767.812 147.432C766.464 148.023 764.919 148.318 763.176 148.318Z" fill="white"/>
<path d="M876 7.00001C876 3.13401 879.134 0 883 0H1141C1144.87 0 1148 3.13401 1148 7V265C1148 268.866 1144.87 272 1141 272H883C879.134 272 876 268.866 876 265V7.00001Z" fill="#807F81" fill-opacity="0.827451"/>
<path d="M876 0H1148H876ZM1148 265C1148 273.837 1140.84 281 1132 281H892C883.163 281 876 273.837 876 265V263C876 263 879.134 263 883 263H1141C1144.87 263 1148 263 1148 263V265ZM876 272V0V272ZM1148 0V272V0Z" fill="#0084FF" fill-opacity="0.745098"/>
<path d="M980.489 124.727V148H976.239L966.114 133.352H965.943V148H961.023V124.727H965.341L975.386 139.364H975.591V124.727H980.489ZM984.463 148V130.545H989.304V148H984.463ZM986.895 128.295C986.175 128.295 985.558 128.057 985.043 127.58C984.535 127.095 984.281 126.515 984.281 125.841C984.281 125.174 984.535 124.602 985.043 124.125C985.558 123.64 986.175 123.398 986.895 123.398C987.615 123.398 988.228 123.64 988.736 124.125C989.251 124.602 989.509 125.174 989.509 125.841C989.509 126.515 989.251 127.095 988.736 127.58C988.228 128.057 987.615 128.295 986.895 128.295ZM1009.45 130.545L1003.35 148H997.898L991.795 130.545H996.909L1000.53 143.034H1000.72L1004.33 130.545H1009.45ZM1019.32 148.341C1017.53 148.341 1015.98 147.977 1014.69 147.25C1013.4 146.515 1012.41 145.477 1011.71 144.136C1011.01 142.788 1010.66 141.193 1010.66 139.352C1010.66 137.557 1011.01 135.981 1011.71 134.625C1012.41 133.269 1013.39 132.212 1014.65 131.455C1015.93 130.697 1017.42 130.318 1019.13 130.318C1020.28 130.318 1021.35 130.504 1022.35 130.875C1023.35 131.239 1024.22 131.788 1024.96 132.523C1025.71 133.258 1026.29 134.182 1026.71 135.295C1027.13 136.402 1027.34 137.697 1027.34 139.182V140.511H1012.6V137.511H1022.78C1022.78 136.814 1022.63 136.197 1022.32 135.659C1022.02 135.121 1021.6 134.701 1021.06 134.398C1020.53 134.087 1019.91 133.932 1019.21 133.932C1018.48 133.932 1017.82 134.102 1017.26 134.443C1016.7 134.777 1016.26 135.227 1015.94 135.795C1015.62 136.356 1015.46 136.981 1015.45 137.67V140.523C1015.45 141.386 1015.61 142.133 1015.93 142.761C1016.25 143.39 1016.71 143.875 1017.3 144.216C1017.89 144.557 1018.59 144.727 1019.4 144.727C1019.94 144.727 1020.43 144.652 1020.88 144.5C1021.33 144.348 1021.71 144.121 1022.03 143.818C1022.35 143.515 1022.59 143.144 1022.76 142.705L1027.23 143C1027.01 144.076 1026.54 145.015 1025.84 145.818C1025.14 146.614 1024.24 147.235 1023.13 147.682C1022.03 148.121 1020.76 148.341 1019.32 148.341ZM1035.34 124.727V148H1030.49V124.727H1035.34ZM1046.22 143.909V140.034L1055.94 124.727H1059.28V130.091H1057.3L1051.18 139.784V139.966H1064.98V143.909H1046.22ZM1057.39 148V142.727L1057.48 141.011V124.727H1062.1V148H1057.39Z" fill="white"/>
<path d="M1168 7.00001C1168 3.13401 1171.13 0 1175 0H1433C1436.87 0 1440 3.13401 1440 7V265C1440 268.866 1436.87 272 1433 272H1175C1171.13 272 1168 268.866 1168 265V7.00001Z" fill="#959496" fill-opacity="0.807843"/>
<path d="M1168 0H1440H1168ZM1440 265C1440 273.837 1432.84 281 1424 281H1184C1175.16 281 1168 273.837 1168 265V263C1168 263 1171.13 263 1175 263H1433C1436.87 263 1440 263 1440 263V265ZM1168 272V0V272ZM1440 0V272V0Z" fill="#C2E77C" fill-opacity="0.745098"/>
<path d="M1272.49 124.727V148H1268.24L1258.11 133.352H1257.94V148H1253.02V124.727H1257.34L1267.39 139.364H1267.59V124.727H1272.49ZM1276.46 148V130.545H1281.3V148H1276.46ZM1278.89 128.295C1278.18 128.295 1277.56 128.057 1277.04 127.58C1276.54 127.095 1276.28 126.515 1276.28 125.841C1276.28 125.174 1276.54 124.602 1277.04 124.125C1277.56 123.64 1278.18 123.398 1278.89 123.398C1279.61 123.398 1280.23 123.64 1280.74 124.125C1281.25 124.602 1281.51 125.174 1281.51 125.841C1281.51 126.515 1281.25 127.095 1280.74 127.58C1280.23 128.057 1279.61 128.295 1278.89 128.295ZM1301.45 130.545L1295.35 148H1289.9L1283.8 130.545H1288.91L1292.53 143.034H1292.72L1296.33 130.545H1301.45ZM1311.32 148.341C1309.53 148.341 1307.98 147.977 1306.69 147.25C1305.4 146.515 1304.41 145.477 1303.71 144.136C1303.01 142.788 1302.66 141.193 1302.66 139.352C1302.66 137.557 1303.01 135.981 1303.71 134.625C1304.41 133.269 1305.39 132.212 1306.65 131.455C1307.93 130.697 1309.42 130.318 1311.13 130.318C1312.28 130.318 1313.35 130.504 1314.35 130.875C1315.35 131.239 1316.22 131.788 1316.96 132.523C1317.71 133.258 1318.29 134.182 1318.71 135.295C1319.13 136.402 1319.34 137.697 1319.34 139.182V140.511H1304.6V137.511H1314.78C1314.78 136.814 1314.63 136.197 1314.32 135.659C1314.02 135.121 1313.6 134.701 1313.06 134.398C1312.53 134.087 1311.91 133.932 1311.21 133.932C1310.48 133.932 1309.82 134.102 1309.26 134.443C1308.7 134.777 1308.26 135.227 1307.94 135.795C1307.62 136.356 1307.46 136.981 1307.45 137.67V140.523C1307.45 141.386 1307.61 142.133 1307.93 142.761C1308.25 143.39 1308.71 143.875 1309.3 144.216C1309.89 144.557 1310.59 144.727 1311.4 144.727C1311.94 144.727 1312.43 144.652 1312.88 144.5C1313.33 144.348 1313.71 144.121 1314.03 143.818C1314.35 143.515 1314.59 143.144 1314.76 142.705L1319.23 143C1319.01 144.076 1318.54 145.015 1317.84 145.818C1317.14 146.614 1316.24 147.235 1315.13 147.682C1314.03 148.121 1312.76 148.341 1311.32 148.341ZM1327.34 124.727V148H1322.49V124.727H1327.34ZM1347.07 148.318C1345.47 148.318 1344.04 148.023 1342.78 147.432C1341.53 146.841 1340.54 146.027 1339.8 144.989C1339.07 143.951 1338.68 142.761 1338.65 141.42H1343.43C1343.48 142.322 1343.86 143.053 1344.56 143.614C1345.27 144.174 1346.1 144.455 1347.07 144.455C1347.85 144.455 1348.53 144.284 1349.12 143.943C1349.72 143.595 1350.18 143.114 1350.52 142.5C1350.86 141.879 1351.03 141.167 1351.03 140.364C1351.03 139.545 1350.85 138.826 1350.51 138.205C1350.16 137.583 1349.69 137.098 1349.09 136.75C1348.48 136.402 1347.79 136.223 1347.01 136.216C1346.32 136.216 1345.66 136.356 1345.02 136.636C1344.38 136.917 1343.88 137.299 1343.53 137.784L1339.15 137L1340.26 124.727H1354.48V128.75H1344.31L1343.71 134.58H1343.85C1344.26 134.004 1344.87 133.527 1345.7 133.148C1346.52 132.769 1347.45 132.58 1348.47 132.58C1349.87 132.58 1351.12 132.909 1352.22 133.568C1353.32 134.227 1354.19 135.133 1354.82 136.284C1355.46 137.428 1355.77 138.746 1355.77 140.239C1355.77 141.807 1355.41 143.201 1354.68 144.42C1353.95 145.633 1352.93 146.587 1351.62 147.284C1350.32 147.973 1348.8 148.318 1347.07 148.318Z" fill="white"/>
<path d="M1460 7.00001C1460 3.13401 1463.13 0 1467 0H1725C1728.87 0 1732 3.13401 1732 7V265C1732 268.866 1728.87 272 1725 272H1467C1463.13 272 1460 268.866 1460 265V7.00001Z" fill="#AAAAAA" fill-opacity="0.823529"/>
<path d="M1460 0H1732H1460ZM1732 265C1732 273.837 1724.84 281 1716 281H1476C1467.16 281 1460 273.837 1460 265V263C1460 263 1463.13 263 1467 263H1725C1728.87 263 1732 263 1732 263V265ZM1460 272V0V272ZM1732 0V272V0Z" fill="#FF5E00" fill-opacity="0.745098"/>
<path d="M1564.49 124.727V148H1560.24L1550.11 133.352H1549.94V148H1545.02V124.727H1549.34L1559.39 139.364H1559.59V124.727H1564.49ZM1568.46 148V130.545H1573.3V148H1568.46ZM1570.89 128.295C1570.18 128.295 1569.56 128.057 1569.04 127.58C1568.54 127.095 1568.28 126.515 1568.28 125.841C1568.28 125.174 1568.54 124.602 1569.04 124.125C1569.56 123.64 1570.18 123.398 1570.89 123.398C1571.61 123.398 1572.23 123.64 1572.74 124.125C1573.25 124.602 1573.51 125.174 1573.51 125.841C1573.51 126.515 1573.25 127.095 1572.74 127.58C1572.23 128.057 1571.61 128.295 1570.89 128.295ZM1593.45 130.545L1587.35 148H1581.9L1575.8 130.545H1580.91L1584.53 143.034H1584.72L1588.33 130.545H1593.45ZM1603.32 148.341C1601.53 148.341 1599.98 147.977 1598.69 147.25C1597.4 146.515 1596.41 145.477 1595.71 144.136C1595.01 142.788 1594.66 141.193 1594.66 139.352C1594.66 137.557 1595.01 135.981 1595.71 134.625C1596.41 133.269 1597.39 132.212 1598.65 131.455C1599.93 130.697 1601.42 130.318 1603.13 130.318C1604.28 130.318 1605.35 130.504 1606.35 130.875C1607.35 131.239 1608.22 131.788 1608.96 132.523C1609.71 133.258 1610.29 134.182 1610.71 135.295C1611.13 136.402 1611.34 137.697 1611.34 139.182V140.511H1596.6V137.511H1606.78C1606.78 136.814 1606.63 136.197 1606.32 135.659C1606.02 135.121 1605.6 134.701 1605.06 134.398C1604.53 134.087 1603.91 133.932 1603.21 133.932C1602.48 133.932 1601.82 134.102 1601.26 134.443C1600.7 134.777 1600.26 135.227 1599.94 135.795C1599.62 136.356 1599.46 136.981 1599.45 137.67V140.523C1599.45 141.386 1599.61 142.133 1599.93 142.761C1600.25 143.39 1600.71 143.875 1601.3 144.216C1601.89 144.557 1602.59 144.727 1603.4 144.727C1603.94 144.727 1604.43 144.652 1604.88 144.5C1605.33 144.348 1605.71 144.121 1606.03 143.818C1606.35 143.515 1606.59 143.144 1606.76 142.705L1611.23 143C1611.01 144.076 1610.54 145.015 1609.84 145.818C1609.14 146.614 1608.24 147.235 1607.13 147.682C1606.03 148.121 1604.76 148.341 1603.32 148.341ZM1619.34 124.727V148H1614.49V124.727H1619.34ZM1639.51 148.318C1638.31 148.311 1637.15 148.11 1636.04 147.716C1634.93 147.322 1633.94 146.682 1633.06 145.795C1632.18 144.909 1631.49 143.735 1630.97 142.273C1630.46 140.811 1630.21 139.015 1630.21 136.886C1630.22 134.932 1630.44 133.186 1630.88 131.648C1631.33 130.102 1631.96 128.792 1632.79 127.716C1633.62 126.64 1634.62 125.822 1635.78 125.261C1636.94 124.693 1638.24 124.409 1639.68 124.409C1641.23 124.409 1642.6 124.712 1643.79 125.318C1644.98 125.917 1645.93 126.731 1646.65 127.761C1647.38 128.792 1647.82 129.947 1647.97 131.227H1643.12C1642.93 130.417 1642.53 129.78 1641.93 129.318C1641.32 128.856 1640.57 128.625 1639.68 128.625C1638.16 128.625 1637.01 129.284 1636.22 130.602C1635.44 131.92 1635.04 133.712 1635.03 135.977H1635.19C1635.54 135.288 1636.01 134.701 1636.6 134.216C1637.2 133.723 1637.87 133.348 1638.63 133.091C1639.4 132.826 1640.2 132.693 1641.05 132.693C1642.43 132.693 1643.66 133.019 1644.73 133.67C1645.81 134.314 1646.66 135.201 1647.28 136.33C1647.9 137.458 1648.21 138.75 1648.21 140.205C1648.21 141.78 1647.84 143.182 1647.11 144.409C1646.38 145.636 1645.36 146.598 1644.05 147.295C1642.75 147.985 1641.23 148.326 1639.51 148.318ZM1639.48 144.455C1640.24 144.455 1640.92 144.273 1641.52 143.909C1642.12 143.545 1642.59 143.053 1642.93 142.432C1643.27 141.811 1643.44 141.114 1643.44 140.341C1643.44 139.568 1643.27 138.875 1642.93 138.261C1642.59 137.648 1642.13 137.159 1641.54 136.795C1640.95 136.432 1640.27 136.25 1639.52 136.25C1638.95 136.25 1638.42 136.356 1637.94 136.568C1637.46 136.78 1637.04 137.076 1636.68 137.455C1636.32 137.833 1636.04 138.273 1635.84 138.773C1635.63 139.265 1635.53 139.792 1635.53 140.352C1635.53 141.102 1635.7 141.788 1636.04 142.409C1636.39 143.03 1636.86 143.527 1637.45 143.898C1638.05 144.269 1638.73 144.455 1639.48 144.455Z" fill="white"/>
<path d="M1752 7.00001C1752 3.13401 1755.13 0 1759 0H2017C2020.87 0 2024 3.13401 2024 7V265C2024 268.866 2020.87 272 2017 272H1759C1755.13 272 1752 268.866 1752 265V7.00001Z" fill="#B7B9BB" fill-opacity="0.807843"/>
<path d="M1752 0H2024H1752ZM2024 265C2024 273.837 2016.84 281 2008 281H1768C1759.16 281 1752 273.837 1752 265V263C1752 263 1755.13 263 1759 263H2017C2020.87 263 2024 263 2024 263V265ZM1752 272V0V272ZM2024 0V272V0Z" fill="#B7B9BB" fill-opacity="0.807843"/>
<path d="M1856.49 124.727V148H1852.24L1842.11 133.352H1841.94V148H1837.02V124.727H1841.34L1851.39 139.364H1851.59V124.727H1856.49ZM1860.46 148V130.545H1865.3V148H1860.46ZM1862.89 128.295C1862.18 128.295 1861.56 128.057 1861.04 127.58C1860.54 127.095 1860.28 126.515 1860.28 125.841C1860.28 125.174 1860.54 124.602 1861.04 124.125C1861.56 123.64 1862.18 123.398 1862.89 123.398C1863.61 123.398 1864.23 123.64 1864.74 124.125C1865.25 124.602 1865.51 125.174 1865.51 125.841C1865.51 126.515 1865.25 127.095 1864.74 127.58C1864.23 128.057 1863.61 128.295 1862.89 128.295ZM1885.45 130.545L1879.35 148H1873.9L1867.8 130.545H1872.91L1876.53 143.034H1876.72L1880.33 130.545H1885.45ZM1895.32 148.341C1893.53 148.341 1891.98 147.977 1890.69 147.25C1889.4 146.515 1888.41 145.477 1887.71 144.136C1887.01 142.788 1886.66 141.193 1886.66 139.352C1886.66 137.557 1887.01 135.981 1887.71 134.625C1888.41 133.269 1889.39 132.212 1890.65 131.455C1891.93 130.697 1893.42 130.318 1895.13 130.318C1896.28 130.318 1897.35 130.504 1898.35 130.875C1899.35 131.239 1900.22 131.788 1900.96 132.523C1901.71 133.258 1902.29 134.182 1902.71 135.295C1903.13 136.402 1903.34 137.697 1903.34 139.182V140.511H1888.6V137.511H1898.78C1898.78 136.814 1898.63 136.197 1898.32 135.659C1898.02 135.121 1897.6 134.701 1897.06 134.398C1896.53 134.087 1895.91 133.932 1895.21 133.932C1894.48 133.932 1893.82 134.102 1893.26 134.443C1892.7 134.777 1892.26 135.227 1891.94 135.795C1891.62 136.356 1891.46 136.981 1891.45 137.67V140.523C1891.45 141.386 1891.61 142.133 1891.93 142.761C1892.25 143.39 1892.71 143.875 1893.3 144.216C1893.89 144.557 1894.59 144.727 1895.4 144.727C1895.94 144.727 1896.43 144.652 1896.88 144.5C1897.33 144.348 1897.71 144.121 1898.03 143.818C1898.35 143.515 1898.59 143.144 1898.76 142.705L1903.23 143C1903.01 144.076 1902.54 145.015 1901.84 145.818C1901.14 146.614 1900.24 147.235 1899.13 147.682C1898.03 148.121 1896.76 148.341 1895.32 148.341ZM1911.34 124.727V148H1906.49V124.727H1911.34ZM1923.49 148L1933.14 128.909V128.75H1921.9V124.727H1938.23V128.807L1928.57 148H1923.49Z" fill="white"/>
</svg>
