<svg width="146" height="114" viewBox="0 0 146 114" fill="none" xmlns="http://www.w3.org/2000/svg">
<path d="M97.3397 114H109.507C112.397 114 115.059 112.473 116.503 109.954L144.894 61.0969C146.364 58.5777 146.364 55.4732 144.919 52.9286C143.475 50.3839 140.813 48.8571 137.898 48.8571H36.5024C33.6126 48.8571 30.951 50.3839 29.5061 52.9031L12.1675 82.7263V16.2857C12.1675 14.0464 13.9926 12.2143 16.2233 12.2143H46.0082C47.0728 12.2143 48.1122 12.6469 48.8726 13.4103L55.5901 20.1536C60.9133 25.4973 68.1378 28.5 75.6664 28.5H105.451C107.682 28.5 109.507 30.3321 109.507 32.5714V40.7143H121.675V32.5714C121.675 23.5888 114.399 16.2857 105.451 16.2857H75.6664C71.3571 16.2857 67.2252 14.5808 64.1833 11.5272L57.4659 4.75848C54.424 1.70491 50.2922 0 45.9828 0H16.2233C7.27513 0 0 7.30313 0 16.2857V97.7143C0 106.697 7.27513 114 16.2233 114H22.231H97.3397Z" fill="#FFD43B"/>
</svg>
