<svg width="52" height="40" viewBox="0 0 52 40" fill="none" xmlns="http://www.w3.org/2000/svg">
<g clip-path="url(#clip0_323_16688)">
<path d="M16.1427 2.38098C15.1955 2.38098 14.2871 2.75726 13.6173 3.42703C12.9475 4.0968 12.5713 5.00521 12.5713 5.95241V7.14289H4.23793C3.29073 7.14289 2.38232 7.51916 1.71255 8.18893C1.04278 8.85871 0.666504 9.76711 0.666504 10.7143L0.666504 14.0096L18.7951 18.8429C19.3973 19.0033 20.031 19.0033 20.6332 18.8429L38.7617 14.0096V10.7143C38.7617 9.76711 38.3855 8.85871 37.7157 8.18893C37.0459 7.51916 36.1375 7.14289 35.1903 7.14289H26.857V5.95241C26.857 5.00521 26.4807 4.0968 25.8109 3.42703C25.1412 2.75726 24.2328 2.38098 23.2856 2.38098H16.1427ZM16.1427 4.76193H23.2856C23.6013 4.76193 23.9041 4.88736 24.1273 5.11062C24.3506 5.33387 24.476 5.63668 24.476 5.95241V7.14289H14.9522V5.95241C14.9522 5.63668 15.0776 5.33387 15.3009 5.11062C15.5242 4.88736 15.827 4.76193 16.1427 4.76193Z" fill="#4EAAC1"/>
<path d="M0.666504 29.7619C0.666504 30.7092 1.04278 31.6176 1.71255 32.2873C2.38232 32.9571 3.29073 33.3334 4.23793 33.3334H35.1903C36.1375 33.3334 37.0459 32.9571 37.7157 32.2873C38.3855 31.6176 38.7617 30.7092 38.7617 29.7619V16.3096L20.0213 21.3024C19.82 21.3562 19.6082 21.3562 19.407 21.3024L0.666504 16.3096V29.7619Z" fill="#4EAAC1"/>
</g>
<g clip-path="url(#clip1_323_16688)">
<path fill-rule="evenodd" clip-rule="evenodd" d="M39.4282 37.6191C41.9541 37.6191 44.3765 36.6157 46.1625 34.8297C47.9486 33.0436 48.952 30.6212 48.952 28.0953C48.952 25.5694 47.9486 23.147 46.1625 21.361C44.3765 19.5749 41.9541 18.5715 39.4282 18.5715C36.9023 18.5715 34.4799 19.5749 32.6938 21.361C30.9078 23.147 29.9044 25.5694 29.9044 28.0953C29.9044 30.6212 30.9078 33.0436 32.6938 34.8297C34.4799 36.6157 36.9023 37.6191 39.4282 37.6191ZM51.333 28.0953C51.333 31.2527 50.0787 34.2807 47.8461 36.5133C45.6136 38.7458 42.5855 40.0001 39.4282 40.0001C36.2709 40.0001 33.2428 38.7458 31.0103 36.5133C28.7777 34.2807 27.5234 31.2527 27.5234 28.0953C27.5234 24.938 28.7777 21.91 31.0103 19.6774C33.2428 17.4448 36.2709 16.1906 39.4282 16.1906C42.5855 16.1906 45.6136 17.4448 47.8461 19.6774C50.0787 21.91 51.333 24.938 51.333 28.0953Z" fill="white"/>
<path d="M35.709 30.3428C35.8209 31.7619 36.9423 32.8666 38.9542 33V34.0476H39.8471V32.9928C41.9304 32.8476 43.1471 31.7333 43.1471 30.119C43.1471 28.6476 42.2185 27.8904 40.5518 27.5L39.8471 27.3333V24.4762C40.7423 24.5785 41.309 25.0666 41.4447 25.7428H43.0114C42.8995 24.3738 41.7257 23.3047 39.8471 23.1881V22.1428H38.9542V23.2143C37.1757 23.3881 35.9661 24.4571 35.9661 25.9714C35.9661 27.3095 36.8661 28.1619 38.3637 28.5095L38.9542 28.6547V31.6833C38.0399 31.5452 37.4328 31.0404 37.2971 30.3428H35.709ZM38.9471 27.119C38.0685 26.9166 37.5923 26.5 37.5923 25.8762C37.5923 25.1762 38.1066 24.6523 38.9542 24.5V27.119H38.9471ZM39.9757 28.8952C41.0447 29.1428 41.5352 29.5428 41.5352 30.25C41.5352 31.0571 40.9233 31.6095 39.8471 31.7119V28.8666L39.9757 28.8952Z" fill="black"/>
</g>
<defs>
<clipPath id="clip0_323_16688">
<rect width="38.0952" height="38.0952" fill="white" transform="translate(0.666504)"/>
</clipPath>
<clipPath id="clip1_323_16688">
<rect width="38.0952" height="38.0952" fill="white" transform="translate(13.2378 1.90479)"/>
</clipPath>
</defs>
</svg>
