<?xml version="1.0" encoding="UTF-8"?>
<svg id="Capa_2" data-name="Capa 2" xmlns="http://www.w3.org/2000/svg" xmlns:xlink="http://www.w3.org/1999/xlink" viewBox="0 0 101.64 101">
  <defs>
    <style>
      .cls-1 {
        fill: url(#Degradado_sin_nombre_390-3);
      }

      .cls-1, .cls-2, .cls-3, .cls-4, .cls-5, .cls-6, .cls-7, .cls-8, .cls-9, .cls-10 {
        stroke-width: 0px;
      }

      .cls-2 {
        fill: url(#Degradado_sin_nombre_390);
      }

      .cls-3 {
        fill: url(#Degradado_sin_nombre_390-2);
      }

      .cls-4 {
        fill: url(#Degradado_sin_nombre_390-8);
      }

      .cls-5 {
        fill: url(#Degradado_sin_nombre_390-7);
      }

      .cls-6 {
        fill: url(#Degradado_sin_nombre_390-5);
      }

      .cls-7 {
        fill: url(#Degradado_sin_nombre_390-9);
      }

      .cls-8 {
        fill: #fffaeb;
      }

      .cls-9 {
        fill: url(#Degradado_sin_nombre_390-6);
      }

      .cls-10 {
        fill: url(#Degradado_sin_nombre_390-4);
      }
    </style>
    <linearGradient id="Degradado_sin_nombre_390" data-name="Degradado sin nombre 390" x1="0" y1="50.5" x2="101.64" y2="50.5" gradientUnits="userSpaceOnUse">
      <stop offset="0" stop-color="#16708a"/>
      <stop offset="1" stop-color="#112c41"/>
    </linearGradient>
    <linearGradient id="Degradado_sin_nombre_390-2" data-name="Degradado sin nombre 390" x1="8.47" y1="35.35" x2="66.07" y2="35.35" xlink:href="#Degradado_sin_nombre_390"/>
    <linearGradient id="Degradado_sin_nombre_390-3" data-name="Degradado sin nombre 390" x1="8.47" y1="42.08" x2="35.57" y2="42.08" xlink:href="#Degradado_sin_nombre_390"/>
    <linearGradient id="Degradado_sin_nombre_390-4" data-name="Degradado sin nombre 390" x1="8.46" y1="55.54" x2="35.57" y2="55.54" xlink:href="#Degradado_sin_nombre_390"/>
    <linearGradient id="Degradado_sin_nombre_390-5" data-name="Degradado sin nombre 390" x1="8.47" y1="82.47" x2="35.57" y2="82.47" xlink:href="#Degradado_sin_nombre_390"/>
    <linearGradient id="Degradado_sin_nombre_390-6" data-name="Degradado sin nombre 390" x1="8.47" y1="69.01" x2="35.57" y2="69.01" xlink:href="#Degradado_sin_nombre_390"/>
    <linearGradient id="Degradado_sin_nombre_390-7" data-name="Degradado sin nombre 390" x1="27.1" y1="16.84" x2="45.74" y2="16.84" xlink:href="#Degradado_sin_nombre_390"/>
    <linearGradient id="Degradado_sin_nombre_390-8" data-name="Degradado sin nombre 390" x1="8.47" y1="16.84" x2="22.02" y2="16.84" xlink:href="#Degradado_sin_nombre_390"/>
    <linearGradient id="Degradado_sin_nombre_390-9" data-name="Degradado sin nombre 390" x1="64.36" y1="69" x2="88.08" y2="69" xlink:href="#Degradado_sin_nombre_390"/>
  </defs>
  <g id="Capa_1-2" data-name="Capa 1">
    <g>
      <path class="cls-2" d="M0,53.84C0,39.92,0,25.99,0,12.07c0-.51.03-1.02.16-1.52.57-2.21,2.54-3.77,4.83-3.81.47,0,.94,0,1.41,0,.35,0,.36-.02.37-.35.01-.53,0-1.05.02-1.58C6.87,2.36,8.91.04,11.81,0c.11,0,.21,0,.32,0C33.42,0,54.7,0,75.98,0c1.17,0,2.26.26,3.2.95,1.35.99,2.06,2.33,2.12,4.01,0,.2,0,.39,0,.59,0,11.52,0,23.03,0,34.55,0,.78-.08.61.61.91,6.14,2.64,12.28,5.28,18.43,7.91.87.37,1.28.97,1.28,1.91-.01,8.01.04,16.02-.02,24.02-.05,5.85-2.51,10.56-7.28,14-5.37,3.87-10.8,7.66-16.21,11.48-1.26.89-2.53.89-3.79.01-.33-.23-.67-.46-1-.71-.18-.14-.29-.13-.46.03-.69.64-1.51,1.05-2.44,1.24-.45.09-.9.11-1.36.11-8.26,0-16.51,0-24.77,0-12.95,0-25.9,0-38.86,0-.64,0-1.27-.05-1.88-.24C1.47,100.1.04,98.2,0,96.02c0-.21,0-.42,0-.63,0-13.85,0-27.7,0-41.55ZM70.1,97.42c-.11-.2-.27-.27-.41-.36-2.74-1.94-5.48-3.87-8.21-5.82-.35-.25-.7-.35-1.13-.35-16.59,0-33.17,0-49.76,0-.18,0-.36,0-.55,0-.88-.08-1.55-.78-1.58-1.64-.03-.85.58-1.56,1.44-1.71.24-.04.48-.03.73-.03,14.95,0,29.9,0,44.85,0,.17,0,.33,0,.5,0,.1,0,.22.04.28-.08-.02-.1-.1-.15-.17-.21-.84-.81-1.6-1.69-2.24-2.66-.2-.3-.41-.41-.77-.4-3.59.01-7.18,0-10.77,0-.58,0-1.15.01-1.73,0-.83-.02-1.52-.64-1.61-1.44-.1-.9.42-1.67,1.27-1.88.21-.05.42-.04.63-.04,3.45,0,6.91,0,10.36,0,.18,0,.36.03.54-.04,0-.04.03-.09.01-.13-.32-.97-.59-1.96-.74-2.97-.02-.14-.11-.2-.25-.2-.14,0-.27,0-.41,0-3.91,0-7.82,0-11.72,0-9.38,0-18.75,0-28.13,0-.27,0-.54,0-.81-.07-.74-.19-1.26-.87-1.26-1.63,0-.78.54-1.46,1.31-1.64.25-.06.51-.05.77-.05,13.16,0,26.33,0,39.49,0,.17,0,.33,0,.5,0,.19,0,.28-.07.27-.26,0-.93,0-1.87,0-2.8,0-.21-.08-.3-.3-.29-.12,0-.24,0-.36,0-3.03,0-6.06,0-9.09,0-.18,0-.36,0-.55,0-.83-.06-1.48-.71-1.54-1.51-.07-.88.47-1.64,1.3-1.81.19-.04.39-.04.59-.04,1.23,0,2.45,0,3.68,0,1.94,0,3.88,0,5.82,0,.44,0,.45,0,.45-.45,0-.72,0-1.45,0-2.17,0-.83.13-.73-.76-.73-13.16,0-26.33,0-39.49,0-.24,0-.48.01-.72-.04-.79-.16-1.36-.84-1.37-1.63,0-.78.53-1.46,1.29-1.65.27-.07.54-.06.81-.06,13.16,0,26.33,0,39.49,0,.17,0,.33,0,.5,0,.17,0,.25-.07.25-.24,0-.95,0-1.9,0-2.84,0-.2-.09-.27-.28-.26-.12,0-.24,0-.36,0-2.38,0-4.76,0-7.13,0-.82,0-1.64.01-2.45,0-.81-.02-1.49-.63-1.6-1.4-.12-.88.36-1.64,1.19-1.89.22-.07.45-.06.68-.06,2.64,0,5.27,0,7.91,0,.55,0,1.09,0,1.64,0,.41,0,.42,0,.42-.43,0-.71,0-1.41,0-2.12q0-.8-.78-.8c-13.13,0-26.27,0-39.4,0-.26,0-.51,0-.77-.04-.8-.15-1.37-.82-1.39-1.62-.02-.78.51-1.46,1.27-1.67.25-.07.51-.06.77-.06,15.03,0,30.05,0,45.08,0,.15,0,.3,0,.45,0,.15,0,.3-.03.44-.09,2.36-1.02,4.73-2.03,7.09-3.05.08-.03.22-.03.19-.21h-.5c-7.38,0-14.75,0-22.13,0-.23,0-.46,0-.68-.02-.87-.09-1.49-.82-1.48-1.71.01-.86.65-1.56,1.51-1.63.2-.02.39-.02.59-.02,7.62,0,15.24,0,22.86,0,.21,0,.43,0,.64.02,1.05.1,1.73,1.14,1.43,2.14-.04.12-.13.23-.09.37.18.02.31-.07.44-.13,1.45-.62,2.89-1.25,4.34-1.85.37-.15.47-.35.47-.74-.02-3.07,0-6.14-.01-9.21,0-.78.07-.68-.67-.69-4.83,0-9.66,0-14.5,0-.88,0-1.72-.17-2.49-.61-1.74-.98-2.66-2.48-2.67-4.46-.02-4.83,0-9.66,0-14.5,0-.68.09-.64-.62-.64-14.89,0-29.78,0-44.67,0-.26,0-.52,0-.77.05-.7.17-1.13.6-1.3,1.3-.05.21-.05.42-.05.63,0,27.85,0,55.69,0,83.54,0,.18,0,.36.03.54.13.83.77,1.4,1.61,1.44.17,0,.33,0,.5,0,21.15,0,42.29,0,63.44,0,.18,0,.36,0,.55,0,.2,0,.38-.05.58-.18ZM98.24,64.15c0-3.99,0-7.98,0-11.97,0-.35-.09-.53-.43-.67-7.08-3.03-14.15-6.07-21.22-9.11-.27-.12-.5-.11-.77,0-7.06,3.04-14.12,6.07-21.18,9.09-.35.15-.46.33-.46.7.01,7.53,0,15.05,0,22.58,0,.77.05,1.54.18,2.29.68,3.8,2.58,6.83,5.74,9.08,5.2,3.69,10.41,7.37,15.62,11.05.58.41.39.39.95,0,5.18-3.66,10.37-7.32,15.54-11,3.96-2.82,5.94-6.69,5.99-11.52.03-3.51,0-7.01,0-10.52ZM77.9,39.27v-.68c0-11.05,0-22.09,0-33.14,0-.14,0-.27,0-.41-.03-.95-.73-1.63-1.68-1.66-.15,0-.3,0-.45,0-21.14,0-42.29,0-63.43,0-.17,0-.33,0-.5,0-.91.03-1.6.7-1.65,1.6-.02.35-.01.69,0,1.04,0,.8-.1.7.69.7,13.74,0,27.48,0,41.21,0,.77,0,1.38.24,1.94.79,6.56,6.55,13.14,13.08,19.73,19.6.56.55.8,1.16.79,1.93-.02,3.21,0,6.41,0,9.62,0,.18-.03.36.05.55.29-.06.54-.19.8-.31.56-.26,1.11-.26,1.66,0,.26.12.52.22.86.36ZM54.22,12.69c-.06.05-.02.18-.02.3,0,4.05,0,8.1,0,12.14,0,1.11.7,1.8,1.83,1.81,4.07,0,8.15,0,12.22,0,.11,0,.24.05.31-.05-4.78-4.74-9.56-9.47-14.34-14.2Z"/>
      <path class="cls-8" d="M54.22,12.69c4.78,4.73,9.55,9.46,14.34,14.2-.06.09-.2.05-.31.05-4.07,0-8.15,0-12.22,0-1.12,0-1.83-.69-1.83-1.81,0-4.05,0-8.1,0-12.14,0-.11-.04-.24.02-.3Z"/>
      <path class="cls-3" d="M37.22,37.04c-8.86,0-17.72,0-26.58,0-.18,0-.36,0-.55,0-.93-.05-1.63-.77-1.63-1.67,0-.9.69-1.63,1.61-1.7.14,0,.27,0,.41,0,17.85,0,35.71,0,53.56,0,.26,0,.51,0,.77.07.78.22,1.3.94,1.25,1.73-.05.82-.68,1.47-1.5,1.56-.21.02-.42.02-.64.02-8.9,0-17.81,0-26.71,0Z"/>
      <path class="cls-1" d="M22.09,40.39c3.79,0,7.57,0,11.36,0,.2,0,.39,0,.59.01.88.07,1.53.78,1.53,1.66,0,.88-.64,1.6-1.51,1.69-.17.02-.33.01-.5.01-7.69,0-15.38,0-23.08,0-.3,0-.6,0-.9-.1-.73-.27-1.21-1.02-1.11-1.78.1-.8.73-1.41,1.53-1.48.21-.02.42-.01.64-.01,3.82,0,7.63,0,11.45,0Z"/>
      <path class="cls-10" d="M22.04,57.23c-3.88,0-7.75,0-11.63,0-.27,0-.54,0-.81-.09-.75-.27-1.24-1.04-1.13-1.81.12-.82.78-1.42,1.6-1.46.14,0,.27,0,.41,0,7.69,0,15.38,0,23.07,0,.08,0,.15,0,.23,0,.97-.07,1.8.74,1.78,1.7-.02.97-.73,1.66-1.76,1.67-2.3,0-4.6,0-6.9,0-1.62,0-3.24,0-4.86,0Z"/>
      <path class="cls-6" d="M22.01,84.15c-3.88,0-7.75,0-11.63,0-.26,0-.51,0-.76-.08-.76-.26-1.25-1.03-1.14-1.8.11-.82.77-1.43,1.59-1.47.15,0,.3,0,.45,0,7.68,0,15.35,0,23.03,0,.11,0,.21,0,.32,0,.99.02,1.69.73,1.69,1.69,0,.96-.71,1.67-1.7,1.67-3.95,0-7.9,0-11.86,0Z"/>
      <path class="cls-9" d="M21.99,70.69c-3.8,0-7.6,0-11.4,0-.2,0-.39,0-.59-.01-.86-.07-1.53-.81-1.53-1.67,0-.86.67-1.6,1.53-1.68.18-.02.36-.01.54-.01,7.66,0,15.32,0,22.98,0,.18,0,.36,0,.54.01.87.08,1.5.81,1.5,1.69,0,.86-.64,1.57-1.49,1.65-.21.02-.42.01-.64.01-3.82,0-7.63,0-11.45,0Z"/>
      <path class="cls-5" d="M36.46,15.15c2.5,0,5,0,7.5,0,.85,0,1.49.46,1.72,1.21.29.95-.31,1.94-1.29,2.12-.21.04-.42.05-.63.05-4.88,0-9.75,0-14.63,0-.2,0-.39,0-.59-.04-.86-.14-1.46-.87-1.43-1.72.03-.86.71-1.56,1.59-1.63.14-.01.27,0,.41,0,2.45,0,4.91,0,7.36,0Z"/>
      <path class="cls-4" d="M15.23,15.15c1.65,0,3.3,0,4.95,0,.21,0,.42.01.63.07.76.21,1.25.9,1.22,1.7-.03.79-.59,1.44-1.37,1.57-.21.04-.42.05-.63.05-3.18,0-6.35,0-9.53,0-.18,0-.36,0-.54-.03-.9-.13-1.53-.89-1.47-1.76.06-.88.76-1.56,1.67-1.59.51-.02,1.03,0,1.54,0,1.18,0,2.36,0,3.54,0Z"/>
      <g>
        <path class="cls-8" d="M70.1,97.42c-.19.13-.38.17-.58.18-.18,0-.36,0-.55,0-21.15,0-42.29,0-63.44,0-.17,0-.33,0-.5,0-.84-.04-1.48-.61-1.61-1.44-.03-.18-.03-.36-.03-.54,0-27.85,0-55.69,0-83.54,0-.21,0-.42.05-.63.17-.7.6-1.13,1.3-1.3.25-.06.51-.05.77-.05,14.89,0,29.78,0,44.67,0,.72,0,.62-.04.62.64,0,4.83-.01,9.66,0,14.5,0,1.99.93,3.48,2.67,4.46.77.43,1.6.61,2.49.61,4.83,0,9.66,0,14.5,0,.74,0,.67-.1.67.69,0,3.07,0,6.14.01,9.21,0,.39-.1.59-.47.74-1.46.6-2.9,1.23-4.34,1.85-.13.06-.26.15-.44.13-.04-.14.06-.25.09-.37.3-1-.38-2.03-1.43-2.14-.21-.02-.42-.02-.64-.02-7.62,0-15.24,0-22.86,0-.2,0-.39,0-.59.02-.86.07-1.5.77-1.51,1.63-.01.89.62,1.62,1.48,1.71.23.02.45.02.68.02,7.38,0,14.75,0,22.13,0h.5c.03.18-.11.17-.19.21-2.36,1.02-4.72,2.03-7.09,3.05-.14.06-.28.1-.44.09-.15,0-.3,0-.45,0-15.03,0-30.05,0-45.08,0-.26,0-.51,0-.77.06-.76.2-1.29.89-1.27,1.67.02.8.59,1.47,1.39,1.62.26.05.51.04.77.04,13.13,0,26.27,0,39.4,0q.78,0,.78.8c0,.71,0,1.41,0,2.12,0,.43,0,.43-.42.43-.55,0-1.09,0-1.64,0-2.64,0-5.27,0-7.91,0-.23,0-.45,0-.68.06-.83.25-1.31,1.01-1.19,1.89.1.77.78,1.39,1.6,1.4.82.02,1.64,0,2.45,0,2.38,0,4.76,0,7.13,0,.12,0,.24,0,.36,0,.19,0,.28.06.28.26,0,.95,0,1.9,0,2.84,0,.17-.08.25-.25.24-.17,0-.33,0-.5,0-13.16,0-26.33,0-39.49,0-.27,0-.54,0-.81.06-.77.19-1.3.87-1.29,1.65,0,.8.57,1.47,1.37,1.63.24.05.48.04.72.04,13.16,0,26.33,0,39.49,0,.88,0,.75-.1.76.73,0,.72,0,1.45,0,2.17,0,.45,0,.45-.45.45-1.94,0-3.88,0-5.82,0-1.23,0-2.45,0-3.68,0-.2,0-.4,0-.59.04-.83.18-1.37.93-1.3,1.81.06.8.72,1.45,1.54,1.51.18.01.36,0,.55,0,3.03,0,6.06,0,9.09,0,.12,0,.24,0,.36,0,.21-.01.3.07.3.29,0,.93,0,1.87,0,2.8,0,.2-.09.27-.27.26-.17,0-.33,0-.5,0-13.16,0-26.33,0-39.49,0-.26,0-.51,0-.77.05-.76.18-1.31.86-1.31,1.64,0,.76.52,1.43,1.26,1.63.27.07.54.07.81.07,9.38,0,18.75,0,28.13,0,3.91,0,7.82,0,11.72,0,.14,0,.27,0,.41,0,.14,0,.23.06.25.2.16,1.01.43,2,.74,2.97.01.04,0,.09-.01.13-.18.07-.36.04-.54.04-3.45,0-6.91,0-10.36,0-.21,0-.42,0-.63.04-.85.21-1.37.98-1.27,1.88.09.8.78,1.42,1.61,1.44.58.01,1.15,0,1.73,0,3.59,0,7.18,0,10.77,0,.36,0,.57.1.77.4.64.97,1.4,1.86,2.24,2.66.06.06.14.11.17.21-.06.12-.18.08-.28.08-.17,0-.33,0-.5,0-14.95,0-29.9,0-44.85,0-.24,0-.48,0-.73.03-.86.15-1.47.86-1.44,1.71.03.86.7,1.56,1.58,1.64.18.02.36,0,.55,0,16.59,0,33.17,0,49.76,0,.43,0,.78.1,1.13.35,2.73,1.95,5.47,3.88,8.21,5.82.13.09.29.16.41.36ZM37.22,37.03c8.9,0,17.81,0,26.71,0,.21,0,.43,0,.64-.02.82-.09,1.44-.75,1.5-1.56.05-.79-.47-1.51-1.25-1.73-.25-.07-.51-.07-.77-.07-17.85,0-35.71,0-53.56,0-.14,0-.27,0-.41,0-.92.07-1.62.8-1.61,1.7,0,.9.7,1.62,1.63,1.67.18.01.36,0,.55,0,8.86,0,17.72,0,26.58,0ZM22.09,40.39c-3.82,0-7.63,0-11.45,0-.21,0-.42,0-.64.01-.8.07-1.43.68-1.53,1.48-.1.76.38,1.51,1.11,1.78.29.11.59.1.9.1,7.69,0,15.38,0,23.08,0,.17,0,.33,0,.5-.01.87-.08,1.51-.8,1.51-1.69,0-.88-.65-1.59-1.53-1.66-.2-.02-.39-.01-.59-.01-3.79,0-7.57,0-11.36,0ZM22.04,57.23c1.62,0,3.24,0,4.86,0,2.3,0,4.6,0,6.9,0,1.03,0,1.74-.7,1.76-1.67.02-.95-.81-1.77-1.78-1.7-.08,0-.15,0-.23,0-7.69,0-15.38,0-23.07,0-.14,0-.27,0-.41,0-.82.04-1.48.64-1.6,1.46-.11.77.38,1.54,1.13,1.81.26.09.53.09.81.09,3.88,0,7.75,0,11.63,0ZM22.01,84.15c3.95,0,7.9,0,11.86,0,.99,0,1.7-.71,1.7-1.67,0-.96-.71-1.67-1.69-1.69-.11,0-.21,0-.32,0-7.68,0-15.35,0-23.03,0-.15,0-.3,0-.45,0-.82.04-1.48.65-1.59,1.47-.11.77.38,1.54,1.14,1.8.25.09.51.08.76.08,3.88,0,7.75,0,11.63,0ZM21.99,70.69c3.82,0,7.63,0,11.45,0,.21,0,.43,0,.64-.01.85-.08,1.48-.79,1.49-1.65,0-.88-.63-1.61-1.5-1.69-.18-.02-.36-.01-.54-.01-7.66,0-15.32,0-22.98,0-.18,0-.36,0-.54.01-.86.07-1.53.81-1.53,1.68,0,.87.67,1.6,1.53,1.67.2.02.39.01.59.01,3.8,0,7.6,0,11.4,0ZM36.46,15.15c-2.45,0-4.91,0-7.36,0-.14,0-.27,0-.41,0-.88.07-1.56.76-1.59,1.63-.03.85.57,1.57,1.43,1.72.19.03.39.04.59.04,4.88,0,9.75,0,14.63,0,.21,0,.43-.01.63-.05.98-.18,1.58-1.17,1.29-2.12-.23-.75-.86-1.21-1.72-1.21-2.5,0-5,0-7.5,0ZM15.23,15.15c-1.18,0-2.36,0-3.54,0-.51,0-1.03-.01-1.54,0-.91.03-1.61.71-1.67,1.59-.06.88.57,1.63,1.47,1.76.18.03.36.03.54.03,3.18,0,6.35,0,9.53,0,.21,0,.42-.01.63-.05.78-.14,1.34-.79,1.37-1.57.03-.8-.46-1.48-1.22-1.7-.21-.06-.42-.07-.63-.07-1.65,0-3.3,0-4.95,0Z"/>
        <path class="cls-8" d="M98.24,64.15c0,3.51.03,7.01,0,10.52-.04,4.83-2.03,8.7-5.99,11.52-5.17,3.68-10.36,7.34-15.54,11-.56.4-.38.42-.95,0-5.21-3.68-10.41-7.36-15.62-11.05-3.16-2.24-5.07-5.28-5.74-9.08-.13-.76-.18-1.52-.18-2.29,0-7.53,0-15.05,0-22.58,0-.37.1-.55.46-.7,7.06-3.02,14.12-6.05,21.18-9.09.27-.12.49-.12.77,0,7.07,3.05,14.14,6.09,21.22,9.11.34.15.43.32.43.67-.01,3.99,0,7.98,0,11.97ZM72.78,79.1c.68,0,1.13-.3,1.51-.77,4.42-5.5,8.85-11,13.28-16.5.08-.09.15-.19.22-.29.5-.74.35-1.73-.35-2.27-.69-.54-1.7-.47-2.31.18-.12.13-.23.28-.35.42-3.97,4.94-7.95,9.87-11.92,14.81-.38.47-.3.43-.76.09-1.67-1.25-3.34-2.5-5.02-3.73-.79-.58-1.82-.42-2.39.33-.57.75-.42,1.76.35,2.37.26.21.53.4.8.6,1.94,1.44,3.88,2.89,5.81,4.34.35.26.72.45,1.12.44Z"/>
        <path class="cls-8" d="M77.9,39.27c-.33-.14-.6-.24-.86-.36-.56-.26-1.11-.26-1.66,0-.26.12-.51.26-.8.31-.08-.2-.05-.38-.05-.55,0-3.21-.01-6.41,0-9.62,0-.77-.23-1.38-.79-1.93-6.59-6.52-13.16-13.06-19.73-19.6-.56-.56-1.17-.79-1.94-.79-13.74,0-27.48,0-41.21,0-.79,0-.68.1-.69-.7,0-.35-.01-.69,0-1.04.05-.9.74-1.57,1.65-1.6.17,0,.33,0,.5,0,21.14,0,42.29,0,63.43,0,.15,0,.3,0,.45,0,.96.03,1.66.71,1.68,1.66,0,.14,0,.27,0,.41,0,11.05,0,22.09,0,33.14v.68Z"/>
        <path class="cls-7" d="M72.78,79.1c-.4.01-.77-.18-1.12-.44-1.94-1.45-3.88-2.89-5.81-4.34-.27-.2-.54-.39-.8-.6-.77-.61-.91-1.62-.35-2.37.57-.75,1.6-.91,2.39-.33,1.68,1.23,3.35,2.49,5.02,3.73.46.34.38.38.76-.09,3.97-4.94,7.95-9.87,11.92-14.81.11-.14.22-.29.35-.42.61-.65,1.62-.72,2.31-.18.69.55.85,1.53.35,2.27-.07.1-.14.19-.22.29-4.43,5.5-8.86,11-13.28,16.5-.38.48-.83.78-1.51.77Z"/>
      </g>
    </g>
  </g>
</svg>