<svg width="114" height="112" viewBox="0 0 114 112" fill="none" xmlns="http://www.w3.org/2000/svg">
<path d="M47.748 28.8691C45.5389 28.8691 43.748 30.66 43.748 32.8691V48.5566C43.748 49.7648 42.7686 50.7441 41.5605 50.7441V50.7441C40.3524 50.7441 39.373 49.7648 39.373 48.5566V32.8691C39.373 30.66 37.5822 28.8691 35.373 28.8691H25.873C23.6639 28.8691 21.873 30.66 21.873 32.8691V59.8691C21.873 62.0783 23.6639 63.8691 25.873 63.8691H37.1855C38.3936 63.8691 39.373 62.8898 39.373 61.6816V61.6816C39.373 60.4735 40.3524 59.4941 41.5605 59.4941V59.4941C42.7686 59.4941 43.748 60.4735 43.748 61.6816V79.1816C43.748 80.3898 42.7686 81.3691 41.5605 81.3691V81.3691C40.3524 81.3691 39.373 80.3898 39.373 79.1816V72.2441C39.373 70.035 37.5822 68.2441 35.373 68.2441H25.873C23.6639 68.2441 21.873 70.035 21.873 72.2441V86.1191C21.873 88.3283 23.6639 90.1191 25.873 90.1191H48.498C50.7072 90.1191 52.498 88.3283 52.498 86.1191V83.5566C52.498 82.3485 53.4774 81.3691 54.6855 81.3691V81.3691C55.8936 81.3691 56.873 82.3485 56.873 83.5566V86.1191C56.873 88.3283 58.6639 90.1191 60.873 90.1191H79.123C81.3322 90.1191 83.123 88.3283 83.123 86.1191V85.3691C83.123 83.16 84.9139 81.3691 87.123 81.3691H87.873C90.0822 81.3691 91.873 83.16 91.873 85.3691V94.8691C91.873 97.0783 90.0822 98.8691 87.873 98.8691H17.123C14.9139 98.8691 13.123 97.0783 13.123 94.8691V24.1191C13.123 21.91 14.9139 20.1191 17.123 20.1191H87.873C90.0822 20.1191 91.873 21.91 91.873 24.1191V68.6191C91.873 70.8283 90.0822 72.6191 87.873 72.6191H87.123C84.9139 72.6191 83.123 70.8283 83.123 68.6191V54.7441C83.123 52.535 81.3322 50.7441 79.123 50.7441H60.873C58.6639 50.7441 56.873 52.535 56.873 54.7441V70.4316C56.873 71.6398 55.8936 72.6191 54.6855 72.6191V72.6191C53.4774 72.6191 52.498 71.6398 52.498 70.4316V50.3691C52.498 48.16 54.2889 46.3691 56.498 46.3691H79.123C81.3322 46.3691 83.123 44.5783 83.123 42.3691V32.8691C83.123 30.66 81.3322 28.8691 79.123 28.8691H47.748Z" fill="#7ECCFF"/>
<path opacity="0.99" d="M87.7657 30.8463C87.5139 30.8466 87.2646 30.7971 87.0321 30.7008C86.7995 30.6044 86.5883 30.463 86.4106 30.2847L81.0199 24.8942C80.6643 24.534 80.4655 24.0478 80.4671 23.5416C80.4687 23.0354 80.6705 22.5504 81.0284 22.1924C81.3863 21.8345 81.8713 21.6327 82.3775 21.6311C82.8837 21.6295 83.3699 21.8282 83.7301 22.1839L87.7656 26.2194L98.2699 15.7151C98.6301 15.3595 99.1164 15.1608 99.6226 15.1624C100.129 15.164 100.614 15.3658 100.972 15.7237C101.33 16.0816 101.531 16.5666 101.533 17.0728C101.535 17.579 101.336 18.0653 100.98 18.4254L89.1207 30.2848C88.943 30.4631 88.7318 30.6044 88.4992 30.7008C88.2667 30.7972 88.0174 30.8466 87.7657 30.8463Z" fill="white"/>
<path d="M91 3.83331C87.2092 3.83331 83.5035 4.95742 80.3516 7.06348C77.1996 9.16954 74.743 12.163 73.2923 15.6652C71.8416 19.1675 71.4621 23.0212 72.2016 26.7392C72.9412 30.4572 74.7666 33.8724 77.4471 36.5529C80.1276 39.2334 83.5428 41.0588 87.2608 41.7984C90.9787 42.5379 94.8325 42.1584 98.3348 40.7077C101.837 39.257 104.83 36.8004 106.936 33.6484C109.043 30.4965 110.167 26.7908 110.167 23C110.161 17.9184 108.14 13.0467 104.546 9.45352C100.953 5.86033 96.0815 3.83913 91 3.83331V3.83331ZM100.98 18.4254L89.1207 30.2848C88.9428 30.4628 88.7315 30.604 88.499 30.7004C88.2665 30.7967 88.0172 30.8463 87.7656 30.8463C87.5139 30.8463 87.2646 30.7967 87.0321 30.7004C86.7996 30.604 86.5883 30.4628 86.4104 30.2848L81.0199 24.8942C80.6642 24.534 80.4655 24.0478 80.4671 23.5416C80.4687 23.0354 80.6704 22.5504 81.0283 22.1925C81.3863 21.8345 81.8713 21.6327 82.3774 21.6311C82.8836 21.6295 83.3699 21.8282 83.7301 22.1839L87.7656 26.2194L98.2699 15.7152C98.6301 15.3595 99.1163 15.1608 99.6225 15.1624C100.129 15.164 100.614 15.3658 100.972 15.7237C101.33 16.0816 101.531 16.5666 101.533 17.0728C101.534 17.579 101.336 18.0653 100.98 18.4254Z" fill="#0087E2"/>
</svg>
