<?xml version="1.0" encoding="UTF-8"?><svg id="Capa_2" xmlns="http://www.w3.org/2000/svg" viewBox="0 0 653.43 452.27"><defs><style>.cls-1{fill:#1e7250;}.cls-1,.cls-2,.cls-3,.cls-4,.cls-5,.cls-6,.cls-7,.cls-8,.cls-9,.cls-10,.cls-11,.cls-12,.cls-13,.cls-14,.cls-15,.cls-16,.cls-17,.cls-18,.cls-19,.cls-20,.cls-21,.cls-22,.cls-23,.cls-24,.cls-25,.cls-26,.cls-27,.cls-28,.cls-29,.cls-30,.cls-31,.cls-32,.cls-33,.cls-34,.cls-35,.cls-36,.cls-37,.cls-38,.cls-39,.cls-40,.cls-41,.cls-42,.cls-43,.cls-44,.cls-45,.cls-46,.cls-47{stroke-width:0px;}.cls-2{fill:#1d6f4e;}.cls-3{fill:#1b6949;}.cls-4{fill:#1a6234;}.cls-5{fill:#248861;}.cls-6{fill:#258f64;}.cls-7{fill:#a6b3d1;}.cls-8{fill:#1e7254;}.cls-9{fill:#2a9f86;}.cls-48{stroke-linecap:round;stroke-linejoin:round;}.cls-48,.cls-49{fill:none;stroke:#000;stroke-width:11px;}.cls-10{fill:#1b6743;}.cls-11{fill:#299c7f;}.cls-12{fill:#23855d;}.cls-13{fill:#207b57;}.cls-14{fill:#21805b;}.cls-15{fill:#1e7152;}.cls-16{fill:#1e7451;}.cls-17{fill:#1a6535;}.cls-18{fill:#1f7552;}.cls-19{fill:#1d704e;}.cls-20{fill:#1a622e;}.cls-21{fill:#1b6642;}.cls-22{fill:#fbfdfd;}.cls-23{fill:#1a6434;}.cls-24{fill:#1e7351;}.cls-25{fill:#217f5b;}.cls-26{fill:#1d704f;}.cls-27{fill:#269266;}.cls-28{fill:#1b6849;}.cls-29{fill:#42525b;}.cls-30{fill:#1f7753;}.cls-31{fill:#1f7855;}.cls-49{stroke-miterlimit:10;}.cls-32{fill:#217e59;}.cls-33{fill:#289872;}.cls-34{fill:#1f7653;}.cls-35{fill:#22825b;}.cls-36{fill:#fdfdfe;}.cls-37{fill:#248b62;}.cls-38{fill:#c3cddd;}.cls-39{fill:#207c57;}.cls-40{fill:#207a56;}.cls-41{fill:#217d58;}.cls-42{fill:#42a395;}.cls-43{fill:#d5eeff;}.cls-44{fill:#19612a;}.cls-45{fill:#1c6d4c;}.cls-46{fill:#1c6b4c;}.cls-47{fill:#279569;}</style></defs><g id="Capa_1-2"><path class="cls-43" d="M559.4,52.14c-2.37.04-4.75.12-7.12.12-139.46,0-278.93,0-418.39,0-3.11,0-6.2.07-9.25.76-8.14,1.85-13.64,7.98-14.12,15.87-.1,1.56-.08,3.12-.08,4.68,0,119.21,0,238.42.02,357.63,0,2.76-.07,5.62.59,8.28,1.7,6.86,8.8,12.17,16.33,12.59,2,.11,4.02.08,6.03.08,152.44,0,304.88,0,457.33,0,2,0,4.01-.15,6.01-.23-1.47-.62-2.89-1.39-4.42-1.83-12.9-3.73-21.98-11.51-28.01-22.9-5.12-9.67-5.22-19.91-4.75-30.3-.06-1.38-.17-2.77-.17-4.15,0-113.52,0-227.04.01-340.57ZM156.9,306.1c0-27.59-.02-55.18.01-82.77,0-6.81,3.78-10.95,9.66-10.88,5.78.08,8.98,3.83,9,10.73.04,15.27.2,30.54-.1,45.81-.09,4.59,1.27,5.89,6.13,5.85,25.59-.22,51.18-.12,76.77-.09,6.52,0,10.84,3.42,10.96,8.45.13,5.39-4.19,9.11-10.93,9.26-4.2.1-8.42.23-12.61-.04-3.63-.23-4.69,1-4.62,4.39.21,9.89.12,19.78.05,29.67-.04,6.4-3.39,9.98-9.16,10.06-6.04.08-9.44-3.53-9.48-10.26-.06-9.72-.17-19.44.07-29.15.09-3.58-.93-4.8-4.86-4.73-12.24.23-24.5.24-36.74,0-4.21-.08-5.61.93-5.58,5.15.21,26.2.21,52.41,0,78.61-.04,4.29,1.48,5.11,5.6,5.09,36.92-.13,73.85-.17,110.77.03,4.86.03,5.57-1.58,5.55-5.66-.17-29.5-.1-59-.07-88.5,0-1.9-.07-3.87.44-5.67,1.86-6.59,9.96-8.95,15.2-4.57,2.94,2.46,3.05,5.69,3.05,9.06-.03,30.02.03,60.04-.08,90.06-.01,3.43.23,5.88,4.85,5.2,1.6-.24,3.29-.13,4.93.01,5.75.52,9.12,4.06,8.92,9.25-.22,5.57-4,8.42-11.41,8.42-51.18.02-102.36.01-153.54,0-9.72,0-12.79-2.9-12.79-12.12-.01-26.9,0-53.79,0-80.69ZM273.79,105.52c34.18,0,68.37,0,102.55,0,3.3,0,6.72-.2,9.64,1.38,3.8,2.06,5.74,5.25,4.68,9.6-1.23,5.07-5.06,7.1-10.06,7.15-13.16.14-26.33.31-39.48-.07-5.43-.16-6.58,1.53-6.54,6.42.24,29.67.1,59.35.15,89.02,0,3.8-.37,7.34-4.08,9.62-3,1.85-6.17,2.08-9.35.44-3.53-1.82-5.26-4.74-5.28-8.51-.04-10.06-.22-20.14.08-30.19.12-4-1.27-5.06-5.3-4.91-7.3.28-14.62.04-21.93.08-3.5.02-6.46-.87-8.47-3.82-4.28-6.28-.12-13.53,8.3-13.87,7.66-.31,15.36-.21,23.03-.01,3.4.09,4.38-1.02,4.34-4.17-.16-11.62-.26-23.26.04-34.88.11-4.18-1.28-5.24-5.55-5.2-21.02.19-42.05.24-63.06-.02-5.01-.06-6.4,1.2-6.34,6,.28,21.17.15,42.34.1,63.51-.01,6.44-3.32,10.02-9.07,10.15-6.06.13-9.56-3.48-9.58-10.16-.05-21.52-.12-43.04.08-64.55.04-3.95-1.18-5-5.25-4.92-12.24.24-24.5.26-36.74,0-4.21-.09-5.25,1.22-5.18,5.04.23,12.66.02,25.34.12,38,.03,3.76-1.02,6.85-4.53,8.85-6.63,3.8-14.09-.64-14.16-8.64-.14-15.96-.05-31.93-.05-47.9,0-10.76,2.85-13.44,14.35-13.44,34.18-.01,68.37,0,102.55,0ZM512.95,305.52c0,27.07.04,54.14-.02,81.21-.02,9.31-3.13,12.18-12.77,12.18-33.45,0-66.9,0-100.35,0-6.21,0-12.43.07-18.64-.07-3.83-.08-6.59-2.07-8.06-5.35-1.47-3.29-.88-6.49,1.58-9.23,2.32-2.59,5.46-3.13,8.91-3.13,7.82,0,7.19,1.16,7.19-7.04.02-31.41,0-62.82.03-94.23,0-2.24.09-4.52.51-6.72.9-4.72,4.08-7.38,9.09-7.47,9.32-.17,18.65-.22,27.96.02,5.77.15,9.35,3.9,9.3,8.94-.05,5.12-3.63,8.51-9.47,8.68-4.75.14-9.51.19-14.25,0-3.16-.13-4.07,1.03-4.06,3.93.08,30.02.08,60.04,0,90.06,0,2.88.86,3.93,4.02,3.92,25.22-.1,50.45-.09,75.67-.01,2.89,0,4.26-.56,4.25-3.7-.1-30.19-.08-60.39-.02-90.58,0-2.7-.98-3.66-3.82-3.61-7.49.13-14.99.07-22.48.03-6.41-.04-10.88-3.51-11.04-8.46-.18-5.32,4.27-9.18,10.88-9.26,6.95-.08,13.91-.31,20.83.08,4.72.26,5.8-1.33,5.7-5.56-.28-12.49-.2-24.99-.05-37.48.08-6.23,3.81-10.09,9.29-10.22,5.49-.13,9.15,3.5,9.74,9.78.15,1.55.07,3.12.07,4.68,0,26.2,0,52.41,0,78.61ZM469.98,105.52c10.41,0,20.83-.08,31.24.03,6.4.07,10.73,2.41,11.04,7.24,1.23,19.02,1.39,38.1-.08,57.12-.42,5.37-6.46,8.17-11.56,6.5-5.35-1.76-6.83-5.8-6.82-10.69.02-12.32-.19-24.63.11-36.94.1-4.26-1.44-5.21-5.62-5.15-15.89.2-31.79.11-47.69.07-7.79-.02-11.98-3.33-11.9-9.23.07-5.64,4.15-8.85,11.68-8.92,9.87-.09,19.73-.02,29.6-.02Z"/><path class="cls-38" d="M559.4,52.14c0,113.52-.01,227.04-.01,340.57,0,1.38.11,2.77.16,4.15,2.44-.36,2.28-2.52,2.84-3.99,6.78-17.71,24.51-29.55,44.19-29.39,12.66-.19,23.25,4.3,32.41,12.46,6.84,6.09,10.4,13.88,13.69,21.9.1-1.73.28-3.45.28-5.18.01-112.46-.05-224.92.07-337.38.02-20.07-8.6-35.07-27.87-43.35-28.98-12.45-64.17,5.7-65.76,40.22Z"/><path class="cls-29" d="M606.58,363.48c-19.68-.16-37.41,11.68-44.19,29.39-.56,1.47-.4,3.63-2.84,3.99-.47,10.39-.37,20.63,4.75,30.3,6.03,11.39,15.11,19.18,28.01,22.9,1.53.44,2.95,1.21,4.42,1.83,7.75.43,15.51.96,23.06-1.45,2.44-4.1,7.35-5.96,9.89-10.06,10.39-16.73,2.64-35.31-17.07-40.53-4.28-1.13-6.28-3.35-6.15-7.81.28-9.52.11-19.04.12-28.57Z"/><path class="cls-7" d="M606.58,363.48c-.01,9.52.16,19.05-.12,28.57-.13,4.46,1.86,6.68,6.15,7.81,19.71,5.22,27.46,23.8,17.07,40.53-2.54,4.09-7.45,5.95-9.89,10.06,22.39-6.69,36.02-26.54,33.3-48.5-.17-1.37-.27-2.74-.4-4.11-3.28-8.02-6.85-15.81-13.69-21.9-9.17-8.16-19.76-12.65-32.41-12.46Z"/><path class="cls-36" d="M156.9,306.1c0,26.9,0,53.79,0,80.69,0,9.21,3.07,12.11,12.79,12.12,51.18,0,102.36.01,153.54,0,7.4,0,11.19-2.85,11.41-8.42.2-5.19-3.17-8.74-8.92-9.25-1.63-.15-3.32-.25-4.93-.01-4.62.68-4.86-1.77-4.85-5.2.1-30.02.05-60.04.08-90.06,0-3.37-.11-6.6-3.05-9.06-5.24-4.38-13.35-2.02-15.2,4.57-.51,1.8-.44,3.78-.44,5.67-.02,29.5-.1,59,.07,88.5.02,4.07-.69,5.68-5.55,5.66-36.92-.21-73.85-.17-110.77-.03-4.13.02-5.64-.8-5.6-5.09.22-26.2.21-52.4,0-78.61-.03-4.23,1.37-5.24,5.58-5.15,12.24.24,24.49.23,36.74,0,3.92-.07,4.95,1.15,4.86,4.73-.24,9.71-.12,19.43-.07,29.15.04,6.74,3.44,10.35,9.48,10.26,5.77-.08,9.12-3.66,9.16-10.06.07-9.89.15-19.78-.05-29.67-.07-3.39.99-4.63,4.62-4.39,4.18.27,8.41.14,12.61.04,6.74-.16,11.06-3.88,10.93-9.26-.12-5.02-4.44-8.44-10.96-8.45-25.59-.04-51.18-.14-76.77.09-4.86.04-6.22-1.25-6.13-5.85.3-15.27.14-30.54.1-45.81-.02-6.9-3.22-10.66-9-10.73-5.89-.08-9.66,4.06-9.66,10.88-.03,27.59-.01,55.18-.02,82.77Z"/><path class="cls-22" d="M273.79,105.52c-34.18,0-68.37,0-102.55,0-11.5,0-14.35,2.69-14.35,13.44,0,15.97-.1,31.93.05,47.9.07,8.01,7.53,12.44,14.16,8.64,3.51-2.01,4.56-5.09,4.53-8.85-.1-12.67.11-25.34-.12-38-.07-3.82.97-5.13,5.18-5.04,12.24.26,24.5.25,36.74,0,4.07-.08,5.29.97,5.25,4.92-.2,21.52-.12,43.04-.08,64.55.01,6.69,3.51,10.3,9.58,10.16,5.75-.13,9.06-3.71,9.07-10.15.05-21.17.18-42.34-.1-63.51-.06-4.8,1.33-6.07,6.34-6,21.02.26,42.04.22,63.06.02,4.27-.04,5.65,1.02,5.55,5.2-.3,11.62-.2,23.25-.04,34.88.04,3.15-.94,4.26-4.34,4.17-7.67-.2-15.36-.29-23.03.01-8.42.34-12.59,7.59-8.3,13.87,2.01,2.95,4.97,3.84,8.47,3.82,7.31-.04,14.63.2,21.93-.08,4.03-.15,5.42.9,5.3,4.91-.29,10.06-.12,20.13-.08,30.19.02,3.77,1.75,6.69,5.28,8.51,3.18,1.64,6.35,1.4,9.35-.44,3.71-2.28,4.09-5.82,4.08-9.62-.05-29.67.09-59.35-.15-89.02-.04-4.89,1.11-6.58,6.54-6.42,13.15.38,26.32.21,39.48.07,5-.05,8.83-2.08,10.06-7.15,1.06-4.35-.89-7.54-4.68-9.6-2.91-1.58-6.34-1.39-9.64-1.38-34.18,0-68.37,0-102.55,0Z"/><path class="cls-22" d="M512.95,305.52c0-26.2,0-52.41,0-78.61,0-1.56.07-3.13-.07-4.68-.59-6.28-4.25-9.91-9.74-9.78-5.48.13-9.21,3.99-9.29,10.22-.15,12.49-.23,24.99.05,37.48.1,4.23-.99,5.83-5.7,5.56-6.92-.38-13.89-.16-20.83-.08-6.6.08-11.05,3.94-10.88,9.26.16,4.95,4.63,8.42,11.04,8.46,7.49.05,14.99.1,22.48-.03,2.84-.05,3.83.92,3.82,3.61-.07,30.19-.08,60.39.02,90.58.01,3.13-1.36,3.7-4.25,3.7-25.22-.07-50.45-.09-75.67.01-3.17.01-4.03-1.04-4.02-3.92.08-30.02.08-60.04,0-90.06,0-2.89.9-4.05,4.06-3.93,4.74.19,9.51.15,14.25,0,5.84-.17,9.42-3.56,9.47-8.68.05-5.04-3.54-8.79-9.3-8.94-9.32-.24-18.64-.19-27.96-.02-5.01.09-8.19,2.75-9.09,7.47-.42,2.2-.51,4.48-.51,6.72-.03,31.41,0,62.82-.03,94.23,0,8.2.63,7.05-7.19,7.04-3.45,0-6.59.54-8.91,3.13-2.46,2.74-3.04,5.94-1.58,9.23,1.46,3.28,4.23,5.27,8.06,5.35,6.21.13,12.43.07,18.64.07,33.45,0,66.9,0,100.35,0,9.64,0,12.75-2.87,12.77-12.18.06-27.07.02-54.14.02-81.21Z"/><rect class="cls-43" x="130.43" y="91.25" width="406" height="330"/><polyline class="cls-48" points="244.32 225.62 207.71 225.62 207.71 91.25 505.16 91.25 505.16 167.17 505.16 314.44 422.79 314.44 422.79 336.07 326.69 336.07 326.69 313.1 326.69 225.62 290.08 225.62"/><line class="cls-49" x1="422.79" y1="314.44" x2="326.69" y2="314.44"/><polyline class="cls-48" points="422.79 336.07 422.79 361.13 326.69 361.13 326.69 336.07 326.69 361.13 152.79 361.13 152.79 225.62 207.71 225.62"/><line class="cls-48" x1="328.06" y1="91.25" x2="328.06" y2="131.1"/><line class="cls-48" x1="415.16" y1="167.54" x2="505.16" y2="167.54"/><line class="cls-48" x1="536.43" y1="209.1" x2="536.43" y2="231.88"/><line class="cls-48" x1="174.91" y1="152.17" x2="174.91" y2="173.8"/><line class="cls-48" x1="356.43" y1="258.07" x2="356.43" y2="278.57"/><line class="cls-48" x1="220.67" y1="328.67" x2="246.6" y2="328.67"/><line class="cls-48" x1="145.93" y1="382.19" x2="263.38" y2="382.19"/><line class="cls-48" x1="309.15" y1="382.19" x2="287.79" y2="382.19"/><line class="cls-48" x1="513.55" y1="407.25" x2="440.33" y2="407.25"/><line class="cls-48" x1="217.62" y1="407.25" x2="145.93" y2="407.25"/><path class="cls-31" d="M70.58,210.1c-1.07-1.1-2.14-2.19-3.21-3.29-.94-1.76.54-2.6,1.47-3.47,13.05-12.21,25.71-24.83,38.57-37.24,12.87-12.4,25.69-24.85,38.55-37.26,13.02-12.56,25.99-25.16,39.01-37.71,12.86-12.41,25.69-24.85,38.55-37.26,13.02-12.56,26.08-25.06,39.02-37.71,3.22-3.15,6.63-6.15,9.88-9.29.78-.75,1.54-1.99,2.99-1.1,1.21.99,2.6,1.79,3.39,3.22-7.73,8.09-15.99,15.64-23.95,23.49-10.27,10.13-20.72,20.07-31.04,30.15-12.54,12.26-25.2,24.4-37.82,36.58-13.24,12.78-26.44,25.6-39.68,38.38-12.85,12.41-25.69,24.82-38.53,37.24-11.6,11.22-23.36,22.27-34.84,33.63-.68.67-1.3,1.46-2.35,1.62Z"/><path class="cls-40" d="M275.41,5.79c-.83.01-1.37.53-1.92,1.06-4.81,4.61-9.67,9.17-14.44,13.82-10.33,10.06-20.41,20.38-30.99,30.16-6.48,6-12.52,12.43-18.96,18.45-13.28,12.41-26.14,25.25-39.27,37.81-6.3,6.02-12.35,12.28-18.71,18.23-13.35,12.49-26.29,25.4-39.5,38.03-6.37,6.1-12.31,12.67-18.99,18.4-8.01,6.87-14.65,15.15-22.88,21.77-1.04.83-2.32,1.67-2.38,3.29-1.1-.61-1.99-1.43-2.61-2.54-.41-1.46.76-2.14,1.54-2.95,11.58-12.03,23.96-23.25,35.82-35,4.35-4.31,8.81-8.53,13.23-12.79,14.66-14.11,29.27-28.27,43.87-42.45,12.67-12.3,25.38-24.54,38.08-36.81,13.16-12.71,26.28-25.48,39.48-38.16,10.79-10.36,21.51-20.8,32.33-31.13.96-.92,1.72-2.34,3.46-1.92,1.24.59,2.29,1.39,2.84,2.7Z"/><path class="cls-4" d="M111.96,248.72c-1.47-.21-2.8-.72-3.88-1.78-.87-1.41.21-2.25,1-3.04,10.18-10.05,20.46-20,30.89-29.8.47-.44.99-.83,1.44-1.3,9.67-10.12,20.05-19.51,30.05-29.3,14.22-13.92,28.59-27.7,42.88-41.55,12.51-12.13,25.07-24.21,37.6-36.32,13.31-12.86,26.57-25.77,39.93-38.56,6.06-5.8,11.96-11.77,18.06-17.54.99-.93,1.75-2.68,3.69-1.73.76,2.18,1.31,4.35.09,6.56-1.08-.07-1.84.53-2.52,1.24-2.86,2.93-6.09,5.47-8.94,8.38-10.47,10.68-21.47,20.83-32.16,31.28-13.68,13.39-27.49,26.65-41.25,39.96-12.52,12.11-25.06,24.21-37.6,36.31-13.38,12.93-26.73,25.89-40.12,38.81-11.92,11.5-23.94,22.89-35.72,34.54-1.23,1.21-2.43,2.44-3.44,3.84Z"/><path class="cls-2" d="M89.33,228.85c-1.02-.71-1.99-1.46-2.59-2.59-.4-1.6.9-2.32,1.76-3.16,5.2-5.11,10.16-10.47,15.72-15.24,3.5-3,6.62-6.41,9.54-10,1-1.23,2.14-2.42,3.61-3.16,1.96-.76,3.23-2.29,4.41-3.94,4.79-5.17,9.56-10.35,15.04-14.83,1.94-.76,3.2-2.29,4.36-3.92,5.02-6.2,11.64-10.76,16.95-16.65,7.29-6.11,13.68-13.17,20.48-19.79.84-.82,1.61-1.72,2.77-2.13,2.84-1.46,4.63-4.09,6.84-6.24,2.68-2.61,5.5-5.11,7.81-8.08,1.21-1.58,2.47-3.09,4.28-4.03,2.86-1.43,4.67-4.04,6.86-6.2,2.82-2.77,5.79-5.4,8.25-8.52,1.21-1.57,2.47-3.09,4.27-4.03,2.87-1.43,4.69-4.05,6.9-6.22,2.83-2.78,5.83-5.41,8.27-8.57,7.91-7.29,15.2-15.21,23.12-22.49,1.26-1.16,2.62-2.23,3.81-3.48,9.21-9.67,19.34-18.39,28.64-27.97.6-.62,1.2-1.24,2.03-1.57,1.5-.39,2.5.28,3.26,1.49.29,1.41-.73,2.19-1.55,2.99-10.49,10.21-20.87,20.53-31.64,30.44-.32.29-.64.57-.94.89-8.7,9.12-18.09,17.53-27.06,26.38-15.34,15.11-30.95,29.93-46.36,44.97-12.56,12.25-25.23,24.39-37.84,36.58-13.24,12.79-26.39,25.66-39.73,38.35-7.18,6.82-14.02,13.97-21.26,20.72Z"/><path class="cls-46" d="M96.43,235.99c-.82-.49-1.51-1.1-1.92-1.98-.41-1.46.75-2.15,1.54-2.95,11.17-11.2,22.58-22.15,34.15-32.94.31-.29.64-.58.94-.89,10.74-11.18,22.18-21.65,33.27-32.48,13.31-13.01,26.72-25.92,40.11-38.84,12.69-12.26,25.38-24.52,38.07-36.78,13.15-12.71,26.28-25.45,39.47-38.11,5.67-5.44,11.22-11,16.92-16.39.99-.93,1.76-2.69,3.7-1.7.79.48,1.55.99,1.81,1.96-3.02,4.8-7.48,8.23-11.5,12.07-.77.74-1.69,1.33-2.44,2.11-10.76,11.17-22.2,21.64-33.28,32.48-13.31,13.02-26.74,25.91-40.12,38.85-12.23,11.82-24.47,23.61-36.7,35.42-13.39,12.94-26.75,25.9-40.14,38.83-12.54,12.11-25.26,24.04-37.57,36.38-1.9,1.9-3.85,3.74-6.3,4.94Z"/><path class="cls-45" d="M93.22,232.72c-1.11-.6-1.91-1.52-2.61-2.54-.44-1.32.56-2.02,1.3-2.71,9.6-8.94,18.65-18.46,28.41-27.24.32-.29.65-.56.95-.88,7.76-8.22,16.28-15.66,24.31-23.6,15.22-15.05,30.76-29.77,46.08-44.71,12.63-12.31,25.36-24.52,38.04-36.77,13.15-12.7,26.19-25.53,39.47-38.09,8.91-8.42,17.23-17.45,26.56-25.43.87-.74,1.52-1.9,2.94-1.66.87.89,2.21,1.28,2.71,2.56-2.23,1.7-4.22,3.65-6.17,5.65-10.14,10.41-20.82,20.26-31.21,30.41-12.85,12.55-25.79,25.01-38.72,37.48-12.93,12.47-25.82,24.98-38.75,37.45-12.69,12.25-25.36,24.53-38.06,36.77-13.01,12.54-25.97,25.14-39.01,37.64-5.43,5.2-10.71,10.57-16.24,15.67Z"/><path class="cls-20" d="M111.96,248.72c-.86-1.41.47-1.93,1.15-2.6,11.35-11.17,22.53-22.53,34.17-33.39,6.14-5.73,11.92-11.81,18.04-17.54,13.57-12.73,26.76-25.85,40.19-38.72,6.06-5.8,11.91-11.82,18.03-17.55,13.58-12.72,26.76-25.85,40.19-38.72,5.9-5.65,11.65-11.46,17.56-17.1,10.03-9.57,20.03-19.18,30.08-28.73.59-.56,1.58-2.65,2.35,0-.2,2.5-1.56,4.44-3.23,6.11-11.48,11.56-23,23.07-34.52,34.59-.28.28-.71.39-1.07.59-1.75-.13-2.61,1.31-3.55,2.3-12.2,12.92-25.75,24.43-38.35,36.94-13.05,12.96-26.39,25.64-39.63,38.4-12.78,12.32-25.52,24.67-38.29,37-11.99,11.58-24.08,23.07-35.98,34.75-1.37,1.35-2.45,3-4.11,4.07-.63.03-1.26.13-1.84-.23-.4-.05-.79-.11-1.19-.16Z"/><path class="cls-44" d="M115.21,248.79c.02-1.37,1.11-2.04,1.94-2.85,5.99-5.87,11.93-11.79,18.04-17.54,11.67-10.99,22.82-22.52,34.43-33.58,13.01-12.38,25.84-24.95,38.75-37.42,12.99-12.55,25.87-25.23,39.02-37.61,7.83-7.36,15.66-14.71,23.36-22.21,1.06-1.03,2.02-2.91,4.14-1.94-15.79,15.96-31.53,31.98-47.38,47.88-33.27,33.37-66.61,66.67-99.92,100-2.68,2.69-5.45,5.23-9.57,5.37-.95.29-1.89.49-2.81-.11Z"/><path class="cls-3" d="M96.43,235.99c1.16-2.34,3.63-3.29,5.37-5.02,11.37-11.31,22.66-22.71,34.38-33.65,6.46-6.02,12.52-12.43,18.96-18.45,13.28-12.41,26.15-25.25,39.28-37.82,6.14-5.88,12.06-11.97,18.26-17.78,13.27-12.42,26.15-25.26,39.28-37.82,6.38-6.1,12.55-12.39,18.94-18.48,11.2-10.69,22.39-21.38,33.58-32.08.54,1.24,2.25,1.24,2.71,2.56-8.57,7.52-16.07,16.14-24.65,23.65-.57.5-1.15.97-1.67,1.52-10.74,11.17-22.11,21.7-33.26,32.45-14.94,14.4-30.18,28.49-44.99,43.02-4.44,4.36-8.96,8.67-13.45,13-14.86,14.34-29.69,28.7-44.52,43.07-10.5,10.18-21.01,20.34-31.57,30.45-4.03,4.12-8.23,8.05-12.56,11.86-.64.56-1.18,1.25-2.11,1.36-.85-.42-1.53-1.01-1.98-1.85Z"/><path class="cls-16" d="M284.45,14.83c.69.64,1.39,1.29,2.08,1.93-2.23,1.7-4.23,3.63-6.18,5.64-10.11,10.44-20.81,20.28-31.21,30.41-12.87,12.53-25.79,25.01-38.72,37.48-12.93,12.47-25.82,24.99-38.75,37.46-13.01,12.54-25.97,25.14-38.98,37.69-12.78,12.32-25.55,24.65-38.32,36.97-5.33,5.15-10.61,10.36-16.02,15.43-1.12-.62-1.94-1.55-2.66-2.59,2.95-4.38,7.03-7.68,10.81-11.25,1.24-1.17,2.6-2.2,3.78-3.45,10.97-11.25,22.5-21.92,33.74-32.89,11-10.74,22.13-21.35,33.18-32.05,14.75-14.29,29.57-28.51,44.3-42.83,6.01-5.84,12-11.72,18.02-17.55,9.87-9.58,19.53-19.38,29.57-28.77,9.59-8.96,19.17-17.91,28.4-27.24,1.44-1.46,3.19-2.55,4.69-3.94.61-.57,1.34-1.19,2.27-.46Z"/><path class="cls-21" d="M104.19,243.76c-.43-.43-.86-.86-1.3-1.3-.85-1.71.51-2.58,1.44-3.51,4.27-4.34,8.59-8.63,12.9-12.94.31-.33.64-.65.96-.96,5.13-5.07,10.2-10.2,15.3-15.3,1.08-1.02,2.1-2.11,3.34-2.96,4.69-4.22,9.16-8.66,13.34-13.39,7.24-6.86,14.04-14.21,21.41-20.91,5.49-4.99,10.41-10.55,16.1-15.31,2.29-1.57,3.99-3.75,5.99-5.63.53-.52,1.07-1.02,1.67-1.46,6.28-5.36,11.73-11.56,17.66-17.27,1.08-1.02,2.11-2.12,3.35-2.96,5.62-4.97,10.65-10.54,16.02-15.75,1.17-1.07,2.22-2.27,3.47-3.26.98-.58,1.82-1.3,2.39-2.3,4.2-4.62,8.49-9.15,13.31-13.14,1.16-.97,2.23-2.03,3.28-3.11,11.53-11.76,23.73-22.83,35.34-34.51,5.82-4.73,10.66-10.48,16.11-15.6.97-.91,1.69-2.3,3.37-2.12.35.92,1.77,1.11,1.63,2.37-.08.29-.22.55-.43.77-2.33,2.01-4.6,4.07-6.41,6.59-.43.59-.94,1.11-1.53,1.56-1.1.66-2.04,1.53-2.96,2.41-.22.2-.46.37-.7.53-5.19,4.78-10.5,9.44-14.74,15.14-1.37,2.57-4.05,3.8-5.97,5.82-10.71,11.22-22.17,21.68-33.25,32.51-12.85,12.56-25.81,25.02-38.75,37.5-12.94,12.47-25.83,25-38.77,37.48-12.86,12.4-25.59,24.95-38.59,37.19-8.38,7.89-16.05,16.52-24.98,23.83Z"/><path class="cls-24" d="M78.35,217.85c0-1.37,1.06-2.06,1.89-2.87,9.61-9.41,19.02-19.03,28.92-28.13,6.19-5.69,11.92-11.8,18.04-17.54,13.58-12.72,26.76-25.85,40.19-38.72,5.98-5.73,11.76-11.66,17.8-17.32,13.65-12.8,26.96-25.95,40.4-38.97,5.55-5.37,11.04-10.81,16.65-16.12,13.89-13.17,27.72-26.41,41.23-39.97.87-.87,1.74-1.61,3.07-1.43.57.28,1.09.6,1.15,1.32-.3,1.49-1.5,2.31-2.45,3.32-8.36,8.84-17.49,16.89-26.15,25.42-14.7,14.5-29.65,28.76-44.49,43.13-11.74,11.37-23.55,22.69-35.3,34.05-13.61,13.16-27.18,26.37-40.8,39.51-12.93,12.47-25.82,24.99-38.78,37.42-6.52,6.25-12.86,12.67-19.43,18.86-.65-.65-1.29-1.3-1.94-1.95Z"/><path class="cls-17" d="M302.69,51.03c.25-.62.68-1.05,1.29-1.29,2.11-2.6,4.47-4.96,7.07-7.08,0,0,.23-.22.23-.22,1.12.84,1.8,1.95,2,3.35-14.74,13.37-28.44,27.83-43.16,41.21-.32.29-.64.58-.93.89-10.76,11.17-22.14,21.7-33.31,32.43-7.83,7.53-15.26,15.47-23.46,22.62-2.24,1.95-4.35,4.13-6.44,6.28-10.59,10.87-21.76,21.16-32.62,31.76-13.31,13.01-26.64,26.02-40.16,38.8-9.06,8.57-17.47,17.82-27.04,25.85-.65-.63-1.31-1.26-1.96-1.89,0-1.09.65-1.82,1.42-2.42,6.37-5.01,11.53-11.27,17.41-16.78,13.64-12.8,26.9-25.99,40.41-38.93,6.29-6.03,12.35-12.28,18.71-18.23,13.35-12.49,26.29-25.39,39.49-38.03,6.21-5.95,12.2-12.12,18.48-18,13.42-12.57,26.65-25.33,39.62-38.35,1.35-1.36,3.36-2,4.22-3.89,4.92-5.43,10.09-10.6,15.52-15.51,1.21-.7,2.05-1.86,3.23-2.59Z"/><path class="cls-1" d="M80.28,219.8c.02-1.5,1.22-2.22,2.11-3.1,9.59-9.41,19.08-18.94,28.86-28.15,7.84-7.37,15.22-15.2,23.16-22.43,5.89-5.37,11.2-11.31,17.14-16.59,7.97-7.08,15.03-15.09,22.93-22.21,6.49-5.84,12.36-12.26,18.72-18.2,12.49-11.66,24.66-23.65,36.97-35.5,4.95-4.77,9.74-9.71,14.83-14.33,8.12-7.38,15.53-15.5,23.65-22.86,6.54-5.93,12.41-12.52,19.03-18.34.49.61.98,1.22,1.47,1.83.44,1.17-.4,1.85-1.07,2.48-9.7,9.16-19.03,18.72-28.85,27.75-.47.44-.99.83-1.44,1.3-9.75,10.2-20.27,19.61-30.28,29.54-7.87,7.8-15.86,15.5-23.85,23.18-12.65,12.15-25.23,24.38-37.85,36.56-13.24,12.79-26.44,25.61-39.69,38.38-12.7,12.26-25.54,24.37-38.05,36.83-1.97,1.96-4.02,3.87-6.52,5.19l-1.27-1.33Z"/><path class="cls-39" d="M63.49,202.93c-.85-.41-1.53-1.01-1.98-1.84-.81-1.39.15-2.3,1-3.06,8.86-7.85,16.76-16.7,25.61-24.55.56-.5,1.16-.97,1.68-1.51,10.59-11.02,21.86-21.34,32.79-32,14.4-14.04,28.88-27.99,43.33-41.98,5.95-5.76,11.77-11.65,17.8-17.32,13.62-12.83,26.89-26.03,40.41-38.95,6.3-6.02,12.32-12.32,18.74-18.21,4.6-4.22,9.15-8.47,13.49-12.95,2.51-2.35,4.74-5.01,7.4-7.18,1.16-.95,2.18-2.46,4.07-2.16.64.18,1.51-.36,1.9.61.48,1.48-.74,2.14-1.51,2.92-12.03,12.16-24.39,23.99-36.88,35.67-.31.29-.63.58-.93.89-10.74,11.18-22.18,21.64-33.26,32.47-13.31,13-26.72,25.91-40.11,38.84-12.46,12.03-24.92,24.05-37.37,36.09-13.38,12.94-26.73,25.9-40.16,38.78-5.35,5.13-10.53,10.45-16.02,15.43Z"/><path class="cls-8" d="M81.56,221.13c1.34-2.6,4.07-3.75,6.05-5.71,11.37-11.29,22.65-22.69,34.36-33.62,6.45-6.02,12.51-12.42,18.95-18.44,13.27-12.4,26.13-25.24,39.25-37.79,6.37-6.09,12.5-12.43,18.93-18.45,13.27-12.4,26.12-25.24,39.25-37.79,6.61-6.31,13-12.84,19.61-19.15,9.71-9.27,19.42-18.55,29.11-27.84.77-.74,1.39-1.62,2.09-2.43.65.65,1.29,1.29,1.94,1.94.41,1.72-1.13,2.3-1.94,3.32-.22.2-.46.38-.71.54-1.41.79-2.45,2.01-3.56,3.15-5.29,5.19-10.44,10.51-15.75,15.68-.22.2-.45.37-.7.53-.88.5-1.64,1.17-2.33,1.91-5.28,5.19-10.43,10.51-15.74,15.68-.22.2-.46.37-.7.54-1.41.79-2.45,2.01-3.56,3.15-5.29,5.19-10.45,10.53-15.77,15.7-.22.2-.46.37-.7.54-1.16.64-2.06,1.59-2.95,2.53-5.14,5.07-10.19,10.22-15.33,15.3-.33.32-.68.6-1.06.86-5.93,4.94-10.98,10.8-16.55,16.11-.85.81-1.66,1.67-2.48,2.51-2.29,2.11-4.32,4.49-6.71,6.5-4.59,3.54-8.21,8.08-12.47,11.96-.22.2-.47.38-.71.55-5.41,4.45-9.97,9.79-15.03,14.6-1.01.96-1.95,2-2.99,2.94-.22.2-.47.38-.72.55-5.33,4.37-9.8,9.61-14.78,14.35-1.32,1.26-2.55,2.61-3.9,3.85-.22.2-.47.38-.72.55-5.33,4.37-9.81,9.61-14.78,14.35-1.32,1.26-2.55,2.61-3.9,3.85-.22.2-.47.38-.72.55-5.33,4.37-9.8,9.61-14.77,14.34-1.32,1.26-2.55,2.61-3.9,3.84-.22.2-.47.38-.71.55-3.01,2.1-5.24,5.02-7.92,7.47-.93.85-1.64,2.01-3.01,2.28-.85-.42-1.53-1.01-1.98-1.85Z"/><path class="cls-45" d="M298.66,29.08c-3.63,3.35-7.34,6.61-10.88,10.06-11.26,10.96-22.32,22.13-33.7,32.95-13.01,12.38-25.84,24.95-38.76,37.43-12.92,12.48-25.82,24.97-38.74,37.45-13,12.55-25.95,25.15-38.98,37.67-11.78,11.33-23.62,22.6-35.31,34.02-3.91,3.82-8.18,7.27-11.68,11.51-.42-.44-.85-.88-1.27-1.32.02-1.5,1.22-2.22,2.11-3.1,11.42-11.24,22.67-22.67,34.39-33.59,6.45-6.02,12.51-12.42,18.95-18.44,13.27-12.41,26.13-25.24,39.25-37.79,6.37-6.09,12.5-12.43,18.94-18.45,13.27-12.4,26.12-25.24,39.25-37.79,6.61-6.32,12.93-12.92,19.63-19.13,10.87-10.08,21.52-20.4,32.07-30.82.61-.6,1.1-1.3,1.65-1.96.07-.39.29-.64.68-.74.77.72,2.14.75,2.4,2.06Z"/><path class="cls-32" d="M116.46,141.99c13.09-13.17,26.16-26.36,39.27-39.51,6.21-6.23,12.51-12.38,18.76-18.56,2.79-1.48,5.07-3.62,7.24-5.84,10.08-10.3,20.67-20.08,30.98-30.14,12.84-12.54,25.86-24.89,38.7-37.45,3.45-3.37,7.13-6.51,10.49-9.99v.05c.93-.46,1.93-.19,2.9-.24,1.38,1.4.09,2.23-.75,3-2.57,2.36-5.1,4.75-7.54,7.24-22.55,22.18-45.5,43.94-68.12,66.06-10.99,10.75-22.21,21.28-33.19,32.06-8.75,8.59-17.61,17.07-26.46,25.56-6.36,6.11-12.53,12.42-18.93,18.48-14.69,13.89-29.48,27.68-43.88,41.88-1.82,1.8-3.78,3.49-5.69,5.21-.82-.5-1.51-1.11-1.93-1.99-.4-1.33.57-2.02,1.39-2.63,2.95-2.2,5.39-4.92,7.94-7.52,9.64-9.78,19.78-19.06,29.56-28.7,4.96-4.89,10.05-9.66,14.98-14.59,1.26-1.26,2.71-1.85,4.28-2.38Z"/><path class="cls-42" d="M5.31,144.76c-2.48-1.92-4.2-4.31-4.61-7.51-.59-1.65.37-2.7,1.53-3.55,2.45-1.8,4.49-4.02,6.59-6.17,9.97-10.26,20.59-19.87,30.78-29.91,4.66-4.59,9.34-9.21,14.2-13.61,3.54.48,6.28,2.25,8.27,5.19-.16.89-.7,1.55-1.31,2.17-11.71,11.83-23.8,23.28-35.9,34.72-5.15,4.87-10.05,10.02-15.11,14.99-1.37,1.35-2.63,2.85-4.43,3.68Z"/><path class="cls-34" d="M74.47,213.98c-.65-.65-1.3-1.3-1.94-1.95-.46-1.48.76-2.13,1.53-2.93,11.12-11.57,23-22.37,34.44-33.62,5.14-5.05,10.29-10.1,15.52-15.07,14.26-13.59,28.34-27.37,42.48-41.08,12.6-12.21,25.23-24.38,37.85-36.57,13.24-12.79,26.48-25.57,39.71-38.36,4.33-4.19,8.69-8.35,13.03-12.53.84-.81,1.6-1.78,2.9-1.92,1.06.1,1.75.69,2.18,1.64-1.58,4.1-5.46,6.18-8.25,9.21-1.22,1.32-2.78,2.37-4.05,3.68-10.69,11.08-22.04,21.49-33.04,32.24-12.85,12.55-25.8,25.02-38.73,37.49-12.94,12.47-25.83,24.99-38.76,37.46-12.93,12.47-25.91,24.9-38.76,37.46-3.76,3.68-7.73,7.17-11.43,10.93-4.73,4.81-9.62,9.45-14.67,13.91Z"/><path class="cls-18" d="M88.71,199.71c3.46-4.28,7.79-7.66,11.72-11.46,11.52-11.13,22.71-22.62,34.42-33.55,6.45-6.02,12.51-12.42,18.95-18.44,13.27-12.41,26.13-25.24,39.25-37.79,6.37-6.09,12.5-12.43,18.94-18.45,13.27-12.41,26.24-25.12,39.22-37.83,3.58-3.51,7.43-6.76,10.75-10.54,2.15-3.8,5.58-6.47,8.71-9.3,3.34-3.02,6.5-6.2,9.81-9.24.69-.44,1.4-.77,2.18-.21.79.47,1.54.98,1.79,1.95-2.58,1.17-4.56,3.18-6.5,5.1-8.12,8.01-15.97,16.32-24.62,23.75-6.54,5.61-12.49,11.83-18.65,17.79-8.63,8.35-17.12,16.88-25.7,25.29-14.21,13.93-28.65,27.62-42.88,41.54-2.82,2.76-5.81,5.37-8.64,8.14-9.83,9.65-19.48,19.49-29.61,28.82-6.5,5.99-12.35,12.62-19.01,18.39-6.36,5.5-11.79,11.93-18.19,17.35-1.16.34-1.63-.35-1.94-1.29Z"/><path class="cls-33" d="M71.93,99.42c2.78,1.28,4.44,3.77,6.43,5.91-3.59,5.16-8.45,9.1-12.94,13.39-.7.66-1.54,1.18-2.21,1.89-9.66,10.13-20.27,19.3-29.99,29.37-3.74,3.87-7.95,7.23-11.77,11.01-1.93-1.96-3.87-3.92-5.8-5.88-.92-1.42.2-2.29,1.01-3,8.46-7.33,15.79-15.84,24.23-23.18,1.38-1.2,2.7-2.47,3.96-3.8,7.92-8.36,16.67-15.87,24.74-24.06.67-.68,1.29-1.46,2.33-1.63Z"/><path class="cls-28" d="M112.62,224.27c3.78-4.41,8.2-8.17,12.39-12.17,11.67-11.15,22.96-22.69,34.64-33.82,13.16-12.54,26.11-25.28,39.24-37.83,6.61-6.32,12.95-12.9,19.63-19.14,14.53-13.57,28.98-27.22,43.22-41.1,6.08-5.92,11.89-12.16,18.28-17.74,8.75-7.65,16.29-16.55,25.2-24.01.59-.49,1.13-1,1.96-.99.57.27,1.08.61,1.17,1.31-.54,1.95-2.47,2.61-3.71,3.89-4.8,4.93-9.71,9.74-14.55,14.62-2.6,1.94-4.91,4.18-7.16,6.5-10.12,10.43-20.82,20.27-31.22,30.42-12.86,12.55-25.8,25.02-38.74,37.49-12.94,12.47-25.83,24.99-38.76,37.46-12.86,12.4-25.71,24.8-38.55,37.22-6.34,6.13-12.81,12.12-18.98,18.43-.74.76-1.48,1.6-2.69,1.61-.95-.41-1.69-.95-1.38-2.16Z"/><path class="cls-46" d="M93.22,232.72c-.02-1.24.9-1.91,1.66-2.65,9.91-9.71,19.63-19.63,29.83-29.03,6.1-5.62,11.77-11.65,17.81-17.31,13.42-12.57,26.44-25.55,39.72-38.25,6.06-5.8,11.9-11.81,18.02-17.55,13.57-12.72,26.75-25.85,40.18-38.71,5.98-5.73,11.76-11.65,17.79-17.32,13.55-12.74,26.96-25.63,40.08-38.81.86-.87,1.72-1.64,3.06-1.45.43.43.86.86,1.29,1.29-1.38,0-2.03,1.11-2.86,1.91-10.92,10.68-21.7,21.51-32.76,32.03-13.01,12.37-25.83,24.94-38.74,37.41-12.99,12.54-25.93,25.14-38.99,37.62-6.45,6.17-12.65,12.59-19.17,18.68-13.12,12.26-25.82,24.95-38.8,37.35-6.61,6.32-12.86,13-19.66,19.1-6.01,5.39-11.74,11.03-17.18,16.97-.43-.43-.86-.86-1.28-1.3Z"/><path class="cls-9" d="M5.31,144.76c.07-1.45,1.47-1.75,2.27-2.54,10.32-10.18,20.53-20.49,31.11-30.4,7.92-7.41,15.45-15.22,23.37-22.62,2.16,1.72,4.31,3.45,5.82,5.82-.55,1.94-2.47,2.6-3.71,3.9-10.54,11.04-21.84,21.3-32.76,31.96-6.76,6.59-13.45,13.26-20.3,19.76-1.93-1.96-3.87-3.92-5.8-5.88Z"/><path class="cls-6" d="M36.34,175.79c-1.93-1.5-3.62-3.25-5.19-5.12-.86-1.4.18-2.28,1-3.03,9.4-8.65,18.14-17.97,27.62-26.54,2.95-2.67,5.75-5.49,8.48-8.37,5.39-5.7,11.46-10.68,16.97-16.25.73-.73,1.41-1.69,2.7-1.43,2.03,1.89,4.36,3.46,5.96,5.79-10.43,10.54-21.19,20.75-31.99,30.92-2.43,2.29-4.8,4.64-7.12,7.03-5.25,5.4-10.77,10.52-16.3,15.62-.63.58-1.19,1.26-2.12,1.37Z"/><path class="cls-13" d="M63.49,202.93c-.02-1.24.92-1.89,1.68-2.63,9.91-9.71,19.63-19.62,29.82-29.02,5.86-5.4,11.32-11.17,17.11-16.62,13.86-13.04,27.37-26.43,41.09-39.62,5.58-5.36,11.02-10.87,16.64-16.18,13.99-13.21,27.67-26.75,41.55-40.07,6.05-5.81,11.78-11.96,18.05-17.51,7.5-6.64,14.14-14.16,21.57-20.84,6.56-5.9,12.75-12.15,18.74-18.61,1.18-.12,2.12.3,2.82,1.25-.6.44-1.26.82-1.79,1.34-9.17,8.93-18.18,18.02-27.53,26.77-7.39,6.91-14.31,14.3-21.79,21.08-6.23,5.64-11.92,11.8-18.04,17.54-13.57,12.72-26.75,25.85-40.18,38.71-5.98,5.73-11.76,11.65-17.79,17.32-13.41,12.58-26.43,25.57-39.73,38.26-6.77,6.46-13.1,13.38-20.13,19.55-6.73,5.9-12.72,12.52-19.18,18.67-.61.59-1.1,1.31-1.64,1.97-.42-.45-.85-.9-1.27-1.34Z"/><path class="cls-23" d="M106.15,245.64c.48-2.46,2.56-3.73,4.24-5.08,2.28-1.83,4.31-3.88,6.38-5.9,10.54-10.3,20.86-20.84,31.67-30.85,6.55-6.08,12.67-12.58,19.19-18.67,12.96-12.12,25.59-24.57,38.32-36.93,8.08-7.84,16.03-15.82,24.19-23.58,13.17-12.52,26.13-25.25,39.21-37.87,12.61-12.17,25.36-24.19,37.79-36.54,1.79-1.78,3.61-3.66,6.17-4.44.66.58.71,1.26.35,2.01-1.49.06-2.18,1.3-3.07,2.17-11.31,11.06-22.4,22.36-33.97,33.14-6.54,6.1-12.67,12.58-19.19,18.68-13.12,12.27-25.86,24.93-38.79,37.4-13,12.55-25.96,25.14-38.97,37.68-12.7,12.24-25.46,24.41-38.03,36.79-10.34,10.18-20.93,20.11-31.39,30.17-.9.87-2.1,1.6-2.12,3.1-.75-.28-1.55-.48-1.94-1.29Z"/><path class="cls-12" d="M51.19,190.71c-1.81-1.64-3.74-3.16-5.17-5.18-.4-1.6.9-2.34,1.77-3.17,14.32-13.67,28.54-27.44,42.69-41.28,3.14-3.07,6.41-6.05,9.61-9.08.93-.88,1.72-2.41,3.48-1.46,1.93,1.52,3.66,3.23,5.17,5.17-8.26,8.93-17.41,16.96-26.12,25.43-9.8,9.52-19.34,19.31-29.54,28.4-.56.5-1.07,1.07-1.88,1.17Z"/><path class="cls-5" d="M103.57,130.54c-.96-.02-1.55.61-2.18,1.21-5.26,5.05-10.55,10.06-15.78,15.15-10.07,9.81-20.02,19.75-30.2,29.44-3.17,3.02-6.62,5.75-9.39,9.19-1.51-1.51-3.01-3.01-4.52-4.52-.95-1.92.74-2.72,1.68-3.73,6.88-7.42,14.66-13.92,21.76-21.13,9.06-9.2,18.74-17.76,27.74-27.02,1.57-1.61,3.15-3.53,5.73-3.76,1.93,1.52,3.66,3.23,5.17,5.17Z"/><path class="cls-27" d="M87.92,115.05c-3.7,3.11-7.07,6.59-10.59,9.88-9.98,9.33-19.6,19.05-29.39,28.57-4.93,4.8-9.94,9.51-14.9,14.28-.83.8-1.89,1.51-1.89,2.87-1.73-1.73-3.45-3.45-5.18-5.18-.4-1.6.9-2.32,1.77-3.17,11.04-10.82,22.08-21.65,33.38-32.2,5.1-4.76,9.93-9.83,14.84-14.79,1.52-1.53,3.21-2.85,4.9-4.18.72-.57,1.43-1.45,2.53-.65,1.33,1.7,3.67,2.39,4.53,4.55Z"/><path class="cls-10" d="M113.92,226.21c3.09-2.03,5.12-5.16,7.82-7.62,6.29-5.71,12.31-11.71,18.39-17.64,9.87-9.61,19.49-19.48,29.62-28.81,6.58-6.06,12.67-12.58,19.19-18.68,13.12-12.27,25.86-24.93,38.78-37.4,13-12.55,25.95-25.15,39-37.64,6.46-6.17,12.69-12.56,19.19-18.68,1.16-1.09,2.55-1.94,3.84-2.9.57.25,1,.58.65,1.29-6.25,6.63-12.46,13.3-19.45,19.19-.33.28-.64.58-.94.88-9.9,9.68-19.8,19.35-29.68,29.05-.61.59-1.1,1.3-1.65,1.96-.92.57-1.69,1.34-2.59,1.94-.83,1.33-1.9,2.41-3.23,3.23-5.66,5.11-11.05,10.5-16.16,16.16-1.08.86-2.15,1.72-3.23,2.59-4.86,4.1-9.03,8.91-13.62,13.28-1.48,1.41-2.77,3.01-4.48,4.17-.25.62-.68,1.05-1.29,1.29-2.2,1.68-4.15,3.61-5.82,5.82-.43.32-.9.6-1.27.97-9.84,9.61-19.7,19.19-29.47,28.86-2.2,2.18-5.13,3.58-6.75,6.37-4.8,4.25-9.33,8.77-13.58,13.57-1.08.86-2.15,1.72-3.23,2.59-5.44,4.9-10.63,10.05-15.52,15.51-.22.22-.43.43-.65.65-5.45,4.92-10.67,10.07-15.53,15.57l-1.92-2c-.37-1.01.3-1.64.88-2.24,3.44-3.53,6.92-7.02,10.45-10.45.6-.58,1.23-1.25,2.24-.88Z"/><path class="cls-37" d="M98.39,125.37c-2.69,2.12-5.3,4.32-7.74,6.73-10.76,10.64-21.44,21.38-32.48,31.72-5.01,4.7-9.85,9.56-14.8,14.31-.83.8-1.88,1.5-1.88,2.87-1.72-1.74-3.43-3.48-5.15-5.22,4.22-5.32,9.78-9.27,14.51-14.08,9.48-9.63,19.14-19.1,29-28.33,3.99-3.73,7.91-7.54,11.84-11.33.62-.6,1.22-1.23,2.18-1.21,1.71,1.3,3.22,2.81,4.52,4.53Z"/><path class="cls-47" d="M83.39,110.5c-2.38,1.07-4.25,2.84-6.07,4.62-11.55,11.28-22.91,22.75-34.64,33.83-5.7,5.39-11.43,10.73-16.71,16.54-1.51-1.5-3.01-3.01-4.52-4.51.29-2.16,2.07-3.3,3.53-4.4,2.6-1.96,4.76-4.32,7.06-6.56,10.29-10.05,20.36-20.34,30.93-30.09,5.2-4.8,9.92-10.1,15.39-14.6,1.87,1.54,3.71,3.1,5.03,5.17Z"/><path class="cls-42" d="M53.8,84.01c.01,1.24-.92,1.89-1.67,2.63-9.05,8.85-17.9,17.92-27.24,26.45-6.67,6.08-12.88,12.6-19.31,18.9-1.69,1.66-4.55,2.32-4.86,5.26-1.63-5.1-.39-9.7,3.21-13.37,12.14-12.37,24.36-24.65,36.74-36.78,3.57-3.5,8.16-4.62,13.14-3.1Z"/><path class="cls-30" d="M70.58,210.1c4.85-5.32,9.78-10.56,15.33-15.17.58-.48,1.13-1,1.66-1.53,11.52-11.3,22.91-22.74,34.6-33.87,13.16-12.53,26.11-25.28,39.24-37.83,6.53-6.24,12.8-12.75,19.4-18.91,13.12-12.26,25.83-24.95,38.81-37.35,6.54-6.24,12.8-12.75,19.4-18.91,12.65-11.82,25.13-23.81,37.35-36.07.68-.69,1.32-1.45,2.42-1.43.57.27,1.07.6,1.14,1.3-6.01,6.93-13.17,12.68-19.7,19.08-5.07,4.96-10.39,9.69-15.42,14.68-9.18,9.1-18.59,17.95-27.84,26.97-20.65,20.15-41.49,40.1-62.17,60.21-12.96,12.61-25.95,25.19-39.01,37.7-14.69,14.07-29.23,28.29-43.89,42.39-.57-.27-1.11-.58-1.31-1.24Z"/><path class="cls-15" d="M210.24,100.8c.22-.22.43-.43.65-.65,1.95-.63,2.97-2.36,4.31-3.68,4.01-3.97,8.08-7.89,11.94-12.01.64-1,1.54-1.74,2.5-2.41,2.89-1.6,4.83-4.25,7.13-6.5,3.3-3.24,6.65-6.44,9.78-9.86.86-1.21,1.93-2.19,3.14-3.04,3.05-1.73,5.11-4.55,7.56-6.94,3.15-3.07,6.32-6.13,9.31-9.36.44-.79,1.16-1.29,1.88-1.8,2.89-1.6,4.83-4.25,7.13-6.5,3.3-3.24,6.65-6.44,9.78-9.86.86-1.21,1.93-2.19,3.14-3.04,1.61-.3,2.24-2.83,4.39-1.94.08.2.15.4.23.6-.19,1.03-.96,1.66-1.64,2.34-12.43,12.51-25.18,24.7-38.01,36.79-5.4,5.09-10.45,10.55-15.85,15.64-13.14,12.4-25.97,25.12-38.99,37.64-12.94,12.45-25.88,24.9-38.7,37.47-.92.91-1.91,1.74-2.92,2.54-5.31,5.02-10.22,10.48-15.69,15.3-8.31,7.32-15.59,15.68-23.94,22.94-5.35,4.65-9.83,10.23-15.12,14.95-4.97,4.44-9.65,9.18-14.39,13.86-.68.67-1.3,1.45-2.35,1.6-.58-.27-1.11-.58-1.32-1.24-.35-1.23.73-1.68,1.35-2.29,3-2.92,5.73-6.12,9.02-8.75,4.99-4.24,9.3-9.17,14.03-13.68,1.78-1.7,3.34-3.63,5.37-5.07,4.99-4.24,9.3-9.17,14.03-13.68,1.78-1.7,3.34-3.63,5.37-5.07,4.99-4.24,9.3-9.17,14.03-13.68,1.78-1.7,3.34-3.63,5.37-5.07,4.93-4.17,9.16-9.04,13.82-13.48,1.63-1.55,3.06-3.32,4.92-4.62,3.67-2.93,6.68-6.53,10.08-9.74.93-.88,1.77-1.84,2.85-2.54,1.89-2.42,4.05-4.57,6.46-6.46,4.99-4.24,9.3-9.17,14.03-13.68,1.78-1.7,3.34-3.63,5.37-5.07Z"/><path class="cls-41" d="M60.23,199.8c.05-1.62,1.3-2.48,2.34-3.32,6.63-5.37,12.01-12.02,18.34-17.68,8.66-7.73,16.91-15.88,25.3-23.9,3.65-3.48,7.3-6.97,10.92-10.48,8.96-8.68,17.65-17.65,26.87-26.05,6.61-6.02,12.67-12.57,19.18-18.67,13.18-12.35,25.98-25.09,39.04-37.57,6.37-6.09,12.55-12.39,18.93-18.47,11.67-11.12,23.32-22.24,34.98-33.36.61-.18.82.04.65.65-3.78,4.41-8.2,8.17-12.39,12.17-11.66,11.15-22.96,22.68-34.63,33.81-13.38,12.76-26.54,25.74-39.92,38.5-7.24,6.91-14.16,14.12-21.45,20.96-13.33,12.5-26.28,25.39-39.48,38.02-5.9,5.65-11.64,11.46-17.55,17.09-9.26,8.81-18.51,17.63-27.75,26.47-.91.87-2.08,1.62-2.11,3.11-.43-.43-.86-.86-1.29-1.29Z"/><path class="cls-14" d="M116.46,141.99c-2.33,1.35-4.07,3.37-5.96,5.21-9.44,9.23-18.61,18.77-28.42,27.59-7.75,6.96-14.41,15.03-22.59,21.52-.49.39-.8,1-1.19,1.5-.86-.86-1.72-1.73-2.58-2.59-.41-1.46.75-2.16,1.54-2.94,10.98-10.92,22.14-21.65,33.42-32.25,5.33-5.01,10.31-10.39,15.6-15.44,1.87-1.78,3.49-4.1,6.42-4.39,1.62-.17,1.92,2.41,3.75,1.8Z"/><path class="cls-11" d="M71.93,99.42c-3.72,4.29-7.64,8.38-12.07,11.95-.5.4-.98.84-1.44,1.29-11.41,11.19-22.8,22.39-34.23,33.55-2.22,2.16-4.6,4.16-6.87,6.27-.77.72-1.69,1.38-1.67,2.62-.87-.83-1.75-1.66-2.62-2.49-.86-1.56.36-2.43,1.22-3.3,12.1-12.24,24.55-24.11,37.08-35.9,5.01-4.72,9.74-9.74,14.67-14.55.94-.91,1.65-2.39,3.4-1.98.85.85,1.69,1.69,2.54,2.54Z"/><path class="cls-25" d="M261.9.51c-1.48,3.77-4.92,5.77-7.61,8.45-.6.6-1.37,1.04-1.97,1.63-11.44,11.2-22.75,22.54-34.32,33.59-12.5,11.94-25,23.88-37.33,35.99-1.68,1.65-3.43,3.64-6.17,3.75,8.62-8.7,17.22-17.42,25.87-26.09,17.46-17.5,34.95-34.98,52.42-52.47,2.55-2.55,5.26-4.77,9.12-4.86Z"/><path class="cls-26" d="M156.58,155.75c1.34-1.23,2.71-2.43,4.01-3.7,11.22-10.98,22.22-22.19,33.7-32.88,6.53-6.09,12.66-12.57,19.17-18.66,13.19-12.33,25.97-25.08,39.01-37.55,6.45-6.17,12.47-12.78,19.21-18.61,7.49-6.48,13.84-14.11,21.39-20.5.2.2.4.4.6.6.5,1.3-.74,1.45-1.33,2.03-4.73,5.13-9.45,10.27-14.91,14.66-.42.34-.79.73-1.17,1.11-11.44,11.22-22.89,22.41-34.28,33.68-2.13,2.1-4.97,3.45-6.52,6.15-4.3,3.56-7.94,7.79-11.96,11.63-1.16,1.11-2.19,2.35-3.55,3.24-1.55,1.04-2.84,2.33-3.88,3.88-4.3,3.56-7.94,7.79-11.96,11.63-1.16,1.11-2.19,2.35-3.55,3.24-1.55,1.04-2.84,2.33-3.88,3.88-4.31,3.57-7.95,7.82-12,11.66-.93.88-1.69,1.95-2.86,2.56-5.19,5.08-10.43,10.12-15.56,15.27-2.42,2.43-5.03,4.6-7.71,6.7-.65.45-1.29.58-1.94,0Z"/><path class="cls-30" d="M71.9,211.34c.11-1.74,1.49-2.66,2.62-3.5,3.84-2.84,6.9-6.46,10.29-9.75,9.34-9.06,18.43-18.4,28.01-27.2,6.59-6.04,12.67-12.58,19.19-18.67,13.2-12.34,25.98-25.1,39.04-37.58,6.38-6.09,12.51-12.43,18.94-18.46,13.27-12.41,26.14-25.25,39.27-37.81,6.22-5.95,12.25-12.07,18.47-18.01,10.1-9.65,20.19-19.32,30.28-28.98.55-.53,1.09-1.05,1.92-1.07.91.86,1.82,1.72,2.72,2.58-.65.22-1.3.43-1.95.65-1.7-.6-2.83.25-3.92,1.42-4.52,4.88-9.59,9.19-14.4,13.77-.71.67-1.42,1.3-2.36,1.62-.43.32-.9.6-1.28.97-9.01,8.78-17.88,17.71-27.05,26.3-7.61,7.13-14.76,14.75-22.47,21.75-6.37,5.8-12.22,12.1-18.49,17.98-13.41,12.56-26.43,25.54-39.71,38.24-6.29,6.02-12.35,12.28-18.7,18.22-13.34,12.48-26.3,25.36-39.46,38.03-6.89,6.63-13.81,13.21-20.34,20.19l-.62-.7Z"/><path class="cls-11" d="M69.4,96.89c-.51.39-1.07.72-1.52,1.17-9.67,9.44-19.24,18.99-29.03,28.31-8,7.62-15.96,15.28-23.72,23.14-.88.9-2.07,1.62-2.1,3.11-.81-.49-1.5-1.1-1.92-1.98,0-.81.39-1.43.97-1.97,5.64-5.3,10.59-11.32,16.72-16.12.34-.26.63-.59.93-.89,10.76-10.54,21.53-21.08,32.27-31.64,1.84-1.81,3.67-3.63,5.88-4.99.51.62,1.01,1.25,1.52,1.87Z"/><path class="cls-35" d="M112.71,140.2c-2.44,1.92-4.87,3.84-7.09,6.03-11.09,10.96-22.09,22.01-33.44,32.69-5.63,5.3-11.26,10.58-16.47,16.3-.87-.42-1.51-1.07-1.94-1.93-.4-1.9,1.23-2.63,2.22-3.6,12.76-12.49,25.73-24.77,38.47-37.27,4.53-4.45,9.07-8.88,13.82-13.09.7-.62,1.32-1.5,2.49-1.06l1.94,1.94Z"/><path class="cls-35" d="M51.19,190.71c3.08-4.35,7.6-7.2,11.3-10.92,10.37-10.42,20.83-20.77,31.54-30.84,4.22-3.97,8.36-8.01,12.53-12.03.62-.6,1.22-1.23,2.18-1.21.58.27,1.07.61,1.15,1.32-2.06,3.92-5.84,6.22-8.87,9.2-9.26,9.12-18.77,17.98-27.98,27.15-6.54,6.52-13.6,12.51-19.92,19.26-.87-.42-1.51-1.07-1.95-1.93Z"/><path class="cls-19" d="M156.58,155.75h1.94c-3.79,5.01-9.15,8.41-13.34,13.02-1.15,1.27-2.31,2.53-3.47,3.79-1.73,1.04-2.82,2.82-4.53,3.88-5.22,4.69-10.18,9.64-14.87,14.87-1.73,1.04-2.82,2.82-4.53,3.88-3.01,1.98-4.79,5.15-7.3,7.6-7.12,6.97-14.3,13.87-21.43,20.83-.84.82-1.55,1.76-2.32,2.64-.42-.45-.85-.89-1.27-1.34,4.51-4.89,8.99-9.81,14.22-13.97.42-.33.79-.72,1.18-1.1,11.36-11.14,22.5-22.5,34.14-33.33,7.32-6.8,14.06-14.18,21.57-20.76Z"/><path class="cls-35" d="M53.14,192.64c1.42-3.56,4.68-5.5,7.24-8.03,1.12-1.1,2.46-2.05,3.61-3.18,11.29-11.07,22.44-22.3,33.95-33.14,3.98-3.75,7.79-7.71,11.96-11.26.29.41.58.82.88,1.22-2.58,2.25-5.28,4.37-7.73,6.76-11.48,11.17-22.8,22.52-34.37,33.59-5.04,4.82-10.32,9.39-14.89,14.68-.21-.22-.43-.43-.64-.65Z"/><path class="cls-10" d="M290.4,58.14c-.22-.43-.43-.86-.65-1.29,5.96-6.27,11.7-12.76,18.6-18.07.43.43.86.86,1.29,1.29-5.39,5.32-10.77,10.65-16.18,15.96-.89.87-1.58,2.09-3.06,2.11Z"/><path class="cls-18" d="M88.71,199.71c.65.43,1.29.86,1.94,1.29-4.99,4.75-9.97,9.51-14.96,14.26-.41-.43-.81-.85-1.22-1.28,0-.94.49-1.64,1.18-2.17,4.75-3.61,8.49-8.31,13.06-12.11Z"/><path class="cls-3" d="M113.92,226.21c-4.79,4.26-9.31,8.78-13.57,13.57-.84-.45-1.49-1.1-1.94-1.94,4.27-5.01,9.58-8.94,14.22-13.57.43.65.86,1.29,1.29,1.94Z"/><path class="cls-10" d="M102.26,241.78c0-.94.56-1.57,1.17-2.18,4.07-4.06,8.14-8.13,12.2-12.2.61-.61,1.21-1.21,2.16-1.19-4.27,4.38-8.55,8.75-12.81,13.14-.88.9-2.07,1.62-2.1,3.11-.21-.23-.42-.46-.63-.68Z"/><path class="cls-41" d="M256.79,10.95c-.22-.22-.43-.43-.65-.65,1.78-2.25,3.7-4.36,6.11-5.97,1.37-.92,2.28-2.2,2.95-3.67.44-.45.92-.39,1.42-.1.59-.11,1.03.05,1.24.66-4.3,2.55-7.17,6.71-11.06,9.73Z"/><path class="cls-8" d="M94.52,212.63c-3.46,3.68-6.91,7.36-10.37,11.04-.21-.23-.41-.46-.62-.7,3.47-3.65,6.49-7.78,10.99-10.34Z"/><path class="cls-15" d="M292.85,23.24c-1.7.11-2.42,2.43-4.39,1.94.88-1.11,1.75-2.21,2.63-3.32.54.52,1.47.54,1.76,1.38Z"/><path class="cls-2" d="M292.34,26.47c.44-.68.89-1.35,1.33-2.03.86.86,1.72,1.72,2.58,2.58-.23.25-.45.49-.68.74-1.02-.58-1.87-1.56-3.23-1.29Z"/><path class="cls-25" d="M266.61.57c-.47.03-.94.06-1.42.1-1.1-.04-2.2-.07-3.31-.11,1.58-.78,3.15-.7,4.72.01Z"/><path class="cls-4" d="M115.21,248.79c.93.04,1.87.08,2.81.11-1.63.74-3.25.7-4.87-.03.69-.03,1.38-.06,2.07-.09Z"/><path class="cls-2" d="M219.94,96.93c4.68-4.78,9.36-9.56,14.07-14.31.33-.33.95-.38,1.44-.56-4.68,4.78-9.36,9.56-14.07,14.31-.33.33-.95.38-1.44.56Z"/><path class="cls-2" d="M200.54,115.67c4.68-4.78,9.36-9.56,14.07-14.31.33-.33.95-.38,1.44-.56-4.68,4.78-9.36,9.56-14.07,14.31-.33.33-.95.38-1.44.56Z"/><path class="cls-2" d="M181.8,133.77c4.47-4.56,8.93-9.13,13.42-13.66.33-.33.96-.38,1.44-.56-4.69,4.78-9.37,9.57-14.07,14.34-.26.26-.57.19-.8-.12Z"/><path class="cls-2" d="M137.19,176.44c1.28-1.56,2.32-3.4,4.53-3.88-1.28,1.56-2.32,3.4-4.53,3.88Z"/><path class="cls-2" d="M117.8,195.18c1.28-1.56,2.32-3.4,4.53-3.88-1.28,1.56-2.32,3.4-4.53,3.88Z"/><path class="cls-10" d="M195.37,150.58c5.54-5.64,11.08-11.28,16.65-16.89.33-.34.96-.38,1.45-.56-5.54,5.64-11.08,11.28-16.65,16.89-.33.34-.96.38-1.45.56Z"/><path class="cls-10" d="M216.71,130.54c-.02-.96.6-1.57,1.21-2.18,4.26-4.25,8.52-8.51,12.77-12.77.61-.61,1.22-1.23,2.18-1.21-5.12,5.65-10.51,11.04-16.16,16.16Z"/><path class="cls-10" d="M118.44,225.56c-.08-.08-.22-.21-.22-.22,4.88-5.47,9.63-11.08,15.73-15.3-4.9,5.44-10.08,10.61-15.52,15.51Z"/><path class="cls-21" d="M299.45,53.62c-4.9,5.44-10.08,10.61-15.52,15.51-.02-1.09.74-1.71,1.42-2.38,3.9-3.91,7.81-7.81,11.72-11.72.67-.67,1.29-1.44,2.38-1.41Z"/><path class="cls-10" d="M137.19,207.46c.1-1.73,1.52-2.55,2.59-3.5,3.72-3.3,6.46-7.67,10.99-10.07-4.26,4.79-8.79,9.32-13.58,13.57Z"/><path class="cls-21" d="M311.05,42.66c-2.08,2.63-4.45,4.98-7.07,7.08,1.58-3.13,3.94-5.49,7.07-7.08Z"/><path class="cls-10" d="M188.26,157.69c1.16-2.72,3.1-4.66,5.82-5.82-1.68,2.2-3.62,4.14-5.82,5.82Z"/><path class="cls-21" d="M302.69,51.03c-.81,1.2-1.59,2.43-3.23,2.59.81-1.2,1.59-2.43,3.23-2.59Z"/><path class="cls-10" d="M236.1,111.15c.57-1.04,1.28-1.89,2.59-1.94-.57,1.04-1.28,1.89-2.59,1.94Z"/><path class="cls-15" d="M285.88,28.41c-5.03,5.13-10.06,10.26-15.09,15.4-.67.68-1.49.79-2.37.76,5.12-5.65,10.51-11.04,16.16-16.16.43-.37.86-.4,1.29,0Z"/><path class="cls-15" d="M247.09,65.9c-5.03,5.13-10.06,10.26-15.09,15.4-.67.68-1.49.79-2.37.76,5.12-5.65,10.51-11.04,16.16-16.16.43-.37.86-.4,1.29,0Z"/><path class="cls-15" d="M267.13,46.51c-5.03,5.13-10.06,10.26-15.09,15.4-.67.68-1.49.79-2.37.76,5.12-5.65,10.51-11.04,16.16-16.16.43-.37.86-.4,1.29,0Z"/><path class="cls-15" d="M227.7,84.64c-5,5.1-9.99,10.21-14.99,15.3-.52.53-1.09,1.17-1.81.22,4.9-5.44,10.08-10.61,15.52-15.51.43-.37.86-.4,1.29,0Z"/><path class="cls-8" d="M210.24,100.8c-5.66,6.38-11.95,12.14-17.95,18.19-.33.33-.96.38-1.44.56,5.66-6.38,11.95-12.14,17.95-18.19.33-.33.96-.38,1.44-.56Z"/><path class="cls-8" d="M152.71,156.4c-5.66,6.38-11.95,12.14-17.95,18.19-.33.33-.96.38-1.44.56,5.66-6.38,11.95-12.14,17.95-18.19.33-.33.96-.38,1.44-.56Z"/><path class="cls-8" d="M133.31,175.14c-5.66,6.38-11.95,12.14-17.95,18.19-.33.33-.96.38-1.44.56,5.66-6.38,11.95-12.14,17.95-18.19.33-.33.96-.38,1.44-.56Z"/><path class="cls-8" d="M113.92,193.89c-5.66,6.38-11.95,12.14-17.95,18.19-.33.33-.96.38-1.44.56,5.66-6.38,11.95-12.14,17.95-18.19.33-.33.96-.38,1.44-.56Z"/><path class="cls-8" d="M171.45,138.3c-5.76,5.85-11.51,11.71-17.3,17.54-.33.34-.96.38-1.45.56,5.76-5.85,11.51-11.71,17.3-17.54.33-.34.96-.38,1.45-.56Z"/><path class="cls-8" d="M184.38,126.02c-4.13,4.28-7.78,9.08-12.93,12.28,4.13-4.28,7.78-9.08,12.93-12.28Z"/><path class="cls-8" d="M247.09,65.9h-1.29c1.04-1.38,1.94-2.93,3.88-3.23-.86,1.08-1.72,2.15-2.59,3.23Z"/><path class="cls-8" d="M285.88,28.41h-1.29c1.04-1.38,1.94-2.93,3.88-3.23-.86,1.08-1.72,2.15-2.59,3.23Z"/><path class="cls-8" d="M227.7,84.64h-1.29c.81-1.2,1.59-2.43,3.23-2.59-.65.86-1.29,1.72-1.94,2.59Z"/><path class="cls-8" d="M267.13,46.51h-1.29c.57-1.04,1.28-1.89,2.59-1.94-.43.65-.86,1.29-1.29,1.94Z"/><path class="cls-30" d="M260.02,30.35c6.03-5.92,12.06-11.85,18.1-17.76,1.5-1.47,1.93.09,2.59.95-5.64,6.66-12.63,11.93-18.75,18.1l-1.94-1.29Z"/></g></svg>