<?xml version="1.0" encoding="UTF-8"?>
<svg id="Capa_2" data-name="Capa 2" xmlns="http://www.w3.org/2000/svg" viewBox="0 0 111.93 134.17">
  <defs>
    <style>
      .cls-1 {
        fill: #6a574d;
      }

      .cls-1, .cls-2, .cls-3, .cls-4, .cls-5, .cls-6, .cls-7, .cls-8, .cls-9, .cls-10, .cls-11, .cls-12, .cls-13, .cls-14, .cls-15, .cls-16, .cls-17, .cls-18, .cls-19, .cls-20, .cls-21, .cls-22, .cls-23, .cls-24, .cls-25, .cls-26, .cls-27, .cls-28, .cls-29, .cls-30, .cls-31, .cls-32, .cls-33, .cls-34, .cls-35, .cls-36, .cls-37, .cls-38, .cls-39, .cls-40, .cls-41, .cls-42, .cls-43, .cls-44, .cls-45, .cls-46, .cls-47, .cls-48, .cls-49, .cls-50, .cls-51, .cls-52, .cls-53, .cls-54 {
        stroke-width: 0px;
      }

      .cls-2 {
        fill: #686e64;
      }

      .cls-3 {
        fill: #271711;
      }

      .cls-4 {
        fill: #51141e;
      }

      .cls-55 {
        stroke: #000;
        stroke-miterlimit: 10;
      }

      .cls-55, .cls-14 {
        fill: none;
      }

      .cls-5 {
        fill: #e7a508;
      }

      .cls-6 {
        fill: #562d19;
      }

      .cls-7 {
        fill: #3c171f;
      }

      .cls-8 {
        fill: #fab442;
      }

      .cls-9 {
        fill: #a75a0f;
      }

      .cls-10 {
        fill: #a5490e;
      }

      .cls-11 {
        fill: #f1b80c;
      }

      .cls-12 {
        fill: #d5371a;
      }

      .cls-13 {
        fill: #8ab6a7;
      }

      .cls-15 {
        fill: #b7e2e6;
      }

      .cls-16 {
        fill: #2e4548;
      }

      .cls-17 {
        fill: #c55a18;
      }

      .cls-18 {
        fill: #f39322;
      }

      .cls-19 {
        fill: #295a5f;
      }

      .cls-20 {
        fill: #96cbd2;
      }

      .cls-21 {
        fill: #275063;
      }

      .cls-22 {
        fill: #b3390f;
      }

      .cls-23 {
        fill: #4e6363;
      }

      .cls-24 {
        fill: #7a665c;
      }

      .cls-25 {
        fill: #91350b;
      }

      .cls-26 {
        fill: #f4c812;
      }

      .cls-27 {
        fill: #adcec3;
      }

      .cls-28 {
        fill: #c8690e;
      }

      .cls-29 {
        fill: #053c49;
      }

      .cls-30 {
        fill: #db6b1e;
      }

      .cls-31 {
        fill: #112d3b;
      }

      .cls-32 {
        fill: #363042;
      }

      .cls-33 {
        fill: #bdded7;
      }

      .cls-34 {
        fill: #9b8c83;
      }

      .cls-35 {
        fill: #387270;
      }

      .cls-36 {
        fill: #162017;
      }

      .cls-37 {
        fill: #f0f8f7;
      }

      .cls-38 {
        fill: #537975;
      }

      .cls-39 {
        fill: #729393;
      }

      .cls-40 {
        fill: #de8d0a;
      }

      .cls-41 {
        fill: #e2dcc0;
      }

      .cls-42 {
        fill: #bdd3ce;
      }

      .cls-43 {
        fill: #3a1b0b;
      }

      .cls-44 {
        fill: #193237;
      }

      .cls-45 {
        fill: #f4dc28;
      }

      .cls-46 {
        fill: #cd7605;
      }

      .cls-47 {
        fill: #fdd07d;
      }

      .cls-48 {
        fill: #692508;
      }

      .cls-49 {
        fill: #b9b3ae;
      }

      .cls-50 {
        fill: #3e817e;
      }

      .cls-51 {
        fill: #151616;
      }

      .cls-52 {
        fill: #5c3c36;
      }

      .cls-53 {
        fill: #e97a17;
      }

      .cls-54 {
        fill: #b1211b;
      }
    </style>
  </defs>
  <g id="Capa_1-2" data-name="Capa 1">
    <g>
      <rect class="cls-27" x="2.46" width="27.72" height="127.72"/>
      <rect class="cls-27" y="6.68" width="30.18" height="6.42"/>
      <rect class="cls-27" y="16.45" width="30.18" height="6.42"/>
      <rect class="cls-27" y="26.21" width="30.18" height="6.42"/>
      <rect class="cls-27" y="35.98" width="30.18" height="6.42"/>
      <rect class="cls-27" y="46.77" width="30.18" height="6.42"/>
      <rect class="cls-27" y="57.57" width="30.18" height="6.42"/>
      <rect class="cls-27" y="68.36" width="30.18" height="6.42"/>
      <rect class="cls-27" y="78.12" width="30.18" height="6.42"/>
      <rect class="cls-27" y="86.6" width="30.18" height="6.42"/>
      <rect class="cls-27" y="96.37" width="30.18" height="6.42"/>
    </g>
    <path class="cls-33" d="M69.3,34.04v89.65h42.63V34.04h-42.63ZM84.04,116.32h-10v-10h10v10ZM84.04,102.99h-10v-10h10v10ZM84.04,89.13h-10v-10h10v10ZM84.04,75.97h-10v-10h10v10ZM84.04,62.63h-10v-10h10v10ZM84.04,48.6h-10v-10h10v10ZM88.95,116.32h-3.51v-10h3.51v10ZM88.95,102.99h-3.51v-10h3.51v10ZM88.95,89.13h-3.51v-10h3.51v10ZM88.95,75.97h-3.51v-10h3.51v10ZM88.95,62.63h-3.51v-10h3.51v10ZM88.95,48.6h-3.51v-10h3.51v10ZM95.62,116.32h-3.51v-10h3.51v10ZM95.62,102.99h-3.51v-10h3.51v10ZM95.62,89.13h-3.51v-10h3.51v10ZM95.62,75.97h-3.51v-10h3.51v10ZM95.62,62.63h-3.51v-10h3.51v10ZM95.62,48.6h-3.51v-10h3.51v10ZM107.02,116.32h-10v-10h10v10ZM107.02,102.99h-10v-10h10v10ZM107.02,89.13h-10v-10h10v10ZM107.02,75.97h-10v-10h10v10ZM107.02,62.63h-10v-10h10v10ZM107.02,48.6h-10v-10h10v10Z"/>
    <path class="cls-13" d="M23.86,41.35v85.32h35.26V41.35H23.86ZM51.4,120.58h-22.98v-7.11h22.98v7.11ZM51.4,111.23h-22.98v-7.11h22.98v7.11ZM51.4,100.67h-22.98v-7.11h22.98v7.11ZM51.4,90.11h-22.98v-7.11h22.98v7.11ZM51.4,78.93h-22.98v-7.11h22.98v7.11ZM51.4,67.56h-22.98v-7.11h22.98v7.11ZM51.4,56.18h-22.98v-7.11h22.98v7.11Z"/>
    <g>
      <g>
        <path class="cls-14" d="M63.41,120.49c.2,0,.41,0,.61,0,.32-1.38-.12-2.88.09-4.25.02-.15-.08-.31.13-.42,1.68,0,3.36-.01,5.04,0,.52,0,1.05,0,1.58,0v-.18h-8.46c.03,1.62.07,3.23.13,4.85.29,0,.58,0,.88,0Z"/>
        <path class="cls-31" d="M59.95,125.16s.38-.11.57-.14c.35-.07.75-.36,1.05-.21,0-.09.08-.07.09-.07.17-.11.34-.05.53-.07v-.07c-.29.05-.49-.05-.35-.28-1.47-.06-4.56.12-6.49.14-.85,0-1.7,0-2.54,0-1.72,0-3.46-.06-5.17.07.02.07-.04.16.04.21.73.08,1.51.43,2.24.5.5.05,9.54-.02,10.04-.07Z"/>
        <path class="cls-12" d="M61.7,119.36c-1.08-.07-5.08.09-5.48,0-.69-.16-.02-.6,0-.78.06-.53-.04-2.07-.03-2.94h-1c0,.32,0,.58-.02.74v2.97c.18,0,.52-.03.53.04,0,.07-.35-.02-.44.14-.01.02.07.51.13.53.15.05,1.1.06,1.36.07.96.05,5.03-.08,5.31,0,.14.08.11.23.13.35h.35c-.06-1.62-.1-3.23-.13-4.85h-.66c.12.98-.06,2.66-.05,3.72Z"/>
        <path class="cls-37" d="M56.22,119.36c.4.09,4.4-.07,5.48,0-.02-1.06.17-2.74.05-3.72h-.05c-2.71,1.84-2.73,1.85-5.47,3.72Z"/>
        <path class="cls-37" d="M56.22,118.58c2.25-1.54,2.51-1.71,4.31-2.94h-4.34c0,.87.09,2.41.03,2.94Z"/>
        <path class="cls-22" d="M60.53,115.64c-1.8,1.23-2.06,1.4-4.31,2.94-.02.17-.69.62,0,.78,2.75-1.86,2.76-1.88,5.47-3.72h-1.16Z"/>
        <path class="cls-12" d="M62.1,124.31c-.12-1.18.27-2.69.09-3.82-.02-.12,0-.27-.13-.35-.28-.08-4.35.05-5.31,0v4.07l-1.58.04c.04.2.09.09.18.21,1.93-.02,5.02-.2,6.49-.14.09,0,.18,0,.26,0Z"/>
        <path class="cls-54" d="M52.89,119.39c-.22.91-.02,1.82,0,2.72.77-.15,1.47-.4,2.28-.25.08.1-.07,2,0,2.37l1.58-.04v-4.07c-.26-.01-1.21-.02-1.36-.07-.06-.02-.14-.51-.13-.53.09-.17.44-.07.44-.14,0-.06-.34-.03-.53-.04-.31,0-2.19-.03-2.28.04Z"/>
        <path class="cls-54" d="M55.17,124.24c-.07-.37.08-2.27,0-2.37-.81-.15-1.51.1-2.28.25.01.4,0,.8,0,1.2,0,.36.07.81-.09,1.13.85,0,1.7,0,2.54,0-.09-.13-.14,0-.18-.21Z"/>
        <path class="cls-40" d="M52.89,122.12c-.02-.91-.22-1.82,0-2.72.09-.06,1.97-.05,2.28-.04v-2.97h-1.49c-1.6-.04-3.22.05-4.82,0v7.01c1.35-.22,2.66-.01,4.03-.07,0-.4.01-.8,0-1.2Z"/>
        <path class="cls-5" d="M47.85,123.75c.2-.14.76-.31,1.01-.35v-7.01c-.15,0-.73.03-.79-.04.04-.24.06-.47.08-.71h-.5c0,.2-.01.4-.02.6q.04,3.7.09,7.4.07.05.13.11Z"/>
        <path class="cls-46" d="M52.8,124.45c.15-.33.09-.77.09-1.13-1.38.06-2.68-.15-4.03.07-.25.04-.81.21-1.01.35q-.07-.05-.13-.11-.04-3.7-.09-7.4c-.02,1.08-.11,7.88,0,8.28,1.72-.13,3.45-.07,5.17-.07Z"/>
        <path class="cls-32" d="M73.15,124.67c-.17.36.68.38.79-.07-.69-.05-.75.07-.79.07Z"/>
        <path class="cls-54" d="M67.36,120.49c-.18,0-.35,0-.53,0-.18,0-.35,0-.53,0-.53,0-1.05,0-1.58,0-.23,0-.47,0-.7,0-.2,0-.41,0-.61,0-.29,0-.58,0-.88,0h-.35c.18,1.13-.2,2.64-.09,3.82.78.04.58.07.61.07.01,0,.07.14.13.14.36.02,3.03.03,3.11-.11q-.5-1.93-1.01-3.86c1.49.08,3.02.08,4.52.07,0-.06-.22-.14-.26-.14-.44-.04-1.29,0-1.84,0Z"/>
        <path class="cls-54" d="M69.46,120.63c-1.5.01-3.02,0-4.52-.07q.5,1.93,1.01,3.86c-.08.13-2.76.12-3.11.11-.07,0-.12-.14-.13-.14-.11,0-.08.07-.09.07-.1.08-.23.11-.26.21,1.19-.08,4.22-.06,5.7-.07,1.7-.01,3.4.07,5.09.07.04,0,.1-.12.79-.07.05-.2.04-3.57,0-4.03-1.49-.05-2.98.06-4.47.07ZM73.54,124.45q-2.04-.05-4.08-.11.02-1.82.04-3.64,2.13.05,4.25.11c-.09.54.21,3.5-.22,3.64Z"/>
        <path class="cls-12" d="M69.51,120.7q-.02,1.82-.04,3.64,2.04.05,4.08.11c.43-.15.12-3.11.22-3.64q-2.13-.05-4.25-.11Z"/>
        <path class="cls-7" d="M62.1,124.31c-.09,0-.18,0-.26,0-.14.23.06.33.35.28,0-.23.22-.27.44-.14,0,0-.02-.08.09-.07-.04,0,.17-.03-.61-.07Z"/>
        <path class="cls-4" d="M62.19,124.6v.07c.06,0,.12,0,.18,0,.03-.11.16-.13.26-.21-.22-.13-.44-.09-.44.14Z"/>
        <path class="cls-16" d="M64.64,116.46c.02-.08-.04-.24.04-.28q1.12.02,2.24.04l-.09,4.28c.18,0,.35,0,.53,0l-.09-4.28q1.01-.02,2.02-.04v-.35c-1.68-.01-3.36,0-5.04,0-.21.11-.11.27-.13.42-.21,1.37.23,2.87-.09,4.25.23,0,.47,0,.7,0-.06-.81-.21-3.51-.09-4.03Z"/>
        <path class="cls-31" d="M72.01,115.82q-.57.18-1.14.35c.57-.02,1.14.02,1.71,0q.07.09.13.18.26,1.95.53,3.89c-.09.1-2.66.07-3.16.11-.05,0,.29.18-.79.07-.07,0-.1.02-.09.07.05,0,.26.08.26.14,1.49-.01,2.98-.12,4.47-.07-.12-1.56-.64-3.14-.79-4.71-.09-.08-.69-.03-.88-.04-.09,0-.18,0-.26,0Z"/>
        <path class="cls-31" d="M69.29,115.82v4.6c1.08.11.74-.07.79-.07-.05,0-.17-.08-.18-.11-.13-.46.09-3.04,0-3.96.15-.18.56-.09.96-.11q.57-.18,1.14-.35c-.38-.01-.76,0-1.14,0-.53,0-1.06,0-1.58,0Z"/>
        <path class="cls-15" d="M67.27,116.21l.09,4.28c.55,0,1.41-.04,1.84,0,0-.05.02-.08.09-.07v-4.25q-1.01.02-2.02.04Z"/>
        <path class="cls-15" d="M64.64,116.46c-.12.52.02,3.22.09,4.03.53,0,1.05,0,1.58,0q.09-2,.18-4-.92-.02-1.84-.04Z"/>
        <path class="cls-20" d="M64.68,116.17c-.09.04-.03.21-.04.28q.92.02,1.84.04-.09,2-.18,4c.18,0,.35,0,.53,0l.09-4.28q-1.12-.02-2.24-.04Z"/>
        <path class="cls-15" d="M69.9,116.28c.09.92-.13,3.5,0,3.96,0,.02.12.11.18.11.5-.03,3.07,0,3.16-.11q-.26-1.95-.53-3.89-.07-.09-.13-.18c-.57.02-1.14-.02-1.71,0-.4.02-.81-.07-.96.11Z"/>
        <path class="cls-31" d="M59.2,130.4c0,.07.22.12-.04.28-.66,0-1.32-.01-1.97,0-3.18.05-6.38-.01-9.56,0-.35,0-.7,0-1.05,0-.56,0-4.51.19-4.65.04-.1-1.07.14-3.54,0-4.21-.03-.12-.06-.14-.09-.21-.05,0-.17-.02-.18.04-.03.2.09,2.93.09,3.64,0,.34.07,1.52-.26,1.42,1.27.26,2.61.07,3.9.07.07,0,.03.14.04.14,1.9.05,3.8-.02,5.7,0,1.27.01,8.47-.1,8.9,0,.02,0,.07.17.26.28.46.12.28-.07.31-.07-.69-.34-.93-.93-1.4-1.42Z"/>
        <path class="cls-31" d="M71.48,130.75c-.72-.04-1.61,0-2.37,0,.01.22-2.03.22-2.02,0-.61.02-.83,0-.88,0-1.8.13-1.19.23-2.46.78-.45.2-.98.15-1.01.5-.65-.1-1.31-.17-1.97-.21.6.26,1.28.28,1.93.28.12,0,.23,0,.35,0,.51-.02,1.18-.09,1.53-.35,1.71-.09,4.93.13,6.27,0,.33-.03.49-.12.61-.14.49-.09.92-.31,1.4-.42.98-.23-1.06-.4-1.4-.42Z"/>
        <path class="cls-2" d="M72.88,131.25v-.07c-.48.11-.91.33-1.4.42.12.11.45,0,.7,0,.01-.13.52-.29.7-.35Z"/>
        <path class="cls-11" d="M77.27,125.98c-4.55.11-3.17-.57-3.46,3.57l-3.25.07q-.02-.07-.04-.14c-1.12.02-2.25.13-3.38.07l-.04,1.2c.66-.03,1.35,0,2.02,0,.75,0,1.64-.04,2.37,0,.62-.08,2.01-.19,2.28,0,0-.01.22-.11.26-.18.04-2.12.04-2.19.08-4.16-.08-.01-.1-.04,0-.11,0-.04,0-.08,0-.11l3.25-.04c.04-1.4-2.78-.79-4.03-.92,0,.06-.08.07-.09.14,1.18.17,3.51-.47,4.03.6Z"/>
        <path class="cls-41" d="M62.19,124.67c-.18.02-.36-.04-.53.07.01.08-.04.25.04.28.31.14,6.19.06,7.15.07-.27-.13-.86-.15-.79-.5-1.48.01-4.51,0-5.7.07-.06,0-.12,0-.18,0Z"/>
        <path class="cls-28" d="M59.16,130.68c.26-.16.04-.21.04-.28,0-.18-.03-1.46-.09-1.52-.25-.28-1.44.73.09-1.59.03-.04.04-.07.09-.14.2-.29.48-.64.61-.92-.75.07-2.59-.13-2.72.11v4.35c.66-.01,1.32,0,1.97,0Z"/>
        <path class="cls-28" d="M47.63,130.68c.02-.26-.2-.9-.09-1.1.1-.18,1.23-.11,1.49-.11.01-.26-.02-.52,0-.78-.22-.03-1.24.05-1.32-.04-.16-.18.35-2.82-.39-2.37-.44.27.83,3.09-1.1,2.55.02.21-.07.44.09.64.61.1.34.78.26,1.2.35,0,.7,0,1.05,0Z"/>
        <path class="cls-31" d="M74.11,126.3s.08-.05.13-.08c.1-.05,2.09.04,2.46,0,1.41,1.35.99,3.34-.04,4.78-.38.21-.67.16-.7.18-.44.19-1.06.57-1.49.28.75-1.18.1-2.89.44-4.21.05-.24-.18-.19-.35-.39-.4-.48.04-.33.35-.35.11-.18-.57-.06-.79-.09-.04,1.97-.04,2.05-.08,4.16-.04.07-.25.17-.26.18-.41.53-.67.42-.88.5-.18.07-.69.22-.7.35.3,0,.56.14,1.23.14.51,0,1.52.04,1.84,0,.14-.02,1.04-.42,1.1-.42.74-.02-.27.67.57.21.03-.02.46-.37.53-.42,1.44-1.28,1.89-3.88-.09-4.95l-3.25.04s0,.08,0,.11Z"/>
        <path class="cls-16" d="M74.11,126.42s0-.07,0-.11c-.1.07-.08.1,0,.11Z"/>
        <path class="cls-16" d="M74.9,126.51c2.15-.14,2.27.52-.35.35.17.2.4.15.35.39-.34,1.32.31,3.03-.44,4.21,1.11.01.97-3.61.88-4.07-.03-.15-.37-.13-.31-.32,2-.47,1.86,1.51,1.62,2.58-.12.53-.55,1-.7,1.52.03-.01.32.04.7-.18,1.04-1.43,1.45-3.43.04-4.78-.37.04-2.35-.05-2.46,0-.06.03-.1.06-.13.08,0,.04,0,.08,0,.11.22.03.9-.08.79.09Z"/>
        <path class="cls-44" d="M75.03,127.07c-.06.19.28.17.31.32.09.46.23,4.08-.88,4.07.43.28,1.05-.09,1.49-.28.15-.52.58-.99.7-1.52.24-1.07.38-3.05-1.62-2.58Z"/>
        <path class="cls-23" d="M74.9,126.51c-.31.02-.75-.13-.35.35,2.62.16,2.5-.49.35-.35Z"/>
        <path class="cls-42" d="M72.88,131.18v.07c.2-.07.46.04.88-.5-.27-.19-1.66-.08-2.28,0,.34.02,2.38.2,1.4.42Z"/>
        <path class="cls-9" d="M66.22,130.75s.27.02.88,0l.04-1.2c1.13.06,2.26-.05,3.38-.07,0-.05,0-.1,0-.14q-1.73.04-3.46.07-.02-1.61-.04-3.22l-2.46-.04c2.04,1.2,1.66,2.8,1.67,4.6Z"/>
        <path class="cls-36" d="M69.11,130.75c-.67,0-1.35-.03-2.02,0-.01.22,2.03.22,2.02,0Z"/>
        <path class="cls-5" d="M51.75,126.51c.09.41.01,2.57-.09,3.04-.03.15-.02.23,0,.39-1.17.82-3.91-.23-3.64.6h9.03c.07-.77-3.37-.2-3.51-.35-.11-.12-.01-.47-.04-.64t-.09-.07c-.25-.27.07-3.04-.18-3.22-.1-.07-1.42-.14-1.5.17,0,.03,0,.05,0,.08Z"/>
        <path class="cls-35" d="M56.31,129.51v-3.18h-2.81q-.04,1.57-.09,3.15s.04.04.09.07q1.4-.02,2.81-.04Z"/>
        <path class="cls-50" d="M49.03,129.48c.86,0,1.76.15,2.63.07.1-.48.18-2.63.09-3.04-.01-.03-.01-.06,0-.08,0-.07,0-.13-.13-.2q-1.25.02-2.5.04c.05.82-.02,1.62-.09,2.44-.02.26.01.52,0,.78Z"/>
        <path class="cls-38" d="M46.22,128.84c-.09-.84-.11-1.67-.09-2.51l-2.41-.04-.04,3.15c.1.11,2.26-.02,2.63.04-.16-.2-.06-.42-.09-.64Z"/>
        <path class="cls-45" d="M60.52,125.02c-.31,1.33,1.13.58,1.05-.21-.31-.14-.71.15-1.05.21Z"/>
        <path class="cls-11" d="M61.7,125.02c-.09-.04-.03-.2-.04-.28,0,0-.1-.02-.09.07.07.79-1.36,1.54-1.05.21-.19.04-.54.14-.57.14-.5.05-9.54.12-10.04.07.06.14-.08.26-.22.28-.46.08-5.87-.01-7.19.07q-.29.46-.57.92c.14.68-.1,3.14,0,4.21.13.15,4.09-.04,4.65-.04.08-.43.35-1.1-.26-1.2-.37-.06-2.53.08-2.63-.04l.04-3.15,2.41.04c-.02.84,0,1.67.09,2.51,1.93.55.65-2.28,1.1-2.55.74-.45.23,2.19.39,2.37.08.09,1.1,0,1.32.04.07-.82.13-1.62.09-2.44q1.25-.02,2.5-.04c.13.07.13.13.13.2.08-.31,1.4-.24,1.5-.17.24.18-.08,2.95.18,3.22q.04-1.57.09-3.15h2.81v3.18q-1.4.02-2.81.04c.03.17-.07.52.04.64.14.15,3.58-.41,3.51.35h-9.03c-.27-.84,2.47.21,3.64-.6-.02-.16-.03-.23,0-.39-.87.08-1.77-.07-2.63-.07-.26,0-1.39-.07-1.49.11-.11.2.11.84.09,1.1,3.18-.01,6.38.05,9.56,0v-4.35c.13-.23,1.96-.04,2.72-.11.69-.06,1.42-.66,2.15-.92.37-.02,2.12.63,2.5.85l2.46.04q.02,1.61.04,3.22,1.73-.04,3.46-.07c-.11-.56.08-2.08,0-2.87.26-.47,2.86.69,2.54-1.31-1.41-.05-2.8-.05-4.21-.07-.96-.01-6.83.07-7.15-.07ZM45.92,130.33c.79.01.65.24.35.28-.16.02-2.59,0-3.29-.04-.2-.19,2.28-.26,2.94-.25Z"/>
        <path class="cls-11" d="M51.75,126.51s0-.06,0-.08c0,.02,0,.05,0,.08Z"/>
        <path class="cls-11" d="M42.98,130.58c.7.03,3.13.06,3.29.04.3-.04.44-.27-.35-.28-.66,0-3.14.06-2.94.25Z"/>
        <path class="cls-26" d="M73.81,129.55c.3-4.15-1.09-3.47,3.46-3.57-.52-1.07-2.85-.43-4.03-.6-.17,1.33.13,2.73,0,4.07-.27.26-2.23.03-2.72.04q.02.07.04.14l3.25-.07Z"/>
        <path class="cls-50" d="M70.52,126.47c.08.78-.11,2.31,0,2.87,0,.05,0,.1,0,.14.49,0,2.44.22,2.72-.04.13-1.34-.17-2.74,0-4.07,0-.07.09-.08.09-.14-.09,0-.07-.06-.26-.07.31,2-2.29.84-2.54,1.31ZM71.35,129.34s-.27.01-.31-.04c-.09-.12-.1-2.72.04-2.8.03-.02.18-.01.22.04.09.12.18,2.71.04,2.8Z"/>
        <path class="cls-35" d="M71.09,126.51c-.14.08-.14,2.68-.04,2.8.04.05.28.05.31.04.14-.09.04-2.68-.04-2.8-.03-.05-.19-.05-.22-.04Z"/>
        <path class="cls-19" d="M40.17,131.25c-.13,0-.96.09-1.01.07-.04-.02-.56-.5-.57-.53-.09-.44.84-.17.7-.53-.28,0-.56,0-.83,0-.66-.17-.72-2.55.04-3.82-.35-.23-1.02,1.1-1.05,1.24-.19.72.3,1.75-.26,1.88.09.38.31,1.12.61,1.42.61.6,2.14.59,3.03.5.07,0,.12-.14.13-.14-.21-.16-.43-.08-.79-.07Z"/>
        <path class="cls-29" d="M41.75,129.97c-.5.03-.29.29-.39.35-.07.05-1.31.36-1.18.92.36,0,.58-.09.79.07.94-.16.32.03.53.07.33.11.26-1.07.26-1.42Z"/>
        <path class="cls-19" d="M39.82,125.98c.07.08.28-.01.35.07,1.36,1.47.59,2.24.79,3.96-.48.27-1.11.26-1.67.25.14.36-.79.09-.7.53,0,.03.53.51.57.53.04.02.87-.07,1.01-.07-.13-.56,1.11-.87,1.18-.92.1-.06-.11-.32.39-.35,0-.72-.12-3.44-.09-3.64,0-.05.12-.04.18-.04-.08-.2-.3-.38-.53-.5-.64-.32-1.22-.31-1.93-.21.97.2.4.35.44.39Z"/>
        <path class="cls-38" d="M38.51,126.44c-.76,1.27-.7,3.65-.04,3.82.28,0,.56,0,.83,0,.55.01,1.19.02,1.67-.25-.2-1.72.57-2.49-.79-3.96-.08-.08-.28.01-.35-.07-.04-.04.53-.19-.44-.39-.27.04-.3.07-.53.14.26.41-.18.43-.35.71ZM39.78,127.78c1.15-.38,1.11,1.63.18,1.63-.79,0-.05-.56-.04-.6,0-.06-.74-.82-.13-1.03Z"/>
        <path class="cls-29" d="M39.95,129.41c.93,0,.98-2.01-.18-1.63-.61.2.14.97.13,1.03,0,.04-.75.6.04.6Z"/>
        <path class="cls-29" d="M63.76,131.53q-.09-.11-.18-.21c-1.3.54-2.73.64-3.51-.53-.02-.03.27-.09-.26-.57.13-.08.11-.13.09-.25-.2.05-.24-.24-.26-.35-.22-1.08,0-1,.26-1.63.02-.06.07-.43.09-.46,1.22-1.76,4.4-1.62,4.3,1.42-.01.39-.38.83-.09,1.17.01-.02.16-.31.18-.35.5-1.37-.15-3.06-1.32-3.47-.85-.3-1.79-.16-2.5.28-1.18.74-1.13,2.14-1.32,2.19-.33.09-.25-1.11-.22-1.17.03-.05.63-.05.18-.32-1.53,2.33-.33,1.31-.09,1.59.05.06.1,1.34.09,1.52.47.48.72,1.08,1.4,1.42.06,0,.12,0,.18,0,.66.04,1.32.11,1.97.21.03-.35.56-.3,1.01-.5Z"/>
        <path class="cls-29" d="M63.15,126.15c.99.44,1.61,1.54,1.93,2.37q-.09.69-.18,1.38c-.4.64,0,.87-1.32,1.42q.09.11.18.21c1.27-.55.65-.65,2.46-.78,0-1.8.37-3.4-1.67-4.6-.37-.22-2.13-.87-2.5-.85-.72.26-1.46.86-2.15.92-.13.28-.41.63-.61.92,1.01-.92,2.36-1.66,3.86-.99Z"/>
        <path class="cls-21" d="M59.29,127.14c-.05.07-.06.1-.09.14.45.27-.15.27-.18.32-.03.06-.12,1.26.22,1.17.18-.05.13-1.45,1.32-2.19.71-.45,1.65-.58,2.5-.28q.04-.07.09-.14c-1.5-.67-2.85.07-3.86.99Z"/>
        <path class="cls-16" d="M64.9,129.9l-.53-.14s-.16.34-.18.35c-.46.66-.19.09-.96.07-1.44,1.16-3.68-.15-2.89-2.26-.38.04.04.31-.44.07-.27.63-.49.55-.26,1.63.19-.17.22.15.26.35.03.12.04.17-.09.25.53.47.24.54.26.57.78,1.17,2.21,1.07,3.51.53,1.31-.55.92-.78,1.32-1.42Z"/>
        <path class="cls-16" d="M60.34,127.92c.38-1.02,1.74-1.67,2.85-.85.9.67.9,2.42.04,3.11.77.02.5.59.96-.07-.29-.34.07-.78.09-1.17.11-3.04-3.08-3.18-4.3-1.42-.02.03-.06.4-.09.46.47.24.06-.03.44-.07Z"/>
        <path class="cls-16" d="M65.08,128.52c-.32-.83-.93-1.93-1.93-2.37q-.04.07-.09.14c1.17.41,1.82,2.1,1.32,3.47l.53.14q.09-.69.18-1.38Z"/>
        <path class="cls-19" d="M59.64,129.62c.02.12.07.4.26.35-.05-.2-.07-.52-.26-.35Z"/>
        <path class="cls-39" d="M63.19,127.07c-1.11-.82-2.47-.17-2.85.85-.79,2.11,1.46,3.42,2.89,2.26.86-.69.86-2.45-.04-3.11ZM62.4,129.48c-1.05.24-1.36-1.13-.44-1.27,1.06-.17,1.15,1.11.44,1.27Z"/>
        <path class="cls-19" d="M61.97,128.21c-.92.14-.61,1.51.44,1.27.71-.16.62-1.44-.44-1.27Z"/>
      </g>
      <g>
        <rect class="cls-51" x="56.14" y="58.59" width=".53" height="57.76"/>
        <rect class="cls-51" x="61.76" y="58.59" width=".53" height="57.76"/>
        <rect class="cls-51" x="56.14" y="58.59" width="6.14" height=".57"/>
        <polyline class="cls-55" points="56.4 58.87 62.02 62.98 56.4 67.08 62.02 70.41 56.4 74.1 62.02 76.41 56.4 78.76 62.02 80.96 56.4 82.2 62.02 84.75 56.4 86.34 61.76 88.7 56.4 91.95 62.02 95.01 56.4 97.17 62.02 99.02 56.4 101.06 62.02 103.48 56.67 104.95 62.08 107.56 56.67 109.34 62.08 111.06 56.4 113.1 61.79 115.27"/>
      </g>
      <g>
        <rect class="cls-51" x="42.77" y="22.3" width=".42" height="71.58" transform="translate(-15.11 101.08) rotate(-90)"/>
        <rect class="cls-51" x="42.77" y="17.77" width=".42" height="71.58" transform="translate(-10.58 96.55) rotate(-90)"/>
        <rect class="cls-51" x="5.07" y="55.48" width="4.95" height=".7" transform="translate(-48.29 63.37) rotate(-90)"/>
        <polyline class="cls-55" points="7.54 58.09 12.63 53.56 17.72 58.09 21.84 53.56 26.42 58.09 29.27 53.56 32.19 58.09 34.91 53.56 36.46 58.09 39.61 53.56 41.59 58.09 44.51 53.78 48.54 58.09 52.33 53.56 55.01 58.09 57.3 53.56 59.83 58.09 62.83 53.56 64.64 57.88 67.88 53.52 70.09 57.88 72.22 53.52 74.75 58.09 77.43 53.75"/>
      </g>
    </g>
    <g>
      <path class="cls-18" d="M31,123.3s0,.04,0,.06c-.03,1.1.02,2.2,0,3.3l-.04.04s-.07-.05-.1-.06c-.08-.03-.62-.26-.64-.29.03,0,0-.07,0-.12-.1-.66.05-2.46.03-3.25l.76.32Z"/>
      <path class="cls-18" d="M31.03,117.68l-.03,3.21-.04.04-.66-.23s-.03,0-.06-.04v-3.28s.06-.04.06-.04c.23.09.53.27.73.35Z"/>
      <path class="cls-10" d="M31.17,117.73l-.03,3.24,3.82,1.66c.34-.4.17.04.32.18.03.03.72.3.81.32,0,.04-.06-.02-.06.18-1.17-.57-2.41-.98-3.62-1.46-.29-.12-1.98-.9-2.09-.91.01-.09,0-.15-.03-.23l.66.23.04-.04.03-3.21s.1.04.15.06Z"/>
      <g>
        <path class="cls-18" d="M36.01,123.39c.05.57.03,1.15.03,1.73,0,.05,0,.1,0,.15,0,.14-.15-.02-.22,0-1.56-.76-3.16-1.44-4.76-2.11-.28-.12-.55-.28-.85-.35,0-.01-.06,0-.09-.28.03-.27-.06-1.39.06-1.54,1.87.98,3.88,1.62,5.83,2.4Z"/>
        <path class="cls-8" d="M36.04,123.3c0,.06-.03.07-.03.09-1.95-.78-3.97-1.42-5.83-2.4.02-.02.14-.06.15-.06.11,0,1.8.79,2.09.91,1.21.48,2.45.89,3.62,1.46Z"/>
      </g>
      <path class="cls-43" d="M45.53,125.56c0,.08,0,.16,0,.23-.06.02-.14.11-.15.12-.37.23-.81.47-1.2.67-.07.04-.13.09-.21.12-.06.02-.1.04-.18.03,0,0,0-.02,0-.03,0-.04,0-.08,0-.12,0-.02,0-.04,0-.06.58-.32,1.12-.72,1.73-.97Z"/>
      <path class="cls-43" d="M45.47,127.96s0,.08,0,.12,0,.08,0,.12c-.41.17-1.22.74-1.55.88-.02,0-.08,0-.12,0,0-.07,0-.14,0-.21,0-.06.11-.08.21-.15.32-.22,1.08-.6,1.46-.76Z"/>
      <path class="cls-10" d="M31.06,123.15c-.09-.02-.05.05-.06.15l-.76-.32c-.04-.06-.03-.11-.03-.18.3.07.57.23.85.35Z"/>
      <path class="cls-25" d="M31.06,123.15c1.6.67,3.2,1.35,4.76,2.11.07-.02.22.14.22,0,0,.09,0,.18,0,.26-.15-.09-.31-.14-.47-.21-.12-.05-.23-.12-.35-.18-1.14-.51-2.27-1.03-3.43-1.49-.19-.17-.55-.34-.79-.29,0-.02,0-.04,0-.06,0-.09-.03-.16.06-.15Z"/>
      <path class="cls-48" d="M36.3,125.47s0,.1,0,.15c0,1.09,0,2.18,0,3.27.07.08.19.09.21.1-.14.06-.31-.05-.44-.09,0,0,0-.02,0-.03-.03-.16-.03-2.89-.03-3.34,0-.09,0-.18,0-.26,0-.05,0-.1,0-.15.33-.07.13.11.26.35Z"/>
      <path class="cls-48" d="M36.36,123.1c.05.01.77.4.94.47-.05.1-.13.07,0,.18-.15-.02-.93-.41-1-.34,0,.03,0,.07,0,.1-.08.53.03,1.32.03,1.88,0,.02-.03.03-.03.09-.13-.24.06-.42-.26-.35,0-.57.02-1.16-.03-1.73,0-.02.03-.03.03-.09,0-.2.06-.14.06-.18.07.02.1-.07.26-.03Z"/>
      <path class="cls-25" d="M41.05,121.89s0,.04,0,.09c.02.45-.1,3.07-.03,3.24l2.75,1.22s.03.08.03.09c0,.02,0,.04,0,.06-.9-.49-6.18-2.57-6.5-2.84-.13-.11-.05-.08,0-.18,1.14.5,2.26,1.02,3.41,1.49.06-.5-.03-2.94.01-3.09,0-.01.06-.05.09-.07,0,0,.14-.06.15-.06.06,0,.06.01.09.06Z"/>
      <g>
        <path class="cls-25" d="M36.36,119.87s-.23-.01,0,.18v3.05c-.16-.04-.19.05-.26.03.02-1.07.05-2.15.03-3.22,0,0,.08-.06.15-.09.18-.06.34-.19.09.06Z"/>
        <path class="cls-47" d="M35.83,119.55c.11.05.22.11.32.18,0,0,.07-.01.12.09-.07.02-.14.09-.15.09-.05,0-.79-.38-.92-.44-.06-.03-.04-.09-.04-.09.04-.02.08-.06.12-.09.17.11.37.18.56.26Z"/>
        <path class="cls-53" d="M36.16,119.73c-.11-.06-.21-.12-.32-.18,0-.28.5-.35.5-.07,0,.15-.19.12-.18.25Z"/>
      </g>
      <path class="cls-48" d="M44.01,128.72c-.09.06-.21.09-.21.15-.93-.47-1.87-.92-2.84-1.27v3.25c.34.15.69.28,1.03.42-.11.06-.47-.18-.6-.21-.02,0-.19.08-.34,0-.24-.1-.49-.19-.73-.29l-.29-.19.32.04s.34.15.35.13c.05-.68-.06-3.08-.03-3.33,0-.02.06-.05.09-.09,1,.45,2.07.78,3,1.38.09-.03.05-1.78.04-1.99.08.01.11,0,.18-.03l.03,2.02Z"/>
      <g>
        <path class="cls-18" d="M43.77,123.15s.02.04.04.06c.2-.16,1.52-.78,1.58-.85.03-.03.01-.08.01-.12.08.02.05.08.06.12l-1.63.88c-.07.05-.04.15-.04.23-.05.45-.03,2.28-.03,2.96l-2.75-1.22c-.07-.17.05-2.79.03-3.24.54.17,2.35,1.11,2.72,1.17Z"/>
        <path class="cls-25" d="M45.47,122.6c.04.69-.01,1.66,0,2.42,0,.17.06.37.06.54-.61.25-1.15.65-1.73.97,0,0-.01-.08-.03-.09,0-.68-.02-2.51.03-2.96l1.67-.88Z"/>
        <path class="cls-48" d="M45.47,122.6l-1.67.88c0-.09-.03-.18.04-.23l1.63-.88c.01.06,0,.16,0,.23Z"/>
        <g>
          <path class="cls-8" d="M45.27,122.19c-.34.1-1.22.69-1.44.73-.07.01-.37-.06-.45-.09-.03-.01.03-.05.01-.06.96-1.15-.14-.27-.21-.1,0,.02,0,.05.03.04-.16-.06-.35-.08-.51-.15-.51-.21-1.02-.48-1.51-.73.31-.17.6-.38.91-.56.15-.09.32-.15.47-.23.64.32,2.02.73,2.7,1.14Z"/>
          <path class="cls-30" d="M45.27,122.19s.08.01.15.06c0,.04.01.09-.01.12-.06.07-1.38.69-1.58.85-.03-.02,0-.05-.04-.06l.06-.23c.22-.04,1.1-.63,1.44-.73Z"/>
          <path class="cls-47" d="M41.19,121.84c.49.25,1,.53,1.51.73.16.06.36.09.51.15.06.02.11.04.18.06.02,0-.05.05-.01.06.08.03.38.1.45.09l-.06.23c-.37-.06-2.18-1-2.72-1.17,0-.05,0-.08,0-.09.04,0,.11-.04.15-.06Z"/>
          <path class="cls-17" d="M43.39,122.77c-.06-.02-.11-.04-.18-.06-.03,0-.04-.02-.03-.04.07-.17,1.17-1.05.21.1Z"/>
        </g>
      </g>
      <g>
        <path class="cls-25" d="M45.47,127.96c-.38.16-1.15.55-1.46.76l-.03-2.02c.08-.03.14-.08.21-.12-.14.64.55-.1,1.22-.32.11-.07.12-.4-.01-.35,0,0,.09-.1.15-.12,0,.72,0,1.44,0,2.15,0,.02-.06.01-.06.01Z"/>
        <path class="cls-10" d="M45.38,125.91c.13-.05.12.29.01.35-.67.22-1.36.96-1.22.32.39-.2.83-.44,1.2-.67Z"/>
      </g>
      <path class="cls-48" d="M31.79,123.65c-.19-.08-.39-.16-.57-.26l-.04.04c0,.44,0,.89,0,1.33-.09.2-.03.43-.06.63,0,.03-.09,0-.09.03-.04.44.13,1.61-.18,1.22.03,0,.08.04.1.06l.04-.04c.02-1.1-.03-2.2,0-3.3.24-.04.6.12.79.29Z"/>
      <g>
        <path class="cls-47" d="M31,117.47c.14.05.2.05.21.06.72.3,3.25,1.36,3.71,1.58.05.02.11.05.1.12,0,0,.02.06-.03.06-1.24-.57-2.55-1.03-3.81-1.55-.05-.02-.1-.04-.15-.06-.21-.09-.5-.26-.73-.35,0,0,.09-.07.12-.09.19.08.39.16.59.23Z"/>
        <path class="cls-8" d="M32.55,116.86c-.16.2-.51.36-.44.47-.27-.26-.87-.37-.88-.56.16-.07.41-.24.57-.23.27.05.5.23.75.32Z"/>
        <path class="cls-30" d="M36.24,118.41c-.28.32-.62.64-.97.88-.04.03-.07.06-.12.09-.02,0-.04.04-.07.03-.1-.05-.1-.11-.1-.12.05,0,.02-.05.03-.06.12-.16.8-.7,1-.94.08.03.17.06.23.12Z"/>
        <g>
          <path class="cls-8" d="M32.11,117.32c.14.01.43-.29.53-.41.64.24,1.29.45,1.92.7.48.2,1.05.51,1.45.67-.2.24-.88.77-1,.94.01-.06-.06-.09-.1-.12-.45-.22-2.99-1.28-3.71-1.58.82-.24.23-.48-.21-.06-.19-.08-.39-.16-.59-.23.09-.07.68-.4.82-.47,0,.19.61.3.88.56Z"/>
          <path class="cls-17" d="M32.64,116.91c-.1.12-.38.42-.53.41-.07-.1.28-.27.44-.47.09.03.08.06.09.06Z"/>
        </g>
        <path class="cls-18" d="M31.2,117.53s-.07,0-.21-.06c.43-.42,1.02-.19.21.06Z"/>
        <path class="cls-18" d="M34.98,119.29s0,.07.1.12c.03.02.05-.04.07-.03,0,0-.01.06.04.09.13.06.87.44.92.44.02,1.08,0,2.15-.03,3.22-.09-.02-.77-.29-.81-.32-.16-.13.02-.58-.32-.18l-3.82-1.66.03-3.24c1.26.53,2.57.99,3.81,1.55Z"/>
      </g>
      <g>
        <path class="cls-53" d="M43.8,126.7s0,.02,0,.03c0,.21.05,1.96-.04,1.99-.93-.6-2-.93-3-1.38-1.47-.66-2.91-1.41-4.42-1.96,0-.55-.11-1.35-.03-1.88l7.5,3.19Z"/>
        <path class="cls-8" d="M37.3,123.74c.33.27,5.6,2.35,6.5,2.84,0,.04,0,.08,0,.12l-7.5-3.19s0-.07,0-.1c.06-.07.85.32,1,.34Z"/>
      </g>
      <g>
        <path class="cls-25" d="M45.47,128.19c0,.15,0,.29,0,.44-.02.72.01,1.45,0,2.17v.07s-.1.07-.15.1c-.12.09-.9.47-1.35.79l-.06-2.7c.34-.14,1.14-.7,1.55-.88Z"/>
        <path class="cls-30" d="M43.8,128.87c0,.07,0,.14,0,.21-.09.64-.06,2.14,0,2.81,0,.02-.05.05-.03.12-.6-.23-1.2-.48-1.79-.73-.34-.15-.69-.28-1.03-.42v-3.25c.98.36,1.92.8,2.84,1.27Z"/>
        <path class="cls-48" d="M43.92,129.07l.06,2.7s.01.06-.18.12c-.06-.67-.09-2.17,0-2.81.04,0,.1,0,.12,0Z"/>
      </g>
      <g>
        <path class="cls-34" d="M30.15,126.23s.01.05.06,0c0,.05.03.12,0,.12-.28.07.04.19.45.38.77.36,2.78,1.2,3.6,1.52.31.12.64.21.95.32.01,0,.08,0,.15.03.09.03.44.28.7.26,0,0,0,.02,0,.03,1.36.74,2.82,1.29,4.25,1.88.24.1.49.19.73.29.38.15,2.61,1.14,2.8,1.11,0,0,.11-.09.16-.12.11-.05.21-.11.32-.15-.08.07-.62.55-.64.59-2.43-.85-4.76-1.94-7.13-2.93-2.14-.9-4.3-1.77-6.45-2.67-.17-.07-.54-.23-.54-.29.08-.11.46-.34.59-.38Z"/>
        <path class="cls-24" d="M43.57,132.73c-.02.06-.13.91-.18,1.2,0,0,0,.02,0,.03-4.8-1.78-9.49-3.82-14.27-5.65,0-.17.23-1.17.29-1.35,4.76,1.81,9.33,4.11,14.15,5.77Z"/>
        <path class="cls-49" d="M43.68,132.5c-.05.07-.09.15-.12.23-4.82-1.66-9.39-3.96-14.15-5.77.04-.11.08-.26.15-.35,0,.06.37.22.54.29,2.14.9,4.3,1.77,6.45,2.67,2.37.99,4.7,2.08,7.13,2.93Z"/>
        <path class="cls-1" d="M43.39,133.97c-.01.07-.02.14-.03.21-4.78-1.83-9.52-3.79-14.27-5.7-.02-.11.03-.14.03-.16,4.77,1.84,9.47,3.88,14.27,5.65Z"/>
        <path class="cls-6" d="M35.22,128.49s0,.06,0,.09c-.31-.11-.64-.2-.95-.32-.82-.32-2.83-1.17-3.6-1.52-.41-.19-.73-.31-.45-.38.03.04.56.27.64.29.3.4.13-.78.18-1.22,0-.03.08,0,.09-.03.03-.2-.03-.43.06-.63,0,.67,0,1.35.01,2.02l4.03,1.7Z"/>
        <path class="cls-43" d="M36.51,128.98c.59.33,2.29.9,3.06,1.32.57-.26.28-.01.37.16,0,.02.35.14.41.16l-.32-.04.29.19c-1.43-.59-2.89-1.14-4.25-1.88.13.04.3.15.44.09Z"/>
        <path class="cls-43" d="M41.99,131.27c.59.25,1.19.51,1.79.73.06.23.08-.03.23.06-.05.02-.15.12-.16.12-.19.03-2.42-.96-2.8-1.11.14.08.32,0,.34,0,.13.03.49.26.6.21Z"/>
        <g>
          <path class="cls-3" d="M46.79,132.09s.09.06.12.21c-.54.33-1.62.91-2.23,1.23-.18.09-.35.2-.53.29-.17.08-.65.36-.79.35.01-.07.02-.14.03-.21,0,0,0-.02,0-.03.53-.22,1.05-.59,1.57-.88.6-.34,1.23-.63,1.83-.97Z"/>
          <path class="cls-3" d="M46.12,131.04c.17.17.52.81.67,1.05-.6.33-1.23.63-1.83.97-.52.29-1.03.66-1.57.88.05-.29.16-1.14.18-1.2.02-.08.06-.16.12-.23.03-.03.57-.52.64-.59,0,0,.03-.08.1-.15.33-.16.62-.38.94-.56.02-.01.08.01.1,0,.06.19.33-.09.64-.18Z"/>
          <path class="cls-3" d="M45.47,131.21s-.08-.01-.1,0c-.31.18-.61.4-.94.56-.08.06-.09.14-.1.15-.11.03-.21.1-.32.15-.15-.09-.18.17-.23-.06-.02-.07.03-.1.03-.12.19-.05.17-.11.18-.12.45-.32,1.22-.7,1.35-.79.22-.08.29-.09.53-.01-.14.05-.27.19-.38.25Z"/>
          <path class="cls-52" d="M46.12,131.04c-.31.08-.59.36-.64.18.11-.06.25-.2.38-.25-.24-.08-.31-.07-.53.01.05-.04.1-.06.15-.1v-.07c.36.12.37-.06.64.23Z"/>
        </g>
      </g>
      <g>
        <g>
          <path class="cls-53" d="M35.57,125.32c.15.07.32.11.47.21,0,.45,0,3.18.03,3.34-.26.02-.61-.23-.7-.26l.03-3.3c.08,0,.14.13.18.01Z"/>
          <path class="cls-18" d="M35.57,125.32c-.04.11-.1,0-.18-.01l-.03,3.3c-.06-.02-.13-.02-.15-.03,0-.03,0-.06,0-.09.04-.17.04-2.83,0-3.34.12.05.23.12.35.18Z"/>
        </g>
        <path class="cls-53" d="M31.79,123.65c1.15.47,2.29.99,3.43,1.49.04.51.04,3.17,0,3.34l-4.03-1.7c-.02-.67-.02-1.35-.01-2.02,0-.44,0-.89,0-1.33l.04-.04c.18.1.38.19.57.26Z"/>
      </g>
      <path class="cls-25" d="M40.75,127.34s-.09.07-.09.09c-1.47-.57-2.85-1.37-4.37-1.82,0-.05,0-.1,0-.15,0-.06.03-.06.03-.09,1.52.56,2.95,1.3,4.42,1.96Z"/>
      <g>
        <path class="cls-18" d="M42.19,120.93s-.05.06-.06.06c-.27.14-.57.35-.82.53-.27-.19-.79-.32-1.14-.44.29-.18.57-.44.85-.64.26.11,1.13.38,1.19.41.04.02,0,.05-.01.09Z"/>
        <path class="cls-17" d="M42.57,121.04c-.15.09-.32.15-.47.23l.03-.29s.05-.06.06-.06c.36-.13.36.11.38.12Z"/>
        <path class="cls-47" d="M36.36,119.87c1.09.41,2.14.93,3.22,1.35,0,0,.09.07.13.12.05-.05.15-.07.19-.09.14.11.31.19.47.26.2.1.41.16.59.29v.03s-.14.05-.15.06c-1.47-.65-2.97-1.23-4.45-1.85-.23-.19-.04-.14,0-.18Z"/>
        <g>
          <path class="cls-17" d="M41.02,120.43c-.28.21-.56.46-.85.64-.06.04-.25.17-.26.18-.04.02-.14.04-.19.09-.04-.04-.12-.11-.13-.12l1.26-.85s.13.04.18.06Z"/>
          <g>
            <path class="cls-8" d="M37.85,119.05c-.06.27-.39.3-.34.38.2.04.41-.12.42-.32.76.32,1.55.57,2.3.91.16.05.57.34.6.35l-1.26.85c-1.09-.42-2.13-.94-3.22-1.35.26-.25.09-.12-.09-.06-.05-.1-.11-.08-.12-.09-.02-.13.17-.1.18-.25,0-.28-.5-.21-.5.07-.18-.09-.38-.15-.56-.26.35-.23.69-.56.97-.88.57.12,1.08.42,1.61.64Z"/>
            <path class="cls-25" d="M37.94,119.11c-.02.2-.22.36-.42.32-.05-.08.28-.11.34-.38.1.04.08.06.09.06Z"/>
            <path class="cls-25" d="M37.2,119.4c.54-.03-.22.23-.25.13-.03-.11.18-.13.25-.13Z"/>
          </g>
        </g>
        <path class="cls-30" d="M42.13,120.99l-.03.29c-.31.17-.6.39-.91.56-.03.02-.11.05-.15.06-.02-.05-.03-.06-.09-.06v-.03c.08-.08.17-.17.26-.23.03-.02.06-.04.09-.06.25-.18.55-.39.82-.53Z"/>
        <path class="cls-8" d="M40.17,121.07c.35.11.88.25,1.14.44-.03.02-.06.04-.09.06-.29-.03-.66-.38-.85-.06-.16-.08-.33-.15-.47-.26.01,0,.2-.14.26-.18Z"/>
        <path class="cls-18" d="M40.81,121.89s-.08.06-.09.07c-.05.15.05,2.6-.01,3.09-1.15-.47-2.28-1-3.41-1.49-.17-.07-.89-.46-.94-.47v-3.05c1.49.61,2.99,1.19,4.45,1.85Z"/>
        <path class="cls-18" d="M41.22,121.57c-.09.07-.18.15-.26.23-.18-.13-.39-.2-.59-.29.19-.32.56.02.85.06Z"/>
      </g>
      <g>
        <path class="cls-30" d="M40.67,127.43c-.03.25.08,2.64.03,3.33,0,.02-.31-.12-.35-.13-.06-.02-.4-.14-.41-.16-.09-.17.2-.42-.37-.16-.77-.42-2.47-.99-3.06-1.32-.02,0-.13-.03-.21-.1,0-1.09,0-2.18,0-3.27,1.51.45,2.9,1.25,4.37,1.82Z"/>
        <path class="cls-18" d="M39.95,127.2c.17.03.05.09.07.31,0,.02.06,0,.06.03.04.5-.08,2.18-.04,2.92-.02.02-.07-.06-.07-.07-.15-.49.01-2.48-.01-3.18Z"/>
      </g>
    </g>
  </g>
</svg>