<?xml version="1.0" encoding="UTF-8"?>
<svg id="Capa_2" data-name="Capa 2" xmlns="http://www.w3.org/2000/svg" xmlns:xlink="http://www.w3.org/1999/xlink" viewBox="0 0 103.88 54.02">
  <defs>
    <style>
      .cls-1 {
        fill: #c76203;
      }

      .cls-1, .cls-2, .cls-3, .cls-4, .cls-5, .cls-6, .cls-7, .cls-8, .cls-9, .cls-10, .cls-11, .cls-12, .cls-13, .cls-14, .cls-15, .cls-16, .cls-17, .cls-18, .cls-19, .cls-20, .cls-21, .cls-22, .cls-23, .cls-24, .cls-25, .cls-26, .cls-27, .cls-28, .cls-29, .cls-30, .cls-31, .cls-32, .cls-33, .cls-34, .cls-35, .cls-36, .cls-37, .cls-38, .cls-39, .cls-40, .cls-41, .cls-42, .cls-43, .cls-44, .cls-45, .cls-46, .cls-47, .cls-48 {
        stroke-width: 0px;
      }

      .cls-2 {
        fill: #303540;
      }

      .cls-3 {
        fill: #282a2e;
      }

      .cls-4 {
        fill: #474855;
      }

      .cls-5 {
        fill: #1c0e08;
      }

      .cls-6 {
        fill: #431e07;
      }

      .cls-7 {
        fill: #f0af9c;
      }

      .cls-8 {
        fill: #f89c22;
      }

      .cls-9 {
        fill: #13131e;
      }

      .cls-10 {
        fill: #b4b3b2;
      }

      .cls-11 {
        fill: #7c310a;
      }

      .cls-12 {
        fill: #eba630;
      }

      .cls-13 {
        fill: #d65547;
      }

      .cls-14 {
        fill: #797c81;
      }

      .cls-15 {
        fill: #380c03;
      }

      .cls-16 {
        fill: #dcac70;
      }

      .cls-17 {
        fill: #331d22;
      }

      .cls-18 {
        fill: #a00909;
      }

      .cls-19 {
        fill: #c2320b;
      }

      .cls-20 {
        fill: #602e15;
      }

      .cls-21 {
        fill: #e09c94;
      }

      .cls-22 {
        fill: #f98114;
      }

      .cls-23 {
        fill: #8e4a13;
      }

      .cls-24 {
        fill: url(#Degradado_sin_nombre_407);
      }

      .cls-25 {
        fill: #090808;
      }

      .cls-26 {
        fill: #241d24;
      }

      .cls-27 {
        fill: #ef796b;
      }

      .cls-28 {
        fill: #ebd6d1;
      }

      .cls-29 {
        fill: #ca873e;
      }

      .cls-30 {
        fill: #9b6e79;
      }

      .cls-31 {
        fill: #676164;
      }

      .cls-32 {
        fill: #b74132;
      }

      .cls-33 {
        fill: #e86615;
      }

      .cls-34 {
        fill: url(#Degradado_sin_nombre_446);
      }

      .cls-35 {
        fill: #8097ae;
      }

      .cls-36 {
        fill: #59251d;
      }

      .cls-37 {
        fill: #a9360a;
      }

      .cls-38 {
        fill: url(#Degradado_sin_nombre_445);
      }

      .cls-39 {
        fill: #2e1408;
      }

      .cls-40 {
        fill: #601702;
      }

      .cls-41 {
        fill: #d64f10;
      }

      .cls-42 {
        fill: #cfc6c4;
      }

      .cls-43 {
        fill: #a2a7ae;
      }

      .cls-44 {
        fill: #6d7d8c;
      }

      .cls-45 {
        fill: #55a8b0;
      }

      .cls-46 {
        fill: #909297;
      }

      .cls-47 {
        fill: #61666b;
      }

      .cls-48 {
        fill: #e1e1e3;
      }
    </style>
    <linearGradient id="Degradado_sin_nombre_407" data-name="Degradado sin nombre 407" x1="90.14" y1="25.15" x2="90.03" y2="39.31" gradientUnits="userSpaceOnUse">
      <stop offset="0" stop-color="#e96913"/>
      <stop offset="1" stop-color="#d74610"/>
    </linearGradient>
    <linearGradient id="Degradado_sin_nombre_445" data-name="Degradado sin nombre 445" x1="70.35" y1="16.07" x2="64.94" y2="36.31" gradientUnits="userSpaceOnUse">
      <stop offset="0" stop-color="#eb6e18"/>
      <stop offset="1" stop-color="#bc370a"/>
    </linearGradient>
    <linearGradient id="Degradado_sin_nombre_446" data-name="Degradado sin nombre 446" x1="69.74" y1="20.43" x2="78.67" y2="28.11" gradientUnits="userSpaceOnUse">
      <stop offset="0" stop-color="#eb7216"/>
      <stop offset="1" stop-color="#df5412"/>
    </linearGradient>
  </defs>
  <g id="Capa_1-2" data-name="Capa 1">
    <g>
      <g>
        <path class="cls-42" d="M97.42,14.95l-.45-.11c-.28-1.45-1.72-.67-1.59.17,1.07,1.37-.77,4.17,1.59,3.34,0,.24.11.25.11.34.06,1.5-.05,3.02,0,4.53l-.34.11c-.9-2.28-1.57-5.39-2.6-7.76l.11-.4c1.17-2.63,3.69-1.41,3.74-1.19.03.14-.55.84-.57.96Z"/>
        <path class="cls-48" d="M11.24,43.15c-.43,1.06-.26,2.67-.45,3.91-.01.1-.23.05-.23.06-.7.08-.97-.11-1.02-.11.33-.93,1.29-7.42,1.87-7.59.97-.28-.29,2.07-.17,3.74Z"/>
        <path class="cls-42" d="M6.93,47s-.37.23-.4.23c-.99-.31.49-2.76.51-4.42.28.02.57-.01.85,0,.23.15-.91,3.64-.96,4.19Z"/>
        <path class="cls-9" d="M96.97,45.76s.04.21-.06.23c-2.25.37-1.78-1.51-2.32-2.89-1.93-4.87-4.8-6.4-9.91-6.29-1.03.02-4.53.56-5.44.91-3.53,1.34-5.4,5.83-5.21,9.4-.09-.59,2.43-.3,1.98.11-2.15-.71-1.76.17-1.87.23-.31.16-5.98-.12-6.91,0l-.11-2.15h-16.88c-.15.81-3.03.02-4.76.45-.19,1.29-.26,2.65-1.08,3.74,2.07-4.44-1.61-3.94,5.32-4.02.45-2.14-.58-4.46.85-4.81.88-.22,15.62.31,18.12,0l.51.4c-.22,2.18.31,4.11-.45,6.23.1.13,2.85.08,3.28-.06.12-.04.34.07.45-.06.08-.12.21-2.15.34-2.66.57-2.19,3.13-6.32,5.15-7.47,2.1-1.2,7.3-1.21,9.74-1.02,7.62.59,8.1,8.18,8.66,9.34.05.1.39.44.57.4Z"/>
        <path class="cls-43" d="M60.39,34.2h.79c.02.57.13,1.25.28,1.81l-13.93-.11c-.99-.12-1.82-.4-1.76-.11-1.16-.18-1.94-.65-3.85-.79.51-.41.74-.56,0-.79,6.15.02,12.31-.02,18.46,0Z"/>
        <path class="cls-30" d="M41.93,34.2c.74.23.51.39,0,.79-2.19-.16-24.71-.12-27.97,0,.03-.34-.83-.24-.34-.62.54-.42,1.57,1.26,1.02-.17,9.11-.06,18.19-.04,27.29,0Z"/>
        <path class="cls-42" d="M61.97,20.84c.03,5.17.17,10.35,0,15.52-.23-.09-.37-.22-.4-.23-1.43-.31-11.75.3-15.8-.34-.07-.29.77,0,1.76.11l13.93.11c-.15-.56-.26-1.24-.28-1.81-.15-4.48.11-8.99,0-13.48.51,0,.04,1.76.28,1.93.59.4-.02-1.81.51-1.81Z"/>
        <g>
          <path class="cls-9" d="M94.48,46.89c.38-.31,8.85.04,9.23-.23.09-.07.09-1.52,0-1.59-.24-.17-5.16-.06-5.83-.11-.3-.3-.03-.99,0-1.25,1.85.14,1.82-.22,1.93-.23,1.03-.08,3.79.17,3.96-.17.04-.08.01-1.2-.06-1.3-.08-.11-2.28,0-2.55,0,.7-.79,3.11.72,2.49-1.36l.23.06-.17,6.17h-9.23Z"/>
          <path class="cls-17" d="M98.44,40.66c.04.25.28.01.68,0,.89-.03,2.63-.04,3.51,0,.04,0,.08,0,.11,0-.79.52-3.04.06-4.47.23-.18-.21.07-.22.06-.23h.11Z"/>
          <path class="cls-25" d="M101.16,42.02c.27,0,2.47-.11,2.55,0,.07.1.1,1.22.06,1.3-.18.34-2.93.09-3.96.17v-1.36c.07,0,.11-.13,1.36-.11Z"/>
          <path class="cls-25" d="M99.8,42.13v1.36c-.1,0-.07.36-1.93.23.06-.6-.15-1.56.17-1.7.65-.11,1.67.12,1.76.11Z"/>
        </g>
        <g>
          <path class="cls-5" d="M59.03,4.76c-.93,1.83,1.02,2.26.91.11.48.03,1.61-.12,1.81.51.55,1.75-1.54,2.09.23,1.98,0,.09.13.11.11.34,0,.04,0,.08,0,.11-.12.04-.77.42-.79.45-.5.67-.09,3.29-.23,4.36l-.57-.4c-.02-.41.01-.83,0-1.25.34-.28-.19-.68-.23-1.02-.07-.64.14-1.3-.11-1.93-1.11-.91-.95-.34-1.02-.34-.11,0-.02-.11-.45-.11.3-.38-1.29-.88-1.47-.91.28-.4.63-.77.79-1.25.44-.26.43-.6,1.02-.68Z"/>
          <path class="cls-4" d="M59.94,4.87c.11,2.15-1.84,1.71-.91-.11.05,0,.35.08.91.11Z"/>
          <path class="cls-21" d="M60.16,8.04h-.91c.01-.21-.07-.21-.11-.34.07,0-.09-.57,1.02.34Z"/>
        </g>
        <g>
          <g>
            <path class="cls-25" d="M97.65,23.78c.09-1.78-.11-3.55-.11-5.32,0-.79-.13-3.34-.11-3.51.01-.12.59-.83.57-.96-.05-.22-2.57-1.44-3.74,1.19-.18.01-.09-.19-.11-.23.34-2.55,4.13-2.3,4.64-.96.25.66.22,3.75-.23,4.53.69.68.19,3.6.34,5.32-.15.34-1,.06-1.25-.06Z"/>
            <path class="cls-4" d="M97.65,23.78c-.24-.11-.58-.24-.57-.57-.05-1.51.06-3.03,0-4.53l.45-.23c0,1.77.2,3.55.11,5.32Z"/>
          </g>
          <path class="cls-43" d="M97.42,14.95c-.02.17.11,2.72.11,3.51l-.45.23c0-.09-.1-.1-.11-.34-.03-.93.06-3.17,0-3.51l.45.11Z"/>
          <path class="cls-25" d="M96.97,14.84c.06.34-.03,2.59,0,3.51-2.36.83-.51-1.97-1.59-3.34-.14-.84,1.31-1.62,1.59-.17Z"/>
        </g>
        <g>
          <path class="cls-19" d="M2.85,38.51h-.79c.46-2.34-1.28-1.58-1.36-1.42-.07.15.05,1.02,0,1.42-.03,0,.07.18-.68.11-.03-.16-.03-2.15,0-2.27h2.66c.36.27.08,1.69.17,2.15Z"/>
          <path class="cls-22" d="M2.06,38.51c-.45.03-.91-.04-1.36,0,.05-.4-.07-1.27,0-1.42.07-.17,1.82-.92,1.36,1.42Z"/>
        </g>
        <path class="cls-16" d="M61.97,14.38c.02.41,0,.83,0,1.25.03,1.73-.01,3.47,0,5.21-.53,0,.08,2.21-.51,1.81-.24-.17.22-1.94-.28-1.93l.11-8.27c1.04.38.63.8.68,1.93Z"/>
        <g>
          <path class="cls-39" d="M77.6,14.95v19.99l.23-.06c.98-.52,3.03-1.1,3.4-.68-1.31.14-2.46.37-3.62,1.02-.96.53-2.29,1.93-2.94,2.83-.34,0-.57.04-.91-.11.82.52,1.58-1.84,3.4-2.89.02-.36-.02-.72,0-1.08.34-5.02-.18-14.25-.11-19.76.51-.48.36.16.57.74Z"/>
          <path class="cls-5" d="M91.08,13.02c-2.26-.08-15.06-.39-15.86-.34-.78.05-1.28-.27-1.47.74-.21,1.14-.11,20.07-.11,23.16,0,.26-.07,1.24.11,1.36-.02-.01-.28.02-.34-.17-.16-.48,0-8.62,0-10.08,0-1.91-.07-13.69.11-14.38.07-.25.47-.78.74-.85.77-.2,12.22.62,12.8.34.08-.04.21-.43.17-.57,1.14.1,2.9.29,3.85.79Z"/>
          <path class="cls-19" d="M98.78,39.3c-.02.73.15,1.41-.34,1.36h-.11c-.26-.24-.67-.94-1.02-1.36-.99-1.93-2.85-3.43-4.81-4.3-.72-.18-.7,0-.74,0-.04,0-.08,0-.11,0-2.49-.65-2.94-.66-5.49-.79-.09,0-.03-.22-.11-.23-.78-.03-3.91.13-4.81.23-.37-.43-2.42.16-3.4.68-1.26-2.76,4.47-2.46,6.29-2.38,3.15.15,8.32,1.03,10.87,2.94,1.42,1.07,2.23,2.91,3.79,3.85Z"/>
          <path class="cls-8" d="M91.08,13.02c.29.01.71.35.68-.11.04.02.3-.04.79.34.12.25,1.09,1.87.68,2.04-.23-.17-.74-.34-.79,0-.11,0-.23,0-.34,0,.06-.56-2.59-.23-3.74-.23.16-.72-1.21-.1-2.77-.23-2.8-.22-3.36-1.13-8.66-1.02-.51.01-1.37.19-1.7-1.13.79-.05,13.6.26,15.86.34Z"/>
          <path class="cls-33" d="M88.36,15.06c-3.59.03-7.19.13-10.76-.11-.21-.57-.05-1.21-.57-.74-.06,5.52.45,14.75.11,19.76-.14.02-.34-.03-.45,0l.23-.17V13.82c5.3-.11,5.86.8,8.66,1.02,1.56.12,2.94-.5,2.77.23Z"/>
          <g>
            <path class="cls-24" d="M88.36,15.06c1.14,0,3.8-.33,3.74.23-3.95.17-7.94-.2-11.89.11-.6.13-.74.1-1.13.57-.01.02-.25.14-.34.28.34,2-1.01,6.82.96,7.98.94.56,13.28,1.83,15.63,2.38,1.39-2.56-.48,4.5.96,1.64.18-.36.28-1.08.45-1.53.1-.27.16-.44.11-.74.32-.46,5.19,3.27,5.66,2.6.56-.78-3.71-2.98-4.42-3.34l.11-.11c.71.46,4.38,2.28,4.53,2.77l-.11,12.74c-.88-.04-2.63-.03-3.51,0l-.11-12.29c-.49,3.53-.12,7.31-.23,10.93-1.56-.94-2.37-2.78-3.79-3.85-2.55-1.92-7.73-2.79-10.87-2.94-1.81-.09-7.55-.38-6.29,2.38l-.23.06V14.95c3.57.24,7.17.14,10.76.11Z"/>
            <g>
              <g>
                <path class="cls-33" d="M98.1,25.26c.71.36,4.98,2.56,4.42,3.34-.47.66-5.35-3.07-5.66-2.6.05.29,0,.46-.11.74-.12-1.2.14-2.09,1.36-1.47Z"/>
                <path class="cls-40" d="M99.12,40.66c-.39.01-.64.25-.68,0,.49.05.32-.63.34-1.36.1-3.62-.26-7.4.23-10.93l.11,12.29Z"/>
              </g>
              <g>
                <path class="cls-25" d="M85.31,28.54c.36.01.39.11.45.11-.51,1.08,1.05.65,1.13-.11.32-.17.26,1.02.23,1.08-.12.17-1.21-.03-1.42.06-.36.16.02.98-.34,1.13-.24.11-3.6-.08-4.42,0l-.06-2.27c-.51,1.78,2.02.7,4.47,1.02.26-.1-.02-.74-.06-1.02Z"/>
                <path class="cls-26" d="M85.31,28.54c.04.28.31.92.06,1.02-2.45-.32-4.98.76-4.47-1.02,1.47.04,2.95-.05,4.42,0Z"/>
                <path class="cls-32" d="M86.89,28.54c-.08.77-1.64,1.19-1.13.11.06,0,.75-.25,1.13-.11Z"/>
              </g>
            </g>
          </g>
          <g>
            <path class="cls-5" d="M94.14,14.95s-.07.24.11.23l-.11.4c1.03,2.37,1.71,5.47,2.6,7.76.1.25.18.76.34,1.08.33.44.75.49,1.13.74l-.11.11c-1.22-.62-1.48.27-1.36,1.47-.17.45-.27,1.17-.45,1.53-1.44,2.86.42-4.2-.96-1.64-2.35-.55-14.68-1.82-15.63-2.38-1.98-1.17-.62-5.98-.96-7.98.09-.14.33-.27.34-.28-.38.91-.22,2.37-.23,3.51,0,1.04-.05,2.02.11,3.06.25,1.58.41.24,1.25,1.02-1.29.02.77.59,1.19.68,3.92.8,9.18.96,13.25,1.93,1.61-.55-3.44-1.11-4.25-1.25l1.02-.34c.64.11,4.04.72,4.25.68.1-.02.04-.22.06-.23.02-.01.39-.06.45-.28.16-.56-2.22-7.48-2.77-8.55-.63.13-.7.34-.74.34-.04,0-.08,0-.11,0,.09-.66.94-.23.4-1.13h-12.74c3.96-.31,7.94.06,11.89-.11.11,0,.23,0,.34,0,.26-.02.53.01.79,0,.41-.17-.56-1.79-.68-2.04-.68-1.45-1.45-2.51-2.27-3.85,1.03.77,2.44,3.76,2.66,3.85.17.07,1.31-.06,1.76.17-.92.69-1.58.15-.57,1.53Z"/>
            <path class="cls-9" d="M80.21,15.4h12.74c.55.9-.31.47-.4,1.13-.75.04-5.74-.15-5.89.17l.68,7.14c.15.25,3.53.64,4.08.74l-1.02.34c-1.73-.28-9.26-1.37-10.19-1.36-.84-.78-1,.56-1.25-1.02.17.24.33.38.62.45,1.22.3,5.58.73,7.19.85-.17-.83-.52-7.04-.85-7.19l-6.8.11-.11,5.44-.17-2.72c0-1.15-.16-2.6.23-3.51.39-.46.53-.43,1.13-.57Z"/>
            <path class="cls-3" d="M92.55,16.54s.08,0,.11,0c.3,1.26.83,2.21,1.25,3.34.08.22-.12.32-.11.34.01.04.23.04.34.34.23.62.29,1.34.68,1.81l.91,2.66s.04.21-.06.23c-.21.05-3.61-.57-4.25-.68-.55-.09-3.93-.49-4.08-.74l-.68-7.14c.15-.32,5.14-.13,5.89-.17Z"/>
            <path class="cls-3" d="M78.96,22.54c-.16-1.03-.12-2.02-.11-3.06l.17,2.72.11-5.44,6.8-.11c.33.15.68,6.36.85,7.19-1.61-.12-5.98-.55-7.19-.85-.29-.07-.45-.21-.62-.45Z"/>
            <path class="cls-20" d="M80.21,23.56c.93-.01,8.46,1.08,10.19,1.36.81.13,5.86.7,4.25,1.25-4.07-.97-9.33-1.12-13.25-1.93-.42-.09-2.48-.66-1.19-.68Z"/>
            <path class="cls-18" d="M95.73,25.03l-.91-2.66c-.39-.47-.45-1.19-.68-1.81-.11-.3-.33-.3-.34-.34,0-.02.19-.12.11-.34-.42-1.14-.95-2.08-1.25-3.34.04,0,.1-.21.74-.34.56,1.07,2.93,8,2.77,8.55-.06.23-.43.27-.45.28Z"/>
          </g>
          <path class="cls-29" d="M93.23,15.29c-.26.01-.53-.02-.79,0,.05-.34.57-.17.79,0Z"/>
          <g>
            <path class="cls-33" d="M75,2.04c2.92.88,9.77,4.04,12.12,5.89,1.43,1.12,2.15,2.48,2.27,2.6-.28-.06-.37.12-.45.11-.31-.02-3.25-2.33-5.27-3.4-3.88-2.07-8.22-3.46-12.57-4.08-1.22-.17-7.22-.73-8.1-.68-.57.03-.57.27-1.02.23,0-.36-.05-2.64.06-2.72,4.22.41,8.91.81,12.97,2.04Z"/>
            <path class="cls-8" d="M86.21,6c1.8,1.37,2.36,1.66.91,1.93-2.35-1.85-9.2-5.01-12.12-5.89,3.81.38,8.13,1.62,11.21,3.96Z"/>
            <path class="cls-22" d="M90.18,9.17c-.24.05,0,.14.11.23.81,1.34,1.59,2.4,2.27,3.85-.5-.38-.76-.32-.79-.34-.52-.33-1.84-1.81-2.38-2.38-.12-.13-.84-1.48-2.27-2.6,1.46-.26.89-.56-.91-1.93,1.3.75,3.04,2.01,3.96,3.17Z"/>
            <path class="cls-40" d="M62.99,2.49c.23.5-.16.42-.23.79-.12.61-.1,1.09-.11,1.7-.47.17-.39.26-.45.45-.35.11-.23-1.52-.23-2.72.45.05.45-.2,1.02-.23Z"/>
            <path class="cls-11" d="M90.29,9.4c-.12-.09-.35-.17-.11-.23l.11.23Z"/>
            <path class="cls-5" d="M62.43,11.67c3.85-.05,7.7.02,11.55.11-1.15.24-.47.23-.57.68q-5.69-.06-11.38-.11c-.13-.09-.02-.52-.06-.68h.45Z"/>
            <path class="cls-15" d="M88.93,10.65c-.02.08.12.16.11.17-.05.1-.15.04-.23.06-9.02-5.35-15.44-7.38-26.05-7.59.07-.37.46-.29.23-.79.88-.05,6.87.5,8.1.68,4.35.62,8.69,2.01,12.57,4.08,2.01,1.07,4.95,3.38,5.27,3.4Z"/>
            <g>
              <path class="cls-37" d="M62.77,8.04c-.39.03,0-.46-.68-.34.02-.23-.12-.25-.11-.34.06-.61.05-1.35.23-1.93.06-.2-.02-.28.45-.45-.02,1,.12,2.04.11,3.06Z"/>
              <path class="cls-41" d="M88.82,10.87c.07-.02.17.04.23-.06,0-.01-.14-.09-.11-.17.08,0,.17-.17.45-.11.54.57,1.86,2.05,2.38,2.38.03.46-.39.12-.68.11-.95-.5-2.71-.7-3.85-.79-2.91-.24-9.76-.37-13.25-.45-3.85-.1-7.7-.16-11.55-.11-.29-.39.27-.13.34-.28.05-.13,0-2.15,0-2.66,4.69-.06,9.32.52,13.99.91,1.76.14,3.99.06,5.66.23,2.38.24,5.81,1.16,6.4,1.02Z"/>
              <path class="cls-19" d="M62.77,8.04c0,.23,0,.45,0,.68,0,.51.05,2.54,0,2.66-.06.15-.63-.1-.34.28h-.45c-.39-1.77.07-3.28.11-3.85,0-.04,0-.08,0-.11.68-.12.29.37.68.34Z"/>
              <path class="cls-33" d="M88.82,10.87c-.59.14-4.02-.78-6.4-1.02-1.68-.17-3.91-.08-5.66-.23-4.66-.38-9.3-.96-13.99-.91,0-.23,0-.45,0-.68,0-1.02-.13-2.05-.11-3.06.01-.6,0-1.09.11-1.7,10.61.21,17.03,2.24,26.05,7.59Z"/>
            </g>
          </g>
          <g>
            <path class="cls-38" d="M73.07,14.5c-.36,6.22.27,16.36,0,23.16-3.66.05-7.98,1.07-11.1-1.3.17-5.17.03-10.35,0-15.52-.01-1.74.03-3.48,0-5.21,1.32-.19,10.62.31,10.87-.17.05-.1-.04-.69,0-.96h.23Z"/>
            <path class="cls-8" d="M62.09,7.81c-.04.57-.5,2.09-.11,3.85.04.16-.07.59.06.68q5.69.06,11.38.11c-.2.89-.28.96-.34,2.04h-.23l-10.87-.11c-.05-1.13.36-1.55-.68-1.93v-4.19s.67-.41.79-.45Z"/>
            <path class="cls-22" d="M72.85,14.5c-.04.27.05.86,0,.96-.25.48-9.55-.02-10.87.17,0-.41.02-.83,0-1.25l10.87.11Z"/>
          </g>
          <path class="cls-19" d="M77.15,33.98c-.02.36.02.72,0,1.08-1.82,1.04-2.58,3.41-3.4,2.89-.18-.12-.11-1.1-.11-1.36.44.08.12-.69.23-.96.09-.23,2.5-1.54,2.83-1.64.11-.03.31.02.45,0Z"/>
          <path class="cls-34" d="M75.23,12.68c.33,1.32,1.18,1.14,1.7,1.13v19.99l-.23.17c-.33.1-2.74,1.41-2.83,1.64-.11.27.22,1.04-.23.96,0-3.09-.1-22.02.11-23.16.19-1.01.69-.68,1.47-.74Z"/>
        </g>
        <g>
          <path class="cls-2" d="M91.87,35.79c4.12,1.12,5.35,4.77,5.72,4.87.64.18.01-.78-.28-1.36.35.42.76,1.12,1.02,1.36,0,0-.24.02-.06.23,1.43-.17,3.69.3,4.47-.23.3.02.61-.01.91,0,.62,2.08-1.79.57-2.49,1.36-1.25-.02-1.29.11-1.36.11-.09,0-1.11-.22-1.76-.11-.32.14-.11,1.1-.17,1.7-.03.26-.3.95,0,1.25-.32.9-.68.72-.91.79-.17.04-.52-.29-.57-.4-.56-1.17-1.04-8.76-8.66-9.34-2.44-.19-7.64-.18-9.74,1.02-2.02,1.16-4.59,5.28-5.15,7.47-.18-.47-.57-.25-.45-.79,0,0,.06.05.11-.11.92-2.66,2.98-5.57,5.44-7.02,2.92-1.73,10.72-1.66,13.93-.79Z"/>
          <path class="cls-46" d="M77.94,36.58c-2.45,1.45-4.52,4.36-5.44,7.02-.35.03.25-1.89.45-2.44.31-.82,1.18-2.4,1.7-3.11.65-.9,1.99-2.3,2.94-2.83.3.82-.48.53.34,1.36Z"/>
          <path class="cls-2" d="M72.85,44.51c-.13.51-.26,2.54-.34,2.66-.11.13-.33.02-.45.06-.05-1.35-.06-2.23.34-3.51-.12.54.27.33.45.79Z"/>
          <path class="cls-35" d="M91.65,35c-.03.49-.27.47.23.79-3.21-.87-11.01-.94-13.93.79-.82-.83-.04-.54-.34-1.36,1.17-.65,2.32-.88,3.62-1.02.9-.1,4.04-.26,4.81-.23.09,0,.03.22.11.23,2.55.14,3,.14,5.49.79Z"/>
          <path class="cls-44" d="M97.31,39.3c.3.58.92,1.54.28,1.36-.37-.1-1.6-3.75-5.72-4.87-.5-.32-.26-.3-.23-.79.04,0,.08,0,.11,0,2.44.56,4.03,2.48,5.55,4.3Z"/>
          <path class="cls-20" d="M97.31,39.3c-1.52-1.82-3.11-3.74-5.55-4.3.04,0,.02-.18.74,0,1.96.87,3.82,2.37,4.81,4.3Z"/>
        </g>
        <g>
          <path class="cls-36" d="M2.63,8.27l.23,25.48v.45h-.34c-.02-3.51.23-24.68-.11-25.94h.23Z"/>
          <path class="cls-25" d="M5.35,5.44c.96,1.28-.41,2.81-1.36,1.25-.24-.12-1.28,1.23-1.36,1.59h-.23c-.03-.11-.72.46.23-1.19-1.88-2.39,1.1-2.12,2.72-1.64Z"/>
          <path class="cls-15" d="M5.57,5.44c0,.07.23,0,.34,1.25v.23c-.33.37-.68.67-1.19.57-.22.15-.15.27-.17.34-.13.5-.11,1.51.68,1.25,0,.11-.11.12-.11.23-1.07-.11-.5.76,0,1.25-.01.02.02.13-.11.11-.01-.02-.27-.18-.34-.23-.18-.12-.47-.29-.68-.34v-3.4c.95,1.56,2.32.03,1.36-1.25.06.02.15,0,.23,0Z"/>
          <path class="cls-28" d="M58.69,7.59c-.06,0-.17.12-1.13.11-17.4-.04-34.81-.06-52.21.11h-.79c.02-.07-.05-.19.17-.34.51.1.86-.19,1.19-.57,14.89.12,29.79.44,44.68.23,1.06-.02,5.8.01,6.34-.11.09-.02.21-.22.17-.34.04,0,.08,0,.11,0,.19.03,1.77.53,1.47.91Z"/>
          <g>
            <path class="cls-18" d="M58.01,5.44c-.16.48-.51.84-.79,1.25-.04,0-.08,0-.11,0H5.91c-.11-1.24-.33-1.18-.34-1.25,0-.03.15.08,0-.62l.51-.17h52.1c.11.06-.13.67-.17.79Z"/>
            <path class="cls-7" d="M57.1,6.68c.04.12-.08.32-.17.34-.54.13-5.29.1-6.34.11-14.89.21-29.79-.11-44.68-.23v-.23h51.19Z"/>
          </g>
          <path class="cls-40" d="M59.14,7.7c.04.13.13.13.11.34-.06.9-.65,2.59,1.02,1.93.04.34.57.74.23,1.02.11-.72-.55-.23-1.53-.34,0,.38.14.69.28,1.02-.07,0-.22.14-.23.17-.18,1.05.13,4.81,0,6.46.76.2.75-.06.79-.06.34,0,.46-.15.51-.11.15.09-.1.52.28.45-.02,1.12.27,2.3-.45,2.72-.22-.1-.43-.17-.68-.11-.17.04-.31.07-.45.17.16,2.66-.21,6.99,0,9.29,0,.09.22.05.23.06.02.11-.41.12-.17.57,2-.19,1.62.03,1.42,2.94h-.11c.09-.39-.49-.16-1.19-.23-.09,0-.04-.23-.06-.23-.27-1.12-.31-1.75-1.25-1.36.25-.36-.11-.1-.23-.34l.34-.17c-.19-3.66.25-22.35,0-23.5-.08-.38-.57-.16-.45-.68.96,0,1.08-.11,1.13-.11.44,0,.34.11.45.11Z"/>
          <path class="cls-15" d="M61.3,12.46l-.11,8.27c.11,4.49-.15,8.99,0,13.48h-.68c.2-2.92.58-3.13-1.42-2.94-.24-.45.19-.46.17-.57h.34c.23.01.92.03,1.02-.17.21-.4-.16-7.77,0-8.95-.26-.34-.43-.27-.45-.28.73-.42.43-1.59.45-2.72.04-1.94-.02-4.39-.11-6.34l.57.4c.13-1.07-.28-3.69.23-4.36v4.19Z"/>
          <path class="cls-18" d="M60.5,10.99c.01.41-.02.83,0,1.25.09,1.95.15,4.4.11,6.34-.39.07-.13-.36-.28-.45-.05-.03-.17.11-.51.11-.09-1.06,0-5.89-.11-6.29-.04-.13-.44-.25-.45-.28-.14-.33-.29-.64-.28-1.02.98.11,1.63-.38,1.53.34Z"/>
          <path class="cls-32" d="M60.16,8.04c.26.62.04,1.29.11,1.93-1.66.67-1.08-1.02-1.02-1.93h.91Z"/>
          <path class="cls-32" d="M3.99,6.68v3.4l-.11,21.58.68.06v.11c-.65.16-.38.37-.45.45-.02.02-.31-.05-.45.4-.18.57.48,1.58-.79,1.08l-.23-25.48c.08-.36,1.12-1.71,1.36-1.59Z"/>
          <path class="cls-40" d="M4.67,10.42c-.2,2.65-.12,5.33-.11,7.98,0,.09.23,0,.23.17,0,.76,0,1.51,0,2.27,0,.01-.23.09-.23.17,0,3.57,0,7.14,0,10.7l-.68-.06.11-21.58c.21.04.5.22.68.34Z"/>
          <path class="cls-18" d="M5.8,8.38v23.39c-.91.41-.14.27.57.28-.02.67-.03.51-1.19.11-.2-.07-.15-.34-.17-.34.08,0,.21.03.23-.06.12-.52,0-9.17,0-10.7,0-.83,0-1.66,0-2.49,0-1.29.09-7.27,0-7.64,0-.02-.17-.21-.23-.28.14.01.1-.1.11-.11.32-.49,0-1.18,0-1.25,0-.11.11-.12.11-.23,0-.22-.02-.46,0-.68.19,0,.38,0,.57,0Z"/>
          <path class="cls-7" d="M5.01,10.65c.05.07.22.27.23.28.09.37,0,6.35,0,7.64h-.45c0-.17-.23-.08-.23-.17,0-2.66-.09-5.33.11-7.98.07.05.33.21.34.23Z"/>
          <path class="cls-27" d="M5.35,7.81c.06.37-.1.49-.11.57-.02.22,0,.46,0,.68-.79.26-.81-.75-.68-1.25h.79Z"/>
          <path class="cls-45" d="M5.12,9.29c0,.06.32.76,0,1.25-.5-.49-1.07-1.36,0-1.25Z"/>
          <g>
            <path class="cls-5" d="M57.56,7.7c-.12.52.37.3.45.68-17.18-.11-34.36.08-51.53.11-.03,0-.11-.1-.68-.11-.19,0-.38,0-.57,0,0-.08.18-.2.11-.57,17.4-.17,34.81-.16,52.21-.11Z"/>
            <path class="cls-42" d="M58.01,8.38c.25,1.15-.19,19.84,0,23.5l-.34.17q-25.57-.06-51.14-.11c-.12-1.55-.04-3.1-.06-4.64-.07-6.27.06-12.54,0-18.8,17.18-.03,34.35-.22,51.53-.11Z"/>
          </g>
          <path class="cls-40" d="M6.48,8.49c.06,6.27-.07,12.54,0,18.8l-.23-16.82c-.28,7.17.33,14.42.11,21.58-.71-.01-1.48.13-.57-.28V8.38c.57,0,.65.11.68.11Z"/>
          <path class="cls-18" d="M5.01,31.83s-.03.27.17.34c1.16.39,1.17.55,1.19-.11,1.42.02,2.1-.3,2.77,1.93l-4.76-.11c.04-.67.27-1.76-.28-1.59.07-.08-.2-.29.45-.45.02,0,.43,0,.45,0Z"/>
          <path class="cls-18" d="M59.14,33.75c-.32,0-1.76.51-1.93.06-.03-.08.1-1.18.68-1.42.94-.39.98.24,1.25,1.36Z"/>
          <g>
            <path class="cls-18" d="M6.48,27.29c.02,1.55-.06,3.1.06,4.64q25.57.06,51.14.11c.11.24.47-.02.23.34-.58.24-.71,1.34-.68,1.42.16.45,1.61-.07,1.93-.06.01,0-.04.22.06.23.69.06,1.28-.17,1.19.23-6.15-.02-12.31.02-18.46,0-9.1-.04-18.19-.06-27.29,0-3.93.02-7.85-.02-11.78,0v-.45c1.27.5.61-.51.79-1.08.14-.45.43-.37.45-.4.56-.17.32.91.28,1.59l4.76.11c-.68-2.23-1.36-1.9-2.77-1.93.22-7.16-.4-14.41-.11-21.58l.23,16.82Z"/>
            <path class="cls-19" d="M55.63,33.18s-.05.18-.34.34c-.61.34-1.2.63-1.93.4,1.22-1.05,2.85-1.78,2.27-.74Z"/>
            <path class="cls-8" d="M55.29,33.52c.29-.16.32-.33.34-.34.31-.22.49-.51.57-.4.11,1.07-.12,1.1-1.08,1.08l.17-.34Z"/>
          </g>
          <g>
            <path class="cls-18" d="M60.16,21.29s.2-.06.45.28c-.16,1.18.21,8.55,0,8.95-.1.2-.79.18-1.02.17l-.11-9.51c.24-.05.46,0,.68.11Z"/>
            <path class="cls-27" d="M59.48,21.18l.11,9.51h-.34s-.22.04-.23-.06c-.21-2.3.16-6.63,0-9.29.14-.1.29-.13.45-.17Z"/>
          </g>
          <path class="cls-13" d="M59.82,18.23s-.03.25-.79.06c.13-1.65-.18-5.41,0-6.46,0-.03.16-.18.23-.17.01.03.42.15.45.28.11.4.02,5.23.11,6.29Z"/>
          <path class="cls-7" d="M5.23,21.07c0,1.54.12,10.18,0,10.7-.02.08-.15.06-.23.06-.02,0-.43,0-.45,0v-.11c0-3.57,0-7.14,0-10.7,0-.08.23-.16.23-.17l.45.23Z"/>
          <path class="cls-31" d="M5.23,18.57c0,.83,0,1.66,0,2.49l-.45-.23c0-.76,0-1.51,0-2.27h.45Z"/>
        </g>
        <g>
          <path class="cls-9" d="M21.66,39.3c-.34.78,1.62.28,3.11,1.25,2.32,1.49,5.94,9.58-1.47,12.01-.22.07-.32-.15-.45-.11-.16.04-.98.78-3.06.45-.12-.02-1.69-.76-2.27-.68-.99-.43-1.53-1.36-2.44-1.25-.03-.05-.44-.42-.45-.45-.18-.34-.75-2.18-.79-2.55-.52-4.93,2.83-8.81,7.81-8.66Z"/>
          <path class="cls-9" d="M22.45,49.49c.69-.71,1.29-1.45,1.36-2.49.08-1.3-.59-2.71-1.81-3.17-1.48-.55-2.75,0-3.62,1.25-1.61,2.29-.42,5.23,2.49,4.98-1.05.87-2.27-.87-3.45-.68-4.21-5.48,4.47-10.35,6.97-4.7.42.94.06,2.26.34,2.94-.84.5-1.43,1.37-2.27,1.87Z"/>
          <path class="cls-12" d="M18.6,45.42c-.02.05-.1.46-.11.57-.3,2.42,1.68,3.87,3.68,2.94.82-.38,1-1.41,1.64-1.93-.07,1.04-.67,1.78-1.36,2.49-.49.29-1,.52-1.59.57-2.91.25-4.1-2.69-2.49-4.98l.23.34Z"/>
          <path class="cls-23" d="M22,43.83c.01.15-.16.13-.34.11-1.01-.08-2.64.35-3.06,1.47l-.23-.34c.88-1.25,2.14-1.8,3.62-1.25Z"/>
          <path class="cls-6" d="M21.66,43.94c-.05.24,0,.98-.17,1.13-.12.11-2.68,1.25-3,.91.01-.11.09-.51.11-.57.41-1.13,2.05-1.55,3.06-1.47Z"/>
          <g>
            <path class="cls-11" d="M23.81,47c-.64.52-.83,1.55-1.64,1.93-2.01.92-3.98-.52-3.68-2.94.32.34,2.88-.8,3-.91.17-.16.12-.9.17-1.13.18.01.35.03.34-.11,1.23.46,1.9,1.87,1.81,3.17Z"/>
            <path class="cls-8" d="M23.24,46.89c-.56,1.36-1.15,2.66-2.94,1.87.27-.24.02-.49,0-.74.47.74.68-.17,1.19-.23.6-.06,1.19.98,1.64-1.13.15.01.12.11.11.23Z"/>
            <path class="cls-1" d="M23.13,46.66c-.45,2.11-1.04,1.07-1.64,1.13-.51.05-.72.97-1.19.23,0-.1-.23-.25-.06-.45.67.07.86-.01,1.42-.23.58-.23,1.07-.72,1.47-.68Z"/>
            <path class="cls-23" d="M23.24,46.89c0-.11.04-.21-.11-.23-.4-.04-.89.45-1.47.68-.11-.17.09-1.31.17-1.36.1-.07,2.22-.33,1.76.85-.04.11-.33.03-.34.06Z"/>
          </g>
        </g>
        <g>
          <path class="cls-25" d="M87.23,12.23c.04.14-.09.53-.17.57-.58.28-12.03-.54-12.8-.34-.27.07-.67.6-.74.85-.19.69-.11,12.47-.11,14.38,0,1.46-.16,9.6,0,10.08.06.19.32.16.34.17.33.15.56.12.91.11-.52.72-1.39,2.3-1.7,3.11-.21.54-.81,2.46-.45,2.44-.06.16-.11.11-.11.11-.4,1.28-.39,2.16-.34,3.51-.43.14-3.18.18-3.28.06.76-2.12.23-4.05.45-6.23l-.51-.4c-2.5.31-17.24-.22-18.12,0-1.43.35-.4,2.67-.85,4.81-6.93.08-3.25-.42-5.32,4.02-.04.08-.08.39-.11.45-.27.5-1.23,1.27-1.53,1.81h35.9c-.47-.62-1.22-1.16-1.64-1.81-.53-.83-.8-1.77-1.02-2.72.44-.41-2.07-.71-1.98-.11-.19-3.57,1.68-8.06,5.21-9.4.91-.35,4.41-.88,5.44-.91,5.11-.11,7.98,1.42,9.91,6.29.55,1.38.07,3.25,2.32,2.89.1-.02.05-.22.06-.23.23-.08.58.11.91-.79.68.06,5.59-.06,5.83.11.09.07.09,1.52,0,1.59-.38.27-8.85-.08-9.23.23-.66,1.48-1.08,3.51-3.11,2.83l-1.93,2.27c3.57.02,7.14-.03,10.7,0,.18.42-1.26.57-1.76.57-.86.97-1,1,.4,1.25-.19.01-.38-.01-.57,0-6.42.36-12.84.15-19.25.11-.87,0-1.75-.11-2.6-.11-.19,0-.38,0-.57,0-9.26-.05-18.49-.03-27.75,0-2.39,0-4.81.13-7.19.23-10.49-.09-20.95.07-31.43-.45-.08,0-.15,0-.23,0l.11-1.47c2.15-.11,4.36,0,6.51,0-.04-.35-.45-.7-.74-1.13.9-.11,1.45.82,2.44,1.25.57-.08,2.15.66,2.27.68,2.08.33,2.9-.41,3.06-.45.13-.04.23.18.45.11,7.41-2.43,3.79-10.51,1.47-12.01-1.5-.97-3.46-.47-3.11-1.25.49.01.99.03,1.47.11,1.02.17,2.92.85,3.79,1.47l.17-.17c-1.45-1.19-2.16-1.66-4.08-1.76-2.87-.14-6.92.15-10.02-.11-1.27,1.74-.39,5.08-1.76,4.3-.12-1.67,1.14-4.02.17-3.74-.57.17-1.54,6.66-1.87,7.59-.92,0-1.66.08-2.6,0,.05-.55,1.19-4.04.96-4.19-.28-.01-.57.02-.85,0-1.64-.12-5.34.27-5.21-.28.09-.36,5.51-.08,6.17-.17.16-.07.81-2.71.85-3.06,0-.02.24,0,.06-.34H2.91c-.11-.07-.03-.33-.06-.45-.09-.46.19-1.88-.17-2.15H.02c.03-.11-.06-.26.06-.34.62-.32,7.8.74,9.23-.34.96-.13,1.85-.39,2.77-.68,1.22-.17,1.7,0,1.87,0,3.26-.12,25.79-.16,27.97,0,1.91.14,2.7.61,3.85.79,4.05.64,14.37.03,15.8.34.02,0,.16.13.4.23,3.12,2.37,7.44,1.35,11.1,1.3.27-6.8-.36-16.94,0-23.16.06-1.08.14-1.15.34-2.04.1-.45-.58-.44.57-.68,3.49.09,10.34.21,13.25.45Z"/>
          <path class="cls-15" d="M2.06,38.51h.79c.02.12-.06.39.06.45h6c.18.34-.05.32-.06.34,0-.07-.13-.22-.17-.23-.83-.18-6.67.14-8.49,0-.24-.15-.14-.29-.17-.45.75.06.65-.11.68-.11.45-.04.91.03,1.36,0Z"/>
          <path class="cls-48" d="M38.76,39.3c-.61-.07-1.28-.53-1.3.11-1.25-.21-3.17.26-4.25.91-.66.29-.26-.47.06-1.47,3.36.26,6.66-.14,10.08.11.13,3.98.78.94-4.59.34Z"/>
          <path class="cls-10" d="M30.38,49.61c.16.32.29.69.45,1.02.76,1.51,1.72,1.29-3.06,1.19,2.65-2.86,1.73-3.93,2.6-2.21Z"/>
          <path class="cls-48" d="M23.13,39.41l.23-.17-.34-.28c1.92.09,2.62.57,4.08,1.76l-.17.17c-.87-.62-2.77-1.3-3.79-1.47Z"/>
          <g>
            <path class="cls-9" d="M38.76,39.3c-.38.8,1.76.34,3.17,2.21,2.36,3.14,1.84,8.41-1.76,10.48-2.43,1.4-5.56,1.13-7.81-.45-1.02-.71-.82-1.54-1.53-.91-.17-.33-.29-.7-.45-1.02-1.07-3.12-.15-7.5,2.83-9.29,1.08-.65,3-1.11,4.25-.91.02-.64.69-.18,1.3-.11Z"/>
            <g>
              <path class="cls-29" d="M34.34,47.34c.64,2.85,5.03,2.66,5.15-1.59.95,5.07-5.6,5.67-6.06,1.7.76-.42.45-1.29.96-1.93-.11.8-.26.9-.06,1.81Z"/>
              <path class="cls-11" d="M38.87,44.74s-.26.27-.34.45c-.2.45-.33,1.39-1.02,1.93-.4.31-.84.49-1.36.45,1.63-1.35-.72-.32-.45-2.04.89-.68,2.95-1.37,3.17-.79Z"/>
              <path class="cls-11" d="M36.83,43.49c.07.74-1.04.78-1.53,1.13-.98.71-.12.54.06.68-.51.45-.27,1.68.11,2.04-.28.08-.49.14-.79.11-.12-.01-.16-.17-.34-.11-.2-.91-.06-1.01.06-1.81-.51.64-.2,1.51-.96,1.93-.23-2.02,1.36-3.96,3.4-3.96Z"/>
              <path class="cls-22" d="M38.98,46.21c.15,2.89-3.17,3.98-4.3,1.25.3.03.52-.04.79-.11.16.15.46.21.68.23.52.03.96-.14,1.36-.45,1.63,1.47.88-.05,1.47-.91Z"/>
              <path class="cls-20" d="M38.87,44.74c-.22-.58-2.28.12-3.17.79-.11-.06-.24-.15-.34-.23-.17-.14-1.03.03-.06-.68.48-.35,1.6-.39,1.53-1.13,1.1,0,1.53.29,2.27,1.08-.13.17-.22.16-.23.17Z"/>
              <path class="cls-1" d="M38.98,46.21c-.59.85.16,2.38-1.47.91.69-.54.82-1.48,1.02-1.93.36,0,.44.69.45,1.02Z"/>
              <path class="cls-5" d="M35.7,45.53c-.27,1.71,2.08.69.45,2.04-.22-.01-.52-.08-.68-.23-.39-.36-.62-1.59-.11-2.04.1.08.22.17.34.23Z"/>
            </g>
          </g>
          <g>
            <path class="cls-9" d="M84.12,39.19c4.59-.22,8.1,3.55,7.64,8.1-.17,1.72-1.46,3.01-2.89,3.91-5.16,3.23-12.37-.86-11.04-7.19.57-2.71,3.65-4.69,6.29-4.81Z"/>
            <g>
              <path class="cls-3" d="M87.91,43.6c.21-.47.26.02.45.34-.03.01.06.13-.34.45-.33.26-.21.33-.23.34-.07.07-.15-.2-.45.34,0,.01-.17.22-.23.23-.04-1.88-3.14-2.51-3.74-.62-.3.97.08,1.51.11,1.76,0,.04-.5-.13.11.4-.61.22-.89-.76-1.47-.62.02-.14-.03-.33,0-.45.09-.38,1.94-1.49.4-.91-.27.1-.44.64-.51.91-.07.28-.33,1.29.11,1.02,1.58,1.61-1.44.83-1.02-.96.02-.09.95-1.14,1.13-1.42,0,0,.03.04.11-.11.79-.05,1.22-.73,1.76-1.25,2.81-.3,3.84,2.5,3.79.57Z"/>
              <path class="cls-25" d="M88.25,49.27c.66-1.07,1.27-3.9.11-4.64-.12-.08-.21-.17-.34-.23.4-.32.31-.44.34-.45.13-.07.23-.15.4-.11.67.75,1.24,2.1,1.08,3.11-.08.53-.97,2.72-1.59,2.32Z"/>
              <path class="cls-14" d="M82.13,45.76c-.03.13.02.31,0,.45v.57c-.44.27-.19-.74-.11-1.02h.11Z"/>
              <g>
                <path class="cls-25" d="M83.38,41.91c-.05.23-.2.5-.34.68-.37.49-2.27,1.98-.79,1.7v.11c-.19.27-1.11,1.32-1.13,1.42-.42,1.79,2.6,2.58,1.02.96v-.57c.58-.13.87.84,1.47.62-.61-.52-.11-.36-.11-.4.25.16.51.58.79.68-.03.56-1.02.24-1.19.34-.92.55,4.4.38,4.87,0,.73.92-.7,1.9-1.47,2.15-3.18,1.04-5.03-2.16-5.32-1.93-.23.66.59,1.84,1.08,2.27-.34.68-1.57-1.36-1.7-1.76-.87-2.62.33-5.28,2.83-6.29Z"/>
                <path class="cls-9" d="M86.27,48.25c.7.23.01,1.38-.57,1.13-.42-.18-.21-1.38.57-1.13Z"/>
                <path class="cls-2" d="M82.59,43.6s-.42.26-.34.68c-1.47.28.43-1.21.79-1.7-.03.63-.42.97-.45,1.02Z"/>
                <path class="cls-3" d="M84.06,48.7c.25-.17.15-.55-.17-.45l.06.23s-.58-.27-.06-.45c.82-.28,1.4,2.4.17.68Z"/>
                <path class="cls-31" d="M84.06,48.7c-.04-.06-.09-.16-.11-.23l-.06-.23c.32-.1.42.28.17.45Z"/>
              </g>
              <path class="cls-25" d="M88.36,44.62c.3,1.84-.65,3.54-1.59,1.81.2-.27.35-.79.34-1.13.05,0,.22-.21.23-.23.44.51.65.24.45-.34.01-.01-.1-.08.23-.34.13.05.22.15.34.23Z"/>
              <g>
                <path class="cls-9" d="M88.25,49.27c-1.22,1.98-4.33,2.14-6,.68-.48-.42-1.31-1.61-1.08-2.27.3-.23,2.15,2.96,5.32,1.93.77-.25,2.2-1.24,1.47-2.15-.47.38-5.79.55-4.87,0,.17-.1,1.16.22,1.19-.34.8.29,1.99,0,2.49-.68.93,1.73,1.89.02,1.59-1.81,1.16.74.55,3.57-.11,4.64Z"/>
                <path class="cls-46" d="M86.61,46.89c.48-.08.48.42,0,.34-.18-.03-.18-.31,0-.34Z"/>
              </g>
              <path class="cls-48" d="M82.13,45.76h-.11c.07-.27.24-.81.51-.91,1.55-.58-.3.53-.4.91Z"/>
              <path class="cls-48" d="M87.8,44.74c.2.58-.01.85-.45.34.31-.54.38-.27.45-.34Z"/>
              <g>
                <path class="cls-25" d="M87.91,43.6c.05,1.93-.99-.87-3.79-.57-.53.52-.97,1.2-1.76,1.25.11-.21.18-.45.23-.68.03-.05.43-.39.45-1.02.14-.18.29-.45.34-.68,3.26-1.31,4.52,1.19,4.53,1.7Z"/>
                <path class="cls-46" d="M82.36,44.28c-.08.15-.11.11-.11.11v-.11c-.08-.42.32-.65.34-.68-.04.23-.12.47-.23.68Z"/>
                <path class="cls-2" d="M84.34,41.79c.71-.26,1.74.14,1.98.96-2.65.18-2.59-.74-1.98-.96Z"/>
              </g>
              <g>
                <path class="cls-43" d="M87.12,45.3c0,.34-.14.86-.34,1.13-.5.68-1.69.97-2.49.68-.28-.1-.54-.52-.79-.68-.03-.24-.42-.79-.11-1.76.59-1.89,3.7-1.26,3.74.62Z"/>
                <path class="cls-25" d="M86.1,46.55c.88-1.67.16-1.99,0-1.53-.1.29.17.62-.17.96-.48.47-1.78.33-1.53-1.81,1.94-.98,3.32,1.31,1.7,2.38Z"/>
                <path class="cls-2" d="M84.4,44.17c-.25,2.14,1.05,2.29,1.53,1.81.34-.34.07-.67.17-.96.16-.46.88-.14,0,1.53-2.09,1.37-3.32-1.56-1.7-2.38Z"/>
              </g>
            </g>
          </g>
        </g>
      </g>
      <circle class="cls-47" cx="21.18" cy="46.68" r="4.53"/>
      <circle class="cls-47" cx="37.04" cy="46.68" r="4.53"/>
      <circle class="cls-47" cx="85.07" cy="45.55" r="4.53"/>
    </g>
  </g>
</svg>