<?xml version="1.0" encoding="UTF-8"?>
<svg id="Capa_2" data-name="Capa 2" xmlns="http://www.w3.org/2000/svg" xmlns:xlink="http://www.w3.org/1999/xlink" viewBox="0 0 103.88 54.04">
  <defs>
    <style>
      .cls-1 {
        fill: #c76203;
      }

      .cls-1, .cls-2, .cls-3, .cls-4, .cls-5, .cls-6, .cls-7, .cls-8, .cls-9, .cls-10, .cls-11, .cls-12, .cls-13, .cls-14, .cls-15, .cls-16, .cls-17, .cls-18, .cls-19, .cls-20, .cls-21, .cls-22, .cls-23, .cls-24, .cls-25, .cls-26, .cls-27, .cls-28, .cls-29, .cls-30, .cls-31, .cls-32, .cls-33, .cls-34, .cls-35, .cls-36, .cls-37, .cls-38, .cls-39, .cls-40, .cls-41, .cls-42, .cls-43, .cls-44, .cls-45, .cls-46, .cls-47, .cls-48 {
        stroke-width: 0px;
      }

      .cls-2 {
        fill: #303540;
      }

      .cls-3 {
        fill: #282a2e;
      }

      .cls-4 {
        fill: #474855;
      }

      .cls-5 {
        fill: #1c0e08;
      }

      .cls-6 {
        fill: #431e07;
      }

      .cls-7 {
        fill: url(#Degradado_sin_nombre_3);
      }

      .cls-8 {
        fill: #f0af9c;
      }

      .cls-9 {
        fill: #f89c22;
      }

      .cls-10 {
        fill: #13131e;
      }

      .cls-11 {
        fill: #b4b3b2;
      }

      .cls-12 {
        fill: #7c310a;
      }

      .cls-13 {
        fill: #eba630;
      }

      .cls-14 {
        fill: #d65547;
      }

      .cls-15 {
        fill: #797c81;
      }

      .cls-16 {
        fill: #380c03;
      }

      .cls-17 {
        fill: #dcac70;
      }

      .cls-18 {
        fill: #331d22;
      }

      .cls-19 {
        fill: #a00909;
      }

      .cls-20 {
        fill: #c2320b;
      }

      .cls-21 {
        fill: #602e15;
      }

      .cls-22 {
        fill: #e09c94;
      }

      .cls-23 {
        fill: #f98114;
      }

      .cls-24 {
        fill: #8e4a13;
      }

      .cls-25 {
        fill: #090808;
      }

      .cls-26 {
        fill: #241d24;
      }

      .cls-27 {
        fill: #ef796b;
      }

      .cls-28 {
        fill: #ebd6d1;
      }

      .cls-29 {
        fill: #ca873e;
      }

      .cls-30 {
        fill: #9b6e79;
      }

      .cls-31 {
        fill: #676164;
      }

      .cls-32 {
        fill: #b74132;
      }

      .cls-33 {
        fill: #e86615;
      }

      .cls-34 {
        fill: #8097ae;
      }

      .cls-35 {
        fill: #59251d;
      }

      .cls-36 {
        fill: #a9360a;
      }

      .cls-37 {
        fill: #2e1408;
      }

      .cls-38 {
        fill: #601702;
      }

      .cls-39 {
        fill: #d64f10;
      }

      .cls-40 {
        fill: #cfc6c4;
      }

      .cls-41 {
        fill: url(#Degradado_sin_nombre);
      }

      .cls-42 {
        fill: #a2a7ae;
      }

      .cls-43 {
        fill: url(#Degradado_sin_nombre_2);
      }

      .cls-44 {
        fill: #6d7d8c;
      }

      .cls-45 {
        fill: #55a8b0;
      }

      .cls-46 {
        fill: #909297;
      }

      .cls-47 {
        fill: #61666b;
      }

      .cls-48 {
        fill: #e1e1e3;
      }
    </style>
    <linearGradient id="Degradado_sin_nombre" data-name="Degradado sin nombre" x1="90.13" y1="28.14" x2="90.02" y2="13.98" gradientTransform="translate(103.88 53.3) rotate(-180)" gradientUnits="userSpaceOnUse">
      <stop offset="0" stop-color="#e96913"/>
      <stop offset="1" stop-color="#d74610"/>
    </linearGradient>
    <linearGradient id="Degradado_sin_nombre_2" data-name="Degradado sin nombre 2" x1="70.35" y1="37.22" x2="64.94" y2="16.98" gradientTransform="translate(103.88 53.3) rotate(-180)" gradientUnits="userSpaceOnUse">
      <stop offset="0" stop-color="#eb6e18"/>
      <stop offset="1" stop-color="#bc370a"/>
    </linearGradient>
    <linearGradient id="Degradado_sin_nombre_3" data-name="Degradado sin nombre 3" x1="69.75" y1="32.87" x2="78.68" y2="25.19" gradientTransform="translate(103.88 53.3) rotate(-180)" gradientUnits="userSpaceOnUse">
      <stop offset="0" stop-color="#eb7216"/>
      <stop offset="1" stop-color="#df5412"/>
    </linearGradient>
  </defs>
  <g id="Capa_2-2" data-name="Capa 2">
    <g>
      <path class="cls-40" d="M6.46,14.95c-.02-.12-.6-.82-.57-.96.05-.22,2.57-1.44,3.74,1.19l.11.4c-1.03,2.37-1.7,5.48-2.6,7.76l-.34-.11c.05-1.51-.06-3.03,0-4.53,0-.09.11-.1.11-.34,2.36.83.52-1.97,1.59-3.34.13-.84-1.31-1.62-1.59-.17l-.45.11h0Z"/>
      <path class="cls-10" d="M6.94,45.78c.18.04.52-.3.57-.4.56-1.16,1.04-8.75,8.66-9.34,2.44-.19,7.64-.18,9.74,1.02,2.02,1.15,4.58,5.28,5.15,7.47.13.51.26,2.54.34,2.66.11.13.33.02.45.06.43.14,3.18.19,3.28.06-.76-2.12-.23-4.05-.45-6.23l.51-.4c2.5.31,17.24-.22,18.12,0,1.43.35.4,2.67.85,4.81,6.93.08,3.25-.42,5.32,4.02-.82-1.09-.89-2.45-1.08-3.74-1.73-.43-4.61.36-4.76-.45h-16.88s-.11,2.15-.11,2.15c-.93-.12-6.6.16-6.91,0-.11-.06.28-.94-1.87-.23-.45-.41,2.07-.7,1.98-.11.19-3.57-1.68-8.06-5.21-9.4-.91-.35-4.41-.89-5.44-.91-5.11-.11-7.98,1.42-9.91,6.29-.54,1.38-.07,3.26-2.32,2.89-.1-.02-.06-.23-.06-.23h.03Z"/>
      <path class="cls-42" d="M43.5,34.22c6.15-.02,12.31.02,18.46,0-.74.23-.51.38,0,.79-1.91.14-2.69.61-3.85.79.06-.29-.77,0-1.76.11l-13.93.11c.15-.56.26-1.24.28-1.81h.8Z"/>
      <path class="cls-30" d="M89.24,34.21c-.55,1.43.48-.25,1.02.17.49.38-.37.28-.34.62-3.26-.12-25.78-.16-27.97,0-.51-.4-.74-.56,0-.79,9.1-.04,18.18-.06,27.29,0Z"/>
      <path class="cls-40" d="M42.42,22.66c.24-.17-.23-1.93.28-1.93-.11,4.49.15,9,0,13.48-.02.57-.13,1.25-.28,1.81l13.93-.11c.99-.11,1.83-.4,1.76-.11-4.05.64-14.37.03-15.8.34-.03,0-.17.14-.4.23-.17-5.17-.03-10.35,0-15.52.53,0-.08,2.21.51,1.81Z"/>
      <g>
        <path class="cls-10" d="M9.4,46.89H.17s-.17-6.17-.17-6.17l.23-.06c-.62,2.08,1.79.57,2.49,1.36-.27,0-2.47-.11-2.55,0-.07.1-.1,1.22-.06,1.3.17.34,2.93.09,3.96.17.11,0,.08.37,1.93.23.03.26.3.95,0,1.25-.67.05-5.59-.06-5.83.11-.09.07-.09,1.52,0,1.59.38.27,8.85-.08,9.23.23h0Z"/>
        <path class="cls-18" d="M5.55,40.67s.24.02.06.23c-1.43-.17-3.68.29-4.47-.23h.11c.88-.04,2.62-.03,3.51,0,.4,0,.64.25.68,0h.11Z"/>
        <path class="cls-25" d="M2.71,42.03c1.25-.02,1.29.11,1.36.11v1.36c-1.03-.08-3.78.17-3.96-.17-.04-.08-.01-1.2.06-1.3.08-.11,2.28,0,2.55,0h-.01Z"/>
        <path class="cls-25" d="M5.84,42.03c.32.14.11,1.1.17,1.7-1.86.13-1.83-.23-1.93-.23v-1.36c.09,0,1.11-.22,1.76-.11Z"/>
      </g>
      <g>
        <path class="cls-5" d="M44.85,4.74c.59.08.58.42,1.02.68.16.48.51.85.79,1.25-.18.03-1.77.53-1.47.91-.43,0-.34.11-.45.11-.07,0,.09-.57-1.02.34-.25.63-.04,1.29-.11,1.93-.04.34-.57.74-.23,1.02,0,.42.02.84,0,1.25l-.57.4c-.14-1.07.27-3.69-.23-4.36-.02-.03-.67-.41-.79-.45v-.11c-.02-.23.11-.25.11-.34,1.77.11-.32-.23.23-1.98.2-.63,1.33-.48,1.81-.51-.11,2.15,1.84,1.72.91-.11v-.03Z"/>
        <path class="cls-4" d="M44.85,4.77c.93,1.82-1.02,2.26-.91.11.56-.03.86-.11.91-.11Z"/>
        <path class="cls-22" d="M44.74,7.71c-.04.13-.12.13-.11.34h-.91c1.11-.91.95-.34,1.02-.34Z"/>
      </g>
      <g>
        <g>
          <path class="cls-25" d="M4.98,23.85c.15-1.72-.35-4.64.34-5.32-.45-.78-.48-3.87-.23-4.53.51-1.34,4.3-1.59,4.64.96-.02.04.07.24-.11.23-1.17-2.63-3.69-1.41-3.74-1.19-.02.13.56.84.57.96.02.17-.11,2.72-.11,3.51,0,1.77-.2,3.54-.11,5.32-.25.12-1.1.4-1.25.06Z"/>
          <path class="cls-4" d="M6.24,23.78c-.09-1.77.11-3.55.11-5.32l.45.23c-.06,1.5.05,3.02,0,4.53.01.33-.33.46-.57.57h.01Z"/>
        </g>
        <path class="cls-42" d="M6.91,14.85c-.06.34.03,2.58,0,3.51-.01.24-.11.25-.11.34l-.45-.23c0-.79.13-3.34.11-3.51,0,0,.45-.11.45-.11Z"/>
        <path class="cls-25" d="M8.5,15.02c-1.08,1.37.77,4.17-1.59,3.34.03-.92-.06-3.17,0-3.51.28-1.45,1.73-.67,1.59.17Z"/>
      </g>
      <g>
        <path class="cls-20" d="M101.03,38.51c.09-.46-.19-1.88.17-2.15h2.66c.03.12.03,2.11,0,2.27-.75.07-.65-.11-.68-.11-.05-.4.07-1.27,0-1.42-.08-.16-1.82-.92-1.36,1.42h-.79Z"/>
        <path class="cls-23" d="M103.18,37.1c.07.15-.05,1.02,0,1.42-.45-.04-.91.03-1.36,0-.46-2.34,1.29-1.59,1.36-1.42Z"/>
      </g>
      <path class="cls-17" d="M42.59,12.46l.11,8.27c-.5-.01-.04,1.76-.28,1.93-.59.4.02-1.81-.51-1.81,0-1.74-.03-3.48,0-5.21,0-.42-.02-.84,0-1.25.05-1.13-.36-1.55.68-1.93Z"/>
      <g>
        <path class="cls-37" d="M26.26,14.96c.21-.58.06-1.22.57-.74.07,5.51-.45,14.74-.11,19.76.02.36-.02.72,0,1.08,1.82,1.05,2.58,3.41,3.4,2.89-.34.15-.57.11-.91.11-.65-.9-1.98-2.3-2.94-2.83-1.16-.65-2.31-.88-3.62-1.02.37-.42,2.42.16,3.4.68l.23.06V14.96s-.02,0-.02,0Z"/>
        <path class="cls-5" d="M16.65,12.24c-.04.14.09.53.17.57.58.28,12.03-.54,12.8-.34.27.07.67.6.74.85.18.69.11,12.47.11,14.38,0,1.46.16,9.6,0,10.08-.06.19-.32.16-.34.17.18-.12.11-1.1.11-1.36,0-3.09.1-22.02-.11-23.16-.19-1.01-.69-.69-1.47-.74-.8-.05-13.6.26-15.86.34.95-.5,2.71-.69,3.85-.79Z"/>
        <path class="cls-20" d="M5.09,39.31c1.56-.94,2.37-2.78,3.79-3.85,2.55-1.91,7.72-2.79,10.87-2.94,1.82-.08,7.55-.38,6.29,2.38-.98-.52-3.03-1.11-3.4-.68-.9-.1-4.03-.26-4.81-.23-.08,0-.02.23-.11.23-2.55.13-3,.14-5.49.79h-.11s-.02-.18-.74,0c-1.96.87-3.82,2.37-4.81,4.3-.35.42-.76,1.12-1.02,1.36h-.11c-.49.05-.32-.63-.34-1.36h-.01Z"/>
        <path class="cls-9" d="M12.79,13.03c2.26-.08,15.07-.39,15.86-.34-.33,1.32-1.19,1.14-1.7,1.13-5.3-.11-5.86.8-8.66,1.02-1.56.13-2.93-.49-2.77.23-1.15,0-3.8-.33-3.74.23h-.34c-.05-.34-.56-.17-.79,0-.41-.17.56-1.79.68-2.04.49-.38.75-.32.79-.34-.03.46.39.12.68.11h-.01Z"/>
        <path class="cls-33" d="M15.53,15.08c-.17-.73,1.21-.11,2.77-.23,2.8-.22,3.36-1.13,8.66-1.02v19.98s.23.17.23.17c-.11-.03-.31.02-.45,0-.34-5.01.17-14.24.11-19.76-.52-.47-.36.17-.57.74-3.57.24-7.17.14-10.76.11h.01Z"/>
        <g>
          <path class="cls-41" d="M15.53,15.07c3.59.03,7.19.13,10.76-.11v19.98s-.23-.06-.23-.06c1.26-2.76-4.48-2.47-6.29-2.38-3.14.15-8.32,1.02-10.87,2.94-1.42,1.07-2.23,2.91-3.79,3.85-.11-3.62.26-7.4-.23-10.93l-.11,12.29c-.88-.03-2.63-.04-3.51,0l-.11-12.74c.15-.49,3.82-2.31,4.53-2.77l.11.11c-.71.36-4.98,2.56-4.42,3.34.47.67,5.34-3.06,5.66-2.6-.05.3.01.47.11.74.17.45.27,1.17.45,1.53,1.44,2.86-.43-4.2.96-1.64,2.35-.55,14.69-1.82,15.63-2.38,1.97-1.16.62-5.98.96-7.98-.09-.14-.33-.26-.34-.28-.39-.47-.53-.44-1.13-.57-3.95-.31-7.94.06-11.89-.11-.06-.56,2.6-.23,3.74-.23h.01Z"/>
          <g>
            <g>
              <path class="cls-33" d="M5.77,25.28c1.22-.62,1.48.27,1.36,1.47-.11-.28-.16-.45-.11-.74-.31-.47-5.19,3.26-5.66,2.6-.56-.78,3.71-2.98,4.42-3.34h-.01Z"/>
              <path class="cls-38" d="M4.87,28.38c.49,3.53.13,7.31.23,10.93.02.73-.15,1.41.34,1.36-.04.25-.29,0-.68,0l.11-12.29Z"/>
            </g>
            <g>
              <path class="cls-25" d="M18.59,28.55c-.04.28-.32.92-.06,1.02,2.45-.32,4.98.76,4.47-1.02l-.06,2.27c-.82-.08-4.18.11-4.42,0-.36-.15.02-.97-.34-1.13-.21-.09-1.3.11-1.42-.06-.03-.06-.09-1.25.23-1.08.08.76,1.64,1.19,1.13.11.06,0,.09-.1.45-.11h.02Z"/>
              <path class="cls-26" d="M18.56,28.55c1.47-.05,2.95.04,4.42,0,.51,1.78-2.02.7-4.47,1.02-.25-.1.02-.74.06-1.02h0Z"/>
              <path class="cls-32" d="M18.12,28.66c.51,1.08-1.05.66-1.13-.11.38-.14,1.07.11,1.13.11Z"/>
            </g>
          </g>
        </g>
        <g>
          <path class="cls-5" d="M9.74,14.99c1.01-1.38.35-.84-.57-1.53.45-.23,1.59-.1,1.76-.17.22-.09,1.63-3.08,2.66-3.85-.82,1.34-1.59,2.4-2.27,3.85-.12.25-1.09,1.87-.68,2.04.26.01.53-.02.79,0h.34c3.95.17,7.93-.2,11.89.11h-12.74c-.54.9.31.47.4,1.13h-.11s-.11-.21-.74-.34c-.55,1.07-2.93,7.99-2.77,8.55.06.22.43.27.45.28s-.04.21.06.23c.21.04,3.61-.57,4.25-.68l1.02.34c-.81.14-5.86.7-4.25,1.25,4.07-.97,9.33-1.13,13.25-1.93.42-.09,2.48-.66,1.19-.68.84-.78,1,.56,1.25-1.02.16-1.04.11-2.02.11-3.06-.01-1.14.15-2.6-.23-3.51,0,0,.25.14.34.28-.34,2,1.02,6.81-.96,7.98-.95.56-13.28,1.83-15.63,2.38-1.38-2.56.48,4.5-.96,1.64-.18-.36-.28-1.08-.45-1.53.12-1.2-.14-2.09-1.36-1.47l-.11-.11c.38-.25.8-.3,1.13-.74.16-.32.24-.83.34-1.08.89-2.29,1.57-5.39,2.6-7.76l-.11-.4c.18.01.11-.23.11-.23v.03Z"/>
          <path class="cls-10" d="M23.68,15.41c.6.14.74.11,1.13.57.39.91.23,2.36.23,3.51l-.17,2.72-.11-5.44-6.8-.11c-.33.15-.68,6.36-.85,7.19,1.61-.12,5.97-.55,7.19-.85.29-.07.45-.21.62-.45-.25,1.58-.41.24-1.25,1.02-.93-.01-8.46,1.08-10.19,1.36l-1.02-.34c.55-.1,3.93-.49,4.08-.74l.68-7.14c-.15-.32-5.14-.13-5.89-.17-.09-.66-.95-.23-.4-1.13h12.74s0,0,0,0Z"/>
          <path class="cls-3" d="M11.33,16.54c.75.04,5.74-.15,5.89.17l-.68,7.14c-.15.25-3.53.65-4.08.74-.64.11-4.04.73-4.25.68-.1-.02-.06-.23-.06-.23l.91-2.66c.39-.47.45-1.19.68-1.81.11-.3.33-.3.34-.34.01-.02-.19-.12-.11-.34.42-1.13.95-2.08,1.25-3.34h.11s0-.01,0-.01Z"/>
          <path class="cls-3" d="M24.91,22.55c-.17.24-.33.38-.62.45-1.21.3-5.58.73-7.19.85.17-.83.52-7.04.85-7.19l6.8.11.11,5.44.17-2.72c.01,1.04.05,2.03-.11,3.06h0Z"/>
          <path class="cls-21" d="M22.48,24.25c-3.92.81-9.18.96-13.25,1.93-1.61-.55,3.44-1.12,4.25-1.25,1.73-.28,9.26-1.37,10.19-1.36,1.29.02-.77.59-1.19.68Z"/>
          <path class="cls-19" d="M8.16,25.04s-.39-.05-.45-.28c-.16-.55,2.21-7.48,2.77-8.55.64.13.7.34.74.34-.3,1.26-.83,2.2-1.25,3.34-.08.22.11.32.11.34,0,.04-.23.04-.34.34-.23.62-.29,1.34-.68,1.81l-.91,2.66h.01Z"/>
        </g>
        <path class="cls-29" d="M11.44,15.3c-.26-.02-.53.01-.79,0,.22-.17.74-.34.79,0Z"/>
        <g>
          <path class="cls-33" d="M28.87,2.04c4.06-1.23,8.75-1.63,12.97-2.04.11.08.06,2.36.06,2.72-.45.04-.45-.2-1.02-.23-.88-.05-6.88.51-8.1.68-4.35.62-8.69,2.01-12.57,4.08-2.02,1.07-4.96,3.38-5.27,3.4-.08.01-.17-.17-.45-.11.12-.12.84-1.48,2.27-2.6,2.35-1.85,9.2-5.01,12.12-5.89h-.01Z"/>
          <path class="cls-9" d="M28.88,2.05c-2.92.88-9.77,4.04-12.12,5.89-1.45-.27-.89-.56.91-1.93,3.08-2.34,7.4-3.58,11.21-3.96Z"/>
          <path class="cls-23" d="M13.71,9.18c.92-1.16,2.66-2.42,3.96-3.17-1.8,1.37-2.37,1.67-.91,1.93-1.43,1.12-2.15,2.47-2.27,2.6-.54.57-1.86,2.05-2.38,2.38-.03.02-.29-.04-.79.34.68-1.45,1.46-2.51,2.27-3.85.11-.09.35-.18.11-.23h.01Z"/>
          <path class="cls-38" d="M40.89,2.49c.57.03.57.28,1.02.23,0,1.2.12,2.83-.23,2.72-.06-.19.02-.28-.45-.45-.01-.61,0-1.09-.11-1.7-.07-.37-.46-.29-.23-.79h0Z"/>
          <path class="cls-12" d="M13.7,9.18c.24.06.01.14-.11.23l.11-.23Z"/>
          <path class="cls-5" d="M41.46,11.68h.45c-.04.16.07.59-.06.68-3.79.03-7.59.07-11.38.11-.1-.45.58-.44-.57-.68,3.85-.09,7.7-.16,11.55-.11h0Z"/>
          <path class="cls-16" d="M14.95,10.67c.32-.02,3.26-2.33,5.27-3.4,3.88-2.07,8.22-3.46,12.57-4.08,1.23-.18,7.22-.73,8.1-.68-.23.5.16.42.23.79-10.61.21-17.03,2.24-26.05,7.59-.08-.02-.18.04-.23-.06-.01-.01.13-.09.11-.17h0Z"/>
          <g>
            <path class="cls-36" d="M41.22,4.99c.47.17.39.25.45.45.18.58.17,1.32.23,1.93,0,.09-.13.11-.11.34-.68-.12-.29.37-.68.34,0-1.02.13-2.06.11-3.06Z"/>
            <path class="cls-39" d="M15.05,10.9c.59.14,4.02-.78,6.4-1.02,1.67-.17,3.9-.09,5.66-.23,4.67-.39,9.3-.97,13.99-.91,0,.51-.05,2.53,0,2.66.07.15.63-.11.34.28-3.85-.05-7.7,0-11.55.11-3.49.08-10.34.21-13.25.45-1.14.09-2.9.29-3.85.79-.29.01-.71.35-.68-.11.52-.33,1.84-1.81,2.38-2.38.28-.06.37.11.45.11.03.08-.11.16-.11.17.06.1.16.04.23.06v.02Z"/>
            <path class="cls-20" d="M41.79,7.71v.11c.04.57.5,2.08.11,3.85h-.45c.29-.38-.28-.13-.34-.28-.05-.12,0-2.15,0-2.66v-.68c.39.03,0-.46.68-.34Z"/>
            <path class="cls-33" d="M15.06,10.87c9.02-5.35,15.44-7.38,26.05-7.59.11.61.1,1.1.11,1.7.02,1.01-.11,2.04-.11,3.06v.68c-4.69-.05-9.33.53-13.99.91-1.75.15-3.98.06-5.66.23-2.38.24-5.81,1.16-6.4,1.02h0Z"/>
          </g>
        </g>
        <g>
          <path class="cls-43" d="M31.04,14.51c.04.27-.05.86,0,.96.25.48,9.55-.02,10.87.17-.03,1.73,0,3.47,0,5.21-.03,5.17-.17,10.35,0,15.52-3.12,2.37-7.44,1.35-11.1,1.3-.27-6.8.36-16.94,0-23.16,0,0,.23,0,.23,0Z"/>
          <path class="cls-9" d="M42.58,8.27v4.19c-1.04.38-.63.8-.68,1.93l-10.87.11h-.23c-.06-1.08-.14-1.15-.34-2.04,3.79-.03,7.59-.07,11.38-.11.13-.09.02-.52.06-.68.39-1.76-.07-3.28-.11-3.85.12.04.79.45.79.45Z"/>
          <path class="cls-23" d="M31.03,14.5l10.87-.11c-.02.42,0,.84,0,1.25-1.32-.19-10.62.31-10.87-.17-.05-.1.04-.69,0-.96h0Z"/>
        </g>
        <path class="cls-20" d="M26.73,34c.14.02.34-.03.45,0,.33.1,2.74,1.41,2.83,1.64.11.27-.21,1.04.23.96,0,.26.07,1.24-.11,1.36-.82.52-1.58-1.85-3.4-2.89-.02-.36.02-.72,0-1.08h0Z"/>
        <path class="cls-7" d="M28.66,12.68c.78.06,1.28-.27,1.47.74.21,1.14.11,20.07.11,23.16-.45.08-.12-.69-.23-.96-.09-.23-2.5-1.54-2.83-1.64l-.23-.17V13.82c.52.01,1.37.19,1.7-1.13h.01Z"/>
      </g>
      <g>
        <path class="cls-2" d="M12.01,35.81c3.21-.87,11.01-.94,13.93.79,2.46,1.45,4.52,4.36,5.44,7.02.05.16.11.11.11.11.12.54-.27.32-.45.79-.56-2.19-3.13-6.31-5.15-7.47-2.1-1.2-7.3-1.21-9.74-1.02-7.62.58-8.1,8.17-8.66,9.34-.05.11-.4.44-.57.4-.23-.07-.59.11-.91-.79.3-.3.03-.99,0-1.25-.06-.6.15-1.56-.17-1.7-.65-.11-1.67.11-1.76.11-.07,0-.11-.13-1.36-.11-.7-.79-3.11.72-2.49-1.36.3,0,.61.02.91,0,.78.53,3.04.06,4.47.23.18-.21-.06-.23-.06-.23.26-.24.67-.94,1.02-1.36-.29.58-.92,1.54-.28,1.36.37-.1,1.6-3.75,5.72-4.87h0Z"/>
        <path class="cls-46" d="M25.95,36.59c.82-.83.04-.54.34-1.36.95.53,2.29,1.93,2.94,2.83.52.71,1.39,2.29,1.7,3.11.2.55.8,2.47.45,2.44-.92-2.66-2.99-5.57-5.44-7.02h.01Z"/>
        <path class="cls-2" d="M31.48,43.73c.4,1.28.39,2.16.34,3.51-.12-.04-.34.07-.45-.06-.08-.12-.21-2.15-.34-2.66.18-.46.57-.25.45-.79Z"/>
        <path class="cls-34" d="M12.24,35c2.49-.65,2.94-.65,5.49-.79.08,0,.02-.23.11-.23.77-.03,3.91.13,4.81.23,1.3.14,2.45.37,3.62,1.02-.3.82.48.53-.34,1.36-2.92-1.73-10.72-1.66-13.93-.79.5-.32.26-.3.23-.79h0Z"/>
        <path class="cls-44" d="M6.58,39.31c1.52-1.82,3.11-3.74,5.55-4.3h.11c.03.49.27.47-.23.79-4.12,1.12-5.35,4.77-5.72,4.87-.64.18-.02-.78.28-1.36h.01Z"/>
        <path class="cls-21" d="M11.38,35.01c.72-.18.7,0,.74,0-2.44.56-4.03,2.48-5.55,4.3.99-1.93,2.85-3.43,4.81-4.3Z"/>
      </g>
      <g>
        <path class="cls-35" d="M101.24,8.27h.23c-.34,1.26-.09,22.43-.11,25.94h-.34v-.45s.23-25.48.23-25.48h-.01Z"/>
        <path class="cls-25" d="M98.53,5.46c1.62-.48,4.6-.75,2.72,1.64.95,1.65.26,1.08.23,1.19h-.23c-.08-.36-1.12-1.71-1.36-1.59-.95,1.56-2.32.03-1.36-1.25h0Z"/>
        <path class="cls-16" d="M98.3,5.46c.08,0,.17.02.23,0-.96,1.28.41,2.81,1.36,1.25v3.4c-.21.05-.5.22-.68.34-.07.05-.33.21-.34.23-.13.02-.1-.09-.11-.11.5-.49,1.07-1.36,0-1.25,0-.11-.11-.12-.11-.23.79.26.81-.75.68-1.25-.02-.07.05-.19-.17-.34-.51.1-.86-.2-1.19-.57v-.23c.11-1.25.34-1.18.34-1.25h0Z"/>
        <path class="cls-28" d="M46.66,6.69h.11c-.04.12.08.32.17.34.54.12,5.28.09,6.34.11,14.89.21,29.79-.11,44.68-.23.33.38.68.67,1.19.57.22.15.15.27.17.34h-.79c-17.4-.17-34.81-.15-52.21-.11-.96,0-1.07-.11-1.13-.11-.3-.38,1.28-.88,1.47-.91Z"/>
        <g>
          <path class="cls-19" d="M45.7,4.66h52.1s.51.17.51.17c-.15.7,0,.59,0,.62-.01.07-.23,0-.34,1.25h-51.2s-.07,0-.11,0c-.28-.41-.63-.77-.79-1.25-.04-.12-.28-.73-.17-.79Z"/>
          <path class="cls-8" d="M46.78,6.68h51.19v.23c-14.89.12-29.79.44-44.68.23-1.05-.01-5.8.02-6.34-.11-.09-.02-.21-.22-.17-.34h0Z"/>
        </g>
        <path class="cls-38" d="M44.75,7.72c.11,0,.01-.11.45-.11.05,0,.17.11,1.13.11.12.52-.37.3-.45.68-.25,1.15.19,19.84,0,23.5l.34.17c-.12.24-.48-.02-.23.34-.94-.39-.98.24-1.25,1.36-.02,0,.03.23-.06.23-.7.07-1.28-.16-1.19.23h-.11c-.2-2.91-.58-3.13,1.42-2.94.24-.45-.19-.46-.17-.57,0-.01.23.03.23-.06.21-2.3-.16-6.63,0-9.29-.14-.1-.28-.13-.45-.17-.25-.06-.46.01-.68.11-.72-.42-.43-1.6-.45-2.72.38.07.13-.36.28-.45.05-.04.17.11.51.11.04,0,.03.26.79.06-.13-1.65.18-5.41,0-6.46,0-.03-.16-.17-.23-.17.14-.33.28-.64.28-1.02-.98.11-1.64-.38-1.53.34-.34-.28.19-.68.23-1.02,1.67.66,1.08-1.03,1.02-1.93-.02-.21.07-.21.11-.34h.01Z"/>
        <path class="cls-16" d="M42.57,12.48v-4.19c.51.67.1,3.29.23,4.36l.57-.4c-.09,1.95-.15,4.4-.11,6.34.02,1.13-.28,2.3.45,2.72-.02.01-.19-.06-.45.28.16,1.18-.21,8.55,0,8.95.1.2.79.18,1.02.17h.34c-.02.11.41.12.17.57-2-.19-1.62.02-1.42,2.94h-.68c.15-4.49-.11-8.99,0-13.48l-.11-8.27h0Z"/>
        <path class="cls-19" d="M43.37,11c-.1-.72.55-.23,1.53-.34.01.38-.14.69-.28,1.02-.01.03-.41.15-.45.28-.11.4-.02,5.23-.11,6.29-.34,0-.46-.14-.51-.11-.15.09.11.52-.28.45-.04-1.94.02-4.39.11-6.34.02-.42,0-.84,0-1.25h-.01Z"/>
        <path class="cls-32" d="M44.63,8.05c.06.91.64,2.6-1.02,1.93.07-.64-.15-1.31.11-1.93h.91Z"/>
        <path class="cls-32" d="M99.88,6.7c.24-.12,1.28,1.23,1.36,1.59l-.23,25.48c-1.27.5-.61-.51-.79-1.08-.14-.45-.43-.38-.45-.4-.07-.08.2-.29-.45-.45v-.11l.68-.06-.11-21.58v-3.4s0,.01,0,.01Z"/>
        <path class="cls-38" d="M99.21,10.42c.18-.12.47-.3.68-.34l.11,21.58-.68.06c0-3.56,0-7.13,0-10.7,0-.08-.23-.16-.23-.17v-2.27c0-.17.23-.08.23-.17,0-2.65.09-5.33-.11-7.98h0Z"/>
        <path class="cls-19" d="M98.65,8.39c.02.22,0,.46,0,.68,0,.11.11.12.11.23,0,.07-.32.76,0,1.25.01,0-.03.12.11.11-.06.07-.23.26-.23.28-.09.37,0,6.35,0,7.64v2.49c0,1.53-.12,10.18,0,10.7.02.09.15.06.23.06-.02,0,.03.27-.17.34-1.16.4-1.17.56-1.19-.11.71,0,1.48.13.57-.28V8.39c.19,0,.38,0,.57,0Z"/>
        <path class="cls-8" d="M99.21,10.43c.2,2.65.11,5.32.11,7.98,0,.09-.23,0-.23.17h-.45c0-1.29-.09-7.27,0-7.64.01,0,.18-.21.23-.28,0-.02.27-.18.34-.23Z"/>
        <path class="cls-27" d="M99.32,7.82c.13.5.11,1.51-.68,1.25,0-.22.02-.46,0-.68-.01-.08-.17-.2-.11-.57,0,0,.79,0,.79,0Z"/>
        <path class="cls-45" d="M98.76,10.55c-.32-.49,0-1.19,0-1.25,1.07-.11.5.76,0,1.25Z"/>
        <g>
          <path class="cls-5" d="M46.33,7.71c17.4-.05,34.81-.06,52.21.11-.07.37.11.49.11.57h-.57c-.57,0-.65.11-.68.11-17.17-.03-34.35-.22-51.53-.11.08-.38.57-.16.45-.68h0Z"/>
          <path class="cls-40" d="M45.88,8.4c17.18-.11,34.35.08,51.53.11-.06,6.26.07,12.53,0,18.8-.02,1.54.06,3.09-.06,4.64-17.05.03-34.09.07-51.14.11l-.34-.17c.19-3.66-.25-22.35,0-23.5h.01Z"/>
        </g>
        <path class="cls-38" d="M97.41,8.5s.11-.11.68-.11v23.39c.91.41.14.27-.57.28-.22-7.16.39-14.41.11-21.58l-.23,16.82c.07-6.26-.06-12.53,0-18.8h.01Z"/>
        <path class="cls-19" d="M98.88,31.85h.45c.65.16.38.37.45.45-.55-.17-.32.92-.28,1.59l-4.76.11c.67-2.23,1.35-1.91,2.77-1.93.02.66.03.5,1.19.11.2-.07.17-.34.17-.34h.01Z"/>
        <path class="cls-19" d="M45.99,32.4c.58.24.71,1.34.68,1.42-.17.45-1.61-.06-1.93-.06.27-1.12.31-1.75,1.25-1.36Z"/>
        <g>
          <path class="cls-19" d="M97.37,27.29l.23-16.82c.29,7.17-.33,14.42-.11,21.58-1.41.03-2.09-.3-2.77,1.93l4.76-.11c-.04-.68-.28-1.76.28-1.59.02.03.31-.05.45.4.18.57-.48,1.58.79,1.08v.45c-3.93-.02-7.85.02-11.78,0-9.1-.06-18.19-.04-27.29,0-6.15.02-12.31-.02-18.46,0-.09-.4.5-.17,1.19-.23.1,0,.05-.23.06-.23.32,0,1.77.51,1.93.06.03-.08-.1-1.18-.68-1.42-.24-.36.12-.1.23-.34,17.05-.03,34.09-.07,51.14-.11.12-1.54.04-3.09.06-4.64h-.03Z"/>
          <path class="cls-20" d="M50.52,33.93c-.73.23-1.32-.06-1.93-.4-.29-.16-.34-.34-.34-.34-.58-1.04,1.05-.31,2.27.74Z"/>
          <path class="cls-9" d="M48.76,33.87c-.96.02-1.19-.01-1.08-1.08.08-.11.26.18.57.4.02,0,.05.18.34.34,0,0,.17.34.17.34Z"/>
        </g>
        <g>
          <path class="cls-19" d="M44.4,21.19l-.11,9.51c-.23.01-.92.03-1.02-.17-.21-.4.16-7.77,0-8.95.25-.34.45-.28.45-.28.22-.11.44-.16.68-.11Z"/>
          <path class="cls-27" d="M44.41,21.18c.16.04.31.07.45.17-.16,2.66.21,6.99,0,9.29,0,.1-.23.06-.23.06h-.34l.11-9.51h0Z"/>
        </g>
        <path class="cls-14" d="M44.17,11.95c.03-.13.44-.25.45-.28.07-.01.23.14.23.17.18,1.05-.13,4.81,0,6.46-.76.19-.79-.06-.79-.06.09-1.06,0-5.89.11-6.29Z"/>
        <path class="cls-8" d="M98.65,21.09l.45-.23s.23.09.23.17c0,3.56,0,7.13,0,10.7v.11h-.45c-.08,0-.21.02-.23-.06-.12-.52,0-9.16,0-10.7h0Z"/>
        <path class="cls-31" d="M98.65,18.57h.45v2.27s-.45.23-.45.23v-2.49s0-.01,0-.01Z"/>
      </g>
      <g>
        <path class="cls-10" d="M82.23,39.32c4.98-.15,8.33,3.73,7.81,8.66-.04.37-.61,2.21-.79,2.55-.01.03-.42.4-.45.45-.91-.11-1.45.82-2.44,1.25-.58-.08-2.15.66-2.27.68-2.08.33-2.9-.41-3.06-.45-.13-.04-.23.18-.45.11-7.41-2.43-3.79-10.52-1.47-12.01,1.49-.97,3.45-.47,3.11-1.25h.01Z"/>
        <path class="cls-10" d="M81.42,49.5c-.84-.5-1.43-1.37-2.27-1.87.28-.68-.08-2,.34-2.94,2.5-5.65,11.18-.78,6.97,4.7-1.18-.19-2.4,1.55-3.45.68,2.91.25,4.1-2.69,2.49-4.98-.87-1.25-2.14-1.8-3.62-1.25-1.22.46-1.89,1.87-1.81,3.17.07,1.04.67,1.78,1.36,2.49h0Z"/>
        <path class="cls-13" d="M85.51,45.09c1.61,2.29.42,5.23-2.49,4.98-.59-.05-1.1-.28-1.59-.57-.69-.71-1.29-1.45-1.36-2.49.64.52.82,1.55,1.64,1.93,2,.93,3.98-.52,3.68-2.94-.01-.11-.09-.52-.11-.57,0,0,.23-.34.23-.34Z"/>
        <path class="cls-24" d="M81.89,43.83c1.48-.55,2.74,0,3.62,1.25l-.23.34c-.42-1.12-2.05-1.55-3.06-1.47-.18.02-.35.04-.34-.11h0Z"/>
        <path class="cls-6" d="M85.28,45.42c.02.06.1.46.11.57-.32.34-2.88-.8-3-.91-.17-.15-.12-.89-.17-1.13,1.01-.08,2.65.34,3.06,1.47Z"/>
        <g>
          <path class="cls-12" d="M80.07,47.02c-.09-1.3.58-2.71,1.81-3.17-.01.14.16.12.34.11.05.23,0,.97.17,1.13.12.11,2.68,1.25,3,.91.3,2.42-1.67,3.86-3.68,2.94-.81-.38-1-1.41-1.64-1.93h0Z"/>
          <path class="cls-9" d="M80.75,46.67c.45,2.11,1.04,1.07,1.64,1.13.51.06.72.97,1.19.23-.02.25-.27.5,0,.74-1.79.79-2.38-.51-2.94-1.87-.01-.12-.04-.22.11-.23Z"/>
          <path class="cls-1" d="M82.22,47.35c.56.22.75.3,1.42.23.17.2-.06.35-.06.45-.47.74-.68-.18-1.19-.23-.6-.06-1.19.98-1.64-1.13.4-.04.89.45,1.47.68Z"/>
          <path class="cls-24" d="M80.63,46.9s-.3.05-.34-.06c-.46-1.18,1.66-.92,1.76-.85.08.05.28,1.19.17,1.36-.58-.23-1.07-.72-1.47-.68-.15.02-.11.12-.11.23h-.01Z"/>
        </g>
      </g>
      <g>
        <path class="cls-25" d="M29.9,11.79c1.15.24.47.23.57.68.2.89.28.96.34,2.04.36,6.22-.27,16.36,0,23.16,3.66.05,7.98,1.07,11.1-1.3.24-.1.38-.23.4-.23,1.43-.31,11.75.3,15.8-.34,1.15-.18,1.94-.65,3.85-.79,2.18-.16,24.71-.12,27.97,0,.17,0,.65-.17,1.87,0,.92.29,1.81.55,2.77.68,1.43,1.08,8.61.02,9.23.34.12.08.03.23.06.34h-2.66c-.36.27-.08,1.69-.17,2.15-.03.12.05.38-.06.45h-6.01c-.18.34.06.32.06.34.04.35.69,2.99.85,3.06.66.09,6.08-.19,6.17.17.13.55-3.57.16-5.21.28-.28.02-.57,0-.85,0-.23.15.91,3.64.96,4.19-.94.08-1.68,0-2.6,0-.33-.93-1.3-7.42-1.87-7.59-.97-.28.29,2.07.17,3.74-1.37.78-.49-2.56-1.76-4.3-3.1.26-7.15-.03-10.02.11-1.92.1-2.63.57-4.08,1.76l.17.17c.87-.62,2.77-1.3,3.79-1.47.48-.08.98-.1,1.47-.11.35.78-1.61.28-3.11,1.25-2.32,1.5-5.94,9.58,1.47,12.01.22.07.32-.15.45-.11.16.04.98.78,3.06.45.12-.02,1.7-.76,2.27-.68.99-.43,1.54-1.36,2.44-1.25-.29.43-.7.78-.74,1.13,2.15,0,4.36-.11,6.51,0l.11,1.47h-.23c-10.48.52-20.94.36-31.43.45-2.38-.1-4.8-.23-7.19-.23-9.26-.03-18.49-.05-27.75,0h-.57c-.85,0-1.73.11-2.6.11-6.41.04-12.83.25-19.25-.11-.19,0-.38,0-.57,0,1.4-.25,1.26-.28.4-1.25-.5,0-1.94-.15-1.76-.57,3.56-.03,7.13.02,10.7,0l-1.93-2.27c-2.03.68-2.45-1.35-3.11-2.83-.38-.31-8.85.04-9.23-.23-.09-.07-.09-1.52,0-1.59.24-.17,5.15-.05,5.83-.11.33.9.68.71.91.79,0,0-.04.21.06.23,2.25.36,1.77-1.51,2.32-2.89,1.93-4.87,4.8-6.4,9.91-6.29,1.03.03,4.53.56,5.44.91,3.53,1.34,5.4,5.83,5.21,9.4.09-.6-2.42-.3-1.98.11-.22.95-.49,1.89-1.02,2.72-.42.65-1.17,1.19-1.64,1.81h35.9c-.3-.54-1.26-1.31-1.53-1.81-.03-.06-.07-.37-.11-.45-2.07-4.44,1.61-3.94-5.32-4.02-.45-2.14.58-4.46-.85-4.81-.88-.22-15.62.31-18.12,0l-.51.4c.22,2.18-.31,4.11.45,6.23-.1.12-2.85.08-3.28-.06.05-1.35.06-2.23-.34-3.51,0,0-.05.05-.11-.11.36.02-.24-1.9-.45-2.44-.31-.81-1.18-2.39-1.7-3.11.35,0,.58.04.91-.11.02,0,.28.02.34-.17.16-.48,0-8.62,0-10.08,0-1.91.08-13.69-.11-14.38-.07-.25-.47-.78-.74-.85-.77-.2-12.22.62-12.8.34-.08-.04-.21-.43-.17-.57,2.91-.24,9.76-.36,13.25-.45Z"/>
        <path class="cls-16" d="M103.18,38.52s-.07.17.68.11c-.03.16.07.3-.17.45-1.82.14-7.66-.18-8.49,0-.04,0-.17.16-.17.23-.01-.02-.24,0-.06-.34h6c.12-.06.04-.33.06-.45h.79c.45.03.91-.04,1.36,0Z"/>
        <path class="cls-48" d="M60.53,38.97c3.42-.25,6.72.15,10.08-.11.32,1,.72,1.76.06,1.47-1.08-.65-3-1.12-4.25-.91-.02-.64-.69-.18-1.3-.11-5.37.6-4.72,3.64-4.59-.34Z"/>
        <path class="cls-11" d="M73.51,49.62c.87-1.72-.05-.65,2.6,2.21-4.78.1-3.82.32-3.06-1.19.16-.33.29-.7.45-1.02h0Z"/>
        <path class="cls-48" d="M80.74,39.43c-1.02.17-2.92.85-3.79,1.47l-.17-.17c1.46-1.19,2.16-1.67,4.08-1.76l-.34.28.23.17h-.01Z"/>
        <g>
          <path class="cls-10" d="M66.42,39.42c1.25-.2,3.17.26,4.25.91,2.98,1.79,3.9,6.17,2.83,9.29-.16.32-.28.69-.45,1.02-.71-.63-.51.2-1.53.91-2.25,1.58-5.38,1.85-7.81.45-3.6-2.07-4.12-7.34-1.76-10.48,1.41-1.87,3.55-1.41,3.17-2.21.61-.07,1.28-.53,1.3.11Z"/>
          <g>
            <path class="cls-29" d="M69.55,47.34c.2-.91.05-1.01-.06-1.81.51.64.2,1.51.96,1.93-.46,3.97-7.01,3.37-6.06-1.7.12,4.25,4.51,4.44,5.15,1.59h.01Z"/>
            <path class="cls-12" d="M68.18,45.54c.27,1.72-2.08.69-.45,2.04-.52.04-.96-.14-1.36-.45-.69-.54-.82-1.48-1.02-1.93-.08-.18-.34-.45-.34-.45.22-.58,2.28.11,3.17.79Z"/>
            <path class="cls-12" d="M67.04,43.51c2.04,0,3.63,1.94,3.4,3.96-.76-.42-.45-1.29-.96-1.93.12.8.26.9.06,1.81-.18-.06-.22.1-.34.11-.3.03-.51-.03-.79-.11.38-.36.62-1.59.11-2.04.18-.14,1.04.03.06-.68-.49-.35-1.6-.39-1.53-1.13h-.01Z"/>
            <path class="cls-23" d="M64.9,46.23c.59.86-.16,2.38,1.47.91.4.31.84.48,1.36.45.22-.02.52-.08.68-.23.27.07.49.14.79.11-1.13,2.73-4.45,1.64-4.3-1.25h0Z"/>
            <path class="cls-21" d="M64.78,44.58c.74-.79,1.17-1.08,2.27-1.08-.07.74,1.05.78,1.53,1.13.97.71.11.54-.06.68-.1.08-.23.17-.34.23-.89-.67-2.95-1.37-3.17-.79,0,0-.1,0-.23-.17Z"/>
            <path class="cls-1" d="M65.35,45.2c.2.45.33,1.39,1.02,1.93-1.63,1.47-.88-.06-1.47-.91.01-.33.09-1.02.45-1.02Z"/>
            <path class="cls-5" d="M68.52,45.31c.51.45.28,1.68-.11,2.04-.16.15-.46.22-.68.23-1.63-1.35.72-.33.45-2.04.12-.06.24-.15.34-.23Z"/>
          </g>
        </g>
        <g>
          <path class="cls-10" d="M19.76,39.21c2.64.12,5.72,2.1,6.29,4.81,1.33,6.33-5.88,10.42-11.04,7.19-1.43-.9-2.72-2.19-2.89-3.91-.46-4.55,3.05-8.32,7.64-8.1h0Z"/>
          <g>
            <path class="cls-3" d="M15.99,43.63c-.05,1.93.98-.87,3.79-.57.54.52.97,1.2,1.76,1.25.08.15.11.11.11.11.18.28,1.11,1.33,1.13,1.42.42,1.79-2.6,2.57-1.02.96.44.27.18-.74.11-1.02-.07-.27-.24-.81-.51-.91-1.54-.58.31.53.4.91.03.12-.02.31,0,.45-.58-.14-.86.84-1.47.62.61-.53.11-.36.11-.4.03-.25.41-.79.11-1.76-.6-1.89-3.7-1.26-3.74.62-.06,0-.23-.22-.23-.23-.3-.54-.38-.27-.45-.34-.02,0,.1-.08-.23-.34-.4-.32-.31-.44-.34-.45.19-.32.24-.81.45-.34l.02.02Z"/>
            <path class="cls-25" d="M14.04,46.96c-.16-1.01.41-2.36,1.08-3.11.17-.04.27.04.4.11.03.01-.06.13.34.45-.13.06-.22.15-.34.23-1.16.74-.55,3.57.11,4.64-.62.4-1.51-1.79-1.59-2.32Z"/>
            <path class="cls-15" d="M21.86,45.77c.08.28.33,1.29-.11,1.02v-.57c-.02-.14.03-.32,0-.45h.11Z"/>
            <g>
              <path class="cls-25" d="M20.49,41.9c2.5,1.01,3.7,3.67,2.83,6.29-.13.4-1.36,2.44-1.7,1.76.49-.43,1.31-1.61,1.08-2.27-.29-.23-2.14,2.97-5.32,1.93-.77-.25-2.2-1.23-1.47-2.15.47.38,5.79.55,4.87,0-.17-.1-1.16.22-1.19-.34.28-.1.54-.52.79-.68,0,.04.5-.12-.11.4.6.22.89-.75,1.47-.62v.57c-1.58,1.62,1.44.83,1.02-.96-.02-.1-.94-1.15-1.13-1.42v-.11c1.48.28-.42-1.21-.79-1.7-.14-.18-.29-.45-.34-.68v-.02Z"/>
              <path class="cls-10" d="M18.18,49.39c-.58.25-1.27-.9-.57-1.13.78-.25.99.95.57,1.13Z"/>
              <path class="cls-2" d="M20.84,42.59c.36.49,2.26,1.98.79,1.7.08-.42-.34-.68-.34-.68-.03-.05-.42-.39-.45-1.02Z"/>
              <path class="cls-3" d="M19.82,48.72c-1.23,1.72-.65-.96.17-.68.52.18-.06.45-.06.45l.06-.23c-.32-.1-.42.28-.17.45h0Z"/>
              <path class="cls-31" d="M19.82,48.7c-.25-.17-.15-.55.17-.45l-.06.23c-.02.07-.07.17-.11.23h0Z"/>
            </g>
            <path class="cls-25" d="M15.86,44.4c.33.26.22.33.23.34-.2.58,0,.85.45.34.01.02.18.23.23.23-.01.34.14.86.34,1.13-.94,1.73-1.89.03-1.59-1.81.12-.08.21-.18.34-.23Z"/>
            <g>
              <path class="cls-10" d="M15.52,44.64c-.3,1.83.66,3.54,1.59,1.81.5.68,1.69.97,2.49.68.03.56,1.02.24,1.19.34.92.55-4.4.38-4.87,0-.73.91.7,1.9,1.47,2.15,3.17,1.03,5.02-2.16,5.32-1.93.23.66-.6,1.85-1.08,2.27-1.67,1.46-4.78,1.3-6-.68-.66-1.07-1.27-3.9-.11-4.64Z"/>
              <path class="cls-46" d="M17.27,47.24c-.48.08-.48-.42,0-.34.18.03.18.31,0,.34Z"/>
            </g>
            <path class="cls-48" d="M21.35,44.86c.27.1.44.64.51.91h-.11c-.1-.38-1.95-1.49-.4-.91Z"/>
            <path class="cls-48" d="M16.53,45.09c-.44.51-.65.24-.45-.34.07.07.14-.2.45.34Z"/>
            <g>
              <path class="cls-25" d="M20.5,41.91c.05.23.2.5.34.68.02.63.42.97.45,1.02.05.23.12.47.23.68-.79-.05-1.23-.73-1.76-1.25-2.8-.3-3.84,2.5-3.79.57.01-.51,1.27-3.01,4.53-1.7Z"/>
              <path class="cls-46" d="M21.29,43.61s.42.26.34.68v.11s-.03.04-.11-.11c-.11-.21-.19-.45-.23-.68Z"/>
              <path class="cls-2" d="M17.56,42.76c.24-.82,1.27-1.22,1.98-.96.61.22.67,1.14-1.98.96Z"/>
            </g>
            <g>
              <path class="cls-42" d="M16.75,45.3c.04-1.88,3.15-2.51,3.74-.62.31.97-.08,1.52-.11,1.76-.25.16-.51.58-.79.68-.8.29-1.99,0-2.49-.68-.2-.27-.34-.79-.34-1.13h-.01Z"/>
              <path class="cls-25" d="M19.48,44.18c.25,2.14-1.05,2.28-1.53,1.81-.34-.34-.07-.67-.17-.96-.16-.46-.88-.14,0,1.53-1.62-1.07-.24-3.36,1.7-2.38Z"/>
              <path class="cls-2" d="M17.78,46.56c-.88-1.67-.16-1.99,0-1.53.1.29-.17.62.17.96.48.48,1.78.33,1.53-1.81,1.62.82.39,3.75-1.7,2.38Z"/>
            </g>
          </g>
        </g>
      </g>
    </g>
    <circle class="cls-47" cx="82.7" cy="46.69" r="4.53"/>
    <circle class="cls-47" cx="66.84" cy="46.69" r="4.53"/>
    <circle class="cls-47" cx="18.81" cy="45.56" r="4.53"/>
  </g>
</svg>