<svg width="92" height="92" viewBox="0 0 92 92" fill="none" xmlns="http://www.w3.org/2000/svg">
<path d="M11.5 17.9C11.5 15.6598 11.5 14.5397 11.936 13.684C12.3195 12.9314 12.9314 12.3195 13.684 11.936C14.5397 11.5 15.6598 11.5 17.9 11.5H74.1C76.3402 11.5 77.4603 11.5 78.316 11.936C79.0686 12.3195 79.6805 12.9314 80.064 13.684C80.5 14.5397 80.5 15.6598 80.5 17.9V74.1C80.5 76.3402 80.5 77.4603 80.064 78.316C79.6805 79.0686 79.0686 79.6805 78.316 80.064C77.4603 80.5 76.3402 80.5 74.1 80.5H17.9C15.6598 80.5 14.5397 80.5 13.684 80.064C12.9314 79.6805 12.3195 79.0686 11.936 78.316C11.5 77.4603 11.5 76.3402 11.5 74.1V17.9Z" fill="#4EAAC1"/>
<path d="M46 30.6667L46 61.3334" stroke="white" stroke-width="5" stroke-linejoin="round"/>
<path d="M61.3333 46L30.6667 46" stroke="white" stroke-width="5" stroke-linejoin="round"/>
</svg>
