<svg width="62" height="62" viewBox="0 0 62 62" fill="none" xmlns="http://www.w3.org/2000/svg">
<path d="M42.2598 7.75C43.0772 7.75 43.486 7.75012 43.8535 7.90234C44.2211 8.05458 44.5098 8.34383 45.0879 8.92188L53.0781 16.9121C53.6562 17.4902 53.9454 17.7789 54.0977 18.1465C54.2499 18.514 54.25 18.9228 54.25 19.7402V48.25C54.25 51.0784 54.2498 52.4924 53.3711 53.3711C52.4924 54.2498 51.0784 54.25 48.25 54.25H42.333V41.75C42.333 41.0712 42.3355 40.4613 42.2695 39.9707C42.2084 39.5164 42.0762 39.0518 41.752 38.6504L41.6006 38.4824C41.1642 38.0461 40.6316 37.8833 40.1123 37.8135C39.6218 37.7476 39.0117 37.75 38.333 37.75H21.083C20.4043 37.75 19.7942 37.7475 19.3037 37.8135C18.8494 37.8746 18.3847 38.0069 17.9834 38.3311L17.8154 38.4824C17.3791 38.9188 17.2163 39.4514 17.1465 39.9707C17.0805 40.4613 17.083 41.0712 17.083 41.75V54.25H13.75C10.9216 54.25 9.50759 54.2498 8.62891 53.3711C7.75023 52.4924 7.75 51.0784 7.75 48.25V13.75C7.75 10.9216 7.75023 9.50759 8.62891 8.62891C9.50759 7.75023 10.9216 7.75 13.75 7.75H42.2598ZM38.333 39.75C39.0681 39.75 39.5194 39.7521 39.8457 39.7959C40.139 39.8353 40.1826 39.8921 40.1865 39.8965L40.2227 39.9561C40.2424 40.0036 40.2671 40.0882 40.2871 40.2373C40.331 40.5637 40.333 41.0146 40.333 41.75V54.25H19.083V41.75C19.083 41.0147 19.085 40.5637 19.1289 40.2373C19.1683 39.9444 19.225 39.9006 19.2295 39.8965L19.2891 39.8604C19.3366 39.8406 19.4214 39.8159 19.5703 39.7959C19.8966 39.752 20.3478 39.75 21.083 39.75H38.333ZM18.083 19.667C17.5309 19.6672 17.083 20.1148 17.083 20.667C17.0832 21.219 17.531 21.6668 18.083 21.667H31L31.1016 21.6621C31.6059 21.6111 31.9998 21.1847 32 20.667C32 20.1491 31.606 19.7229 31.1016 19.6719L31 19.667H18.083Z" fill="white"/>
</svg>
