<svg version="1.1" id="Layer_1" xmlns="http://www.w3.org/2000/svg" xmlns:xlink="http://www.w3.org/1999/xlink" viewBox="0 0 512 512" xml:space="preserve" width="800px" height="800px" fill="#000000">

<g id="SVGRepo_bgCarrier" stroke-width="0"/>

<g id="SVGRepo_tracerCarrier" stroke-linecap="round" stroke-linejoin="round"/>

<g id="SVGRepo_iconCarrier"> <polyline style="fill:#5A8BBA;" points="339.925,424.56 339.925,504.625 83.925,504.625 83.925,7.374 339.925,7.374 339.925,95.868 "/> <rect x="83.743" y="7.374" style="fill:#43688B;" width="48.12" height="497.24"/> <rect x="308.306" y="7.374" style="fill:#7AA2C8;" width="31.955" height="496.724"/> <rect x="83.743" y="71.54" style="fill:#FFD153;" width="256.643" height="368.924"/> <rect x="83.743" y="71.54" style="fill:#BF9D3E;" width="48.12" height="368.924"/> <rect x="308.306" y="71.54" style="fill:#FFDA75;" width="31.955" height="368.924"/> <g> <polygon style="fill:#FFFFFF;" points="428.602,408.38 220.082,408.38 220.082,288.083 204.041,256 220.082,223.917 220.082,111.64 428.602,111.64 "/> <circle style="fill:#FFFFFF;" cx="131.866" cy="143.718" r="16.041"/> </g> <rect x="252.165" y="143.718" style="fill:#5A8BBA;" width="144.361" height="152.378"/> <rect x="252.165" y="143.718" style="fill:#43688B;" width="72.186" height="152.378"/> <circle style="fill:#FFFFFF;" cx="131.866" cy="199.859" r="16.041"/> <g> <polyline style="fill:#FFD153;" points="284.089,296.033 284.089,247.572 364.155,247.572 364.155,296.033 "/> <path style="fill:#FFD153;" d="M324.341,223.92L324.341,223.92c-8.859,0-16.04-7.182-16.04-16.04v-24.06 c0-8.859,7.182-16.04,16.04-16.04l0,0c8.859,0,16.04,7.182,16.04,16.04v24.06C340.382,216.738,333.2,223.92,324.341,223.92z"/> </g> <g> <circle style="fill:#FFFFFF;" cx="131.866" cy="256" r="16.041"/> <circle style="fill:#FFFFFF;" cx="131.866" cy="312.141" r="16.041"/> <circle style="fill:#FFFFFF;" cx="131.866" cy="368.282" r="16.041"/> <rect x="204.02" y="31.605" style="fill:#FFFFFF;" width="15.802" height="15.802"/> <rect x="179.79" y="31.605" style="fill:#FFFFFF;" width="15.802" height="15.802"/> <rect x="228.251" y="31.605" style="fill:#FFFFFF;" width="15.802" height="15.802"/> <rect x="108.152" y="464.593" style="fill:#FFFFFF;" width="40.033" height="15.802"/> <rect x="276.712" y="464.593" style="fill:#FFFFFF;" width="40.033" height="15.802"/> </g> <path d="M348.353,95.868V0H75.497v512h272.856v-87.44H332.55v8.428H91.299V79.012H332.55v16.856H348.353z M332.55,448.79v47.407 H91.299V448.79H332.55z M91.299,63.21V15.802H332.55V63.21H91.299z"/> <path d="M436.503,416.281H212.181V289.948L195.208,256l16.973-33.948V103.739h224.322V416.281z M227.983,400.479h192.717V119.541 H227.983v106.241L212.875,256l15.107,30.218v114.261H227.983z"/> <path d="M324.343,231.821c-13.201,0-23.942-10.739-23.942-23.941v-24.06c0-13.201,10.74-23.942,23.942-23.942 s23.941,10.74,23.941,23.942v24.06C348.283,221.082,337.543,231.821,324.343,231.821z M324.343,175.681 c-4.488,0-8.139,3.651-8.139,8.139v24.06c0,4.488,3.651,8.138,8.139,8.138s8.138-3.65,8.138-8.138v-24.06 C332.481,179.333,328.829,175.681,324.343,175.681z"/> <path d="M244.261,135.818v168.183h160.162V135.818H244.261z M356.781,288.199h-64.263V256h64.263V288.199z M388.621,288.199h-16.037 v-48.002h-95.868v48.002h-16.652V151.62h128.557V288.199z"/> <path d="M131.861,167.661c-13.201,0-23.941-10.74-23.941-23.942c0-13.201,10.74-23.941,23.941-23.941 c13.201,0,23.942,10.739,23.942,23.941C155.803,156.921,145.062,167.661,131.861,167.661z M131.861,135.581 c-4.488,0-8.138,3.65-8.138,8.138s3.651,8.139,8.138,8.139c4.488,0,8.139-3.651,8.139-8.139 C140,139.232,136.349,135.581,131.861,135.581z"/> <rect x="163.987" y="135.901" width="40.033" height="15.802"/> <path d="M131.861,223.802c-13.201,0-23.941-10.74-23.941-23.942s10.74-23.941,23.941-23.941c13.201,0,23.942,10.74,23.942,23.941 C155.803,213.062,145.062,223.802,131.861,223.802z M131.861,191.721c-4.488,0-8.138,3.651-8.138,8.138 c0,4.488,3.651,8.139,8.138,8.139c4.488,0,8.139-3.651,8.139-8.139C140,195.372,136.349,191.721,131.861,191.721z"/> <rect x="163.987" y="191.737" width="40.033" height="15.802"/> <path d="M131.861,279.942c-13.201,0-23.941-10.74-23.941-23.942s10.74-23.942,23.941-23.942c13.201,0,23.942,10.74,23.942,23.942 C155.803,269.201,145.062,279.942,131.861,279.942z M131.861,247.861c-4.488,0-8.138,3.651-8.138,8.139 c0,4.488,3.651,8.139,8.138,8.139c4.488,0,8.139-3.651,8.139-8.139C140,251.512,136.349,247.861,131.861,247.861z"/> <rect x="163.987" y="248.626" width="24.23" height="15.802"/> <path d="M131.861,336.082c-13.201,0-23.941-10.74-23.941-23.942c0-13.201,10.74-23.942,23.941-23.942 c13.201,0,23.942,10.74,23.942,23.942C155.803,325.341,145.062,336.082,131.861,336.082z M131.861,304.002 c-4.488,0-8.138,3.651-8.138,8.139s3.651,8.139,8.138,8.139c4.488,0,8.139-3.651,8.139-8.139 C140,307.652,136.349,304.002,131.861,304.002z"/> <rect x="163.987" y="304.461" width="40.033" height="15.802"/> <path d="M131.861,392.221c-13.201,0-23.941-10.739-23.941-23.941s10.74-23.942,23.941-23.942c13.201,0,23.942,10.74,23.942,23.942 C155.803,381.481,145.062,392.221,131.861,392.221z M131.861,360.141c-4.488,0-8.138,3.651-8.138,8.139s3.651,8.138,8.138,8.138 c4.488,0,8.139-3.65,8.139-8.138S136.349,360.141,131.861,360.141z"/> <rect x="163.987" y="360.296" width="40.033" height="15.802"/> <rect x="244.053" y="311.835" width="160.132" height="15.802"/> <g> <rect x="244.053" y="336.066" style="fill:#5A8BBA;" width="15.802" height="15.802"/> <rect x="268.284" y="336.066" style="fill:#5A8BBA;" width="15.802" height="15.802"/> <rect x="292.514" y="336.066" style="fill:#5A8BBA;" width="15.802" height="15.802"/> <rect x="316.745" y="336.066" style="fill:#5A8BBA;" width="15.802" height="15.802"/> </g> <rect x="316.745" y="368.724" style="fill:#FFD153;" width="87.44" height="15.802"/> </g>

</svg>